<?xml version="1.0" encoding="UTF-8"?>
<!DOCTYPE svg PUBLIC "-//W3C//DTD SVG 1.1//EN" "http://www.w3.org/Graphics/SVG/1.1/DTD/svg11.dtd">
<!-- Creator: CorelDRAW 2017 -->
<svg xmlns="http://www.w3.org/2000/svg" xml:space="preserve" width="262.077mm" height="125.5mm" version="1.1" style="shape-rendering:geometricPrecision; text-rendering:geometricPrecision; image-rendering:optimizeQuality; fill-rule:evenodd; clip-rule:evenodd"
viewBox="0 0 26265.97 12577.86"
 xmlns:xlink="http://www.w3.org/1999/xlink">
 <defs>
  <style type="text/css">
   <![CDATA[
    .str0 {stroke:#D9D9D9;stroke-width:4.24;stroke-miterlimit:22.9256}
    .str1 {stroke:white;stroke-width:20.04;stroke-miterlimit:22.9256}
    .str2 {stroke:#C00000;stroke-width:25.45;stroke-miterlimit:22.9256}
    .fil6 {fill:none}
    .fil0 {fill:black;fill-rule:nonzero}
    .fil5 {fill:#287846;fill-rule:nonzero}
    .fil2 {fill:#C4D142;fill-rule:nonzero}
    .fil1 {fill:#D9D9D9;fill-rule:nonzero}
    .fil4 {fill:#EC5F8A;fill-rule:nonzero}
    .fil3 {fill:white;fill-rule:nonzero}
   ]]>
  </style>
 </defs>
 <g id="Capa_x0020_1">
  <metadata id="CorelCorpID_0Corel-Layer"/>
  <path class="fil0" d="M24690.12 10528.59c0,48.04 -7.59,83.88 -22.69,107.54 -15.16,23.65 -38.3,35.52 -69.42,35.52 -29.95,0 -52.63,-12.12 -68.25,-36.36 -15.55,-24.24 -23.33,-59.83 -23.33,-106.7 0,-48.35 7.52,-84.2 22.62,-107.66 15.03,-23.4 38.04,-35.14 68.96,-35.14 30.15,0 53.03,12.26 68.64,36.69 15.62,24.43 23.47,59.82 23.47,106.11zm-151.81 -0.06c0,40.38 4.73,69.8 14.26,88.29 9.52,18.4 24.62,27.61 45.43,27.61 21.01,0 36.24,-9.34 45.7,-28 9.4,-18.73 14.13,-47.97 14.13,-87.89 0,-39.87 -4.73,-69.1 -14.13,-87.7 -9.46,-18.53 -24.69,-27.8 -45.7,-27.8 -20.81,0 -35.91,9.14 -45.43,27.48 -9.53,18.28 -14.26,47.65 -14.26,88.03zm199.96 119.07c0,-8.43 1.94,-14.84 5.77,-19.19 3.89,-4.34 9.39,-6.54 16.66,-6.54 7.33,0 13.03,2.2 17.18,6.54 4.08,4.35 6.15,10.76 6.15,19.19 0,8.23 -2.07,14.58 -6.22,18.99 -4.21,4.4 -9.91,6.6 -17.11,6.6 -6.48,0 -11.8,-2 -16.08,-5.96 -4.22,-3.95 -6.35,-10.49 -6.35,-19.63zm277.76 -119.01c0,48.04 -7.59,83.88 -22.69,107.54 -15.16,23.65 -38.3,35.52 -69.42,35.52 -29.95,0 -52.63,-12.12 -68.25,-36.36 -15.55,-24.24 -23.33,-59.83 -23.33,-106.7 0,-48.35 7.52,-84.2 22.62,-107.66 15.03,-23.4 38.04,-35.14 68.96,-35.14 30.15,0 53.03,12.26 68.64,36.69 15.62,24.43 23.47,59.82 23.47,106.11zm-151.81 -0.06c0,40.38 4.73,69.8 14.26,88.29 9.52,18.4 24.62,27.61 45.43,27.61 21.01,0 36.24,-9.34 45.7,-28 9.4,-18.73 14.13,-47.97 14.13,-87.89 0,-39.87 -4.73,-69.1 -14.13,-87.7 -9.46,-18.53 -24.69,-27.8 -45.7,-27.8 -20.81,0 -35.91,9.14 -45.43,27.48 -9.53,18.28 -14.26,47.65 -14.26,88.03z"/>
  <path class="fil0" d="M24688.62 8936.79l-182.59 0 0 -27.16 73.18 -73.5c22.23,-22.56 36.94,-38.64 44.08,-48.29 7.07,-9.6 12.38,-18.99 15.95,-28.07 3.5,-9.14 5.31,-18.92 5.31,-29.49 0,-14.78 -4.54,-26.52 -13.48,-35.2 -9.01,-8.69 -21.52,-13.03 -37.46,-13.03 -11.55,0 -22.43,1.87 -32.74,5.7 -10.36,3.76 -21.84,10.69 -34.48,20.68l-16.73 -21.46c25.54,-21.2 53.41,-31.76 83.56,-31.76 26.12,0 46.53,6.67 61.38,20.03 14.85,13.35 22.24,31.3 22.24,53.86 0,17.57 -4.93,35.01 -14.84,52.25 -9.85,17.18 -28.33,38.96 -55.48,65.27l-60.8 59.5 0 1.49 142.93 0 0 29.16zm223.89 -139.17c0,48.04 -7.59,83.88 -22.69,107.54 -15.16,23.65 -38.3,35.52 -69.42,35.52 -29.95,0 -52.63,-12.12 -68.25,-36.36 -15.55,-24.24 -23.33,-59.83 -23.33,-106.7 0,-48.35 7.52,-84.2 22.62,-107.66 15.03,-23.4 38.04,-35.14 68.96,-35.14 30.15,0 53.03,12.26 68.64,36.69 15.62,24.43 23.47,59.82 23.47,106.11zm-151.81 -0.06c0,40.38 4.73,69.8 14.26,88.29 9.52,18.4 24.62,27.61 45.43,27.61 21.01,0 36.24,-9.34 45.7,-28 9.4,-18.73 14.13,-47.97 14.13,-87.89 0,-39.87 -4.73,-69.1 -14.13,-87.7 -9.46,-18.53 -24.69,-27.8 -45.7,-27.8 -20.81,0 -35.91,9.14 -45.43,27.48 -9.53,18.28 -14.26,47.65 -14.26,88.03zm199.96 119.07c0,-8.43 1.94,-14.84 5.77,-19.19 3.89,-4.34 9.39,-6.54 16.66,-6.54 7.33,0 13.03,2.2 17.18,6.54 4.08,4.35 6.15,10.76 6.15,19.19 0,8.23 -2.07,14.58 -6.22,18.99 -4.21,4.4 -9.91,6.6 -17.11,6.6 -6.48,0 -11.8,-2 -16.08,-5.96 -4.22,-3.95 -6.35,-10.49 -6.35,-19.63zm277.76 -119.01c0,48.04 -7.59,83.88 -22.69,107.54 -15.16,23.65 -38.3,35.52 -69.42,35.52 -29.95,0 -52.63,-12.12 -68.25,-36.36 -15.55,-24.24 -23.33,-59.83 -23.33,-106.7 0,-48.35 7.52,-84.2 22.62,-107.66 15.03,-23.4 38.04,-35.14 68.96,-35.14 30.15,0 53.03,12.26 68.64,36.69 15.62,24.43 23.47,59.82 23.47,106.11zm-151.81 -0.06c0,40.38 4.73,69.8 14.26,88.29 9.52,18.4 24.62,27.61 45.43,27.61 21.01,0 36.24,-9.34 45.7,-28 9.4,-18.73 14.13,-47.97 14.13,-87.89 0,-39.87 -4.73,-69.1 -14.13,-87.7 -9.46,-18.53 -24.69,-27.8 -45.7,-27.8 -20.81,0 -35.91,9.14 -45.43,27.48 -9.53,18.28 -14.26,47.65 -14.26,88.03z"/>
  <path class="fil0" d="M24701.71 7142.04l-41.22 0 0 63.78 -30.21 0 0 -63.78 -135.08 0 0 -27.55 131.84 -187.91 33.44 0 0 186.67 41.22 0 0 28.78zm-71.43 -28.78l0 -92.29c0,-18.09 0.65,-38.57 1.88,-61.33l-1.49 0c-6.09,12.13 -11.8,22.24 -17.11,30.21l-86.86 123.41 103.58 0zm282.23 -46.6c0,48.04 -7.59,83.88 -22.69,107.54 -15.16,23.65 -38.3,35.52 -69.42,35.52 -29.95,0 -52.63,-12.12 -68.25,-36.36 -15.55,-24.24 -23.33,-59.83 -23.33,-106.7 0,-48.35 7.52,-84.2 22.62,-107.66 15.03,-23.4 38.04,-35.14 68.96,-35.14 30.15,0 53.03,12.26 68.64,36.69 15.62,24.43 23.47,59.82 23.47,106.11zm-151.81 -0.06c0,40.38 4.73,69.8 14.26,88.29 9.52,18.4 24.62,27.61 45.43,27.61 21.01,0 36.24,-9.34 45.7,-28 9.4,-18.73 14.13,-47.97 14.13,-87.89 0,-39.87 -4.73,-69.1 -14.13,-87.7 -9.46,-18.53 -24.69,-27.8 -45.7,-27.8 -20.81,0 -35.91,9.14 -45.43,27.48 -9.53,18.28 -14.26,47.65 -14.26,88.03zm199.96 119.07c0,-8.43 1.94,-14.84 5.77,-19.19 3.89,-4.34 9.39,-6.54 16.66,-6.54 7.33,0 13.03,2.2 17.18,6.54 4.08,4.35 6.15,10.76 6.15,19.19 0,8.23 -2.07,14.58 -6.22,18.99 -4.21,4.4 -9.91,6.6 -17.11,6.6 -6.48,0 -11.8,-2 -16.08,-5.96 -4.22,-3.95 -6.35,-10.49 -6.35,-19.63zm277.76 -119.01c0,48.04 -7.59,83.88 -22.69,107.54 -15.16,23.65 -38.3,35.52 -69.42,35.52 -29.95,0 -52.63,-12.12 -68.25,-36.36 -15.55,-24.24 -23.33,-59.83 -23.33,-106.7 0,-48.35 7.52,-84.2 22.62,-107.66 15.03,-23.4 38.04,-35.14 68.96,-35.14 30.15,0 53.03,12.26 68.64,36.69 15.62,24.43 23.47,59.82 23.47,106.11zm-151.81 -0.06c0,40.38 4.73,69.8 14.26,88.29 9.52,18.4 24.62,27.61 45.43,27.61 21.01,0 36.24,-9.34 45.7,-28 9.4,-18.73 14.13,-47.97 14.13,-87.89 0,-39.87 -4.73,-69.1 -14.13,-87.7 -9.46,-18.53 -24.69,-27.8 -45.7,-27.8 -20.81,0 -35.91,9.14 -45.43,27.48 -9.53,18.28 -14.26,47.65 -14.26,88.03z"/>
  <path class="fil0" d="M24509.27 5356.24c0,-54.57 10.63,-95.34 31.83,-122.37 21.2,-27.03 52.57,-40.58 94.12,-40.58 14.32,0 25.6,1.23 33.83,3.63l0 27.16c-9.79,-3.18 -20.94,-4.73 -33.44,-4.73 -29.76,0 -52.51,9.27 -68.19,27.81 -15.75,18.53 -24.37,47.64 -25.87,87.3l2.28 0c13.93,-21.78 35.97,-32.66 66.11,-32.66 24.96,0 44.6,7.52 58.99,22.62 14.39,15.1 21.58,35.52 21.58,61.39 0,28.9 -7.91,51.59 -23.65,68.12 -15.75,16.53 -37.08,24.83 -63.91,24.83 -28.78,0 -51.53,-10.82 -68.38,-32.41 -16.86,-21.58 -25.29,-51.59 -25.29,-90.1zm93.28 95.68c18.02,0 31.96,-5.64 41.87,-16.99 9.98,-11.35 14.91,-27.74 14.91,-49.13 0,-18.41 -4.61,-32.8 -13.87,-43.37 -9.21,-10.5 -23.01,-15.75 -41.42,-15.75 -11.35,0 -21.85,2.34 -31.31,7.01 -9.53,4.73 -17.11,11.14 -22.75,19.38 -5.57,8.29 -8.43,16.79 -8.43,25.67 0,13.09 2.53,25.22 7.59,36.49 5.05,11.27 12.25,20.22 21.59,26.83 9.33,6.55 19.89,9.86 31.82,9.86zm309.97 -116.23c0,48.04 -7.59,83.88 -22.69,107.54 -15.16,23.65 -38.3,35.52 -69.42,35.52 -29.95,0 -52.63,-12.12 -68.25,-36.36 -15.55,-24.24 -23.33,-59.83 -23.33,-106.7 0,-48.35 7.52,-84.2 22.62,-107.66 15.03,-23.4 38.04,-35.14 68.96,-35.14 30.15,0 53.03,12.26 68.64,36.69 15.62,24.43 23.47,59.82 23.47,106.11zm-151.81 -0.06c0,40.38 4.73,69.8 14.26,88.29 9.52,18.4 24.62,27.61 45.43,27.61 21.01,0 36.24,-9.34 45.7,-28 9.4,-18.73 14.13,-47.97 14.13,-87.89 0,-39.87 -4.73,-69.1 -14.13,-87.7 -9.46,-18.53 -24.69,-27.8 -45.7,-27.8 -20.81,0 -35.91,9.14 -45.43,27.48 -9.53,18.28 -14.26,47.65 -14.26,88.03zm199.96 119.07c0,-8.43 1.94,-14.84 5.77,-19.19 3.89,-4.34 9.39,-6.54 16.66,-6.54 7.33,0 13.03,2.2 17.18,6.54 4.08,4.35 6.15,10.76 6.15,19.19 0,8.23 -2.07,14.58 -6.22,18.99 -4.21,4.4 -9.91,6.6 -17.11,6.6 -6.48,0 -11.8,-2 -16.08,-5.96 -4.22,-3.95 -6.35,-10.49 -6.35,-19.63zm277.76 -119.01c0,48.04 -7.59,83.88 -22.69,107.54 -15.16,23.65 -38.3,35.52 -69.42,35.52 -29.95,0 -52.63,-12.12 -68.25,-36.36 -15.55,-24.24 -23.33,-59.83 -23.33,-106.7 0,-48.35 7.52,-84.2 22.62,-107.66 15.03,-23.4 38.04,-35.14 68.96,-35.14 30.15,0 53.03,12.26 68.64,36.69 15.62,24.43 23.47,59.82 23.47,106.11zm-151.81 -0.06c0,40.38 4.73,69.8 14.26,88.29 9.52,18.4 24.62,27.61 45.43,27.61 21.01,0 36.24,-9.34 45.7,-28 9.4,-18.73 14.13,-47.97 14.13,-87.89 0,-39.87 -4.73,-69.1 -14.13,-87.7 -9.46,-18.53 -24.69,-27.8 -45.7,-27.8 -20.81,0 -35.91,9.14 -45.43,27.48 -9.53,18.28 -14.26,47.65 -14.26,88.03z"/>
  <path class="fil0" d="M24598 3462.32c25.29,0 45.38,5.9 60.22,17.63 14.77,11.8 22.23,28.07 22.23,48.81 0,13.68 -4.28,26.13 -12.77,37.4 -8.49,11.27 -22.04,21.52 -40.64,30.79 22.55,10.76 38.57,22.04 48.1,33.91 9.46,11.86 14.19,25.54 14.19,41.09 0,23.08 -8.04,41.48 -24.11,55.22 -16.08,13.74 -38.11,20.62 -66.12,20.62 -29.62,0 -52.44,-6.48 -68.38,-19.44 -15.95,-13.03 -23.91,-31.44 -23.91,-55.23 0,-31.82 19.37,-56.59 58.14,-74.27 -17.5,-9.92 -30.02,-20.55 -37.66,-32.02 -7.58,-11.41 -11.34,-24.24 -11.34,-38.44 0,-20.09 7.39,-36.17 22.29,-48.1 14.84,-12 34.81,-17.96 59.76,-17.96zm-60.08 211.51c0,15.22 5.31,27.03 15.89,35.52 10.56,8.49 25.41,12.77 44.53,12.77 18.92,0 33.57,-4.41 44.14,-13.29 10.5,-8.88 15.75,-21.07 15.75,-36.49 0,-12.32 -4.93,-23.27 -14.84,-32.8 -9.85,-9.59 -27.1,-18.86 -51.66,-27.87 -18.86,8.11 -32.54,17.05 -41.03,26.9 -8.49,9.85 -12.77,21.59 -12.77,35.27zm59.7 -185.84c-15.89,0 -28.26,3.83 -37.27,11.42 -9.01,7.58 -13.48,17.69 -13.48,30.33 0,11.68 3.76,21.66 11.2,30.02 7.46,8.36 21.27,16.72 41.42,25.09 18.15,-7.59 30.92,-15.75 38.51,-24.5 7.52,-8.75 11.27,-18.92 11.27,-30.6 0,-12.77 -4.6,-22.94 -13.74,-30.46 -9.2,-7.53 -21.85,-11.29 -37.91,-11.29zm314.89 116.74c0,48.04 -7.59,83.88 -22.69,107.54 -15.16,23.65 -38.3,35.52 -69.42,35.52 -29.95,0 -52.63,-12.12 -68.25,-36.36 -15.55,-24.24 -23.33,-59.83 -23.33,-106.7 0,-48.35 7.52,-84.2 22.62,-107.66 15.03,-23.4 38.04,-35.14 68.96,-35.14 30.15,0 53.03,12.26 68.64,36.69 15.62,24.43 23.47,59.82 23.47,106.11zm-151.81 -0.06c0,40.38 4.73,69.8 14.26,88.29 9.52,18.4 24.62,27.61 45.43,27.61 21.01,0 36.24,-9.34 45.7,-28 9.4,-18.73 14.13,-47.97 14.13,-87.89 0,-39.87 -4.73,-69.1 -14.13,-87.7 -9.46,-18.53 -24.69,-27.8 -45.7,-27.8 -20.81,0 -35.91,9.14 -45.43,27.48 -9.53,18.28 -14.26,47.65 -14.26,88.03zm199.96 119.07c0,-8.43 1.94,-14.84 5.77,-19.19 3.89,-4.34 9.39,-6.54 16.66,-6.54 7.33,0 13.03,2.2 17.18,6.54 4.08,4.35 6.15,10.76 6.15,19.19 0,8.23 -2.07,14.58 -6.22,18.99 -4.21,4.4 -9.91,6.6 -17.11,6.6 -6.48,0 -11.8,-2 -16.08,-5.96 -4.22,-3.95 -6.35,-10.49 -6.35,-19.63zm277.76 -119.01c0,48.04 -7.59,83.88 -22.69,107.54 -15.16,23.65 -38.3,35.52 -69.42,35.52 -29.95,0 -52.63,-12.12 -68.25,-36.36 -15.55,-24.24 -23.33,-59.83 -23.33,-106.7 0,-48.35 7.52,-84.2 22.62,-107.66 15.03,-23.4 38.04,-35.14 68.96,-35.14 30.15,0 53.03,12.26 68.64,36.69 15.62,24.43 23.47,59.82 23.47,106.11zm-151.81 -0.06c0,40.38 4.73,69.8 14.26,88.29 9.52,18.4 24.62,27.61 45.43,27.61 21.01,0 36.24,-9.34 45.7,-28 9.4,-18.73 14.13,-47.97 14.13,-87.89 0,-39.87 -4.73,-69.1 -14.13,-87.7 -9.46,-18.53 -24.69,-27.8 -45.7,-27.8 -20.81,0 -35.91,9.14 -45.43,27.48 -9.53,18.28 -14.26,47.65 -14.26,88.03z"/>
  <path class="fil0" d="M24622.83 2012.93l-30.72 0 0 -197.89c0,-16.47 0.52,-32.02 1.49,-46.67 -2.67,2.66 -5.64,5.44 -8.95,8.36 -3.24,2.92 -18.34,15.23 -45.18,37.08l-16.72 -21.72 73.5 -56.85 26.57 0 0 277.69zm289.68 -139.17c0,48.04 -7.59,83.88 -22.69,107.54 -15.16,23.65 -38.3,35.52 -69.42,35.52 -29.95,0 -52.63,-12.12 -68.25,-36.36 -15.55,-24.24 -23.33,-59.83 -23.33,-106.7 0,-48.35 7.52,-84.2 22.62,-107.66 15.03,-23.4 38.04,-35.14 68.96,-35.14 30.15,0 53.03,12.26 68.64,36.69 15.62,24.43 23.47,59.82 23.47,106.11zm-151.81 -0.06c0,40.38 4.73,69.8 14.26,88.29 9.52,18.4 24.62,27.61 45.43,27.61 21.01,0 36.24,-9.34 45.7,-28 9.4,-18.73 14.13,-47.97 14.13,-87.89 0,-39.87 -4.73,-69.1 -14.13,-87.7 -9.46,-18.53 -24.69,-27.8 -45.7,-27.8 -20.81,0 -35.91,9.14 -45.43,27.48 -9.53,18.28 -14.26,47.65 -14.26,88.03zm374.2 0.06c0,48.04 -7.59,83.88 -22.69,107.54 -15.16,23.65 -38.3,35.52 -69.42,35.52 -29.95,0 -52.63,-12.12 -68.25,-36.36 -15.55,-24.24 -23.33,-59.83 -23.33,-106.7 0,-48.35 7.52,-84.2 22.62,-107.66 15.03,-23.4 38.04,-35.14 68.96,-35.14 30.15,0 53.03,12.26 68.64,36.69 15.62,24.43 23.47,59.82 23.47,106.11zm-151.81 -0.06c0,40.38 4.73,69.8 14.26,88.29 9.52,18.4 24.62,27.61 45.43,27.61 21.01,0 36.24,-9.34 45.7,-28 9.4,-18.73 14.13,-47.97 14.13,-87.89 0,-39.87 -4.73,-69.1 -14.13,-87.7 -9.46,-18.53 -24.69,-27.8 -45.7,-27.8 -20.81,0 -35.91,9.14 -45.43,27.48 -9.53,18.28 -14.26,47.65 -14.26,88.03zm199.96 119.07c0,-8.43 1.94,-14.84 5.77,-19.19 3.89,-4.34 9.39,-6.54 16.66,-6.54 7.33,0 13.03,2.2 17.18,6.54 4.08,4.35 6.15,10.76 6.15,19.19 0,8.23 -2.07,14.58 -6.22,18.99 -4.21,4.4 -9.91,6.6 -17.11,6.6 -6.48,0 -11.8,-2 -16.08,-5.96 -4.22,-3.95 -6.35,-10.49 -6.35,-19.63zm277.76 -119.01c0,48.04 -7.59,83.88 -22.69,107.54 -15.16,23.65 -38.3,35.52 -69.42,35.52 -29.95,0 -52.63,-12.12 -68.25,-36.36 -15.55,-24.24 -23.33,-59.83 -23.33,-106.7 0,-48.35 7.52,-84.2 22.62,-107.66 15.03,-23.4 38.04,-35.14 68.96,-35.14 30.15,0 53.03,12.26 68.64,36.69 15.62,24.43 23.47,59.82 23.47,106.11zm-151.81 -0.06c0,40.38 4.73,69.8 14.26,88.29 9.52,18.4 24.62,27.61 45.43,27.61 21.01,0 36.24,-9.34 45.7,-28 9.4,-18.73 14.13,-47.97 14.13,-87.89 0,-39.87 -4.73,-69.1 -14.13,-87.7 -9.46,-18.53 -24.69,-27.8 -45.7,-27.8 -20.81,0 -35.91,9.14 -45.43,27.48 -9.53,18.28 -14.26,47.65 -14.26,88.03z"/>
  <path class="fil0" d="M24622.83 281.96l-30.72 0 0 -197.89c0,-16.47 0.52,-32.02 1.49,-46.67 -2.67,2.66 -5.64,5.44 -8.95,8.36 -3.24,2.92 -18.34,15.23 -45.18,37.08l-16.72 -21.72 73.5 -56.85 26.57 0 0 277.69zm288.19 0l-182.59 0 0 -27.16 73.18 -73.5c22.23,-22.56 36.94,-38.64 44.08,-48.29 7.07,-9.6 12.38,-18.99 15.95,-28.07 3.5,-9.14 5.31,-18.92 5.31,-29.49 0,-14.78 -4.54,-26.52 -13.48,-35.2 -9.01,-8.69 -21.52,-13.03 -37.46,-13.03 -11.55,0 -22.43,1.87 -32.74,5.7 -10.36,3.76 -21.84,10.69 -34.48,20.68l-16.73 -21.46c25.54,-21.2 53.41,-31.76 83.56,-31.76 26.12,0 46.53,6.67 61.38,20.03 14.85,13.35 22.24,31.3 22.24,53.86 0,17.57 -4.93,35.01 -14.84,52.25 -9.85,17.18 -28.33,38.96 -55.48,65.27l-60.8 59.5 0 1.49 142.93 0 0 29.16zm223.89 -139.17c0,48.04 -7.59,83.88 -22.69,107.54 -15.16,23.65 -38.3,35.52 -69.42,35.52 -29.95,0 -52.63,-12.12 -68.25,-36.36 -15.55,-24.24 -23.33,-59.83 -23.33,-106.7 0,-48.35 7.52,-84.2 22.62,-107.66 15.03,-23.4 38.04,-35.14 68.96,-35.14 30.15,0 53.03,12.26 68.64,36.69 15.62,24.43 23.47,59.82 23.47,106.11zm-151.81 -0.06c0,40.38 4.73,69.8 14.26,88.29 9.52,18.4 24.62,27.61 45.43,27.61 21.01,0 36.24,-9.34 45.7,-28 9.4,-18.73 14.13,-47.97 14.13,-87.89 0,-39.87 -4.73,-69.1 -14.13,-87.7 -9.46,-18.53 -24.69,-27.8 -45.7,-27.8 -20.81,0 -35.91,9.14 -45.43,27.48 -9.53,18.28 -14.26,47.65 -14.26,88.03zm199.96 119.07c0,-8.43 1.94,-14.84 5.77,-19.19 3.89,-4.34 9.39,-6.54 16.66,-6.54 7.33,0 13.03,2.2 17.18,6.54 4.08,4.35 6.15,10.76 6.15,19.19 0,8.23 -2.07,14.58 -6.22,18.99 -4.21,4.4 -9.91,6.6 -17.11,6.6 -6.48,0 -11.8,-2 -16.08,-5.96 -4.22,-3.95 -6.35,-10.49 -6.35,-19.63zm277.76 -119.01c0,48.04 -7.59,83.88 -22.69,107.54 -15.16,23.65 -38.3,35.52 -69.42,35.52 -29.95,0 -52.63,-12.12 -68.25,-36.36 -15.55,-24.24 -23.33,-59.83 -23.33,-106.7 0,-48.35 7.52,-84.2 22.62,-107.66 15.03,-23.4 38.04,-35.14 68.96,-35.14 30.15,0 53.03,12.26 68.64,36.69 15.62,24.43 23.47,59.82 23.47,106.11zm-151.81 -0.06c0,40.38 4.73,69.8 14.26,88.29 9.52,18.4 24.62,27.61 45.43,27.61 21.01,0 36.24,-9.34 45.7,-28 9.4,-18.73 14.13,-47.97 14.13,-87.89 0,-39.87 -4.73,-69.1 -14.13,-87.7 -9.46,-18.53 -24.69,-27.8 -45.7,-27.8 -20.81,0 -35.91,9.14 -45.43,27.48 -9.53,18.28 -14.26,47.65 -14.26,88.03z"/>
  <path class="fil0" d="M1992.41 10528.59c0,48.04 -7.59,83.88 -22.69,107.54 -15.16,23.65 -38.3,35.52 -69.42,35.52 -29.95,0 -52.63,-12.12 -68.25,-36.36 -15.55,-24.24 -23.33,-59.83 -23.33,-106.7 0,-48.35 7.52,-84.2 22.62,-107.66 15.03,-23.4 38.04,-35.14 68.96,-35.14 30.15,0 53.03,12.26 68.64,36.69 15.62,24.43 23.47,59.82 23.47,106.11zm-151.81 -0.06c0,40.38 4.73,69.8 14.26,88.29 9.52,18.4 24.62,27.61 45.43,27.61 21.01,0 36.24,-9.34 45.7,-28 9.4,-18.73 14.13,-47.97 14.13,-87.89 0,-39.87 -4.73,-69.1 -14.13,-87.7 -9.46,-18.53 -24.69,-27.8 -45.7,-27.8 -20.81,0 -35.91,9.14 -45.43,27.48 -9.53,18.28 -14.26,47.65 -14.26,88.03z"/>
  <path class="fil0" d="M1133.91 9369.54l-182.59 0 0 -27.16 73.18 -73.5c22.23,-22.56 36.94,-38.64 44.08,-48.29 7.07,-9.6 12.38,-18.99 15.95,-28.07 3.5,-9.14 5.31,-18.92 5.31,-29.49 0,-14.78 -4.54,-26.52 -13.48,-35.2 -9.01,-8.69 -21.52,-13.03 -37.46,-13.03 -11.55,0 -22.43,1.87 -32.74,5.7 -10.36,3.76 -21.84,10.69 -34.48,20.68l-16.73 -21.46c25.54,-21.2 53.41,-31.76 83.56,-31.76 26.12,0 46.53,6.67 61.38,20.03 14.85,13.35 22.24,31.3 22.24,53.86 0,17.57 -4.93,35.01 -14.84,52.25 -9.85,17.18 -28.33,38.96 -55.48,65.27l-60.8 59.5 0 1.49 142.93 0 0 29.16zm223.89 -139.17c0,48.04 -7.59,83.88 -22.69,107.54 -15.16,23.65 -38.3,35.52 -69.42,35.52 -29.95,0 -52.63,-12.12 -68.25,-36.36 -15.55,-24.24 -23.33,-59.83 -23.33,-106.7 0,-48.35 7.52,-84.2 22.62,-107.66 15.03,-23.4 38.04,-35.14 68.96,-35.14 30.15,0 53.03,12.26 68.64,36.69 15.62,24.43 23.47,59.82 23.47,106.11zm-151.81 -0.06c0,40.38 4.73,69.8 14.26,88.29 9.52,18.4 24.62,27.61 45.43,27.61 21.01,0 36.24,-9.34 45.7,-28 9.4,-18.73 14.13,-47.97 14.13,-87.89 0,-39.87 -4.73,-69.1 -14.13,-87.7 -9.46,-18.53 -24.69,-27.8 -45.7,-27.8 -20.81,0 -35.91,9.14 -45.43,27.48 -9.53,18.28 -14.26,47.65 -14.26,88.03zm374.2 0.06c0,48.04 -7.59,83.88 -22.69,107.54 -15.16,23.65 -38.3,35.52 -69.42,35.52 -29.95,0 -52.63,-12.12 -68.25,-36.36 -15.55,-24.24 -23.33,-59.83 -23.33,-106.7 0,-48.35 7.52,-84.2 22.62,-107.66 15.03,-23.4 38.04,-35.14 68.96,-35.14 30.15,0 53.03,12.26 68.64,36.69 15.62,24.43 23.47,59.82 23.47,106.11zm-151.81 -0.06c0,40.38 4.73,69.8 14.26,88.29 9.52,18.4 24.62,27.61 45.43,27.61 21.01,0 36.24,-9.34 45.7,-28 9.4,-18.73 14.13,-47.97 14.13,-87.89 0,-39.87 -4.73,-69.1 -14.13,-87.7 -9.46,-18.53 -24.69,-27.8 -45.7,-27.8 -20.81,0 -35.91,9.14 -45.43,27.48 -9.53,18.28 -14.26,47.65 -14.26,88.03zm374.2 0.06c0,48.04 -7.59,83.88 -22.69,107.54 -15.16,23.65 -38.3,35.52 -69.42,35.52 -29.95,0 -52.63,-12.12 -68.25,-36.36 -15.55,-24.24 -23.33,-59.83 -23.33,-106.7 0,-48.35 7.52,-84.2 22.62,-107.66 15.03,-23.4 38.04,-35.14 68.96,-35.14 30.15,0 53.03,12.26 68.64,36.69 15.62,24.43 23.47,59.82 23.47,106.11zm-151.81 -0.06c0,40.38 4.73,69.8 14.26,88.29 9.52,18.4 24.62,27.61 45.43,27.61 21.01,0 36.24,-9.34 45.7,-28 9.4,-18.73 14.13,-47.97 14.13,-87.89 0,-39.87 -4.73,-69.1 -14.13,-87.7 -9.46,-18.53 -24.69,-27.8 -45.7,-27.8 -20.81,0 -35.91,9.14 -45.43,27.48 -9.53,18.28 -14.26,47.65 -14.26,88.03zm374.2 0.06c0,48.04 -7.59,83.88 -22.69,107.54 -15.16,23.65 -38.3,35.52 -69.42,35.52 -29.95,0 -52.63,-12.12 -68.25,-36.36 -15.55,-24.24 -23.33,-59.83 -23.33,-106.7 0,-48.35 7.52,-84.2 22.62,-107.66 15.03,-23.4 38.04,-35.14 68.96,-35.14 30.15,0 53.03,12.26 68.64,36.69 15.62,24.43 23.47,59.82 23.47,106.11zm-151.81 -0.06c0,40.38 4.73,69.8 14.26,88.29 9.52,18.4 24.62,27.61 45.43,27.61 21.01,0 36.24,-9.34 45.7,-28 9.4,-18.73 14.13,-47.97 14.13,-87.89 0,-39.87 -4.73,-69.1 -14.13,-87.7 -9.46,-18.53 -24.69,-27.8 -45.7,-27.8 -20.81,0 -35.91,9.14 -45.43,27.48 -9.53,18.28 -14.26,47.65 -14.26,88.03z"/>
  <path class="fil0" d="M1147 8007.53l-41.22 0 0 63.78 -30.21 0 0 -63.78 -135.08 0 0 -27.55 131.84 -187.91 33.44 0 0 186.67 41.22 0 0 28.78zm-71.43 -28.78l0 -92.29c0,-18.09 0.65,-38.57 1.88,-61.33l-1.49 0c-6.09,12.13 -11.8,22.24 -17.11,30.21l-86.86 123.41 103.58 0zm282.23 -46.6c0,48.04 -7.59,83.88 -22.69,107.54 -15.16,23.65 -38.3,35.52 -69.42,35.52 -29.95,0 -52.63,-12.12 -68.25,-36.36 -15.55,-24.24 -23.33,-59.83 -23.33,-106.7 0,-48.35 7.52,-84.2 22.62,-107.66 15.03,-23.4 38.04,-35.14 68.96,-35.14 30.15,0 53.03,12.26 68.64,36.69 15.62,24.43 23.47,59.82 23.47,106.11zm-151.81 -0.06c0,40.38 4.73,69.8 14.26,88.29 9.52,18.4 24.62,27.61 45.43,27.61 21.01,0 36.24,-9.34 45.7,-28 9.4,-18.73 14.13,-47.97 14.13,-87.89 0,-39.87 -4.73,-69.1 -14.13,-87.7 -9.46,-18.53 -24.69,-27.8 -45.7,-27.8 -20.81,0 -35.91,9.14 -45.43,27.48 -9.53,18.28 -14.26,47.65 -14.26,88.03zm374.2 0.06c0,48.04 -7.59,83.88 -22.69,107.54 -15.16,23.65 -38.3,35.52 -69.42,35.52 -29.95,0 -52.63,-12.12 -68.25,-36.36 -15.55,-24.24 -23.33,-59.83 -23.33,-106.7 0,-48.35 7.52,-84.2 22.62,-107.66 15.03,-23.4 38.04,-35.14 68.96,-35.14 30.15,0 53.03,12.26 68.64,36.69 15.62,24.43 23.47,59.82 23.47,106.11zm-151.81 -0.06c0,40.38 4.73,69.8 14.26,88.29 9.52,18.4 24.62,27.61 45.43,27.61 21.01,0 36.24,-9.34 45.7,-28 9.4,-18.73 14.13,-47.97 14.13,-87.89 0,-39.87 -4.73,-69.1 -14.13,-87.7 -9.46,-18.53 -24.69,-27.8 -45.7,-27.8 -20.81,0 -35.91,9.14 -45.43,27.48 -9.53,18.28 -14.26,47.65 -14.26,88.03zm374.2 0.06c0,48.04 -7.59,83.88 -22.69,107.54 -15.16,23.65 -38.3,35.52 -69.42,35.52 -29.95,0 -52.63,-12.12 -68.25,-36.36 -15.55,-24.24 -23.33,-59.83 -23.33,-106.7 0,-48.35 7.52,-84.2 22.62,-107.66 15.03,-23.4 38.04,-35.14 68.96,-35.14 30.15,0 53.03,12.26 68.64,36.69 15.62,24.43 23.47,59.82 23.47,106.11zm-151.81 -0.06c0,40.38 4.73,69.8 14.26,88.29 9.52,18.4 24.62,27.61 45.43,27.61 21.01,0 36.24,-9.34 45.7,-28 9.4,-18.73 14.13,-47.97 14.13,-87.89 0,-39.87 -4.73,-69.1 -14.13,-87.7 -9.46,-18.53 -24.69,-27.8 -45.7,-27.8 -20.81,0 -35.91,9.14 -45.43,27.48 -9.53,18.28 -14.26,47.65 -14.26,88.03zm374.2 0.06c0,48.04 -7.59,83.88 -22.69,107.54 -15.16,23.65 -38.3,35.52 -69.42,35.52 -29.95,0 -52.63,-12.12 -68.25,-36.36 -15.55,-24.24 -23.33,-59.83 -23.33,-106.7 0,-48.35 7.52,-84.2 22.62,-107.66 15.03,-23.4 38.04,-35.14 68.96,-35.14 30.15,0 53.03,12.26 68.64,36.69 15.62,24.43 23.47,59.82 23.47,106.11zm-151.81 -0.06c0,40.38 4.73,69.8 14.26,88.29 9.52,18.4 24.62,27.61 45.43,27.61 21.01,0 36.24,-9.34 45.7,-28 9.4,-18.73 14.13,-47.97 14.13,-87.89 0,-39.87 -4.73,-69.1 -14.13,-87.7 -9.46,-18.53 -24.69,-27.8 -45.7,-27.8 -20.81,0 -35.91,9.14 -45.43,27.48 -9.53,18.28 -14.26,47.65 -14.26,88.03z"/>
  <path class="fil0" d="M954.56 6654.46c0,-54.57 10.63,-95.34 31.83,-122.37 21.2,-27.03 52.57,-40.58 94.12,-40.58 14.32,0 25.6,1.23 33.83,3.63l0 27.16c-9.79,-3.18 -20.94,-4.73 -33.44,-4.73 -29.76,0 -52.51,9.27 -68.19,27.81 -15.75,18.53 -24.37,47.64 -25.87,87.3l2.28 0c13.93,-21.78 35.97,-32.66 66.11,-32.66 24.96,0 44.6,7.52 58.99,22.62 14.39,15.1 21.58,35.52 21.58,61.39 0,28.9 -7.91,51.59 -23.65,68.12 -15.75,16.53 -37.08,24.83 -63.91,24.83 -28.78,0 -51.53,-10.82 -68.38,-32.41 -16.86,-21.58 -25.29,-51.59 -25.29,-90.1zm93.28 95.68c18.02,0 31.96,-5.64 41.87,-16.99 9.98,-11.35 14.91,-27.74 14.91,-49.13 0,-18.41 -4.61,-32.8 -13.87,-43.37 -9.21,-10.5 -23.01,-15.75 -41.42,-15.75 -11.35,0 -21.85,2.34 -31.31,7.01 -9.53,4.73 -17.11,11.14 -22.75,19.38 -5.57,8.29 -8.43,16.79 -8.43,25.67 0,13.09 2.53,25.22 7.59,36.49 5.05,11.27 12.25,20.22 21.59,26.83 9.33,6.55 19.89,9.86 31.82,9.86zm309.97 -116.23c0,48.04 -7.59,83.88 -22.69,107.54 -15.16,23.65 -38.3,35.52 -69.42,35.52 -29.95,0 -52.63,-12.12 -68.25,-36.36 -15.55,-24.24 -23.33,-59.83 -23.33,-106.7 0,-48.35 7.52,-84.2 22.62,-107.66 15.03,-23.4 38.04,-35.14 68.96,-35.14 30.15,0 53.03,12.26 68.64,36.69 15.62,24.43 23.47,59.82 23.47,106.11zm-151.81 -0.06c0,40.38 4.73,69.8 14.26,88.29 9.52,18.4 24.62,27.61 45.43,27.61 21.01,0 36.24,-9.34 45.7,-28 9.4,-18.73 14.13,-47.97 14.13,-87.89 0,-39.87 -4.73,-69.1 -14.13,-87.7 -9.46,-18.53 -24.69,-27.8 -45.7,-27.8 -20.81,0 -35.91,9.14 -45.43,27.48 -9.53,18.28 -14.26,47.65 -14.26,88.03zm374.2 0.06c0,48.04 -7.59,83.88 -22.69,107.54 -15.16,23.65 -38.3,35.52 -69.42,35.52 -29.95,0 -52.63,-12.12 -68.25,-36.36 -15.55,-24.24 -23.33,-59.83 -23.33,-106.7 0,-48.35 7.52,-84.2 22.62,-107.66 15.03,-23.4 38.04,-35.14 68.96,-35.14 30.15,0 53.03,12.26 68.64,36.69 15.62,24.43 23.47,59.82 23.47,106.11zm-151.81 -0.06c0,40.38 4.73,69.8 14.26,88.29 9.52,18.4 24.62,27.61 45.43,27.61 21.01,0 36.24,-9.34 45.7,-28 9.4,-18.73 14.13,-47.97 14.13,-87.89 0,-39.87 -4.73,-69.1 -14.13,-87.7 -9.46,-18.53 -24.69,-27.8 -45.7,-27.8 -20.81,0 -35.91,9.14 -45.43,27.48 -9.53,18.28 -14.26,47.65 -14.26,88.03zm374.2 0.06c0,48.04 -7.59,83.88 -22.69,107.54 -15.16,23.65 -38.3,35.52 -69.42,35.52 -29.95,0 -52.63,-12.12 -68.25,-36.36 -15.55,-24.24 -23.33,-59.83 -23.33,-106.7 0,-48.35 7.52,-84.2 22.62,-107.66 15.03,-23.4 38.04,-35.14 68.96,-35.14 30.15,0 53.03,12.26 68.64,36.69 15.62,24.43 23.47,59.82 23.47,106.11zm-151.81 -0.06c0,40.38 4.73,69.8 14.26,88.29 9.52,18.4 24.62,27.61 45.43,27.61 21.01,0 36.24,-9.34 45.7,-28 9.4,-18.73 14.13,-47.97 14.13,-87.89 0,-39.87 -4.73,-69.1 -14.13,-87.7 -9.46,-18.53 -24.69,-27.8 -45.7,-27.8 -20.81,0 -35.91,9.14 -45.43,27.48 -9.53,18.28 -14.26,47.65 -14.26,88.03zm374.2 0.06c0,48.04 -7.59,83.88 -22.69,107.54 -15.16,23.65 -38.3,35.52 -69.42,35.52 -29.95,0 -52.63,-12.12 -68.25,-36.36 -15.55,-24.24 -23.33,-59.83 -23.33,-106.7 0,-48.35 7.52,-84.2 22.62,-107.66 15.03,-23.4 38.04,-35.14 68.96,-35.14 30.15,0 53.03,12.26 68.64,36.69 15.62,24.43 23.47,59.82 23.47,106.11zm-151.81 -0.06c0,40.38 4.73,69.8 14.26,88.29 9.52,18.4 24.62,27.61 45.43,27.61 21.01,0 36.24,-9.34 45.7,-28 9.4,-18.73 14.13,-47.97 14.13,-87.89 0,-39.87 -4.73,-69.1 -14.13,-87.7 -9.46,-18.53 -24.69,-27.8 -45.7,-27.8 -20.81,0 -35.91,9.14 -45.43,27.48 -9.53,18.28 -14.26,47.65 -14.26,88.03z"/>
  <path class="fil0" d="M1043.29 5193.29c25.29,0 45.38,5.9 60.22,17.63 14.77,11.8 22.23,28.07 22.23,48.81 0,13.68 -4.28,26.13 -12.77,37.4 -8.49,11.27 -22.04,21.52 -40.64,30.79 22.55,10.76 38.57,22.04 48.1,33.91 9.46,11.86 14.19,25.54 14.19,41.09 0,23.08 -8.04,41.48 -24.11,55.22 -16.08,13.74 -38.11,20.62 -66.12,20.62 -29.62,0 -52.44,-6.48 -68.38,-19.44 -15.95,-13.03 -23.91,-31.44 -23.91,-55.23 0,-31.82 19.37,-56.59 58.14,-74.27 -17.5,-9.92 -30.02,-20.55 -37.66,-32.02 -7.58,-11.41 -11.34,-24.24 -11.34,-38.44 0,-20.09 7.39,-36.17 22.29,-48.1 14.84,-12 34.81,-17.96 59.76,-17.96zm-60.08 211.51c0,15.22 5.31,27.03 15.89,35.52 10.56,8.49 25.41,12.77 44.53,12.77 18.92,0 33.57,-4.41 44.14,-13.29 10.5,-8.88 15.75,-21.07 15.75,-36.49 0,-12.32 -4.93,-23.27 -14.84,-32.8 -9.85,-9.59 -27.1,-18.86 -51.66,-27.87 -18.86,8.11 -32.54,17.05 -41.03,26.9 -8.49,9.85 -12.77,21.59 -12.77,35.27zm59.7 -185.84c-15.89,0 -28.26,3.83 -37.27,11.42 -9.01,7.58 -13.48,17.69 -13.48,30.33 0,11.68 3.76,21.66 11.2,30.02 7.46,8.36 21.27,16.72 41.42,25.09 18.15,-7.59 30.92,-15.75 38.51,-24.5 7.52,-8.75 11.27,-18.92 11.27,-30.6 0,-12.77 -4.6,-22.94 -13.74,-30.46 -9.2,-7.53 -21.85,-11.29 -37.91,-11.29zm314.89 116.74c0,48.04 -7.59,83.88 -22.69,107.54 -15.16,23.65 -38.3,35.52 -69.42,35.52 -29.95,0 -52.63,-12.12 -68.25,-36.36 -15.55,-24.24 -23.33,-59.83 -23.33,-106.7 0,-48.35 7.52,-84.2 22.62,-107.66 15.03,-23.4 38.04,-35.14 68.96,-35.14 30.15,0 53.03,12.26 68.64,36.69 15.62,24.43 23.47,59.82 23.47,106.11zm-151.81 -0.06c0,40.38 4.73,69.8 14.26,88.29 9.52,18.4 24.62,27.61 45.43,27.61 21.01,0 36.24,-9.34 45.7,-28 9.4,-18.73 14.13,-47.97 14.13,-87.89 0,-39.87 -4.73,-69.1 -14.13,-87.7 -9.46,-18.53 -24.69,-27.8 -45.7,-27.8 -20.81,0 -35.91,9.14 -45.43,27.48 -9.53,18.28 -14.26,47.65 -14.26,88.03zm374.2 0.06c0,48.04 -7.59,83.88 -22.69,107.54 -15.16,23.65 -38.3,35.52 -69.42,35.52 -29.95,0 -52.63,-12.12 -68.25,-36.36 -15.55,-24.24 -23.33,-59.83 -23.33,-106.7 0,-48.35 7.52,-84.2 22.62,-107.66 15.03,-23.4 38.04,-35.14 68.96,-35.14 30.15,0 53.03,12.26 68.64,36.69 15.62,24.43 23.47,59.82 23.47,106.11zm-151.81 -0.06c0,40.38 4.73,69.8 14.26,88.29 9.52,18.4 24.62,27.61 45.43,27.61 21.01,0 36.24,-9.34 45.7,-28 9.4,-18.73 14.13,-47.97 14.13,-87.89 0,-39.87 -4.73,-69.1 -14.13,-87.7 -9.46,-18.53 -24.69,-27.8 -45.7,-27.8 -20.81,0 -35.91,9.14 -45.43,27.48 -9.53,18.28 -14.26,47.65 -14.26,88.03zm374.2 0.06c0,48.04 -7.59,83.88 -22.69,107.54 -15.16,23.65 -38.3,35.52 -69.42,35.52 -29.95,0 -52.63,-12.12 -68.25,-36.36 -15.55,-24.24 -23.33,-59.83 -23.33,-106.7 0,-48.35 7.52,-84.2 22.62,-107.66 15.03,-23.4 38.04,-35.14 68.96,-35.14 30.15,0 53.03,12.26 68.64,36.69 15.62,24.43 23.47,59.82 23.47,106.11zm-151.81 -0.06c0,40.38 4.73,69.8 14.26,88.29 9.52,18.4 24.62,27.61 45.43,27.61 21.01,0 36.24,-9.34 45.7,-28 9.4,-18.73 14.13,-47.97 14.13,-87.89 0,-39.87 -4.73,-69.1 -14.13,-87.7 -9.46,-18.53 -24.69,-27.8 -45.7,-27.8 -20.81,0 -35.91,9.14 -45.43,27.48 -9.53,18.28 -14.26,47.65 -14.26,88.03zm374.2 0.06c0,48.04 -7.59,83.88 -22.69,107.54 -15.16,23.65 -38.3,35.52 -69.42,35.52 -29.95,0 -52.63,-12.12 -68.25,-36.36 -15.55,-24.24 -23.33,-59.83 -23.33,-106.7 0,-48.35 7.52,-84.2 22.62,-107.66 15.03,-23.4 38.04,-35.14 68.96,-35.14 30.15,0 53.03,12.26 68.64,36.69 15.62,24.43 23.47,59.82 23.47,106.11zm-151.81 -0.06c0,40.38 4.73,69.8 14.26,88.29 9.52,18.4 24.62,27.61 45.43,27.61 21.01,0 36.24,-9.34 45.7,-28 9.4,-18.73 14.13,-47.97 14.13,-87.89 0,-39.87 -4.73,-69.1 -14.13,-87.7 -9.46,-18.53 -24.69,-27.8 -45.7,-27.8 -20.81,0 -35.91,9.14 -45.43,27.48 -9.53,18.28 -14.26,47.65 -14.26,88.03z"/>
  <path class="fil0" d="M851.75 4176.64l-30.72 0 0 -197.89c0,-16.47 0.52,-32.02 1.49,-46.67 -2.67,2.66 -5.64,5.44 -8.95,8.36 -3.24,2.92 -18.34,15.23 -45.18,37.08l-16.72 -21.72 73.5 -56.85 26.57 0 0 277.69zm289.68 -139.17c0,48.04 -7.59,83.88 -22.69,107.54 -15.16,23.65 -38.3,35.52 -69.42,35.52 -29.95,0 -52.63,-12.12 -68.25,-36.36 -15.55,-24.24 -23.33,-59.83 -23.33,-106.7 0,-48.35 7.52,-84.2 22.62,-107.66 15.03,-23.4 38.04,-35.14 68.96,-35.14 30.15,0 53.03,12.26 68.64,36.69 15.62,24.43 23.47,59.82 23.47,106.11zm-151.81 -0.06c0,40.38 4.73,69.8 14.26,88.29 9.52,18.4 24.62,27.61 45.43,27.61 21.01,0 36.24,-9.34 45.7,-28 9.4,-18.73 14.13,-47.97 14.13,-87.89 0,-39.87 -4.73,-69.1 -14.13,-87.7 -9.46,-18.53 -24.69,-27.8 -45.7,-27.8 -20.81,0 -35.91,9.14 -45.43,27.48 -9.53,18.28 -14.26,47.65 -14.26,88.03zm374.2 0.06c0,48.04 -7.59,83.88 -22.69,107.54 -15.16,23.65 -38.3,35.52 -69.42,35.52 -29.95,0 -52.63,-12.12 -68.25,-36.36 -15.55,-24.24 -23.33,-59.83 -23.33,-106.7 0,-48.35 7.52,-84.2 22.62,-107.66 15.03,-23.4 38.04,-35.14 68.96,-35.14 30.15,0 53.03,12.26 68.64,36.69 15.62,24.43 23.47,59.82 23.47,106.11zm-151.81 -0.06c0,40.38 4.73,69.8 14.26,88.29 9.52,18.4 24.62,27.61 45.43,27.61 21.01,0 36.24,-9.34 45.7,-28 9.4,-18.73 14.13,-47.97 14.13,-87.89 0,-39.87 -4.73,-69.1 -14.13,-87.7 -9.46,-18.53 -24.69,-27.8 -45.7,-27.8 -20.81,0 -35.91,9.14 -45.43,27.48 -9.53,18.28 -14.26,47.65 -14.26,88.03zm374.2 0.06c0,48.04 -7.59,83.88 -22.69,107.54 -15.16,23.65 -38.3,35.52 -69.42,35.52 -29.95,0 -52.63,-12.12 -68.25,-36.36 -15.55,-24.24 -23.33,-59.83 -23.33,-106.7 0,-48.35 7.52,-84.2 22.62,-107.66 15.03,-23.4 38.04,-35.14 68.96,-35.14 30.15,0 53.03,12.26 68.64,36.69 15.62,24.43 23.47,59.82 23.47,106.11zm-151.81 -0.06c0,40.38 4.73,69.8 14.26,88.29 9.52,18.4 24.62,27.61 45.43,27.61 21.01,0 36.24,-9.34 45.7,-28 9.4,-18.73 14.13,-47.97 14.13,-87.89 0,-39.87 -4.73,-69.1 -14.13,-87.7 -9.46,-18.53 -24.69,-27.8 -45.7,-27.8 -20.81,0 -35.91,9.14 -45.43,27.48 -9.53,18.28 -14.26,47.65 -14.26,88.03zm374.2 0.06c0,48.04 -7.59,83.88 -22.69,107.54 -15.16,23.65 -38.3,35.52 -69.42,35.52 -29.95,0 -52.63,-12.12 -68.25,-36.36 -15.55,-24.24 -23.33,-59.83 -23.33,-106.7 0,-48.35 7.52,-84.2 22.62,-107.66 15.03,-23.4 38.04,-35.14 68.96,-35.14 30.15,0 53.03,12.26 68.64,36.69 15.62,24.43 23.47,59.82 23.47,106.11zm-151.81 -0.06c0,40.38 4.73,69.8 14.26,88.29 9.52,18.4 24.62,27.61 45.43,27.61 21.01,0 36.24,-9.34 45.7,-28 9.4,-18.73 14.13,-47.97 14.13,-87.89 0,-39.87 -4.73,-69.1 -14.13,-87.7 -9.46,-18.53 -24.69,-27.8 -45.7,-27.8 -20.81,0 -35.91,9.14 -45.43,27.48 -9.53,18.28 -14.26,47.65 -14.26,88.03zm374.2 0.06c0,48.04 -7.59,83.88 -22.69,107.54 -15.16,23.65 -38.3,35.52 -69.42,35.52 -29.95,0 -52.63,-12.12 -68.25,-36.36 -15.55,-24.24 -23.33,-59.83 -23.33,-106.7 0,-48.35 7.52,-84.2 22.62,-107.66 15.03,-23.4 38.04,-35.14 68.96,-35.14 30.15,0 53.03,12.26 68.64,36.69 15.62,24.43 23.47,59.82 23.47,106.11zm-151.81 -0.06c0,40.38 4.73,69.8 14.26,88.29 9.52,18.4 24.62,27.61 45.43,27.61 21.01,0 36.24,-9.34 45.7,-28 9.4,-18.73 14.13,-47.97 14.13,-87.89 0,-39.87 -4.73,-69.1 -14.13,-87.7 -9.46,-18.53 -24.69,-27.8 -45.7,-27.8 -20.81,0 -35.91,9.14 -45.43,27.48 -9.53,18.28 -14.26,47.65 -14.26,88.03z"/>
  <path class="fil0" d="M851.75 2878.42l-30.72 0 0 -197.89c0,-16.47 0.52,-32.02 1.49,-46.67 -2.67,2.66 -5.64,5.44 -8.95,8.36 -3.24,2.92 -18.34,15.23 -45.18,37.08l-16.72 -21.72 73.5 -56.85 26.57 0 0 277.69zm288.19 0l-182.59 0 0 -27.16 73.18 -73.5c22.23,-22.56 36.94,-38.64 44.08,-48.29 7.07,-9.6 12.38,-18.99 15.95,-28.07 3.5,-9.14 5.31,-18.92 5.31,-29.49 0,-14.78 -4.54,-26.52 -13.48,-35.2 -9.01,-8.69 -21.52,-13.03 -37.46,-13.03 -11.55,0 -22.43,1.87 -32.74,5.7 -10.36,3.76 -21.84,10.69 -34.48,20.68l-16.73 -21.46c25.54,-21.2 53.41,-31.76 83.56,-31.76 26.12,0 46.53,6.67 61.38,20.03 14.85,13.35 22.24,31.3 22.24,53.86 0,17.57 -4.93,35.01 -14.84,52.25 -9.85,17.18 -28.33,38.96 -55.48,65.27l-60.8 59.5 0 1.49 142.93 0 0 29.16zm223.89 -139.17c0,48.04 -7.59,83.88 -22.69,107.54 -15.16,23.65 -38.3,35.52 -69.42,35.52 -29.95,0 -52.63,-12.12 -68.25,-36.36 -15.55,-24.24 -23.33,-59.83 -23.33,-106.7 0,-48.35 7.52,-84.2 22.62,-107.66 15.03,-23.4 38.04,-35.14 68.96,-35.14 30.15,0 53.03,12.26 68.64,36.69 15.62,24.43 23.47,59.82 23.47,106.11zm-151.81 -0.06c0,40.38 4.73,69.8 14.26,88.29 9.52,18.4 24.62,27.61 45.43,27.61 21.01,0 36.24,-9.34 45.7,-28 9.4,-18.73 14.13,-47.97 14.13,-87.89 0,-39.87 -4.73,-69.1 -14.13,-87.7 -9.46,-18.53 -24.69,-27.8 -45.7,-27.8 -20.81,0 -35.91,9.14 -45.43,27.48 -9.53,18.28 -14.26,47.65 -14.26,88.03zm374.2 0.06c0,48.04 -7.59,83.88 -22.69,107.54 -15.16,23.65 -38.3,35.52 -69.42,35.52 -29.95,0 -52.63,-12.12 -68.25,-36.36 -15.55,-24.24 -23.33,-59.83 -23.33,-106.7 0,-48.35 7.52,-84.2 22.62,-107.66 15.03,-23.4 38.04,-35.14 68.96,-35.14 30.15,0 53.03,12.26 68.64,36.69 15.62,24.43 23.47,59.82 23.47,106.11zm-151.81 -0.06c0,40.38 4.73,69.8 14.26,88.29 9.52,18.4 24.62,27.61 45.43,27.61 21.01,0 36.24,-9.34 45.7,-28 9.4,-18.73 14.13,-47.97 14.13,-87.89 0,-39.87 -4.73,-69.1 -14.13,-87.7 -9.46,-18.53 -24.69,-27.8 -45.7,-27.8 -20.81,0 -35.91,9.14 -45.43,27.48 -9.53,18.28 -14.26,47.65 -14.26,88.03zm374.2 0.06c0,48.04 -7.59,83.88 -22.69,107.54 -15.16,23.65 -38.3,35.52 -69.42,35.52 -29.95,0 -52.63,-12.12 -68.25,-36.36 -15.55,-24.24 -23.33,-59.83 -23.33,-106.7 0,-48.35 7.52,-84.2 22.62,-107.66 15.03,-23.4 38.04,-35.14 68.96,-35.14 30.15,0 53.03,12.26 68.64,36.69 15.62,24.43 23.47,59.82 23.47,106.11zm-151.81 -0.06c0,40.38 4.73,69.8 14.26,88.29 9.52,18.4 24.62,27.61 45.43,27.61 21.01,0 36.24,-9.34 45.7,-28 9.4,-18.73 14.13,-47.97 14.13,-87.89 0,-39.87 -4.73,-69.1 -14.13,-87.7 -9.46,-18.53 -24.69,-27.8 -45.7,-27.8 -20.81,0 -35.91,9.14 -45.43,27.48 -9.53,18.28 -14.26,47.65 -14.26,88.03zm374.2 0.06c0,48.04 -7.59,83.88 -22.69,107.54 -15.16,23.65 -38.3,35.52 -69.42,35.52 -29.95,0 -52.63,-12.12 -68.25,-36.36 -15.55,-24.24 -23.33,-59.83 -23.33,-106.7 0,-48.35 7.52,-84.2 22.62,-107.66 15.03,-23.4 38.04,-35.14 68.96,-35.14 30.15,0 53.03,12.26 68.64,36.69 15.62,24.43 23.47,59.82 23.47,106.11zm-151.81 -0.06c0,40.38 4.73,69.8 14.26,88.29 9.52,18.4 24.62,27.61 45.43,27.61 21.01,0 36.24,-9.34 45.7,-28 9.4,-18.73 14.13,-47.97 14.13,-87.89 0,-39.87 -4.73,-69.1 -14.13,-87.7 -9.46,-18.53 -24.69,-27.8 -45.7,-27.8 -20.81,0 -35.91,9.14 -45.43,27.48 -9.53,18.28 -14.26,47.65 -14.26,88.03z"/>
  <path class="fil0" d="M851.75 1580.19l-30.72 0 0 -197.89c0,-16.47 0.52,-32.02 1.49,-46.67 -2.67,2.66 -5.64,5.44 -8.95,8.36 -3.24,2.92 -18.34,15.23 -45.18,37.08l-16.72 -21.72 73.5 -56.85 26.57 0 0 277.69zm301.28 -63.78l-41.22 0 0 63.78 -30.21 0 0 -63.78 -135.08 0 0 -27.55 131.84 -187.91 33.44 0 0 186.67 41.22 0 0 28.78zm-71.43 -28.78l0 -92.29c0,-18.09 0.65,-38.57 1.88,-61.33l-1.49 0c-6.09,12.13 -11.8,22.24 -17.11,30.21l-86.86 123.41 103.58 0zm282.23 -46.6c0,48.04 -7.59,83.88 -22.69,107.54 -15.16,23.65 -38.3,35.52 -69.42,35.52 -29.95,0 -52.63,-12.12 -68.25,-36.36 -15.55,-24.24 -23.33,-59.83 -23.33,-106.7 0,-48.35 7.52,-84.2 22.62,-107.66 15.03,-23.4 38.04,-35.14 68.96,-35.14 30.15,0 53.03,12.26 68.64,36.69 15.62,24.43 23.47,59.82 23.47,106.11zm-151.81 -0.06c0,40.38 4.73,69.8 14.26,88.29 9.52,18.4 24.62,27.61 45.43,27.61 21.01,0 36.24,-9.34 45.7,-28 9.4,-18.73 14.13,-47.97 14.13,-87.89 0,-39.87 -4.73,-69.1 -14.13,-87.7 -9.46,-18.53 -24.69,-27.8 -45.7,-27.8 -20.81,0 -35.91,9.14 -45.43,27.48 -9.53,18.28 -14.26,47.65 -14.26,88.03zm374.2 0.06c0,48.04 -7.59,83.88 -22.69,107.54 -15.16,23.65 -38.3,35.52 -69.42,35.52 -29.95,0 -52.63,-12.12 -68.25,-36.36 -15.55,-24.24 -23.33,-59.83 -23.33,-106.7 0,-48.35 7.52,-84.2 22.62,-107.66 15.03,-23.4 38.04,-35.14 68.96,-35.14 30.15,0 53.03,12.26 68.64,36.69 15.62,24.43 23.47,59.82 23.47,106.11zm-151.81 -0.06c0,40.38 4.73,69.8 14.26,88.29 9.52,18.4 24.62,27.61 45.43,27.61 21.01,0 36.24,-9.34 45.7,-28 9.4,-18.73 14.13,-47.97 14.13,-87.89 0,-39.87 -4.73,-69.1 -14.13,-87.7 -9.46,-18.53 -24.69,-27.8 -45.7,-27.8 -20.81,0 -35.91,9.14 -45.43,27.48 -9.53,18.28 -14.26,47.65 -14.26,88.03zm374.2 0.06c0,48.04 -7.59,83.88 -22.69,107.54 -15.16,23.65 -38.3,35.52 -69.42,35.52 -29.95,0 -52.63,-12.12 -68.25,-36.36 -15.55,-24.24 -23.33,-59.83 -23.33,-106.7 0,-48.35 7.52,-84.2 22.62,-107.66 15.03,-23.4 38.04,-35.14 68.96,-35.14 30.15,0 53.03,12.26 68.64,36.69 15.62,24.43 23.47,59.82 23.47,106.11zm-151.81 -0.06c0,40.38 4.73,69.8 14.26,88.29 9.52,18.4 24.62,27.61 45.43,27.61 21.01,0 36.24,-9.34 45.7,-28 9.4,-18.73 14.13,-47.97 14.13,-87.89 0,-39.87 -4.73,-69.1 -14.13,-87.7 -9.46,-18.53 -24.69,-27.8 -45.7,-27.8 -20.81,0 -35.91,9.14 -45.43,27.48 -9.53,18.28 -14.26,47.65 -14.26,88.03zm374.2 0.06c0,48.04 -7.59,83.88 -22.69,107.54 -15.16,23.65 -38.3,35.52 -69.42,35.52 -29.95,0 -52.63,-12.12 -68.25,-36.36 -15.55,-24.24 -23.33,-59.83 -23.33,-106.7 0,-48.35 7.52,-84.2 22.62,-107.66 15.03,-23.4 38.04,-35.14 68.96,-35.14 30.15,0 53.03,12.26 68.64,36.69 15.62,24.43 23.47,59.82 23.47,106.11zm-151.81 -0.06c0,40.38 4.73,69.8 14.26,88.29 9.52,18.4 24.62,27.61 45.43,27.61 21.01,0 36.24,-9.34 45.7,-28 9.4,-18.73 14.13,-47.97 14.13,-87.89 0,-39.87 -4.73,-69.1 -14.13,-87.7 -9.46,-18.53 -24.69,-27.8 -45.7,-27.8 -20.81,0 -35.91,9.14 -45.43,27.48 -9.53,18.28 -14.26,47.65 -14.26,88.03z"/>
  <path class="fil0" d="M851.75 281.96l-30.72 0 0 -197.89c0,-16.47 0.52,-32.02 1.49,-46.67 -2.67,2.66 -5.64,5.44 -8.95,8.36 -3.24,2.92 -18.34,15.23 -45.18,37.08l-16.72 -21.72 73.5 -56.85 26.57 0 0 277.69zm108.83 -118.62c0,-54.57 10.63,-95.34 31.83,-122.37 21.2,-27.03 52.57,-40.58 94.12,-40.58 14.32,0 25.6,1.23 33.83,3.63l0 27.16c-9.79,-3.18 -20.94,-4.73 -33.44,-4.73 -29.76,0 -52.51,9.27 -68.19,27.81 -15.75,18.53 -24.37,47.64 -25.87,87.3l2.28 0c13.93,-21.78 35.97,-32.66 66.11,-32.66 24.96,0 44.6,7.52 58.99,22.62 14.39,15.1 21.58,35.52 21.58,61.39 0,28.9 -7.91,51.59 -23.65,68.12 -15.75,16.53 -37.08,24.83 -63.91,24.83 -28.78,0 -51.53,-10.82 -68.38,-32.41 -16.86,-21.58 -25.29,-51.59 -25.29,-90.1zm93.28 95.68c18.02,0 31.96,-5.64 41.87,-16.99 9.98,-11.35 14.91,-27.74 14.91,-49.13 0,-18.41 -4.61,-32.8 -13.87,-43.37 -9.21,-10.5 -23.01,-15.75 -41.42,-15.75 -11.35,0 -21.85,2.34 -31.31,7.01 -9.53,4.73 -17.11,11.14 -22.75,19.38 -5.57,8.29 -8.43,16.79 -8.43,25.67 0,13.09 2.53,25.22 7.59,36.49 5.05,11.27 12.25,20.22 21.59,26.83 9.33,6.55 19.89,9.86 31.82,9.86zm309.97 -116.23c0,48.04 -7.59,83.88 -22.69,107.54 -15.16,23.65 -38.3,35.52 -69.42,35.52 -29.95,0 -52.63,-12.12 -68.25,-36.36 -15.55,-24.24 -23.33,-59.83 -23.33,-106.7 0,-48.35 7.52,-84.2 22.62,-107.66 15.03,-23.4 38.04,-35.14 68.96,-35.14 30.15,0 53.03,12.26 68.64,36.69 15.62,24.43 23.47,59.82 23.47,106.11zm-151.81 -0.06c0,40.38 4.73,69.8 14.26,88.29 9.52,18.4 24.62,27.61 45.43,27.61 21.01,0 36.24,-9.34 45.7,-28 9.4,-18.73 14.13,-47.97 14.13,-87.89 0,-39.87 -4.73,-69.1 -14.13,-87.7 -9.46,-18.53 -24.69,-27.8 -45.7,-27.8 -20.81,0 -35.91,9.14 -45.43,27.48 -9.53,18.28 -14.26,47.65 -14.26,88.03zm374.2 0.06c0,48.04 -7.59,83.88 -22.69,107.54 -15.16,23.65 -38.3,35.52 -69.42,35.52 -29.95,0 -52.63,-12.12 -68.25,-36.36 -15.55,-24.24 -23.33,-59.83 -23.33,-106.7 0,-48.35 7.52,-84.2 22.62,-107.66 15.03,-23.4 38.04,-35.14 68.96,-35.14 30.15,0 53.03,12.26 68.64,36.69 15.62,24.43 23.47,59.82 23.47,106.11zm-151.81 -0.06c0,40.38 4.73,69.8 14.26,88.29 9.52,18.4 24.62,27.61 45.43,27.61 21.01,0 36.24,-9.34 45.7,-28 9.4,-18.73 14.13,-47.97 14.13,-87.89 0,-39.87 -4.73,-69.1 -14.13,-87.7 -9.46,-18.53 -24.69,-27.8 -45.7,-27.8 -20.81,0 -35.91,9.14 -45.43,27.48 -9.53,18.28 -14.26,47.65 -14.26,88.03zm374.2 0.06c0,48.04 -7.59,83.88 -22.69,107.54 -15.16,23.65 -38.3,35.52 -69.42,35.52 -29.95,0 -52.63,-12.12 -68.25,-36.36 -15.55,-24.24 -23.33,-59.83 -23.33,-106.7 0,-48.35 7.52,-84.2 22.62,-107.66 15.03,-23.4 38.04,-35.14 68.96,-35.14 30.15,0 53.03,12.26 68.64,36.69 15.62,24.43 23.47,59.82 23.47,106.11zm-151.81 -0.06c0,40.38 4.73,69.8 14.26,88.29 9.52,18.4 24.62,27.61 45.43,27.61 21.01,0 36.24,-9.34 45.7,-28 9.4,-18.73 14.13,-47.97 14.13,-87.89 0,-39.87 -4.73,-69.1 -14.13,-87.7 -9.46,-18.53 -24.69,-27.8 -45.7,-27.8 -20.81,0 -35.91,9.14 -45.43,27.48 -9.53,18.28 -14.26,47.65 -14.26,88.03zm374.2 0.06c0,48.04 -7.59,83.88 -22.69,107.54 -15.16,23.65 -38.3,35.52 -69.42,35.52 -29.95,0 -52.63,-12.12 -68.25,-36.36 -15.55,-24.24 -23.33,-59.83 -23.33,-106.7 0,-48.35 7.52,-84.2 22.62,-107.66 15.03,-23.4 38.04,-35.14 68.96,-35.14 30.15,0 53.03,12.26 68.64,36.69 15.62,24.43 23.47,59.82 23.47,106.11zm-151.81 -0.06c0,40.38 4.73,69.8 14.26,88.29 9.52,18.4 24.62,27.61 45.43,27.61 21.01,0 36.24,-9.34 45.7,-28 9.4,-18.73 14.13,-47.97 14.13,-87.89 0,-39.87 -4.73,-69.1 -14.13,-87.7 -9.46,-18.53 -24.69,-27.8 -45.7,-27.8 -20.81,0 -35.91,9.14 -45.43,27.48 -9.53,18.28 -14.26,47.65 -14.26,88.03z"/>
  <path class="fil0" d="M2943.33 11219.3l-30.72 0 0 -197.89c0,-16.47 0.52,-32.02 1.49,-46.67 -2.67,2.66 -5.64,5.44 -8.95,8.36 -3.24,2.92 -18.34,15.23 -45.18,37.08l-16.72 -21.72 73.5 -56.85 26.57 0 0 277.69zm289.68 -139.17c0,48.04 -7.59,83.88 -22.69,107.54 -15.16,23.65 -38.3,35.52 -69.42,35.52 -29.95,0 -52.63,-12.12 -68.25,-36.36 -15.55,-24.24 -23.33,-59.83 -23.33,-106.7 0,-48.35 7.52,-84.2 22.62,-107.66 15.03,-23.4 38.04,-35.14 68.96,-35.14 30.15,0 53.03,12.26 68.64,36.69 15.62,24.43 23.47,59.82 23.47,106.11zm-151.81 -0.06c0,40.38 4.73,69.8 14.26,88.29 9.52,18.4 24.62,27.61 45.43,27.61 21.01,0 36.24,-9.34 45.7,-28 9.4,-18.73 14.13,-47.97 14.13,-87.89 0,-39.87 -4.73,-69.1 -14.13,-87.7 -9.46,-18.53 -24.69,-27.8 -45.7,-27.8 -20.81,0 -35.91,9.14 -45.43,27.48 -9.53,18.28 -14.26,47.65 -14.26,88.03zm433.57 139.23l-6.28 -29.63 -1.55 0c-10.37,13.03 -20.69,21.91 -30.99,26.58 -10.37,4.6 -23.2,6.94 -38.64,6.94 -20.68,0 -36.81,-5.31 -48.55,-15.95 -11.67,-10.69 -17.56,-25.8 -17.56,-45.5 0,-42.07 33.63,-64.1 100.79,-66.12l35.32 -1.16 0 -12.9c0,-16.28 -3.5,-28.33 -10.49,-36.11 -7.07,-7.78 -18.28,-11.67 -33.71,-11.67 -17.37,0 -36.94,5.31 -58.85,15.95l-9.66 -24.11c10.24,-5.57 21.46,-9.98 33.64,-13.16 12.25,-3.18 24.5,-4.73 36.75,-4.73 24.83,0 43.17,5.51 55.16,16.53 11.99,11.02 17.95,28.65 17.95,52.96l0 142.08 -23.33 0zm-71.24 -22.17c19.64,0 35.07,-5.38 46.22,-16.14 11.2,-10.76 16.85,-25.8 16.85,-45.18l0 -18.8 -31.57 1.36c-25.02,0.84 -43.1,4.73 -54.18,11.67 -11.08,6.88 -16.6,17.63 -16.6,32.15 0,11.41 3.44,20.09 10.37,26 6.87,5.96 16.53,8.94 28.9,8.94zm362.98 22.17l-30.72 0 0 -197.89c0,-16.47 0.52,-32.02 1.49,-46.67 -2.67,2.66 -5.64,5.44 -8.95,8.36 -3.24,2.92 -18.34,15.23 -45.18,37.08l-16.72 -21.72 73.5 -56.85 26.57 0 0 277.69zm301.28 -63.78l-41.22 0 0 63.78 -30.21 0 0 -63.78 -135.08 0 0 -27.55 131.84 -187.91 33.44 0 0 186.67 41.22 0 0 28.78zm-71.43 -28.78l0 -92.29c0,-18.09 0.65,-38.57 1.88,-61.33l-1.49 0c-6.09,12.13 -11.8,22.24 -17.11,30.21l-86.86 123.41 103.58 0z"/>
  <path class="fil0" d="M5115.53 11219.3l-30.72 0 0 -197.89c0,-16.47 0.52,-32.02 1.49,-46.67 -2.67,2.66 -5.64,5.44 -8.95,8.36 -3.24,2.92 -18.34,15.23 -45.18,37.08l-16.72 -21.72 73.5 -56.85 26.57 0 0 277.69zm192.39 -169.57c29.29,0 52.31,7.26 69.09,21.78 16.79,14.45 25.16,34.36 25.16,59.5 0,28.78 -9.14,51.34 -27.42,67.67 -18.34,16.34 -43.56,24.5 -75.71,24.5 -31.31,0 -55.16,-4.99 -71.63,-15.03l0 -30.41c8.88,5.7 19.9,10.11 33.06,13.36 13.16,3.24 26.12,4.86 38.96,4.86 22.3,0 39.6,-5.25 51.92,-15.75 12.38,-10.5 18.54,-25.67 18.54,-45.57 0,-38.7 -23.72,-58.07 -71.24,-58.07 -12.06,0 -28.13,1.81 -48.29,5.5l-16.34 -10.43 10.5 -130.03 138.07 0 0 29.17 -111.11 0 -7.07 83.28c14.58,-2.92 29.1,-4.34 43.5,-4.34zm379.05 169.57l-6.28 -29.63 -1.55 0c-10.37,13.03 -20.69,21.91 -30.99,26.58 -10.37,4.6 -23.2,6.94 -38.64,6.94 -20.68,0 -36.81,-5.31 -48.55,-15.95 -11.67,-10.69 -17.56,-25.8 -17.56,-45.5 0,-42.07 33.63,-64.1 100.79,-66.12l35.32 -1.16 0 -12.9c0,-16.28 -3.5,-28.33 -10.49,-36.11 -7.07,-7.78 -18.28,-11.67 -33.71,-11.67 -17.37,0 -36.94,5.31 -58.85,15.95l-9.66 -24.11c10.24,-5.57 21.46,-9.98 33.64,-13.16 12.25,-3.18 24.5,-4.73 36.75,-4.73 24.83,0 43.17,5.51 55.16,16.53 11.99,11.02 17.95,28.65 17.95,52.96l0 142.08 -23.33 0zm-71.24 -22.17c19.64,0 35.07,-5.38 46.22,-16.14 11.2,-10.76 16.85,-25.8 16.85,-45.18l0 -18.8 -31.57 1.36c-25.02,0.84 -43.1,4.73 -54.18,11.67 -11.08,6.88 -16.6,17.63 -16.6,32.15 0,11.41 3.44,20.09 10.37,26 6.87,5.96 16.53,8.94 28.9,8.94zm362.98 22.17l-30.72 0 0 -197.89c0,-16.47 0.52,-32.02 1.49,-46.67 -2.67,2.66 -5.64,5.44 -8.95,8.36 -3.24,2.92 -18.34,15.23 -45.18,37.08l-16.72 -21.72 73.5 -56.85 26.57 0 0 277.69zm288.19 -159.06c0,108.63 -42.06,162.95 -126.14,162.95 -14.71,0 -26.38,-1.29 -35,-3.83l0 -27.15c10.17,3.3 21.65,4.92 34.61,4.92 30.41,0 53.35,-9.4 68.84,-28.19 15.55,-18.8 23.98,-47.65 25.41,-86.53l-2.34 0c-6.94,10.49 -16.21,18.53 -27.74,24.04 -11.48,5.51 -24.5,8.23 -38.89,8.23 -24.56,0 -44.08,-7.32 -58.53,-22.03 -14.46,-14.65 -21.66,-35.2 -21.66,-61.52 0,-28.84 8.04,-51.66 24.18,-68.32 16.21,-16.73 37.4,-25.09 63.78,-25.09 18.86,0 35.33,4.86 49.45,14.52 14.13,9.72 25.03,23.78 32.61,42.39 7.58,18.53 11.41,40.38 11.41,65.6zm-93.47 -95.67c-18.15,0 -32.15,5.83 -42,17.5 -9.92,11.67 -14.84,27.87 -14.84,48.62 0,18.27 4.6,32.6 13.67,43.04 9.14,10.43 23.01,15.68 41.62,15.68 11.54,0 22.16,-2.34 31.82,-7 9.72,-4.73 17.31,-11.08 22.88,-19.25 5.57,-8.11 8.36,-16.6 8.36,-25.41 0,-13.36 -2.59,-25.61 -7.78,-36.88 -5.18,-11.29 -12.44,-20.16 -21.71,-26.65 -9.34,-6.41 -20.03,-9.65 -32.02,-9.65z"/>
  <path class="fil0" d="M7349.27 11219.3l-182.59 0 0 -27.16 73.18 -73.5c22.23,-22.56 36.94,-38.64 44.08,-48.29 7.07,-9.6 12.38,-18.99 15.95,-28.07 3.5,-9.14 5.31,-18.92 5.31,-29.49 0,-14.78 -4.54,-26.52 -13.48,-35.2 -9.01,-8.69 -21.52,-13.03 -37.46,-13.03 -11.55,0 -22.43,1.87 -32.74,5.7 -10.36,3.76 -21.84,10.69 -34.48,20.68l-16.73 -21.46c25.54,-21.2 53.41,-31.76 83.56,-31.76 26.12,0 46.53,6.67 61.38,20.03 14.85,13.35 22.24,31.3 22.24,53.86 0,17.57 -4.93,35.01 -14.84,52.25 -9.85,17.18 -28.33,38.96 -55.48,65.27l-60.8 59.5 0 1.49 142.93 0 0 29.16zm223.89 -139.17c0,48.04 -7.59,83.88 -22.69,107.54 -15.16,23.65 -38.3,35.52 -69.42,35.52 -29.95,0 -52.63,-12.12 -68.25,-36.36 -15.55,-24.24 -23.33,-59.83 -23.33,-106.7 0,-48.35 7.52,-84.2 22.62,-107.66 15.03,-23.4 38.04,-35.14 68.96,-35.14 30.15,0 53.03,12.26 68.64,36.69 15.62,24.43 23.47,59.82 23.47,106.11zm-151.81 -0.06c0,40.38 4.73,69.8 14.26,88.29 9.52,18.4 24.62,27.61 45.43,27.61 21.01,0 36.24,-9.34 45.7,-28 9.4,-18.73 14.13,-47.97 14.13,-87.89 0,-39.87 -4.73,-69.1 -14.13,-87.7 -9.46,-18.53 -24.69,-27.8 -45.7,-27.8 -20.81,0 -35.91,9.14 -45.43,27.48 -9.53,18.28 -14.26,47.65 -14.26,88.03zm433.57 139.23l-6.28 -29.63 -1.55 0c-10.37,13.03 -20.69,21.91 -30.99,26.58 -10.37,4.6 -23.2,6.94 -38.64,6.94 -20.68,0 -36.81,-5.31 -48.55,-15.95 -11.67,-10.69 -17.56,-25.8 -17.56,-45.5 0,-42.07 33.63,-64.1 100.79,-66.12l35.32 -1.16 0 -12.9c0,-16.28 -3.5,-28.33 -10.49,-36.11 -7.07,-7.78 -18.28,-11.67 -33.71,-11.67 -17.37,0 -36.94,5.31 -58.85,15.95l-9.66 -24.11c10.24,-5.57 21.46,-9.98 33.64,-13.16 12.25,-3.18 24.5,-4.73 36.75,-4.73 24.83,0 43.17,5.51 55.16,16.53 11.99,11.02 17.95,28.65 17.95,52.96l0 142.08 -23.33 0zm-71.24 -22.17c19.64,0 35.07,-5.38 46.22,-16.14 11.2,-10.76 16.85,-25.8 16.85,-45.18l0 -18.8 -31.57 1.36c-25.02,0.84 -43.1,4.73 -54.18,11.67 -11.08,6.88 -16.6,17.63 -16.6,32.15 0,11.41 3.44,20.09 10.37,26 6.87,5.96 16.53,8.94 28.9,8.94zm428.78 22.17l-182.59 0 0 -27.16 73.18 -73.5c22.23,-22.56 36.94,-38.64 44.08,-48.29 7.07,-9.6 12.38,-18.99 15.95,-28.07 3.5,-9.14 5.31,-18.92 5.31,-29.49 0,-14.78 -4.54,-26.52 -13.48,-35.2 -9.01,-8.69 -21.52,-13.03 -37.46,-13.03 -11.55,0 -22.43,1.87 -32.74,5.7 -10.36,3.76 -21.84,10.69 -34.48,20.68l-16.73 -21.46c25.54,-21.2 53.41,-31.76 83.56,-31.76 26.12,0 46.53,6.67 61.38,20.03 14.85,13.35 22.24,31.3 22.24,53.86 0,17.57 -4.93,35.01 -14.84,52.25 -9.85,17.18 -28.33,38.96 -55.48,65.27l-60.8 59.5 0 1.49 142.93 0 0 29.16zm235.48 -63.78l-41.22 0 0 63.78 -30.21 0 0 -63.78 -135.08 0 0 -27.55 131.84 -187.91 33.44 0 0 186.67 41.22 0 0 28.78zm-71.43 -28.78l0 -92.29c0,-18.09 0.65,-38.57 1.88,-61.33l-1.49 0c-6.09,12.13 -11.8,22.24 -17.11,30.21l-86.86 123.41 103.58 0z"/>
  <path class="fil0" d="M9517.22 11219.3l-182.59 0 0 -27.16 73.18 -73.5c22.23,-22.56 36.94,-38.64 44.08,-48.29 7.07,-9.6 12.38,-18.99 15.95,-28.07 3.5,-9.14 5.31,-18.92 5.31,-29.49 0,-14.78 -4.54,-26.52 -13.48,-35.2 -9.01,-8.69 -21.52,-13.03 -37.46,-13.03 -11.55,0 -22.43,1.87 -32.74,5.7 -10.36,3.76 -21.84,10.69 -34.48,20.68l-16.73 -21.46c25.54,-21.2 53.41,-31.76 83.56,-31.76 26.12,0 46.53,6.67 61.38,20.03 14.85,13.35 22.24,31.3 22.24,53.86 0,17.57 -4.93,35.01 -14.84,52.25 -9.85,17.18 -28.33,38.96 -55.48,65.27l-60.8 59.5 0 1.49 142.93 0 0 29.16zm126.59 -169.57c29.29,0 52.31,7.26 69.09,21.78 16.79,14.45 25.16,34.36 25.16,59.5 0,28.78 -9.14,51.34 -27.42,67.67 -18.34,16.34 -43.56,24.5 -75.71,24.5 -31.31,0 -55.16,-4.99 -71.63,-15.03l0 -30.41c8.88,5.7 19.9,10.11 33.06,13.36 13.16,3.24 26.12,4.86 38.96,4.86 22.3,0 39.6,-5.25 51.92,-15.75 12.38,-10.5 18.54,-25.67 18.54,-45.57 0,-38.7 -23.72,-58.07 -71.24,-58.07 -12.06,0 -28.13,1.81 -48.29,5.5l-16.34 -10.43 10.5 -130.03 138.07 0 0 29.17 -111.11 0 -7.07 83.28c14.58,-2.92 29.1,-4.34 43.5,-4.34zm379.06 169.57l-6.28 -29.63 -1.55 0c-10.37,13.03 -20.69,21.91 -30.99,26.58 -10.37,4.6 -23.2,6.94 -38.64,6.94 -20.68,0 -36.81,-5.31 -48.55,-15.95 -11.67,-10.69 -17.56,-25.8 -17.56,-45.5 0,-42.07 33.63,-64.1 100.79,-66.12l35.32 -1.16 0 -12.9c0,-16.28 -3.5,-28.33 -10.49,-36.11 -7.07,-7.78 -18.28,-11.67 -33.71,-11.67 -17.37,0 -36.94,5.31 -58.85,15.95l-9.66 -24.11c10.24,-5.57 21.46,-9.98 33.64,-13.16 12.25,-3.18 24.5,-4.73 36.75,-4.73 24.83,0 43.17,5.51 55.16,16.53 11.99,11.02 17.95,28.65 17.95,52.96l0 142.08 -23.33 0zm-71.24 -22.17c19.64,0 35.07,-5.38 46.22,-16.14 11.2,-10.76 16.85,-25.8 16.85,-45.18l0 -18.8 -31.57 1.36c-25.02,0.84 -43.1,4.73 -54.18,11.67 -11.08,6.88 -16.6,17.63 -16.6,32.15 0,11.41 3.44,20.09 10.37,26 6.87,5.96 16.53,8.94 28.9,8.94zm428.78 22.17l-182.59 0 0 -27.16 73.18 -73.5c22.23,-22.56 36.94,-38.64 44.08,-48.29 7.07,-9.6 12.38,-18.99 15.95,-28.07 3.5,-9.14 5.31,-18.92 5.31,-29.49 0,-14.78 -4.54,-26.52 -13.48,-35.2 -9.01,-8.69 -21.52,-13.03 -37.46,-13.03 -11.55,0 -22.43,1.87 -32.74,5.7 -10.36,3.76 -21.84,10.69 -34.48,20.68l-16.73 -21.46c25.54,-21.2 53.41,-31.76 83.56,-31.76 26.12,0 46.53,6.67 61.38,20.03 14.85,13.35 22.24,31.3 22.24,53.86 0,17.57 -4.93,35.01 -14.84,52.25 -9.85,17.18 -28.33,38.96 -55.48,65.27l-60.8 59.5 0 1.49 142.93 0 0 29.16zm222.39 -159.06c0,108.63 -42.06,162.95 -126.14,162.95 -14.71,0 -26.38,-1.29 -35,-3.83l0 -27.15c10.17,3.3 21.65,4.92 34.61,4.92 30.41,0 53.35,-9.4 68.84,-28.19 15.55,-18.8 23.98,-47.65 25.41,-86.53l-2.34 0c-6.94,10.49 -16.21,18.53 -27.74,24.04 -11.48,5.51 -24.5,8.23 -38.89,8.23 -24.56,0 -44.08,-7.32 -58.53,-22.03 -14.46,-14.65 -21.66,-35.2 -21.66,-61.52 0,-28.84 8.04,-51.66 24.18,-68.32 16.21,-16.73 37.4,-25.09 63.78,-25.09 18.86,0 35.33,4.86 49.45,14.52 14.13,9.72 25.03,23.78 32.61,42.39 7.58,18.53 11.41,40.38 11.41,65.6zm-93.47 -95.67c-18.15,0 -32.15,5.83 -42,17.5 -9.92,11.67 -14.84,27.87 -14.84,48.62 0,18.27 4.6,32.6 13.67,43.04 9.14,10.43 23.01,15.68 41.62,15.68 11.54,0 22.16,-2.34 31.82,-7 9.72,-4.73 17.31,-11.08 22.88,-19.25 5.57,-8.11 8.36,-16.6 8.36,-25.41 0,-13.36 -2.59,-25.61 -7.78,-36.88 -5.18,-11.29 -12.44,-20.16 -21.71,-26.65 -9.34,-6.41 -20.03,-9.65 -32.02,-9.65z"/>
  <path class="fil0" d="M11678.91 11007.02c0,17.7 -4.92,32.15 -14.9,43.43 -9.92,11.29 -23.98,18.8 -42.26,22.56l0 1.55c22.3,2.79 38.83,9.85 49.58,21.26 10.76,11.42 16.15,26.39 16.15,44.86 0,26.51 -9.14,46.86 -27.55,61.13 -18.34,14.26 -44.4,21.39 -78.23,21.39 -14.71,0 -28.13,-1.1 -40.38,-3.31 -12.19,-2.27 -24.11,-6.15 -35.59,-11.73l0 -30.02c12,5.9 24.83,10.43 38.44,13.55 13.61,3.11 26.51,4.67 38.7,4.67 47.97,0 71.95,-18.8 71.95,-56.4 0,-33.7 -26.44,-50.56 -79.4,-50.56l-27.36 0 0 -27.22 27.74 0c21.66,0 38.83,-4.8 51.47,-14.33 12.7,-9.59 19.05,-22.81 19.05,-39.8 0,-13.54 -4.67,-24.17 -14,-31.89 -9.33,-7.71 -21.91,-11.6 -37.91,-11.6 -12.13,0 -23.6,1.61 -34.36,4.92 -10.76,3.31 -23.08,9.4 -36.88,18.22l-15.95 -21.27c11.41,-8.94 24.56,-15.95 39.41,-21.07 14.91,-5.12 30.53,-7.65 46.99,-7.65 27.03,0 47.97,6.16 62.94,18.47 14.9,12.39 22.36,29.3 22.36,50.82zm234.39 73.11c0,48.04 -7.59,83.88 -22.69,107.54 -15.16,23.65 -38.3,35.52 -69.42,35.52 -29.95,0 -52.63,-12.12 -68.25,-36.36 -15.55,-24.24 -23.33,-59.83 -23.33,-106.7 0,-48.35 7.52,-84.2 22.62,-107.66 15.03,-23.4 38.04,-35.14 68.96,-35.14 30.15,0 53.03,12.26 68.64,36.69 15.62,24.43 23.47,59.82 23.47,106.11zm-151.81 -0.06c0,40.38 4.73,69.8 14.26,88.29 9.52,18.4 24.62,27.61 45.43,27.61 21.01,0 36.24,-9.34 45.7,-28 9.4,-18.73 14.13,-47.97 14.13,-87.89 0,-39.87 -4.73,-69.1 -14.13,-87.7 -9.46,-18.53 -24.69,-27.8 -45.7,-27.8 -20.81,0 -35.91,9.14 -45.43,27.48 -9.53,18.28 -14.26,47.65 -14.26,88.03zm433.57 139.23l-6.28 -29.63 -1.55 0c-10.37,13.03 -20.69,21.91 -30.99,26.58 -10.37,4.6 -23.2,6.94 -38.64,6.94 -20.68,0 -36.81,-5.31 -48.55,-15.95 -11.67,-10.69 -17.56,-25.8 -17.56,-45.5 0,-42.07 33.63,-64.1 100.79,-66.12l35.32 -1.16 0 -12.9c0,-16.28 -3.5,-28.33 -10.49,-36.11 -7.07,-7.78 -18.28,-11.67 -33.71,-11.67 -17.37,0 -36.94,5.31 -58.85,15.95l-9.66 -24.11c10.24,-5.57 21.46,-9.98 33.64,-13.16 12.25,-3.18 24.5,-4.73 36.75,-4.73 24.83,0 43.17,5.51 55.16,16.53 11.99,11.02 17.95,28.65 17.95,52.96l0 142.08 -23.33 0zm-71.24 -22.17c19.64,0 35.07,-5.38 46.22,-16.14 11.2,-10.76 16.85,-25.8 16.85,-45.18l0 -18.8 -31.57 1.36c-25.02,0.84 -43.1,4.73 -54.18,11.67 -11.08,6.88 -16.6,17.63 -16.6,32.15 0,11.41 3.44,20.09 10.37,26 6.87,5.96 16.53,8.94 28.9,8.94zm418.28 -190.11c0,17.7 -4.92,32.15 -14.9,43.43 -9.92,11.29 -23.98,18.8 -42.26,22.56l0 1.55c22.3,2.79 38.83,9.85 49.58,21.26 10.76,11.42 16.15,26.39 16.15,44.86 0,26.51 -9.14,46.86 -27.55,61.13 -18.34,14.26 -44.4,21.39 -78.23,21.39 -14.71,0 -28.13,-1.1 -40.38,-3.31 -12.19,-2.27 -24.11,-6.15 -35.59,-11.73l0 -30.02c12,5.9 24.83,10.43 38.44,13.55 13.61,3.11 26.51,4.67 38.7,4.67 47.97,0 71.95,-18.8 71.95,-56.4 0,-33.7 -26.44,-50.56 -79.4,-50.56l-27.36 0 0 -27.22 27.74 0c21.66,0 38.83,-4.8 51.47,-14.33 12.7,-9.59 19.05,-22.81 19.05,-39.8 0,-13.54 -4.67,-24.17 -14,-31.89 -9.33,-7.71 -21.91,-11.6 -37.91,-11.6 -12.13,0 -23.6,1.61 -34.36,4.92 -10.76,3.31 -23.08,9.4 -36.88,18.22l-15.95 -21.27c11.41,-8.94 24.56,-15.95 39.41,-21.07 14.91,-5.12 30.53,-7.65 46.99,-7.65 27.03,0 47.97,6.16 62.94,18.47 14.9,12.39 22.36,29.3 22.36,50.82zm245.99 148.5l-41.22 0 0 63.78 -30.21 0 0 -63.78 -135.08 0 0 -27.55 131.84 -187.91 33.44 0 0 186.67 41.22 0 0 28.78zm-71.43 -28.78l0 -92.29c0,-18.09 0.65,-38.57 1.88,-61.33l-1.49 0c-6.09,12.13 -11.8,22.24 -17.11,30.21l-86.86 123.41 103.58 0z"/>
  <path class="fil0" d="M13846.86 11007.02c0,17.7 -4.92,32.15 -14.9,43.43 -9.92,11.29 -23.98,18.8 -42.26,22.56l0 1.55c22.3,2.79 38.83,9.85 49.58,21.26 10.76,11.42 16.15,26.39 16.15,44.86 0,26.51 -9.14,46.86 -27.55,61.13 -18.34,14.26 -44.4,21.39 -78.23,21.39 -14.71,0 -28.13,-1.1 -40.38,-3.31 -12.19,-2.27 -24.11,-6.15 -35.59,-11.73l0 -30.02c12,5.9 24.83,10.43 38.44,13.55 13.61,3.11 26.51,4.67 38.7,4.67 47.97,0 71.95,-18.8 71.95,-56.4 0,-33.7 -26.44,-50.56 -79.4,-50.56l-27.36 0 0 -27.22 27.74 0c21.66,0 38.83,-4.8 51.47,-14.33 12.7,-9.59 19.05,-22.81 19.05,-39.8 0,-13.54 -4.67,-24.17 -14,-31.89 -9.33,-7.71 -21.91,-11.6 -37.91,-11.6 -12.13,0 -23.6,1.61 -34.36,4.92 -10.76,3.31 -23.08,9.4 -36.88,18.22l-15.95 -21.27c11.41,-8.94 24.56,-15.95 39.41,-21.07 14.91,-5.12 30.53,-7.65 46.99,-7.65 27.03,0 47.97,6.16 62.94,18.47 14.9,12.39 22.36,29.3 22.36,50.82zm137.09 42.71c29.29,0 52.31,7.26 69.09,21.78 16.79,14.45 25.16,34.36 25.16,59.5 0,28.78 -9.14,51.34 -27.42,67.67 -18.34,16.34 -43.56,24.5 -75.71,24.5 -31.31,0 -55.16,-4.99 -71.63,-15.03l0 -30.41c8.88,5.7 19.9,10.11 33.06,13.36 13.16,3.24 26.12,4.86 38.96,4.86 22.3,0 39.6,-5.25 51.92,-15.75 12.38,-10.5 18.54,-25.67 18.54,-45.57 0,-38.7 -23.72,-58.07 -71.24,-58.07 -12.06,0 -28.13,1.81 -48.29,5.5l-16.34 -10.43 10.5 -130.03 138.07 0 0 29.17 -111.11 0 -7.07 83.28c14.58,-2.92 29.1,-4.34 43.5,-4.34zm379.06 169.57l-6.28 -29.63 -1.55 0c-10.37,13.03 -20.69,21.91 -30.99,26.58 -10.37,4.6 -23.2,6.94 -38.64,6.94 -20.68,0 -36.81,-5.31 -48.55,-15.95 -11.67,-10.69 -17.56,-25.8 -17.56,-45.5 0,-42.07 33.63,-64.1 100.79,-66.12l35.32 -1.16 0 -12.9c0,-16.28 -3.5,-28.33 -10.49,-36.11 -7.07,-7.78 -18.28,-11.67 -33.71,-11.67 -17.37,0 -36.94,5.31 -58.85,15.95l-9.66 -24.11c10.24,-5.57 21.46,-9.98 33.64,-13.16 12.25,-3.18 24.5,-4.73 36.75,-4.73 24.83,0 43.17,5.51 55.16,16.53 11.99,11.02 17.95,28.65 17.95,52.96l0 142.08 -23.33 0zm-71.24 -22.17c19.64,0 35.07,-5.38 46.22,-16.14 11.2,-10.76 16.85,-25.8 16.85,-45.18l0 -18.8 -31.57 1.36c-25.02,0.84 -43.1,4.73 -54.18,11.67 -11.08,6.88 -16.6,17.63 -16.6,32.15 0,11.41 3.44,20.09 10.37,26 6.87,5.96 16.53,8.94 28.9,8.94zm418.28 -190.11c0,17.7 -4.92,32.15 -14.9,43.43 -9.92,11.29 -23.98,18.8 -42.26,22.56l0 1.55c22.3,2.79 38.83,9.85 49.58,21.26 10.76,11.42 16.15,26.39 16.15,44.86 0,26.51 -9.14,46.86 -27.55,61.13 -18.34,14.26 -44.4,21.39 -78.23,21.39 -14.71,0 -28.13,-1.1 -40.38,-3.31 -12.19,-2.27 -24.11,-6.15 -35.59,-11.73l0 -30.02c12,5.9 24.83,10.43 38.44,13.55 13.61,3.11 26.51,4.67 38.7,4.67 47.97,0 71.95,-18.8 71.95,-56.4 0,-33.7 -26.44,-50.56 -79.4,-50.56l-27.36 0 0 -27.22 27.74 0c21.66,0 38.83,-4.8 51.47,-14.33 12.7,-9.59 19.05,-22.81 19.05,-39.8 0,-13.54 -4.67,-24.17 -14,-31.89 -9.33,-7.71 -21.91,-11.6 -37.91,-11.6 -12.13,0 -23.6,1.61 -34.36,4.92 -10.76,3.31 -23.08,9.4 -36.88,18.22l-15.95 -21.27c11.41,-8.94 24.56,-15.95 39.41,-21.07 14.91,-5.12 30.53,-7.65 46.99,-7.65 27.03,0 47.97,6.16 62.94,18.47 14.9,12.39 22.36,29.3 22.36,50.82zm232.9 53.22c0,108.63 -42.06,162.95 -126.14,162.95 -14.71,0 -26.38,-1.29 -35,-3.83l0 -27.15c10.17,3.3 21.65,4.92 34.61,4.92 30.41,0 53.35,-9.4 68.84,-28.19 15.55,-18.8 23.98,-47.65 25.41,-86.53l-2.34 0c-6.94,10.49 -16.21,18.53 -27.74,24.04 -11.48,5.51 -24.5,8.23 -38.89,8.23 -24.56,0 -44.08,-7.32 -58.53,-22.03 -14.46,-14.65 -21.66,-35.2 -21.66,-61.52 0,-28.84 8.04,-51.66 24.18,-68.32 16.21,-16.73 37.4,-25.09 63.78,-25.09 18.86,0 35.33,4.86 49.45,14.52 14.13,9.72 25.03,23.78 32.61,42.39 7.58,18.53 11.41,40.38 11.41,65.6zm-93.47 -95.67c-18.15,0 -32.15,5.83 -42,17.5 -9.92,11.67 -14.84,27.87 -14.84,48.62 0,18.27 4.6,32.6 13.67,43.04 9.14,10.43 23.01,15.68 41.62,15.68 11.54,0 22.16,-2.34 31.82,-7 9.72,-4.73 17.31,-11.08 22.88,-19.25 5.57,-8.11 8.36,-16.6 8.36,-25.41 0,-13.36 -2.59,-25.61 -7.78,-36.88 -5.18,-11.29 -12.44,-20.16 -21.71,-26.65 -9.34,-6.41 -20.03,-9.65 -32.02,-9.65z"/>
  <path class="fil0" d="M16042.65 11155.52l-41.22 0 0 63.78 -30.21 0 0 -63.78 -135.08 0 0 -27.55 131.84 -187.91 33.44 0 0 186.67 41.22 0 0 28.78zm-71.43 -28.78l0 -92.29c0,-18.09 0.65,-38.57 1.88,-61.33l-1.49 0c-6.09,12.13 -11.8,22.24 -17.11,30.21l-86.86 123.41 103.58 0zm282.23 -46.6c0,48.04 -7.59,83.88 -22.69,107.54 -15.16,23.65 -38.3,35.52 -69.42,35.52 -29.95,0 -52.63,-12.12 -68.25,-36.36 -15.55,-24.24 -23.33,-59.83 -23.33,-106.7 0,-48.35 7.52,-84.2 22.62,-107.66 15.03,-23.4 38.04,-35.14 68.96,-35.14 30.15,0 53.03,12.26 68.64,36.69 15.62,24.43 23.47,59.82 23.47,106.11zm-151.81 -0.06c0,40.38 4.73,69.8 14.26,88.29 9.52,18.4 24.62,27.61 45.43,27.61 21.01,0 36.24,-9.34 45.7,-28 9.4,-18.73 14.13,-47.97 14.13,-87.89 0,-39.87 -4.73,-69.1 -14.13,-87.7 -9.46,-18.53 -24.69,-27.8 -45.7,-27.8 -20.81,0 -35.91,9.14 -45.43,27.48 -9.53,18.28 -14.26,47.65 -14.26,88.03zm433.57 139.23l-6.28 -29.63 -1.55 0c-10.37,13.03 -20.69,21.91 -30.99,26.58 -10.37,4.6 -23.2,6.94 -38.64,6.94 -20.68,0 -36.81,-5.31 -48.55,-15.95 -11.67,-10.69 -17.56,-25.8 -17.56,-45.5 0,-42.07 33.63,-64.1 100.79,-66.12l35.32 -1.16 0 -12.9c0,-16.28 -3.5,-28.33 -10.49,-36.11 -7.07,-7.78 -18.28,-11.67 -33.71,-11.67 -17.37,0 -36.94,5.31 -58.85,15.95l-9.66 -24.11c10.24,-5.57 21.46,-9.98 33.64,-13.16 12.25,-3.18 24.5,-4.73 36.75,-4.73 24.83,0 43.17,5.51 55.16,16.53 11.99,11.02 17.95,28.65 17.95,52.96l0 142.08 -23.33 0zm-71.24 -22.17c19.64,0 35.07,-5.38 46.22,-16.14 11.2,-10.76 16.85,-25.8 16.85,-45.18l0 -18.8 -31.57 1.36c-25.02,0.84 -43.1,4.73 -54.18,11.67 -11.08,6.88 -16.6,17.63 -16.6,32.15 0,11.41 3.44,20.09 10.37,26 6.87,5.96 16.53,8.94 28.9,8.94zm441.86 -41.61l-41.22 0 0 63.78 -30.21 0 0 -63.78 -135.07 0 0 -27.55 131.83 -187.91 33.44 0 0 186.67 41.22 0 0 28.78zm-71.43 -28.78l0 -92.29c0,-18.09 0.65,-38.57 1.88,-61.33l-1.49 0c-6.09,12.13 -11.8,22.24 -17.11,30.21l-86.85 123.41 103.57 0zm293.82 28.78l-41.22 0 0 63.78 -30.21 0 0 -63.78 -135.08 0 0 -27.55 131.84 -187.91 33.44 0 0 186.67 41.22 0 0 28.78zm-71.43 -28.78l0 -92.29c0,-18.09 0.65,-38.57 1.88,-61.33l-1.49 0c-6.09,12.13 -11.8,22.24 -17.11,30.21l-86.86 123.41 103.58 0z"/>
  <path class="fil0" d="M18210.58 11155.52l-41.22 0 0 63.78 -30.21 0 0 -63.78 -135.08 0 0 -27.55 131.84 -187.91 33.44 0 0 186.67 41.22 0 0 28.78zm-71.43 -28.78l0 -92.29c0,-18.09 0.65,-38.57 1.88,-61.33l-1.49 0c-6.09,12.13 -11.8,22.24 -17.11,30.21l-86.86 123.41 103.58 0zm184.93 -77c29.29,0 52.31,7.26 69.09,21.78 16.79,14.45 25.16,34.36 25.16,59.5 0,28.78 -9.14,51.34 -27.42,67.67 -18.34,16.34 -43.56,24.5 -75.71,24.5 -31.31,0 -55.16,-4.99 -71.63,-15.03l0 -30.41c8.88,5.7 19.9,10.11 33.06,13.36 13.16,3.24 26.12,4.86 38.96,4.86 22.3,0 39.6,-5.25 51.92,-15.75 12.38,-10.5 18.54,-25.67 18.54,-45.57 0,-38.7 -23.72,-58.07 -71.24,-58.07 -12.06,0 -28.13,1.81 -48.29,5.5l-16.34 -10.43 10.5 -130.03 138.07 0 0 29.17 -111.11 0 -7.07 83.28c14.58,-2.92 29.1,-4.34 43.5,-4.34zm379.06 169.57l-6.28 -29.63 -1.55 0c-10.37,13.03 -20.69,21.91 -30.99,26.58 -10.37,4.6 -23.2,6.94 -38.64,6.94 -20.68,0 -36.81,-5.31 -48.55,-15.95 -11.67,-10.69 -17.56,-25.8 -17.56,-45.5 0,-42.07 33.63,-64.1 100.79,-66.12l35.32 -1.16 0 -12.9c0,-16.28 -3.5,-28.33 -10.49,-36.11 -7.07,-7.78 -18.28,-11.67 -33.71,-11.67 -17.37,0 -36.94,5.31 -58.85,15.95l-9.66 -24.11c10.24,-5.57 21.46,-9.98 33.64,-13.16 12.25,-3.18 24.5,-4.73 36.75,-4.73 24.83,0 43.17,5.51 55.16,16.53 11.99,11.02 17.95,28.65 17.95,52.96l0 142.08 -23.33 0zm-71.24 -22.17c19.64,0 35.07,-5.38 46.22,-16.14 11.2,-10.76 16.85,-25.8 16.85,-45.18l0 -18.8 -31.57 1.36c-25.02,0.84 -43.1,4.73 -54.18,11.67 -11.08,6.88 -16.6,17.63 -16.6,32.15 0,11.41 3.44,20.09 10.37,26 6.87,5.96 16.53,8.94 28.9,8.94zm441.87 -41.61l-41.22 0 0 63.78 -30.21 0 0 -63.78 -135.08 0 0 -27.55 131.84 -187.91 33.44 0 0 186.67 41.22 0 0 28.78zm-71.43 -28.78l0 -92.29c0,-18.09 0.65,-38.57 1.88,-61.33l-1.49 0c-6.09,12.13 -11.8,22.24 -17.11,30.21l-86.86 123.41 103.58 0zm280.73 -66.5c0,108.63 -42.06,162.95 -126.14,162.95 -14.71,0 -26.38,-1.29 -35,-3.83l0 -27.15c10.17,3.3 21.65,4.92 34.61,4.92 30.41,0 53.35,-9.4 68.84,-28.19 15.55,-18.8 23.98,-47.65 25.41,-86.53l-2.34 0c-6.94,10.49 -16.21,18.53 -27.74,24.04 -11.48,5.51 -24.5,8.23 -38.89,8.23 -24.56,0 -44.08,-7.32 -58.53,-22.03 -14.46,-14.65 -21.66,-35.2 -21.66,-61.52 0,-28.84 8.04,-51.66 24.18,-68.32 16.21,-16.73 37.4,-25.09 63.78,-25.09 18.86,0 35.33,4.86 49.45,14.52 14.13,9.72 25.03,23.78 32.61,42.39 7.58,18.53 11.41,40.38 11.41,65.6zm-93.47 -95.67c-18.15,0 -32.15,5.83 -42,17.5 -9.92,11.67 -14.84,27.87 -14.84,48.62 0,18.27 4.6,32.6 13.67,43.04 9.14,10.43 23.01,15.68 41.62,15.68 11.54,0 22.16,-2.34 31.82,-7 9.72,-4.73 17.31,-11.08 22.88,-19.25 5.57,-8.11 8.36,-16.6 8.36,-25.41 0,-13.36 -2.59,-25.61 -7.78,-36.88 -5.18,-11.29 -12.44,-20.16 -21.71,-26.65 -9.34,-6.41 -20.03,-9.65 -32.02,-9.65z"/>
  <path class="fil0" d="M20273.89 11049.73c29.29,0 52.31,7.26 69.09,21.78 16.79,14.45 25.16,34.36 25.16,59.5 0,28.78 -9.14,51.34 -27.42,67.67 -18.34,16.34 -43.56,24.5 -75.71,24.5 -31.31,0 -55.16,-4.99 -71.63,-15.03l0 -30.41c8.88,5.7 19.9,10.11 33.06,13.36 13.16,3.24 26.12,4.86 38.96,4.86 22.3,0 39.6,-5.25 51.92,-15.75 12.38,-10.5 18.54,-25.67 18.54,-45.57 0,-38.7 -23.72,-58.07 -71.24,-58.07 -12.06,0 -28.13,1.81 -48.29,5.5l-16.34 -10.43 10.5 -130.03 138.07 0 0 29.17 -111.11 0 -7.07 83.28c14.58,-2.92 29.1,-4.34 43.5,-4.34zm319.69 30.4c0,48.04 -7.59,83.88 -22.69,107.54 -15.16,23.65 -38.3,35.52 -69.42,35.52 -29.95,0 -52.63,-12.12 -68.25,-36.36 -15.55,-24.24 -23.33,-59.83 -23.33,-106.7 0,-48.35 7.52,-84.2 22.62,-107.66 15.03,-23.4 38.04,-35.14 68.96,-35.14 30.15,0 53.03,12.26 68.64,36.69 15.62,24.43 23.47,59.82 23.47,106.11zm-151.81 -0.06c0,40.38 4.73,69.8 14.26,88.29 9.52,18.4 24.62,27.61 45.43,27.61 21.01,0 36.24,-9.34 45.7,-28 9.4,-18.73 14.13,-47.97 14.13,-87.89 0,-39.87 -4.73,-69.1 -14.13,-87.7 -9.46,-18.53 -24.69,-27.8 -45.7,-27.8 -20.81,0 -35.91,9.14 -45.43,27.48 -9.53,18.28 -14.26,47.65 -14.26,88.03zm433.57 139.23l-6.28 -29.63 -1.55 0c-10.37,13.03 -20.69,21.91 -30.99,26.58 -10.37,4.6 -23.2,6.94 -38.64,6.94 -20.68,0 -36.81,-5.31 -48.55,-15.95 -11.67,-10.69 -17.56,-25.8 -17.56,-45.5 0,-42.07 33.63,-64.1 100.79,-66.12l35.32 -1.16 0 -12.9c0,-16.28 -3.5,-28.33 -10.49,-36.11 -7.07,-7.78 -18.28,-11.67 -33.71,-11.67 -17.37,0 -36.94,5.31 -58.85,15.95l-9.66 -24.11c10.24,-5.57 21.46,-9.98 33.64,-13.16 12.25,-3.18 24.5,-4.73 36.75,-4.73 24.83,0 43.17,5.51 55.16,16.53 11.99,11.02 17.95,28.65 17.95,52.96l0 142.08 -23.33 0zm-71.24 -22.17c19.64,0 35.07,-5.38 46.22,-16.14 11.2,-10.76 16.85,-25.8 16.85,-45.18l0 -18.8 -31.57 1.36c-25.02,0.84 -43.1,4.73 -54.18,11.67 -11.08,6.88 -16.6,17.63 -16.6,32.15 0,11.41 3.44,20.09 10.37,26 6.87,5.96 16.53,8.94 28.9,8.94zm332.98 -147.4c29.29,0 52.31,7.26 69.09,21.78 16.79,14.45 25.16,34.36 25.16,59.5 0,28.78 -9.14,51.34 -27.42,67.67 -18.34,16.34 -43.56,24.5 -75.71,24.5 -31.31,0 -55.16,-4.99 -71.63,-15.03l0 -30.41c8.88,5.7 19.9,10.11 33.06,13.36 13.16,3.24 26.12,4.86 38.96,4.86 22.3,0 39.6,-5.25 51.92,-15.75 12.38,-10.5 18.54,-25.67 18.54,-45.57 0,-38.7 -23.72,-58.07 -71.24,-58.07 -12.06,0 -28.13,1.81 -48.29,5.5l-16.34 -10.43 10.5 -130.03 138.07 0 0 29.17 -111.11 0 -7.07 83.28c14.58,-2.92 29.1,-4.34 43.5,-4.34zm331.28 105.78l-41.22 0 0 63.78 -30.21 0 0 -63.78 -135.08 0 0 -27.55 131.84 -187.91 33.44 0 0 186.67 41.22 0 0 28.78zm-71.43 -28.78l0 -92.29c0,-18.09 0.65,-38.57 1.88,-61.33l-1.49 0c-6.09,12.13 -11.8,22.24 -17.11,30.21l-86.86 123.41 103.58 0z"/>
  <path class="fil0" d="M22310.32 11049.73c29.29,0 52.31,7.26 69.09,21.78 16.79,14.45 25.16,34.36 25.16,59.5 0,28.78 -9.14,51.34 -27.42,67.67 -18.34,16.34 -43.56,24.5 -75.71,24.5 -31.31,0 -55.16,-4.99 -71.63,-15.03l0 -30.41c8.88,5.7 19.9,10.11 33.06,13.36 13.16,3.24 26.12,4.86 38.96,4.86 22.3,0 39.6,-5.25 51.92,-15.75 12.38,-10.5 18.54,-25.67 18.54,-45.57 0,-38.7 -23.72,-58.07 -71.24,-58.07 -12.06,0 -28.13,1.81 -48.29,5.5l-16.34 -10.43 10.5 -130.03 138.07 0 0 29.17 -111.11 0 -7.07 83.28c14.58,-2.92 29.1,-4.34 43.5,-4.34zm222.39 0c29.29,0 52.31,7.26 69.09,21.78 16.79,14.45 25.16,34.36 25.16,59.5 0,28.78 -9.14,51.34 -27.42,67.67 -18.34,16.34 -43.56,24.5 -75.71,24.5 -31.31,0 -55.16,-4.99 -71.63,-15.03l0 -30.41c8.88,5.7 19.9,10.11 33.06,13.36 13.16,3.24 26.12,4.86 38.96,4.86 22.3,0 39.6,-5.25 51.92,-15.75 12.38,-10.5 18.54,-25.67 18.54,-45.57 0,-38.7 -23.72,-58.07 -71.24,-58.07 -12.06,0 -28.13,1.81 -48.29,5.5l-16.34 -10.43 10.5 -130.03 138.07 0 0 29.17 -111.11 0 -7.07 83.28c14.58,-2.92 29.1,-4.34 43.5,-4.34zm319.11 -38.51l33.76 0 45.63 118.62c9.98,27.09 16.21,46.66 18.61,58.66l1.48 0c1.69,-6.48 5.12,-17.5 10.37,-33.12 5.25,-15.62 22.43,-63.65 51.59,-144.16l33.77 0 -89.45 236.85c-8.88,23.46 -19.19,40.05 -31.05,49.84 -11.87,9.79 -26.38,14.71 -43.63,14.71 -9.59,0 -19.12,-1.1 -28.45,-3.18l0 -25.15c6.94,1.49 14.71,2.27 23.33,2.27 21.65,0 37.14,-12.19 46.35,-36.42l11.6 -29.7 -83.94 -209.23zm595.23 208.07l0 -135.41c0,-16.53 -3.5,-28.97 -10.63,-37.26 -7.07,-8.3 -18.08,-12.45 -32.99,-12.45 -19.64,0 -34.1,5.63 -43.5,16.92 -9.33,11.27 -14.06,28.58 -14.06,51.99l0 116.22 -31.5 0 0 -135.41c0,-16.53 -3.57,-28.97 -10.63,-37.26 -7.07,-8.3 -18.15,-12.45 -33.25,-12.45 -19.7,0 -34.16,5.89 -43.36,17.76 -9.14,11.8 -13.75,31.24 -13.75,58.21l0 109.15 -31.5 0 0 -208.07 25.61 0 5.12 28.39 1.55 0c5.9,-10.11 14.32,-18.02 25.15,-23.72 10.83,-5.7 22.95,-8.56 36.37,-8.56 32.47,0 53.8,11.8 63.78,35.33l1.48 0c6.22,-10.88 15.23,-19.51 26.97,-25.86 11.8,-6.29 25.22,-9.47 40.25,-9.47 23.53,0 41.16,6.03 52.9,18.15 11.67,12.06 17.56,31.44 17.56,58.02l0 135.79 -31.56 0zm224.53 0l-6.28 -29.63 -1.55 0c-10.37,13.03 -20.69,21.91 -30.99,26.58 -10.37,4.6 -23.2,6.94 -38.64,6.94 -20.68,0 -36.81,-5.31 -48.55,-15.95 -11.67,-10.69 -17.56,-25.8 -17.56,-45.5 0,-42.07 33.63,-64.1 100.79,-66.12l35.32 -1.16 0 -12.9c0,-16.28 -3.5,-28.33 -10.49,-36.11 -7.07,-7.78 -18.28,-11.67 -33.71,-11.67 -17.37,0 -36.94,5.31 -58.85,15.95l-9.66 -24.11c10.24,-5.57 21.46,-9.98 33.64,-13.16 12.25,-3.18 24.5,-4.73 36.75,-4.73 24.83,0 43.17,5.51 55.16,16.53 11.99,11.02 17.95,28.65 17.95,52.96l0 142.08 -23.33 0zm-71.24 -22.17c19.64,0 35.07,-5.38 46.22,-16.14 11.2,-10.76 16.85,-25.8 16.85,-45.18l0 -18.8 -31.57 1.36c-25.02,0.84 -43.1,4.73 -54.18,11.67 -11.08,6.88 -16.6,17.63 -16.6,32.15 0,11.41 3.44,20.09 10.37,26 6.87,5.96 16.53,8.94 28.9,8.94zm-7.39 -218.24c6.09,-7.85 12.64,-17.31 19.64,-28.45 7.07,-11.15 12.57,-20.81 16.59,-29.04l38.38 0 0 3.96c-5.57,8.23 -13.87,18.34 -24.89,30.4 -10.95,12 -20.56,21.33 -28.65,27.87l-21.07 0 0 -4.73zm301.21 183.7c0,19.38 -7.26,34.36 -21.65,44.85 -14.45,10.5 -34.68,15.75 -60.79,15.75 -27.55,0 -49.07,-4.34 -64.56,-13.09l0 -29.3c10.05,5.06 20.75,9.08 32.21,12 11.48,2.92 22.5,4.34 33.12,4.34 16.47,0 29.1,-2.66 37.98,-7.91 8.88,-5.25 13.29,-13.22 13.29,-23.98 0,-8.1 -3.5,-15.03 -10.56,-20.81 -7.01,-5.77 -20.68,-12.58 -41.09,-20.42 -19.38,-7.27 -33.12,-13.55 -41.29,-18.93 -8.17,-5.38 -14.26,-11.47 -18.22,-18.34 -4.02,-6.81 -5.96,-14.97 -5.96,-24.5 0,-16.98 6.88,-30.34 20.69,-40.19 13.8,-9.78 32.73,-14.71 56.78,-14.71 22.36,0 44.27,4.54 65.67,13.68l-11.21 25.67c-20.88,-8.62 -39.8,-12.9 -56.72,-12.9 -14.97,0 -26.26,2.34 -33.83,7.01 -7.59,4.73 -11.42,11.14 -11.42,19.37 0,5.57 1.43,10.31 4.28,14.26 2.86,3.89 7.46,7.65 13.81,11.21 6.28,3.5 18.47,8.69 36.43,15.36 24.69,9.01 41.35,18.08 50.03,27.16 8.69,9.14 13.03,20.61 13.03,34.42z"/>
  <path class="fil0" d="M29.17 5446.88c0,30.47 10.17,54.58 30.46,72.28 20.36,17.63 48.17,26.44 83.5,26.44 36.36,0 64.42,-8.49 84.2,-25.54 19.83,-16.98 29.75,-41.29 29.75,-72.85 0,-19.32 -3.5,-41.42 -10.43,-66.25l28.33 0c7.26,19.25 10.88,42.98 10.88,71.24 0,40.9 -12.38,72.46 -37.2,94.63 -24.83,22.23 -60.09,33.38 -105.78,33.38 -28.65,0 -53.74,-5.38 -75.26,-16.08 -21.52,-10.69 -38.11,-26.12 -49.72,-46.34 -11.67,-20.16 -17.5,-43.95 -17.5,-71.31 0,-29.16 5.32,-54.57 15.89,-76.35l27.74 13.67c-9.92,21.01 -14.84,42 -14.84,63.07zm252.79 -301.01l-88.29 34.55 0 111.36 88.29 34.16 0 32.67 -278.85 -109.8 0 -27.16 278.85 -109.22 0 33.45zm-117.45 44.59l-86.01 32.35c-10.89,4.15 -24.24,8.49 -40.06,12.9 12.12,2.79 25.47,6.73 40.06,11.99l86.01 32.67 0 -89.91zm43.69 -272.88c24.43,0 43.5,8.88 57.17,26.58 13.68,17.76 20.49,41.8 20.49,72.21 0,32.92 -4.28,58.27 -12.77,75.97l-31.18 0c4.8,-11.42 8.62,-23.79 11.41,-37.21 2.79,-13.42 4.15,-26.7 4.15,-39.93 0,-21.52 -4.08,-37.72 -12.25,-48.61 -8.11,-10.89 -19.44,-16.34 -34.04,-16.34 -9.59,0 -17.5,1.94 -23.59,5.76 -6.15,3.9 -11.8,10.37 -17.05,19.38 -5.18,9.08 -11.08,22.88 -17.63,41.36 -9.27,25.8 -20.22,44.27 -32.86,55.35 -12.64,11.08 -29.16,16.66 -49.58,16.66 -21.4,0 -38.45,-8.04 -51.08,-24.11 -12.64,-16.14 -18.99,-37.4 -18.99,-63.85 0,-27.61 5.06,-53.02 15.17,-76.16l28.06 10.05c-9.66,22.94 -14.45,45.24 -14.45,66.89 0,17.05 3.69,30.47 11.01,40.06 7.4,9.66 17.57,14.45 30.66,14.45 9.66,0 17.51,-1.81 23.66,-5.31 6.15,-3.57 11.8,-9.53 16.92,-17.96 5.12,-8.42 10.76,-21.32 16.98,-38.7 10.37,-29.1 21.53,-49.13 33.45,-60.08 11.86,-10.95 27.35,-16.47 46.34,-16.47zm-65.4 -297.77c44.47,0 79.41,11.27 104.88,33.7 25.47,22.49 38.17,53.74 38.17,93.8 0,40.9 -12.51,72.46 -37.53,94.63 -25.02,22.23 -60.27,33.38 -105.84,33.38 -45.24,0 -80.25,-11.15 -105.13,-33.44 -24.9,-22.3 -37.34,-53.93 -37.34,-94.96 0,-39.93 12.65,-71.05 37.98,-93.47 25.35,-22.43 60.28,-33.64 104.81,-33.64zm-0.06 221.29c37.59,0 66.12,-7.97 85.56,-23.98 19.44,-16.08 29.16,-39.35 29.16,-69.8 0,-30.79 -9.65,-54.06 -29.03,-69.74 -19.38,-15.69 -47.97,-23.53 -85.69,-23.53 -37.33,0 -65.67,7.78 -84.98,23.46 -19.31,15.62 -28.97,38.77 -28.97,69.42 0,30.79 9.72,54.12 29.16,70.2 19.45,16.02 47.71,23.98 84.79,23.98zm65.47 -439.86c24.43,0 43.5,8.88 57.17,26.58 13.68,17.76 20.49,41.8 20.49,72.21 0,32.92 -4.28,58.27 -12.77,75.97l-31.18 0c4.8,-11.42 8.62,-23.79 11.41,-37.21 2.79,-13.42 4.15,-26.7 4.15,-39.93 0,-21.52 -4.08,-37.72 -12.25,-48.61 -8.11,-10.89 -19.44,-16.34 -34.04,-16.34 -9.59,0 -17.5,1.94 -23.59,5.76 -6.15,3.9 -11.8,10.37 -17.05,19.38 -5.18,9.08 -11.08,22.88 -17.63,41.36 -9.27,25.8 -20.22,44.27 -32.86,55.35 -12.64,11.08 -29.16,16.66 -49.58,16.66 -21.4,0 -38.45,-8.04 -51.08,-24.11 -12.64,-16.14 -18.99,-37.4 -18.99,-63.85 0,-27.61 5.06,-53.02 15.17,-76.16l28.06 10.05c-9.66,22.94 -14.45,45.24 -14.45,66.89 0,17.05 3.69,30.47 11.01,40.06 7.4,9.66 17.57,14.45 30.66,14.45 9.66,0 17.51,-1.81 23.66,-5.31 6.15,-3.57 11.8,-9.53 16.92,-17.96 5.12,-8.42 10.76,-21.32 16.98,-38.7 10.37,-29.1 21.53,-49.13 33.45,-60.08 11.86,-10.95 27.35,-16.47 46.34,-16.47z"/>
  <path class="fil0" d="M26146.57 7329.12l115.51 0 0 32.28 -277.69 0 0 -76.1c0,-34.1 6.54,-59.24 19.57,-75.45 13.03,-16.28 32.67,-24.44 58.86,-24.44 36.75,0 61.58,18.61 74.48,55.81l124.78 -75.39 0 38.18 -115.51 67.21 0 57.89zm-27.61 0l0 -44.21c0,-22.82 -4.54,-39.48 -13.61,-50.1 -9.01,-10.63 -22.63,-15.95 -40.71,-15.95 -18.34,0 -31.57,5.37 -39.67,16.2 -8.11,10.83 -12.19,28.2 -12.19,52.12l0 41.94 106.18 0zm143.12 -1792.69l0 30.72 -197.89 0c-16.47,0 -32.02,-0.52 -46.67,-1.49 2.66,2.67 5.44,5.64 8.36,8.95 2.92,3.24 15.23,18.34 37.08,45.18l-21.72 16.72 -56.85 -73.5 0 -26.57 277.69 0zm-139.17 -289.68c48.04,0 83.88,7.59 107.54,22.69 23.65,15.16 35.52,38.3 35.52,69.42 0,29.95 -12.12,52.63 -36.36,68.25 -24.24,15.55 -59.83,23.33 -106.7,23.33 -48.35,0 -84.2,-7.52 -107.66,-22.62 -23.4,-15.03 -35.14,-38.04 -35.14,-68.96 0,-30.15 12.26,-53.03 36.69,-68.64 24.43,-15.62 59.82,-23.47 106.11,-23.47zm-0.06 151.81c40.38,0 69.8,-4.73 88.29,-14.26 18.4,-9.52 27.61,-24.62 27.61,-45.43 0,-21.01 -9.34,-36.24 -28,-45.7 -18.73,-9.4 -47.97,-14.13 -87.89,-14.13 -39.87,0 -69.1,4.73 -87.7,14.13 -18.53,9.46 -27.8,24.69 -27.8,45.7 0,20.81 9.14,35.91 27.48,45.43 18.28,9.53 47.65,14.26 88.03,14.26zm0.06 -374.2c48.04,0 83.88,7.59 107.54,22.69 23.65,15.16 35.52,38.3 35.52,69.42 0,29.95 -12.12,52.63 -36.36,68.25 -24.24,15.55 -59.83,23.33 -106.7,23.33 -48.35,0 -84.2,-7.52 -107.66,-22.62 -23.4,-15.03 -35.14,-38.04 -35.14,-68.96 0,-30.15 12.26,-53.03 36.69,-68.64 24.43,-15.62 59.82,-23.47 106.11,-23.47zm-0.06 151.81c40.38,0 69.8,-4.73 88.29,-14.26 18.4,-9.52 27.61,-24.62 27.61,-45.43 0,-21.01 -9.34,-36.24 -28,-45.7 -18.73,-9.4 -47.97,-14.13 -87.89,-14.13 -39.87,0 -69.1,4.73 -87.7,14.13 -18.53,9.46 -27.8,24.69 -27.8,45.7 0,20.81 9.14,35.91 27.48,45.43 18.28,9.53 47.65,14.26 88.03,14.26zm139.23 -527.24l0 36.82 -233.03 151.74 0 1.56c27.36,-2.01 52.38,-3.05 75.2,-3.05l157.83 0 0 29.82 -277.69 0 0 -36.43 232.11 -151.42 0 -1.49c-3.43,0.26 -14.38,0.78 -32.99,1.68 -18.53,0.91 -31.76,1.23 -39.8,0.97l-159.32 0 0 -30.21 277.69 0zm-277.69 -234.77l0 -34.75 277.69 100.01 0 31.89 -277.69 99.5 0 -34.16 179.68 -63.78c20.62,-7.33 40.71,-13.16 60.21,-17.51 -20.55,-4.53 -40.96,-10.49 -61.38,-17.82l-178.52 -63.39zm277.69 2532.28l-88.29 34.55 0 111.36 88.29 34.16 0 32.67 -278.85 -109.8 0 -27.16 278.85 -109.22 0 33.45zm-117.45 44.59l-86.01 32.35c-10.89,4.15 -24.24,8.49 -40.06,12.9 12.12,2.79 25.47,6.73 40.06,11.99l86.01 32.67 0 -89.91zm117.45 -284.48l0 190.95 -25.28 0 -223.23 -147.47 0 142.87 -29.17 0 0 -182.14 25.29 0 223.23 147.4 0 -151.61 29.16 0zm-139.17 -290.9c44.47,0 79.41,11.27 104.88,33.7 25.47,22.49 38.17,53.74 38.17,93.8 0,40.9 -12.51,72.46 -37.53,94.63 -25.02,22.23 -60.27,33.38 -105.84,33.38 -45.24,0 -80.25,-11.15 -105.13,-33.44 -24.9,-22.3 -37.34,-53.93 -37.34,-94.96 0,-39.93 12.65,-71.05 37.98,-93.47 25.35,-22.43 60.28,-33.64 104.81,-33.64zm-0.06 221.29c37.59,0 66.12,-7.97 85.56,-23.98 19.44,-16.08 29.16,-39.35 29.16,-69.8 0,-30.79 -9.65,-54.06 -29.03,-69.74 -19.38,-15.69 -47.97,-23.53 -85.69,-23.53 -37.33,0 -65.67,7.78 -84.98,23.46 -19.31,15.62 -28.97,38.77 -28.97,69.42 0,30.79 9.72,54.12 29.16,70.2 19.45,16.02 47.71,23.98 84.79,23.98zm-165.36 -67.22c-7.84,-6.09 -17.31,-12.64 -28.45,-19.63 -11.14,-7.07 -20.81,-12.58 -29.03,-16.6l0 -38.38 3.95 0c8.23,5.57 18.34,13.87 30.4,24.9 12,10.95 21.33,20.55 27.87,28.64l0 21.07 -4.73 0zm304.59 -432.8l0 36.82 -233.03 151.74 0 1.56c27.36,-2.01 52.38,-3.05 75.2,-3.05l157.83 0 0 29.82 -277.69 0 0 -36.43 232.11 -151.42 0 -1.49c-3.43,0.26 -14.38,0.78 -32.99,1.68 -18.53,0.91 -31.76,1.23 -39.8,0.97l-159.32 0 0 -30.21 277.69 0zm0 -362.08l0 36.69 -122.12 74.61 122.12 75.9 0 34.23 -145.13 -92.29 -132.55 86.01 0 -35.72 110 -68.9 -110 -69.48 0 -34.36 131.45 86.02 146.23 -92.7z"/>
  <path class="fil1 str0" d="M2396.01 9233.77l21700.71 0 0 25.46 -21700.71 0 0 -25.46zm0 -1298.22l21700.71 0 0 25.46 -21700.71 0 0 -25.46zm0 -1298.23l21700.71 0 0 25.46 -21700.71 0 0 -25.46zm0 -1298.22l21700.71 0 0 25.46 -21700.71 0 0 -25.46zm0 -1298.23l21700.71 0 0 25.46 -21700.71 0 0 -25.46zm0 -1298.23l21700.71 0 0 25.46 -21700.71 0 0 -25.46zm0 -1298.22l21700.71 0 0 25.46 -21700.71 0 0 -25.46zm0 -1298.23l21700.71 0 0 25.46 -21700.71 0 0 -25.46z"/>
  <g>
   <path class="fil2" d="M3447.86 10339.25l1170.95 0 0 205.48 -1170.95 0 0 -205.48zm2167.95 -7110.73l1175.18 0 0 7316.21 -1175.18 0 0 -7316.21zm2172.18 -2872.01l1170.96 0 0 10188.21 -1170.96 0 0 -10188.21zm2167.96 3206.52l1170.95 0 0 6981.7 -1170.95 0 0 -6981.7zm2167.96 2838.55l1175.18 0 0 4143.14 -1175.18 0 0 -4143.14zm2172.19 2260.34l1170.95 0 0 1882.8 -1170.95 0 0 -1882.8zm2167.95 1452.72l1175.18 0 0 430.08 -1175.18 0 0 -430.08zm2172.18 406.2l1170.95 0 0 23.88 -1170.95 0 0 -23.88zm2167.96 19.11l1175.18 0 0 4.77 -1175.18 0 0 -4.77zm2172.19 0l1170.95 0 0 4.77 -1170.95 0 0 -4.77z"/>
   <path id="1" class="fil3" d="M4618.81 10349.29l-1170.95 0 0 -20.08 1170.95 0 10.02 10.04 -10.02 10.04zm0 -20.08l10.02 0 0 10.04 -10.02 -10.04zm-10.02 215.52l0 -205.48 20.04 0 0 205.48 -10.02 10.04 -10.02 -10.04zm20.04 0l0 10.04 -10.02 0 10.02 -10.04zm-1180.97 -10.04l1170.95 0 0 20.08 -1170.95 0 -10.02 -10.04 10.02 -10.04zm0 20.08l-10.02 0 0 -10.04 10.02 10.04zm10.02 -215.52l0 205.48 -20.04 0 0 -205.48 10.02 -10.04 10.02 10.04zm-20.04 0l0 -10.04 10.02 0 -10.02 10.04zm3353.15 -7100.69l-1175.18 0 0 -20.08 1175.18 0 10.02 10.04 -10.02 10.04zm0 -20.08l10.02 0 0 10.04 -10.02 -10.04zm-10.02 7326.25l0 -7316.21 20.04 0 0 7316.21 -10.02 10.04 -10.02 -10.04zm20.04 0l0 10.04 -10.02 0 10.02 -10.04zm-1185.21 -10.04l1175.18 0 0 20.08 -1175.18 0 -10.02 -10.04 10.02 -10.04zm0 20.08l-10.02 0 0 -10.04 10.02 10.04zm10.02 -7326.25l0 7316.21 -20.04 0 0 -7316.21 10.02 -10.04 10.02 10.04zm-20.04 0l0 -10.04 10.02 0 -10.02 10.04zm3353.16 -2861.96l-1170.96 0 0 -20.08 1170.96 0 10.02 10.04 -10.02 10.04zm0 -20.08l10.02 0 0 10.04 -10.02 -10.04zm-10.02 10198.25l0 -10188.21 20.04 0 0 10188.21 -10.02 10.04 -10.02 -10.04zm20.04 0l0 10.04 -10.02 0 10.02 -10.04zm-1180.98 -10.04l1170.96 0 0 20.08 -1170.96 0 -10.02 -10.04 10.02 -10.04zm0 20.08l-10.02 0 0 -10.04 10.02 10.04zm10.02 -10198.25l0 10188.21 -20.04 0 0 -10188.21 10.02 -10.04 10.02 10.04zm-20.04 0l0 -10.04 10.02 0 -10.02 10.04zm3348.92 3216.56l-1170.95 0 0 -20.08 1170.95 0 10.02 10.04 -10.02 10.04zm0 -20.08l10.02 0 0 10.04 -10.02 -10.04zm-10.02 6991.74l0 -6981.7 20.04 0 0 6981.7 -10.02 10.04 -10.02 -10.04zm20.04 0l0 10.04 -10.02 0 10.02 -10.04zm-1180.97 -10.04l1170.95 0 0 20.08 -1170.95 0 -10.02 -10.04 10.02 -10.04zm0 20.08l-10.02 0 0 -10.04 10.02 10.04zm10.02 -6991.74l0 6981.7 -20.04 0 0 -6981.7 10.02 -10.04 10.02 10.04zm-20.04 0l0 -10.04 10.02 0 -10.02 10.04zm3353.16 2848.59l-1175.18 0 0 -20.08 1175.18 0 10.02 10.04 -10.02 10.04zm0 -20.08l10.02 0 0 10.04 -10.02 -10.04zm-10.02 4153.19l0 -4143.14 20.04 0 0 4143.14 -10.02 10.04 -10.02 -10.04zm20.04 0l0 10.04 -10.02 0 10.02 -10.04zm-1185.21 -10.04l1175.18 0 0 20.08 -1175.18 0 -10.02 -10.04 10.02 -10.04zm0 20.08l-10.02 0 0 -10.04 10.02 10.04zm10.02 -4153.19l0 4143.14 -20.04 0 0 -4143.14 10.02 -10.04 10.02 10.04zm-20.04 0l0 -10.04 10.02 0 -10.02 10.04zm3353.16 2270.38l-1170.95 0 0 -20.08 1170.95 0 10.02 10.04 -10.02 10.04zm0 -20.08l10.02 0 0 10.04 -10.02 -10.04zm-10.02 1892.85l0 -1882.8 20.04 0 0 1882.8 -10.02 10.04 -10.02 -10.04zm20.04 0l0 10.04 -10.02 0 10.02 -10.04zm-1180.97 -10.04l1170.95 0 0 20.08 -1170.95 0 -10.02 -10.04 10.02 -10.04zm0 20.08l-10.02 0 0 -10.04 10.02 10.04zm10.02 -1892.85l0 1882.8 -20.04 0 0 -1882.8 10.02 -10.04 10.02 10.04zm-20.04 0l0 -10.04 10.02 0 -10.02 10.04zm3353.15 1462.76l-1175.18 0 0 -20.08 1175.18 0 10.02 10.04 -10.02 10.04zm0 -20.08l10.02 0 0 10.04 -10.02 -10.04zm-10.02 440.13l0 -430.08 20.04 0 0 430.08 -10.02 10.04 -10.02 -10.04zm20.04 0l0 10.04 -10.02 0 10.02 -10.04zm-1185.21 -10.04l1175.18 0 0 20.08 -1175.18 0 -10.02 -10.04 10.02 -10.04zm0 20.08l-10.02 0 0 -10.04 10.02 10.04zm10.02 -440.13l0 430.08 -20.04 0 0 -430.08 10.02 -10.04 10.02 10.04zm-20.04 0l0 -10.04 10.02 0 -10.02 10.04zm3353.15 416.24l-1170.95 0 0 -20.08 1170.95 0 10.02 10.04 -10.02 10.04zm0 -20.08l10.02 0 0 10.04 -10.02 -10.04zm-10.02 33.93l0 -23.88 20.04 0 0 23.88 -10.02 10.04 -10.02 -10.04zm20.04 0l0 10.04 -10.02 0 10.02 -10.04zm-1180.97 -10.04l1170.95 0 0 20.08 -1170.95 0 -10.02 -10.04 10.02 -10.04zm0 20.08l-10.02 0 0 -10.04 10.02 10.04zm10.02 -33.93l0 23.88 -20.04 0 0 -23.88 10.02 -10.04 10.02 10.04zm-20.04 0l0 -10.04 10.02 0 -10.02 10.04zm3353.16 29.15l-1175.18 0 0 -20.08 1175.18 0 10.02 10.04 -10.02 10.04zm0 -20.08l10.02 0 0 10.04 -10.02 -10.04zm-10.02 14.81l0 -4.77 20.04 0 0 4.77 -10.02 10.04 -10.02 -10.04zm20.04 0l0 10.04 -10.02 0 10.02 -10.04zm-1185.21 -10.04l1175.18 0 0 20.08 -1175.18 0 -10.02 -10.04 10.02 -10.04zm0 20.08l-10.02 0 0 -10.04 10.02 10.04zm10.02 -14.81l0 4.77 -20.04 0 0 -4.77 10.02 -10.04 10.02 10.04zm-20.04 0l0 -10.04 10.02 0 -10.02 10.04zm3353.16 10.04l-1170.95 0 0 -20.08 1170.95 0 10.02 10.04 -10.02 10.04zm0 -20.08l10.02 0 0 10.04 -10.02 -10.04zm-10.02 14.81l0 -4.77 20.04 0 0 4.77 -10.02 10.04 -10.02 -10.04zm20.04 0l0 10.04 -10.02 0 10.02 -10.04zm-1180.97 -10.04l1170.95 0 0 20.08 -1170.95 0 -10.02 -10.04 10.02 -10.04zm0 20.08l-10.02 0 0 -10.04 10.02 10.04zm10.02 -14.81l0 4.77 -20.04 0 0 -4.77 10.02 -10.04 10.02 10.04zm-20.04 0l0 -10.04 10.02 0 -10.02 10.04z"/>
  </g>
  <polygon class="fil1 str0" points="2396.01,10531.99 24096.72,10531.99 24096.72,10557.45 2396.01,10557.45 "/>
  <path class="fil4 str1" d="M2896.64 10362.3l1170.95 0 0 182.42 -1170.95 0 0 -182.42zm2167.95 -6312.93l1175.18 0 0 6495.36 -1175.18 0 0 -6495.36zm2172.18 -2549.78l1170.96 0 0 9045.14 -1170.96 0 0 -9045.14zm2167.96 2846.76l1170.95 0 0 6198.38 -1170.95 0 0 -6198.38zm2167.96 2520.08l1175.18 0 0 3678.3 -1175.18 0 0 -3678.3zm2172.19 2006.74l1170.95 0 0 1671.57 -1170.95 0 0 -1671.57zm2167.95 1289.74l1175.18 0 0 381.83 -1175.18 0 0 -381.83zm2172.18 360.62l1170.95 0 0 21.21 -1170.95 0 0 -21.21zm2167.96 16.97l1175.18 0 0 4.24 -1175.18 0 0 -4.24zm2172.19 0l1170.95 0 0 4.24 -1170.95 0 0 -4.24z"/>
  <polygon class="fil5" points="3477.87,2254.76 5645.81,2072.32 7822.25,2029.9 9990.2,2059.61 12162.4,2106.27 14330.34,2233.55 16502.54,2394.77 18674.72,2751.14 18683.21,2751.14 20855.41,3616.63 20834.19,3616.63 23002.14,3090.54 23014.87,3090.54 23027.6,3094.79 23040.33,3103.27 23044.57,3120.25 23048.81,3132.97 23040.33,3145.7 23031.84,3158.42 23019.11,3162.67 20851.16,3688.75 20838.43,3692.99 20825.7,3688.75 18653.52,2823.26 18661.99,2827.51 16498.3,2471.13 14326.1,2309.91 12162.4,2182.64 9990.2,2135.96 7822.25,2106.27 5650.05,2148.69 3482.11,2331.13 3469.38,2326.88 3456.65,2322.64 3448.17,2309.91 3443.92,2292.94 3443.92,2280.21 3452.41,2267.49 3465.14,2259 3477.87,2254.76 "/>
  <polygon class="fil5" points="3571.21,2292.94 3562.72,2326.88 3545.75,2356.58 3516.05,2373.55 3482.11,2382.04 3448.17,2373.55 3418.48,2356.58 3401.5,2326.88 3393.02,2292.94 3401.5,2259 3418.48,2229.3 3448.17,2208.09 3482.11,2203.84 3516.05,2208.09 3545.75,2229.3 3562.72,2259 "/>
  <polyline class="fil6 str2" points="3571.21,2292.94 3562.72,2326.88 3545.75,2356.58 3516.05,2373.55 3482.11,2382.04 3448.17,2373.55 3418.48,2356.58 3401.5,2326.88 3393.02,2292.94 3401.5,2259 3418.48,2229.3 3448.17,2208.09 3482.11,2203.84 3516.05,2208.09 3545.75,2229.3 3562.72,2259 3571.21,2292.94 "/>
  <polygon class="fil5" points="5739.15,2110.51 5730.66,2144.45 5713.69,2174.15 5683.99,2191.12 5650.05,2199.61 5616.11,2191.12 5586.41,2174.15 5569.44,2144.45 5560.96,2110.51 5569.44,2076.57 5586.41,2046.88 5616.11,2025.66 5650.05,2021.42 5683.99,2025.66 5713.69,2046.88 5730.66,2076.57 "/>
  <polyline class="fil6 str2" points="5739.15,2110.51 5730.66,2144.45 5713.69,2174.15 5683.99,2191.12 5650.05,2199.61 5616.11,2191.12 5586.41,2174.15 5569.44,2144.45 5560.96,2110.51 5569.44,2076.57 5586.41,2046.88 5616.11,2025.66 5650.05,2021.42 5683.99,2025.66 5713.69,2046.88 5730.66,2076.57 5739.15,2110.51 "/>
  <polygon class="fil5" points="7911.35,2068.08 7902.86,2102.03 7885.89,2131.73 7856.18,2148.69 7822.25,2157.18 7788.3,2148.69 7758.61,2131.73 7741.64,2102.03 7733.15,2068.08 7741.64,2034.15 7758.61,2004.44 7788.3,1983.24 7822.25,1979 7856.18,1983.24 7885.89,2004.44 7902.86,2034.15 "/>
  <polyline class="fil6 str2" points="7911.35,2068.08 7902.86,2102.03 7885.89,2131.73 7856.18,2148.69 7822.25,2157.18 7788.3,2148.69 7758.61,2131.73 7741.64,2102.03 7733.15,2068.08 7741.64,2034.15 7758.61,2004.44 7788.3,1983.24 7822.25,1979 7856.18,1983.24 7885.89,2004.44 7902.86,2034.15 7911.35,2068.08 "/>
  <polygon class="fil5" points="10079.29,2097.78 10070.81,2131.73 10053.83,2161.42 10024.14,2178.39 9990.2,2186.88 9956.26,2178.39 9926.56,2161.42 9909.59,2131.73 9901.11,2097.78 9909.59,2063.84 9926.56,2034.15 9956.26,2017.17 9990.2,2008.69 10024.14,2017.17 10053.83,2034.15 10070.81,2063.84 "/>
  <polyline class="fil6 str2" points="10079.29,2097.78 10070.81,2131.73 10053.83,2161.42 10024.14,2178.39 9990.2,2186.88 9956.26,2178.39 9926.56,2161.42 9909.59,2131.73 9901.11,2097.78 9909.59,2063.84 9926.56,2034.15 9956.26,2017.17 9990.2,2008.69 10024.14,2017.17 10053.83,2034.15 10070.81,2063.84 10079.29,2097.78 "/>
  <polygon class="fil5" points="12251.49,2144.45 12243.01,2178.39 12226.03,2208.09 12196.33,2225.06 12162.4,2233.55 12128.45,2225.06 12098.76,2208.09 12081.79,2178.39 12073.3,2144.45 12081.79,2110.51 12098.76,2080.81 12128.45,2063.84 12162.4,2055.36 12196.33,2063.84 12226.03,2080.81 12243.01,2110.51 "/>
  <polyline class="fil6 str2" points="12251.49,2144.45 12243.01,2178.39 12226.03,2208.09 12196.33,2225.06 12162.4,2233.55 12128.45,2225.06 12098.76,2208.09 12081.79,2178.39 12073.3,2144.45 12081.79,2110.51 12098.76,2080.81 12128.45,2063.84 12162.4,2055.36 12196.33,2063.84 12226.03,2080.81 12243.01,2110.51 12251.49,2144.45 "/>
  <polygon class="fil5" points="14419.44,2271.73 14410.95,2305.67 14393.98,2335.37 14364.29,2352.33 14330.34,2360.82 14296.41,2352.33 14266.7,2335.37 14249.73,2305.67 14241.26,2271.73 14249.73,2237.79 14266.7,2208.09 14296.41,2191.12 14330.34,2182.64 14364.29,2191.12 14393.98,2208.09 14410.95,2237.79 "/>
  <polyline class="fil6 str2" points="14419.44,2271.73 14410.95,2305.67 14393.98,2335.37 14364.29,2352.33 14330.34,2360.82 14296.41,2352.33 14266.7,2335.37 14249.73,2305.67 14241.26,2271.73 14249.73,2237.79 14266.7,2208.09 14296.41,2191.12 14330.34,2182.64 14364.29,2191.12 14393.98,2208.09 14410.95,2237.79 14419.44,2271.73 "/>
  <polygon class="fil5" points="16591.64,2432.94 16583.15,2466.89 16566.18,2496.58 16536.48,2513.55 16502.54,2522.04 16468.6,2513.55 16438.9,2496.58 16421.93,2466.89 16413.44,2432.94 16421.93,2399.01 16438.9,2369.31 16468.6,2352.33 16502.54,2343.86 16536.48,2352.33 16566.18,2369.31 16583.15,2399.01 "/>
  <polyline class="fil6 str2" points="16591.64,2432.94 16583.15,2466.89 16566.18,2496.58 16536.48,2513.55 16502.54,2522.04 16468.6,2513.55 16438.9,2496.58 16421.93,2466.89 16413.44,2432.94 16421.93,2399.01 16438.9,2369.31 16468.6,2352.33 16502.54,2343.86 16536.48,2352.33 16566.18,2369.31 16583.15,2399.01 16591.64,2432.94 "/>
  <polygon class="fil5" points="18759.57,2789.32 18751.09,2823.26 18734.12,2852.96 18704.42,2869.93 18670.48,2878.42 18636.54,2869.93 18606.84,2852.96 18589.87,2823.26 18581.39,2789.32 18589.87,2755.38 18606.84,2725.68 18636.54,2708.71 18670.48,2700.23 18704.42,2708.71 18734.12,2725.68 18751.09,2755.38 "/>
  <polyline class="fil6 str2" points="18759.57,2789.32 18751.09,2823.26 18734.12,2852.96 18704.42,2869.93 18670.48,2878.42 18636.54,2869.93 18606.84,2852.96 18589.87,2823.26 18581.39,2789.32 18589.87,2755.38 18606.84,2725.68 18636.54,2708.71 18670.48,2700.23 18704.42,2708.71 18734.12,2725.68 18751.09,2755.38 18759.57,2789.32 "/>
  <polygon class="fil5" points="20931.77,3654.8 20923.29,3688.75 20906.32,3718.44 20876.61,3735.41 20842.68,3743.9 20808.73,3735.41 20779.04,3718.44 20762.07,3688.75 20753.58,3654.8 20762.07,3620.87 20779.04,3591.17 20808.73,3574.19 20842.68,3565.71 20876.61,3574.19 20906.32,3591.17 20923.29,3620.87 "/>
  <polyline class="fil6 str2" points="20931.77,3654.8 20923.29,3688.75 20906.32,3718.44 20876.61,3735.41 20842.68,3743.9 20808.73,3735.41 20779.04,3718.44 20762.07,3688.75 20753.58,3654.8 20762.07,3620.87 20779.04,3591.17 20808.73,3574.19 20842.68,3565.71 20876.61,3574.19 20906.32,3591.17 20923.29,3620.87 20931.77,3654.8 "/>
  <polygon class="fil5" points="23099.72,3128.72 23091.23,3162.67 23074.26,3192.37 23044.57,3209.33 23010.62,3217.82 22976.69,3209.33 22946.99,3192.37 22930.01,3162.67 22921.54,3128.72 22930.01,3094.79 22946.99,3065.09 22976.69,3048.12 23010.62,3039.64 23044.57,3048.12 23074.26,3065.09 23091.23,3094.79 "/>
  <polyline class="fil6 str2" points="23099.72,3128.72 23091.23,3162.67 23074.26,3192.37 23044.57,3209.33 23010.62,3217.82 22976.69,3209.33 22946.99,3192.37 22930.01,3162.67 22921.54,3128.72 22930.01,3094.79 22946.99,3065.09 22976.69,3048.12 23010.62,3039.64 23044.57,3048.12 23074.26,3065.09 23091.23,3094.79 23099.72,3128.72 "/>
  <rect class="fil2" x="2345.99" y="11907.86" width="670" height="670"/>
  <path class="fil0" d="M3478.88 12407.2l-182.59 0 0 -27.16 73.18 -73.5c22.23,-22.56 36.94,-38.64 44.08,-48.29 7.07,-9.6 12.38,-18.99 15.95,-28.07 3.5,-9.14 5.31,-18.92 5.31,-29.49 0,-14.78 -4.54,-26.52 -13.48,-35.2 -9.01,-8.69 -21.52,-13.03 -37.46,-13.03 -11.55,0 -22.43,1.87 -32.74,5.7 -10.36,3.76 -21.84,10.69 -34.48,20.68l-16.73 -21.46c25.54,-21.2 53.41,-31.76 83.56,-31.76 26.12,0 46.53,6.67 61.38,20.03 14.85,13.35 22.24,31.3 22.24,53.86 0,17.57 -4.93,35.01 -14.84,52.25 -9.85,17.18 -28.33,38.96 -55.48,65.27l-60.8 59.5 0 1.49 142.93 0 0 29.16zm223.89 -139.17c0,48.04 -7.59,83.88 -22.69,107.54 -15.16,23.65 -38.3,35.52 -69.42,35.52 -29.95,0 -52.63,-12.12 -68.25,-36.36 -15.55,-24.24 -23.33,-59.83 -23.33,-106.7 0,-48.35 7.52,-84.2 22.62,-107.66 15.03,-23.4 38.04,-35.14 68.96,-35.14 30.15,0 53.03,12.26 68.64,36.69 15.62,24.43 23.47,59.82 23.47,106.11zm-151.81 -0.06c0,40.38 4.73,69.8 14.26,88.29 9.52,18.4 24.62,27.61 45.43,27.61 21.01,0 36.24,-9.34 45.7,-28 9.4,-18.73 14.13,-47.97 14.13,-87.89 0,-39.87 -4.73,-69.1 -14.13,-87.7 -9.46,-18.53 -24.69,-27.8 -45.7,-27.8 -20.81,0 -35.91,9.14 -45.43,27.48 -9.53,18.28 -14.26,47.65 -14.26,88.03zm306.91 139.23l-30.72 0 0 -197.89c0,-16.47 0.52,-32.02 1.49,-46.67 -2.67,2.66 -5.64,5.44 -8.95,8.36 -3.24,2.92 -18.34,15.23 -45.18,37.08l-16.72 -21.72 73.5 -56.85 26.57 0 0 277.69zm140.72 0l115.19 -248.51 -151.42 0 0 -29.17 184.8 0 0 25.29 -113.56 252.4 -35.01 0z"/>
  <rect class="fil4" x="4654.67" y="11907.86" width="670" height="670"/>
  <path class="fil0" d="M5787.56 12407.2l-182.59 0 0 -27.16 73.18 -73.5c22.23,-22.56 36.94,-38.64 44.08,-48.29 7.07,-9.6 12.38,-18.99 15.95,-28.07 3.5,-9.14 5.31,-18.92 5.31,-29.49 0,-14.78 -4.54,-26.52 -13.48,-35.2 -9.01,-8.69 -21.52,-13.03 -37.46,-13.03 -11.55,0 -22.43,1.87 -32.74,5.7 -10.36,3.76 -21.84,10.69 -34.48,20.68l-16.73 -21.46c25.54,-21.2 53.41,-31.76 83.56,-31.76 26.12,0 46.53,6.67 61.38,20.03 14.85,13.35 22.24,31.3 22.24,53.86 0,17.57 -4.93,35.01 -14.84,52.25 -9.85,17.18 -28.33,38.96 -55.48,65.27l-60.8 59.5 0 1.49 142.93 0 0 29.16zm223.89 -139.17c0,48.04 -7.59,83.88 -22.69,107.54 -15.16,23.65 -38.3,35.52 -69.42,35.52 -29.95,0 -52.63,-12.12 -68.25,-36.36 -15.55,-24.24 -23.33,-59.83 -23.33,-106.7 0,-48.35 7.52,-84.2 22.62,-107.66 15.03,-23.4 38.04,-35.14 68.96,-35.14 30.15,0 53.03,12.26 68.64,36.69 15.62,24.43 23.47,59.82 23.47,106.11zm-151.81 -0.06c0,40.38 4.73,69.8 14.26,88.29 9.52,18.4 24.62,27.61 45.43,27.61 21.01,0 36.24,-9.34 45.7,-28 9.4,-18.73 14.13,-47.97 14.13,-87.89 0,-39.87 -4.73,-69.1 -14.13,-87.7 -9.46,-18.53 -24.69,-27.8 -45.7,-27.8 -20.81,0 -35.91,9.14 -45.43,27.48 -9.53,18.28 -14.26,47.65 -14.26,88.03zm306.91 139.23l-30.72 0 0 -197.89c0,-16.47 0.52,-32.02 1.49,-46.67 -2.67,2.66 -5.64,5.44 -8.95,8.36 -3.24,2.92 -18.34,15.23 -45.18,37.08l-16.72 -21.72 73.5 -56.85 26.57 0 0 277.69zm197.57 -281.57c25.29,0 45.38,5.9 60.22,17.63 14.77,11.8 22.23,28.07 22.23,48.81 0,13.68 -4.28,26.13 -12.77,37.4 -8.49,11.27 -22.04,21.52 -40.64,30.79 22.55,10.76 38.57,22.04 48.1,33.91 9.46,11.86 14.19,25.54 14.19,41.09 0,23.08 -8.04,41.48 -24.11,55.22 -16.08,13.74 -38.11,20.62 -66.12,20.62 -29.62,0 -52.44,-6.48 -68.38,-19.44 -15.95,-13.03 -23.91,-31.44 -23.91,-55.23 0,-31.82 19.37,-56.59 58.14,-74.27 -17.5,-9.92 -30.02,-20.55 -37.66,-32.02 -7.58,-11.41 -11.34,-24.24 -11.34,-38.44 0,-20.09 7.39,-36.17 22.29,-48.1 14.84,-12 34.81,-17.96 59.76,-17.96zm-60.08 211.51c0,15.22 5.31,27.03 15.89,35.52 10.56,8.49 25.41,12.77 44.53,12.77 18.92,0 33.57,-4.41 44.14,-13.29 10.5,-8.88 15.75,-21.07 15.75,-36.49 0,-12.32 -4.93,-23.27 -14.84,-32.8 -9.85,-9.59 -27.1,-18.86 -51.66,-27.87 -18.86,8.11 -32.54,17.05 -41.03,26.9 -8.49,9.85 -12.77,21.59 -12.77,35.27zm59.7 -185.84c-15.89,0 -28.26,3.83 -37.27,11.42 -9.01,7.58 -13.48,17.69 -13.48,30.33 0,11.68 3.76,21.66 11.2,30.02 7.46,8.36 21.27,16.72 41.42,25.09 18.15,-7.59 30.92,-15.75 38.51,-24.5 7.52,-8.75 11.27,-18.92 11.27,-30.6 0,-12.77 -4.6,-22.94 -13.74,-30.46 -9.2,-7.53 -21.85,-11.29 -37.91,-11.29z"/>
 </g>
</svg>
