<?xml version="1.0" encoding="UTF-8"?>
<!DOCTYPE svg PUBLIC "-//W3C//DTD SVG 1.1//EN" "http://www.w3.org/Graphics/SVG/1.1/DTD/svg11.dtd">
<!-- Creator: CorelDRAW 2017 -->
<svg xmlns="http://www.w3.org/2000/svg" xml:space="preserve" width="162.047mm" height="116.129mm" version="1.1" style="shape-rendering:geometricPrecision; text-rendering:geometricPrecision; image-rendering:optimizeQuality; fill-rule:evenodd; clip-rule:evenodd"
viewBox="0 0 16222.42 11625.62"
 xmlns:xlink="http://www.w3.org/1999/xlink">
 <defs>
  <style type="text/css">
   <![CDATA[
    .str1 {stroke:#C00000;stroke-width:4.23;stroke-miterlimit:22.9256}
    .str0 {stroke:#D9D9D9;stroke-width:4.23;stroke-miterlimit:22.9256}
    .fil5 {fill:#FFC000}
    .fil3 {fill:black;fill-rule:nonzero}
    .fil4 {fill:black;fill-rule:nonzero}
    .fil2 {fill:#C00000;fill-rule:nonzero}
    .fil1 {fill:#D9D9D9;fill-rule:nonzero}
    .fil0 {fill:#FFC000;fill-rule:nonzero}
   ]]>
  </style>
 </defs>
 <g id="Capa_x0020_1">
  <metadata id="CorelCorpID_0Corel-Layer"/>
  <path class="fil0" d="M1720.43 9185.1l1038.23 0 0 394.1 -1038.23 0 0 -394.1zm1449.28 -7644.76l1038.23 0 0 8038.86 -1038.23 0 0 -8038.86zm1453.53 -169.51l1038.22 0 0 8208.38 -1038.22 0 0 -8208.38zm1453.52 1296.73l1034 0 0 6911.64 -1034 0 0 -6911.64zm1449.29 2479.03l1038.22 0 0 4432.61 -1038.22 0 0 -4432.61zm1453.52 1351.81l1034 0 0 3080.79 -1034 0 0 -3080.79zm1449.28 2101.89l1038.23 0 0 978.9 -1038.23 0 0 -978.9zm1453.53 864.48l1033.99 0 0 114.41 -1033.99 0 0 -114.41zm1449.28 105.94l1038.23 0 0 8.48 -1038.23 0 0 -8.48z"/>
  <polygon class="fil1 str0" points="1512.78,9566.49 14577.52,9566.49 14577.52,9591.92 1512.78,9591.92 "/>
  <polygon class="fil2 str1" points="2262.85,6011.08 3716.36,7473.08 3703.66,7464.6 5152.94,8011.26 5131.75,8011.26 6585.27,7668.02 8038.79,7523.93 8017.61,7528.17 9471.12,6515.37 10924.65,5405.1 10911.94,5426.28 12361.22,1387.78 12369.7,1375.07 12378.18,1366.59 12390.89,1362.36 12407.84,1362.36 13861.35,1735.27 13874.07,1743.74 13882.55,1752.22 13891.03,1764.94 13886.78,1781.88 13882.55,1794.6 13869.83,1803.08 13857.12,1811.55 13840.17,1807.31 12386.64,1434.39 12433.27,1413.21 10983.97,5451.71 10971.26,5468.66 9517.74,6578.93 8064.22,7591.73 8047.27,7600.21 6602.22,7740.05 5148.7,8083.3 5123.28,8083.3 3673.99,7536.64 3661.27,7528.17 2207.76,6066.17 2199.28,6053.45 2199.28,6040.74 2199.28,6023.79 2207.76,6011.08 2220.47,6002.61 2237.42,6002.61 2250.13,6002.61 2262.85,6011.08 "/>
  <path class="fil3" d="M15522.57 9563.01c0,43.61 -6.88,76.16 -20.59,97.65 -13.78,21.48 -34.79,32.26 -63.04,32.26 -27.2,0 -47.79,-11.01 -61.98,-33.03 -14.13,-22.01 -21.19,-54.32 -21.19,-96.88 0,-43.91 6.83,-76.46 20.54,-97.77 13.65,-21.25 34.55,-31.9 62.63,-31.9 27.37,0 48.14,11.12 62.33,33.32 14.19,22.19 21.3,54.33 21.3,96.36zm-137.84 -0.06c0,36.67 4.29,63.39 12.94,80.17 8.65,16.71 22.36,25.07 41.27,25.07 19.07,0 32.9,-8.47 41.5,-25.43 8.53,-17.01 12.82,-43.55 12.82,-79.81 0,-36.2 -4.29,-62.75 -12.82,-79.64 -8.6,-16.84 -22.42,-25.25 -41.5,-25.25 -18.9,0 -32.62,8.3 -41.27,24.95 -8.65,16.6 -12.94,43.27 -12.94,79.94zm181.58 108.12c0,-7.65 1.77,-13.47 5.25,-17.42 3.52,-3.94 8.53,-5.95 15.13,-5.95 6.65,0 11.82,2 15.6,5.95 3.7,3.94 5.59,9.77 5.59,17.42 0,7.48 -1.88,13.24 -5.65,17.25 -3.82,4 -9.01,6.01 -15.54,6.01 -5.89,0 -10.71,-1.82 -14.6,-5.42 -3.83,-3.59 -5.78,-9.54 -5.78,-17.84zm252.22 -108.06c0,43.61 -6.88,76.16 -20.59,97.65 -13.78,21.48 -34.79,32.26 -63.04,32.26 -27.2,0 -47.79,-11.01 -61.98,-33.03 -14.13,-22.01 -21.19,-54.32 -21.19,-96.88 0,-43.91 6.83,-76.46 20.54,-97.77 13.65,-21.25 34.55,-31.9 62.63,-31.9 27.37,0 48.14,11.12 62.33,33.32 14.19,22.19 21.3,54.33 21.3,96.36zm-137.84 -0.06c0,36.67 4.29,63.39 12.94,80.17 8.65,16.71 22.36,25.07 41.27,25.07 19.07,0 32.9,-8.47 41.5,-25.43 8.53,-17.01 12.82,-43.55 12.82,-79.81 0,-36.2 -4.29,-62.75 -12.82,-79.64 -8.6,-16.84 -22.42,-25.25 -41.5,-25.25 -18.9,0 -32.62,8.3 -41.27,24.95 -8.65,16.6 -12.94,43.27 -12.94,79.94zm339.79 0.06c0,43.61 -6.88,76.16 -20.59,97.65 -13.78,21.48 -34.79,32.26 -63.04,32.26 -27.2,0 -47.79,-11.01 -61.98,-33.03 -14.13,-22.01 -21.19,-54.32 -21.19,-96.88 0,-43.91 6.83,-76.46 20.54,-97.77 13.65,-21.25 34.55,-31.9 62.63,-31.9 27.37,0 48.14,11.12 62.33,33.32 14.19,22.19 21.3,54.33 21.3,96.36zm-137.84 -0.06c0,36.67 4.29,63.39 12.94,80.17 8.65,16.71 22.36,25.07 41.27,25.07 19.07,0 32.9,-8.47 41.5,-25.43 8.53,-17.01 12.82,-43.55 12.82,-79.81 0,-36.2 -4.29,-62.75 -12.82,-79.64 -8.6,-16.84 -22.42,-25.25 -41.5,-25.25 -18.9,0 -32.62,8.3 -41.27,24.95 -8.65,16.6 -12.94,43.27 -12.94,79.94z"/>
  <path class="fil3" d="M15521.21 8346.04l-165.8 0 0 -24.67 66.45 -66.74c20.18,-20.48 33.55,-35.08 40.02,-43.85 6.42,-8.71 11.24,-17.25 14.48,-25.49 3.18,-8.3 4.83,-17.19 4.83,-26.78 0,-13.42 -4.11,-24.08 -12.24,-31.96 -8.18,-7.89 -19.54,-11.82 -34.02,-11.82 -10.48,0 -20.36,1.7 -29.72,5.18 -9.42,3.41 -19.84,9.71 -31.31,18.78l-15.19 -19.49c23.19,-19.24 48.5,-28.84 75.87,-28.84 23.72,0 42.26,6.07 55.74,18.19 13.47,12.12 20.18,28.43 20.18,48.91 0,15.95 -4.47,31.78 -13.47,47.44 -8.95,15.6 -25.73,35.38 -50.38,59.27l-55.21 54.03 0 1.35 129.78 0 0 26.49zm45.09 -18.31c0,-7.65 1.77,-13.47 5.25,-17.42 3.52,-3.94 8.53,-5.95 15.13,-5.95 6.65,0 11.82,2 15.6,5.95 3.7,3.94 5.59,9.77 5.59,17.42 0,7.48 -1.88,13.24 -5.65,17.25 -3.82,4 -9.01,6.01 -15.54,6.01 -5.89,0 -10.71,-1.82 -14.6,-5.42 -3.83,-3.59 -5.78,-9.54 -5.78,-17.84zm252.22 -108.06c0,43.61 -6.88,76.16 -20.59,97.65 -13.78,21.48 -34.79,32.26 -63.04,32.26 -27.2,0 -47.79,-11.01 -61.98,-33.03 -14.13,-22.01 -21.19,-54.32 -21.19,-96.88 0,-43.91 6.83,-76.46 20.54,-97.77 13.65,-21.25 34.55,-31.9 62.63,-31.9 27.37,0 48.14,11.12 62.33,33.32 14.19,22.19 21.3,54.33 21.3,96.36zm-137.84 -0.06c0,36.67 4.29,63.39 12.94,80.17 8.65,16.71 22.36,25.07 41.27,25.07 19.07,0 32.9,-8.47 41.5,-25.43 8.53,-17.01 12.82,-43.55 12.82,-79.81 0,-36.2 -4.29,-62.75 -12.82,-79.64 -8.6,-16.84 -22.42,-25.25 -41.5,-25.25 -18.9,0 -32.62,8.3 -41.27,24.95 -8.65,16.6 -12.94,43.27 -12.94,79.94zm339.79 0.06c0,43.61 -6.88,76.16 -20.59,97.65 -13.78,21.48 -34.79,32.26 -63.04,32.26 -27.2,0 -47.79,-11.01 -61.98,-33.03 -14.13,-22.01 -21.19,-54.32 -21.19,-96.88 0,-43.91 6.83,-76.46 20.54,-97.77 13.65,-21.25 34.55,-31.9 62.63,-31.9 27.37,0 48.14,11.12 62.33,33.32 14.19,22.19 21.3,54.33 21.3,96.36zm-137.84 -0.06c0,36.67 4.29,63.39 12.94,80.17 8.65,16.71 22.36,25.07 41.27,25.07 19.07,0 32.9,-8.47 41.5,-25.43 8.53,-17.01 12.82,-43.55 12.82,-79.81 0,-36.2 -4.29,-62.75 -12.82,-79.64 -8.6,-16.84 -22.42,-25.25 -41.5,-25.25 -18.9,0 -32.62,8.3 -41.27,24.95 -8.65,16.6 -12.94,43.27 -12.94,79.94z"/>
  <path class="fil3" d="M15533.11 6940.54l-37.43 0 0 57.91 -27.43 0 0 -57.91 -122.66 0 0 -25.02 119.72 -170.64 30.37 0 0 169.51 37.43 0 0 26.14zm-64.86 -26.14l0 -83.81c0,-16.43 0.58,-35.03 1.7,-55.68l-1.35 0c-5.54,11 -10.71,20.18 -15.54,27.43l-78.88 112.06 94.06 0zm98.06 65.74c0,-7.65 1.77,-13.47 5.25,-17.42 3.52,-3.94 8.53,-5.95 15.13,-5.95 6.65,0 11.82,2 15.6,5.95 3.7,3.94 5.59,9.77 5.59,17.42 0,7.48 -1.88,13.24 -5.65,17.25 -3.82,4 -9.01,6.01 -15.54,6.01 -5.89,0 -10.71,-1.82 -14.6,-5.42 -3.83,-3.59 -5.78,-9.54 -5.78,-17.84zm252.22 -108.06c0,43.61 -6.88,76.16 -20.59,97.65 -13.78,21.48 -34.79,32.26 -63.04,32.26 -27.2,0 -47.79,-11.01 -61.98,-33.03 -14.13,-22.01 -21.19,-54.32 -21.19,-96.88 0,-43.91 6.83,-76.46 20.54,-97.77 13.65,-21.25 34.55,-31.9 62.63,-31.9 27.37,0 48.14,11.12 62.33,33.32 14.19,22.19 21.3,54.33 21.3,96.36zm-137.84 -0.06c0,36.67 4.29,63.39 12.94,80.17 8.65,16.71 22.36,25.07 41.27,25.07 19.07,0 32.9,-8.47 41.5,-25.43 8.53,-17.01 12.82,-43.55 12.82,-79.81 0,-36.2 -4.29,-62.75 -12.82,-79.64 -8.6,-16.84 -22.42,-25.25 -41.5,-25.25 -18.9,0 -32.62,8.3 -41.27,24.95 -8.65,16.6 -12.94,43.27 -12.94,79.94zm339.79 0.06c0,43.61 -6.88,76.16 -20.59,97.65 -13.78,21.48 -34.79,32.26 -63.04,32.26 -27.2,0 -47.79,-11.01 -61.98,-33.03 -14.13,-22.01 -21.19,-54.32 -21.19,-96.88 0,-43.91 6.83,-76.46 20.54,-97.77 13.65,-21.25 34.55,-31.9 62.63,-31.9 27.37,0 48.14,11.12 62.33,33.32 14.19,22.19 21.3,54.33 21.3,96.36zm-137.84 -0.06c0,36.67 4.29,63.39 12.94,80.17 8.65,16.71 22.36,25.07 41.27,25.07 19.07,0 32.9,-8.47 41.5,-25.43 8.53,-17.01 12.82,-43.55 12.82,-79.81 0,-36.2 -4.29,-62.75 -12.82,-79.64 -8.6,-16.84 -22.42,-25.25 -41.5,-25.25 -18.9,0 -32.62,8.3 -41.27,24.95 -8.65,16.6 -12.94,43.27 -12.94,79.94z"/>
  <path class="fil3" d="M15358.36 5547.41c0,-49.56 9.65,-86.58 28.9,-111.13 19.24,-24.55 47.73,-36.85 85.46,-36.85 13,0 23.25,1.12 30.72,3.3l0 24.66c-8.89,-2.88 -19.01,-4.29 -30.37,-4.29 -27.02,0 -47.68,8.42 -61.92,25.25 -14.31,16.84 -22.13,43.27 -23.49,79.29l2.05 0c12.66,-19.78 32.68,-29.66 60.05,-29.66 22.65,0 40.49,6.83 53.56,20.54 13.06,13.71 19.6,32.26 19.6,55.74 0,26.25 -7.19,46.85 -21.48,61.86 -14.31,15.01 -33.67,22.54 -58.03,22.54 -26.14,0 -46.8,-9.83 -62.1,-29.43 -15.31,-19.6 -22.96,-46.85 -22.96,-81.81zm84.69 86.87c16.37,0 29.02,-5.13 38.02,-15.43 9.07,-10.3 13.54,-25.19 13.54,-44.61 0,-16.72 -4.18,-29.78 -12.6,-39.38 -8.35,-9.53 -20.89,-14.31 -37.61,-14.31 -10.29,0 -19.83,2.12 -28.42,6.36 -8.66,4.3 -15.54,10.13 -20.66,17.6 -5.07,7.54 -7.65,15.25 -7.65,23.32 0,11.88 2.29,22.89 6.89,33.14 4.59,10.24 11.12,18.36 19.59,24.37 8.48,5.95 18.07,8.95 28.9,8.95zm123.25 2.52c0,-7.65 1.77,-13.47 5.25,-17.42 3.52,-3.94 8.53,-5.95 15.13,-5.95 6.65,0 11.82,2 15.6,5.95 3.7,3.94 5.59,9.77 5.59,17.42 0,7.48 -1.88,13.24 -5.65,17.25 -3.82,4 -9.01,6.01 -15.54,6.01 -5.89,0 -10.71,-1.82 -14.6,-5.42 -3.83,-3.59 -5.78,-9.54 -5.78,-17.84zm252.22 -108.06c0,43.61 -6.88,76.16 -20.59,97.65 -13.78,21.48 -34.79,32.26 -63.04,32.26 -27.2,0 -47.79,-11.01 -61.98,-33.03 -14.13,-22.01 -21.19,-54.32 -21.19,-96.88 0,-43.91 6.83,-76.46 20.54,-97.77 13.65,-21.25 34.55,-31.9 62.63,-31.9 27.37,0 48.14,11.12 62.33,33.32 14.19,22.19 21.3,54.33 21.3,96.36zm-137.84 -0.06c0,36.67 4.29,63.39 12.94,80.17 8.65,16.71 22.36,25.07 41.27,25.07 19.07,0 32.9,-8.47 41.5,-25.43 8.53,-17.01 12.82,-43.55 12.82,-79.81 0,-36.2 -4.29,-62.75 -12.82,-79.64 -8.6,-16.84 -22.42,-25.25 -41.5,-25.25 -18.9,0 -32.62,8.3 -41.27,24.95 -8.65,16.6 -12.94,43.27 -12.94,79.94zm339.79 0.06c0,43.61 -6.88,76.16 -20.59,97.65 -13.78,21.48 -34.79,32.26 -63.04,32.26 -27.2,0 -47.79,-11.01 -61.98,-33.03 -14.13,-22.01 -21.19,-54.32 -21.19,-96.88 0,-43.91 6.83,-76.46 20.54,-97.77 13.65,-21.25 34.55,-31.9 62.63,-31.9 27.37,0 48.14,11.12 62.33,33.32 14.19,22.19 21.3,54.33 21.3,96.36zm-137.84 -0.06c0,36.67 4.29,63.39 12.94,80.17 8.65,16.71 22.36,25.07 41.27,25.07 19.07,0 32.9,-8.47 41.5,-25.43 8.53,-17.01 12.82,-43.55 12.82,-79.81 0,-36.2 -4.29,-62.75 -12.82,-79.64 -8.6,-16.84 -22.42,-25.25 -41.5,-25.25 -18.9,0 -32.62,8.3 -41.27,24.95 -8.65,16.6 -12.94,43.27 -12.94,79.94z"/>
  <path class="fil3" d="M15438.93 4051.85c22.96,0 41.19,5.36 54.68,16.02 13.41,10.71 20.18,25.49 20.18,44.32 0,12.42 -3.88,23.72 -11.59,33.96 -7.71,10.24 -20.01,19.54 -36.9,27.96 20.48,9.77 35.02,20.01 43.67,30.78 8.6,10.77 12.89,23.2 12.89,37.32 0,20.95 -7.3,37.67 -21.89,50.14 -14.6,12.48 -34.61,18.72 -60.04,18.72 -26.9,0 -47.62,-5.89 -62.1,-17.66 -14.49,-11.83 -21.72,-28.55 -21.72,-50.14 0,-28.9 17.6,-51.39 52.8,-67.45 -15.89,-9.01 -27.25,-18.66 -34.2,-29.08 -6.89,-10.36 -10.3,-22.01 -10.3,-34.9 0,-18.25 6.72,-32.85 20.25,-43.68 13.47,-10.89 31.6,-16.31 54.27,-16.31zm-54.57 192.06c0,13.84 4.84,24.55 14.43,32.26 9.59,7.71 23.08,11.59 40.43,11.59 17.19,0 30.49,-3.99 40.08,-12.06 9.54,-8.06 14.31,-19.13 14.31,-33.14 0,-11.18 -4.47,-21.13 -13.48,-29.78 -8.94,-8.71 -24.6,-17.13 -46.91,-25.31 -17.13,7.36 -29.54,15.48 -37.25,24.43 -7.72,8.94 -11.6,19.6 -11.6,32.01zm54.21 -168.74c-14.42,0 -25.66,3.47 -33.84,10.36 -8.19,6.88 -12.24,16.07 -12.24,27.54 0,10.59 3.41,19.66 10.18,27.25 6.77,7.6 19.3,15.19 37.61,22.78 16.48,-6.89 28.07,-14.31 34.96,-22.25 6.83,-7.94 10.24,-17.19 10.24,-27.78 0,-11.59 -4.17,-20.83 -12.47,-27.66 -8.36,-6.83 -19.83,-10.24 -34.44,-10.24zm127.73 214.06c0,-7.65 1.77,-13.47 5.25,-17.42 3.52,-3.94 8.53,-5.95 15.13,-5.95 6.65,0 11.82,2 15.6,5.95 3.7,3.94 5.59,9.77 5.59,17.42 0,7.48 -1.88,13.24 -5.65,17.25 -3.82,4 -9.01,6.01 -15.54,6.01 -5.89,0 -10.71,-1.82 -14.6,-5.42 -3.83,-3.59 -5.78,-9.54 -5.78,-17.84zm252.22 -108.06c0,43.61 -6.88,76.16 -20.59,97.65 -13.78,21.48 -34.79,32.26 -63.04,32.26 -27.2,0 -47.79,-11.01 -61.98,-33.03 -14.13,-22.01 -21.19,-54.32 -21.19,-96.88 0,-43.91 6.83,-76.46 20.54,-97.77 13.65,-21.25 34.55,-31.9 62.63,-31.9 27.37,0 48.14,11.12 62.33,33.32 14.19,22.19 21.3,54.33 21.3,96.36zm-137.84 -0.06c0,36.67 4.29,63.39 12.94,80.17 8.65,16.71 22.36,25.07 41.27,25.07 19.07,0 32.9,-8.47 41.5,-25.43 8.53,-17.01 12.82,-43.55 12.82,-79.81 0,-36.2 -4.29,-62.75 -12.82,-79.64 -8.6,-16.84 -22.42,-25.25 -41.5,-25.25 -18.9,0 -32.62,8.3 -41.27,24.95 -8.65,16.6 -12.94,43.27 -12.94,79.94zm339.79 0.06c0,43.61 -6.88,76.16 -20.59,97.65 -13.78,21.48 -34.79,32.26 -63.04,32.26 -27.2,0 -47.79,-11.01 -61.98,-33.03 -14.13,-22.01 -21.19,-54.32 -21.19,-96.88 0,-43.91 6.83,-76.46 20.54,-97.77 13.65,-21.25 34.55,-31.9 62.63,-31.9 27.37,0 48.14,11.12 62.33,33.32 14.19,22.19 21.3,54.33 21.3,96.36zm-137.84 -0.06c0,36.67 4.29,63.39 12.94,80.17 8.65,16.71 22.36,25.07 41.27,25.07 19.07,0 32.9,-8.47 41.5,-25.43 8.53,-17.01 12.82,-43.55 12.82,-79.81 0,-36.2 -4.29,-62.75 -12.82,-79.64 -8.6,-16.84 -22.42,-25.25 -41.5,-25.25 -18.9,0 -32.62,8.3 -41.27,24.95 -8.65,16.6 -12.94,43.27 -12.94,79.94z"/>
  <path class="fil3" d="M15461.48 2964.19l-27.9 0 0 -179.7c0,-14.96 0.47,-29.08 1.35,-42.38 -2.41,2.41 -5.13,4.95 -8.12,7.59 -2.94,2.65 -16.66,13.84 -41.02,33.67l-15.19 -19.71 66.74 -51.63 24.14 0 0 252.16zm263.04 -126.37c0,43.61 -6.88,76.16 -20.59,97.65 -13.78,21.48 -34.79,32.26 -63.04,32.26 -27.2,0 -47.79,-11.01 -61.98,-33.03 -14.13,-22.01 -21.19,-54.32 -21.19,-96.88 0,-43.91 6.83,-76.46 20.54,-97.77 13.65,-21.25 34.55,-31.9 62.63,-31.9 27.37,0 48.14,11.12 62.33,33.32 14.19,22.19 21.3,54.33 21.3,96.36zm-137.84 -0.06c0,36.67 4.29,63.39 12.94,80.17 8.65,16.71 22.36,25.07 41.27,25.07 19.07,0 32.9,-8.47 41.5,-25.43 8.53,-17.01 12.82,-43.55 12.82,-79.81 0,-36.2 -4.29,-62.75 -12.82,-79.64 -8.6,-16.84 -22.42,-25.25 -41.5,-25.25 -18.9,0 -32.62,8.3 -41.27,24.95 -8.65,16.6 -12.94,43.27 -12.94,79.94zm181.58 108.12c0,-7.65 1.77,-13.47 5.25,-17.42 3.52,-3.94 8.53,-5.95 15.13,-5.95 6.65,0 11.82,2 15.6,5.95 3.7,3.94 5.59,9.77 5.59,17.42 0,7.48 -1.88,13.24 -5.65,17.25 -3.82,4 -9.01,6.01 -15.54,6.01 -5.89,0 -10.71,-1.82 -14.6,-5.42 -3.83,-3.59 -5.78,-9.54 -5.78,-17.84zm252.22 -108.06c0,43.61 -6.88,76.16 -20.59,97.65 -13.78,21.48 -34.79,32.26 -63.04,32.26 -27.2,0 -47.79,-11.01 -61.98,-33.03 -14.13,-22.01 -21.19,-54.32 -21.19,-96.88 0,-43.91 6.83,-76.46 20.54,-97.77 13.65,-21.25 34.55,-31.9 62.63,-31.9 27.37,0 48.14,11.12 62.33,33.32 14.19,22.19 21.3,54.33 21.3,96.36zm-137.84 -0.06c0,36.67 4.29,63.39 12.94,80.17 8.65,16.71 22.36,25.07 41.27,25.07 19.07,0 32.9,-8.47 41.5,-25.43 8.53,-17.01 12.82,-43.55 12.82,-79.81 0,-36.2 -4.29,-62.75 -12.82,-79.64 -8.6,-16.84 -22.42,-25.25 -41.5,-25.25 -18.9,0 -32.62,8.3 -41.27,24.95 -8.65,16.6 -12.94,43.27 -12.94,79.94zm339.79 0.06c0,43.61 -6.88,76.16 -20.59,97.65 -13.78,21.48 -34.79,32.26 -63.04,32.26 -27.2,0 -47.79,-11.01 -61.98,-33.03 -14.13,-22.01 -21.19,-54.32 -21.19,-96.88 0,-43.91 6.83,-76.46 20.54,-97.77 13.65,-21.25 34.55,-31.9 62.63,-31.9 27.37,0 48.14,11.12 62.33,33.32 14.19,22.19 21.3,54.33 21.3,96.36zm-137.84 -0.06c0,36.67 4.29,63.39 12.94,80.17 8.65,16.71 22.36,25.07 41.27,25.07 19.07,0 32.9,-8.47 41.5,-25.43 8.53,-17.01 12.82,-43.55 12.82,-79.81 0,-36.2 -4.29,-62.75 -12.82,-79.64 -8.6,-16.84 -22.42,-25.25 -41.5,-25.25 -18.9,0 -32.62,8.3 -41.27,24.95 -8.65,16.6 -12.94,43.27 -12.94,79.94z"/>
  <path class="fil3" d="M15461.48 1620.85l-27.9 0 0 -179.7c0,-14.96 0.47,-29.08 1.35,-42.38 -2.41,2.41 -5.13,4.95 -8.12,7.59 -2.94,2.65 -16.66,13.84 -41.02,33.67l-15.19 -19.71 66.74 -51.63 24.14 0 0 252.16zm261.69 0l-165.8 0 0 -24.67 66.45 -66.74c20.18,-20.48 33.55,-35.08 40.02,-43.85 6.42,-8.71 11.24,-17.25 14.48,-25.49 3.18,-8.3 4.83,-17.19 4.83,-26.78 0,-13.42 -4.11,-24.08 -12.24,-31.96 -8.18,-7.89 -19.54,-11.82 -34.02,-11.82 -10.48,0 -20.36,1.7 -29.72,5.18 -9.42,3.41 -19.84,9.71 -31.31,18.78l-15.19 -19.49c23.19,-19.24 48.5,-28.84 75.87,-28.84 23.72,0 42.26,6.07 55.74,18.19 13.47,12.12 20.18,28.43 20.18,48.91 0,15.95 -4.47,31.78 -13.47,47.44 -8.95,15.6 -25.73,35.38 -50.38,59.27l-55.21 54.03 0 1.35 129.78 0 0 26.49zm45.09 -18.31c0,-7.65 1.77,-13.47 5.25,-17.42 3.52,-3.94 8.53,-5.95 15.13,-5.95 6.65,0 11.82,2 15.6,5.95 3.7,3.94 5.59,9.77 5.59,17.42 0,7.48 -1.88,13.24 -5.65,17.25 -3.82,4 -9.01,6.01 -15.54,6.01 -5.89,0 -10.71,-1.82 -14.6,-5.42 -3.83,-3.59 -5.78,-9.54 -5.78,-17.84zm252.22 -108.06c0,43.61 -6.88,76.16 -20.59,97.65 -13.78,21.48 -34.79,32.26 -63.04,32.26 -27.2,0 -47.79,-11.01 -61.98,-33.03 -14.13,-22.01 -21.19,-54.32 -21.19,-96.88 0,-43.91 6.83,-76.46 20.54,-97.77 13.65,-21.25 34.55,-31.9 62.63,-31.9 27.37,0 48.14,11.12 62.33,33.32 14.19,22.19 21.3,54.33 21.3,96.36zm-137.84 -0.06c0,36.67 4.29,63.39 12.94,80.17 8.65,16.71 22.36,25.07 41.27,25.07 19.07,0 32.9,-8.47 41.5,-25.43 8.53,-17.01 12.82,-43.55 12.82,-79.81 0,-36.2 -4.29,-62.75 -12.82,-79.64 -8.6,-16.84 -22.42,-25.25 -41.5,-25.25 -18.9,0 -32.62,8.3 -41.27,24.95 -8.65,16.6 -12.94,43.27 -12.94,79.94zm339.79 0.06c0,43.61 -6.88,76.16 -20.59,97.65 -13.78,21.48 -34.79,32.26 -63.04,32.26 -27.2,0 -47.79,-11.01 -61.98,-33.03 -14.13,-22.01 -21.19,-54.32 -21.19,-96.88 0,-43.91 6.83,-76.46 20.54,-97.77 13.65,-21.25 34.55,-31.9 62.63,-31.9 27.37,0 48.14,11.12 62.33,33.32 14.19,22.19 21.3,54.33 21.3,96.36zm-137.84 -0.06c0,36.67 4.29,63.39 12.94,80.17 8.65,16.71 22.36,25.07 41.27,25.07 19.07,0 32.9,-8.47 41.5,-25.43 8.53,-17.01 12.82,-43.55 12.82,-79.81 0,-36.2 -4.29,-62.75 -12.82,-79.64 -8.6,-16.84 -22.42,-25.25 -41.5,-25.25 -18.9,0 -32.62,8.3 -41.27,24.95 -8.65,16.6 -12.94,43.27 -12.94,79.94z"/>
  <path class="fil3" d="M15461.48 273.28l-27.9 0 0 -179.7c0,-14.96 0.47,-29.08 1.35,-42.38 -2.41,2.41 -5.13,4.95 -8.12,7.59 -2.94,2.65 -16.66,13.84 -41.02,33.67l-15.19 -19.71 66.74 -51.63 24.14 0 0 252.16zm273.58 -57.91l-37.43 0 0 57.91 -27.43 0 0 -57.91 -122.66 0 0 -25.02 119.72 -170.64 30.37 0 0 169.51 37.43 0 0 26.14zm-64.86 -26.14l0 -83.81c0,-16.43 0.58,-35.03 1.7,-55.68l-1.35 0c-5.54,11 -10.71,20.18 -15.54,27.43l-78.88 112.06 94.06 0zm98.06 65.74c0,-7.65 1.77,-13.47 5.25,-17.42 3.52,-3.94 8.53,-5.95 15.13,-5.95 6.65,0 11.82,2 15.6,5.95 3.7,3.94 5.59,9.77 5.59,17.42 0,7.48 -1.88,13.24 -5.65,17.25 -3.82,4 -9.01,6.01 -15.54,6.01 -5.89,0 -10.71,-1.82 -14.6,-5.42 -3.83,-3.59 -5.78,-9.54 -5.78,-17.84zm252.22 -108.06c0,43.61 -6.88,76.16 -20.59,97.65 -13.78,21.48 -34.79,32.26 -63.04,32.26 -27.2,0 -47.79,-11.01 -61.98,-33.03 -14.13,-22.01 -21.19,-54.32 -21.19,-96.88 0,-43.91 6.83,-76.46 20.54,-97.77 13.65,-21.25 34.55,-31.9 62.63,-31.9 27.37,0 48.14,11.12 62.33,33.32 14.19,22.19 21.3,54.33 21.3,96.36zm-137.84 -0.06c0,36.67 4.29,63.39 12.94,80.17 8.65,16.71 22.36,25.07 41.27,25.07 19.07,0 32.9,-8.47 41.5,-25.43 8.53,-17.01 12.82,-43.55 12.82,-79.81 0,-36.2 -4.29,-62.75 -12.82,-79.64 -8.6,-16.84 -22.42,-25.25 -41.5,-25.25 -18.9,0 -32.62,8.3 -41.27,24.95 -8.65,16.6 -12.94,43.27 -12.94,79.94zm339.79 0.06c0,43.61 -6.88,76.16 -20.59,97.65 -13.78,21.48 -34.79,32.26 -63.04,32.26 -27.2,0 -47.79,-11.01 -61.98,-33.03 -14.13,-22.01 -21.19,-54.32 -21.19,-96.88 0,-43.91 6.83,-76.46 20.54,-97.77 13.65,-21.25 34.55,-31.9 62.63,-31.9 27.37,0 48.14,11.12 62.33,33.32 14.19,22.19 21.3,54.33 21.3,96.36zm-137.84 -0.06c0,36.67 4.29,63.39 12.94,80.17 8.65,16.71 22.36,25.07 41.27,25.07 19.07,0 32.9,-8.47 41.5,-25.43 8.53,-17.01 12.82,-43.55 12.82,-79.81 0,-36.2 -4.29,-62.75 -12.82,-79.64 -8.6,-16.84 -22.42,-25.25 -41.5,-25.25 -18.9,0 -32.62,8.3 -41.27,24.95 -8.65,16.6 -12.94,43.27 -12.94,79.94z"/>
  <path class="fil4" d="M1137.81 9563.01c0,43.61 -6.88,76.16 -20.59,97.65 -13.78,21.48 -34.79,32.26 -63.04,32.26 -27.2,0 -47.79,-11.01 -61.98,-33.03 -14.13,-22.01 -21.19,-54.32 -21.19,-96.88 0,-43.91 6.83,-76.46 20.54,-97.77 13.65,-21.25 34.55,-31.9 62.63,-31.9 27.37,0 48.14,11.12 62.33,33.32 14.19,22.19 21.3,54.33 21.3,96.36zm-137.84 -0.06c0,36.67 4.29,63.39 12.94,80.17 8.65,16.71 22.36,25.07 41.27,25.07 19.07,0 32.9,-8.47 41.5,-25.43 8.53,-17.01 12.82,-43.55 12.82,-79.81 0,-36.2 -4.29,-62.75 -12.82,-79.64 -8.6,-16.84 -22.42,-25.25 -41.5,-25.25 -18.9,0 -32.62,8.3 -41.27,24.95 -8.65,16.6 -12.94,43.27 -12.94,79.94z"/>
  <path class="fil4" d="M686.86 8748.62l-27.9 0 0 -179.7c0,-14.96 0.47,-29.08 1.35,-42.38 -2.41,2.41 -5.13,4.95 -8.12,7.59 -2.94,2.65 -16.66,13.84 -41.02,33.67l-15.19 -19.71 66.74 -51.63 24.14 0 0 252.16zm263.04 -126.37c0,43.61 -6.88,76.16 -20.59,97.65 -13.78,21.48 -34.79,32.26 -63.04,32.26 -27.2,0 -47.79,-11.01 -61.98,-33.03 -14.13,-22.01 -21.19,-54.32 -21.19,-96.88 0,-43.91 6.83,-76.46 20.54,-97.77 13.65,-21.25 34.55,-31.9 62.63,-31.9 27.37,0 48.14,11.12 62.33,33.32 14.19,22.19 21.3,54.33 21.3,96.36zm-137.84 -0.06c0,36.67 4.29,63.39 12.94,80.17 8.65,16.71 22.36,25.07 41.27,25.07 19.07,0 32.9,-8.47 41.5,-25.43 8.53,-17.01 12.82,-43.55 12.82,-79.81 0,-36.2 -4.29,-62.75 -12.82,-79.64 -8.6,-16.84 -22.42,-25.25 -41.5,-25.25 -18.9,0 -32.62,8.3 -41.27,24.95 -8.65,16.6 -12.94,43.27 -12.94,79.94zm339.79 0.06c0,43.61 -6.88,76.16 -20.59,97.65 -13.78,21.48 -34.79,32.26 -63.04,32.26 -27.2,0 -47.79,-11.01 -61.98,-33.03 -14.13,-22.01 -21.19,-54.32 -21.19,-96.88 0,-43.91 6.83,-76.46 20.54,-97.77 13.65,-21.25 34.55,-31.9 62.63,-31.9 27.37,0 48.14,11.12 62.33,33.32 14.19,22.19 21.3,54.33 21.3,96.36zm-137.84 -0.06c0,36.67 4.29,63.39 12.94,80.17 8.65,16.71 22.36,25.07 41.27,25.07 19.07,0 32.9,-8.47 41.5,-25.43 8.53,-17.01 12.82,-43.55 12.82,-79.81 0,-36.2 -4.29,-62.75 -12.82,-79.64 -8.6,-16.84 -22.42,-25.25 -41.5,-25.25 -18.9,0 -32.62,8.3 -41.27,24.95 -8.65,16.6 -12.94,43.27 -12.94,79.94z"/>
  <path class="fil4" d="M746.59 7807.86l-165.8 0 0 -24.67 66.45 -66.74c20.18,-20.48 33.55,-35.08 40.02,-43.85 6.42,-8.71 11.24,-17.25 14.48,-25.49 3.18,-8.3 4.83,-17.19 4.83,-26.78 0,-13.42 -4.11,-24.08 -12.24,-31.96 -8.18,-7.89 -19.54,-11.82 -34.02,-11.82 -10.48,0 -20.36,1.7 -29.72,5.18 -9.42,3.41 -19.84,9.71 -31.31,18.78l-15.19 -19.49c23.19,-19.24 48.5,-28.84 75.87,-28.84 23.72,0 42.26,6.07 55.74,18.19 13.47,12.12 20.18,28.43 20.18,48.91 0,15.95 -4.47,31.78 -13.47,47.44 -8.95,15.6 -25.73,35.38 -50.38,59.27l-55.21 54.03 0 1.35 129.78 0 0 26.49zm203.3 -126.37c0,43.61 -6.88,76.16 -20.59,97.65 -13.78,21.48 -34.79,32.26 -63.04,32.26 -27.2,0 -47.79,-11.01 -61.98,-33.03 -14.13,-22.01 -21.19,-54.32 -21.19,-96.88 0,-43.91 6.83,-76.46 20.54,-97.77 13.65,-21.25 34.55,-31.9 62.63,-31.9 27.37,0 48.14,11.12 62.33,33.32 14.19,22.19 21.3,54.33 21.3,96.36zm-137.84 -0.06c0,36.67 4.29,63.39 12.94,80.17 8.65,16.71 22.36,25.07 41.27,25.07 19.07,0 32.9,-8.47 41.5,-25.43 8.53,-17.01 12.82,-43.55 12.82,-79.81 0,-36.2 -4.29,-62.75 -12.82,-79.64 -8.6,-16.84 -22.42,-25.25 -41.5,-25.25 -18.9,0 -32.62,8.3 -41.27,24.95 -8.65,16.6 -12.94,43.27 -12.94,79.94zm339.79 0.06c0,43.61 -6.88,76.16 -20.59,97.65 -13.78,21.48 -34.79,32.26 -63.04,32.26 -27.2,0 -47.79,-11.01 -61.98,-33.03 -14.13,-22.01 -21.19,-54.32 -21.19,-96.88 0,-43.91 6.83,-76.46 20.54,-97.77 13.65,-21.25 34.55,-31.9 62.63,-31.9 27.37,0 48.14,11.12 62.33,33.32 14.19,22.19 21.3,54.33 21.3,96.36zm-137.84 -0.06c0,36.67 4.29,63.39 12.94,80.17 8.65,16.71 22.36,25.07 41.27,25.07 19.07,0 32.9,-8.47 41.5,-25.43 8.53,-17.01 12.82,-43.55 12.82,-79.81 0,-36.2 -4.29,-62.75 -12.82,-79.64 -8.6,-16.84 -22.42,-25.25 -41.5,-25.25 -18.9,0 -32.62,8.3 -41.27,24.95 -8.65,16.6 -12.94,43.27 -12.94,79.94z"/>
  <path class="fil4" d="M737.06 6670.1c0,16.07 -4.47,29.19 -13.54,39.43 -9,10.24 -21.77,17.07 -38.37,20.48l0 1.41c20.25,2.53 35.26,8.95 45.03,19.31 9.77,10.35 14.66,23.96 14.66,40.72 0,24.08 -8.3,42.56 -25.02,55.51 -16.66,12.94 -40.31,19.42 -71.04,19.42 -13.36,0 -25.55,-1 -36.67,-3 -11.07,-2.06 -21.9,-5.6 -32.32,-10.65l0 -27.25c10.88,5.36 22.54,9.47 34.9,12.29 12.36,2.83 24.08,4.24 35.14,4.24 43.56,0 65.34,-17.07 65.34,-51.22 0,-30.6 -24.02,-45.91 -72.11,-45.91l-24.84 0 0 -24.72 25.19 0c19.66,0 35.26,-4.35 46.74,-13 11.53,-8.71 17.3,-20.72 17.3,-36.14 0,-12.3 -4.23,-21.95 -12.71,-28.96 -8.47,-7.01 -19.89,-10.53 -34.43,-10.53 -11.01,0 -21.42,1.47 -31.19,4.46 -9.77,3 -20.95,8.54 -33.5,16.55l-14.48 -19.31c10.36,-8.12 22.3,-14.48 35.79,-19.13 13.53,-4.65 27.72,-6.95 42.67,-6.95 24.55,0 43.56,5.6 57.15,16.78 13.54,11.24 20.31,26.61 20.31,46.15zm212.83 66.39c0,43.61 -6.88,76.16 -20.59,97.65 -13.78,21.48 -34.79,32.26 -63.04,32.26 -27.2,0 -47.79,-11.01 -61.98,-33.03 -14.13,-22.01 -21.19,-54.32 -21.19,-96.88 0,-43.91 6.83,-76.46 20.54,-97.77 13.65,-21.25 34.55,-31.9 62.63,-31.9 27.37,0 48.14,11.12 62.33,33.32 14.19,22.19 21.3,54.33 21.3,96.36zm-137.84 -0.06c0,36.67 4.29,63.39 12.94,80.17 8.65,16.71 22.36,25.07 41.27,25.07 19.07,0 32.9,-8.47 41.5,-25.43 8.53,-17.01 12.82,-43.55 12.82,-79.81 0,-36.2 -4.29,-62.75 -12.82,-79.64 -8.6,-16.84 -22.42,-25.25 -41.5,-25.25 -18.9,0 -32.62,8.3 -41.27,24.95 -8.65,16.6 -12.94,43.27 -12.94,79.94zm339.79 0.06c0,43.61 -6.88,76.16 -20.59,97.65 -13.78,21.48 -34.79,32.26 -63.04,32.26 -27.2,0 -47.79,-11.01 -61.98,-33.03 -14.13,-22.01 -21.19,-54.32 -21.19,-96.88 0,-43.91 6.83,-76.46 20.54,-97.77 13.65,-21.25 34.55,-31.9 62.63,-31.9 27.37,0 48.14,11.12 62.33,33.32 14.19,22.19 21.3,54.33 21.3,96.36zm-137.84 -0.06c0,36.67 4.29,63.39 12.94,80.17 8.65,16.71 22.36,25.07 41.27,25.07 19.07,0 32.9,-8.47 41.5,-25.43 8.53,-17.01 12.82,-43.55 12.82,-79.81 0,-36.2 -4.29,-62.75 -12.82,-79.64 -8.6,-16.84 -22.42,-25.25 -41.5,-25.25 -18.9,0 -32.62,8.3 -41.27,24.95 -8.65,16.6 -12.94,43.27 -12.94,79.94z"/>
  <path class="fil4" d="M758.49 5864.18l-37.43 0 0 57.91 -27.43 0 0 -57.91 -122.66 0 0 -25.02 119.72 -170.64 30.37 0 0 169.51 37.43 0 0 26.14zm-64.86 -26.14l0 -83.81c0,-16.43 0.58,-35.03 1.7,-55.68l-1.35 0c-5.54,11 -10.71,20.18 -15.54,27.43l-78.88 112.06 94.06 0zm256.27 -42.32c0,43.61 -6.88,76.16 -20.59,97.65 -13.78,21.48 -34.79,32.26 -63.04,32.26 -27.2,0 -47.79,-11.01 -61.98,-33.03 -14.13,-22.01 -21.19,-54.32 -21.19,-96.88 0,-43.91 6.83,-76.46 20.54,-97.77 13.65,-21.25 34.55,-31.9 62.63,-31.9 27.37,0 48.14,11.12 62.33,33.32 14.19,22.19 21.3,54.33 21.3,96.36zm-137.84 -0.06c0,36.67 4.29,63.39 12.94,80.17 8.65,16.71 22.36,25.07 41.27,25.07 19.07,0 32.9,-8.47 41.5,-25.43 8.53,-17.01 12.82,-43.55 12.82,-79.81 0,-36.2 -4.29,-62.75 -12.82,-79.64 -8.6,-16.84 -22.42,-25.25 -41.5,-25.25 -18.9,0 -32.62,8.3 -41.27,24.95 -8.65,16.6 -12.94,43.27 -12.94,79.94zm339.79 0.06c0,43.61 -6.88,76.16 -20.59,97.65 -13.78,21.48 -34.79,32.26 -63.04,32.26 -27.2,0 -47.79,-11.01 -61.98,-33.03 -14.13,-22.01 -21.19,-54.32 -21.19,-96.88 0,-43.91 6.83,-76.46 20.54,-97.77 13.65,-21.25 34.55,-31.9 62.63,-31.9 27.37,0 48.14,11.12 62.33,33.32 14.19,22.19 21.3,54.33 21.3,96.36zm-137.84 -0.06c0,36.67 4.29,63.39 12.94,80.17 8.65,16.71 22.36,25.07 41.27,25.07 19.07,0 32.9,-8.47 41.5,-25.43 8.53,-17.01 12.82,-43.55 12.82,-79.81 0,-36.2 -4.29,-62.75 -12.82,-79.64 -8.6,-16.84 -22.42,-25.25 -41.5,-25.25 -18.9,0 -32.62,8.3 -41.27,24.95 -8.65,16.6 -12.94,43.27 -12.94,79.94z"/>
  <path class="fil4" d="M659.6 4827.35c26.61,0 47.5,6.6 62.75,19.78 15.25,13.12 22.83,31.19 22.83,54.03 0,26.14 -8.3,46.62 -24.9,61.45 -16.66,14.84 -39.55,22.25 -68.75,22.25 -28.43,0 -50.09,-4.53 -65.04,-13.65l0 -27.61c8.06,5.19 18.07,9.18 30.02,12.12 11.94,2.94 23.72,4.41 35.37,4.41 20.25,0 35.97,-4.77 47.15,-14.3 11.24,-9.54 16.83,-23.32 16.83,-41.39 0,-35.14 -21.54,-52.74 -64.68,-52.74 -10.95,0 -25.55,1.65 -43.86,5.01l-14.83 -9.48 9.53 -118.07 125.38 0 0 26.49 -100.89 0 -6.42 75.63c13.24,-2.64 26.43,-3.94 39.49,-3.94zm290.3 27.61c0,43.61 -6.88,76.16 -20.59,97.65 -13.78,21.48 -34.79,32.26 -63.04,32.26 -27.2,0 -47.79,-11.01 -61.98,-33.03 -14.13,-22.01 -21.19,-54.32 -21.19,-96.88 0,-43.91 6.83,-76.46 20.54,-97.77 13.65,-21.25 34.55,-31.9 62.63,-31.9 27.37,0 48.14,11.12 62.33,33.32 14.19,22.19 21.3,54.33 21.3,96.36zm-137.84 -0.06c0,36.67 4.29,63.39 12.94,80.17 8.65,16.71 22.36,25.07 41.27,25.07 19.07,0 32.9,-8.47 41.5,-25.43 8.53,-17.01 12.82,-43.55 12.82,-79.81 0,-36.2 -4.29,-62.75 -12.82,-79.64 -8.6,-16.84 -22.42,-25.25 -41.5,-25.25 -18.9,0 -32.62,8.3 -41.27,24.95 -8.65,16.6 -12.94,43.27 -12.94,79.94zm339.79 0.06c0,43.61 -6.88,76.16 -20.59,97.65 -13.78,21.48 -34.79,32.26 -63.04,32.26 -27.2,0 -47.79,-11.01 -61.98,-33.03 -14.13,-22.01 -21.19,-54.32 -21.19,-96.88 0,-43.91 6.83,-76.46 20.54,-97.77 13.65,-21.25 34.55,-31.9 62.63,-31.9 27.37,0 48.14,11.12 62.33,33.32 14.19,22.19 21.3,54.33 21.3,96.36zm-137.84 -0.06c0,36.67 4.29,63.39 12.94,80.17 8.65,16.71 22.36,25.07 41.27,25.07 19.07,0 32.9,-8.47 41.5,-25.43 8.53,-17.01 12.82,-43.55 12.82,-79.81 0,-36.2 -4.29,-62.75 -12.82,-79.64 -8.6,-16.84 -22.42,-25.25 -41.5,-25.25 -18.9,0 -32.62,8.3 -41.27,24.95 -8.65,16.6 -12.94,43.27 -12.94,79.94z"/>
  <path class="fil4" d="M583.74 3932.86c0,-49.56 9.65,-86.58 28.9,-111.13 19.24,-24.55 47.73,-36.85 85.46,-36.85 13,0 23.25,1.12 30.72,3.3l0 24.66c-8.89,-2.88 -19.01,-4.29 -30.37,-4.29 -27.02,0 -47.68,8.42 -61.92,25.25 -14.31,16.84 -22.13,43.27 -23.49,79.29l2.05 0c12.66,-19.78 32.68,-29.66 60.05,-29.66 22.65,0 40.49,6.83 53.56,20.54 13.06,13.71 19.6,32.26 19.6,55.74 0,26.25 -7.19,46.85 -21.48,61.86 -14.31,15.01 -33.67,22.54 -58.03,22.54 -26.14,0 -46.8,-9.83 -62.1,-29.43 -15.31,-19.6 -22.96,-46.85 -22.96,-81.81zm84.69 86.87c16.37,0 29.02,-5.13 38.02,-15.43 9.07,-10.3 13.54,-25.19 13.54,-44.61 0,-16.72 -4.18,-29.78 -12.6,-39.38 -8.35,-9.53 -20.89,-14.31 -37.61,-14.31 -10.29,0 -19.83,2.12 -28.42,6.36 -8.66,4.3 -15.54,10.13 -20.66,17.6 -5.07,7.54 -7.65,15.25 -7.65,23.32 0,11.88 2.29,22.89 6.89,33.14 4.59,10.24 11.12,18.36 19.59,24.37 8.48,5.95 18.07,8.95 28.9,8.95zm281.47 -105.54c0,43.61 -6.88,76.16 -20.59,97.65 -13.78,21.48 -34.79,32.26 -63.04,32.26 -27.2,0 -47.79,-11.01 -61.98,-33.03 -14.13,-22.01 -21.19,-54.32 -21.19,-96.88 0,-43.91 6.83,-76.46 20.54,-97.77 13.65,-21.25 34.55,-31.9 62.63,-31.9 27.37,0 48.14,11.12 62.33,33.32 14.19,22.19 21.3,54.33 21.3,96.36zm-137.84 -0.06c0,36.67 4.29,63.39 12.94,80.17 8.65,16.71 22.36,25.07 41.27,25.07 19.07,0 32.9,-8.47 41.5,-25.43 8.53,-17.01 12.82,-43.55 12.82,-79.81 0,-36.2 -4.29,-62.75 -12.82,-79.64 -8.6,-16.84 -22.42,-25.25 -41.5,-25.25 -18.9,0 -32.62,8.3 -41.27,24.95 -8.65,16.6 -12.94,43.27 -12.94,79.94zm339.79 0.06c0,43.61 -6.88,76.16 -20.59,97.65 -13.78,21.48 -34.79,32.26 -63.04,32.26 -27.2,0 -47.79,-11.01 -61.98,-33.03 -14.13,-22.01 -21.19,-54.32 -21.19,-96.88 0,-43.91 6.83,-76.46 20.54,-97.77 13.65,-21.25 34.55,-31.9 62.63,-31.9 27.37,0 48.14,11.12 62.33,33.32 14.19,22.19 21.3,54.33 21.3,96.36zm-137.84 -0.06c0,36.67 4.29,63.39 12.94,80.17 8.65,16.71 22.36,25.07 41.27,25.07 19.07,0 32.9,-8.47 41.5,-25.43 8.53,-17.01 12.82,-43.55 12.82,-79.81 0,-36.2 -4.29,-62.75 -12.82,-79.64 -8.6,-16.84 -22.42,-25.25 -41.5,-25.25 -18.9,0 -32.62,8.3 -41.27,24.95 -8.65,16.6 -12.94,43.27 -12.94,79.94z"/>
  <path class="fil4" d="M612.69 3099.8l104.59 -225.67 -137.49 0 0 -26.49 167.8 0 0 22.96 -103.12 229.2 -31.78 0zm337.21 -126.37c0,43.61 -6.88,76.16 -20.59,97.65 -13.78,21.48 -34.79,32.26 -63.04,32.26 -27.2,0 -47.79,-11.01 -61.98,-33.03 -14.13,-22.01 -21.19,-54.32 -21.19,-96.88 0,-43.91 6.83,-76.46 20.54,-97.77 13.65,-21.25 34.55,-31.9 62.63,-31.9 27.37,0 48.14,11.12 62.33,33.32 14.19,22.19 21.3,54.33 21.3,96.36zm-137.84 -0.06c0,36.67 4.29,63.39 12.94,80.17 8.65,16.71 22.36,25.07 41.27,25.07 19.07,0 32.9,-8.47 41.5,-25.43 8.53,-17.01 12.82,-43.55 12.82,-79.81 0,-36.2 -4.29,-62.75 -12.82,-79.64 -8.6,-16.84 -22.42,-25.25 -41.5,-25.25 -18.9,0 -32.62,8.3 -41.27,24.95 -8.65,16.6 -12.94,43.27 -12.94,79.94zm339.79 0.06c0,43.61 -6.88,76.16 -20.59,97.65 -13.78,21.48 -34.79,32.26 -63.04,32.26 -27.2,0 -47.79,-11.01 -61.98,-33.03 -14.13,-22.01 -21.19,-54.32 -21.19,-96.88 0,-43.91 6.83,-76.46 20.54,-97.77 13.65,-21.25 34.55,-31.9 62.63,-31.9 27.37,0 48.14,11.12 62.33,33.32 14.19,22.19 21.3,54.33 21.3,96.36zm-137.84 -0.06c0,36.67 4.29,63.39 12.94,80.17 8.65,16.71 22.36,25.07 41.27,25.07 19.07,0 32.9,-8.47 41.5,-25.43 8.53,-17.01 12.82,-43.55 12.82,-79.81 0,-36.2 -4.29,-62.75 -12.82,-79.64 -8.6,-16.84 -22.42,-25.25 -41.5,-25.25 -18.9,0 -32.62,8.3 -41.27,24.95 -8.65,16.6 -12.94,43.27 -12.94,79.94z"/>
  <path class="fil4" d="M664.31 1903.35c22.96,0 41.19,5.36 54.68,16.02 13.41,10.71 20.18,25.49 20.18,44.32 0,12.42 -3.88,23.72 -11.59,33.96 -7.71,10.24 -20.01,19.54 -36.9,27.96 20.48,9.77 35.02,20.01 43.67,30.78 8.6,10.77 12.89,23.2 12.89,37.32 0,20.95 -7.3,37.67 -21.89,50.14 -14.6,12.48 -34.61,18.72 -60.04,18.72 -26.9,0 -47.62,-5.89 -62.1,-17.66 -14.49,-11.83 -21.72,-28.55 -21.72,-50.14 0,-28.9 17.6,-51.39 52.8,-67.45 -15.89,-9.01 -27.25,-18.66 -34.2,-29.08 -6.89,-10.36 -10.3,-22.01 -10.3,-34.9 0,-18.25 6.72,-32.85 20.25,-43.68 13.47,-10.89 31.6,-16.31 54.27,-16.31zm-54.57 192.06c0,13.84 4.84,24.55 14.43,32.26 9.59,7.71 23.08,11.59 40.43,11.59 17.19,0 30.49,-3.99 40.08,-12.06 9.54,-8.06 14.31,-19.13 14.31,-33.14 0,-11.18 -4.47,-21.13 -13.48,-29.78 -8.94,-8.71 -24.6,-17.13 -46.91,-25.31 -17.13,7.36 -29.54,15.48 -37.25,24.43 -7.72,8.94 -11.6,19.6 -11.6,32.01zm54.21 -168.74c-14.42,0 -25.66,3.47 -33.84,10.36 -8.19,6.88 -12.24,16.07 -12.24,27.54 0,10.59 3.41,19.66 10.18,27.25 6.77,7.6 19.3,15.19 37.61,22.78 16.48,-6.89 28.07,-14.31 34.96,-22.25 6.83,-7.94 10.24,-17.19 10.24,-27.78 0,-11.59 -4.17,-20.83 -12.47,-27.66 -8.36,-6.83 -19.83,-10.24 -34.44,-10.24zm285.94 106.01c0,43.61 -6.88,76.16 -20.59,97.65 -13.78,21.48 -34.79,32.26 -63.04,32.26 -27.2,0 -47.79,-11.01 -61.98,-33.03 -14.13,-22.01 -21.19,-54.32 -21.19,-96.88 0,-43.91 6.83,-76.46 20.54,-97.77 13.65,-21.25 34.55,-31.9 62.63,-31.9 27.37,0 48.14,11.12 62.33,33.32 14.19,22.19 21.3,54.33 21.3,96.36zm-137.84 -0.06c0,36.67 4.29,63.39 12.94,80.17 8.65,16.71 22.36,25.07 41.27,25.07 19.07,0 32.9,-8.47 41.5,-25.43 8.53,-17.01 12.82,-43.55 12.82,-79.81 0,-36.2 -4.29,-62.75 -12.82,-79.64 -8.6,-16.84 -22.42,-25.25 -41.5,-25.25 -18.9,0 -32.62,8.3 -41.27,24.95 -8.65,16.6 -12.94,43.27 -12.94,79.94zm339.79 0.06c0,43.61 -6.88,76.16 -20.59,97.65 -13.78,21.48 -34.79,32.26 -63.04,32.26 -27.2,0 -47.79,-11.01 -61.98,-33.03 -14.13,-22.01 -21.19,-54.32 -21.19,-96.88 0,-43.91 6.83,-76.46 20.54,-97.77 13.65,-21.25 34.55,-31.9 62.63,-31.9 27.37,0 48.14,11.12 62.33,33.32 14.19,22.19 21.3,54.33 21.3,96.36zm-137.84 -0.06c0,36.67 4.29,63.39 12.94,80.17 8.65,16.71 22.36,25.07 41.27,25.07 19.07,0 32.9,-8.47 41.5,-25.43 8.53,-17.01 12.82,-43.55 12.82,-79.81 0,-36.2 -4.29,-62.75 -12.82,-79.64 -8.6,-16.84 -22.42,-25.25 -41.5,-25.25 -18.9,0 -32.62,8.3 -41.27,24.95 -8.65,16.6 -12.94,43.27 -12.94,79.94z"/>
  <path class="fil4" d="M746.59 1069.6c0,98.65 -38.2,147.97 -114.53,147.97 -13.36,0 -23.96,-1.18 -31.78,-3.47l0 -24.67c9.24,3 19.66,4.47 31.42,4.47 27.61,0 48.44,-8.53 62.51,-25.6 14.14,-17.07 21.78,-43.27 23.08,-78.59l-2.11 0c-6.31,9.54 -14.72,16.84 -25.2,21.84 -10.42,5.01 -22.24,7.47 -35.32,7.47 -22.3,0 -40.02,-6.65 -53.15,-20.01 -13.12,-13.29 -19.65,-31.95 -19.65,-55.85 0,-26.2 7.3,-46.91 21.95,-62.04 14.71,-15.19 33.96,-22.78 57.91,-22.78 17.13,0 32.07,4.41 44.91,13.18 12.83,8.83 22.72,21.6 29.6,38.5 6.89,16.83 10.36,36.67 10.36,59.56zm-84.87 -86.87c-16.48,0 -29.19,5.3 -38.14,15.89 -9,10.59 -13.47,25.31 -13.47,44.15 0,16.6 4.17,29.6 12.41,39.08 8.3,9.47 20.89,14.24 37.79,14.24 10.47,0 20.13,-2.11 28.9,-6.36 8.83,-4.29 15.72,-10.06 20.77,-17.48 5.07,-7.36 7.6,-15.07 7.6,-23.07 0,-12.13 -2.36,-23.26 -7.07,-33.5 -4.71,-10.24 -11.3,-18.3 -19.72,-24.19 -8.47,-5.83 -18.18,-8.77 -29.07,-8.77zm288.17 104.94c0,43.61 -6.88,76.16 -20.59,97.65 -13.78,21.48 -34.79,32.26 -63.04,32.26 -27.2,0 -47.79,-11.01 -61.98,-33.03 -14.13,-22.01 -21.19,-54.32 -21.19,-96.88 0,-43.91 6.83,-76.46 20.54,-97.77 13.65,-21.25 34.55,-31.9 62.63,-31.9 27.37,0 48.14,11.12 62.33,33.32 14.19,22.19 21.3,54.33 21.3,96.36zm-137.84 -0.06c0,36.67 4.29,63.39 12.94,80.17 8.65,16.71 22.36,25.07 41.27,25.07 19.07,0 32.9,-8.47 41.5,-25.43 8.53,-17.01 12.82,-43.55 12.82,-79.81 0,-36.2 -4.29,-62.75 -12.82,-79.64 -8.6,-16.84 -22.42,-25.25 -41.5,-25.25 -18.9,0 -32.62,8.3 -41.27,24.95 -8.65,16.6 -12.94,43.27 -12.94,79.94zm339.79 0.06c0,43.61 -6.88,76.16 -20.59,97.65 -13.78,21.48 -34.79,32.26 -63.04,32.26 -27.2,0 -47.79,-11.01 -61.98,-33.03 -14.13,-22.01 -21.19,-54.32 -21.19,-96.88 0,-43.91 6.83,-76.46 20.54,-97.77 13.65,-21.25 34.55,-31.9 62.63,-31.9 27.37,0 48.14,11.12 62.33,33.32 14.19,22.19 21.3,54.33 21.3,96.36zm-137.84 -0.06c0,36.67 4.29,63.39 12.94,80.17 8.65,16.71 22.36,25.07 41.27,25.07 19.07,0 32.9,-8.47 41.5,-25.43 8.53,-17.01 12.82,-43.55 12.82,-79.81 0,-36.2 -4.29,-62.75 -12.82,-79.64 -8.6,-16.84 -22.42,-25.25 -41.5,-25.25 -18.9,0 -32.62,8.3 -41.27,24.95 -8.65,16.6 -12.94,43.27 -12.94,79.94z"/>
  <path class="fil4" d="M487.68 273.28l-27.9 0 0 -179.7c0,-14.96 0.47,-29.08 1.35,-42.38 -2.41,2.41 -5.13,4.95 -8.12,7.59 -2.94,2.65 -16.66,13.84 -41.02,33.67l-15.19 -19.71 66.74 -51.63 24.14 0 0 252.16zm263.04 -126.37c0,43.61 -6.88,76.16 -20.59,97.65 -13.78,21.48 -34.79,32.26 -63.04,32.26 -27.2,0 -47.79,-11.01 -61.98,-33.03 -14.13,-22.01 -21.19,-54.32 -21.19,-96.88 0,-43.91 6.83,-76.46 20.54,-97.77 13.65,-21.25 34.55,-31.9 62.63,-31.9 27.37,0 48.14,11.12 62.33,33.32 14.19,22.19 21.3,54.33 21.3,96.36zm-137.84 -0.06c0,36.67 4.29,63.39 12.94,80.17 8.65,16.71 22.36,25.07 41.27,25.07 19.07,0 32.9,-8.47 41.5,-25.43 8.53,-17.01 12.82,-43.55 12.82,-79.81 0,-36.2 -4.29,-62.75 -12.82,-79.64 -8.6,-16.84 -22.42,-25.25 -41.5,-25.25 -18.9,0 -32.62,8.3 -41.27,24.95 -8.65,16.6 -12.94,43.27 -12.94,79.94zm339.79 0.06c0,43.61 -6.88,76.16 -20.59,97.65 -13.78,21.48 -34.79,32.26 -63.04,32.26 -27.2,0 -47.79,-11.01 -61.98,-33.03 -14.13,-22.01 -21.19,-54.32 -21.19,-96.88 0,-43.91 6.83,-76.46 20.54,-97.77 13.65,-21.25 34.55,-31.9 62.63,-31.9 27.37,0 48.14,11.12 62.33,33.32 14.19,22.19 21.3,54.33 21.3,96.36zm-137.84 -0.06c0,36.67 4.29,63.39 12.94,80.17 8.65,16.71 22.36,25.07 41.27,25.07 19.07,0 32.9,-8.47 41.5,-25.43 8.53,-17.01 12.82,-43.55 12.82,-79.81 0,-36.2 -4.29,-62.75 -12.82,-79.64 -8.6,-16.84 -22.42,-25.25 -41.5,-25.25 -18.9,0 -32.62,8.3 -41.27,24.95 -8.65,16.6 -12.94,43.27 -12.94,79.94zm339.79 0.06c0,43.61 -6.88,76.16 -20.59,97.65 -13.78,21.48 -34.79,32.26 -63.04,32.26 -27.2,0 -47.79,-11.01 -61.98,-33.03 -14.13,-22.01 -21.19,-54.32 -21.19,-96.88 0,-43.91 6.83,-76.46 20.54,-97.77 13.65,-21.25 34.55,-31.9 62.63,-31.9 27.37,0 48.14,11.12 62.33,33.32 14.19,22.19 21.3,54.33 21.3,96.36zm-137.84 -0.06c0,36.67 4.29,63.39 12.94,80.17 8.65,16.71 22.36,25.07 41.27,25.07 19.07,0 32.9,-8.47 41.5,-25.43 8.53,-17.01 12.82,-43.55 12.82,-79.81 0,-36.2 -4.29,-62.75 -12.82,-79.64 -8.6,-16.84 -22.42,-25.25 -41.5,-25.25 -18.9,0 -32.62,8.3 -41.27,24.95 -8.65,16.6 -12.94,43.27 -12.94,79.94z"/>
  <path class="fil4" d="M7773.16 11621.74l-156.88 0 0 -277.37 156.88 0 0 38.46 -111.49 0 0 75.36 104.43 0 0 38.07 -104.43 0 0 87.01 111.49 0 0 38.46zm126 3.88c-26.16,0 -46.62,-9.52 -61.25,-28.49 -14.7,-18.97 -22.01,-45.58 -22.01,-79.9 0,-34.44 7.45,-61.25 22.27,-80.41 14.83,-19.17 35.41,-28.75 61.7,-28.75 27.58,0 48.56,10.17 63,30.56l2.26 0c-2.13,-15.03 -3.23,-26.94 -3.23,-35.68l0 -76.46 44.81 0 0 295.24 -34.9 0 -7.78 -27.45 -2.13 0c-14.25,20.91 -35.16,31.33 -62.74,31.33zm11.91 -36.13c18.39,0 31.72,-5.18 40.01,-15.48 8.35,-10.29 12.69,-26.99 12.94,-50.17l0 -6.22c0,-26.41 -4.33,-45.19 -12.94,-56.32 -8.55,-11.14 -22.01,-16.71 -40.33,-16.71 -15.74,0 -27.78,6.35 -36.26,19.03 -8.48,12.75 -12.69,30.82 -12.69,54.39 0,23.25 4.08,40.98 12.3,53.16 8.22,12.23 20.52,18.32 36.97,18.32zm290.59 32.25l-8.94 -29.13 -1.49 0c-10.1,12.75 -20.26,21.49 -30.55,26.09 -10.23,4.6 -23.38,6.93 -39.43,6.93 -20.59,0 -36.71,-5.57 -48.23,-16.71 -11.59,-11.13 -17.36,-26.87 -17.36,-47.26 0,-21.62 8.03,-37.94 24.09,-48.94 16.06,-11.01 40.53,-17.03 73.36,-18l36.26 -1.17 0 -11.2c0,-13.39 -3.17,-23.44 -9.39,-30.1 -6.28,-6.67 -15.99,-9.97 -29.13,-9.97 -10.75,0 -21.04,1.55 -30.88,4.73 -9.91,3.17 -19.36,6.93 -28.49,11.2l-14.38 -31.85c11.33,-5.96 23.83,-10.49 37.36,-13.59 13.53,-3.11 26.29,-4.67 38.26,-4.67 26.74,0 46.88,5.83 60.41,17.48 13.6,11.59 20.4,29.91 20.4,54.84l0 141.34 -31.85 0zm-66.37 -30.3c16.19,0 29.2,-4.53 38.98,-13.59 9.77,-9.06 14.7,-21.75 14.7,-38.07l0 -18.26 -26.93 1.17c-20.98,0.71 -36.26,4.27 -45.78,10.55 -9.58,6.22 -14.38,15.86 -14.38,28.74 0,9.39 2.78,16.65 8.36,21.76 5.57,5.12 13.92,7.7 25.05,7.7zm231.21 34.19c-26.16,0 -46.62,-9.52 -61.25,-28.49 -14.7,-18.97 -22.01,-45.58 -22.01,-79.9 0,-34.44 7.45,-61.25 22.27,-80.41 14.83,-19.17 35.41,-28.75 61.7,-28.75 27.58,0 48.56,10.17 63,30.56l2.26 0c-2.13,-15.03 -3.23,-26.94 -3.23,-35.68l0 -76.46 44.81 0 0 295.24 -34.9 0 -7.78 -27.45 -2.13 0c-14.25,20.91 -35.16,31.33 -62.74,31.33zm11.91 -36.13c18.39,0 31.72,-5.18 40.01,-15.48 8.35,-10.29 12.69,-26.99 12.94,-50.17l0 -6.22c0,-26.41 -4.33,-45.19 -12.94,-56.32 -8.55,-11.14 -22.01,-16.71 -40.33,-16.71 -15.74,0 -27.78,6.35 -36.26,19.03 -8.48,12.75 -12.69,30.82 -12.69,54.39 0,23.25 4.08,40.98 12.3,53.16 8.22,12.23 20.52,18.32 36.97,18.32z"/>
  <polygon class="fil5" points="3256.23,54.4 3256.23,266.28 3934.26,266.28 3934.26,54.4 "/>
  <path class="fil4" d="M4279.06 40.96c-27.66,0 -49.56,9.24 -65.63,27.66 -16.01,18.48 -24.01,43.74 -24.01,75.81 0,33.03 7.71,58.5 23.19,76.46 15.43,18.01 37.49,27.01 66.16,27.01 17.54,0 37.61,-3.17 60.15,-9.47l0 25.72c-17.48,6.6 -39.02,9.89 -64.68,9.89 -37.14,0 -65.8,-11.24 -85.93,-33.79 -20.19,-22.54 -30.31,-54.56 -30.31,-96.05 0,-26.02 4.89,-48.8 14.6,-68.34 9.71,-19.53 23.72,-34.61 42.09,-45.14 18.3,-10.59 39.9,-15.9 64.74,-15.9 26.49,0 49.56,4.84 69.34,14.43l-12.41 25.19c-19.07,-9 -38.14,-13.47 -57.27,-13.47zm226.73 229.55l-5.71 -26.9 -1.41 0c-9.42,11.83 -18.78,19.89 -28.14,24.14 -9.42,4.17 -21.07,6.3 -35.08,6.3 -18.78,0 -33.44,-4.83 -44.09,-14.49 -10.59,-9.71 -15.95,-23.43 -15.95,-41.32 0,-38.2 30.54,-58.21 91.52,-60.04l32.09 -1.06 0 -11.71c0,-14.78 -3.18,-25.72 -9.54,-32.79 -6.42,-7.06 -16.6,-10.59 -30.6,-10.59 -15.78,0 -33.55,4.83 -53.45,14.48l-8.77 -21.89c9.3,-5.07 19.48,-9.06 30.55,-11.94 11.12,-2.89 22.24,-4.3 33.37,-4.3 22.54,0 39.2,5.01 50.09,15.02 10.89,10 16.31,26.01 16.31,48.08l0 129.02 -21.19 0zm-64.69 -20.13c17.84,0 31.84,-4.89 41.97,-14.66 10.19,-9.77 15.31,-23.43 15.31,-41.02l0 -17.07 -28.66 1.24c-22.72,0.76 -39.14,4.29 -49.2,10.59 -10.07,6.24 -15.08,16.01 -15.08,29.19 0,10.36 3.12,18.25 9.42,23.61 6.24,5.42 15.01,8.12 26.25,8.12zm266.81 -31.37c0,17.6 -6.59,31.2 -19.65,40.73 -13.13,9.54 -31.49,14.31 -55.21,14.31 -25.02,0 -44.56,-3.94 -58.62,-11.89l0 -26.6c9.12,4.59 18.83,8.24 29.25,10.88 10.41,2.65 20.42,3.94 30.07,3.94 14.95,0 26.43,-2.41 34.49,-7.18 8.07,-4.77 12.07,-12.01 12.07,-21.78 0,-7.35 -3.18,-13.65 -9.6,-18.89 -6.36,-5.24 -18.77,-11.41 -37.31,-18.54 -17.6,-6.59 -30.08,-12.3 -37.49,-17.19 -7.42,-4.89 -12.95,-10.41 -16.55,-16.66 -3.64,-6.18 -5.41,-13.59 -5.41,-22.24 0,-15.42 6.24,-27.55 18.77,-36.49 12.53,-8.89 29.72,-13.36 51.57,-13.36 20.3,0 40.19,4.12 59.62,12.42l-10.18 23.31c-18.95,-7.83 -36.14,-11.71 -51.5,-11.71 -13.59,0 -23.84,2.12 -30.72,6.36 -6.89,4.29 -10.36,10.12 -10.36,17.6 0,5.06 1.29,9.36 3.88,12.94 2.59,3.53 6.77,6.95 12.53,10.18 5.72,3.18 16.78,7.89 33.09,13.96 22.42,8.18 37.55,16.42 45.43,24.66 7.89,8.3 11.83,18.72 11.83,31.25zm209.66 -43.14c0,30.84 -7.77,54.91 -23.25,72.22 -15.55,17.3 -36.97,25.96 -64.34,25.96 -16.89,0 -31.89,-3.94 -45.03,-11.89 -13.06,-7.95 -23.19,-19.36 -30.31,-34.2 -7.18,-14.84 -10.71,-32.2 -10.71,-52.09 0,-30.84 7.72,-54.86 23.14,-72.05 15.37,-17.19 36.79,-25.78 64.1,-25.78 26.49,0 47.44,8.77 63.04,26.37 15.6,17.6 23.37,41.44 23.37,71.46zm-143.97 0c0,24.13 4.83,42.56 14.48,55.21 9.65,12.65 23.84,18.95 42.62,18.95 18.71,0 32.96,-6.3 42.67,-18.89 9.72,-12.6 14.55,-31.02 14.55,-55.27 0,-24.02 -4.83,-42.27 -14.55,-54.74 -9.71,-12.48 -24.07,-18.72 -43.03,-18.72 -18.77,0 -32.9,6.13 -42.44,18.42 -9.53,12.3 -14.3,30.67 -14.3,55.04zm316.06 43.14c0,17.6 -6.59,31.2 -19.65,40.73 -13.13,9.54 -31.49,14.31 -55.21,14.31 -25.02,0 -44.56,-3.94 -58.62,-11.89l0 -26.6c9.12,4.59 18.83,8.24 29.25,10.88 10.41,2.65 20.42,3.94 30.07,3.94 14.95,0 26.43,-2.41 34.49,-7.18 8.07,-4.77 12.07,-12.01 12.07,-21.78 0,-7.35 -3.18,-13.65 -9.6,-18.89 -6.36,-5.24 -18.77,-11.41 -37.31,-18.54 -17.6,-6.59 -30.08,-12.3 -37.49,-17.19 -7.42,-4.89 -12.95,-10.41 -16.55,-16.66 -3.64,-6.18 -5.41,-13.59 -5.41,-22.24 0,-15.42 6.24,-27.55 18.77,-36.49 12.53,-8.89 29.72,-13.36 51.57,-13.36 20.3,0 40.19,4.12 59.62,12.42l-10.18 23.31c-18.95,-7.83 -36.14,-11.71 -51.5,-11.71 -13.59,0 -23.84,2.12 -30.72,6.36 -6.89,4.29 -10.36,10.12 -10.36,17.6 0,5.06 1.29,9.36 3.88,12.94 2.59,3.53 6.77,6.95 12.53,10.18 5.72,3.18 16.78,7.89 33.09,13.96 22.42,8.18 37.55,16.42 45.43,24.66 7.89,8.3 11.83,18.72 11.83,31.25zm266.98 26.2l-1.52 0c-13.24,19.24 -33.03,28.84 -59.33,28.84 -24.72,0 -43.97,-8.48 -57.74,-25.37 -13.71,-16.9 -20.6,-40.96 -20.6,-72.11 0,-31.19 6.89,-55.38 20.72,-72.63 13.78,-17.25 33.02,-25.9 57.62,-25.9 25.61,0 45.26,9.3 58.97,27.96l2.24 0 -1.18 -13.65 -0.7 -13.24 0 -76.99 28.6 0 0 268.4 -23.25 0 -3.83 -25.31zm-57.26 4.83c19.54,0 33.73,-5.3 42.56,-15.95 8.77,-10.66 13.18,-27.79 13.18,-51.51l0 -6.01c0,-26.78 -4.47,-45.91 -13.36,-57.32 -8.95,-11.48 -23.2,-17.19 -42.74,-17.19 -16.77,0 -29.6,6.53 -38.55,19.6 -8.88,13 -13.35,31.42 -13.35,55.27 0,24.13 4.41,42.32 13.29,54.62 8.83,12.3 21.84,18.48 38.97,18.48zm224.84 24.02c-27.95,0 -49.96,-8.54 -66.09,-25.55 -16.19,-17.01 -24.26,-40.67 -24.26,-70.93 0,-30.48 7.48,-54.68 22.48,-72.63 15.02,-17.95 35.14,-26.9 60.46,-26.9 23.66,0 42.44,7.77 56.21,23.37 13.77,15.6 20.71,36.14 20.71,61.63l0 18.13 -130.19 0c0.58,22.18 6.18,39.02 16.77,50.56 10.66,11.48 25.61,17.25 44.97,17.25 20.31,0 40.43,-4.23 60.34,-12.77l0 25.55c-10.13,4.41 -19.72,7.54 -28.72,9.48 -9.01,1.88 -19.9,2.82 -32.68,2.82zm-7.77 -171.99c-15.19,0 -27.25,4.95 -36.25,14.84 -9.07,9.82 -14.37,23.48 -15.96,40.96l98.77 0c0,-18.01 -4,-31.84 -12.06,-41.45 -8.07,-9.59 -19.54,-14.36 -34.5,-14.36zm333.73 168.45l-85.58 -223.54 -1.35 0c1.58,17.71 2.41,38.78 2.41,63.15l0 160.39 -27.08 0 0 -252.16 44.15 0 79.87 208.01 1.35 0 80.58 -208.01 43.8 0 0 252.16 -29.31 0 0 -162.45c0,-18.66 0.82,-38.91 2.41,-60.75l-1.35 0 -86.29 223.19 -23.6 0zm318.84 0l-85.58 -223.54 -1.35 0c1.58,17.71 2.41,38.78 2.41,63.15l0 160.39 -27.08 0 0 -252.16 44.15 0 79.87 208.01 1.35 0 80.58 -208.01 43.8 0 0 252.16 -29.31 0 0 -162.45c0,-18.66 0.82,-38.91 2.41,-60.75l-1.35 0 -86.29 223.19 -23.6 0zm349.56 -66.98c0,22.19 -8.07,39.49 -24.14,51.92 -16.13,12.41 -37.96,18.6 -65.57,18.6 -29.89,0 -52.91,-3.88 -68.98,-11.59l0 -28.32c10.35,4.36 21.59,7.83 33.78,10.36 12.18,2.53 24.26,3.77 36.26,3.77 19.54,0 34.26,-3.71 44.15,-11.13 9.89,-7.36 14.83,-17.66 14.83,-30.89 0,-8.72 -1.76,-15.9 -5.24,-21.43 -3.53,-5.59 -9.42,-10.71 -17.6,-15.48 -8.24,-4.71 -20.77,-10.06 -37.55,-16.01 -23.43,-8.42 -40.2,-18.36 -50.26,-29.84 -10.06,-11.47 -15.13,-26.49 -15.13,-45.03 0,-19.42 7.3,-34.9 21.89,-46.38 14.66,-11.47 33.97,-17.25 57.97,-17.25 25.08,0 48.15,4.6 69.17,13.78l-9.13 25.49c-20.83,-8.77 -41.07,-13.12 -60.74,-13.12 -15.48,0 -27.67,3.35 -36.38,10 -8.77,6.72 -13.12,15.96 -13.12,27.84 0,8.78 1.65,15.9 4.83,21.48 3.24,5.6 8.66,10.72 16.31,15.37 7.65,4.66 19.36,9.77 35.14,15.42 26.43,9.42 44.62,19.54 54.56,30.37 9.95,10.77 14.96,24.84 14.96,42.09z"/>
  <polygon class="fil2 str1" points="7582.89,122.2 8260.92,122.2 8273.64,122.2 8286.35,130.67 8294.82,143.39 8299.06,160.33 8294.82,173.05 8286.35,185.76 8273.64,194.24 8260.92,198.48 7582.89,198.48 7565.94,194.24 7553.23,185.76 7544.75,173.05 7544.75,160.33 7544.75,143.39 7553.23,130.67 7565.94,122.2 7582.89,122.2 "/>
  <path class="fil4" d="M8522.85 165.63l0 104.88 -29.31 0 0 -252.16 69.11 0c30.95,0 53.79,5.95 68.5,17.78 14.78,11.83 22.19,29.66 22.19,53.44 0,33.38 -16.9,55.92 -50.68,67.63l68.44 113.3 -34.67 0 -61.04 -104.88 -52.56 0zm0 -25.08l40.14 0c20.71,0 35.84,-4.12 45.5,-12.36 9.65,-8.18 14.48,-20.54 14.48,-36.96 0,-16.66 -4.89,-28.66 -14.72,-36.02 -9.83,-7.36 -25.6,-11.07 -47.32,-11.07l-38.08 0 0 96.42zm300.89 129.96l-5.71 -26.9 -1.41 0c-9.42,11.83 -18.78,19.89 -28.14,24.14 -9.42,4.17 -21.07,6.3 -35.08,6.3 -18.78,0 -33.44,-4.83 -44.09,-14.49 -10.59,-9.71 -15.95,-23.43 -15.95,-41.32 0,-38.2 30.54,-58.21 91.52,-60.04l32.09 -1.06 0 -11.71c0,-14.78 -3.18,-25.72 -9.54,-32.79 -6.42,-7.06 -16.6,-10.59 -30.6,-10.59 -15.78,0 -33.55,4.83 -53.45,14.48l-8.77 -21.89c9.3,-5.07 19.48,-9.06 30.55,-11.94 11.12,-2.89 22.24,-4.3 33.37,-4.3 22.54,0 39.2,5.01 50.09,15.02 10.89,10 16.31,26.01 16.31,48.08l0 129.02 -21.19 0zm-64.69 -20.13c17.84,0 31.84,-4.89 41.97,-14.66 10.19,-9.77 15.31,-23.43 15.31,-41.02l0 -17.07 -28.66 1.24c-22.72,0.76 -39.14,4.29 -49.2,10.59 -10.07,6.24 -15.08,16.01 -15.08,29.19 0,10.36 3.12,18.25 9.42,23.61 6.24,5.42 15.01,8.12 26.25,8.12zm265.87 20.13l-137.2 0 0 -19.48 103.18 -147.21 -96.77 0 0 -22.24 128.19 0 0 22.24 -101.82 144.45 104.41 0 0 22.24zm207.37 -94.64c0,30.84 -7.77,54.91 -23.25,72.22 -15.55,17.3 -36.97,25.96 -64.34,25.96 -16.89,0 -31.89,-3.94 -45.03,-11.89 -13.06,-7.95 -23.19,-19.36 -30.31,-34.2 -7.18,-14.84 -10.71,-32.2 -10.71,-52.09 0,-30.84 7.72,-54.86 23.14,-72.05 15.37,-17.19 36.79,-25.78 64.1,-25.78 26.49,0 47.44,8.77 63.04,26.37 15.6,17.6 23.37,41.44 23.37,71.46zm-143.97 0c0,24.13 4.83,42.56 14.48,55.21 9.65,12.65 23.84,18.95 42.62,18.95 18.71,0 32.96,-6.3 42.67,-18.89 9.72,-12.6 14.55,-31.02 14.55,-55.27 0,-24.02 -4.83,-42.27 -14.55,-54.74 -9.71,-12.48 -24.07,-18.72 -43.03,-18.72 -18.77,0 -32.9,6.13 -42.44,18.42 -9.53,12.3 -14.3,30.67 -14.3,55.04zm33.08 -123.66c5.54,-7.12 11.47,-15.72 17.83,-25.84 6.42,-10.12 11.42,-18.89 15.08,-26.37l34.84 0 0 3.58c-5.06,7.48 -12.59,16.66 -22.59,27.61 -9.95,10.89 -18.66,19.36 -26.02,25.31l-19.13 0 0 -4.29zm290.47 218.31l0 -122.25c0,-15.42 -3.47,-26.9 -10.53,-34.49 -7.01,-7.6 -18.02,-11.36 -32.97,-11.36 -19.77,0 -34.26,5.36 -43.44,16.01 -9.24,10.71 -13.84,28.37 -13.84,52.98l0 99.12 -28.6 0 0 -188.94 23.25 0 4.66 25.78 1.41 0c5.89,-9.3 14.07,-16.54 24.66,-21.66 10.6,-5.12 22.37,-7.65 35.38,-7.65 22.77,0 39.9,5.48 51.39,16.48 11.53,10.95 17.24,28.55 17.24,52.68l0 123.31 -28.6 0zm307.83 -25.31l-1.52 0c-13.24,19.24 -33.03,28.84 -59.33,28.84 -24.72,0 -43.97,-8.48 -57.74,-25.37 -13.71,-16.9 -20.6,-40.96 -20.6,-72.11 0,-31.19 6.89,-55.38 20.72,-72.63 13.78,-17.25 33.02,-25.9 57.62,-25.9 25.61,0 45.26,9.3 58.97,27.96l2.24 0 -1.18 -13.65 -0.7 -13.24 0 -76.99 28.6 0 0 268.4 -23.25 0 -3.83 -25.31zm-57.26 4.83c19.54,0 33.73,-5.3 42.56,-15.95 8.77,-10.66 13.18,-27.79 13.18,-51.51l0 -6.01c0,-26.78 -4.47,-45.91 -13.36,-57.32 -8.95,-11.48 -23.2,-17.19 -42.74,-17.19 -16.77,0 -29.6,6.53 -38.55,19.6 -8.88,13 -13.35,31.42 -13.35,55.27 0,24.13 4.41,42.32 13.29,54.62 8.83,12.3 21.84,18.48 38.97,18.48zm224.84 24.02c-27.95,0 -49.96,-8.54 -66.09,-25.55 -16.19,-17.01 -24.26,-40.67 -24.26,-70.93 0,-30.48 7.48,-54.68 22.48,-72.63 15.02,-17.95 35.14,-26.9 60.46,-26.9 23.66,0 42.44,7.77 56.21,23.37 13.77,15.6 20.71,36.14 20.71,61.63l0 18.13 -130.19 0c0.58,22.18 6.18,39.02 16.77,50.56 10.66,11.48 25.61,17.25 44.97,17.25 20.31,0 40.43,-4.23 60.34,-12.77l0 25.55c-10.13,4.41 -19.72,7.54 -28.72,9.48 -9.01,1.88 -19.9,2.82 -32.68,2.82zm-7.77 -171.99c-15.19,0 -27.25,4.95 -36.25,14.84 -9.07,9.82 -14.37,23.48 -15.96,40.96l98.77 0c0,-18.01 -4,-31.84 -12.06,-41.45 -8.07,-9.59 -19.54,-14.36 -34.5,-14.36zm333.73 168.45l-85.58 -223.54 -1.35 0c1.58,17.71 2.41,38.78 2.41,63.15l0 160.39 -27.08 0 0 -252.16 44.15 0 79.87 208.01 1.35 0 80.58 -208.01 43.8 0 0 252.16 -29.31 0 0 -162.45c0,-18.66 0.82,-38.91 2.41,-60.75l-1.35 0 -86.29 223.19 -23.6 0zm318.84 0l-85.58 -223.54 -1.35 0c1.58,17.71 2.41,38.78 2.41,63.15l0 160.39 -27.08 0 0 -252.16 44.15 0 79.87 208.01 1.35 0 80.58 -208.01 43.8 0 0 252.16 -29.31 0 0 -162.45c0,-18.66 0.82,-38.91 2.41,-60.75l-1.35 0 -86.29 223.19 -23.6 0zm349.56 -66.98c0,22.19 -8.07,39.49 -24.14,51.92 -16.13,12.41 -37.96,18.6 -65.57,18.6 -29.89,0 -52.91,-3.88 -68.98,-11.59l0 -28.32c10.35,4.36 21.59,7.83 33.78,10.36 12.18,2.53 24.26,3.77 36.26,3.77 19.54,0 34.26,-3.71 44.15,-11.13 9.89,-7.36 14.83,-17.66 14.83,-30.89 0,-8.72 -1.76,-15.9 -5.24,-21.43 -3.53,-5.59 -9.42,-10.71 -17.6,-15.48 -8.24,-4.71 -20.77,-10.06 -37.55,-16.01 -23.43,-8.42 -40.2,-18.36 -50.26,-29.84 -10.06,-11.47 -15.13,-26.49 -15.13,-45.03 0,-19.42 7.3,-34.9 21.89,-46.38 14.66,-11.47 33.97,-17.25 57.97,-17.25 25.08,0 48.15,4.6 69.17,13.78l-9.13 25.49c-20.83,-8.77 -41.07,-13.12 -60.74,-13.12 -15.48,0 -27.67,3.35 -36.38,10 -8.77,6.72 -13.12,15.96 -13.12,27.84 0,8.78 1.65,15.9 4.83,21.48 3.24,5.6 8.66,10.72 16.31,15.37 7.65,4.66 19.36,9.77 35.14,15.42 26.43,9.42 44.62,19.54 54.56,30.37 9.95,10.77 14.96,24.84 14.96,42.09z"/>
  <path class="fil4" d="M38.85 4971.62c0,26.03 9.26,46.55 27.71,61.44 18.45,14.96 43.9,22.4 76.39,22.4 34,0 59.7,-7.19 77.18,-21.56 17.41,-14.31 26.16,-35.09 26.16,-62.28 0,-11.78 -1.17,-23.19 -3.5,-34.19 -2.33,-11.01 -5.37,-22.46 -9,-34.32l38.98 0c8.22,21.75 12.36,46.42 12.36,73.94 0,40.65 -12.3,71.8 -36.9,93.55 -24.61,21.75 -59.77,32.64 -105.61,32.64 -28.81,0 -54.06,-5.25 -75.68,-15.8 -21.63,-10.55 -38.2,-25.84 -49.66,-45.84 -11.52,-20 -17.29,-43.45 -17.29,-70.38 0,-28.36 5.96,-54.58 17.81,-78.61l37.74 16.32c-4.46,9.39 -8.35,19.29 -11.65,29.72 -3.36,10.42 -5.05,21.42 -5.05,32.96zm242.4 -254.72l-29.13 8.94 0 1.49c12.75,10.1 21.49,20.26 26.09,30.55 4.6,10.23 6.93,23.38 6.93,39.43 0,20.59 -5.57,36.71 -16.71,48.23 -11.13,11.59 -26.87,17.36 -47.26,17.36 -21.62,0 -37.94,-8.03 -48.94,-24.09 -11.01,-16.06 -17.03,-40.53 -18,-73.36l-1.17 -36.26 -11.2 0c-13.39,0 -23.44,3.17 -30.1,9.39 -6.67,6.28 -9.97,15.99 -9.97,29.13 0,10.75 1.55,21.04 4.73,30.88 3.17,9.91 6.93,19.36 11.2,28.49l-31.85 14.38c-5.96,-11.33 -10.49,-23.83 -13.59,-37.36 -3.11,-13.53 -4.67,-26.29 -4.67,-38.26 0,-26.74 5.83,-46.88 17.48,-60.41 11.59,-13.6 29.91,-20.4 54.84,-20.4l141.34 0 0 31.85zm-30.3 66.37c0,-16.19 -4.53,-29.2 -13.59,-38.98 -9.06,-9.77 -21.75,-14.7 -38.07,-14.7l-18.26 0 1.17 26.93c0.71,20.98 4.27,36.26 10.55,45.78 6.22,9.58 15.86,14.38 28.74,14.38 9.39,0 16.65,-2.78 21.76,-8.36 5.12,-5.57 7.7,-13.92 7.7,-25.05zm-29.39 -301.46c20.46,0 36.19,7.45 47.13,22.4 10.94,14.89 16.45,36.32 16.45,64.09 0,27.97 -4.27,50.45 -12.75,67.4l-38.52 0c11.39,-24.67 17.09,-47.65 17.09,-68.89 0,-27.46 -8.29,-41.18 -24.86,-41.18 -5.32,0 -9.71,1.49 -13.27,4.53 -3.56,3.04 -7.19,8.03 -11.01,15.02 -3.81,6.93 -8.09,16.65 -12.94,29.01 -9.32,24.15 -18.71,40.53 -28.04,49.07 -9.38,8.55 -21.55,12.82 -36.45,12.82 -18,0 -31.91,-7.26 -41.89,-21.75 -9.91,-14.51 -14.9,-34.19 -14.9,-59.11 0,-24.67 4.99,-47.97 15.03,-69.99l33.6 14.44c-9.38,22.59 -14.05,41.63 -14.05,57.1 0,23.51 6.67,35.29 20.07,35.29 6.61,0 12.17,-3.04 16.7,-9.19 4.61,-6.16 10.88,-19.56 18.84,-40.14 6.68,-17.36 12.82,-29.91 18.39,-37.75 5.57,-7.83 11.98,-13.66 19.3,-17.48 7.25,-3.82 15.93,-5.7 26.09,-5.7zm-45.58 -234.26c34.32,0 61.06,8.81 80.29,26.35 19.22,17.61 28.87,42.09 28.87,73.42 0,19.62 -4.4,36.97 -13.27,52 -8.87,15.09 -21.55,26.67 -38.2,34.77 -16.57,8.09 -35.8,12.1 -57.68,12.1 -34.06,0 -60.61,-8.74 -79.71,-26.16 -19.1,-17.48 -28.68,-42.09 -28.68,-73.81 0,-30.36 9.78,-54.38 29.33,-72.12 19.55,-17.68 45.9,-26.55 79.06,-26.55zm0 152.74c48.43,0 72.64,-17.87 72.64,-53.68 0,-35.48 -24.21,-53.16 -72.64,-53.16 -47.91,0 -71.87,17.81 -71.87,53.49 0,18.77 6.22,32.31 18.58,40.72 12.36,8.41 30.17,12.62 53.29,12.62zm45.58 -344.9c20.46,0 36.19,7.45 47.13,22.4 10.94,14.89 16.45,36.32 16.45,64.09 0,27.97 -4.27,50.45 -12.75,67.4l-38.52 0c11.39,-24.67 17.09,-47.65 17.09,-68.89 0,-27.46 -8.29,-41.18 -24.86,-41.18 -5.32,0 -9.71,1.49 -13.27,4.53 -3.56,3.04 -7.19,8.03 -11.01,15.02 -3.81,6.93 -8.09,16.65 -12.94,29.01 -9.32,24.15 -18.71,40.53 -28.04,49.07 -9.38,8.55 -21.55,12.82 -36.45,12.82 -18,0 -31.91,-7.26 -41.89,-21.75 -9.91,-14.51 -14.9,-34.19 -14.9,-59.11 0,-24.67 4.99,-47.97 15.03,-69.99l33.6 14.44c-9.38,22.59 -14.05,41.63 -14.05,57.1 0,23.51 6.67,35.29 20.07,35.29 6.61,0 12.17,-3.04 16.7,-9.19 4.61,-6.16 10.88,-19.56 18.84,-40.14 6.68,-17.36 12.82,-29.91 18.39,-37.75 5.57,-7.83 11.98,-13.66 19.3,-17.48 7.25,-3.82 15.93,-5.7 26.09,-5.7z"/>
  <path class="fil4" d="M2353.66 10909.15l0 27.9 -179.7 0c-14.96,0 -29.08,-0.47 -42.38,-1.35 2.41,2.41 4.95,5.13 7.59,8.12 2.65,2.94 13.84,16.66 33.67,41.02l-19.71 15.19 -51.63 -66.74 0 -24.14 252.16 0zm-126.37 -263.04c43.61,0 76.16,6.88 97.65,20.59 21.48,13.78 32.26,34.79 32.26,63.04 0,27.2 -11.01,47.79 -33.03,61.98 -22.01,14.13 -54.32,21.19 -96.88,21.19 -43.91,0 -76.46,-6.83 -97.77,-20.54 -21.25,-13.65 -31.9,-34.55 -31.9,-62.63 0,-27.37 11.12,-48.14 33.32,-62.33 22.19,-14.19 54.33,-21.3 96.36,-21.3zm-0.06 137.84c36.67,0 63.39,-4.29 80.17,-12.94 16.71,-8.65 25.07,-22.36 25.07,-41.27 0,-19.07 -8.47,-32.9 -25.43,-41.5 -17.01,-8.53 -43.55,-12.82 -79.81,-12.82 -36.2,0 -62.75,4.29 -79.64,12.82 -16.84,8.6 -25.25,22.42 -25.25,41.5 0,18.9 8.3,32.62 24.95,41.27 16.6,8.65 43.27,12.94 79.94,12.94zm126.43 -393.71l-26.9 5.71 0 1.41c11.83,9.42 19.89,18.78 24.14,28.14 4.17,9.42 6.3,21.07 6.3,35.08 0,18.78 -4.83,33.44 -14.49,44.09 -9.71,10.59 -23.43,15.95 -41.32,15.95 -38.2,0 -58.21,-30.54 -60.04,-91.52l-1.06 -32.09 -11.71 0c-14.78,0 -25.72,3.18 -32.79,9.54 -7.06,6.42 -10.59,16.6 -10.59,30.6 0,15.78 4.83,33.55 14.48,53.45l-21.89 8.77c-5.07,-9.3 -9.06,-19.48 -11.94,-30.55 -2.89,-11.12 -4.3,-22.24 -4.3,-33.37 0,-22.54 5.01,-39.2 15.02,-50.09 10,-10.89 26.01,-16.31 48.08,-16.31l129.02 0 0 21.19zm-20.13 64.69c0,-17.84 -4.89,-31.84 -14.66,-41.97 -9.77,-10.19 -23.43,-15.31 -41.02,-15.31l-17.07 0 1.24 28.66c0.76,22.72 4.29,39.14 10.59,49.2 6.24,10.07 16.01,15.08 29.19,15.08 10.36,0 18.25,-3.12 23.61,-9.42 5.42,-6.24 8.12,-15.01 8.12,-26.25zm20.13 -329.62l0 27.9 -179.7 0c-14.96,0 -29.08,-0.47 -42.38,-1.35 2.41,2.41 4.95,5.13 7.59,8.12 2.65,2.94 13.84,16.66 33.67,41.02l-19.71 15.19 -51.63 -66.74 0 -24.14 252.16 0zm-57.91 -273.58l0 37.43 57.91 0 0 27.43 -57.91 0 0 122.66 -25.02 0 -170.64 -119.72 0 -30.37 169.51 0 0 -37.43 26.14 0zm-26.14 64.86l-83.81 0c-16.43,0 -35.03,-0.58 -55.68,-1.7l0 1.35c11,5.54 20.18,10.71 27.43,15.54l112.06 78.88 0 -94.06z"/>
  <path class="fil4" d="M3852.87 10927.41l0 27.9 -179.7 0c-14.96,0 -29.08,-0.47 -42.38,-1.35 2.41,2.41 4.95,5.13 7.59,8.12 2.65,2.94 13.84,16.66 33.67,41.02l-19.71 15.19 -51.63 -66.74 0 -24.14 252.16 0zm-153.98 -174.69c0,-26.61 6.6,-47.5 19.78,-62.75 13.12,-15.25 31.19,-22.83 54.03,-22.83 26.14,0 46.62,8.3 61.45,24.9 14.84,16.66 22.25,39.55 22.25,68.75 0,28.43 -4.53,50.09 -13.65,65.04l-27.61 0c5.19,-8.06 9.18,-18.07 12.12,-30.02 2.94,-11.94 4.41,-23.72 4.41,-35.37 0,-20.25 -4.77,-35.97 -14.3,-47.15 -9.54,-11.24 -23.32,-16.83 -41.39,-16.83 -35.14,0 -52.74,21.54 -52.74,64.68 0,10.95 1.65,25.55 5.01,43.86l-9.48 14.83 -118.07 -9.53 0 -125.38 26.49 0 0 100.89 75.63 6.42c-2.64,-13.24 -3.94,-26.43 -3.94,-39.49zm153.98 -344.22l-26.9 5.71 0 1.41c11.83,9.42 19.89,18.78 24.14,28.14 4.17,9.42 6.3,21.07 6.3,35.08 0,18.78 -4.83,33.44 -14.49,44.09 -9.71,10.59 -23.43,15.95 -41.32,15.95 -38.2,0 -58.21,-30.54 -60.04,-91.52l-1.06 -32.09 -11.71 0c-14.78,0 -25.72,3.18 -32.79,9.54 -7.06,6.42 -10.59,16.6 -10.59,30.6 0,15.78 4.83,33.55 14.48,53.45l-21.89 8.77c-5.07,-9.3 -9.06,-19.48 -11.94,-30.55 -2.89,-11.12 -4.3,-22.24 -4.3,-33.37 0,-22.54 5.01,-39.2 15.02,-50.09 10,-10.89 26.01,-16.31 48.08,-16.31l129.02 0 0 21.19zm-20.13 64.69c0,-17.84 -4.89,-31.84 -14.66,-41.97 -9.77,-10.19 -23.43,-15.31 -41.02,-15.31l-17.07 0 1.24 28.66c0.76,22.72 4.29,39.14 10.59,49.2 6.24,10.07 16.01,15.08 29.19,15.08 10.36,0 18.25,-3.12 23.61,-9.42 5.42,-6.24 8.12,-15.01 8.12,-26.25zm20.13 -329.62l0 27.9 -179.7 0c-14.96,0 -29.08,-0.47 -42.38,-1.35 2.41,2.41 4.95,5.13 7.59,8.12 2.65,2.94 13.84,16.66 33.67,41.02l-19.71 15.19 -51.63 -66.74 0 -24.14 252.16 0zm-144.44 -261.69c98.65,0 147.97,38.2 147.97,114.53 0,13.36 -1.18,23.96 -3.47,31.78l-24.67 0c3,-9.24 4.47,-19.66 4.47,-31.42 0,-27.61 -8.53,-48.44 -25.6,-62.51 -17.07,-14.14 -43.27,-21.78 -78.59,-23.08l0 2.11c9.54,6.31 16.84,14.72 21.84,25.2 5.01,10.42 7.47,22.24 7.47,35.32 0,22.3 -6.65,40.02 -20.01,53.15 -13.29,13.12 -31.95,19.65 -55.85,19.65 -26.2,0 -46.91,-7.3 -62.04,-21.95 -15.19,-14.71 -22.78,-33.96 -22.78,-57.91 0,-17.13 4.41,-32.07 13.18,-44.91 8.83,-12.83 21.6,-22.72 38.5,-29.6 16.83,-6.89 36.67,-10.36 59.56,-10.36zm-86.87 84.87c0,16.48 5.3,29.19 15.89,38.14 10.59,9 25.31,13.47 44.15,13.47 16.6,0 29.6,-4.17 39.08,-12.41 9.47,-8.3 14.24,-20.89 14.24,-37.79 0,-10.47 -2.11,-20.13 -6.36,-28.9 -4.29,-8.83 -10.06,-15.72 -17.48,-20.77 -7.36,-5.07 -15.07,-7.6 -23.07,-7.6 -12.13,0 -23.26,2.36 -33.5,7.07 -10.24,4.71 -18.3,11.3 -24.19,19.72 -5.83,8.47 -8.77,18.18 -8.77,29.07z"/>
  <path class="fil4" d="M5292.31 10867.51l0 165.8 -24.67 0 -66.74 -66.45c-20.48,-20.18 -35.08,-33.55 -43.85,-40.02 -8.71,-6.42 -17.25,-11.24 -25.49,-14.48 -8.3,-3.18 -17.19,-4.83 -26.78,-4.83 -13.42,0 -24.08,4.11 -31.96,12.24 -7.89,8.18 -11.82,19.54 -11.82,34.02 0,10.48 1.7,20.36 5.18,29.72 3.41,9.42 9.71,19.84 18.78,31.31l-19.49 15.19c-19.24,-23.19 -28.84,-48.5 -28.84,-75.87 0,-23.72 6.07,-42.26 18.19,-55.74 12.12,-13.47 28.43,-20.18 48.91,-20.18 15.95,0 31.78,4.47 47.44,13.47 15.6,8.95 35.38,25.73 59.27,50.38l54.03 55.21 1.35 0 0 -129.78 26.49 0zm-126.37 -203.3c43.61,0 76.16,6.88 97.65,20.59 21.48,13.78 32.26,34.79 32.26,63.04 0,27.2 -11.01,47.79 -33.03,61.98 -22.01,14.13 -54.32,21.19 -96.88,21.19 -43.91,0 -76.46,-6.83 -97.77,-20.54 -21.25,-13.65 -31.9,-34.55 -31.9,-62.63 0,-27.37 11.12,-48.14 33.32,-62.33 22.19,-14.19 54.33,-21.3 96.36,-21.3zm-0.06 137.84c36.67,0 63.39,-4.29 80.17,-12.94 16.71,-8.65 25.07,-22.36 25.07,-41.27 0,-19.07 -8.47,-32.9 -25.43,-41.5 -17.01,-8.53 -43.55,-12.82 -79.81,-12.82 -36.2,0 -62.75,4.29 -79.64,12.82 -16.84,8.6 -25.25,22.42 -25.25,41.5 0,18.9 8.3,32.62 24.95,41.27 16.6,8.65 43.27,12.94 79.94,12.94zm126.43 -393.71l-26.9 5.71 0 1.41c11.83,9.42 19.89,18.78 24.14,28.14 4.17,9.42 6.3,21.07 6.3,35.08 0,18.78 -4.83,33.44 -14.49,44.09 -9.71,10.59 -23.43,15.95 -41.32,15.95 -38.2,0 -58.21,-30.54 -60.04,-91.52l-1.06 -32.09 -11.71 0c-14.78,0 -25.72,3.18 -32.79,9.54 -7.06,6.42 -10.59,16.6 -10.59,30.6 0,15.78 4.83,33.55 14.48,53.45l-21.89 8.77c-5.07,-9.3 -9.06,-19.48 -11.94,-30.55 -2.89,-11.12 -4.3,-22.24 -4.3,-33.37 0,-22.54 5.01,-39.2 15.02,-50.09 10,-10.89 26.01,-16.31 48.08,-16.31l129.02 0 0 21.19zm-20.13 64.69c0,-17.84 -4.89,-31.84 -14.66,-41.97 -9.77,-10.19 -23.43,-15.31 -41.02,-15.31l-17.07 0 1.24 28.66c0.76,22.72 4.29,39.14 10.59,49.2 6.24,10.07 16.01,15.08 29.19,15.08 10.36,0 18.25,-3.12 23.61,-9.42 5.42,-6.24 8.12,-15.01 8.12,-26.25zm20.13 -389.35l0 165.8 -24.67 0 -66.74 -66.45c-20.48,-20.18 -35.08,-33.55 -43.85,-40.02 -8.71,-6.42 -17.25,-11.24 -25.49,-14.48 -8.3,-3.18 -17.19,-4.83 -26.78,-4.83 -13.42,0 -24.08,4.11 -31.96,12.24 -7.89,8.18 -11.82,19.54 -11.82,34.02 0,10.48 1.7,20.36 5.18,29.72 3.41,9.42 9.71,19.84 18.78,31.31l-19.49 15.19c-19.24,-23.19 -28.84,-48.5 -28.84,-75.87 0,-23.72 6.07,-42.26 18.19,-55.74 12.12,-13.47 28.43,-20.18 48.91,-20.18 15.95,0 31.78,4.47 47.44,13.47 15.6,8.95 35.38,25.73 59.27,50.38l54.03 55.21 1.35 0 0 -129.78 26.49 0zm-57.91 -213.84l0 37.43 57.91 0 0 27.43 -57.91 0 0 122.66 -25.02 0 -170.64 -119.72 0 -30.37 169.51 0 0 -37.43 26.14 0zm-26.14 64.86l-83.81 0c-16.43,0 -35.03,-0.58 -55.68,-1.7l0 1.35c11,5.54 20.18,10.71 27.43,15.54l112.06 78.88 0 -94.06z"/>
  <path class="fil4" d="M6757.5 10867.51l0 165.8 -24.67 0 -66.74 -66.45c-20.48,-20.18 -35.08,-33.55 -43.85,-40.02 -8.71,-6.42 -17.25,-11.24 -25.49,-14.48 -8.3,-3.18 -17.19,-4.83 -26.78,-4.83 -13.42,0 -24.08,4.11 -31.96,12.24 -7.89,8.18 -11.82,19.54 -11.82,34.02 0,10.48 1.7,20.36 5.18,29.72 3.41,9.42 9.71,19.84 18.78,31.31l-19.49 15.19c-19.24,-23.19 -28.84,-48.5 -28.84,-75.87 0,-23.72 6.07,-42.26 18.19,-55.74 12.12,-13.47 28.43,-20.18 48.91,-20.18 15.95,0 31.78,4.47 47.44,13.47 15.6,8.95 35.38,25.73 59.27,50.38l54.03 55.21 1.35 0 0 -129.78 26.49 0zm-153.98 -114.96c0,-26.61 6.6,-47.5 19.78,-62.75 13.12,-15.25 31.19,-22.83 54.03,-22.83 26.14,0 46.62,8.3 61.45,24.9 14.84,16.66 22.25,39.55 22.25,68.75 0,28.43 -4.53,50.09 -13.65,65.04l-27.61 0c5.19,-8.06 9.18,-18.07 12.12,-30.02 2.94,-11.94 4.41,-23.72 4.41,-35.37 0,-20.25 -4.77,-35.97 -14.3,-47.15 -9.54,-11.24 -23.32,-16.83 -41.39,-16.83 -35.14,0 -52.74,21.54 -52.74,64.68 0,10.95 1.65,25.55 5.01,43.86l-9.48 14.83 -118.07 -9.53 0 -125.38 26.49 0 0 100.89 75.63 6.42c-2.64,-13.24 -3.94,-26.43 -3.94,-39.49zm153.98 -344.22l-26.9 5.71 0 1.41c11.83,9.42 19.89,18.78 24.14,28.14 4.17,9.42 6.3,21.07 6.3,35.08 0,18.78 -4.83,33.44 -14.49,44.09 -9.71,10.59 -23.43,15.95 -41.32,15.95 -38.2,0 -58.21,-30.54 -60.04,-91.52l-1.06 -32.09 -11.71 0c-14.78,0 -25.72,3.18 -32.79,9.54 -7.06,6.42 -10.59,16.6 -10.59,30.6 0,15.78 4.83,33.55 14.48,53.45l-21.89 8.77c-5.07,-9.3 -9.06,-19.48 -11.94,-30.55 -2.89,-11.12 -4.3,-22.24 -4.3,-33.37 0,-22.54 5.01,-39.2 15.02,-50.09 10,-10.89 26.01,-16.31 48.08,-16.31l129.02 0 0 21.19zm-20.13 64.69c0,-17.84 -4.89,-31.84 -14.66,-41.97 -9.77,-10.19 -23.43,-15.31 -41.02,-15.31l-17.07 0 1.24 28.66c0.76,22.72 4.29,39.14 10.59,49.2 6.24,10.07 16.01,15.08 29.19,15.08 10.36,0 18.25,-3.12 23.61,-9.42 5.42,-6.24 8.12,-15.01 8.12,-26.25zm20.13 -389.35l0 165.8 -24.67 0 -66.74 -66.45c-20.48,-20.18 -35.08,-33.55 -43.85,-40.02 -8.71,-6.42 -17.25,-11.24 -25.49,-14.48 -8.3,-3.18 -17.19,-4.83 -26.78,-4.83 -13.42,0 -24.08,4.11 -31.96,12.24 -7.89,8.18 -11.82,19.54 -11.82,34.02 0,10.48 1.7,20.36 5.18,29.72 3.41,9.42 9.71,19.84 18.78,31.31l-19.49 15.19c-19.24,-23.19 -28.84,-48.5 -28.84,-75.87 0,-23.72 6.07,-42.26 18.19,-55.74 12.12,-13.47 28.43,-20.18 48.91,-20.18 15.95,0 31.78,4.47 47.44,13.47 15.6,8.95 35.38,25.73 59.27,50.38l54.03 55.21 1.35 0 0 -129.78 26.49 0zm-144.44 -201.95c98.65,0 147.97,38.2 147.97,114.53 0,13.36 -1.18,23.96 -3.47,31.78l-24.67 0c3,-9.24 4.47,-19.66 4.47,-31.42 0,-27.61 -8.53,-48.44 -25.6,-62.51 -17.07,-14.14 -43.27,-21.78 -78.59,-23.08l0 2.11c9.54,6.31 16.84,14.72 21.84,25.2 5.01,10.42 7.47,22.24 7.47,35.32 0,22.3 -6.65,40.02 -20.01,53.15 -13.29,13.12 -31.95,19.65 -55.85,19.65 -26.2,0 -46.91,-7.3 -62.04,-21.95 -15.19,-14.71 -22.78,-33.96 -22.78,-57.91 0,-17.13 4.41,-32.07 13.18,-44.91 8.83,-12.83 21.6,-22.72 38.5,-29.6 16.83,-6.89 36.67,-10.36 59.56,-10.36zm-86.87 84.87c0,16.48 5.3,29.19 15.89,38.14 10.59,9 25.31,13.47 44.15,13.47 16.6,0 29.6,-4.17 39.08,-12.41 9.47,-8.3 14.24,-20.89 14.24,-37.79 0,-10.47 -2.11,-20.13 -6.36,-28.9 -4.29,-8.83 -10.06,-15.72 -17.48,-20.77 -7.36,-5.07 -15.07,-7.6 -23.07,-7.6 -12.13,0 -23.26,2.36 -33.5,7.07 -10.24,4.71 -18.3,11.3 -24.19,19.72 -5.83,8.47 -8.77,18.18 -8.77,29.07z"/>
  <path class="fil4" d="M8006.08 10875.4c16.07,0 29.19,4.47 39.43,13.54 10.24,9 17.07,21.77 20.48,38.37l1.41 0c2.53,-20.25 8.95,-35.26 19.31,-45.03 10.35,-9.77 23.96,-14.66 40.72,-14.66 24.08,0 42.56,8.3 55.51,25.02 12.94,16.66 19.42,40.31 19.42,71.04 0,13.36 -1,25.55 -3,36.67 -2.06,11.07 -5.6,21.9 -10.65,32.32l-27.25 0c5.36,-10.88 9.47,-22.54 12.29,-34.9 2.83,-12.36 4.24,-24.08 4.24,-35.14 0,-43.56 -17.07,-65.34 -51.22,-65.34 -30.6,0 -45.91,24.02 -45.91,72.11l0 24.84 -24.72 0 0 -25.19c0,-19.66 -4.35,-35.26 -13,-46.74 -8.71,-11.53 -20.72,-17.3 -36.14,-17.3 -12.3,0 -21.95,4.23 -28.96,12.71 -7.01,8.47 -10.53,19.89 -10.53,34.43 0,11.01 1.47,21.42 4.46,31.19 3,9.77 8.54,20.95 16.55,33.5l-19.31 14.48c-8.12,-10.36 -14.48,-22.3 -19.13,-35.79 -4.65,-13.53 -6.95,-27.72 -6.95,-42.67 0,-24.55 5.6,-43.56 16.78,-57.15 11.24,-13.54 26.61,-20.31 46.15,-20.31zm66.39 -212.83c43.61,0 76.16,6.88 97.65,20.59 21.48,13.78 32.26,34.79 32.26,63.04 0,27.2 -11.01,47.79 -33.03,61.98 -22.01,14.13 -54.32,21.19 -96.88,21.19 -43.91,0 -76.46,-6.83 -97.77,-20.54 -21.25,-13.65 -31.9,-34.55 -31.9,-62.63 0,-27.37 11.12,-48.14 33.32,-62.33 22.19,-14.19 54.33,-21.3 96.36,-21.3zm-0.06 137.84c36.67,0 63.39,-4.29 80.17,-12.94 16.71,-8.65 25.07,-22.36 25.07,-41.27 0,-19.07 -8.47,-32.9 -25.43,-41.5 -17.01,-8.53 -43.55,-12.82 -79.81,-12.82 -36.2,0 -62.75,4.29 -79.64,12.82 -16.84,8.6 -25.25,22.42 -25.25,41.5 0,18.9 8.3,32.62 24.95,41.27 16.6,8.65 43.27,12.94 79.94,12.94zm126.43 -393.71l-26.9 5.71 0 1.41c11.83,9.42 19.89,18.78 24.14,28.14 4.17,9.42 6.3,21.07 6.3,35.08 0,18.78 -4.83,33.44 -14.49,44.09 -9.71,10.59 -23.43,15.95 -41.32,15.95 -38.2,0 -58.21,-30.54 -60.04,-91.52l-1.06 -32.09 -11.71 0c-14.78,0 -25.72,3.18 -32.79,9.54 -7.06,6.42 -10.59,16.6 -10.59,30.6 0,15.78 4.83,33.55 14.48,53.45l-21.89 8.77c-5.07,-9.3 -9.06,-19.48 -11.94,-30.55 -2.89,-11.12 -4.3,-22.24 -4.3,-33.37 0,-22.54 5.01,-39.2 15.02,-50.09 10,-10.89 26.01,-16.31 48.08,-16.31l129.02 0 0 21.19zm-20.13 64.69c0,-17.84 -4.89,-31.84 -14.66,-41.97 -9.77,-10.19 -23.43,-15.31 -41.02,-15.31l-17.07 0 1.24 28.66c0.76,22.72 4.29,39.14 10.59,49.2 6.24,10.07 16.01,15.08 29.19,15.08 10.36,0 18.25,-3.12 23.61,-9.42 5.42,-6.24 8.12,-15.01 8.12,-26.25zm-172.63 -379.82c16.07,0 29.19,4.47 39.43,13.54 10.24,9 17.07,21.77 20.48,38.37l1.41 0c2.53,-20.25 8.95,-35.26 19.31,-45.03 10.35,-9.77 23.96,-14.66 40.72,-14.66 24.08,0 42.56,8.3 55.51,25.02 12.94,16.66 19.42,40.31 19.42,71.04 0,13.36 -1,25.55 -3,36.67 -2.06,11.07 -5.6,21.9 -10.65,32.32l-27.25 0c5.36,-10.88 9.47,-22.54 12.29,-34.9 2.83,-12.36 4.24,-24.08 4.24,-35.14 0,-43.56 -17.07,-65.34 -51.22,-65.34 -30.6,0 -45.91,24.02 -45.91,72.11l0 24.84 -24.72 0 0 -25.19c0,-19.66 -4.35,-35.26 -13,-46.74 -8.71,-11.53 -20.72,-17.3 -36.14,-17.3 -12.3,0 -21.95,4.23 -28.96,12.71 -7.01,8.47 -10.53,19.89 -10.53,34.43 0,11.01 1.47,21.42 4.46,31.19 3,9.77 8.54,20.95 16.55,33.5l-19.31 14.48c-8.12,-10.36 -14.48,-22.3 -19.13,-35.79 -4.65,-13.53 -6.95,-27.72 -6.95,-42.67 0,-24.55 5.6,-43.56 16.78,-57.15 11.24,-13.54 26.61,-20.31 46.15,-20.31zm134.85 -223.37l0 37.43 57.91 0 0 27.43 -57.91 0 0 122.66 -25.02 0 -170.64 -119.72 0 -30.37 169.51 0 0 -37.43 26.14 0zm-26.14 64.86l-83.81 0c-16.43,0 -35.03,-0.58 -55.68,-1.7l0 1.35c11,5.54 20.18,10.71 27.43,15.54l112.06 78.88 0 -94.06z"/>
  <path class="fil4" d="M9447.27 10875.4c16.07,0 29.19,4.47 39.43,13.54 10.24,9 17.07,21.77 20.48,38.37l1.41 0c2.53,-20.25 8.95,-35.26 19.31,-45.03 10.35,-9.77 23.96,-14.66 40.72,-14.66 24.08,0 42.56,8.3 55.51,25.02 12.94,16.66 19.42,40.31 19.42,71.04 0,13.36 -1,25.55 -3,36.67 -2.06,11.07 -5.6,21.9 -10.65,32.32l-27.25 0c5.36,-10.88 9.47,-22.54 12.29,-34.9 2.83,-12.36 4.24,-24.08 4.24,-35.14 0,-43.56 -17.07,-65.34 -51.22,-65.34 -30.6,0 -45.91,24.02 -45.91,72.11l0 24.84 -24.72 0 0 -25.19c0,-19.66 -4.35,-35.26 -13,-46.74 -8.71,-11.53 -20.72,-17.3 -36.14,-17.3 -12.3,0 -21.95,4.23 -28.96,12.71 -7.01,8.47 -10.53,19.89 -10.53,34.43 0,11.01 1.47,21.42 4.46,31.19 3,9.77 8.54,20.95 16.55,33.5l-19.31 14.48c-8.12,-10.36 -14.48,-22.3 -19.13,-35.79 -4.65,-13.53 -6.95,-27.72 -6.95,-42.67 0,-24.55 5.6,-43.56 16.78,-57.15 11.24,-13.54 26.61,-20.31 46.15,-20.31zm38.78 -124.49c0,-26.61 6.6,-47.5 19.78,-62.75 13.12,-15.25 31.19,-22.83 54.03,-22.83 26.14,0 46.62,8.3 61.45,24.9 14.84,16.66 22.25,39.55 22.25,68.75 0,28.43 -4.53,50.09 -13.65,65.04l-27.61 0c5.19,-8.06 9.18,-18.07 12.12,-30.02 2.94,-11.94 4.41,-23.72 4.41,-35.37 0,-20.25 -4.77,-35.97 -14.3,-47.15 -9.54,-11.24 -23.32,-16.83 -41.39,-16.83 -35.14,0 -52.74,21.54 -52.74,64.68 0,10.95 1.65,25.55 5.01,43.86l-9.48 14.83 -118.07 -9.53 0 -125.38 26.49 0 0 100.89 75.63 6.42c-2.64,-13.24 -3.94,-26.43 -3.94,-39.49zm153.98 -344.22l-26.9 5.71 0 1.41c11.83,9.42 19.89,18.78 24.14,28.14 4.17,9.42 6.3,21.07 6.3,35.08 0,18.78 -4.83,33.44 -14.49,44.09 -9.71,10.59 -23.43,15.95 -41.32,15.95 -38.2,0 -58.21,-30.54 -60.04,-91.52l-1.06 -32.09 -11.71 0c-14.78,0 -25.72,3.18 -32.79,9.54 -7.06,6.42 -10.59,16.6 -10.59,30.6 0,15.78 4.83,33.55 14.48,53.45l-21.89 8.77c-5.07,-9.3 -9.06,-19.48 -11.94,-30.55 -2.89,-11.12 -4.3,-22.24 -4.3,-33.37 0,-22.54 5.01,-39.2 15.02,-50.09 10,-10.89 26.01,-16.31 48.08,-16.31l129.02 0 0 21.19zm-20.13 64.69c0,-17.84 -4.89,-31.84 -14.66,-41.97 -9.77,-10.19 -23.43,-15.31 -41.02,-15.31l-17.07 0 1.24 28.66c0.76,22.72 4.29,39.14 10.59,49.2 6.24,10.07 16.01,15.08 29.19,15.08 10.36,0 18.25,-3.12 23.61,-9.42 5.42,-6.24 8.12,-15.01 8.12,-26.25zm-172.63 -379.82c16.07,0 29.19,4.47 39.43,13.54 10.24,9 17.07,21.77 20.48,38.37l1.41 0c2.53,-20.25 8.95,-35.26 19.31,-45.03 10.35,-9.77 23.96,-14.66 40.72,-14.66 24.08,0 42.56,8.3 55.51,25.02 12.94,16.66 19.42,40.31 19.42,71.04 0,13.36 -1,25.55 -3,36.67 -2.06,11.07 -5.6,21.9 -10.65,32.32l-27.25 0c5.36,-10.88 9.47,-22.54 12.29,-34.9 2.83,-12.36 4.24,-24.08 4.24,-35.14 0,-43.56 -17.07,-65.34 -51.22,-65.34 -30.6,0 -45.91,24.02 -45.91,72.11l0 24.84 -24.72 0 0 -25.19c0,-19.66 -4.35,-35.26 -13,-46.74 -8.71,-11.53 -20.72,-17.3 -36.14,-17.3 -12.3,0 -21.95,4.23 -28.96,12.71 -7.01,8.47 -10.53,19.89 -10.53,34.43 0,11.01 1.47,21.42 4.46,31.19 3,9.77 8.54,20.95 16.55,33.5l-19.31 14.48c-8.12,-10.36 -14.48,-22.3 -19.13,-35.79 -4.65,-13.53 -6.95,-27.72 -6.95,-42.67 0,-24.55 5.6,-43.56 16.78,-57.15 11.24,-13.54 26.61,-20.31 46.15,-20.31zm48.32 -211.48c98.65,0 147.97,38.2 147.97,114.53 0,13.36 -1.18,23.96 -3.47,31.78l-24.67 0c3,-9.24 4.47,-19.66 4.47,-31.42 0,-27.61 -8.53,-48.44 -25.6,-62.51 -17.07,-14.14 -43.27,-21.78 -78.59,-23.08l0 2.11c9.54,6.31 16.84,14.72 21.84,25.2 5.01,10.42 7.47,22.24 7.47,35.32 0,22.3 -6.65,40.02 -20.01,53.15 -13.29,13.12 -31.95,19.65 -55.85,19.65 -26.2,0 -46.91,-7.3 -62.04,-21.95 -15.19,-14.71 -22.78,-33.96 -22.78,-57.91 0,-17.13 4.41,-32.07 13.18,-44.91 8.83,-12.83 21.6,-22.72 38.5,-29.6 16.83,-6.89 36.67,-10.36 59.56,-10.36zm-86.87 84.87c0,16.48 5.3,29.19 15.89,38.14 10.59,9 25.31,13.47 44.15,13.47 16.6,0 29.6,-4.17 39.08,-12.41 9.47,-8.3 14.24,-20.89 14.24,-37.79 0,-10.47 -2.11,-20.13 -6.36,-28.9 -4.29,-8.83 -10.06,-15.72 -17.48,-20.77 -7.36,-5.07 -15.07,-7.6 -23.07,-7.6 -12.13,0 -23.26,2.36 -33.5,7.07 -10.24,4.71 -18.3,11.3 -24.19,19.72 -5.83,8.47 -8.77,18.18 -8.77,29.07z"/>
  <path class="fil4" d="M10999.27 10853.97l0 37.43 57.91 0 0 27.43 -57.91 0 0 122.66 -25.02 0 -170.64 -119.72 0 -30.37 169.51 0 0 -37.43 26.14 0zm-26.14 64.86l-83.81 0c-16.43,0 -35.03,-0.58 -55.68,-1.7l0 1.35c11,5.54 20.18,10.71 27.43,15.54l112.06 78.88 0 -94.06zm-42.32 -256.27c43.61,0 76.16,6.88 97.65,20.59 21.48,13.78 32.26,34.79 32.26,63.04 0,27.2 -11.01,47.79 -33.03,61.98 -22.01,14.13 -54.32,21.19 -96.88,21.19 -43.91,0 -76.46,-6.83 -97.77,-20.54 -21.25,-13.65 -31.9,-34.55 -31.9,-62.63 0,-27.37 11.12,-48.14 33.32,-62.33 22.19,-14.19 54.33,-21.3 96.36,-21.3zm-0.06 137.84c36.67,0 63.39,-4.29 80.17,-12.94 16.71,-8.65 25.07,-22.36 25.07,-41.27 0,-19.07 -8.47,-32.9 -25.43,-41.5 -17.01,-8.53 -43.55,-12.82 -79.81,-12.82 -36.2,0 -62.75,4.29 -79.64,12.82 -16.84,8.6 -25.25,22.42 -25.25,41.5 0,18.9 8.3,32.62 24.95,41.27 16.6,8.65 43.27,12.94 79.94,12.94zm126.43 -393.71l-26.9 5.71 0 1.41c11.83,9.42 19.89,18.78 24.14,28.14 4.17,9.42 6.3,21.07 6.3,35.08 0,18.78 -4.83,33.44 -14.49,44.09 -9.71,10.59 -23.43,15.95 -41.32,15.95 -38.2,0 -58.21,-30.54 -60.04,-91.52l-1.06 -32.09 -11.71 0c-14.78,0 -25.72,3.18 -32.79,9.54 -7.06,6.42 -10.59,16.6 -10.59,30.6 0,15.78 4.83,33.55 14.48,53.45l-21.89 8.77c-5.07,-9.3 -9.06,-19.48 -11.94,-30.55 -2.89,-11.12 -4.3,-22.24 -4.3,-33.37 0,-22.54 5.01,-39.2 15.02,-50.09 10,-10.89 26.01,-16.31 48.08,-16.31l129.02 0 0 21.19zm-20.13 64.69c0,-17.84 -4.89,-31.84 -14.66,-41.97 -9.77,-10.19 -23.43,-15.31 -41.02,-15.31l-17.07 0 1.24 28.66c0.76,22.72 4.29,39.14 10.59,49.2 6.24,10.07 16.01,15.08 29.19,15.08 10.36,0 18.25,-3.12 23.61,-9.42 5.42,-6.24 8.12,-15.01 8.12,-26.25zm-37.78 -401.25l0 37.43 57.91 0 0 27.43 -57.91 0 0 122.66 -25.02 0 -170.64 -119.72 0 -30.37 169.51 0 0 -37.43 26.14 0zm-26.14 64.86l-83.81 0c-16.43,0 -35.03,-0.58 -55.68,-1.7l0 1.35c11,5.54 20.18,10.71 27.43,15.54l112.06 78.88 0 -94.06zm26.14 -266.81l0 37.43 57.91 0 0 27.43 -57.91 0 0 122.66 -25.02 0 -170.64 -119.72 0 -30.37 169.51 0 0 -37.43 26.14 0zm-26.14 64.86l-83.81 0c-16.43,0 -35.03,-0.58 -55.68,-1.7l0 1.35c11,5.54 20.18,10.71 27.43,15.54l112.06 78.88 0 -94.06z"/>
  <path class="fil4" d="M12512.32 10855.61l0 37.43 57.91 0 0 27.43 -57.91 0 0 122.66 -25.02 0 -170.64 -119.72 0 -30.37 169.51 0 0 -37.43 26.14 0zm-26.14 64.86l-83.81 0c-16.43,0 -35.03,-0.58 -55.68,-1.7l0 1.35c11,5.54 20.18,10.71 27.43,15.54l112.06 78.88 0 -94.06zm-69.93 -167.92c0,-26.61 6.6,-47.5 19.78,-62.75 13.12,-15.25 31.19,-22.83 54.03,-22.83 26.14,0 46.62,8.3 61.45,24.9 14.84,16.66 22.25,39.55 22.25,68.75 0,28.43 -4.53,50.09 -13.65,65.04l-27.61 0c5.19,-8.06 9.18,-18.07 12.12,-30.02 2.94,-11.94 4.41,-23.72 4.41,-35.37 0,-20.25 -4.77,-35.97 -14.3,-47.15 -9.54,-11.24 -23.32,-16.83 -41.39,-16.83 -35.14,0 -52.74,21.54 -52.74,64.68 0,10.95 1.65,25.55 5.01,43.86l-9.48 14.83 -118.07 -9.53 0 -125.38 26.49 0 0 100.89 75.63 6.42c-2.64,-13.24 -3.94,-26.43 -3.94,-39.49zm153.98 -344.22l-26.9 5.71 0 1.41c11.83,9.42 19.89,18.78 24.14,28.14 4.17,9.42 6.3,21.07 6.3,35.08 0,18.78 -4.83,33.44 -14.49,44.09 -9.71,10.59 -23.43,15.95 -41.32,15.95 -38.2,0 -58.21,-30.54 -60.04,-91.52l-1.06 -32.09 -11.71 0c-14.78,0 -25.72,3.18 -32.79,9.54 -7.06,6.42 -10.59,16.6 -10.59,30.6 0,15.78 4.83,33.55 14.48,53.45l-21.89 8.77c-5.07,-9.3 -9.06,-19.48 -11.94,-30.55 -2.89,-11.12 -4.3,-22.24 -4.3,-33.37 0,-22.54 5.01,-39.2 15.02,-50.09 10,-10.89 26.01,-16.31 48.08,-16.31l129.02 0 0 21.19zm-20.13 64.69c0,-17.84 -4.89,-31.84 -14.66,-41.97 -9.77,-10.19 -23.43,-15.31 -41.02,-15.31l-17.07 0 1.24 28.66c0.76,22.72 4.29,39.14 10.59,49.2 6.24,10.07 16.01,15.08 29.19,15.08 10.36,0 18.25,-3.12 23.61,-9.42 5.42,-6.24 8.12,-15.01 8.12,-26.25zm-37.78 -401.25l0 37.43 57.91 0 0 27.43 -57.91 0 0 122.66 -25.02 0 -170.64 -119.72 0 -30.37 169.51 0 0 -37.43 26.14 0zm-26.14 64.86l-83.81 0c-16.43,0 -35.03,-0.58 -55.68,-1.7l0 1.35c11,5.54 20.18,10.71 27.43,15.54l112.06 78.88 0 -94.06zm-60.39 -254.92c98.65,0 147.97,38.2 147.97,114.53 0,13.36 -1.18,23.96 -3.47,31.78l-24.67 0c3,-9.24 4.47,-19.66 4.47,-31.42 0,-27.61 -8.53,-48.44 -25.6,-62.51 -17.07,-14.14 -43.27,-21.78 -78.59,-23.08l0 2.11c9.54,6.31 16.84,14.72 21.84,25.2 5.01,10.42 7.47,22.24 7.47,35.32 0,22.3 -6.65,40.02 -20.01,53.15 -13.29,13.12 -31.95,19.65 -55.85,19.65 -26.2,0 -46.91,-7.3 -62.04,-21.95 -15.19,-14.71 -22.78,-33.96 -22.78,-57.91 0,-17.13 4.41,-32.07 13.18,-44.91 8.83,-12.83 21.6,-22.72 38.5,-29.6 16.83,-6.89 36.67,-10.36 59.56,-10.36zm-86.87 84.87c0,16.48 5.3,29.19 15.89,38.14 10.59,9 25.31,13.47 44.15,13.47 16.6,0 29.6,-4.17 39.08,-12.41 9.47,-8.3 14.24,-20.89 14.24,-37.79 0,-10.47 -2.11,-20.13 -6.36,-28.9 -4.29,-8.83 -10.06,-15.72 -17.48,-20.77 -7.36,-5.07 -15.07,-7.6 -23.07,-7.6 -12.13,0 -23.26,2.36 -33.5,7.07 -10.24,4.71 -18.3,11.3 -24.19,19.72 -5.83,8.47 -8.77,18.18 -8.77,29.07z"/>
  <path class="fil4" d="M13881.45 11236.99c0,-26.61 6.6,-47.5 19.78,-62.75 13.12,-15.25 31.19,-22.83 54.03,-22.83 26.14,0 46.62,8.3 61.45,24.9 14.84,16.66 22.25,39.55 22.25,68.75 0,28.43 -4.53,50.09 -13.65,65.04l-27.61 0c5.19,-8.06 9.18,-18.07 12.12,-30.02 2.94,-11.94 4.41,-23.72 4.41,-35.37 0,-20.25 -4.77,-35.97 -14.3,-47.15 -9.54,-11.24 -23.32,-16.83 -41.39,-16.83 -35.14,0 -52.74,21.54 -52.74,64.68 0,10.95 1.65,25.55 5.01,43.86l-9.48 14.83 -118.07 -9.53 0 -125.38 26.49 0 0 100.89 75.63 6.42c-2.64,-13.24 -3.94,-26.43 -3.94,-39.49zm27.61 -290.3c43.61,0 76.16,6.88 97.65,20.59 21.48,13.78 32.26,34.79 32.26,63.04 0,27.2 -11.01,47.79 -33.03,61.98 -22.01,14.13 -54.32,21.19 -96.88,21.19 -43.91,0 -76.46,-6.83 -97.77,-20.54 -21.25,-13.65 -31.9,-34.55 -31.9,-62.63 0,-27.37 11.12,-48.14 33.32,-62.33 22.19,-14.19 54.33,-21.3 96.36,-21.3zm-0.06 137.84c36.67,0 63.39,-4.29 80.17,-12.94 16.71,-8.65 25.07,-22.36 25.07,-41.27 0,-19.07 -8.47,-32.9 -25.43,-41.5 -17.01,-8.53 -43.55,-12.82 -79.81,-12.82 -36.2,0 -62.75,4.29 -79.64,12.82 -16.84,8.6 -25.25,22.42 -25.25,41.5 0,18.9 8.3,32.62 24.95,41.27 16.6,8.65 43.27,12.94 79.94,12.94zm-62.51 -247.5l0 -30.66 107.71 -41.45c24.61,-9.06 42.39,-14.72 53.27,-16.89l0 -1.35c-5.89,-1.53 -15.89,-4.66 -30.07,-9.42 -14.19,-4.77 -57.8,-20.36 -130.9,-46.85l0 -30.66 215.06 81.22c21.31,8.07 36.38,17.43 45.27,28.2 8.89,10.77 13.35,23.96 13.35,39.61 0,8.71 -0.99,17.36 -2.88,25.84l-22.83 0c1.35,-6.3 2.06,-13.36 2.06,-21.19 0,-19.66 -11.06,-33.73 -33.08,-42.09l-26.96 -10.53 -190 76.22zm188.94 -540.51l-122.95 0c-15.02,0 -26.31,3.18 -33.85,9.65 -7.54,6.42 -11.3,16.43 -11.3,29.96 0,17.84 5.13,30.96 15.37,39.49 10.24,8.48 25.96,12.77 47.2,12.77l105.54 0 0 28.6 -122.95 0c-15.02,0 -26.31,3.24 -33.85,9.66 -7.54,6.42 -11.3,16.48 -11.3,30.19 0,17.89 5.36,31.01 16.13,39.37 10.71,8.3 28.37,12.48 52.86,12.48l99.12 0 0 28.6 -188.94 0 0 -23.25 25.78 -4.66 0 -1.41c-9.18,-5.36 -16.36,-13 -21.54,-22.83 -5.18,-9.83 -7.77,-20.83 -7.77,-33.02 0,-29.49 10.71,-48.85 32.07,-57.92l0 -1.35c-9.88,-5.66 -17.71,-13.84 -23.49,-24.49 -5.71,-10.71 -8.59,-22.89 -8.59,-36.55 0,-21.36 5.48,-37.38 16.48,-48.03 10.95,-10.59 28.55,-15.95 52.68,-15.95l123.31 0 0 28.66zm0 -203.88l-26.9 5.71 0 1.41c11.83,9.42 19.89,18.78 24.14,28.14 4.17,9.42 6.3,21.07 6.3,35.08 0,18.78 -4.83,33.44 -14.49,44.09 -9.71,10.59 -23.43,15.95 -41.32,15.95 -38.2,0 -58.21,-30.54 -60.04,-91.52l-1.06 -32.09 -11.71 0c-14.78,0 -25.72,3.18 -32.79,9.54 -7.06,6.42 -10.59,16.6 -10.59,30.6 0,15.78 4.83,33.55 14.48,53.45l-21.89 8.77c-5.07,-9.3 -9.06,-19.48 -11.94,-30.55 -2.89,-11.12 -4.3,-22.24 -4.3,-33.37 0,-22.54 5.01,-39.2 15.02,-50.09 10,-10.89 26.01,-16.31 48.08,-16.31l129.02 0 0 21.19zm-20.13 64.69c0,-17.84 -4.89,-31.84 -14.66,-41.97 -9.77,-10.19 -23.43,-15.31 -41.02,-15.31l-17.07 0 1.24 28.66c0.76,22.72 4.29,39.14 10.59,49.2 6.24,10.07 16.01,15.08 29.19,15.08 10.36,0 18.25,-3.12 23.61,-9.42 5.42,-6.24 8.12,-15.01 8.12,-26.25zm-198.18 6.71c-7.12,-5.54 -15.72,-11.48 -25.84,-17.84 -10.12,-6.41 -18.89,-11.41 -26.37,-15.07l0 -34.84 3.58 0c7.48,5.06 16.66,12.59 27.61,22.59 10.89,9.95 19.36,18.66 25.31,26.02l0 19.13 -4.29 0zm166.8 -273.52c17.6,0 31.2,6.59 40.73,19.65 9.54,13.13 14.31,31.49 14.31,55.21 0,25.02 -3.94,44.56 -11.89,58.62l-26.6 0c4.59,-9.12 8.24,-18.83 10.88,-29.25 2.65,-10.41 3.94,-20.42 3.94,-30.07 0,-14.95 -2.41,-26.43 -7.18,-34.49 -4.77,-8.07 -12.01,-12.07 -21.78,-12.07 -7.35,0 -13.65,3.18 -18.89,9.6 -5.24,6.36 -11.41,18.77 -18.54,37.31 -6.59,17.6 -12.3,30.08 -17.19,37.49 -4.89,7.42 -10.41,12.95 -16.66,16.55 -6.18,3.64 -13.59,5.41 -22.24,5.41 -15.42,0 -27.55,-6.24 -36.49,-18.77 -8.89,-12.53 -13.36,-29.72 -13.36,-51.57 0,-20.3 4.12,-40.19 12.42,-59.62l23.31 10.18c-7.83,18.95 -11.71,36.14 -11.71,51.5 0,13.59 2.12,23.84 6.36,30.72 4.29,6.89 10.12,10.36 17.6,10.36 5.06,0 9.36,-1.29 12.94,-3.88 3.53,-2.59 6.95,-6.77 10.18,-12.53 3.18,-5.72 7.89,-16.78 13.96,-33.09 8.18,-22.42 16.42,-37.55 24.66,-45.43 8.3,-7.89 18.72,-11.83 31.25,-11.83z"/>
 </g>
</svg>
