<?xml version="1.0" encoding="UTF-8"?>
<!DOCTYPE svg PUBLIC "-//W3C//DTD SVG 1.1//EN" "http://www.w3.org/Graphics/SVG/1.1/DTD/svg11.dtd">
<!-- Creator: CorelDRAW 2017 -->
<svg xmlns="http://www.w3.org/2000/svg" xml:space="preserve" width="141.209mm" height="99.6638mm" version="1.1" style="shape-rendering:geometricPrecision; text-rendering:geometricPrecision; image-rendering:optimizeQuality; fill-rule:evenodd; clip-rule:evenodd"
viewBox="0 0 14838.19 10472.62"
 xmlns:xlink="http://www.w3.org/1999/xlink">
 <defs>
  <style type="text/css">
   <![CDATA[
    .str0 {stroke:#D9D9D9;stroke-width:4.44;stroke-miterlimit:22.9256}
    .fil0 {fill:teal;fill-rule:nonzero}
    .fil2 {fill:#595959;fill-rule:nonzero}
    .fil1 {fill:#D9D9D9;fill-rule:nonzero}
   ]]>
  </style>
 </defs>
 <g id="Capa_x0020_1">
  <metadata id="CorelCorpID_0Corel-Layer"/>
  <path class="fil0" d="M1130.96 1309.64l827.37 0 0 7802.2 -827.37 0 0 -7802.2zm1156.55 4643.95l827.36 0 0 3158.25 -827.36 0 0 -3158.25zm1156.54 885.2l822.93 0 0 2273.05 -822.93 0 0 -2273.05zm1156.55 2259.7l822.91 0 0 13.35 -822.91 0 0 -13.35z"/>
  <polygon class="fil1 str0" points="966.38,9098.49 14835.97,9098.49 14835.97,9125.18 966.38,9125.18 "/>
  <path class="fil2" d="M185.77 9103.74c0,45.77 -7.22,79.94 -21.61,102.49 -14.46,22.55 -36.52,33.86 -66.17,33.86 -28.55,0 -50.16,-11.56 -65.05,-34.67 -14.83,-23.11 -22.25,-57.02 -22.25,-101.69 0,-46.09 7.17,-80.26 21.56,-102.62 14.33,-22.31 36.26,-33.49 65.74,-33.49 28.73,0 50.53,11.67 65.42,34.97 14.89,23.3 22.36,57.03 22.36,101.14zm-144.68 -0.06c0,38.49 4.51,66.54 13.59,84.15 9.08,17.54 23.47,26.31 43.31,26.31 20.02,0 34.53,-8.89 43.56,-26.69 8.95,-17.85 13.46,-45.71 13.46,-83.77 0,-38 -4.51,-65.86 -13.46,-83.59 -9.03,-17.67 -23.54,-26.5 -43.56,-26.5 -19.84,0 -34.23,8.71 -43.31,26.19 -9.08,17.42 -13.59,45.42 -13.59,83.91zm190.59 113.49c0,-8.03 1.86,-14.14 5.51,-18.28 3.7,-4.14 8.95,-6.24 15.88,-6.24 6.98,0 12.41,2.1 16.37,6.24 3.89,4.14 5.86,10.26 5.86,18.28 0,7.85 -1.98,13.9 -5.93,18.11 -4.01,4.2 -9.46,6.3 -16.31,6.3 -6.18,0 -11.24,-1.91 -15.32,-5.68 -4.02,-3.77 -6.06,-10.01 -6.06,-18.73zm264.74 -113.42c0,45.77 -7.22,79.94 -21.61,102.49 -14.46,22.55 -36.52,33.86 -66.17,33.86 -28.55,0 -50.16,-11.56 -65.05,-34.67 -14.83,-23.11 -22.25,-57.02 -22.25,-101.69 0,-46.09 7.17,-80.26 21.56,-102.62 14.33,-22.31 36.26,-33.49 65.74,-33.49 28.73,0 50.53,11.67 65.42,34.97 14.89,23.3 22.36,57.03 22.36,101.14zm-144.68 -0.06c0,38.49 4.51,66.54 13.59,84.15 9.08,17.54 23.47,26.31 43.31,26.31 20.02,0 34.53,-8.89 43.56,-26.69 8.95,-17.85 13.46,-45.71 13.46,-83.77 0,-38 -4.51,-65.86 -13.46,-83.59 -9.03,-17.67 -23.54,-26.5 -43.56,-26.5 -19.84,0 -34.23,8.71 -43.31,26.19 -9.08,17.42 -13.59,45.42 -13.59,83.91z"/>
  <path class="fil2" d="M185.77 7982.78c0,45.77 -7.22,79.94 -21.61,102.49 -14.46,22.55 -36.52,33.86 -66.17,33.86 -28.55,0 -50.16,-11.56 -65.05,-34.67 -14.83,-23.11 -22.25,-57.02 -22.25,-101.69 0,-46.09 7.17,-80.26 21.56,-102.62 14.33,-22.31 36.26,-33.49 65.74,-33.49 28.73,0 50.53,11.67 65.42,34.97 14.89,23.3 22.36,57.03 22.36,101.14zm-144.68 -0.06c0,38.49 4.51,66.54 13.59,84.15 9.08,17.54 23.47,26.31 43.31,26.31 20.02,0 34.53,-8.89 43.56,-26.69 8.95,-17.85 13.46,-45.71 13.46,-83.77 0,-38 -4.51,-65.86 -13.46,-83.59 -9.03,-17.67 -23.54,-26.5 -43.56,-26.5 -19.84,0 -34.23,8.71 -43.31,26.19 -9.08,17.42 -13.59,45.42 -13.59,83.91zm190.59 113.49c0,-8.03 1.86,-14.14 5.51,-18.28 3.7,-4.14 8.95,-6.24 15.88,-6.24 6.98,0 12.41,2.1 16.37,6.24 3.89,4.14 5.86,10.26 5.86,18.28 0,7.85 -1.98,13.9 -5.93,18.11 -4.01,4.2 -9.46,6.3 -16.31,6.3 -6.18,0 -11.24,-1.91 -15.32,-5.68 -4.02,-3.77 -6.06,-10.01 -6.06,-18.73zm172 -142.4c27.93,0 49.86,6.92 65.86,20.76 16,13.78 23.97,32.74 23.97,56.71 0,27.44 -8.71,48.94 -26.13,64.5 -17.49,15.57 -41.52,23.36 -72.16,23.36 -29.84,0 -52.58,-4.76 -68.27,-14.33l0 -28.98c8.46,5.44 18.97,9.64 31.51,12.73 12.54,3.09 24.89,4.63 37.12,4.63 21.26,0 37.76,-5 49.49,-15.01 11.8,-10.01 17.66,-24.47 17.66,-43.44 0,-36.88 -22.61,-55.36 -67.89,-55.36 -11.5,0 -26.82,1.73 -46.04,5.25l-15.56 -9.95 10 -123.93 131.6 0 0 27.8 -105.9 0 -6.74 79.39c13.9,-2.77 27.74,-4.14 41.45,-4.14z"/>
  <path class="fil2" d="M121.65 6994.47l-29.29 0 0 -188.62c0,-15.7 0.49,-30.53 1.42,-44.48 -2.53,2.53 -5.38,5.19 -8.52,7.97 -3.09,2.78 -17.49,14.52 -43.06,35.34l-15.94 -20.69 70.06 -54.19 25.33 0 0 264.67zm110.03 -19.22c0,-8.03 1.86,-14.14 5.51,-18.28 3.7,-4.14 8.95,-6.24 15.88,-6.24 6.98,0 12.41,2.1 16.37,6.24 3.89,4.14 5.86,10.26 5.86,18.28 0,7.85 -1.98,13.9 -5.93,18.11 -4.01,4.2 -9.46,6.3 -16.31,6.3 -6.18,0 -11.24,-1.91 -15.32,-5.68 -4.02,-3.77 -6.06,-10.01 -6.06,-18.73zm264.74 -113.42c0,45.77 -7.22,79.94 -21.61,102.49 -14.46,22.55 -36.52,33.86 -66.17,33.86 -28.55,0 -50.16,-11.56 -65.05,-34.67 -14.83,-23.11 -22.25,-57.02 -22.25,-101.69 0,-46.09 7.17,-80.26 21.56,-102.62 14.33,-22.31 36.26,-33.49 65.74,-33.49 28.73,0 50.53,11.67 65.42,34.97 14.89,23.3 22.36,57.03 22.36,101.14zm-144.68 -0.06c0,38.49 4.51,66.54 13.59,84.15 9.08,17.54 23.47,26.31 43.31,26.31 20.02,0 34.53,-8.89 43.56,-26.69 8.95,-17.85 13.46,-45.71 13.46,-83.77 0,-38 -4.51,-65.86 -13.46,-83.59 -9.03,-17.67 -23.54,-26.5 -43.56,-26.5 -19.84,0 -34.23,8.71 -43.31,26.19 -9.08,17.42 -13.59,45.42 -13.59,83.91z"/>
  <path class="fil2" d="M121.65 5873.51l-29.29 0 0 -188.62c0,-15.7 0.49,-30.53 1.42,-44.48 -2.53,2.53 -5.38,5.19 -8.52,7.97 -3.09,2.78 -17.49,14.52 -43.06,35.34l-15.94 -20.69 70.06 -54.19 25.33 0 0 264.67zm110.03 -19.22c0,-8.03 1.86,-14.14 5.51,-18.28 3.7,-4.14 8.95,-6.24 15.88,-6.24 6.98,0 12.41,2.1 16.37,6.24 3.89,4.14 5.86,10.26 5.86,18.28 0,7.85 -1.98,13.9 -5.93,18.11 -4.01,4.2 -9.46,6.3 -16.31,6.3 -6.18,0 -11.24,-1.91 -15.32,-5.68 -4.02,-3.77 -6.06,-10.01 -6.06,-18.73zm172 -142.4c27.93,0 49.86,6.92 65.86,20.76 16,13.78 23.97,32.74 23.97,56.71 0,27.44 -8.71,48.94 -26.13,64.5 -17.49,15.57 -41.52,23.36 -72.16,23.36 -29.84,0 -52.58,-4.76 -68.27,-14.33l0 -28.98c8.46,5.44 18.97,9.64 31.51,12.73 12.54,3.09 24.89,4.63 37.12,4.63 21.26,0 37.76,-5 49.49,-15.01 11.8,-10.01 17.66,-24.47 17.66,-43.44 0,-36.88 -22.61,-55.36 -67.89,-55.36 -11.5,0 -26.82,1.73 -46.04,5.25l-15.56 -9.95 10 -123.93 131.6 0 0 27.8 -105.9 0 -6.74 79.39c13.9,-2.77 27.74,-4.14 41.45,-4.14z"/>
  <path class="fil2" d="M184.35 4752.57l-174.03 0 0 -25.89 69.75 -70.06c21.18,-21.5 35.21,-36.82 42.01,-46.02 6.74,-9.14 11.8,-18.11 15.19,-26.75 3.34,-8.71 5.06,-18.04 5.06,-28.11 0,-14.09 -4.32,-25.27 -12.85,-33.55 -8.58,-8.28 -20.51,-12.41 -35.71,-12.41 -11,0 -21.37,1.79 -31.2,5.43 -9.89,3.58 -20.83,10.19 -32.87,19.71l-15.94 -20.46c24.34,-20.2 50.91,-30.27 79.64,-30.27 24.89,0 44.35,6.37 58.51,19.09 14.14,12.73 21.18,29.84 21.18,51.34 0,16.74 -4.7,33.36 -14.14,49.8 -9.39,16.37 -27.01,37.14 -52.89,62.22l-57.95 56.71 0 1.42 136.23 0 0 27.8zm47.33 -19.22c0,-8.03 1.86,-14.14 5.51,-18.28 3.7,-4.14 8.95,-6.24 15.88,-6.24 6.98,0 12.41,2.1 16.37,6.24 3.89,4.14 5.86,10.26 5.86,18.28 0,7.85 -1.98,13.9 -5.93,18.11 -4.01,4.2 -9.46,6.3 -16.31,6.3 -6.18,0 -11.24,-1.91 -15.32,-5.68 -4.02,-3.77 -6.06,-10.01 -6.06,-18.73zm264.74 -113.42c0,45.77 -7.22,79.94 -21.61,102.49 -14.46,22.55 -36.52,33.86 -66.17,33.86 -28.55,0 -50.16,-11.56 -65.05,-34.67 -14.83,-23.11 -22.25,-57.02 -22.25,-101.69 0,-46.09 7.17,-80.26 21.56,-102.62 14.33,-22.31 36.26,-33.49 65.74,-33.49 28.73,0 50.53,11.67 65.42,34.97 14.89,23.3 22.36,57.03 22.36,101.14zm-144.68 -0.06c0,38.49 4.51,66.54 13.59,84.15 9.08,17.54 23.47,26.31 43.31,26.31 20.02,0 34.53,-8.89 43.56,-26.69 8.95,-17.85 13.46,-45.71 13.46,-83.77 0,-38 -4.51,-65.86 -13.46,-83.59 -9.03,-17.67 -23.54,-26.5 -43.56,-26.5 -19.84,0 -34.23,8.71 -43.31,26.19 -9.08,17.42 -13.59,45.42 -13.59,83.91z"/>
  <path class="fil2" d="M184.35 3631.61l-174.03 0 0 -25.89 69.75 -70.06c21.18,-21.5 35.21,-36.82 42.01,-46.02 6.74,-9.14 11.8,-18.11 15.19,-26.75 3.34,-8.71 5.06,-18.04 5.06,-28.11 0,-14.09 -4.32,-25.27 -12.85,-33.55 -8.58,-8.28 -20.51,-12.41 -35.71,-12.41 -11,0 -21.37,1.79 -31.2,5.43 -9.89,3.58 -20.83,10.19 -32.87,19.71l-15.94 -20.46c24.34,-20.2 50.91,-30.27 79.64,-30.27 24.89,0 44.35,6.37 58.51,19.09 14.14,12.73 21.18,29.84 21.18,51.34 0,16.74 -4.7,33.36 -14.14,49.8 -9.39,16.37 -27.01,37.14 -52.89,62.22l-57.95 56.71 0 1.42 136.23 0 0 27.8zm47.33 -19.22c0,-8.03 1.86,-14.14 5.51,-18.28 3.7,-4.14 8.95,-6.24 15.88,-6.24 6.98,0 12.41,2.1 16.37,6.24 3.89,4.14 5.86,10.26 5.86,18.28 0,7.85 -1.98,13.9 -5.93,18.11 -4.01,4.2 -9.46,6.3 -16.31,6.3 -6.18,0 -11.24,-1.91 -15.32,-5.68 -4.02,-3.77 -6.06,-10.01 -6.06,-18.73zm172 -142.4c27.93,0 49.86,6.92 65.86,20.76 16,13.78 23.97,32.74 23.97,56.71 0,27.44 -8.71,48.94 -26.13,64.5 -17.49,15.57 -41.52,23.36 -72.16,23.36 -29.84,0 -52.58,-4.76 -68.27,-14.33l0 -28.98c8.46,5.44 18.97,9.64 31.51,12.73 12.54,3.09 24.89,4.63 37.12,4.63 21.26,0 37.76,-5 49.49,-15.01 11.8,-10.01 17.66,-24.47 17.66,-43.44 0,-36.88 -22.61,-55.36 -67.89,-55.36 -11.5,0 -26.82,1.73 -46.04,5.25l-15.56 -9.95 10 -123.93 131.6 0 0 27.8 -105.9 0 -6.74 79.39c13.9,-2.77 27.74,-4.14 41.45,-4.14z"/>
  <path class="fil2" d="M174.35 2308.33c0,16.87 -4.7,30.64 -14.22,41.39 -9.45,10.75 -22.85,17.92 -40.28,21.5l0 1.48c21.26,2.66 37.01,9.39 47.26,20.27 10.26,10.87 15.38,25.15 15.38,42.75 0,25.27 -8.71,44.67 -26.26,58.27 -17.49,13.59 -42.32,20.39 -74.56,20.39 -14.03,0 -26.82,-1.05 -38.49,-3.15 -11.62,-2.16 -22.99,-5.87 -33.92,-11.18l0 -28.6c11.42,5.62 23.66,9.94 36.63,12.9 12.98,2.97 25.27,4.46 36.88,4.46 45.72,0 68.59,-17.92 68.59,-53.76 0,-32.12 -25.21,-48.19 -75.69,-48.19l-26.07 0 0 -25.94 26.44 0c20.64,0 37.01,-4.57 49.06,-13.65 12.11,-9.14 18.16,-21.75 18.16,-37.93 0,-12.91 -4.44,-23.04 -13.35,-30.4 -8.89,-7.36 -20.88,-11.05 -36.14,-11.05 -11.56,0 -22.49,1.54 -32.74,4.69 -10.26,3.15 -21.99,8.96 -35.16,17.37l-15.19 -20.27c10.88,-8.52 23.41,-15.19 37.57,-20.08 14.21,-4.88 29.1,-7.29 44.78,-7.29 25.77,0 45.72,5.87 59.99,17.61 14.22,11.8 21.32,27.93 21.32,48.44zm57.33 183.11c0,-8.03 1.86,-14.14 5.51,-18.28 3.7,-4.14 8.95,-6.24 15.88,-6.24 6.98,0 12.41,2.1 16.37,6.24 3.89,4.14 5.86,10.26 5.86,18.28 0,7.85 -1.98,13.9 -5.93,18.11 -4.01,4.2 -9.46,6.3 -16.31,6.3 -6.18,0 -11.24,-1.91 -15.32,-5.68 -4.02,-3.77 -6.06,-10.01 -6.06,-18.73zm264.74 -113.42c0,45.77 -7.22,79.94 -21.61,102.49 -14.46,22.55 -36.52,33.86 -66.17,33.86 -28.55,0 -50.16,-11.56 -65.05,-34.67 -14.83,-23.11 -22.25,-57.02 -22.25,-101.69 0,-46.09 7.17,-80.26 21.56,-102.62 14.33,-22.31 36.26,-33.49 65.74,-33.49 28.73,0 50.53,11.67 65.42,34.97 14.89,23.3 22.36,57.03 22.36,101.14zm-144.68 -0.06c0,38.49 4.51,66.54 13.59,84.15 9.08,17.54 23.47,26.31 43.31,26.31 20.02,0 34.53,-8.89 43.56,-26.69 8.95,-17.85 13.46,-45.71 13.46,-83.77 0,-38 -4.51,-65.86 -13.46,-83.59 -9.03,-17.67 -23.54,-26.5 -43.56,-26.5 -19.84,0 -34.23,8.71 -43.31,26.19 -9.08,17.42 -13.59,45.42 -13.59,83.91z"/>
  <path class="fil2" d="M174.35 1187.38c0,16.87 -4.7,30.64 -14.22,41.39 -9.45,10.75 -22.85,17.92 -40.28,21.5l0 1.48c21.26,2.66 37.01,9.39 47.26,20.27 10.26,10.87 15.38,25.15 15.38,42.75 0,25.27 -8.71,44.67 -26.26,58.27 -17.49,13.59 -42.32,20.39 -74.56,20.39 -14.03,0 -26.82,-1.05 -38.49,-3.15 -11.62,-2.16 -22.99,-5.87 -33.92,-11.18l0 -28.6c11.42,5.62 23.66,9.94 36.63,12.9 12.98,2.97 25.27,4.46 36.88,4.46 45.72,0 68.59,-17.92 68.59,-53.76 0,-32.12 -25.21,-48.19 -75.69,-48.19l-26.07 0 0 -25.94 26.44 0c20.64,0 37.01,-4.57 49.06,-13.65 12.11,-9.14 18.16,-21.75 18.16,-37.93 0,-12.91 -4.44,-23.04 -13.35,-30.4 -8.89,-7.36 -20.88,-11.05 -36.14,-11.05 -11.56,0 -22.49,1.54 -32.74,4.69 -10.26,3.15 -21.99,8.96 -35.16,17.37l-15.19 -20.27c10.88,-8.52 23.41,-15.19 37.57,-20.08 14.21,-4.88 29.1,-7.29 44.78,-7.29 25.77,0 45.72,5.87 59.99,17.61 14.22,11.8 21.32,27.93 21.32,48.44zm57.33 183.11c0,-8.03 1.86,-14.14 5.51,-18.28 3.7,-4.14 8.95,-6.24 15.88,-6.24 6.98,0 12.41,2.1 16.37,6.24 3.89,4.14 5.86,10.26 5.86,18.28 0,7.85 -1.98,13.9 -5.93,18.11 -4.01,4.2 -9.46,6.3 -16.31,6.3 -6.18,0 -11.24,-1.91 -15.32,-5.68 -4.02,-3.77 -6.06,-10.01 -6.06,-18.73zm172 -142.4c27.93,0 49.86,6.92 65.86,20.76 16,13.78 23.97,32.74 23.97,56.71 0,27.44 -8.71,48.94 -26.13,64.5 -17.49,15.57 -41.52,23.36 -72.16,23.36 -29.84,0 -52.58,-4.76 -68.27,-14.33l0 -28.98c8.46,5.44 18.97,9.64 31.51,12.73 12.54,3.09 24.89,4.63 37.12,4.63 21.26,0 37.76,-5 49.49,-15.01 11.8,-10.01 17.66,-24.47 17.66,-43.44 0,-36.88 -22.61,-55.36 -67.89,-55.36 -11.5,0 -26.82,1.73 -46.04,5.25l-15.56 -9.95 10 -123.93 131.6 0 0 27.8 -105.9 0 -6.74 79.39c13.9,-2.77 27.74,-4.14 41.45,-4.14z"/>
  <path class="fil2" d="M196.83 207.96l-39.29 0 0 60.79 -28.79 0 0 -60.79 -128.75 0 0 -26.26 125.66 -179.11 31.88 0 0 177.93 39.29 0 0 27.44zm-68.08 -27.44l0 -87.97c0,-17.24 0.61,-36.77 1.79,-58.45l-1.42 0c-5.81,11.55 -11.24,21.18 -16.31,28.79l-82.79 117.63 98.73 0zm102.93 69.01c0,-8.03 1.86,-14.14 5.51,-18.28 3.7,-4.14 8.95,-6.24 15.88,-6.24 6.98,0 12.41,2.1 16.37,6.24 3.89,4.14 5.86,10.26 5.86,18.28 0,7.85 -1.98,13.9 -5.93,18.11 -4.01,4.2 -9.46,6.3 -16.31,6.3 -6.18,0 -11.24,-1.91 -15.32,-5.68 -4.02,-3.77 -6.06,-10.01 -6.06,-18.73zm264.74 -113.42c0,45.77 -7.22,79.94 -21.61,102.49 -14.46,22.55 -36.52,33.86 -66.17,33.86 -28.55,0 -50.16,-11.56 -65.05,-34.67 -14.83,-23.11 -22.25,-57.02 -22.25,-101.69 0,-46.09 7.17,-80.26 21.56,-102.62 14.33,-22.31 36.26,-33.49 65.74,-33.49 28.73,0 50.53,11.67 65.42,34.97 14.89,23.3 22.36,57.03 22.36,101.14zm-144.68 -0.06c0,38.49 4.51,66.54 13.59,84.15 9.08,17.54 23.47,26.31 43.31,26.31 20.02,0 34.53,-8.89 43.56,-26.69 8.95,-17.85 13.46,-45.71 13.46,-83.77 0,-38 -4.51,-65.86 -13.46,-83.59 -9.03,-17.67 -23.54,-26.5 -43.56,-26.5 -19.84,0 -34.23,8.71 -43.31,26.19 -9.08,17.42 -13.59,45.42 -13.59,83.91z"/>
  <path class="fil2" d="M1322.24 9818.36c-29.34,0 -52.45,-8.96 -69.37,-26.82 -16.99,-17.85 -25.46,-42.69 -25.46,-74.45 0,-32 7.85,-57.39 23.6,-76.24 15.76,-18.84 36.88,-28.23 63.46,-28.23 24.83,0 44.54,8.15 59,24.53 14.45,16.37 21.74,37.93 21.74,64.69l0 19.03 -136.66 0c0.61,23.29 6.48,40.96 17.6,53.07 11.19,12.05 26.88,18.11 47.2,18.11 21.32,0 42.44,-4.44 63.33,-13.41l0 26.82c-10.63,4.63 -20.7,7.91 -30.15,9.95 -9.46,1.98 -20.89,2.96 -34.3,2.96zm-8.15 -180.53c-15.94,0 -28.6,5.19 -38.05,15.57 -9.52,10.31 -15.08,24.64 -16.75,43l103.67 0c0,-18.9 -4.2,-33.43 -12.66,-43.5 -8.47,-10.07 -20.51,-15.07 -36.21,-15.07zm268.13 176.82l0 -128.32c0,-16.18 -3.65,-28.23 -11.05,-36.2 -7.36,-7.98 -18.91,-11.93 -34.6,-11.93 -20.75,0 -35.96,5.62 -45.59,16.8 -9.7,11.24 -14.52,29.78 -14.52,55.61l0 104.04 -30.02 0 0 -198.32 24.4 0 4.89 27.06 1.48 0c6.18,-9.76 14.76,-17.36 25.88,-22.74 11.13,-5.37 23.49,-8.03 37.14,-8.03 23.91,0 41.88,5.75 53.94,17.3 12.11,11.5 18.09,29.97 18.09,55.29l0 129.44 -30.02 0zm175.51 3.71c-29.34,0 -52.45,-8.96 -69.37,-26.82 -16.99,-17.85 -25.46,-42.69 -25.46,-74.45 0,-32 7.85,-57.39 23.6,-76.24 15.76,-18.84 36.88,-28.23 63.46,-28.23 24.83,0 44.54,8.15 59,24.53 14.45,16.37 21.74,37.93 21.74,64.69l0 19.03 -136.66 0c0.61,23.29 6.48,40.96 17.6,53.07 11.19,12.05 26.88,18.11 47.2,18.11 21.32,0 42.44,-4.44 63.33,-13.41l0 26.82c-10.63,4.63 -20.7,7.91 -30.15,9.95 -9.46,1.98 -20.89,2.96 -34.3,2.96zm-8.15 -180.53c-15.94,0 -28.6,5.19 -38.05,15.57 -9.52,10.31 -15.08,24.64 -16.75,43l103.67 0c0,-18.9 -4.2,-33.43 -12.66,-43.5 -8.47,-10.07 -20.51,-15.07 -36.21,-15.07z"/>
  <path class="fil2" d="M2524.43 9639.68l-50.47 0 0 174.97 -30.08 0 0 -174.97 -35.46 0 0 -13.59 35.46 -10.88 0 -11.05c0,-48.75 21.31,-73.09 63.94,-73.09 10.5,0 22.79,2.1 36.88,6.37l-7.79 24.09c-11.55,-3.77 -21.44,-5.62 -29.65,-5.62 -11.37,0 -19.71,3.76 -25.15,11.31 -5.43,7.53 -8.15,19.64 -8.15,36.26l0 12.85 50.47 0 0 23.35zm119.98 178.68c-29.34,0 -52.45,-8.96 -69.37,-26.82 -16.99,-17.85 -25.46,-42.69 -25.46,-74.45 0,-32 7.85,-57.39 23.6,-76.24 15.76,-18.84 36.88,-28.23 63.46,-28.23 24.83,0 44.54,8.15 59,24.53 14.45,16.37 21.74,37.93 21.74,64.69l0 19.03 -136.66 0c0.61,23.29 6.48,40.96 17.6,53.07 11.19,12.05 26.88,18.11 47.2,18.11 21.32,0 42.44,-4.44 63.33,-13.41l0 26.82c-10.63,4.63 -20.7,7.91 -30.15,9.95 -9.46,1.98 -20.89,2.96 -34.3,2.96zm-8.15 -180.53c-15.94,0 -28.6,5.19 -38.05,15.57 -9.52,10.31 -15.08,24.64 -16.75,43l103.67 0c0,-18.9 -4.2,-33.43 -12.66,-43.5 -8.47,-10.07 -20.51,-15.07 -36.21,-15.07zm224.64 -24.84c26.07,0 46.33,8.9 60.79,26.69 14.4,17.85 21.63,43.06 21.63,75.63 0,32.62 -7.29,57.95 -21.8,75.99 -14.59,18.03 -34.73,27.06 -60.61,27.06 -12.91,0 -24.71,-2.42 -35.4,-7.17 -10.62,-4.76 -19.65,-12.12 -26.88,-21.99l-2.16 0 -6.36 25.45 -21.5 0 0 -281.73 30.02 0 0 68.46c0,15.32 -0.49,29.1 -1.42,41.33l1.42 0c14.03,-19.83 34.78,-29.72 62.28,-29.72zm-4.33 25.21c-20.51,0 -35.28,5.87 -44.35,17.67 -9.09,11.74 -13.6,31.57 -13.6,59.43 0,27.86 4.63,47.81 13.97,59.8 9.27,12.05 24.22,18.04 44.73,18.04 18.47,0 32.25,-6.74 41.26,-20.21 9.09,-13.41 13.6,-32.74 13.6,-58.01 0,-25.82 -4.51,-45.04 -13.6,-57.7 -9.02,-12.66 -23.04,-19.03 -42.01,-19.03z"/>
  <path class="fil2" d="M3777.61 9814.65l0 -129.06c0,-15.76 -3.34,-27.61 -10.13,-35.53 -6.74,-7.91 -17.24,-11.86 -31.45,-11.86 -18.73,0 -32.5,5.38 -41.45,16.13 -8.9,10.75 -13.41,27.25 -13.41,49.54l0 110.77 -30.02 0 0 -129.06c0,-15.76 -3.4,-27.61 -10.14,-35.53 -6.74,-7.91 -17.3,-11.86 -31.69,-11.86 -18.78,0 -32.55,5.62 -41.33,16.93 -8.71,11.24 -13.1,29.78 -13.1,55.48l0 104.04 -30.02 0 0 -198.32 24.4 0 4.89 27.06 1.48 0c5.62,-9.64 13.65,-17.17 23.97,-22.61 10.32,-5.43 21.87,-8.15 34.66,-8.15 30.96,0 51.28,11.24 60.8,33.67l1.42 0c5.94,-10.37 14.52,-18.59 25.7,-24.65 11.24,-5.99 24.03,-9.02 38.36,-9.02 22.42,0 39.24,5.75 50.42,17.3 11.12,11.5 16.74,29.97 16.74,55.29l0 129.44 -30.08 0zm214 0l-5.99 -28.23 -1.48 0c-9.89,12.42 -19.71,20.88 -29.54,25.33 -9.89,4.38 -22.12,6.61 -36.82,6.61 -19.71,0 -35.1,-5.06 -46.28,-15.21 -11.12,-10.19 -16.74,-24.59 -16.74,-43.37 0,-40.1 32.06,-61.1 96.06,-63.02l33.68 -1.11 0 -12.29c0,-15.51 -3.34,-26.99 -10.01,-34.41 -6.74,-7.41 -17.42,-11.12 -32.12,-11.12 -16.56,0 -35.21,5.06 -56.1,15.19l-9.2 -22.98c9.76,-5.32 20.45,-9.51 32.07,-12.54 11.67,-3.04 23.35,-4.52 35.02,-4.52 23.66,0 41.15,5.25 52.58,15.76 11.43,10.5 17.12,27.3 17.12,50.47l0 135.43 -22.25 0zm-67.9 -21.13c18.73,0 33.43,-5.13 44.05,-15.38 10.7,-10.26 16.07,-24.59 16.07,-43.06l0 -17.92 -30.08 1.3c-23.85,0.8 -41.09,4.51 -51.65,11.12 -10.57,6.55 -15.82,16.8 -15.82,30.64 0,10.88 3.28,19.16 9.89,24.78 6.55,5.68 15.75,8.52 27.55,8.52zm242.56 -180.89c8.77,0 16.69,0.75 23.66,2.16l-4.14 27.98c-8.22,-1.79 -15.45,-2.71 -21.74,-2.71 -16,0 -29.72,6.48 -41.15,19.51 -11.37,13.04 -17.05,29.29 -17.05,48.69l0 106.38 -30.08 0 0 -198.32 24.84 0 3.39 36.63 1.48 0c7.36,-12.9 16.18,-22.85 26.56,-29.83 10.38,-6.99 21.75,-10.51 34.22,-10.51z"/>
  <path class="fil2" d="M4865.62 9814.65l-5.99 -28.23 -1.48 0c-9.89,12.42 -19.71,20.88 -29.54,25.33 -9.89,4.38 -22.12,6.61 -36.82,6.61 -19.71,0 -35.1,-5.06 -46.28,-15.21 -11.12,-10.19 -16.74,-24.59 -16.74,-43.37 0,-40.1 32.06,-61.1 96.06,-63.02l33.68 -1.11 0 -12.29c0,-15.51 -3.34,-26.99 -10.01,-34.41 -6.74,-7.41 -17.42,-11.12 -32.12,-11.12 -16.56,0 -35.21,5.06 -56.1,15.19l-9.2 -22.98c9.76,-5.32 20.45,-9.51 32.07,-12.54 11.67,-3.04 23.35,-4.52 35.02,-4.52 23.66,0 41.15,5.25 52.58,15.76 11.43,10.5 17.12,27.3 17.12,50.47l0 135.43 -22.25 0zm-67.9 -21.13c18.73,0 33.43,-5.13 44.05,-15.38 10.7,-10.26 16.07,-24.59 16.07,-43.06l0 -17.92 -30.08 1.3c-23.85,0.8 -41.09,4.51 -51.65,11.12 -10.57,6.55 -15.82,16.8 -15.82,30.64 0,10.88 3.28,19.16 9.89,24.78 6.55,5.68 15.75,8.52 27.55,8.52zm244.41 -180.53c26.07,0 46.33,8.9 60.79,26.69 14.4,17.85 21.63,43.06 21.63,75.63 0,32.62 -7.29,57.95 -21.8,75.99 -14.59,18.03 -34.73,27.06 -60.61,27.06 -12.91,0 -24.71,-2.42 -35.4,-7.17 -10.62,-4.76 -19.65,-12.12 -26.88,-21.99l-2.16 0 -6.36 25.45 -21.5 0 0 -281.73 30.02 0 0 68.46c0,15.32 -0.49,29.1 -1.42,41.33l1.42 0c14.03,-19.83 34.78,-29.72 62.28,-29.72zm-4.33 25.21c-20.51,0 -35.28,5.87 -44.35,17.67 -9.09,11.74 -13.6,31.57 -13.6,59.43 0,27.86 4.63,47.81 13.97,59.8 9.27,12.05 24.22,18.04 44.73,18.04 18.47,0 32.25,-6.74 41.26,-20.21 9.09,-13.41 13.6,-32.74 13.6,-58.01 0,-25.82 -4.51,-45.04 -13.6,-57.7 -9.02,-12.66 -23.04,-19.03 -42.01,-19.03zm229.64 -25.58c8.77,0 16.69,0.75 23.66,2.16l-4.14 27.98c-8.22,-1.79 -15.45,-2.71 -21.74,-2.71 -16,0 -29.72,6.48 -41.15,19.51 -11.37,13.04 -17.05,29.29 -17.05,48.69l0 106.38 -30.08 0 0 -198.32 24.84 0 3.39 36.63 1.48 0c7.36,-12.9 16.18,-22.85 26.56,-29.83 10.38,-6.99 21.75,-10.51 34.22,-10.51z"/>
  <path class="fil2" d="M6053.29 9810.14c0,0.99 -0.24,1.79 -0.74,2.47 -0.49,0.62 -1.24,1.24 -2.35,1.73 -1.05,0.43 -2.6,0.8 -4.51,1.05 -1.91,0.24 -4.32,0.37 -7.23,0.37 -3.03,0 -5.5,-0.13 -7.41,-0.37 -1.92,-0.25 -3.46,-0.62 -4.63,-1.05 -1.11,-0.49 -1.91,-1.11 -2.42,-1.73 -0.49,-0.68 -0.74,-1.48 -0.74,-2.47l0 -99.04c0,-6.92 -0.62,-13.22 -1.8,-18.84 -1.23,-5.68 -3.14,-10.57 -5.8,-14.71 -2.66,-4.08 -6,-7.23 -10.08,-9.38 -4.08,-2.16 -8.89,-3.28 -14.45,-3.28 -6.86,0 -13.79,2.66 -20.64,7.98 -6.92,5.31 -14.59,13.09 -22.87,23.35l0 113.93c0,0.99 -0.24,1.79 -0.74,2.47 -0.49,0.62 -1.3,1.24 -2.47,1.73 -1.11,0.43 -2.66,0.8 -4.63,1.05 -1.92,0.24 -4.33,0.37 -7.23,0.37 -2.85,0 -5.19,-0.13 -7.23,-0.37 -1.98,-0.25 -3.58,-0.62 -4.7,-1.05 -1.18,-0.49 -1.98,-1.11 -2.41,-1.73 -0.43,-0.68 -0.62,-1.48 -0.62,-2.47l0 -99.04c0,-6.92 -0.68,-13.22 -1.98,-18.84 -1.36,-5.68 -3.34,-10.57 -5.99,-14.71 -2.66,-4.08 -6,-7.23 -10.01,-9.38 -4.08,-2.16 -8.84,-3.28 -14.4,-3.28 -6.85,0 -13.84,2.66 -20.82,7.98 -6.99,5.31 -14.59,13.09 -22.8,23.35l0 113.93c0,0.99 -0.24,1.79 -0.74,2.47 -0.49,0.62 -1.24,1.24 -2.35,1.73 -1.11,0.43 -2.6,0.8 -4.57,1.05 -1.91,0.24 -4.38,0.37 -7.41,0.37 -2.97,0 -5.38,-0.13 -7.29,-0.37 -1.98,-0.25 -3.52,-0.62 -4.63,-1.05 -1.18,-0.49 -1.98,-1.11 -2.41,-1.73 -0.44,-0.68 -0.62,-1.48 -0.62,-2.47l0 -162.98c0,-0.99 0.18,-1.8 0.56,-2.48 0.37,-0.61 1.05,-1.23 2.15,-1.79 1.11,-0.56 2.48,-0.92 4.2,-1.11 1.67,-0.18 3.96,-0.24 6.74,-0.24 2.66,0 4.89,0.06 6.61,0.24 1.8,0.19 3.15,0.56 4.14,1.11 0.92,0.56 1.67,1.18 2.1,1.79 0.37,0.68 0.62,1.49 0.62,2.48l0 21.56c9.14,-10.32 18.11,-17.86 26.75,-22.61 8.58,-4.76 17.36,-7.17 26.13,-7.17 6.79,0 12.85,0.8 18.22,2.34 5.38,1.61 10.13,3.77 14.21,6.61 4.14,2.85 7.67,6.24 10.51,10.19 2.9,3.9 5.32,8.28 7.29,13.17 5.43,-5.94 10.56,-10.94 15.45,-15.08 4.88,-4.14 9.57,-7.41 14.08,-10 4.51,-2.53 8.9,-4.39 13.16,-5.51 4.33,-1.17 8.6,-1.72 12.91,-1.72 10.51,0 19.28,1.85 26.39,5.5 7.1,3.71 12.85,8.65 17.3,14.76 4.39,6.18 7.48,13.41 9.39,21.69 1.85,8.28 2.77,16.99 2.77,26.2l0 103.05zm177.12 0.18c0,1.43 -0.49,2.53 -1.42,3.28 -0.99,0.75 -2.28,1.24 -4.01,1.61 -1.67,0.37 -4.14,0.56 -7.41,0.56 -3.09,0 -5.63,-0.19 -7.48,-0.56 -1.85,-0.37 -3.22,-0.86 -4.08,-1.61 -0.86,-0.75 -1.29,-1.79 -1.29,-3.28l0 -16.31c-7.11,7.6 -15.02,13.53 -23.79,17.74 -8.77,4.14 -18.04,6.23 -27.8,6.23 -8.58,0 -16.37,-1.1 -23.29,-3.33 -6.92,-2.23 -12.85,-5.5 -17.74,-9.7 -4.88,-4.2 -8.71,-9.46 -11.42,-15.57 -2.72,-6.18 -4.09,-13.16 -4.09,-21.01 0,-9.2 1.86,-17.17 5.62,-23.91 3.71,-6.8 9.09,-12.42 16.13,-16.87 6.98,-4.46 15.57,-7.85 25.7,-10.08 10.13,-2.22 21.56,-3.33 34.22,-3.33l22.49 0 0 -12.73c0,-6.24 -0.67,-11.8 -1.98,-16.69 -1.36,-4.81 -3.46,-8.83 -6.42,-12.04 -2.97,-3.22 -6.8,-5.62 -11.5,-7.23 -4.7,-1.67 -10.5,-2.47 -17.36,-2.47 -7.36,0 -13.97,0.86 -19.77,2.66 -5.87,1.79 -11,3.7 -15.38,5.86 -4.39,2.16 -8.1,4.08 -11.06,5.87 -2.9,1.79 -5.13,2.65 -6.55,2.65 -0.99,0 -1.86,-0.24 -2.53,-0.74 -0.75,-0.43 -1.37,-1.18 -1.91,-2.16 -0.56,-0.92 -0.94,-2.16 -1.18,-3.65 -0.25,-1.54 -0.37,-3.15 -0.37,-5 0,-2.96 0.18,-5.38 0.61,-7.1 0.44,-1.73 1.48,-3.4 3.09,-4.95 1.61,-1.54 4.46,-3.39 8.41,-5.56 3.95,-2.1 8.58,-4.08 13.78,-5.86 5.13,-1.73 10.81,-3.22 16.99,-4.39 6.12,-1.17 12.36,-1.72 18.6,-1.72 11.67,0 21.61,1.29 29.83,3.95 8.22,2.66 14.84,6.61 19.9,11.74 5.06,5.13 8.71,11.5 10.99,19.09 2.29,7.6 3.46,16.5 3.46,26.63l0 109.97zm-29.65 -74.63l-25.51 0c-8.15,0 -15.26,0.68 -21.31,2.1 -6,1.36 -11,3.46 -15.02,6.18 -3.95,2.72 -6.86,5.93 -8.77,9.76 -1.85,3.82 -2.78,8.22 -2.78,13.16 0,8.47 2.66,15.21 8.04,20.21 5.37,5 12.85,7.53 22.55,7.53 7.79,0 15.07,-1.98 21.74,-5.99 6.67,-3.96 13.72,-10.08 21.07,-18.29l0 -34.66zm151.73 78.96l-21.68 59.99c-0.75,1.91 -2.6,3.39 -5.57,4.44 -2.9,1.05 -7.41,1.54 -13.46,1.54 -3.15,0 -5.68,-0.12 -7.6,-0.43 -1.92,-0.3 -3.4,-0.86 -4.46,-1.54 -0.99,-0.74 -1.54,-1.72 -1.67,-2.9 -0.12,-1.24 0.19,-2.66 0.87,-4.39l22.49 -56.71c-1.11,-0.49 -2.16,-1.29 -3.09,-2.34 -0.99,-1.11 -1.67,-2.23 -1.98,-3.47l-58.14 -155.69c-0.99,-2.53 -1.42,-4.57 -1.42,-5.99 0,-1.48 0.43,-2.6 1.42,-3.47 0.99,-0.86 2.53,-1.42 4.7,-1.72 2.16,-0.32 5.06,-0.43 8.71,-0.43 3.58,0 6.42,0.06 8.52,0.24 2.04,0.19 3.65,0.56 4.89,1.05 1.18,0.43 2.04,1.18 2.6,2.04 0.56,0.92 1.11,2.16 1.72,3.71l46.53 130.73 0.56 0 44.85 -131.41c0.75,-2.34 1.61,-3.82 2.66,-4.44 0.99,-0.68 2.53,-1.18 4.57,-1.48 2.1,-0.32 5.06,-0.43 8.9,-0.43 3.39,0 6.18,0.12 8.33,0.43 2.16,0.3 3.77,0.86 4.76,1.72 1.05,0.87 1.54,1.99 1.54,3.47 0,1.42 -0.37,3.27 -1.05,5.43l-58.51 162.05z"/>
  <path class="fil2" d="M7099.37 9817.37c0,12.04 -0.92,21.8 -2.72,29.22 -1.79,7.35 -4.63,13.59 -8.46,18.65 -3.84,5.06 -8.77,8.9 -14.84,11.5 -5.99,2.6 -13.28,3.89 -21.8,3.89 -3.84,0 -7.1,-0.24 -9.82,-0.74 -2.72,-0.49 -4.81,-0.99 -6.24,-1.61 -1.42,-0.62 -2.41,-1.3 -2.96,-2.1 -0.56,-0.8 -0.92,-1.67 -1.18,-2.72 -0.24,-1.05 -0.43,-2.1 -0.49,-3.15 -0.06,-1.1 -0.06,-2.47 -0.06,-4.01 0,-2.16 0.06,-4.08 0.25,-5.62 0.19,-1.54 0.49,-2.84 0.92,-3.82 0.43,-0.92 0.92,-1.67 1.42,-2.04 0.56,-0.43 1.24,-0.68 2.1,-0.68 0.68,0 2.1,0.19 4.2,0.49 2.1,0.3 4.57,0.43 7.29,0.43 4.01,0 7.41,-0.62 10.19,-1.79 2.84,-1.24 5.13,-3.15 6.92,-5.87 1.85,-2.72 3.14,-6.24 4.01,-10.56 0.8,-4.33 1.23,-10.88 1.23,-19.65l0 -170.02c0,-0.87 0.25,-1.67 0.75,-2.35 0.49,-0.74 1.29,-1.36 2.41,-1.85 1.18,-0.43 2.72,-0.81 4.63,-1.05 1.91,-0.25 4.33,-0.37 7.23,-0.37 2.9,0 5.32,0.12 7.23,0.37 1.91,0.24 3.46,0.62 4.63,1.05 1.11,0.49 1.91,1.11 2.41,1.85 0.49,0.68 0.75,1.48 0.75,2.35l0 170.21zm3.33 -225.13c0,7.04 -1.29,11.8 -3.95,14.33 -2.66,2.53 -7.53,3.82 -14.65,3.82 -7.04,0 -11.8,-1.23 -14.33,-3.7 -2.53,-2.48 -3.76,-7.17 -3.76,-14.09 0,-7.04 1.29,-11.8 3.89,-14.33 2.6,-2.53 7.42,-3.82 14.59,-3.82 7.1,0 11.92,1.23 14.46,3.7 2.53,2.47 3.76,7.17 3.76,14.09zm191.4 217.9c0,0.99 -0.19,1.79 -0.62,2.47 -0.43,0.62 -1.18,1.24 -2.28,1.73 -1.05,0.43 -2.48,0.8 -4.27,1.05 -1.73,0.24 -3.9,0.37 -6.43,0.37 -2.71,0 -5,-0.13 -6.73,-0.37 -1.8,-0.25 -3.15,-0.62 -4.2,-1.05 -0.99,-0.49 -1.73,-1.11 -2.04,-1.73 -0.38,-0.68 -0.56,-1.48 -0.56,-2.47l0 -21.56c-9.33,10.26 -18.47,17.66 -27.55,22.36 -9.03,4.7 -18.23,7.04 -27.5,7.04 -10.88,0 -20.02,-1.79 -27.43,-5.43 -7.42,-3.58 -13.47,-8.52 -18.04,-14.76 -4.57,-6.18 -7.85,-13.41 -9.89,-21.69 -1.98,-8.28 -2.96,-18.35 -2.96,-30.15l0 -98.79c0,-0.99 0.19,-1.8 0.62,-2.48 0.43,-0.61 1.23,-1.23 2.47,-1.79 1.18,-0.56 2.77,-0.92 4.7,-1.11 1.91,-0.18 4.32,-0.24 7.23,-0.24 2.9,0 5.31,0.06 7.23,0.24 1.91,0.19 3.46,0.56 4.63,1.11 1.1,0.56 1.91,1.18 2.41,1.79 0.49,0.68 0.74,1.49 0.74,2.48l0 94.9c0,9.51 0.68,17.17 2.1,22.92 1.37,5.75 3.47,10.62 6.3,14.64 2.84,4.08 6.48,7.23 10.81,9.46 4.32,2.23 9.39,3.33 15.19,3.33 7.48,0 14.95,-2.65 22.37,-7.97 7.47,-5.32 15.32,-13.1 23.65,-23.36l0 -113.92c0,-0.99 0.19,-1.8 0.62,-2.48 0.43,-0.61 1.24,-1.23 2.47,-1.79 1.18,-0.56 2.72,-0.92 4.58,-1.11 1.91,-0.18 4.32,-0.24 7.35,-0.24 2.91,0 5.32,0.06 7.23,0.24 1.91,0.19 3.46,0.56 4.51,1.11 1.11,0.56 1.92,1.18 2.47,1.79 0.56,0.68 0.81,1.49 0.81,2.48l0 162.98zm195.47 0c0,0.99 -0.24,1.79 -0.74,2.47 -0.49,0.62 -1.24,1.24 -2.34,1.73 -1.11,0.43 -2.6,0.8 -4.58,1.05 -1.91,0.24 -4.32,0.37 -7.22,0.37 -3.09,0 -5.57,-0.13 -7.48,-0.37 -1.98,-0.25 -3.46,-0.62 -4.57,-1.05 -1.11,-0.49 -1.85,-1.11 -2.34,-1.73 -0.49,-0.68 -0.75,-1.48 -0.75,-2.47l0 -95.45c0,-9.27 -0.75,-16.8 -2.16,-22.42 -1.42,-5.68 -3.52,-10.57 -6.29,-14.71 -2.78,-4.08 -6.3,-7.23 -10.7,-9.38 -4.38,-2.16 -9.45,-3.28 -15.19,-3.28 -7.47,0 -14.89,2.66 -22.3,7.98 -7.48,5.31 -15.27,13.09 -23.42,23.35l0 113.93c0,0.99 -0.24,1.79 -0.74,2.47 -0.49,0.62 -1.24,1.24 -2.35,1.73 -1.11,0.43 -2.6,0.8 -4.57,1.05 -1.91,0.24 -4.38,0.37 -7.41,0.37 -2.97,0 -5.38,-0.13 -7.29,-0.37 -1.98,-0.25 -3.52,-0.62 -4.63,-1.05 -1.18,-0.49 -1.98,-1.11 -2.41,-1.73 -0.44,-0.68 -0.62,-1.48 -0.62,-2.47l0 -162.98c0,-0.99 0.18,-1.8 0.56,-2.48 0.37,-0.61 1.05,-1.23 2.15,-1.79 1.11,-0.56 2.48,-0.92 4.2,-1.11 1.67,-0.18 3.96,-0.24 6.74,-0.24 2.66,0 4.89,0.06 6.61,0.24 1.8,0.19 3.15,0.56 4.14,1.11 0.92,0.56 1.67,1.18 2.1,1.79 0.37,0.68 0.62,1.49 0.62,2.48l0 21.56c9.14,-10.32 18.22,-17.86 27.36,-22.61 9.09,-4.76 18.23,-7.17 27.5,-7.17 10.81,0 19.95,1.85 27.36,5.5 7.42,3.71 13.41,8.65 17.98,14.76 4.58,6.18 7.85,13.41 9.82,21.69 1.98,8.28 2.96,18.22 2.96,29.78l0 99.47z"/>
  <path class="fil2" d="M8318.19 9817.37c0,12.04 -0.92,21.8 -2.72,29.22 -1.79,7.35 -4.63,13.59 -8.46,18.65 -3.84,5.06 -8.77,8.9 -14.84,11.5 -5.99,2.6 -13.28,3.89 -21.8,3.89 -3.84,0 -7.1,-0.24 -9.82,-0.74 -2.72,-0.49 -4.81,-0.99 -6.24,-1.61 -1.42,-0.62 -2.41,-1.3 -2.96,-2.1 -0.56,-0.8 -0.92,-1.67 -1.18,-2.72 -0.24,-1.05 -0.43,-2.1 -0.49,-3.15 -0.06,-1.1 -0.06,-2.47 -0.06,-4.01 0,-2.16 0.06,-4.08 0.25,-5.62 0.19,-1.54 0.49,-2.84 0.92,-3.82 0.43,-0.92 0.92,-1.67 1.42,-2.04 0.56,-0.43 1.24,-0.68 2.1,-0.68 0.68,0 2.1,0.19 4.2,0.49 2.1,0.3 4.57,0.43 7.29,0.43 4.01,0 7.41,-0.62 10.19,-1.79 2.84,-1.24 5.13,-3.15 6.92,-5.87 1.85,-2.72 3.14,-6.24 4.01,-10.56 0.8,-4.33 1.23,-10.88 1.23,-19.65l0 -170.02c0,-0.87 0.25,-1.67 0.75,-2.35 0.49,-0.74 1.29,-1.36 2.41,-1.85 1.18,-0.43 2.72,-0.81 4.63,-1.05 1.91,-0.25 4.33,-0.37 7.23,-0.37 2.9,0 5.32,0.12 7.23,0.37 1.91,0.24 3.46,0.62 4.63,1.05 1.11,0.49 1.91,1.11 2.41,1.85 0.49,0.68 0.75,1.48 0.75,2.35l0 170.21zm3.33 -225.13c0,7.04 -1.29,11.8 -3.95,14.33 -2.66,2.53 -7.53,3.82 -14.65,3.82 -7.04,0 -11.8,-1.23 -14.33,-3.7 -2.53,-2.48 -3.76,-7.17 -3.76,-14.09 0,-7.04 1.29,-11.8 3.89,-14.33 2.6,-2.53 7.42,-3.82 14.59,-3.82 7.1,0 11.92,1.23 14.46,3.7 2.53,2.47 3.76,7.17 3.76,14.09zm191.4 217.9c0,0.99 -0.19,1.79 -0.62,2.47 -0.43,0.62 -1.18,1.24 -2.28,1.73 -1.05,0.43 -2.48,0.8 -4.27,1.05 -1.73,0.24 -3.9,0.37 -6.43,0.37 -2.71,0 -5,-0.13 -6.73,-0.37 -1.8,-0.25 -3.15,-0.62 -4.2,-1.05 -0.99,-0.49 -1.73,-1.11 -2.04,-1.73 -0.38,-0.68 -0.56,-1.48 -0.56,-2.47l0 -21.56c-9.33,10.26 -18.47,17.66 -27.55,22.36 -9.03,4.7 -18.23,7.04 -27.5,7.04 -10.88,0 -20.02,-1.79 -27.43,-5.43 -7.42,-3.58 -13.47,-8.52 -18.04,-14.76 -4.57,-6.18 -7.85,-13.41 -9.89,-21.69 -1.98,-8.28 -2.96,-18.35 -2.96,-30.15l0 -98.79c0,-0.99 0.19,-1.8 0.62,-2.48 0.43,-0.61 1.23,-1.23 2.47,-1.79 1.18,-0.56 2.77,-0.92 4.7,-1.11 1.91,-0.18 4.32,-0.24 7.23,-0.24 2.9,0 5.31,0.06 7.23,0.24 1.91,0.19 3.46,0.56 4.63,1.11 1.1,0.56 1.91,1.18 2.41,1.79 0.49,0.68 0.74,1.49 0.74,2.48l0 94.9c0,9.51 0.68,17.17 2.1,22.92 1.37,5.75 3.47,10.62 6.3,14.64 2.84,4.08 6.48,7.23 10.81,9.46 4.32,2.23 9.39,3.33 15.19,3.33 7.48,0 14.95,-2.65 22.37,-7.97 7.47,-5.32 15.32,-13.1 23.65,-23.36l0 -113.92c0,-0.99 0.19,-1.8 0.62,-2.48 0.43,-0.61 1.24,-1.23 2.47,-1.79 1.18,-0.56 2.72,-0.92 4.58,-1.11 1.91,-0.18 4.32,-0.24 7.35,-0.24 2.91,0 5.32,0.06 7.23,0.24 1.91,0.19 3.46,0.56 4.51,1.11 1.11,0.56 1.92,1.18 2.47,1.79 0.56,0.68 0.81,1.49 0.81,2.48l0 162.98zm85.38 0c0,0.99 -0.24,1.79 -0.74,2.47 -0.49,0.62 -1.24,1.24 -2.35,1.73 -1.11,0.43 -2.6,0.8 -4.57,1.05 -1.91,0.24 -4.38,0.37 -7.41,0.37 -2.97,0 -5.38,-0.13 -7.29,-0.37 -1.98,-0.25 -3.52,-0.62 -4.63,-1.05 -1.18,-0.49 -1.98,-1.11 -2.41,-1.73 -0.44,-0.68 -0.62,-1.48 -0.62,-2.47l0 -241.76c0,-0.99 0.18,-1.85 0.62,-2.53 0.43,-0.74 1.23,-1.36 2.41,-1.85 1.11,-0.43 2.66,-0.81 4.63,-1.05 1.91,-0.25 4.32,-0.37 7.29,-0.37 3.03,0 5.5,0.12 7.41,0.37 1.98,0.24 3.46,0.62 4.57,1.05 1.11,0.49 1.86,1.11 2.35,1.85 0.49,0.68 0.74,1.54 0.74,2.53l0 241.76z"/>
  <path class="fil2" d="M9457.3 9810.32c0,1.43 -0.49,2.53 -1.42,3.28 -0.99,0.75 -2.28,1.24 -4.01,1.61 -1.67,0.37 -4.14,0.56 -7.41,0.56 -3.09,0 -5.63,-0.19 -7.48,-0.56 -1.85,-0.37 -3.22,-0.86 -4.08,-1.61 -0.86,-0.75 -1.29,-1.79 -1.29,-3.28l0 -16.31c-7.11,7.6 -15.02,13.53 -23.79,17.74 -8.77,4.14 -18.04,6.23 -27.8,6.23 -8.58,0 -16.37,-1.1 -23.29,-3.33 -6.92,-2.23 -12.85,-5.5 -17.74,-9.7 -4.88,-4.2 -8.71,-9.46 -11.42,-15.57 -2.72,-6.18 -4.09,-13.16 -4.09,-21.01 0,-9.2 1.86,-17.17 5.62,-23.91 3.71,-6.8 9.09,-12.42 16.13,-16.87 6.98,-4.46 15.57,-7.85 25.7,-10.08 10.13,-2.22 21.56,-3.33 34.22,-3.33l22.49 0 0 -12.73c0,-6.24 -0.67,-11.8 -1.98,-16.69 -1.36,-4.81 -3.46,-8.83 -6.42,-12.04 -2.97,-3.22 -6.8,-5.62 -11.5,-7.23 -4.7,-1.67 -10.5,-2.47 -17.36,-2.47 -7.36,0 -13.97,0.86 -19.77,2.66 -5.87,1.79 -11,3.7 -15.38,5.86 -4.39,2.16 -8.1,4.08 -11.06,5.87 -2.9,1.79 -5.13,2.65 -6.55,2.65 -0.99,0 -1.86,-0.24 -2.53,-0.74 -0.75,-0.43 -1.37,-1.18 -1.91,-2.16 -0.56,-0.92 -0.94,-2.16 -1.18,-3.65 -0.25,-1.54 -0.37,-3.15 -0.37,-5 0,-2.96 0.18,-5.38 0.61,-7.1 0.44,-1.73 1.48,-3.4 3.09,-4.95 1.61,-1.54 4.46,-3.39 8.41,-5.56 3.95,-2.1 8.58,-4.08 13.78,-5.86 5.13,-1.73 10.81,-3.22 16.99,-4.39 6.12,-1.17 12.36,-1.72 18.6,-1.72 11.67,0 21.61,1.29 29.83,3.95 8.22,2.66 14.84,6.61 19.9,11.74 5.06,5.13 8.71,11.5 10.99,19.09 2.29,7.6 3.46,16.5 3.46,26.63l0 109.97zm-29.65 -74.63l-25.51 0c-8.15,0 -15.26,0.68 -21.31,2.1 -6,1.36 -11,3.46 -15.02,6.18 -3.95,2.72 -6.86,5.93 -8.77,9.76 -1.85,3.82 -2.78,8.22 -2.78,13.16 0,8.47 2.66,15.21 8.04,20.21 5.37,5 12.85,7.53 22.55,7.53 7.79,0 15.07,-1.98 21.74,-5.99 6.67,-3.96 13.72,-10.08 21.07,-18.29l0 -34.66zm220.56 -80.93c0,4.27 -0.55,7.29 -1.72,9.2 -1.11,1.85 -2.6,2.77 -4.46,2.77l-23.41 0c4.27,4.33 7.23,9.09 8.9,14.28 1.67,5.19 2.53,10.62 2.53,16.25 0,9.39 -1.48,17.73 -4.51,24.96 -3.03,7.23 -7.36,13.35 -12.98,18.35 -5.62,5.08 -12.29,8.9 -20.02,11.56 -7.72,2.66 -16.31,3.95 -25.7,3.95 -6.61,0 -12.98,-0.86 -18.9,-2.6 -5.99,-1.79 -10.62,-3.95 -13.9,-6.61 -2.04,2.16 -3.71,4.63 -5.06,7.42 -1.29,2.84 -1.98,6.05 -1.98,9.64 0,4.27 1.98,7.79 5.86,10.56 3.9,2.85 9.15,4.33 15.64,4.57l42.44 1.8c8.03,0.24 15.45,1.36 22.18,3.33 6.74,2.04 12.6,4.82 17.55,8.53 4.94,3.65 8.77,8.22 11.55,13.52 2.78,5.38 4.14,11.62 4.14,18.73 0,7.47 -1.54,14.57 -4.7,21.31 -3.15,6.74 -7.9,12.67 -14.4,17.8 -6.42,5.13 -14.7,9.2 -24.71,12.11 -10,2.96 -21.8,4.44 -35.45,4.44 -13.17,0 -24.35,-1.11 -33.55,-3.33 -9.2,-2.23 -16.8,-5.32 -22.74,-9.14 -5.86,-3.9 -10.19,-8.47 -12.85,-13.84 -2.65,-5.38 -3.95,-11.24 -3.95,-17.49 0,-4.01 0.49,-7.85 1.42,-11.62 1,-3.7 2.48,-7.28 4.46,-10.69 1.98,-3.33 4.44,-6.61 7.41,-9.64 2.97,-3.09 6.37,-6.12 10.26,-9.14 -5.86,-3.03 -10.19,-6.86 -13.03,-11.43 -2.78,-4.57 -4.2,-9.51 -4.2,-14.83 0,-7.36 1.48,-13.97 4.44,-19.77 2.96,-5.75 6.61,-10.94 11,-15.57 -3.71,-4.44 -6.67,-9.46 -8.84,-15.08 -2.16,-5.62 -3.28,-12.41 -3.28,-20.39 0,-9.27 1.54,-17.6 4.7,-24.96 3.15,-7.36 7.48,-13.6 13.04,-18.66 5.56,-5.06 12.23,-8.95 20.02,-11.67 7.79,-2.72 16.31,-4.08 25.45,-4.08 5,0 9.57,0.3 13.9,0.86 4.27,0.62 8.28,1.43 12.05,2.47l49.23 0c2.1,0 3.58,1 4.63,2.97 1.05,2.04 1.54,5.06 1.54,9.14zm-46.7 42.75c0,-11.05 -3.04,-19.7 -9.15,-25.88 -6.12,-6.24 -14.76,-9.33 -25.94,-9.33 -5.81,0 -10.88,0.99 -15.14,2.9 -4.26,1.92 -7.84,4.58 -10.69,7.91 -2.84,3.39 -4.94,7.29 -6.29,11.67 -1.43,4.39 -2.1,9.03 -2.1,13.84 0,10.69 3.03,19.09 9.14,25.27 6.12,6.12 14.64,9.2 25.64,9.2 5.86,0 10.99,-0.92 15.38,-2.78 4.32,-1.91 7.9,-4.44 10.75,-7.78 2.84,-3.34 4.94,-7.17 6.3,-11.5 1.42,-4.32 2.1,-8.84 2.1,-13.53zm14.83 128.94c0,-6.98 -2.85,-12.36 -8.6,-16.18 -5.68,-3.77 -13.46,-5.81 -23.22,-6.06l-42.07 -1.42c-3.84,3.03 -7.05,5.87 -9.52,8.58 -2.47,2.72 -4.38,5.25 -5.86,7.72 -1.42,2.48 -2.42,4.95 -2.96,7.36 -0.56,2.41 -0.81,4.88 -0.81,7.36 0,7.84 3.95,13.78 11.93,17.79 7.97,4.01 19.03,6.05 33.24,6.05 9.02,0 16.62,-0.86 22.68,-2.6 6.12,-1.79 10.99,-4.08 14.7,-6.98 3.77,-2.91 6.43,-6.18 8.09,-9.89 1.61,-3.77 2.42,-7.66 2.42,-11.74zm219.02 -99.72c0,13.29 -1.73,25.52 -5.25,36.7 -3.46,11.12 -8.71,20.75 -15.63,28.85 -6.92,8.09 -15.64,14.4 -26.02,18.9 -10.43,4.51 -22.55,6.79 -36.26,6.79 -13.41,0 -25.08,-1.98 -35.03,-5.99 -9.94,-3.95 -18.22,-9.76 -24.83,-17.36 -6.61,-7.6 -11.56,-16.87 -14.83,-27.68 -3.28,-10.88 -4.89,-23.17 -4.89,-36.95 0,-13.28 1.73,-25.51 5.13,-36.63 3.46,-11.19 8.65,-20.83 15.57,-28.92 6.91,-8.09 15.56,-14.33 25.94,-18.84 10.38,-4.46 22.49,-6.67 36.33,-6.67 13.41,0 25.08,1.98 35.03,5.99 9.95,3.95 18.22,9.76 24.84,17.36 6.61,7.6 11.61,16.8 14.94,27.68 3.28,10.88 4.95,23.11 4.95,36.76zm-31.14 1.92c0,-8.84 -0.81,-17.18 -2.48,-25.02 -1.61,-7.85 -4.32,-14.71 -8.09,-20.64 -3.71,-5.94 -8.84,-10.62 -15.26,-14.03 -6.37,-3.46 -14.4,-5.19 -23.97,-5.19 -8.84,0 -16.43,1.54 -22.8,4.7 -6.36,3.15 -11.55,7.6 -15.69,13.35 -4.14,5.75 -7.17,12.55 -9.14,20.39 -2.04,7.85 -3.04,16.43 -3.04,25.7 0,8.96 0.81,17.36 2.48,25.21 1.61,7.85 4.32,14.7 8.15,20.57 3.82,5.81 8.95,10.5 15.32,13.9 6.42,3.46 14.46,5.19 24.03,5.19 8.71,0 16.25,-1.54 22.68,-4.7 6.42,-3.15 11.67,-7.53 15.81,-13.22 4.14,-5.68 7.17,-12.48 9.08,-20.33 1.91,-7.84 2.91,-16.5 2.91,-25.88z"/>
  <path class="fil2" d="M10606.8 9765.66c0,8.33 -1.54,15.75 -4.63,22.3 -3.09,6.48 -7.41,11.99 -13.09,16.43 -5.68,4.44 -12.42,7.85 -20.27,10.13 -7.84,2.29 -16.49,3.46 -25.88,3.46 -5.81,0 -11.31,-0.43 -16.56,-1.36 -5.25,-0.86 -9.94,-1.98 -14.14,-3.39 -4.14,-1.37 -7.66,-2.78 -10.57,-4.27 -2.9,-1.48 -5,-2.84 -6.29,-4.01 -1.37,-1.18 -2.35,-2.9 -2.91,-5.06 -0.62,-2.16 -0.92,-5.13 -0.92,-8.9 0,-2.28 0.13,-4.2 0.37,-5.75 0.25,-1.61 0.56,-2.84 0.87,-3.82 0.37,-0.99 0.92,-1.67 1.54,-2.1 0.67,-0.43 1.42,-0.62 2.28,-0.62 1.3,0 3.28,0.81 5.87,2.47 2.6,1.61 5.8,3.4 9.57,5.32 3.77,1.91 8.28,3.71 13.47,5.32 5.19,1.66 11.12,2.47 17.85,2.47 5.06,0 9.64,-0.56 13.71,-1.67 4.14,-1.05 7.66,-2.66 10.69,-4.82 3.03,-2.09 5.32,-4.81 6.99,-8.09 1.61,-3.27 2.41,-7.17 2.41,-11.67 0,-4.57 -1.18,-8.47 -3.52,-11.55 -2.34,-3.15 -5.43,-5.94 -9.27,-8.34 -3.89,-2.42 -8.22,-4.57 -13.04,-6.43 -4.81,-1.85 -9.76,-3.82 -14.89,-5.86 -5.06,-2.1 -10.07,-4.39 -14.94,-6.99 -4.89,-2.6 -9.2,-5.74 -13.1,-9.51 -3.82,-3.77 -6.91,-8.22 -9.27,-13.41 -2.34,-5.19 -3.52,-11.37 -3.52,-18.66 0,-6.36 1.24,-12.47 3.71,-18.35 2.47,-5.86 6.18,-10.99 11.12,-15.38 5,-4.38 11.18,-7.97 18.6,-10.62 7.41,-2.66 16.07,-3.95 26.01,-3.95 4.33,0 8.65,0.37 13.04,1.11 4.32,0.74 8.22,1.72 11.74,2.84 3.52,1.11 6.48,2.34 8.95,3.65 2.48,1.36 4.39,2.47 5.62,3.52 1.3,0.99 2.1,1.85 2.54,2.53 0.43,0.75 0.74,1.54 0.92,2.47 0.18,0.87 0.37,1.98 0.56,3.28 0.18,1.36 0.24,2.96 0.24,4.88 0,2.04 -0.06,3.84 -0.24,5.32 -0.19,1.48 -0.49,2.72 -0.94,3.65 -0.43,0.99 -0.92,1.67 -1.54,2.1 -0.61,0.43 -1.29,0.62 -1.98,0.62 -1.11,0 -2.66,-0.68 -4.75,-2.04 -2.04,-1.3 -4.7,-2.72 -7.98,-4.27 -3.27,-1.54 -7.1,-2.96 -11.49,-4.27 -4.39,-1.36 -9.46,-2.04 -15.14,-2.04 -5.06,0 -9.57,0.56 -13.41,1.73 -3.89,1.11 -7.04,2.71 -9.51,4.81 -2.47,2.1 -4.39,4.57 -5.62,7.48 -1.3,2.84 -1.92,5.99 -1.92,9.33 0,4.69 1.24,8.65 3.65,11.85 2.42,3.22 5.51,6 9.39,8.41 3.84,2.41 8.28,4.57 13.22,6.55 4.95,1.92 9.95,3.9 15.08,5.94 5.13,2.1 10.19,4.38 15.19,6.91 5,2.53 9.46,5.62 13.28,9.2 3.9,3.65 6.99,7.98 9.33,13.04 2.35,5.06 3.52,11.12 3.52,18.11zm181.33 -44.11c0,4.69 -1.17,8.03 -3.52,10.07 -2.34,1.98 -5.06,2.96 -8.09,2.96l-107 0c0,9.08 0.92,17.24 2.71,24.46 1.8,7.29 4.82,13.53 9.09,18.73 4.2,5.19 9.7,9.14 16.43,11.93 6.79,2.77 15.07,4.19 24.83,4.19 7.72,0 14.65,-0.61 20.64,-1.91 6.05,-1.23 11.31,-2.66 15.69,-4.2 4.39,-1.54 8.04,-2.96 10.88,-4.19 2.85,-1.3 4.95,-1.92 6.43,-1.92 0.86,0 1.6,0.19 2.28,0.62 0.62,0.43 1.18,1.05 1.48,1.91 0.38,0.81 0.68,1.99 0.87,3.47 0.18,1.54 0.24,3.33 0.24,5.5 0,1.54 -0.06,2.9 -0.19,4.08 -0.12,1.11 -0.24,2.16 -0.43,3.03 -0.18,0.92 -0.49,1.73 -0.92,2.47 -0.43,0.68 -0.92,1.37 -1.61,2.04 -0.67,0.68 -2.66,1.73 -5.86,3.22 -3.28,1.54 -7.48,2.96 -12.67,4.44 -5.18,1.43 -11.18,2.72 -17.98,3.84 -6.79,1.18 -14.02,1.72 -21.74,1.72 -13.41,0 -25.08,-1.85 -35.16,-5.62 -10.07,-3.7 -18.53,-9.26 -25.39,-16.61 -6.86,-7.42 -12.05,-16.62 -15.51,-27.74 -3.52,-11.05 -5.25,-23.97 -5.25,-38.73 0,-13.97 1.8,-26.57 5.44,-37.76 3.58,-11.12 8.84,-20.64 15.63,-28.41 6.8,-7.79 15.08,-13.72 24.71,-17.92 9.64,-4.14 20.45,-6.24 32.37,-6.24 12.79,0 23.66,2.04 32.62,6.18 9.03,4.08 16.37,9.64 22.18,16.55 5.75,6.92 10.01,15.08 12.73,24.47 2.72,9.32 4.08,19.33 4.08,29.96l0 5.44zm-30.02 -8.84c0.37,-15.7 -3.09,-28.05 -10.44,-37.01 -7.35,-8.96 -18.16,-13.41 -32.55,-13.41 -7.42,0 -13.9,1.37 -19.46,4.14 -5.56,2.78 -10.19,6.48 -13.97,11.12 -3.77,4.57 -6.67,9.95 -8.71,16 -2.04,6.12 -3.22,12.48 -3.46,19.16l88.59 0zm225.56 13.28c0,14.27 -1.54,27.06 -4.63,38.43 -3.03,11.31 -7.54,20.94 -13.53,28.85 -5.93,7.9 -13.35,14.02 -22.12,18.28 -8.77,4.27 -18.84,6.42 -30.15,6.42 -4.82,0 -9.27,-0.49 -13.35,-1.42 -4.14,-0.99 -8.09,-2.47 -12.04,-4.57 -3.9,-2.04 -7.79,-4.63 -11.62,-7.79 -3.89,-3.09 -7.97,-6.79 -12.29,-10.99l0 81.62c0,0.99 -0.24,1.79 -0.74,2.53 -0.49,0.74 -1.24,1.36 -2.35,1.85 -1.11,0.43 -2.6,0.81 -4.57,1.05 -1.91,0.25 -4.38,0.37 -7.41,0.37 -2.97,0 -5.38,-0.12 -7.29,-0.37 -1.98,-0.24 -3.52,-0.62 -4.63,-1.05 -1.18,-0.49 -1.98,-1.11 -2.41,-1.85 -0.44,-0.75 -0.62,-1.54 -0.62,-2.53l0 -227.67c0,-1.11 0.18,-1.98 0.56,-2.66 0.37,-0.62 1.11,-1.24 2.15,-1.67 1.11,-0.49 2.48,-0.86 4.2,-1.05 1.67,-0.18 3.77,-0.24 6.18,-0.24 2.53,0 4.63,0.06 6.3,0.24 1.61,0.19 2.96,0.56 4.08,0.99 1.11,0.49 1.85,1.11 2.29,1.73 0.43,0.68 0.61,1.54 0.61,2.66l0 21.8c4.95,-5.06 9.7,-9.45 14.27,-13.22 4.58,-3.71 9.22,-6.8 13.84,-9.27 4.63,-2.47 9.39,-4.38 14.28,-5.62 4.88,-1.3 10,-1.91 15.45,-1.91 11.8,0 21.8,2.28 30.15,6.85 8.28,4.63 15.07,10.88 20.32,18.85 5.25,7.97 9.08,17.23 11.5,27.79 2.41,10.57 3.58,21.75 3.58,33.55zm-31.15 3.46c0,-8.34 -0.61,-16.43 -1.91,-24.22 -1.23,-7.78 -3.46,-14.7 -6.48,-20.75 -3.09,-6.05 -7.23,-10.88 -12.42,-14.52 -5.19,-3.65 -11.67,-5.43 -19.4,-5.43 -3.9,0 -7.66,0.56 -11.43,1.72 -3.71,1.18 -7.53,2.97 -11.43,5.44 -3.82,2.47 -7.9,5.75 -12.11,9.82 -4.2,4.08 -8.71,9.08 -13.41,15.01l0 64.81c8.22,10.07 16,17.73 23.36,23.11 7.41,5.32 15.13,7.97 23.22,7.97 7.48,0 13.9,-1.79 19.28,-5.43 5.37,-3.65 9.7,-8.47 13.03,-14.52 3.34,-6.05 5.75,-12.79 7.36,-20.32 1.54,-7.47 2.34,-15.08 2.34,-22.68z"/>
  <path class="fil2" d="M11863 9715.3c0,32.37 -8.15,57.64 -24.4,75.8 -16.32,18.16 -38.81,27.25 -67.53,27.25 -17.73,0 -33.48,-4.14 -47.26,-12.48 -13.71,-8.34 -24.34,-20.32 -31.82,-35.9 -7.53,-15.57 -11.24,-33.79 -11.24,-54.67 0,-32.37 8.1,-57.58 24.28,-75.63 16.13,-18.04 38.62,-27.06 67.28,-27.06 27.8,0 49.8,9.2 66.17,27.68 16.37,18.47 24.53,43.49 24.53,75.01zm-151.11 0c0,25.32 5.06,44.67 15.19,57.95 10.13,13.28 25.02,19.89 44.73,19.89 19.64,0 34.59,-6.61 44.78,-19.83 10.2,-13.23 15.27,-32.56 15.27,-58.01 0,-25.21 -5.06,-44.36 -15.27,-57.46 -10.19,-13.1 -25.26,-19.65 -45.16,-19.65 -19.7,0 -34.53,6.43 -44.54,19.33 -10,12.91 -15.01,32.2 -15.01,57.77zm283.07 103.05c-28.73,0 -50.96,-8.84 -66.73,-26.51 -15.75,-17.73 -23.6,-42.75 -23.6,-75.06 0,-33.24 7.98,-58.88 23.98,-76.98 15.99,-18.11 38.73,-27.18 68.32,-27.18 9.52,0 19.03,1.05 28.61,3.09 9.51,2.04 16.98,4.44 22.42,7.29l-9.27 25.51c-6.61,-2.66 -13.84,-4.82 -21.69,-6.61 -7.84,-1.73 -14.76,-2.6 -20.82,-2.6 -40.29,0 -60.42,25.7 -60.42,77.11 0,24.34 4.88,43.06 14.7,56.09 9.89,13.04 24.4,19.52 43.74,19.52 16.49,0 33.48,-3.58 50.84,-10.69l0 26.69c-13.28,6.86 -29.96,10.32 -50.1,10.32zm161.26 -24.84c5.32,0 10.43,-0.37 15.38,-1.17 4.94,-0.81 8.84,-1.61 11.74,-2.48l0 23.04c-3.28,1.54 -8.03,2.85 -14.4,3.9 -6.3,1.05 -12.04,1.54 -17.12,1.54 -38.36,0 -57.51,-20.21 -57.51,-60.67l0 -118 -28.42 0 0 -14.46 28.42 -12.54 12.66 -42.33 17.36 0 0 45.97 57.58 0 0 23.35 -57.58 0 0 116.71c0,11.98 2.84,21.12 8.52,27.55 5.68,6.36 13.47,9.57 23.36,9.57z"/>
  <path class="fil2" d="M12935.21 9814.65l0 -128.32c0,-16.18 -3.65,-28.23 -11.05,-36.2 -7.36,-7.98 -18.91,-11.93 -34.6,-11.93 -20.75,0 -35.96,5.62 -45.59,16.8 -9.7,11.24 -14.52,29.78 -14.52,55.61l0 104.04 -30.02 0 0 -198.32 24.4 0 4.89 27.06 1.48 0c6.18,-9.76 14.76,-17.36 25.88,-22.74 11.13,-5.37 23.49,-8.03 37.14,-8.03 23.91,0 41.88,5.75 53.94,17.3 12.11,11.5 18.09,29.97 18.09,55.29l0 129.44 -30.02 0zm262.94 -99.34c0,32.37 -8.15,57.64 -24.4,75.8 -16.32,18.16 -38.81,27.25 -67.53,27.25 -17.73,0 -33.48,-4.14 -47.26,-12.48 -13.71,-8.34 -24.34,-20.32 -31.82,-35.9 -7.53,-15.57 -11.24,-33.79 -11.24,-54.67 0,-32.37 8.1,-57.58 24.28,-75.63 16.13,-18.04 38.62,-27.06 67.28,-27.06 27.8,0 49.8,9.2 66.17,27.68 16.37,18.47 24.53,43.49 24.53,75.01zm-151.11 0c0,25.32 5.06,44.67 15.19,57.95 10.13,13.28 25.02,19.89 44.73,19.89 19.64,0 34.59,-6.61 44.78,-19.83 10.2,-13.23 15.27,-32.56 15.27,-58.01 0,-25.21 -5.06,-44.36 -15.27,-57.46 -10.19,-13.1 -25.26,-19.65 -45.16,-19.65 -19.7,0 -34.53,6.43 -44.54,19.33 -10,12.91 -15.01,32.2 -15.01,57.77zm239.82 99.34l-75.31 -198.32 32.25 0 42.69 117.63c9.64,27.5 15.32,45.35 16.99,53.57l1.48 0c1.29,-6.43 5.5,-19.65 12.54,-39.73 7.1,-20.07 22.93,-63.94 47.52,-131.46l32.25 0 -75.31 198.32 -35.1 0z"/>
  <path class="fil2" d="M14162.17 9788.08l-1.6 0c-13.9,20.2 -34.67,30.27 -62.28,30.27 -25.94,0 -46.15,-8.9 -60.61,-26.63 -14.4,-17.74 -21.63,-43 -21.63,-75.69 0,-32.74 7.23,-58.13 21.75,-76.24 14.46,-18.11 34.66,-27.18 60.48,-27.18 26.88,0 47.51,9.76 61.9,29.35l2.35 0 -1.24 -14.33 -0.74 -13.9 0 -80.82 30.02 0 0 281.73 -24.4 0 -4.02 -26.56zm-60.11 5.06c20.51,0 35.4,-5.56 44.67,-16.74 9.2,-11.19 13.84,-29.17 13.84,-54.06l0 -6.3c0,-28.11 -4.7,-48.19 -14.03,-60.17 -9.39,-12.05 -24.35,-18.04 -44.86,-18.04 -17.6,0 -31.07,6.85 -40.47,20.57 -9.32,13.65 -14.02,32.98 -14.02,58.01 0,25.32 4.63,44.42 13.95,57.33 9.27,12.91 22.93,19.4 40.91,19.4zm182.25 21.5l-30.02 0 0 -198.32 30.02 0 0 198.32zm-32.55 -252.19c0,-6.86 1.67,-11.86 5.06,-15.08 3.39,-3.2 7.6,-4.81 12.66,-4.81 4.82,0 9.03,1.61 12.48,4.88 3.52,3.28 5.25,8.28 5.25,15.02 0,6.8 -1.73,11.86 -5.25,15.13 -3.46,3.34 -7.66,5.01 -12.48,5.01 -5.06,0 -9.27,-1.67 -12.66,-5.01 -3.39,-3.27 -5.06,-8.33 -5.06,-15.13zm175.58 255.9c-28.73,0 -50.96,-8.84 -66.73,-26.51 -15.75,-17.73 -23.6,-42.75 -23.6,-75.06 0,-33.24 7.98,-58.88 23.98,-76.98 15.99,-18.11 38.73,-27.18 68.32,-27.18 9.52,0 19.03,1.05 28.61,3.09 9.51,2.04 16.98,4.44 22.42,7.29l-9.27 25.51c-6.61,-2.66 -13.84,-4.82 -21.69,-6.61 -7.84,-1.73 -14.76,-2.6 -20.82,-2.6 -40.29,0 -60.42,25.7 -60.42,77.11 0,24.34 4.88,43.06 14.7,56.09 9.89,13.04 24.4,19.52 43.74,19.52 16.49,0 33.48,-3.58 50.84,-10.69l0 26.69c-13.28,6.86 -29.96,10.32 -50.1,10.32z"/>
  <path class="fil2" d="M187.27 9621.84c0,22.56 2.45,39.48 7.35,50.76 4.9,11.21 12.91,16.85 23.93,16.85 21.74,0 32.62,-22.5 32.62,-67.62 0,-44.86 -10.88,-67.22 -32.62,-67.22 -11.01,0 -19.03,5.58 -23.93,16.72 -4.9,11.09 -7.35,27.93 -7.35,50.5zm91.14 0c0,30.24 -5.02,53.08 -15.22,68.56 -10.13,15.44 -25.01,23.18 -44.65,23.18 -18.63,0 -33.04,-7.88 -43.29,-23.65 -10.33,-15.84 -15.43,-38.53 -15.43,-68.09 0,-30.11 4.89,-52.81 14.82,-68.03 9.85,-15.29 24.53,-22.91 43.9,-22.91 19.23,0 33.97,7.88 44.38,23.65 10.33,15.84 15.49,38.26 15.49,67.28zm84 116.75c0,22.7 2.45,39.69 7.41,50.9 4.9,11.21 12.91,16.78 24.06,16.78 11.14,0 19.37,-5.5 24.66,-16.58 5.31,-11.14 7.95,-28.13 7.95,-51.1 0,-22.77 -2.65,-39.55 -7.95,-50.56 -5.3,-10.94 -13.52,-16.44 -24.66,-16.44 -11.15,0 -19.17,5.51 -24.06,16.44 -4.96,11.01 -7.41,27.79 -7.41,50.56zm91.41 0c0,30.11 -5.1,52.94 -15.29,68.44 -10.13,15.43 -25.01,23.17 -44.65,23.17 -18.83,0 -33.37,-7.88 -43.5,-23.72 -10.12,-15.77 -15.22,-38.47 -15.22,-67.89 0,-30.18 4.96,-52.88 14.82,-68.17 9.92,-15.29 24.53,-22.91 43.9,-22.91 18.82,0 33.5,7.82 44.1,23.38 10.54,15.64 15.84,38.2 15.84,67.69zm-51.37 -203.61l-161.41 291.14 -29.29 0 161.4 -291.14 29.3 0z"/>
  <path class="fil2" d="M6388.61 10468.55l-98.82 -258.12 -1.57 0c1.84,20.46 2.78,44.8 2.78,72.93l0 185.19 -31.26 0 0 -291.14 50.97 0 92.22 240.17 1.57 0 93.04 -240.17 50.56 0 0 291.14 -33.85 0 0 -187.57c0,-21.54 0.96,-44.92 2.78,-70.14l-1.56 0 -99.64 257.71 -27.25 0zm326.47 4.08c-32.28,0 -57.7,-9.86 -76.32,-29.5 -18.68,-19.64 -27.99,-46.96 -27.99,-81.89 0,-35.2 8.63,-63.13 25.95,-83.86 17.33,-20.73 40.57,-31.06 69.79,-31.06 27.32,0 49,8.97 64.91,26.98 15.9,18.01 23.92,41.73 23.92,71.15l0 20.93 -150.33 0c0.68,25.63 7.13,45.06 19.37,58.38 12.3,13.25 29.57,19.91 51.93,19.91 23.44,0 46.69,-4.9 69.66,-14.75l0 29.5c-11.7,5.1 -22.77,8.7 -33.16,10.95 -10.4,2.18 -22.97,3.26 -37.72,3.26zm-8.97 -198.58c-17.53,0 -31.46,5.71 -41.86,17.13 -10.47,11.35 -16.58,27.11 -18.41,47.3l114.03 0c0,-20.8 -4.62,-36.77 -13.93,-47.84 -9.31,-11.08 -22.56,-16.58 -39.83,-16.58zm286.32 135.04c0,20.32 -7.61,36.02 -22.7,47.02 -15.15,11.01 -36.36,16.52 -63.74,16.52 -28.89,0 -51.45,-4.55 -67.69,-13.72l0 -30.73c10.54,5.31 21.75,9.52 33.77,12.58 12.03,3.06 23.59,4.55 34.73,4.55 17.26,0 30.52,-2.78 39.83,-8.29 9.31,-5.51 13.93,-13.86 13.93,-25.15 0,-8.49 -3.67,-15.76 -11.08,-21.81 -7.35,-6.05 -21.68,-13.19 -43.08,-21.4 -20.32,-7.62 -34.73,-14.21 -43.29,-19.85 -8.56,-5.64 -14.95,-12.02 -19.1,-19.23 -4.21,-7.13 -6.25,-15.7 -6.25,-25.69 0,-17.8 7.21,-31.81 21.69,-42.14 14.47,-10.26 34.32,-15.43 59.53,-15.43 23.44,0 46.41,4.76 68.85,14.34l-11.76 26.91c-21.89,-9.04 -41.73,-13.52 -59.46,-13.52 -15.7,0 -27.53,2.45 -35.47,7.35 -7.95,4.96 -11.97,11.68 -11.97,20.31 0,5.84 1.5,10.81 4.49,14.95 2.99,4.08 7.82,8.02 14.48,11.76 6.59,3.67 19.37,9.11 38.2,16.11 25.89,9.45 43.36,18.96 52.46,28.48 9.11,9.58 13.66,21.6 13.66,36.08zm308.27 30.24l-1.77 0c-15.29,22.22 -38.12,33.3 -68.5,33.3 -28.55,0 -50.76,-9.78 -66.67,-29.29 -15.84,-19.51 -23.78,-47.31 -23.78,-83.25 0,-36.02 7.94,-63.95 23.92,-83.86 15.91,-19.91 38.12,-29.91 66.54,-29.91 29.56,0 52.26,10.74 68.09,32.28l2.58 0 -1.36 -15.76 -0.82 -15.29 0 -88.9 33.03 0 0 309.9 -26.84 0 -4.42 -29.22zm-66.13 5.57c22.57,0 38.94,-6.12 49.14,-18.41 10.13,-12.3 15.23,-32.08 15.23,-59.46l0 -6.94c0,-30.92 -5.16,-53.01 -15.43,-66.19 -10.33,-13.26 -26.77,-19.85 -49.33,-19.85 -19.38,0 -34.19,7.54 -44.52,22.63 -10.26,15.02 -15.43,36.28 -15.43,63.81 0,27.86 5.1,48.86 15.36,63.07 10.19,14.2 25.21,21.33 44.98,21.33zm259.61 27.73c-32.28,0 -57.7,-9.86 -76.32,-29.5 -18.68,-19.64 -27.99,-46.96 -27.99,-81.89 0,-35.2 8.63,-63.13 25.95,-83.86 17.33,-20.73 40.57,-31.06 69.79,-31.06 27.32,0 49,8.97 64.91,26.98 15.9,18.01 23.92,41.73 23.92,71.15l0 20.93 -150.33 0c0.68,25.63 7.13,45.06 19.37,58.38 12.3,13.25 29.57,19.91 51.93,19.91 23.44,0 46.69,-4.9 69.66,-14.75l0 29.5c-11.7,5.1 -22.77,8.7 -33.16,10.95 -10.4,2.18 -22.97,3.26 -37.72,3.26zm-8.97 -198.58c-17.53,0 -31.46,5.71 -41.86,17.13 -10.47,11.35 -16.58,27.11 -18.41,47.3l114.03 0c0,-20.8 -4.62,-36.77 -13.93,-47.84 -9.31,-11.08 -22.56,-16.58 -39.83,-16.58zm439.85 85.22c0,35.61 -8.97,63.4 -26.85,83.39 -17.94,19.98 -42.68,29.97 -74.28,29.97 -19.5,0 -36.83,-4.55 -51.99,-13.72 -15.08,-9.17 -26.77,-22.36 -34.99,-39.49 -8.29,-17.13 -12.37,-37.18 -12.37,-60.15 0,-35.61 8.9,-63.33 26.7,-83.18 17.74,-19.84 42.47,-29.77 74.01,-29.77 30.59,0 54.78,10.13 72.79,30.45 18.01,20.31 26.98,47.84 26.98,82.5zm-166.24 0c0,27.87 5.58,49.14 16.72,63.75 11.15,14.61 27.53,21.88 49.21,21.88 21.6,0 38.05,-7.27 49.27,-21.81 11.21,-14.54 16.78,-35.81 16.78,-63.81 0,-27.72 -5.57,-48.79 -16.78,-63.21 -11.22,-14.41 -27.8,-21.6 -49.68,-21.6 -21.68,0 -37.99,7.06 -49,21.27 -11.01,14.21 -16.52,35.41 -16.52,63.54zm311.39 113.36c-31.6,0 -56.07,-9.72 -73.4,-29.16 -17.33,-19.5 -25.95,-47.02 -25.95,-82.57 0,-36.56 8.76,-64.76 26.36,-84.67 17.6,-19.91 42.61,-29.91 75.16,-29.91 10.47,0 20.93,1.16 31.46,3.4 10.47,2.24 18.69,4.89 24.67,8.02l-10.19 28.07c-7.27,-2.92 -15.23,-5.31 -23.85,-7.27 -8.63,-1.9 -16.25,-2.86 -22.91,-2.86 -44.3,0 -66.46,28.28 -66.46,84.82 0,26.77 5.37,47.37 16.17,61.7 10.88,14.34 26.85,21.48 48.12,21.48 18.15,0 36.84,-3.94 55.93,-11.76l0 29.36c-14.61,7.54 -32.96,11.35 -55.11,11.35zm137.96 -222.23l0 141.56c0,17.74 4,31.06 12.17,39.83 8.08,8.76 20.8,13.11 38.05,13.11 22.83,0 39.49,-6.25 50.09,-18.68 10.53,-12.5 15.84,-32.9 15.84,-61.17l0 -114.65 33.03 0 0 218.16 -27.25 0 -4.76 -29.16 -1.84 0c-6.73,10.74 -16.17,18.97 -28.2,24.67 -11.96,5.71 -25.69,8.56 -41.12,8.56 -26.56,0 -46.41,-6.32 -59.66,-18.89 -13.19,-12.64 -19.78,-32.83 -19.78,-60.55l0 -142.79 33.44 0zm318.74 -4.08c9.65,0 18.35,0.82 26.03,2.39l-4.56 30.78c-9.04,-1.96 -16.98,-2.98 -23.92,-2.98 -17.6,0 -32.69,7.13 -45.27,21.48 -12.5,14.33 -18.76,32.21 -18.76,53.55l0 117.03 -33.09 0 0 -218.16 27.32 0 3.73 40.31 1.64 0c8.08,-14.21 17.8,-25.15 29.22,-32.83 11.41,-7.68 23.92,-11.56 37.65,-11.56zm166.44 0c9.65,0 18.35,0.82 26.03,2.39l-4.56 30.78c-9.04,-1.96 -16.98,-2.98 -23.92,-2.98 -17.6,0 -32.69,7.13 -45.27,21.48 -12.5,14.33 -18.76,32.21 -18.76,53.55l0 117.03 -33.09 0 0 -218.16 27.32 0 3.73 40.31 1.64 0c8.08,-14.21 17.8,-25.15 29.22,-32.83 11.41,-7.68 23.92,-11.56 37.65,-11.56zm150.94 226.31c-32.28,0 -57.7,-9.86 -76.32,-29.5 -18.68,-19.64 -27.99,-46.96 -27.99,-81.89 0,-35.2 8.63,-63.13 25.95,-83.86 17.33,-20.73 40.57,-31.06 69.79,-31.06 27.32,0 49,8.97 64.91,26.98 15.9,18.01 23.92,41.73 23.92,71.15l0 20.93 -150.33 0c0.68,25.63 7.13,45.06 19.37,58.38 12.3,13.25 29.57,19.91 51.93,19.91 23.44,0 46.69,-4.9 69.66,-14.75l0 29.5c-11.7,5.1 -22.77,8.7 -33.16,10.95 -10.4,2.18 -22.97,3.26 -37.72,3.26zm-8.97 -198.58c-17.53,0 -31.46,5.71 -41.86,17.13 -10.47,11.35 -16.58,27.11 -18.41,47.3l114.03 0c0,-20.8 -4.62,-36.77 -13.93,-47.84 -9.31,-11.08 -22.56,-16.58 -39.83,-16.58zm294.96 194.5l0 -141.15c0,-17.8 -4.01,-31.06 -12.17,-39.83 -8.09,-8.76 -20.8,-13.11 -38.06,-13.11 -22.83,0 -39.55,6.18 -50.15,18.48 -10.67,12.37 -15.97,32.75 -15.97,61.17l0 114.44 -33.03 0 0 -218.16 26.85 0 5.37 29.77 1.63 0c6.8,-10.74 16.25,-19.09 28.48,-25.01 12.23,-5.92 25.83,-8.84 40.84,-8.84 26.3,0 46.08,6.33 59.33,19.03 13.32,12.64 19.91,32.96 19.91,60.83l0 142.37 -33.03 0zm188.11 4.08c-31.6,0 -56.07,-9.72 -73.4,-29.16 -17.33,-19.5 -25.95,-47.02 -25.95,-82.57 0,-36.56 8.76,-64.76 26.36,-84.67 17.6,-19.91 42.61,-29.91 75.16,-29.91 10.47,0 20.93,1.16 31.46,3.4 10.47,2.24 18.69,4.89 24.67,8.02l-10.19 28.07c-7.27,-2.92 -15.23,-5.31 -23.85,-7.27 -8.63,-1.9 -16.25,-2.86 -22.91,-2.86 -44.3,0 -66.46,28.28 -66.46,84.82 0,26.77 5.37,47.37 16.17,61.7 10.88,14.34 26.85,21.48 48.12,21.48 18.15,0 36.84,-3.94 55.93,-11.76l0 29.36c-14.61,7.54 -32.96,11.35 -55.11,11.35zm139.92 -4.08l-33.03 0 0 -218.16 33.03 0 0 218.16zm-35.81 -277.41c0,-7.54 1.84,-13.05 5.57,-16.58 3.74,-3.54 8.36,-5.31 13.93,-5.31 5.31,0 9.92,1.77 13.73,5.37 3.87,3.6 5.77,9.11 5.77,16.52 0,7.47 -1.9,13.04 -5.77,16.64 -3.81,3.67 -8.43,5.51 -13.73,5.51 -5.57,0 -10.19,-1.84 -13.93,-5.51 -3.73,-3.6 -5.57,-9.17 -5.57,-16.64zm240.11 277.41l-6.59 -31.06 -1.63 0c-10.88,13.66 -21.69,22.97 -32.49,27.87 -10.88,4.82 -24.33,7.27 -40.51,7.27 -21.68,0 -38.6,-5.57 -50.9,-16.72 -12.23,-11.21 -18.41,-27.05 -18.41,-47.71 0,-44.11 35.26,-67.21 105.68,-69.32l37.03 -1.22 0 -13.52c0,-17.06 -3.67,-29.71 -11,-37.86 -7.41,-8.15 -19.17,-12.23 -35.35,-12.23 -18.21,0 -38.73,5.57 -61.7,16.72l-10.13 -25.28c10.74,-5.84 22.5,-10.47 35.28,-13.8 12.84,-3.33 25.69,-4.96 38.53,-4.96 26.03,0 45.26,5.78 57.84,17.33 12.57,11.56 18.82,30.04 18.82,55.52l0 148.97 -24.46 0zm-74.69 -23.24c20.6,0 36.77,-5.64 48.46,-16.92 11.75,-11.29 17.66,-27.05 17.66,-47.37l0 -19.71 -33.1 1.43c-26.23,0.88 -45.18,4.96 -56.81,12.23 -11.62,7.21 -17.4,18.48 -17.4,33.71 0,11.96 3.6,21.07 10.88,27.26 7.2,6.25 17.33,9.37 30.3,9.37z"/>
 </g>
</svg>
