<?xml version="1.0" encoding="UTF-8"?>
<!DOCTYPE svg PUBLIC "-//W3C//DTD SVG 1.1//EN" "http://www.w3.org/Graphics/SVG/1.1/DTD/svg11.dtd">
<!-- Creator: CorelDRAW 2017 -->
<svg xmlns="http://www.w3.org/2000/svg" xml:space="preserve" width="250.886mm" height="146.813mm" version="1.1" style="shape-rendering:geometricPrecision; text-rendering:geometricPrecision; image-rendering:optimizeQuality; fill-rule:evenodd; clip-rule:evenodd"
viewBox="0 0 24287.71 14212.6"
 xmlns:xlink="http://www.w3.org/1999/xlink">
 <defs>
  <style type="text/css">
   <![CDATA[
    .str0 {stroke:#AAC2CC;stroke-width:7.38;stroke-miterlimit:22.9256}
    .str2 {stroke:#BF0000;stroke-width:96.81;stroke-miterlimit:22.9256;stroke-dasharray:96.807715 96.807715}
    .str1 {stroke:#D4E0E5;stroke-width:24.2;stroke-miterlimit:22.9256}
    .fil0 {fill:none}
    .fil6 {fill:#0087C0}
    .fil7 {fill:#F2A341}
    .fil4 {fill:black;fill-rule:nonzero}
    .fil5 {fill:#BF0000;fill-rule:nonzero}
    .fil3 {fill:white;fill-rule:nonzero}
    .fil8 {fill:white;fill-rule:nonzero}
    .fil2 {fill:url(#id0);fill-rule:nonzero}
    .fil1 {fill:url(#id1);fill-rule:nonzero}
   ]]>
  </style>
  <linearGradient id="id0" gradientUnits="userSpaceOnUse" x1="11241.59" y1="3254.3" x2="11496.8" y2="13511.91">
   <stop offset="0" style="stop-opacity:1; stop-color:#EEF3F5"/>
   <stop offset="1" style="stop-opacity:1; stop-color:#0087C0"/>
  </linearGradient>
  <linearGradient id="id1" gradientUnits="userSpaceOnUse" x1="23009.32" y1="13452.18" x2="21895.54" y2="3105.02">
   <stop offset="0" style="stop-opacity:1; stop-color:#F2A341"/>
   <stop offset="1" style="stop-opacity:1; stop-color:#FCEBD8"/>
  </linearGradient>
 </defs>
 <g id="Capa_x0020_1">
  <metadata id="CorelCorpID_0Corel-Layer"/>
  <path class="fil0 str0" d="M1791.95 13509.79l22495.76 0m-22495.76 -2476.15l22495.76 0m-22495.76 -2476.14l22495.76 0m-22495.76 -2476.15l22495.76 0m-22495.76 -2476.14l22495.76 0m-22495.76 -2476.15l22495.76 0"/>
  <path class="fil1 str1" d="M22583.56 3047.41l1319.59 0 0 10462.38 -1319.59 0 0 -10462.38zm-1581.84 2458.85l1319.57 0 0 8003.53 -1319.57 0 0 -8003.53z"/>
  <path class="fil2 str1" d="M19419.86 4387.48l1315.48 0 0 9122.31 -1315.48 0 0 -9122.31zm-1585.96 -45.07l1319.59 0 0 9167.38 -1319.59 0 0 -9167.38zm-1581.86 -81.96l1319.59 0 0 9249.34 -1319.59 0 0 -9249.34zm-1585.95 -143.44l1319.58 0 0 9392.78 -1319.58 0 0 -9392.78zm-1581.86 -127.04l1319.58 0 0 9519.82 -1319.58 0 0 -9519.82zm-1581.86 -131.14l1319.58 0 0 9650.95 -1319.58 0 0 -9650.95zm-1585.95 -122.95l1319.58 0 0 9773.9 -1319.58 0 0 -9773.9zm-1581.86 -118.84l1319.58 0 0 9892.74 -1319.58 0 0 -9892.74zm-1581.86 -131.14l1319.58 0 0 10023.88 -1319.58 0 0 -10023.88zm-1585.94 -40.98l1319.57 0 0 10064.86 -1319.57 0 0 -10064.86zm-1581.86 -188.51l1319.58 0 0 10253.37 -1319.58 0 0 -10253.37zm-1581.86 8.19l1319.58 0 0 10245.18 -1319.58 0 0 -10245.18z"/>
  <path class="fil3" d="M2403.97 13075.6c0,114.48 -44.33,171.71 -132.92,171.71 -15.5,0 -27.79,-1.36 -36.87,-4.03l0 -28.62c10.72,3.49 22.81,5.19 36.47,5.19 32.03,0 56.22,-9.9 72.54,-29.71 16.39,-19.81 25.27,-50.2 26.78,-91.18l-2.46 0c-7.31,11.07 -17.08,19.54 -29.24,25.34 -12.09,5.8 -25.82,8.67 -40.98,8.67 -25.89,0 -46.45,-7.73 -61.68,-23.22 -15.24,-15.44 -22.82,-37.09 -22.82,-64.82 0,-30.39 8.47,-54.43 25.48,-71.99 17.08,-17.62 39.41,-26.43 67.2,-26.43 19.87,0 37.22,5.12 52.12,15.3 14.89,10.24 26.36,25.06 34.35,44.67 8,19.54 12.02,42.56 12.02,69.12zm-98.49 -100.81c-19.12,0 -33.87,6.15 -44.26,18.43 -10.45,12.29 -15.63,29.37 -15.63,51.23 0,19.26 4.85,34.36 14.4,45.35 9.63,11 24.25,16.53 43.85,16.53 12.16,0 23.36,-2.46 33.53,-7.38 10.24,-4.99 18.24,-11.68 24.11,-20.28 5.87,-8.54 8.81,-17.48 8.81,-26.78 0,-14.07 -2.73,-26.98 -8.2,-38.86 -5.46,-11.89 -13.11,-21.25 -22.88,-28.07 -9.84,-6.77 -21.1,-10.17 -33.75,-10.17zm237.35 -28.28c26.63,0 47.8,6.22 63.45,18.58 15.58,12.43 23.43,29.57 23.43,51.42 0,14.41 -4.51,27.53 -13.46,39.41 -8.95,11.89 -23.22,22.68 -42.82,32.45 23.77,11.34 40.63,23.21 50.68,35.71 9.97,12.51 14.96,26.91 14.96,43.31 0,24.31 -8.47,43.71 -25.41,58.19 -16.94,14.47 -40.16,21.71 -69.66,21.71 -31.22,0 -55.26,-6.82 -72.06,-20.48 -16.8,-13.73 -25.2,-33.13 -25.2,-58.19 0,-33.54 20.42,-59.63 61.27,-78.28 -18.44,-10.45 -31.63,-21.65 -39.69,-33.74 -7.99,-12.02 -11.95,-25.55 -11.95,-40.5 0,-21.17 7.78,-38.11 23.5,-50.68 15.63,-12.63 36.67,-18.92 62.97,-18.92zm-63.32 222.86c0,16.05 5.61,28.48 16.74,37.44 11.13,8.95 26.78,13.45 46.92,13.45 19.94,0 35.38,-4.64 46.52,-14 11.07,-9.36 16.59,-22.2 16.59,-38.45 0,-12.98 -5.19,-24.52 -15.64,-34.56 -10.38,-10.11 -28.55,-19.87 -54.43,-29.37 -19.87,8.54 -34.28,17.97 -43.23,28.35 -8.95,10.38 -13.46,22.75 -13.46,37.15zm62.91 -195.81c-16.73,0 -29.78,4.03 -39.27,12.01 -9.5,8 -14.21,18.65 -14.21,31.97 0,12.29 3.96,22.82 11.82,31.63 7.85,8.81 22.4,17.62 43.64,26.43 19.12,-7.99 32.58,-16.59 40.57,-25.82 7.92,-9.22 11.88,-19.94 11.88,-32.24 0,-13.46 -4.84,-24.17 -14.47,-32.1 -9.7,-7.92 -23.02,-11.88 -39.96,-11.88zm148.22 248.41c0,-8.88 2.04,-15.64 6.08,-20.22 4.09,-4.57 9.9,-6.89 17.55,-6.89 7.72,0 13.73,2.32 18.09,6.89 4.31,4.58 6.5,11.35 6.5,20.22 0,8.67 -2.19,15.36 -6.56,20.01 -4.43,4.65 -10.45,6.97 -18.03,6.97 -6.83,0 -12.43,-2.12 -16.94,-6.28 -4.44,-4.17 -6.69,-11.07 -6.69,-20.7zm280.03 -202.44c0,18.65 -5.19,33.87 -15.71,45.76 -10.45,11.88 -25.27,19.81 -44.53,23.77l0 1.64c23.5,2.94 40.91,10.39 52.26,22.41 11.34,12.01 17,27.79 17,47.26 0,27.94 -9.62,49.38 -29.02,64.41 -19.33,15.02 -46.79,22.54 -82.44,22.54 -15.5,0 -29.64,-1.16 -42.55,-3.49 -12.85,-2.38 -25.41,-6.49 -37.5,-12.36l0 -31.62c12.64,6.22 26.16,11 40.5,14.27 14.35,3.28 27.94,4.92 40.78,4.92 50.54,0 75.82,-19.81 75.82,-59.42 0,-35.52 -27.87,-53.27 -83.67,-53.27l-28.83 0 0 -28.68 29.24 0c22.82,0 40.91,-5.05 54.23,-15.09 13.39,-10.12 20.08,-24.05 20.08,-41.94 0,-14.28 -4.92,-25.48 -14.75,-33.61 -9.84,-8.12 -23.08,-12.22 -39.95,-12.22 -12.77,0 -24.86,1.7 -36.2,5.19 -11.35,3.49 -24.32,9.9 -38.87,19.19l-16.8 -22.4c12.01,-9.42 25.89,-16.8 41.52,-22.2 15.71,-5.39 32.17,-8.05 49.52,-8.05 28.48,0 50.54,6.49 66.32,19.46 15.71,13.05 23.56,30.87 23.56,53.55zm245.41 223.68l-192.41 0 0 -28.62 77.12 -77.46c23.43,-23.77 38.93,-40.71 46.44,-50.88 7.44,-10.11 13.05,-20.01 16.81,-29.57 3.69,-9.63 5.6,-19.94 5.6,-31.08 0,-15.58 -4.77,-27.94 -14.2,-37.09 -9.5,-9.16 -22.67,-13.73 -39.48,-13.73 -12.16,0 -23.63,1.97 -34.49,6 -10.93,3.97 -23.02,11.28 -36.33,21.79l-17.63 -22.6c26.91,-22.33 56.28,-33.47 88.05,-33.47 27.52,0 49.03,7.03 64.68,21.1 15.64,14.07 23.43,32.98 23.43,56.76 0,18.51 -5.19,36.88 -15.64,55.04 -10.38,18.1 -29.85,41.06 -58.46,68.78l-64.07 62.7 0 1.57 150.6 0 0 30.74z"/>
  <path class="fil3" d="M3985.83 13075.6c0,114.48 -44.33,171.71 -132.92,171.71 -15.5,0 -27.79,-1.36 -36.87,-4.03l0 -28.62c10.72,3.49 22.81,5.19 36.47,5.19 32.03,0 56.22,-9.9 72.54,-29.71 16.39,-19.81 25.27,-50.2 26.78,-91.18l-2.46 0c-7.31,11.07 -17.08,19.54 -29.24,25.34 -12.09,5.8 -25.82,8.67 -40.98,8.67 -25.89,0 -46.45,-7.73 -61.68,-23.22 -15.24,-15.44 -22.82,-37.09 -22.82,-64.82 0,-30.39 8.47,-54.43 25.48,-71.99 17.08,-17.62 39.41,-26.43 67.2,-26.43 19.87,0 37.22,5.12 52.12,15.3 14.89,10.24 26.36,25.06 34.35,44.67 8,19.54 12.02,42.56 12.02,69.12zm-98.49 -100.81c-19.12,0 -33.87,6.15 -44.26,18.43 -10.45,12.29 -15.63,29.37 -15.63,51.23 0,19.26 4.85,34.36 14.4,45.35 9.63,11 24.25,16.53 43.85,16.53 12.16,0 23.36,-2.46 33.53,-7.38 10.24,-4.99 18.24,-11.68 24.11,-20.28 5.87,-8.54 8.81,-17.48 8.81,-26.78 0,-14.07 -2.73,-26.98 -8.2,-38.86 -5.46,-11.89 -13.11,-21.25 -22.88,-28.07 -9.84,-6.77 -21.1,-10.17 -33.75,-10.17zm237.35 -28.28c26.63,0 47.8,6.22 63.45,18.58 15.58,12.43 23.43,29.57 23.43,51.42 0,14.41 -4.51,27.53 -13.46,39.41 -8.95,11.89 -23.22,22.68 -42.82,32.45 23.77,11.34 40.63,23.21 50.68,35.71 9.97,12.51 14.96,26.91 14.96,43.31 0,24.31 -8.47,43.71 -25.41,58.19 -16.94,14.47 -40.16,21.71 -69.66,21.71 -31.22,0 -55.26,-6.82 -72.06,-20.48 -16.8,-13.73 -25.2,-33.13 -25.2,-58.19 0,-33.54 20.42,-59.63 61.27,-78.28 -18.44,-10.45 -31.63,-21.65 -39.69,-33.74 -7.99,-12.02 -11.95,-25.55 -11.95,-40.5 0,-21.17 7.78,-38.11 23.5,-50.68 15.63,-12.63 36.67,-18.92 62.97,-18.92zm-63.32 222.86c0,16.05 5.61,28.48 16.74,37.44 11.13,8.95 26.78,13.45 46.92,13.45 19.94,0 35.38,-4.64 46.52,-14 11.07,-9.36 16.59,-22.2 16.59,-38.45 0,-12.98 -5.19,-24.52 -15.64,-34.56 -10.38,-10.11 -28.55,-19.87 -54.43,-29.37 -19.87,8.54 -34.28,17.97 -43.23,28.35 -8.95,10.38 -13.46,22.75 -13.46,37.15zm62.91 -195.81c-16.73,0 -29.78,4.03 -39.27,12.01 -9.5,8 -14.21,18.65 -14.21,31.97 0,12.29 3.96,22.82 11.82,31.63 7.85,8.81 22.4,17.62 43.64,26.43 19.12,-7.99 32.58,-16.59 40.57,-25.82 7.92,-9.22 11.88,-19.94 11.88,-32.24 0,-13.46 -4.84,-24.17 -14.47,-32.1 -9.7,-7.92 -23.02,-11.88 -39.96,-11.88zm148.22 248.41c0,-8.88 2.04,-15.64 6.08,-20.22 4.09,-4.57 9.9,-6.89 17.55,-6.89 7.72,0 13.73,2.32 18.09,6.89 4.31,4.58 6.5,11.35 6.5,20.22 0,8.67 -2.19,15.36 -6.56,20.01 -4.43,4.65 -10.45,6.97 -18.03,6.97 -6.83,0 -12.43,-2.12 -16.94,-6.28 -4.44,-4.17 -6.69,-11.07 -6.69,-20.7zm280.03 -202.44c0,18.65 -5.19,33.87 -15.71,45.76 -10.45,11.88 -25.27,19.81 -44.53,23.77l0 1.64c23.5,2.94 40.91,10.39 52.26,22.41 11.34,12.01 17,27.79 17,47.26 0,27.94 -9.62,49.38 -29.02,64.41 -19.33,15.02 -46.79,22.54 -82.44,22.54 -15.5,0 -29.64,-1.16 -42.55,-3.49 -12.85,-2.38 -25.41,-6.49 -37.5,-12.36l0 -31.62c12.64,6.22 26.16,11 40.5,14.27 14.35,3.28 27.94,4.92 40.78,4.92 50.54,0 75.82,-19.81 75.82,-59.42 0,-35.52 -27.87,-53.27 -83.67,-53.27l-28.83 0 0 -28.68 29.24 0c22.82,0 40.91,-5.05 54.23,-15.09 13.39,-10.12 20.08,-24.05 20.08,-41.94 0,-14.28 -4.92,-25.48 -14.75,-33.61 -9.84,-8.12 -23.08,-12.22 -39.95,-12.22 -12.77,0 -24.86,1.7 -36.2,5.19 -11.35,3.49 -24.32,9.9 -38.87,19.19l-16.8 -22.4c12.01,-9.42 25.89,-16.8 41.52,-22.2 15.71,-5.39 32.17,-8.05 49.52,-8.05 28.48,0 50.54,6.49 66.32,19.46 15.71,13.05 23.56,30.87 23.56,53.55zm234.34 0c0,18.65 -5.19,33.87 -15.71,45.76 -10.45,11.88 -25.27,19.81 -44.53,23.77l0 1.64c23.5,2.94 40.91,10.39 52.26,22.41 11.34,12.01 17,27.79 17,47.26 0,27.94 -9.62,49.38 -29.02,64.41 -19.33,15.02 -46.79,22.54 -82.44,22.54 -15.5,0 -29.64,-1.16 -42.55,-3.49 -12.85,-2.38 -25.41,-6.49 -37.5,-12.36l0 -31.62c12.64,6.22 26.16,11 40.5,14.27 14.35,3.28 27.94,4.92 40.78,4.92 50.54,0 75.82,-19.81 75.82,-59.42 0,-35.52 -27.87,-53.27 -83.67,-53.27l-28.83 0 0 -28.68 29.24 0c22.82,0 40.91,-5.05 54.23,-15.09 13.39,-10.12 20.08,-24.05 20.08,-41.94 0,-14.28 -4.92,-25.48 -14.75,-33.61 -9.84,-8.12 -23.08,-12.22 -39.95,-12.22 -12.77,0 -24.86,1.7 -36.2,5.19 -11.35,3.49 -24.32,9.9 -38.87,19.19l-16.8 -22.4c12.01,-9.42 25.89,-16.8 41.52,-22.2 15.71,-5.39 32.17,-8.05 49.52,-8.05 28.48,0 50.54,6.49 66.32,19.46 15.71,13.05 23.56,30.87 23.56,53.55z"/>
  <path class="fil3" d="M5571.78 13075.6c0,114.48 -44.33,171.71 -132.92,171.71 -15.5,0 -27.79,-1.36 -36.87,-4.03l0 -28.62c10.72,3.49 22.81,5.19 36.47,5.19 32.03,0 56.22,-9.9 72.54,-29.71 16.39,-19.81 25.27,-50.2 26.78,-91.18l-2.46 0c-7.31,11.07 -17.08,19.54 -29.24,25.34 -12.09,5.8 -25.82,8.67 -40.98,8.67 -25.89,0 -46.45,-7.73 -61.68,-23.22 -15.24,-15.44 -22.82,-37.09 -22.82,-64.82 0,-30.39 8.47,-54.43 25.48,-71.99 17.08,-17.62 39.41,-26.43 67.2,-26.43 19.87,0 37.22,5.12 52.12,15.3 14.89,10.24 26.36,25.06 34.35,44.67 8,19.54 12.02,42.56 12.02,69.12zm-98.49 -100.81c-19.12,0 -33.87,6.15 -44.26,18.43 -10.45,12.29 -15.63,29.37 -15.63,51.23 0,19.26 4.85,34.36 14.4,45.35 9.63,11 24.25,16.53 43.85,16.53 12.16,0 23.36,-2.46 33.53,-7.38 10.24,-4.99 18.24,-11.68 24.11,-20.28 5.87,-8.54 8.81,-17.48 8.81,-26.78 0,-14.07 -2.73,-26.98 -8.2,-38.86 -5.46,-11.89 -13.11,-21.25 -22.88,-28.07 -9.84,-6.77 -21.1,-10.17 -33.75,-10.17zm237.35 -28.28c26.63,0 47.8,6.22 63.45,18.58 15.58,12.43 23.43,29.57 23.43,51.42 0,14.41 -4.51,27.53 -13.46,39.41 -8.95,11.89 -23.22,22.68 -42.82,32.45 23.77,11.34 40.63,23.21 50.68,35.71 9.97,12.51 14.96,26.91 14.96,43.31 0,24.31 -8.47,43.71 -25.41,58.19 -16.94,14.47 -40.16,21.71 -69.66,21.71 -31.22,0 -55.26,-6.82 -72.06,-20.48 -16.8,-13.73 -25.2,-33.13 -25.2,-58.19 0,-33.54 20.42,-59.63 61.27,-78.28 -18.44,-10.45 -31.63,-21.65 -39.69,-33.74 -7.99,-12.02 -11.95,-25.55 -11.95,-40.5 0,-21.17 7.78,-38.11 23.5,-50.68 15.63,-12.63 36.67,-18.92 62.97,-18.92zm-63.32 222.86c0,16.05 5.61,28.48 16.74,37.44 11.13,8.95 26.78,13.45 46.92,13.45 19.94,0 35.38,-4.64 46.52,-14 11.07,-9.36 16.59,-22.2 16.59,-38.45 0,-12.98 -5.19,-24.52 -15.64,-34.56 -10.38,-10.11 -28.55,-19.87 -54.43,-29.37 -19.87,8.54 -34.28,17.97 -43.23,28.35 -8.95,10.38 -13.46,22.75 -13.46,37.15zm62.91 -195.81c-16.73,0 -29.78,4.03 -39.27,12.01 -9.5,8 -14.21,18.65 -14.21,31.97 0,12.29 3.96,22.82 11.82,31.63 7.85,8.81 22.4,17.62 43.64,26.43 19.12,-7.99 32.58,-16.59 40.57,-25.82 7.92,-9.22 11.88,-19.94 11.88,-32.24 0,-13.46 -4.84,-24.17 -14.47,-32.1 -9.7,-7.92 -23.02,-11.88 -39.96,-11.88zm148.22 248.41c0,-8.88 2.04,-15.64 6.08,-20.22 4.09,-4.57 9.9,-6.89 17.55,-6.89 7.72,0 13.73,2.32 18.09,6.89 4.31,4.58 6.5,11.35 6.5,20.22 0,8.67 -2.19,15.36 -6.56,20.01 -4.43,4.65 -10.45,6.97 -18.03,6.97 -6.83,0 -12.43,-2.12 -16.94,-6.28 -4.44,-4.17 -6.69,-11.07 -6.69,-20.7zm221.77 21.24l-32.37 0 0 -208.52c0,-17.35 0.54,-33.74 1.57,-49.18 -2.8,2.8 -5.94,5.74 -9.43,8.81 -3.41,3.08 -19.32,16.05 -47.6,39.07l-17.63 -22.89 77.46 -59.89 28.01 0 0 292.6zm208.18 -296.7c26.63,0 47.8,6.22 63.45,18.58 15.58,12.43 23.43,29.57 23.43,51.42 0,14.41 -4.51,27.53 -13.46,39.41 -8.95,11.89 -23.22,22.68 -42.82,32.45 23.77,11.34 40.63,23.21 50.68,35.71 9.97,12.51 14.96,26.91 14.96,43.31 0,24.31 -8.47,43.71 -25.41,58.19 -16.94,14.47 -40.16,21.71 -69.66,21.71 -31.22,0 -55.26,-6.82 -72.06,-20.48 -16.8,-13.73 -25.2,-33.13 -25.2,-58.19 0,-33.54 20.42,-59.63 61.27,-78.28 -18.44,-10.45 -31.63,-21.65 -39.69,-33.74 -7.99,-12.02 -11.95,-25.55 -11.95,-40.5 0,-21.17 7.78,-38.11 23.5,-50.68 15.63,-12.63 36.67,-18.92 62.97,-18.92zm-63.32 222.86c0,16.05 5.61,28.48 16.74,37.44 11.13,8.95 26.78,13.45 46.92,13.45 19.94,0 35.38,-4.64 46.52,-14 11.07,-9.36 16.59,-22.2 16.59,-38.45 0,-12.98 -5.19,-24.52 -15.64,-34.56 -10.38,-10.11 -28.55,-19.87 -54.43,-29.37 -19.87,8.54 -34.28,17.97 -43.23,28.35 -8.95,10.38 -13.46,22.75 -13.46,37.15zm62.91 -195.81c-16.73,0 -29.78,4.03 -39.27,12.01 -9.5,8 -14.21,18.65 -14.21,31.97 0,12.29 3.96,22.82 11.82,31.63 7.85,8.81 22.4,17.62 43.64,26.43 19.12,-7.99 32.58,-16.59 40.57,-25.82 7.92,-9.22 11.88,-19.94 11.88,-32.24 0,-13.46 -4.84,-24.17 -14.47,-32.1 -9.7,-7.92 -23.02,-11.88 -39.96,-11.88z"/>
  <path class="fil3" d="M7153.64 13075.6c0,114.48 -44.33,171.71 -132.92,171.71 -15.5,0 -27.79,-1.36 -36.87,-4.03l0 -28.62c10.72,3.49 22.81,5.19 36.47,5.19 32.03,0 56.22,-9.9 72.54,-29.71 16.39,-19.81 25.27,-50.2 26.78,-91.18l-2.46 0c-7.31,11.07 -17.08,19.54 -29.24,25.34 -12.09,5.8 -25.82,8.67 -40.98,8.67 -25.89,0 -46.45,-7.73 -61.68,-23.22 -15.24,-15.44 -22.82,-37.09 -22.82,-64.82 0,-30.39 8.47,-54.43 25.48,-71.99 17.08,-17.62 39.41,-26.43 67.2,-26.43 19.87,0 37.22,5.12 52.12,15.3 14.89,10.24 26.36,25.06 34.35,44.67 8,19.54 12.02,42.56 12.02,69.12zm-98.49 -100.81c-19.12,0 -33.87,6.15 -44.26,18.43 -10.45,12.29 -15.63,29.37 -15.63,51.23 0,19.26 4.85,34.36 14.4,45.35 9.63,11 24.25,16.53 43.85,16.53 12.16,0 23.36,-2.46 33.53,-7.38 10.24,-4.99 18.24,-11.68 24.11,-20.28 5.87,-8.54 8.81,-17.48 8.81,-26.78 0,-14.07 -2.73,-26.98 -8.2,-38.86 -5.46,-11.89 -13.11,-21.25 -22.88,-28.07 -9.84,-6.77 -21.1,-10.17 -33.75,-10.17zm237.35 -28.28c26.63,0 47.8,6.22 63.45,18.58 15.58,12.43 23.43,29.57 23.43,51.42 0,14.41 -4.51,27.53 -13.46,39.41 -8.95,11.89 -23.22,22.68 -42.82,32.45 23.77,11.34 40.63,23.21 50.68,35.71 9.97,12.51 14.96,26.91 14.96,43.31 0,24.31 -8.47,43.71 -25.41,58.19 -16.94,14.47 -40.16,21.71 -69.66,21.71 -31.22,0 -55.26,-6.82 -72.06,-20.48 -16.8,-13.73 -25.2,-33.13 -25.2,-58.19 0,-33.54 20.42,-59.63 61.27,-78.28 -18.44,-10.45 -31.63,-21.65 -39.69,-33.74 -7.99,-12.02 -11.95,-25.55 -11.95,-40.5 0,-21.17 7.78,-38.11 23.5,-50.68 15.63,-12.63 36.67,-18.92 62.97,-18.92zm-63.32 222.86c0,16.05 5.61,28.48 16.74,37.44 11.13,8.95 26.78,13.45 46.92,13.45 19.94,0 35.38,-4.64 46.52,-14 11.07,-9.36 16.59,-22.2 16.59,-38.45 0,-12.98 -5.19,-24.52 -15.64,-34.56 -10.38,-10.11 -28.55,-19.87 -54.43,-29.37 -19.87,8.54 -34.28,17.97 -43.23,28.35 -8.95,10.38 -13.46,22.75 -13.46,37.15zm62.91 -195.81c-16.73,0 -29.78,4.03 -39.27,12.01 -9.5,8 -14.21,18.65 -14.21,31.97 0,12.29 3.96,22.82 11.82,31.63 7.85,8.81 22.4,17.62 43.64,26.43 19.12,-7.99 32.58,-16.59 40.57,-25.82 7.92,-9.22 11.88,-19.94 11.88,-32.24 0,-13.46 -4.84,-24.17 -14.47,-32.1 -9.7,-7.92 -23.02,-11.88 -39.96,-11.88zm148.22 248.41c0,-8.88 2.04,-15.64 6.08,-20.22 4.09,-4.57 9.9,-6.89 17.55,-6.89 7.72,0 13.73,2.32 18.09,6.89 4.31,4.58 6.5,11.35 6.5,20.22 0,8.67 -2.19,15.36 -6.56,20.01 -4.43,4.65 -10.45,6.97 -18.03,6.97 -6.83,0 -12.43,-2.12 -16.94,-6.28 -4.44,-4.17 -6.69,-11.07 -6.69,-20.7zm221.77 21.24l-32.37 0 0 -208.52c0,-17.35 0.54,-33.74 1.57,-49.18 -2.8,2.8 -5.94,5.74 -9.43,8.81 -3.41,3.08 -19.32,16.05 -47.6,39.07l-17.63 -22.89 77.46 -59.89 28.01 0 0 292.6zm317.46 -67.2l-43.44 0 0 67.2 -31.83 0 0 -67.2 -142.34 0 0 -29.03 138.93 -198 35.24 0 0 196.7 43.44 0 0 30.33zm-75.27 -30.33l0 -97.26c0,-19.05 0.69,-40.64 1.98,-64.61l-1.57 0c-6.43,12.77 -12.43,23.43 -18.04,31.83l-91.52 130.04 109.14 0z"/>
  <path class="fil3" d="M8739.59 13075.6c0,114.48 -44.33,171.71 -132.92,171.71 -15.5,0 -27.79,-1.36 -36.87,-4.03l0 -28.62c10.72,3.49 22.81,5.19 36.47,5.19 32.03,0 56.22,-9.9 72.54,-29.71 16.39,-19.81 25.27,-50.2 26.78,-91.18l-2.46 0c-7.31,11.07 -17.08,19.54 -29.24,25.34 -12.09,5.8 -25.82,8.67 -40.98,8.67 -25.89,0 -46.45,-7.73 -61.68,-23.22 -15.24,-15.44 -22.82,-37.09 -22.82,-64.82 0,-30.39 8.47,-54.43 25.48,-71.99 17.08,-17.62 39.41,-26.43 67.2,-26.43 19.87,0 37.22,5.12 52.12,15.3 14.89,10.24 26.36,25.06 34.35,44.67 8,19.54 12.02,42.56 12.02,69.12zm-98.49 -100.81c-19.12,0 -33.87,6.15 -44.26,18.43 -10.45,12.29 -15.63,29.37 -15.63,51.23 0,19.26 4.85,34.36 14.4,45.35 9.63,11 24.25,16.53 43.85,16.53 12.16,0 23.36,-2.46 33.53,-7.38 10.24,-4.99 18.24,-11.68 24.11,-20.28 5.87,-8.54 8.81,-17.48 8.81,-26.78 0,-14.07 -2.73,-26.98 -8.2,-38.86 -5.46,-11.89 -13.11,-21.25 -22.88,-28.07 -9.84,-6.77 -21.1,-10.17 -33.75,-10.17zm237.35 -28.28c26.63,0 47.8,6.22 63.45,18.58 15.58,12.43 23.43,29.57 23.43,51.42 0,14.41 -4.51,27.53 -13.46,39.41 -8.95,11.89 -23.22,22.68 -42.82,32.45 23.77,11.34 40.63,23.21 50.68,35.71 9.97,12.51 14.96,26.91 14.96,43.31 0,24.31 -8.47,43.71 -25.41,58.19 -16.94,14.47 -40.16,21.71 -69.66,21.71 -31.22,0 -55.26,-6.82 -72.06,-20.48 -16.8,-13.73 -25.2,-33.13 -25.2,-58.19 0,-33.54 20.42,-59.63 61.27,-78.28 -18.44,-10.45 -31.63,-21.65 -39.69,-33.74 -7.99,-12.02 -11.95,-25.55 -11.95,-40.5 0,-21.17 7.78,-38.11 23.5,-50.68 15.63,-12.63 36.67,-18.92 62.97,-18.92zm-63.32 222.86c0,16.05 5.61,28.48 16.74,37.44 11.13,8.95 26.78,13.45 46.92,13.45 19.94,0 35.38,-4.64 46.52,-14 11.07,-9.36 16.59,-22.2 16.59,-38.45 0,-12.98 -5.19,-24.52 -15.64,-34.56 -10.38,-10.11 -28.55,-19.87 -54.43,-29.37 -19.87,8.54 -34.28,17.97 -43.23,28.35 -8.95,10.38 -13.46,22.75 -13.46,37.15zm62.91 -195.81c-16.73,0 -29.78,4.03 -39.27,12.01 -9.5,8 -14.21,18.65 -14.21,31.97 0,12.29 3.96,22.82 11.82,31.63 7.85,8.81 22.4,17.62 43.64,26.43 19.12,-7.99 32.58,-16.59 40.57,-25.82 7.92,-9.22 11.88,-19.94 11.88,-32.24 0,-13.46 -4.84,-24.17 -14.47,-32.1 -9.7,-7.92 -23.02,-11.88 -39.96,-11.88zm148.22 248.41c0,-8.88 2.04,-15.64 6.08,-20.22 4.09,-4.57 9.9,-6.89 17.55,-6.89 7.72,0 13.73,2.32 18.09,6.89 4.31,4.58 6.5,11.35 6.5,20.22 0,8.67 -2.19,15.36 -6.56,20.01 -4.43,4.65 -10.45,6.97 -18.03,6.97 -6.83,0 -12.43,-2.12 -16.94,-6.28 -4.44,-4.17 -6.69,-11.07 -6.69,-20.7zm292.66 -125.4c0,50.61 -7.99,88.39 -23.9,113.31 -15.98,24.93 -40.37,37.43 -73.15,37.43 -31.56,0 -55.46,-12.77 -71.93,-38.32 -16.39,-25.54 -24.58,-63.04 -24.58,-112.42 0,-50.95 7.92,-88.72 23.83,-113.45 15.85,-24.66 40.09,-37.02 72.67,-37.02 31.75,0 55.87,12.91 72.33,38.67 16.47,25.74 24.72,63.04 24.72,111.8zm-159.96 -0.07c0,42.56 4.99,73.56 15.02,93.03 10.04,19.39 25.95,29.09 47.88,29.09 22.13,0 38.18,-9.84 48.15,-29.51 9.9,-19.74 14.89,-50.54 14.89,-92.62 0,-42 -4.99,-72.81 -14.89,-92.41 -9.97,-19.54 -26.02,-29.29 -48.15,-29.29 -21.93,0 -37.84,9.62 -47.88,28.96 -10.04,19.26 -15.02,50.2 -15.02,92.75zm406.52 79.51l-43.44 0 0 67.2 -31.83 0 0 -67.2 -142.34 0 0 -29.03 138.93 -198 35.24 0 0 196.7 43.44 0 0 30.33zm-75.27 -30.33l0 -97.26c0,-19.05 0.69,-40.64 1.98,-64.61l-1.57 0c-6.43,12.77 -12.43,23.43 -18.04,31.83l-91.52 130.04 109.14 0z"/>
  <path class="fil3" d="M10321.44 13075.6c0,114.48 -44.33,171.71 -132.92,171.71 -15.5,0 -27.79,-1.36 -36.87,-4.03l0 -28.62c10.72,3.49 22.81,5.19 36.47,5.19 32.03,0 56.22,-9.9 72.54,-29.71 16.39,-19.81 25.27,-50.2 26.78,-91.18l-2.46 0c-7.31,11.07 -17.08,19.54 -29.24,25.34 -12.09,5.8 -25.82,8.67 -40.98,8.67 -25.89,0 -46.45,-7.73 -61.68,-23.22 -15.24,-15.44 -22.82,-37.09 -22.82,-64.82 0,-30.39 8.47,-54.43 25.48,-71.99 17.08,-17.62 39.41,-26.43 67.2,-26.43 19.87,0 37.22,5.12 52.12,15.3 14.89,10.24 26.36,25.06 34.35,44.67 8,19.54 12.02,42.56 12.02,69.12zm-98.49 -100.81c-19.12,0 -33.87,6.15 -44.26,18.43 -10.45,12.29 -15.63,29.37 -15.63,51.23 0,19.26 4.85,34.36 14.4,45.35 9.63,11 24.25,16.53 43.85,16.53 12.16,0 23.36,-2.46 33.53,-7.38 10.24,-4.99 18.24,-11.68 24.11,-20.28 5.87,-8.54 8.81,-17.48 8.81,-26.78 0,-14.07 -2.73,-26.98 -8.2,-38.86 -5.46,-11.89 -13.11,-21.25 -22.88,-28.07 -9.84,-6.77 -21.1,-10.17 -33.75,-10.17zm177.45 268.42l121.38 -261.86 -159.56 0 0 -30.74 194.73 0 0 26.64 -119.66 265.96 -36.88 0zm207.71 -21.24c0,-8.88 2.04,-15.64 6.08,-20.22 4.09,-4.57 9.9,-6.89 17.55,-6.89 7.72,0 13.73,2.32 18.09,6.89 4.31,4.58 6.5,11.35 6.5,20.22 0,8.67 -2.19,15.36 -6.56,20.01 -4.43,4.65 -10.45,6.97 -18.03,6.97 -6.83,0 -12.43,-2.12 -16.94,-6.28 -4.44,-4.17 -6.69,-11.07 -6.69,-20.7zm291.09 -146.37c0,114.48 -44.33,171.71 -132.92,171.71 -15.5,0 -27.79,-1.36 -36.87,-4.03l0 -28.62c10.72,3.49 22.81,5.19 36.47,5.19 32.03,0 56.22,-9.9 72.54,-29.71 16.39,-19.81 25.27,-50.2 26.78,-91.18l-2.46 0c-7.31,11.07 -17.08,19.54 -29.24,25.34 -12.09,5.8 -25.82,8.67 -40.98,8.67 -25.89,0 -46.45,-7.73 -61.68,-23.22 -15.24,-15.44 -22.82,-37.09 -22.82,-64.82 0,-30.39 8.47,-54.43 25.48,-71.99 17.08,-17.62 39.41,-26.43 67.2,-26.43 19.87,0 37.22,5.12 52.12,15.3 14.89,10.24 26.36,25.06 34.35,44.67 8,19.54 12.02,42.56 12.02,69.12zm-98.49 -100.81c-19.12,0 -33.87,6.15 -44.26,18.43 -10.45,12.29 -15.63,29.37 -15.63,51.23 0,19.26 4.85,34.36 14.4,45.35 9.63,11 24.25,16.53 43.85,16.53 12.16,0 23.36,-2.46 33.53,-7.38 10.24,-4.99 18.24,-11.68 24.11,-20.28 5.87,-8.54 8.81,-17.48 8.81,-26.78 0,-14.07 -2.73,-26.98 -8.2,-38.86 -5.46,-11.89 -13.11,-21.25 -22.88,-28.07 -9.84,-6.77 -21.1,-10.17 -33.75,-10.17zm346.63 201.21l-43.44 0 0 67.2 -31.83 0 0 -67.2 -142.34 0 0 -29.03 138.93 -198 35.24 0 0 196.7 43.44 0 0 30.33zm-75.27 -30.33l0 -97.26c0,-19.05 0.69,-40.64 1.98,-64.61l-1.57 0c-6.43,12.77 -12.43,23.43 -18.04,31.83l-91.52 130.04 109.14 0z"/>
  <path class="fil3" d="M11903.3 13075.6c0,114.48 -44.33,171.71 -132.92,171.71 -15.5,0 -27.79,-1.36 -36.87,-4.03l0 -28.62c10.72,3.49 22.81,5.19 36.47,5.19 32.03,0 56.22,-9.9 72.54,-29.71 16.39,-19.81 25.27,-50.2 26.78,-91.18l-2.46 0c-7.31,11.07 -17.08,19.54 -29.24,25.34 -12.09,5.8 -25.82,8.67 -40.98,8.67 -25.89,0 -46.45,-7.73 -61.68,-23.22 -15.24,-15.44 -22.82,-37.09 -22.82,-64.82 0,-30.39 8.47,-54.43 25.48,-71.99 17.08,-17.62 39.41,-26.43 67.2,-26.43 19.87,0 37.22,5.12 52.12,15.3 14.89,10.24 26.36,25.06 34.35,44.67 8,19.54 12.02,42.56 12.02,69.12zm-98.49 -100.81c-19.12,0 -33.87,6.15 -44.26,18.43 -10.45,12.29 -15.63,29.37 -15.63,51.23 0,19.26 4.85,34.36 14.4,45.35 9.63,11 24.25,16.53 43.85,16.53 12.16,0 23.36,-2.46 33.53,-7.38 10.24,-4.99 18.24,-11.68 24.11,-20.28 5.87,-8.54 8.81,-17.48 8.81,-26.78 0,-14.07 -2.73,-26.98 -8.2,-38.86 -5.46,-11.89 -13.11,-21.25 -22.88,-28.07 -9.84,-6.77 -21.1,-10.17 -33.75,-10.17zm177.45 268.42l121.38 -261.86 -159.56 0 0 -30.74 194.73 0 0 26.64 -119.66 265.96 -36.88 0zm207.71 -21.24c0,-8.88 2.04,-15.64 6.08,-20.22 4.09,-4.57 9.9,-6.89 17.55,-6.89 7.72,0 13.73,2.32 18.09,6.89 4.31,4.58 6.5,11.35 6.5,20.22 0,8.67 -2.19,15.36 -6.56,20.01 -4.43,4.65 -10.45,6.97 -18.03,6.97 -6.83,0 -12.43,-2.12 -16.94,-6.28 -4.44,-4.17 -6.69,-11.07 -6.69,-20.7zm195.61 -275.46c26.63,0 47.8,6.22 63.45,18.58 15.58,12.43 23.43,29.57 23.43,51.42 0,14.41 -4.51,27.53 -13.46,39.41 -8.95,11.89 -23.22,22.68 -42.82,32.45 23.77,11.34 40.63,23.21 50.68,35.71 9.97,12.51 14.96,26.91 14.96,43.31 0,24.31 -8.47,43.71 -25.41,58.19 -16.94,14.47 -40.16,21.71 -69.66,21.71 -31.22,0 -55.26,-6.82 -72.06,-20.48 -16.8,-13.73 -25.2,-33.13 -25.2,-58.19 0,-33.54 20.42,-59.63 61.27,-78.28 -18.44,-10.45 -31.63,-21.65 -39.69,-33.74 -7.99,-12.02 -11.95,-25.55 -11.95,-40.5 0,-21.17 7.78,-38.11 23.5,-50.68 15.63,-12.63 36.67,-18.92 62.97,-18.92zm-63.32 222.86c0,16.05 5.61,28.48 16.74,37.44 11.13,8.95 26.78,13.45 46.92,13.45 19.94,0 35.38,-4.64 46.52,-14 11.07,-9.36 16.59,-22.2 16.59,-38.45 0,-12.98 -5.19,-24.52 -15.64,-34.56 -10.38,-10.11 -28.55,-19.87 -54.43,-29.37 -19.87,8.54 -34.28,17.97 -43.23,28.35 -8.95,10.38 -13.46,22.75 -13.46,37.15zm62.91 -195.81c-16.73,0 -29.78,4.03 -39.27,12.01 -9.5,8 -14.21,18.65 -14.21,31.97 0,12.29 3.96,22.82 11.82,31.63 7.85,8.81 22.4,17.62 43.64,26.43 19.12,-7.99 32.58,-16.59 40.57,-25.82 7.92,-9.22 11.88,-19.94 11.88,-32.24 0,-13.46 -4.84,-24.17 -14.47,-32.1 -9.7,-7.92 -23.02,-11.88 -39.96,-11.88zm344.04 202.44l-43.44 0 0 67.2 -31.83 0 0 -67.2 -142.34 0 0 -29.03 138.93 -198 35.24 0 0 196.7 43.44 0 0 30.33zm-75.27 -30.33l0 -97.26c0,-19.05 0.69,-40.64 1.98,-64.61l-1.57 0c-6.43,12.77 -12.43,23.43 -18.04,31.83l-91.52 130.04 109.14 0z"/>
  <path class="fil3" d="M13489.25 13075.6c0,114.48 -44.33,171.71 -132.92,171.71 -15.5,0 -27.79,-1.36 -36.87,-4.03l0 -28.62c10.72,3.49 22.81,5.19 36.47,5.19 32.03,0 56.22,-9.9 72.54,-29.71 16.39,-19.81 25.27,-50.2 26.78,-91.18l-2.46 0c-7.31,11.07 -17.08,19.54 -29.24,25.34 -12.09,5.8 -25.82,8.67 -40.98,8.67 -25.89,0 -46.45,-7.73 -61.68,-23.22 -15.24,-15.44 -22.82,-37.09 -22.82,-64.82 0,-30.39 8.47,-54.43 25.48,-71.99 17.08,-17.62 39.41,-26.43 67.2,-26.43 19.87,0 37.22,5.12 52.12,15.3 14.89,10.24 26.36,25.06 34.35,44.67 8,19.54 12.02,42.56 12.02,69.12zm-98.49 -100.81c-19.12,0 -33.87,6.15 -44.26,18.43 -10.45,12.29 -15.63,29.37 -15.63,51.23 0,19.26 4.85,34.36 14.4,45.35 9.63,11 24.25,16.53 43.85,16.53 12.16,0 23.36,-2.46 33.53,-7.38 10.24,-4.99 18.24,-11.68 24.11,-20.28 5.87,-8.54 8.81,-17.48 8.81,-26.78 0,-14.07 -2.73,-26.98 -8.2,-38.86 -5.46,-11.89 -13.11,-21.25 -22.88,-28.07 -9.84,-6.77 -21.1,-10.17 -33.75,-10.17zm177.45 268.42l121.38 -261.86 -159.56 0 0 -30.74 194.73 0 0 26.64 -119.66 265.96 -36.88 0zm207.71 -21.24c0,-8.88 2.04,-15.64 6.08,-20.22 4.09,-4.57 9.9,-6.89 17.55,-6.89 7.72,0 13.73,2.32 18.09,6.89 4.31,4.58 6.5,11.35 6.5,20.22 0,8.67 -2.19,15.36 -6.56,20.01 -4.43,4.65 -10.45,6.97 -18.03,6.97 -6.83,0 -12.43,-2.12 -16.94,-6.28 -4.44,-4.17 -6.69,-11.07 -6.69,-20.7zm135.71 21.24l121.38 -261.86 -159.56 0 0 -30.74 194.73 0 0 26.64 -119.66 265.96 -36.88 0zm378.66 -223.68c0,18.65 -5.19,33.87 -15.71,45.76 -10.45,11.88 -25.27,19.81 -44.53,23.77l0 1.64c23.5,2.94 40.91,10.39 52.26,22.41 11.34,12.01 17,27.79 17,47.26 0,27.94 -9.62,49.38 -29.02,64.41 -19.33,15.02 -46.79,22.54 -82.44,22.54 -15.5,0 -29.64,-1.16 -42.55,-3.49 -12.85,-2.38 -25.41,-6.49 -37.5,-12.36l0 -31.62c12.64,6.22 26.16,11 40.5,14.27 14.35,3.28 27.94,4.92 40.78,4.92 50.54,0 75.82,-19.81 75.82,-59.42 0,-35.52 -27.87,-53.27 -83.67,-53.27l-28.83 0 0 -28.68 29.24 0c22.82,0 40.91,-5.05 54.23,-15.09 13.39,-10.12 20.08,-24.05 20.08,-41.94 0,-14.28 -4.92,-25.48 -14.75,-33.61 -9.84,-8.12 -23.08,-12.22 -39.95,-12.22 -12.77,0 -24.86,1.7 -36.2,5.19 -11.35,3.49 -24.32,9.9 -38.87,19.19l-16.8 -22.4c12.01,-9.42 25.89,-16.8 41.52,-22.2 15.71,-5.39 32.17,-8.05 49.52,-8.05 28.48,0 50.54,6.49 66.32,19.46 15.71,13.05 23.56,30.87 23.56,53.55z"/>
  <path class="fil3" d="M15071.11 13075.6c0,114.48 -44.33,171.71 -132.92,171.71 -15.5,0 -27.79,-1.36 -36.87,-4.03l0 -28.62c10.72,3.49 22.81,5.19 36.47,5.19 32.03,0 56.22,-9.9 72.54,-29.71 16.39,-19.81 25.27,-50.2 26.78,-91.18l-2.46 0c-7.31,11.07 -17.08,19.54 -29.24,25.34 -12.09,5.8 -25.82,8.67 -40.98,8.67 -25.89,0 -46.45,-7.73 -61.68,-23.22 -15.24,-15.44 -22.82,-37.09 -22.82,-64.82 0,-30.39 8.47,-54.43 25.48,-71.99 17.08,-17.62 39.41,-26.43 67.2,-26.43 19.87,0 37.22,5.12 52.12,15.3 14.89,10.24 26.36,25.06 34.35,44.67 8,19.54 12.02,42.56 12.02,69.12zm-98.49 -100.81c-19.12,0 -33.87,6.15 -44.26,18.43 -10.45,12.29 -15.63,29.37 -15.63,51.23 0,19.26 4.85,34.36 14.4,45.35 9.63,11 24.25,16.53 43.85,16.53 12.16,0 23.36,-2.46 33.53,-7.38 10.24,-4.99 18.24,-11.68 24.11,-20.28 5.87,-8.54 8.81,-17.48 8.81,-26.78 0,-14.07 -2.73,-26.98 -8.2,-38.86 -5.46,-11.89 -13.11,-21.25 -22.88,-28.07 -9.84,-6.77 -21.1,-10.17 -33.75,-10.17zm177.45 268.42l121.38 -261.86 -159.56 0 0 -30.74 194.73 0 0 26.64 -119.66 265.96 -36.88 0zm207.71 -21.24c0,-8.88 2.04,-15.64 6.08,-20.22 4.09,-4.57 9.9,-6.89 17.55,-6.89 7.72,0 13.73,2.32 18.09,6.89 4.31,4.58 6.5,11.35 6.5,20.22 0,8.67 -2.19,15.36 -6.56,20.01 -4.43,4.65 -10.45,6.97 -18.03,6.97 -6.83,0 -12.43,-2.12 -16.94,-6.28 -4.44,-4.17 -6.69,-11.07 -6.69,-20.7zm102.1 -103.75c0,-57.51 11.2,-100.48 33.53,-128.96 22.33,-28.48 55.39,-42.75 99.17,-42.75 15.1,0 26.98,1.3 35.65,3.82l0 28.62c-10.31,-3.35 -22.05,-4.99 -35.24,-4.99 -31.36,0 -55.33,9.77 -71.85,29.3 -16.6,19.53 -25.68,50.19 -27.25,92l2.38 0c14.69,-22.94 37.91,-34.42 69.67,-34.42 26.29,0 46.99,7.93 62.15,23.84 15.17,15.91 22.75,37.43 22.75,64.68 0,30.47 -8.34,54.37 -24.94,71.78 -16.59,17.42 -39.06,26.16 -67.34,26.16 -30.33,0 -54.3,-11.4 -72.05,-34.14 -17.76,-22.75 -26.64,-54.37 -26.64,-94.94zm98.29 100.81c18.98,0 33.67,-5.93 44.12,-17.89 10.52,-11.96 15.71,-29.24 15.71,-51.77 0,-19.4 -4.85,-34.56 -14.62,-45.69 -9.7,-11.07 -24.24,-16.59 -43.64,-16.59 -11.96,0 -23.02,2.45 -32.99,7.37 -10.04,5 -18.03,11.75 -23.97,20.43 -5.88,8.74 -8.88,17.69 -8.88,27.05 0,13.8 2.66,26.56 7.99,38.45 5.32,11.89 12.9,21.31 22.74,28.28 9.84,6.9 20.97,10.38 33.54,10.38zm313.98 -199.5c0,18.65 -5.19,33.87 -15.71,45.76 -10.45,11.88 -25.27,19.81 -44.53,23.77l0 1.64c23.5,2.94 40.91,10.39 52.26,22.41 11.34,12.01 17,27.79 17,47.26 0,27.94 -9.62,49.38 -29.02,64.41 -19.33,15.02 -46.79,22.54 -82.44,22.54 -15.5,0 -29.64,-1.16 -42.55,-3.49 -12.85,-2.38 -25.41,-6.49 -37.5,-12.36l0 -31.62c12.64,6.22 26.16,11 40.5,14.27 14.35,3.28 27.94,4.92 40.78,4.92 50.54,0 75.82,-19.81 75.82,-59.42 0,-35.52 -27.87,-53.27 -83.67,-53.27l-28.83 0 0 -28.68 29.24 0c22.82,0 40.91,-5.05 54.23,-15.09 13.39,-10.12 20.08,-24.05 20.08,-41.94 0,-14.28 -4.92,-25.48 -14.75,-33.61 -9.84,-8.12 -23.08,-12.22 -39.95,-12.22 -12.77,0 -24.86,1.7 -36.2,5.19 -11.35,3.49 -24.32,9.9 -38.87,19.19l-16.8 -22.4c12.01,-9.42 25.89,-16.8 41.52,-22.2 15.71,-5.39 32.17,-8.05 49.52,-8.05 28.48,0 50.54,6.49 66.32,19.46 15.71,13.05 23.56,30.87 23.56,53.55z"/>
  <path class="fil3" d="M16652.97 13075.6c0,114.48 -44.33,171.71 -132.92,171.71 -15.5,0 -27.79,-1.36 -36.87,-4.03l0 -28.62c10.72,3.49 22.81,5.19 36.47,5.19 32.03,0 56.22,-9.9 72.54,-29.71 16.39,-19.81 25.27,-50.2 26.78,-91.18l-2.46 0c-7.31,11.07 -17.08,19.54 -29.24,25.34 -12.09,5.8 -25.82,8.67 -40.98,8.67 -25.89,0 -46.45,-7.73 -61.68,-23.22 -15.24,-15.44 -22.82,-37.09 -22.82,-64.82 0,-30.39 8.47,-54.43 25.48,-71.99 17.08,-17.62 39.41,-26.43 67.2,-26.43 19.87,0 37.22,5.12 52.12,15.3 14.89,10.24 26.36,25.06 34.35,44.67 8,19.54 12.02,42.56 12.02,69.12zm-98.49 -100.81c-19.12,0 -33.87,6.15 -44.26,18.43 -10.45,12.29 -15.63,29.37 -15.63,51.23 0,19.26 4.85,34.36 14.4,45.35 9.63,11 24.25,16.53 43.85,16.53 12.16,0 23.36,-2.46 33.53,-7.38 10.24,-4.99 18.24,-11.68 24.11,-20.28 5.87,-8.54 8.81,-17.48 8.81,-26.78 0,-14.07 -2.73,-26.98 -8.2,-38.86 -5.46,-11.89 -13.11,-21.25 -22.88,-28.07 -9.84,-6.77 -21.1,-10.17 -33.75,-10.17zm177.45 268.42l121.38 -261.86 -159.56 0 0 -30.74 194.73 0 0 26.64 -119.66 265.96 -36.88 0zm207.71 -21.24c0,-8.88 2.04,-15.64 6.08,-20.22 4.09,-4.57 9.9,-6.89 17.55,-6.89 7.72,0 13.73,2.32 18.09,6.89 4.31,4.58 6.5,11.35 6.5,20.22 0,8.67 -2.19,15.36 -6.56,20.01 -4.43,4.65 -10.45,6.97 -18.03,6.97 -6.83,0 -12.43,-2.12 -16.94,-6.28 -4.44,-4.17 -6.69,-11.07 -6.69,-20.7zm190.14 -157.44c30.87,0 55.12,7.65 72.81,22.95 17.7,15.23 26.51,36.2 26.51,62.7 0,30.32 -9.63,54.09 -28.9,71.3 -19.32,17.21 -45.9,25.82 -79.77,25.82 -32.99,0 -58.12,-5.26 -75.47,-15.85l0 -32.02c9.35,6 20.97,10.65 34.83,14.07 13.86,3.42 27.52,5.12 41.05,5.12 23.5,0 41.73,-5.53 54.71,-16.59 13.05,-11.07 19.54,-27.05 19.54,-48.02 0,-40.78 -25,-61.2 -75.06,-61.2 -12.7,0 -29.64,1.92 -50.88,5.81l-17.21 -11 11.07 -137.01 145.48 0 0 30.74 -117.07 0 -7.44 87.77c15.37,-3.08 30.67,-4.58 45.83,-4.58zm265.97 178.68l-32.37 0 0 -208.52c0,-17.35 0.54,-33.74 1.57,-49.18 -2.8,2.8 -5.94,5.74 -9.43,8.81 -3.41,3.08 -19.32,16.05 -47.6,39.07l-17.63 -22.89 77.46 -59.89 28.01 0 0 292.6z"/>
  <path class="fil3" d="M18238.92 13075.6c0,114.48 -44.33,171.71 -132.92,171.71 -15.5,0 -27.79,-1.36 -36.87,-4.03l0 -28.62c10.72,3.49 22.81,5.19 36.47,5.19 32.03,0 56.22,-9.9 72.54,-29.71 16.39,-19.81 25.27,-50.2 26.78,-91.18l-2.46 0c-7.31,11.07 -17.08,19.54 -29.24,25.34 -12.09,5.8 -25.82,8.67 -40.98,8.67 -25.89,0 -46.45,-7.73 -61.68,-23.22 -15.24,-15.44 -22.82,-37.09 -22.82,-64.82 0,-30.39 8.47,-54.43 25.48,-71.99 17.08,-17.62 39.41,-26.43 67.2,-26.43 19.87,0 37.22,5.12 52.12,15.3 14.89,10.24 26.36,25.06 34.35,44.67 8,19.54 12.02,42.56 12.02,69.12zm-98.49 -100.81c-19.12,0 -33.87,6.15 -44.26,18.43 -10.45,12.29 -15.63,29.37 -15.63,51.23 0,19.26 4.85,34.36 14.4,45.35 9.63,11 24.25,16.53 43.85,16.53 12.16,0 23.36,-2.46 33.53,-7.38 10.24,-4.99 18.24,-11.68 24.11,-20.28 5.87,-8.54 8.81,-17.48 8.81,-26.78 0,-14.07 -2.73,-26.98 -8.2,-38.86 -5.46,-11.89 -13.11,-21.25 -22.88,-28.07 -9.84,-6.77 -21.1,-10.17 -33.75,-10.17zm177.45 268.42l121.38 -261.86 -159.56 0 0 -30.74 194.73 0 0 26.64 -119.66 265.96 -36.88 0zm207.71 -21.24c0,-8.88 2.04,-15.64 6.08,-20.22 4.09,-4.57 9.9,-6.89 17.55,-6.89 7.72,0 13.73,2.32 18.09,6.89 4.31,4.58 6.5,11.35 6.5,20.22 0,8.67 -2.19,15.36 -6.56,20.01 -4.43,4.65 -10.45,6.97 -18.03,6.97 -6.83,0 -12.43,-2.12 -16.94,-6.28 -4.44,-4.17 -6.69,-11.07 -6.69,-20.7zm304.89 -45.96l-43.44 0 0 67.2 -31.83 0 0 -67.2 -142.34 0 0 -29.03 138.93 -198 35.24 0 0 196.7 43.44 0 0 30.33zm-75.27 -30.33l0 -97.26c0,-19.05 0.69,-40.64 1.98,-64.61l-1.57 0c-6.43,12.77 -12.43,23.43 -18.04,31.83l-91.52 130.04 109.14 0zm194.86 -81.14c30.87,0 55.12,7.65 72.81,22.95 17.7,15.23 26.51,36.2 26.51,62.7 0,30.32 -9.63,54.09 -28.9,71.3 -19.32,17.21 -45.9,25.82 -79.77,25.82 -32.99,0 -58.12,-5.26 -75.47,-15.85l0 -32.02c9.35,6 20.97,10.65 34.83,14.07 13.86,3.42 27.52,5.12 41.05,5.12 23.5,0 41.73,-5.53 54.71,-16.59 13.05,-11.07 19.54,-27.05 19.54,-48.02 0,-40.78 -25,-61.2 -75.06,-61.2 -12.7,0 -29.64,1.92 -50.88,5.81l-17.21 -11 11.07 -137.01 145.48 0 0 30.74 -117.07 0 -7.44 87.77c15.37,-3.08 30.67,-4.58 45.83,-4.58z"/>
  <path class="fil3" d="M19820.78 13075.6c0,114.48 -44.33,171.71 -132.92,171.71 -15.5,0 -27.79,-1.36 -36.87,-4.03l0 -28.62c10.72,3.49 22.81,5.19 36.47,5.19 32.03,0 56.22,-9.9 72.54,-29.71 16.39,-19.81 25.27,-50.2 26.78,-91.18l-2.46 0c-7.31,11.07 -17.08,19.54 -29.24,25.34 -12.09,5.8 -25.82,8.67 -40.98,8.67 -25.89,0 -46.45,-7.73 -61.68,-23.22 -15.24,-15.44 -22.82,-37.09 -22.82,-64.82 0,-30.39 8.47,-54.43 25.48,-71.99 17.08,-17.62 39.41,-26.43 67.2,-26.43 19.87,0 37.22,5.12 52.12,15.3 14.89,10.24 26.36,25.06 34.35,44.67 8,19.54 12.02,42.56 12.02,69.12zm-98.49 -100.81c-19.12,0 -33.87,6.15 -44.26,18.43 -10.45,12.29 -15.63,29.37 -15.63,51.23 0,19.26 4.85,34.36 14.4,45.35 9.63,11 24.25,16.53 43.85,16.53 12.16,0 23.36,-2.46 33.53,-7.38 10.24,-4.99 18.24,-11.68 24.11,-20.28 5.87,-8.54 8.81,-17.48 8.81,-26.78 0,-14.07 -2.73,-26.98 -8.2,-38.86 -5.46,-11.89 -13.11,-21.25 -22.88,-28.07 -9.84,-6.77 -21.1,-10.17 -33.75,-10.17zm177.45 268.42l121.38 -261.86 -159.56 0 0 -30.74 194.73 0 0 26.64 -119.66 265.96 -36.88 0zm207.71 -21.24c0,-8.88 2.04,-15.64 6.08,-20.22 4.09,-4.57 9.9,-6.89 17.55,-6.89 7.72,0 13.73,2.32 18.09,6.89 4.31,4.58 6.5,11.35 6.5,20.22 0,8.67 -2.19,15.36 -6.56,20.01 -4.43,4.65 -10.45,6.97 -18.03,6.97 -6.83,0 -12.43,-2.12 -16.94,-6.28 -4.44,-4.17 -6.69,-11.07 -6.69,-20.7zm304.89 -45.96l-43.44 0 0 67.2 -31.83 0 0 -67.2 -142.34 0 0 -29.03 138.93 -198 35.24 0 0 196.7 43.44 0 0 30.33zm-75.27 -30.33l0 -97.26c0,-19.05 0.69,-40.64 1.98,-64.61l-1.57 0c-6.43,12.77 -12.43,23.43 -18.04,31.83l-91.52 130.04 109.14 0zm226.49 97.53l-32.37 0 0 -208.52c0,-17.35 0.54,-33.74 1.57,-49.18 -2.8,2.8 -5.94,5.74 -9.43,8.81 -3.41,3.08 -19.32,16.05 -47.6,39.07l-17.63 -22.89 77.46 -59.89 28.01 0 0 292.6z"/>
  <path class="fil3" d="M21402.64 13075.6c0,114.48 -44.33,171.71 -132.92,171.71 -15.5,0 -27.79,-1.36 -36.87,-4.03l0 -28.62c10.72,3.49 22.81,5.19 36.47,5.19 32.03,0 56.22,-9.9 72.54,-29.71 16.39,-19.81 25.27,-50.2 26.78,-91.18l-2.46 0c-7.31,11.07 -17.08,19.54 -29.24,25.34 -12.09,5.8 -25.82,8.67 -40.98,8.67 -25.89,0 -46.45,-7.73 -61.68,-23.22 -15.24,-15.44 -22.82,-37.09 -22.82,-64.82 0,-30.39 8.47,-54.43 25.48,-71.99 17.08,-17.62 39.41,-26.43 67.2,-26.43 19.87,0 37.22,5.12 52.12,15.3 14.89,10.24 26.36,25.06 34.35,44.67 8,19.54 12.02,42.56 12.02,69.12zm-98.49 -100.81c-19.12,0 -33.87,6.15 -44.26,18.43 -10.45,12.29 -15.63,29.37 -15.63,51.23 0,19.26 4.85,34.36 14.4,45.35 9.63,11 24.25,16.53 43.85,16.53 12.16,0 23.36,-2.46 33.53,-7.38 10.24,-4.99 18.24,-11.68 24.11,-20.28 5.87,-8.54 8.81,-17.48 8.81,-26.78 0,-14.07 -2.73,-26.98 -8.2,-38.86 -5.46,-11.89 -13.11,-21.25 -22.88,-28.07 -9.84,-6.77 -21.1,-10.17 -33.75,-10.17zm143.85 143.43c0,-57.51 11.2,-100.48 33.53,-128.96 22.33,-28.48 55.39,-42.75 99.17,-42.75 15.1,0 26.97,1.3 35.64,3.82l0 28.62c-10.31,-3.35 -22.04,-4.99 -35.23,-4.99 -31.36,0 -55.33,9.77 -71.85,29.3 -16.6,19.53 -25.68,50.19 -27.25,92l2.38 0c14.69,-22.94 37.91,-34.42 69.67,-34.42 26.29,0 46.98,7.93 62.14,23.84 15.17,15.91 22.75,37.43 22.75,64.68 0,30.47 -8.34,54.37 -24.94,71.78 -16.58,17.42 -39.05,26.16 -67.33,26.16 -30.33,0 -54.3,-11.4 -72.05,-34.14 -17.76,-22.75 -26.64,-54.37 -26.64,-94.94zm98.29 100.81c18.98,0 33.67,-5.93 44.12,-17.89 10.51,-11.96 15.7,-29.24 15.7,-51.77 0,-19.4 -4.85,-34.56 -14.61,-45.69 -9.7,-11.07 -24.24,-16.59 -43.64,-16.59 -11.96,0 -23.02,2.45 -32.99,7.37 -10.04,5 -18.03,11.75 -23.97,20.43 -5.88,8.74 -8.88,17.69 -8.88,27.05 0,13.8 2.66,26.56 7.99,38.45 5.32,11.89 12.9,21.31 22.74,28.28 9.84,6.9 20.97,10.38 33.54,10.38zm143.01 2.94c0,-8.88 2.04,-15.64 6.08,-20.22 4.09,-4.57 9.9,-6.89 17.55,-6.89 7.72,0 13.73,2.32 18.09,6.89 4.31,4.58 6.5,11.35 6.5,20.22 0,8.67 -2.19,15.36 -6.56,20.01 -4.43,4.65 -10.45,6.97 -18.03,6.97 -6.83,0 -12.43,-2.12 -16.94,-6.28 -4.44,-4.17 -6.69,-11.07 -6.69,-20.7zm190.14 -157.44c30.87,0 55.12,7.65 72.81,22.95 17.7,15.23 26.51,36.2 26.51,62.7 0,30.32 -9.63,54.09 -28.9,71.3 -19.32,17.21 -45.9,25.82 -79.77,25.82 -32.99,0 -58.12,-5.26 -75.47,-15.85l0 -32.02c9.35,6 20.97,10.65 34.83,14.07 13.86,3.42 27.52,5.12 41.05,5.12 23.5,0 41.73,-5.53 54.71,-16.59 13.05,-11.07 19.54,-27.05 19.54,-48.02 0,-40.78 -25,-61.2 -75.06,-61.2 -12.7,0 -29.64,1.92 -50.88,5.81l-17.21 -11 11.07 -137.01 145.48 0 0 30.74 -117.07 0 -7.44 87.77c15.37,-3.08 30.67,-4.58 45.83,-4.58zm336.86 32.03c0,50.61 -7.99,88.39 -23.9,113.31 -15.98,24.93 -40.37,37.43 -73.15,37.43 -31.56,0 -55.46,-12.77 -71.93,-38.32 -16.39,-25.54 -24.58,-63.04 -24.58,-112.42 0,-50.95 7.92,-88.72 23.83,-113.45 15.85,-24.66 40.09,-37.02 72.67,-37.02 31.75,0 55.87,12.91 72.33,38.67 16.47,25.74 24.72,63.04 24.72,111.8zm-159.96 -0.07c0,42.56 4.99,73.56 15.02,93.03 10.04,19.39 25.95,29.09 47.88,29.09 22.13,0 38.18,-9.84 48.15,-29.51 9.9,-19.74 14.89,-50.54 14.89,-92.62 0,-42 -4.99,-72.81 -14.89,-92.41 -9.97,-19.54 -26.02,-29.29 -48.15,-29.29 -21.93,0 -37.84,9.62 -47.88,28.96 -10.04,19.26 -15.02,50.2 -15.02,92.75z"/>
  <path class="fil3" d="M22988.59 13075.6c0,114.48 -44.33,171.71 -132.92,171.71 -15.5,0 -27.79,-1.36 -36.87,-4.03l0 -28.62c10.72,3.49 22.81,5.19 36.47,5.19 32.03,0 56.22,-9.9 72.54,-29.71 16.39,-19.81 25.27,-50.2 26.78,-91.18l-2.46 0c-7.31,11.07 -17.08,19.54 -29.24,25.34 -12.09,5.8 -25.82,8.67 -40.98,8.67 -25.89,0 -46.45,-7.73 -61.68,-23.22 -15.24,-15.44 -22.82,-37.09 -22.82,-64.82 0,-30.39 8.47,-54.43 25.48,-71.99 17.08,-17.62 39.41,-26.43 67.2,-26.43 19.87,0 37.22,5.12 52.12,15.3 14.89,10.24 26.36,25.06 34.35,44.67 8,19.54 12.02,42.56 12.02,69.12zm-98.49 -100.81c-19.12,0 -33.87,6.15 -44.26,18.43 -10.45,12.29 -15.63,29.37 -15.63,51.23 0,19.26 4.85,34.36 14.4,45.35 9.63,11 24.25,16.53 43.85,16.53 12.16,0 23.36,-2.46 33.53,-7.38 10.24,-4.99 18.24,-11.68 24.11,-20.28 5.87,-8.54 8.81,-17.48 8.81,-26.78 0,-14.07 -2.73,-26.98 -8.2,-38.86 -5.46,-11.89 -13.11,-21.25 -22.88,-28.07 -9.84,-6.77 -21.1,-10.17 -33.75,-10.17zm237.35 -28.28c26.63,0 47.8,6.22 63.45,18.58 15.58,12.43 23.43,29.57 23.43,51.42 0,14.41 -4.51,27.53 -13.46,39.41 -8.95,11.89 -23.22,22.68 -42.82,32.45 23.77,11.34 40.63,23.21 50.68,35.71 9.97,12.51 14.96,26.91 14.96,43.31 0,24.31 -8.47,43.71 -25.41,58.19 -16.94,14.47 -40.16,21.71 -69.66,21.71 -31.22,0 -55.26,-6.82 -72.06,-20.48 -16.8,-13.73 -25.2,-33.13 -25.2,-58.19 0,-33.54 20.42,-59.63 61.27,-78.28 -18.44,-10.45 -31.63,-21.65 -39.69,-33.74 -7.99,-12.02 -11.95,-25.55 -11.95,-40.5 0,-21.17 7.78,-38.11 23.5,-50.68 15.63,-12.63 36.67,-18.92 62.97,-18.92zm-63.32 222.86c0,16.05 5.61,28.48 16.74,37.44 11.13,8.95 26.78,13.45 46.92,13.45 19.94,0 35.38,-4.64 46.52,-14 11.07,-9.36 16.59,-22.2 16.59,-38.45 0,-12.98 -5.19,-24.52 -15.64,-34.56 -10.38,-10.11 -28.55,-19.87 -54.43,-29.37 -19.87,8.54 -34.28,17.97 -43.23,28.35 -8.95,10.38 -13.46,22.75 -13.46,37.15zm62.91 -195.81c-16.73,0 -29.78,4.03 -39.27,12.01 -9.5,8 -14.21,18.65 -14.21,31.97 0,12.29 3.96,22.82 11.82,31.63 7.85,8.81 22.4,17.62 43.64,26.43 19.12,-7.99 32.58,-16.59 40.57,-25.82 7.92,-9.22 11.88,-19.94 11.88,-32.24 0,-13.46 -4.84,-24.17 -14.47,-32.1 -9.7,-7.92 -23.02,-11.88 -39.96,-11.88zm148.22 248.41c0,-8.88 2.04,-15.64 6.08,-20.22 4.09,-4.57 9.9,-6.89 17.55,-6.89 7.72,0 13.73,2.32 18.09,6.89 4.31,4.58 6.5,11.35 6.5,20.22 0,8.67 -2.19,15.36 -6.56,20.01 -4.43,4.65 -10.45,6.97 -18.03,6.97 -6.83,0 -12.43,-2.12 -16.94,-6.28 -4.44,-4.17 -6.69,-11.07 -6.69,-20.7zm190.14 -157.44c30.87,0 55.12,7.65 72.81,22.95 17.7,15.23 26.51,36.2 26.51,62.7 0,30.32 -9.63,54.09 -28.9,71.3 -19.32,17.21 -45.9,25.82 -79.77,25.82 -32.99,0 -58.12,-5.26 -75.47,-15.85l0 -32.02c9.35,6 20.97,10.65 34.83,14.07 13.86,3.42 27.52,5.12 41.05,5.12 23.5,0 41.73,-5.53 54.71,-16.59 13.05,-11.07 19.54,-27.05 19.54,-48.02 0,-40.78 -25,-61.2 -75.06,-61.2 -12.7,0 -29.64,1.92 -50.88,5.81l-17.21 -11 11.07 -137.01 145.48 0 0 30.74 -117.07 0 -7.44 87.77c15.37,-3.08 30.67,-4.58 45.83,-4.58zm336.86 32.03c0,50.61 -7.99,88.39 -23.9,113.31 -15.98,24.93 -40.37,37.43 -73.15,37.43 -31.56,0 -55.46,-12.77 -71.93,-38.32 -16.39,-25.54 -24.58,-63.04 -24.58,-112.42 0,-50.95 7.92,-88.72 23.83,-113.45 15.85,-24.66 40.09,-37.02 72.67,-37.02 31.75,0 55.87,12.91 72.33,38.67 16.47,25.74 24.72,63.04 24.72,111.8zm-159.96 -0.07c0,42.56 4.99,73.56 15.02,93.03 10.04,19.39 25.95,29.09 47.88,29.09 22.13,0 38.18,-9.84 48.15,-29.51 9.9,-19.74 14.89,-50.54 14.89,-92.62 0,-42 -4.99,-72.81 -14.89,-92.41 -9.97,-19.54 -26.02,-29.29 -48.15,-29.29 -21.93,0 -37.84,9.62 -47.88,28.96 -10.04,19.26 -15.02,50.2 -15.02,92.75z"/>
  <path class="fil4" d="M939.18 13455.59c0,104.93 -40.63,157.4 -121.84,157.4 -14.21,0 -25.48,-1.25 -33.81,-3.7l0 -26.23c9.83,3.18 20.91,4.75 33.43,4.75 29.37,0 51.53,-9.08 66.5,-27.23 15.02,-18.16 23.17,-46.02 24.54,-83.58l-2.26 0c-6.7,10.14 -15.65,17.9 -26.8,23.22 -11.08,5.32 -23.67,7.95 -37.56,7.95 -23.73,0 -42.58,-7.07 -56.54,-21.28 -13.97,-14.15 -20.92,-34 -20.92,-59.42 0,-27.86 7.76,-49.9 23.36,-65.99 15.65,-16.16 36.13,-24.23 61.61,-24.23 18.22,0 34.12,4.7 47.76,14.03 13.65,9.39 24.17,22.97 31.5,40.95 7.32,17.9 11.02,39 11.02,63.36zm-90.28 -92.41c-17.53,0 -31.06,5.63 -40.57,16.9 -9.58,11.27 -14.34,26.92 -14.34,46.96 0,17.65 4.44,31.49 13.2,41.57 8.83,10.08 22.23,15.15 40.2,15.15 11.14,0 21.4,-2.26 30.74,-6.76 9.39,-4.57 16.72,-10.71 22.1,-18.6 5.38,-7.83 8.07,-16.03 8.07,-24.54 0,-12.9 -2.5,-24.73 -7.51,-35.63 -5,-10.9 -12.01,-19.48 -20.97,-25.74 -9.02,-6.2 -19.35,-9.32 -30.93,-9.32zm306.54 111.63c0,46.4 -7.33,81.02 -21.92,103.87 -14.65,22.85 -37,34.31 -67.06,34.31 -28.93,0 -50.83,-11.7 -65.93,-35.12 -15.02,-23.42 -22.54,-57.79 -22.54,-103.06 0,-46.7 7.26,-81.33 21.85,-103.99 14.52,-22.6 36.75,-33.94 66.61,-33.94 29.12,0 51.22,11.84 66.3,35.44 15.09,23.6 22.67,57.78 22.67,102.49zm-146.63 -0.06c0,39 4.57,67.43 13.78,85.28 9.2,17.77 23.79,26.67 43.88,26.67 20.29,0 35.01,-9.02 44.14,-27.05 9.08,-18.09 13.65,-46.33 13.65,-84.9 0,-38.51 -4.57,-66.75 -13.65,-84.72 -9.14,-17.9 -23.85,-26.85 -44.14,-26.85 -20.1,0 -34.69,8.83 -43.88,26.54 -9.21,17.66 -13.78,46.02 -13.78,85.03zm193.15 115.02c0,-8.14 1.88,-14.34 5.58,-18.54 3.76,-4.19 9.07,-6.32 16.09,-6.32 7.08,0 12.59,2.13 16.59,6.32 3.94,4.2 5.94,10.4 5.94,18.54 0,7.95 -2,14.09 -6.01,18.35 -4.07,4.25 -9.57,6.38 -16.53,6.38 -6.26,0 -11.39,-1.94 -15.53,-5.76 -4.08,-3.81 -6.14,-10.14 -6.14,-18.96zm268.29 -114.96c0,46.4 -7.33,81.02 -21.92,103.87 -14.65,22.85 -37,34.31 -67.06,34.31 -28.93,0 -50.83,-11.7 -65.93,-35.12 -15.02,-23.42 -22.54,-57.79 -22.54,-103.06 0,-46.7 7.26,-81.33 21.85,-103.99 14.52,-22.6 36.75,-33.94 66.61,-33.94 29.12,0 51.22,11.84 66.3,35.44 15.09,23.6 22.67,57.78 22.67,102.49zm-146.63 -0.06c0,39 4.57,67.43 13.78,85.28 9.2,17.77 23.79,26.67 43.88,26.67 20.29,0 35.01,-9.02 44.14,-27.05 9.08,-18.09 13.65,-46.33 13.65,-84.9 0,-38.51 -4.57,-66.75 -13.65,-84.72 -9.14,-17.9 -23.85,-26.85 -44.14,-26.85 -20.1,0 -34.69,8.83 -43.88,26.54 -9.21,17.66 -13.78,46.02 -13.78,85.03zm361.45 0.06c0,46.4 -7.33,81.02 -21.92,103.87 -14.65,22.85 -37,34.31 -67.06,34.31 -28.93,0 -50.83,-11.7 -65.93,-35.12 -15.02,-23.42 -22.54,-57.79 -22.54,-103.06 0,-46.7 7.26,-81.33 21.85,-103.99 14.52,-22.6 36.75,-33.94 66.61,-33.94 29.12,0 51.22,11.84 66.3,35.44 15.09,23.6 22.67,57.78 22.67,102.49zm-146.63 -0.06c0,39 4.57,67.43 13.78,85.28 9.2,17.77 23.79,26.67 43.88,26.67 20.29,0 35.01,-9.02 44.14,-27.05 9.08,-18.09 13.65,-46.33 13.65,-84.9 0,-38.51 -4.57,-66.75 -13.65,-84.72 -9.14,-17.9 -23.85,-26.85 -44.14,-26.85 -20.1,0 -34.69,8.83 -43.88,26.54 -9.21,17.66 -13.78,46.02 -13.78,85.03z"/>
  <path class="fil4" d="M939.18 10996.75c0,104.93 -40.63,157.4 -121.84,157.4 -14.21,0 -25.48,-1.25 -33.81,-3.7l0 -26.23c9.83,3.18 20.91,4.75 33.43,4.75 29.37,0 51.53,-9.08 66.5,-27.23 15.02,-18.16 23.17,-46.02 24.54,-83.58l-2.26 0c-6.7,10.14 -15.65,17.9 -26.8,23.22 -11.08,5.32 -23.67,7.95 -37.56,7.95 -23.73,0 -42.58,-7.07 -56.54,-21.28 -13.97,-14.15 -20.92,-34 -20.92,-59.42 0,-27.86 7.76,-49.9 23.36,-65.99 15.65,-16.16 36.13,-24.23 61.61,-24.23 18.22,0 34.12,4.7 47.76,14.03 13.65,9.39 24.17,22.97 31.5,40.95 7.32,17.9 11.02,39 11.02,63.36zm-90.28 -92.41c-17.53,0 -31.06,5.63 -40.57,16.9 -9.58,11.27 -14.34,26.92 -14.34,46.96 0,17.65 4.44,31.49 13.2,41.57 8.83,10.08 22.23,15.15 40.2,15.15 11.14,0 21.4,-2.26 30.74,-6.76 9.39,-4.57 16.72,-10.71 22.1,-18.6 5.38,-7.83 8.07,-16.03 8.07,-24.54 0,-12.9 -2.5,-24.73 -7.51,-35.63 -5,-10.9 -12.01,-19.48 -20.97,-25.74 -9.02,-6.2 -19.35,-9.32 -30.93,-9.32zm305.1 246.06l-176.37 0 0 -26.23 70.69 -71c21.47,-21.79 35.68,-37.32 42.58,-46.64 6.82,-9.27 11.96,-18.35 15.4,-27.12 3.38,-8.83 5.13,-18.28 5.13,-28.48 0,-14.28 -4.39,-25.62 -13.02,-34 -8.7,-8.39 -20.78,-12.59 -36.19,-12.59 -11.15,0 -21.67,1.81 -31.63,5.51 -10.01,3.63 -21.09,10.33 -33.3,19.97l-16.16 -20.73c24.67,-20.47 51.59,-30.68 80.71,-30.68 25.23,0 44.95,6.45 59.29,19.35 14.35,12.89 21.48,30.23 21.48,52.02 0,16.97 -4.76,33.81 -14.34,50.47 -9.52,16.59 -27.37,37.63 -53.59,63.05l-58.73 57.47 0 1.44 138.06 0 0 28.17zm47.96 -19.47c0,-8.14 1.88,-14.34 5.58,-18.54 3.76,-4.19 9.07,-6.32 16.09,-6.32 7.08,0 12.59,2.13 16.59,6.32 3.94,4.2 5.94,10.4 5.94,18.54 0,7.95 -2,14.09 -6.01,18.35 -4.07,4.25 -9.57,6.38 -16.53,6.38 -6.26,0 -11.39,-1.94 -15.53,-5.76 -4.08,-3.81 -6.14,-10.14 -6.14,-18.96zm268.29 -114.96c0,46.4 -7.33,81.02 -21.92,103.87 -14.65,22.85 -37,34.31 -67.06,34.31 -28.93,0 -50.83,-11.7 -65.93,-35.12 -15.02,-23.42 -22.54,-57.79 -22.54,-103.06 0,-46.7 7.26,-81.33 21.85,-103.99 14.52,-22.6 36.75,-33.94 66.61,-33.94 29.12,0 51.22,11.84 66.3,35.44 15.09,23.6 22.67,57.78 22.67,102.49zm-146.63 -0.06c0,39 4.57,67.43 13.78,85.28 9.2,17.77 23.79,26.67 43.88,26.67 20.29,0 35.01,-9.02 44.14,-27.05 9.08,-18.09 13.65,-46.33 13.65,-84.9 0,-38.51 -4.57,-66.75 -13.65,-84.72 -9.14,-17.9 -23.85,-26.85 -44.14,-26.85 -20.1,0 -34.69,8.83 -43.88,26.54 -9.21,17.66 -13.78,46.02 -13.78,85.03zm361.45 0.06c0,46.4 -7.33,81.02 -21.92,103.87 -14.65,22.85 -37,34.31 -67.06,34.31 -28.93,0 -50.83,-11.7 -65.93,-35.12 -15.02,-23.42 -22.54,-57.79 -22.54,-103.06 0,-46.7 7.26,-81.33 21.85,-103.99 14.52,-22.6 36.75,-33.94 66.61,-33.94 29.12,0 51.22,11.84 66.3,35.44 15.09,23.6 22.67,57.78 22.67,102.49zm-146.63 -0.06c0,39 4.57,67.43 13.78,85.28 9.2,17.77 23.79,26.67 43.88,26.67 20.29,0 35.01,-9.02 44.14,-27.05 9.08,-18.09 13.65,-46.33 13.65,-84.9 0,-38.51 -4.57,-66.75 -13.65,-84.72 -9.14,-17.9 -23.85,-26.85 -44.14,-26.85 -20.1,0 -34.69,8.83 -43.88,26.54 -9.21,17.66 -13.78,46.02 -13.78,85.03z"/>
  <path class="fil4" d="M939.18 8533.8c0,104.93 -40.63,157.4 -121.84,157.4 -14.21,0 -25.48,-1.25 -33.81,-3.7l0 -26.23c9.83,3.18 20.91,4.75 33.43,4.75 29.37,0 51.53,-9.08 66.5,-27.23 15.02,-18.16 23.17,-46.02 24.54,-83.58l-2.26 0c-6.7,10.14 -15.65,17.9 -26.8,23.22 -11.08,5.32 -23.67,7.95 -37.56,7.95 -23.73,0 -42.58,-7.07 -56.54,-21.28 -13.97,-14.15 -20.92,-34 -20.92,-59.42 0,-27.86 7.76,-49.9 23.36,-65.99 15.65,-16.16 36.13,-24.23 61.61,-24.23 18.22,0 34.12,4.7 47.76,14.03 13.65,9.39 24.17,22.97 31.5,40.95 7.32,17.9 11.02,39 11.02,63.36zm-90.28 -92.41c-17.53,0 -31.06,5.63 -40.57,16.9 -9.58,11.27 -14.34,26.92 -14.34,46.96 0,17.65 4.44,31.49 13.2,41.57 8.83,10.08 22.23,15.15 40.2,15.15 11.14,0 21.4,-2.26 30.74,-6.76 9.39,-4.57 16.72,-10.71 22.1,-18.6 5.38,-7.83 8.07,-16.03 8.07,-24.54 0,-12.9 -2.5,-24.73 -7.51,-35.63 -5,-10.9 -12.01,-19.48 -20.97,-25.74 -9.02,-6.2 -19.35,-9.32 -30.93,-9.32zm317.74 184.45l-39.82 0 0 61.61 -29.18 0 0 -61.61 -130.48 0 0 -26.61 127.35 -181.5 32.3 0 0 180.31 39.82 0 0 27.8zm-68.99 -27.8l0 -89.15c0,-17.47 0.63,-37.25 1.82,-59.24l-1.44 0c-5.89,11.71 -11.39,21.48 -16.53,29.18l-83.9 119.21 100.05 0zm104.31 69.94c0,-8.14 1.88,-14.34 5.58,-18.54 3.76,-4.19 9.07,-6.32 16.09,-6.32 7.08,0 12.59,2.13 16.59,6.32 3.94,4.2 5.94,10.4 5.94,18.54 0,7.95 -2,14.09 -6.01,18.35 -4.07,4.25 -9.57,6.38 -16.53,6.38 -6.26,0 -11.39,-1.94 -15.53,-5.76 -4.08,-3.81 -6.14,-10.14 -6.14,-18.96zm268.29 -114.96c0,46.4 -7.33,81.02 -21.92,103.87 -14.65,22.85 -37,34.31 -67.06,34.31 -28.93,0 -50.83,-11.7 -65.93,-35.12 -15.02,-23.42 -22.54,-57.79 -22.54,-103.06 0,-46.7 7.26,-81.33 21.85,-103.99 14.52,-22.6 36.75,-33.94 66.61,-33.94 29.12,0 51.22,11.84 66.3,35.44 15.09,23.6 22.67,57.78 22.67,102.49zm-146.63 -0.06c0,39 4.57,67.43 13.78,85.28 9.2,17.77 23.79,26.67 43.88,26.67 20.29,0 35.01,-9.02 44.14,-27.05 9.08,-18.09 13.65,-46.33 13.65,-84.9 0,-38.51 -4.57,-66.75 -13.65,-84.72 -9.14,-17.9 -23.85,-26.85 -44.14,-26.85 -20.1,0 -34.69,8.83 -43.88,26.54 -9.21,17.66 -13.78,46.02 -13.78,85.03zm361.45 0.06c0,46.4 -7.33,81.02 -21.92,103.87 -14.65,22.85 -37,34.31 -67.06,34.31 -28.93,0 -50.83,-11.7 -65.93,-35.12 -15.02,-23.42 -22.54,-57.79 -22.54,-103.06 0,-46.7 7.26,-81.33 21.85,-103.99 14.52,-22.6 36.75,-33.94 66.61,-33.94 29.12,0 51.22,11.84 66.3,35.44 15.09,23.6 22.67,57.78 22.67,102.49zm-146.63 -0.06c0,39 4.57,67.43 13.78,85.28 9.2,17.77 23.79,26.67 43.88,26.67 20.29,0 35.01,-9.02 44.14,-27.05 9.08,-18.09 13.65,-46.33 13.65,-84.9 0,-38.51 -4.57,-66.75 -13.65,-84.72 -9.14,-17.9 -23.85,-26.85 -44.14,-26.85 -20.1,0 -34.69,8.83 -43.88,26.54 -9.21,17.66 -13.78,46.02 -13.78,85.03z"/>
  <path class="fil4" d="M939.18 6070.87c0,104.93 -40.63,157.4 -121.84,157.4 -14.21,0 -25.48,-1.25 -33.81,-3.7l0 -26.23c9.83,3.18 20.91,4.75 33.43,4.75 29.37,0 51.53,-9.08 66.5,-27.23 15.02,-18.16 23.17,-46.02 24.54,-83.58l-2.26 0c-6.7,10.14 -15.65,17.9 -26.8,23.22 -11.08,5.32 -23.67,7.95 -37.56,7.95 -23.73,0 -42.58,-7.07 -56.54,-21.28 -13.97,-14.15 -20.92,-34 -20.92,-59.42 0,-27.86 7.76,-49.9 23.36,-65.99 15.65,-16.16 36.13,-24.23 61.61,-24.23 18.22,0 34.12,4.7 47.76,14.03 13.65,9.39 24.17,22.97 31.5,40.95 7.32,17.9 11.02,39 11.02,63.36zm-90.28 -92.41c-17.53,0 -31.06,5.63 -40.57,16.9 -9.58,11.27 -14.34,26.92 -14.34,46.96 0,17.65 4.44,31.49 13.2,41.57 8.83,10.08 22.23,15.15 40.2,15.15 11.14,0 21.4,-2.26 30.74,-6.76 9.39,-4.57 16.72,-10.71 22.1,-18.6 5.38,-7.83 8.07,-16.03 8.07,-24.54 0,-12.9 -2.5,-24.73 -7.51,-35.63 -5,-10.9 -12.01,-19.48 -20.97,-25.74 -9.02,-6.2 -19.35,-9.32 -30.93,-9.32zm131.85 131.47c0,-52.71 10.27,-92.09 30.75,-118.2 20.47,-26.11 50.78,-39.2 90.91,-39.2 13.83,0 24.72,1.19 32.68,3.5l0 26.23c-9.46,-3.07 -20.22,-4.57 -32.3,-4.57 -28.74,0 -50.72,8.95 -65.87,26.86 -15.22,17.9 -23.54,46.01 -24.99,84.33l2.2 0c13.46,-21.04 34.74,-31.55 63.85,-31.55 24.11,0 43.08,7.26 56.98,21.85 13.9,14.59 20.84,34.31 20.84,59.29 0,27.92 -7.64,49.84 -22.85,65.8 -15.22,15.96 -35.82,23.98 -61.73,23.98 -27.8,0 -49.78,-10.46 -66.05,-31.31 -16.28,-20.84 -24.42,-49.84 -24.42,-87.03zm90.1 92.42c17.41,0 30.87,-5.45 40.45,-16.41 9.64,-10.96 14.4,-26.8 14.4,-47.46 0,-17.78 -4.45,-31.69 -13.4,-41.89 -8.9,-10.15 -22.23,-15.22 -40.01,-15.22 -10.96,0 -21.1,2.26 -30.24,6.77 -9.21,4.57 -16.53,10.77 -21.98,18.72 -5.38,8.01 -8.14,16.22 -8.14,24.79 0,12.64 2.44,24.36 7.33,35.25 4.88,10.89 11.83,19.54 20.85,25.92 9.01,6.33 19.22,9.53 30.74,9.53zm131.11 2.69c0,-8.14 1.88,-14.34 5.58,-18.54 3.76,-4.19 9.07,-6.32 16.09,-6.32 7.08,0 12.59,2.13 16.59,6.32 3.94,4.2 5.94,10.4 5.94,18.54 0,7.95 -2,14.09 -6.01,18.35 -4.07,4.25 -9.57,6.38 -16.53,6.38 -6.26,0 -11.39,-1.94 -15.53,-5.76 -4.08,-3.81 -6.14,-10.14 -6.14,-18.96zm268.29 -114.96c0,46.4 -7.33,81.02 -21.92,103.87 -14.65,22.85 -37,34.31 -67.06,34.31 -28.93,0 -50.83,-11.7 -65.93,-35.12 -15.02,-23.42 -22.54,-57.79 -22.54,-103.06 0,-46.7 7.26,-81.33 21.85,-103.99 14.52,-22.6 36.75,-33.94 66.61,-33.94 29.12,0 51.22,11.84 66.3,35.44 15.09,23.6 22.67,57.78 22.67,102.49zm-146.63 -0.06c0,39 4.57,67.43 13.78,85.28 9.2,17.77 23.79,26.67 43.88,26.67 20.29,0 35.01,-9.02 44.14,-27.05 9.08,-18.09 13.65,-46.33 13.65,-84.9 0,-38.51 -4.57,-66.75 -13.65,-84.72 -9.14,-17.9 -23.85,-26.85 -44.14,-26.85 -20.1,0 -34.69,8.83 -43.88,26.54 -9.21,17.66 -13.78,46.02 -13.78,85.03zm361.45 0.06c0,46.4 -7.33,81.02 -21.92,103.87 -14.65,22.85 -37,34.31 -67.06,34.31 -28.93,0 -50.83,-11.7 -65.93,-35.12 -15.02,-23.42 -22.54,-57.79 -22.54,-103.06 0,-46.7 7.26,-81.33 21.85,-103.99 14.52,-22.6 36.75,-33.94 66.61,-33.94 29.12,0 51.22,11.84 66.3,35.44 15.09,23.6 22.67,57.78 22.67,102.49zm-146.63 -0.06c0,39 4.57,67.43 13.78,85.28 9.2,17.77 23.79,26.67 43.88,26.67 20.29,0 35.01,-9.02 44.14,-27.05 9.08,-18.09 13.65,-46.33 13.65,-84.9 0,-38.51 -4.57,-66.75 -13.65,-84.72 -9.14,-17.9 -23.85,-26.85 -44.14,-26.85 -20.1,0 -34.69,8.83 -43.88,26.54 -9.21,17.66 -13.78,46.02 -13.78,85.03z"/>
  <path class="fil4" d="M939.18 3612.02c0,104.93 -40.63,157.4 -121.84,157.4 -14.21,0 -25.48,-1.25 -33.81,-3.7l0 -26.23c9.83,3.18 20.91,4.75 33.43,4.75 29.37,0 51.53,-9.08 66.5,-27.23 15.02,-18.16 23.17,-46.02 24.54,-83.58l-2.26 0c-6.7,10.14 -15.65,17.9 -26.8,23.22 -11.08,5.32 -23.67,7.95 -37.56,7.95 -23.73,0 -42.58,-7.07 -56.54,-21.28 -13.97,-14.15 -20.92,-34 -20.92,-59.42 0,-27.86 7.76,-49.9 23.36,-65.99 15.65,-16.16 36.13,-24.23 61.61,-24.23 18.22,0 34.12,4.7 47.76,14.03 13.65,9.39 24.17,22.97 31.5,40.95 7.32,17.9 11.02,39 11.02,63.36zm-90.28 -92.41c-17.53,0 -31.06,5.63 -40.57,16.9 -9.58,11.27 -14.34,26.92 -14.34,46.96 0,17.65 4.44,31.49 13.2,41.57 8.83,10.08 22.23,15.15 40.2,15.15 11.14,0 21.4,-2.26 30.74,-6.76 9.39,-4.57 16.72,-10.71 22.1,-18.6 5.38,-7.83 8.07,-16.03 8.07,-24.54 0,-12.9 -2.5,-24.73 -7.51,-35.63 -5,-10.9 -12.01,-19.48 -20.97,-25.74 -9.02,-6.2 -19.35,-9.32 -30.93,-9.32zm217.57 -25.93c24.42,0 43.83,5.7 58.17,17.03 14.27,11.39 21.47,27.12 21.47,47.15 0,13.21 -4.13,25.24 -12.33,36.13 -8.2,10.89 -21.29,20.78 -39.26,29.74 21.78,10.4 37.25,21.29 46.46,32.75 9.14,11.45 13.71,24.67 13.71,39.69 0,22.29 -7.76,40.07 -23.29,53.34 -15.53,13.27 -36.82,19.91 -63.86,19.91 -28.61,0 -50.65,-6.26 -66.05,-18.78 -15.4,-12.59 -23.1,-30.37 -23.1,-53.35 0,-30.74 18.71,-54.66 56.16,-71.74 -16.9,-9.58 -28.99,-19.85 -36.38,-30.93 -7.32,-11.02 -10.95,-23.42 -10.95,-37.13 0,-19.41 7.13,-34.94 21.53,-46.46 14.34,-11.59 33.62,-17.35 57.73,-17.35zm-58.04 204.3c0,14.71 5.13,26.11 15.34,34.31 10.2,8.2 24.54,12.33 43.01,12.33 18.28,0 32.43,-4.26 42.63,-12.84 10.15,-8.58 15.22,-20.35 15.22,-35.25 0,-11.9 -4.76,-22.48 -14.34,-31.69 -9.52,-9.26 -26.18,-18.22 -49.9,-26.92 -18.22,7.83 -31.43,16.47 -39.63,25.98 -8.2,9.52 -12.33,20.85 -12.33,34.07zm57.67 -179.51c-15.34,0 -27.3,3.7 -36,11.03 -8.7,7.32 -13.02,17.09 -13.02,29.29 0,11.28 3.63,20.92 10.82,28.99 7.2,8.07 20.54,16.15 40.01,24.23 17.53,-7.33 29.87,-15.22 37.19,-23.67 7.26,-8.45 10.89,-18.28 10.89,-29.56 0,-12.33 -4.44,-22.16 -13.27,-29.42 -8.89,-7.27 -21.1,-10.9 -36.62,-10.9zm135.86 227.72c0,-8.14 1.88,-14.34 5.58,-18.54 3.76,-4.19 9.07,-6.32 16.09,-6.32 7.08,0 12.59,2.13 16.59,6.32 3.94,4.2 5.94,10.4 5.94,18.54 0,7.95 -2,14.09 -6.01,18.35 -4.07,4.25 -9.57,6.38 -16.53,6.38 -6.26,0 -11.39,-1.94 -15.53,-5.76 -4.08,-3.81 -6.14,-10.14 -6.14,-18.96zm268.29 -114.96c0,46.4 -7.33,81.02 -21.92,103.87 -14.65,22.85 -37,34.31 -67.06,34.31 -28.93,0 -50.83,-11.7 -65.93,-35.12 -15.02,-23.42 -22.54,-57.79 -22.54,-103.06 0,-46.7 7.26,-81.33 21.85,-103.99 14.52,-22.6 36.75,-33.94 66.61,-33.94 29.12,0 51.22,11.84 66.3,35.44 15.09,23.6 22.67,57.78 22.67,102.49zm-146.63 -0.06c0,39 4.57,67.43 13.78,85.28 9.2,17.77 23.79,26.67 43.88,26.67 20.29,0 35.01,-9.02 44.14,-27.05 9.08,-18.09 13.65,-46.33 13.65,-84.9 0,-38.51 -4.57,-66.75 -13.65,-84.72 -9.14,-17.9 -23.85,-26.85 -44.14,-26.85 -20.1,0 -34.69,8.83 -43.88,26.54 -9.21,17.66 -13.78,46.02 -13.78,85.03zm361.45 0.06c0,46.4 -7.33,81.02 -21.92,103.87 -14.65,22.85 -37,34.31 -67.06,34.31 -28.93,0 -50.83,-11.7 -65.93,-35.12 -15.02,-23.42 -22.54,-57.79 -22.54,-103.06 0,-46.7 7.26,-81.33 21.85,-103.99 14.52,-22.6 36.75,-33.94 66.61,-33.94 29.12,0 51.22,11.84 66.3,35.44 15.09,23.6 22.67,57.78 22.67,102.49zm-146.63 -0.06c0,39 4.57,67.43 13.78,85.28 9.2,17.77 23.79,26.67 43.88,26.67 20.29,0 35.01,-9.02 44.14,-27.05 9.08,-18.09 13.65,-46.33 13.65,-84.9 0,-38.51 -4.57,-66.75 -13.65,-84.72 -9.14,-17.9 -23.85,-26.85 -44.14,-26.85 -20.1,0 -34.69,8.83 -43.88,26.54 -9.21,17.66 -13.78,46.02 -13.78,85.03z"/>
  <path class="fil4" d="M660.81 1302.72l-29.67 0 0 -191.15c0,-15.91 0.5,-30.93 1.44,-45.08 -2.58,2.57 -5.45,5.26 -8.64,8.07 -3.13,2.82 -17.72,14.71 -43.64,35.82l-16.15 -20.98 71 -54.91 25.66 0 0 268.23zm279.81 -134.43c0,46.4 -7.33,81.02 -21.92,103.87 -14.65,22.85 -37,34.31 -67.06,34.31 -28.93,0 -50.83,-11.7 -65.93,-35.12 -15.02,-23.42 -22.54,-57.79 -22.54,-103.06 0,-46.7 7.26,-81.33 21.85,-103.99 14.52,-22.6 36.75,-33.94 66.61,-33.94 29.12,0 51.22,11.84 66.3,35.44 15.09,23.6 22.67,57.78 22.67,102.49zm-146.63 -0.06c0,39 4.57,67.43 13.78,85.28 9.2,17.77 23.79,26.67 43.88,26.67 20.29,0 35.01,-9.02 44.14,-27.05 9.08,-18.09 13.65,-46.33 13.65,-84.9 0,-38.51 -4.57,-66.75 -13.65,-84.72 -9.14,-17.9 -23.85,-26.85 -44.14,-26.85 -20.1,0 -34.69,8.83 -43.88,26.54 -9.21,17.66 -13.78,46.02 -13.78,85.03zm361.45 0.06c0,46.4 -7.33,81.02 -21.92,103.87 -14.65,22.85 -37,34.31 -67.06,34.31 -28.93,0 -50.83,-11.7 -65.93,-35.12 -15.02,-23.42 -22.54,-57.79 -22.54,-103.06 0,-46.7 7.26,-81.33 21.85,-103.99 14.52,-22.6 36.75,-33.94 66.61,-33.94 29.12,0 51.22,11.84 66.3,35.44 15.09,23.6 22.67,57.78 22.67,102.49zm-146.63 -0.06c0,39 4.57,67.43 13.78,85.28 9.2,17.77 23.79,26.67 43.88,26.67 20.29,0 35.01,-9.02 44.14,-27.05 9.08,-18.09 13.65,-46.33 13.65,-84.9 0,-38.51 -4.57,-66.75 -13.65,-84.72 -9.14,-17.9 -23.85,-26.85 -44.14,-26.85 -20.1,0 -34.69,8.83 -43.88,26.54 -9.21,17.66 -13.78,46.02 -13.78,85.03zm193.15 115.02c0,-8.14 1.88,-14.34 5.58,-18.54 3.76,-4.19 9.07,-6.32 16.09,-6.32 7.08,0 12.59,2.13 16.59,6.32 3.94,4.2 5.94,10.4 5.94,18.54 0,7.95 -2,14.09 -6.01,18.35 -4.07,4.25 -9.57,6.38 -16.53,6.38 -6.26,0 -11.39,-1.94 -15.53,-5.76 -4.08,-3.81 -6.14,-10.14 -6.14,-18.96zm268.29 -114.96c0,46.4 -7.33,81.02 -21.92,103.87 -14.65,22.85 -37,34.31 -67.06,34.31 -28.93,0 -50.83,-11.7 -65.93,-35.12 -15.02,-23.42 -22.54,-57.79 -22.54,-103.06 0,-46.7 7.26,-81.33 21.85,-103.99 14.52,-22.6 36.75,-33.94 66.61,-33.94 29.12,0 51.22,11.84 66.3,35.44 15.09,23.6 22.67,57.78 22.67,102.49zm-146.63 -0.06c0,39 4.57,67.43 13.78,85.28 9.2,17.77 23.79,26.67 43.88,26.67 20.29,0 35.01,-9.02 44.14,-27.05 9.08,-18.09 13.65,-46.33 13.65,-84.9 0,-38.51 -4.57,-66.75 -13.65,-84.72 -9.14,-17.9 -23.85,-26.85 -44.14,-26.85 -20.1,0 -34.69,8.83 -43.88,26.54 -9.21,17.66 -13.78,46.02 -13.78,85.03zm361.45 0.06c0,46.4 -7.33,81.02 -21.92,103.87 -14.65,22.85 -37,34.31 -67.06,34.31 -28.93,0 -50.83,-11.7 -65.93,-35.12 -15.02,-23.42 -22.54,-57.79 -22.54,-103.06 0,-46.7 7.26,-81.33 21.85,-103.99 14.52,-22.6 36.75,-33.94 66.61,-33.94 29.12,0 51.22,11.84 66.3,35.44 15.09,23.6 22.67,57.78 22.67,102.49zm-146.63 -0.06c0,39 4.57,67.43 13.78,85.28 9.2,17.77 23.79,26.67 43.88,26.67 20.29,0 35.01,-9.02 44.14,-27.05 9.08,-18.09 13.65,-46.33 13.65,-84.9 0,-38.51 -4.57,-66.75 -13.65,-84.72 -9.14,-17.9 -23.85,-26.85 -44.14,-26.85 -20.1,0 -34.69,8.83 -43.88,26.54 -9.21,17.66 -13.78,46.02 -13.78,85.03z"/>
  <path class="fil4" d="M2537.71 14141.98l-149.45 0 0 -268.23 149.45 0 0 27.8 -118.27 0 0 86.4 111.14 0 0 27.43 -111.14 0 0 98.79 118.27 0 0 27.8zm268.98 0l-35.57 0 -146.57 -225.09 -1.51 0c1.95,26.43 2.94,50.59 2.94,72.63l0 152.45 -28.8 0 0 -268.23 35.19 0 146.26 224.21 1.44 0c-0.25,-3.31 -0.76,-13.89 -1.63,-31.87 -0.88,-17.9 -1.19,-30.68 -0.94,-38.44l0 -153.9 29.18 0 0 268.23zm223.14 0l-149.45 0 0 -268.23 149.45 0 0 27.8 -118.27 0 0 86.4 111.14 0 0 27.43 -111.14 0 0 98.79 118.27 0 0 27.8z"/>
  <path class="fil4" d="M4009.49 14141.98l-31.18 0 0 -268.23 149.45 0 0 27.8 -118.27 0 0 98.05 111.14 0 0 27.79 -111.14 0 0 114.58zm312.18 0l-149.45 0 0 -268.23 149.45 0 0 27.8 -118.27 0 0 86.4 111.14 0 0 27.43 -111.14 0 0 98.79 118.27 0 0 27.8zm59.48 -268.23l75.76 0c35.57,0 61.36,5.32 77.19,15.96 15.91,10.65 23.86,27.49 23.86,50.47 0,15.91 -4.39,29.05 -13.28,39.38 -8.89,10.33 -21.78,17.03 -38.81,20.1l0 1.82c40.76,6.95 61.11,28.36 61.11,64.17 0,23.98 -8.14,42.7 -24.29,56.16 -16.22,13.47 -38.89,20.17 -68,20.17l-93.55 0 0 -268.23zm31.18 114.96l51.35 0c22.03,0 37.87,-3.45 47.51,-10.4 9.71,-6.88 14.53,-18.53 14.53,-34.94 0,-15.02 -5.38,-25.92 -16.16,-32.56 -10.77,-6.7 -27.86,-10.02 -51.34,-10.02l-45.9 0 0 87.91zm0 26.29l0 100.3 55.97 0c21.6,0 37.94,-4.19 48.84,-12.59 10.96,-8.33 16.47,-21.47 16.47,-39.32 0,-16.59 -5.63,-28.86 -16.79,-36.69 -11.2,-7.82 -28.23,-11.7 -51.09,-11.7l-53.41 0z"/>
  <path class="fil4" d="M5637.89 14141.98l-91.04 -237.8 -1.44 0c1.69,18.85 2.57,41.27 2.57,67.18l0 170.61 -28.8 0 0 -268.23 46.96 0 84.96 221.26 1.44 0 85.71 -221.26 46.58 0 0 268.23 -31.18 0 0 -172.8c0,-19.85 0.88,-41.39 2.57,-64.62l-1.43 0 -91.79 237.42 -25.1 0zm389.05 0l-33.37 -85.28 -107.56 0 -32.99 85.28 -31.56 0 106.06 -269.35 26.23 0 105.5 269.35 -32.31 0zm-43.07 -113.45l-31.25 -83.08c-4.01,-10.52 -8.2,-23.42 -12.46,-38.69 -2.69,11.7 -6.51,24.6 -11.58,38.69l-31.56 83.08 86.85 0zm143.37 1.88l0 111.57 -31.18 0 0 -268.23 73.51 0c32.93,0 57.22,6.32 72.88,18.91 15.72,12.59 23.61,31.56 23.61,56.86 0,35.5 -17.98,59.48 -53.91,71.94l72.82 120.53 -36.88 0 -64.92 -111.57 -55.92 0zm0 -26.67l42.7 0c22.04,0 38.13,-4.39 48.39,-13.15 10.27,-8.7 15.4,-21.86 15.4,-39.32 0,-17.72 -5.19,-30.49 -15.64,-38.32 -10.46,-7.83 -27.24,-11.77 -50.34,-11.77l-40.51 0 0 102.56z"/>
  <path class="fil4" d="M7318.82 14141.98l-33.37 -85.28 -107.56 0 -32.99 85.28 -31.56 0 106.06 -269.35 26.23 0 105.5 269.35 -32.31 0zm-43.07 -113.45l-31.25 -83.08c-4.01,-10.52 -8.2,-23.42 -12.46,-38.69 -2.69,11.7 -6.51,24.6 -11.58,38.69l-31.56 83.08 86.85 0zm112.19 -154.78l75.76 0c35.57,0 61.36,5.32 77.19,15.96 15.91,10.65 23.86,27.49 23.86,50.47 0,15.91 -4.39,29.05 -13.28,39.38 -8.89,10.33 -21.78,17.03 -38.81,20.1l0 1.82c40.76,6.95 61.11,28.36 61.11,64.17 0,23.98 -8.14,42.7 -24.29,56.16 -16.22,13.47 -38.89,20.17 -68,20.17l-93.55 0 0 -268.23zm31.18 114.96l51.35 0c22.03,0 37.87,-3.45 47.51,-10.4 9.71,-6.88 14.53,-18.53 14.53,-34.94 0,-15.02 -5.38,-25.92 -16.16,-32.56 -10.77,-6.7 -27.86,-10.02 -51.34,-10.02l-45.9 0 0 87.91zm0 26.29l0 100.3 55.97 0c21.6,0 37.94,-4.19 48.84,-12.59 10.96,-8.33 16.47,-21.47 16.47,-39.32 0,-16.59 -5.63,-28.86 -16.79,-36.69 -11.2,-7.82 -28.23,-11.7 -51.09,-11.7l-53.41 0zm243.43 15.4l0 111.57 -31.18 0 0 -268.23 73.51 0c32.93,0 57.22,6.32 72.88,18.91 15.72,12.59 23.61,31.56 23.61,56.86 0,35.5 -17.98,59.48 -53.91,71.94l72.82 120.53 -36.88 0 -64.92 -111.57 -55.92 0zm0 -26.67l42.7 0c22.04,0 38.13,-4.39 48.39,-13.15 10.27,-8.7 15.4,-21.86 15.4,-39.32 0,-17.72 -5.19,-30.49 -15.64,-38.32 -10.46,-7.83 -27.24,-11.77 -50.34,-11.77l-40.51 0 0 102.56z"/>
  <path class="fil4" d="M8785.21 14141.98l-91.04 -237.8 -1.44 0c1.69,18.85 2.57,41.27 2.57,67.18l0 170.61 -28.8 0 0 -268.23 46.96 0 84.96 221.26 1.44 0 85.71 -221.26 46.58 0 0 268.23 -31.18 0 0 -172.8c0,-19.85 0.88,-41.39 2.57,-64.62l-1.43 0 -91.79 237.42 -25.1 0zm389.05 0l-33.37 -85.28 -107.56 0 -32.99 85.28 -31.56 0 106.06 -269.35 26.23 0 105.5 269.35 -32.31 0zm-43.07 -113.45l-31.25 -83.08c-4.01,-10.52 -8.2,-23.42 -12.46,-38.69 -2.69,11.7 -6.51,24.6 -11.58,38.69l-31.56 83.08 86.85 0zm157.9 -20.66l71.5 -134.12 33.75 0 -89.47 164.22 0 104 -31.56 0 0 -102.56 -89.34 -165.67 34.12 0 71 134.12z"/>
  <path class="fil4" d="M10295.36 14212.6c-11.52,0 -20.54,-1.63 -27.17,-4.95l0 -26.54c8.7,2.44 17.72,3.7 27.17,3.7 12.08,0 21.29,-3.7 27.61,-11.03 6.26,-7.32 9.45,-17.9 9.45,-31.74l0 -268.28 31.18 0 0 265.66c0,23.22 -5.89,41.26 -17.66,54.03 -11.7,12.78 -28.61,19.16 -50.58,19.16zm341.91 -338.85l0 173.62c0,30.55 -9.2,54.59 -27.67,72.12 -18.47,17.47 -43.83,26.23 -76.14,26.23 -32.3,0 -57.29,-8.83 -74.94,-26.42 -17.66,-17.66 -26.49,-41.83 -26.49,-72.69l0 -172.87 31.18 0 0 175c0,22.41 6.13,39.57 18.35,51.59 12.21,11.96 30.17,17.97 53.9,17.97 22.66,0 40.07,-6.01 52.28,-18.09 12.22,-12.02 18.35,-29.3 18.35,-51.77l0 -174.69 31.18 0zm280.5 268.23l-35.57 0 -146.57 -225.09 -1.51 0c1.95,26.43 2.94,50.59 2.94,72.63l0 152.45 -28.8 0 0 -268.23 35.19 0 146.26 224.21 1.44 0c-0.25,-3.31 -0.76,-13.89 -1.63,-31.87 -0.88,-17.9 -1.19,-30.68 -0.94,-38.44l0 -153.9 29.18 0 0 268.23z"/>
  <path class="fil4" d="M11938.68 14212.6c-11.52,0 -20.54,-1.63 -27.17,-4.95l0 -26.54c8.7,2.44 17.72,3.7 27.17,3.7 12.08,0 21.29,-3.7 27.61,-11.03 6.26,-7.32 9.45,-17.9 9.45,-31.74l0 -268.28 31.18 0 0 265.66c0,23.22 -5.89,41.26 -17.66,54.03 -11.7,12.78 -28.61,19.16 -50.58,19.16zm341.91 -338.85l0 173.62c0,30.55 -9.2,54.59 -27.67,72.12 -18.47,17.47 -43.83,26.23 -76.14,26.23 -32.3,0 -57.29,-8.83 -74.94,-26.42 -17.66,-17.66 -26.49,-41.83 -26.49,-72.69l0 -172.87 31.18 0 0 175c0,22.41 6.13,39.57 18.35,51.59 12.21,11.96 30.17,17.97 53.9,17.97 22.66,0 40.07,-6.01 52.28,-18.09 12.22,-12.02 18.35,-29.3 18.35,-51.77l0 -174.69 31.18 0zm71 268.23l0 -268.23 31.18 0 0 240.05 118.27 0 0 28.17 -149.45 0z"/>
  <path class="fil4" d="M13625.75 14141.98l-33.37 -85.28 -107.56 0 -32.99 85.28 -31.56 0 106.06 -269.35 26.23 0 105.5 269.35 -32.31 0zm-43.07 -113.45l-31.25 -83.08c-4.01,-10.52 -8.2,-23.42 -12.46,-38.69 -2.69,11.7 -6.51,24.6 -11.58,38.69l-31.56 83.08 86.85 0zm230.15 -27.05l91.16 0 0 130.48c-14.21,4.51 -28.62,7.96 -43.33,10.27 -14.65,2.31 -31.68,3.5 -50.96,3.5 -40.64,0 -72.26,-12.08 -94.86,-36.25 -22.59,-24.16 -33.93,-57.98 -33.93,-101.55 0,-27.86 5.63,-52.28 16.78,-73.25 11.21,-20.98 27.3,-37 48.34,-48.08 21.04,-11.08 45.71,-16.59 73.94,-16.59 28.62,0 55.29,5.26 79.95,15.72l-12.08 27.48c-24.23,-10.27 -47.52,-15.4 -69.88,-15.4 -32.68,0 -58.16,9.7 -76.51,29.18 -18.35,19.41 -27.48,46.39 -27.48,80.89 0,36.19 8.83,63.67 26.49,82.39 17.66,18.72 43.64,28.05 77.88,28.05 18.54,0 36.69,-2.13 54.47,-6.45l0 -82.59 -59.98 0 0 -27.79zm388.37 6.07c0,42.95 -10.89,76.7 -32.56,101.31 -21.72,24.6 -51.91,36.87 -90.6,36.87 -39.51,0 -69.99,-12.08 -91.41,-36.25 -21.47,-24.16 -32.25,-58.22 -32.25,-102.24 0,-43.7 10.77,-77.51 32.3,-101.55 21.54,-24.05 52.09,-36.07 91.73,-36.07 38.57,0 68.63,12.22 90.28,36.69 21.67,24.48 32.5,58.23 32.5,101.24zm-213.75 -0.06c0,36.31 7.7,63.86 23.17,82.64 15.53,18.78 38.01,28.17 67.43,28.17 29.74,0 52.22,-9.32 67.37,-28.05 15.16,-18.72 22.73,-46.33 22.73,-82.77 0,-36.06 -7.51,-63.43 -22.66,-82.08 -15.09,-18.65 -37.45,-27.99 -67.06,-27.99 -29.74,0 -52.28,9.39 -67.8,28.17 -15.47,18.79 -23.17,46.08 -23.17,81.9z"/>
  <path class="fil4" d="M15214.99 14070.73c0,23.6 -8.58,42.01 -25.67,55.22 -17.15,13.21 -40.38,19.79 -69.75,19.79 -31.8,0 -56.28,-4.13 -73.38,-12.33l0 -30.12c11.03,4.64 22.98,8.33 35.94,11.02 12.96,2.69 25.79,4.01 38.57,4.01 20.78,0 36.44,-3.94 46.95,-11.83 10.52,-7.83 15.78,-18.78 15.78,-32.88 0,-9.26 -1.88,-16.9 -5.57,-22.79 -3.77,-5.94 -10.02,-11.39 -18.72,-16.47 -8.77,-5 -22.1,-10.71 -39.95,-17.03 -24.92,-8.95 -42.76,-19.54 -53.47,-31.74 -10.71,-12.21 -16.09,-28.17 -16.09,-47.89 0,-20.67 7.76,-37.14 23.29,-49.34 15.59,-12.21 36.13,-18.35 61.68,-18.35 26.67,0 51.21,4.89 73.56,14.66l-9.71 27.11c-22.16,-9.33 -43.7,-13.96 -64.61,-13.96 -16.47,0 -29.43,3.56 -38.69,10.64 -9.33,7.14 -13.96,16.97 -13.96,29.61 0,9.33 1.75,16.91 5.13,22.86 3.45,5.94 9.21,11.39 17.35,16.34 8.13,4.95 20.59,10.4 37.38,16.4 28.11,10.02 47.46,20.79 58.04,32.31 10.58,11.45 15.91,26.42 15.91,44.76zm204.23 71.25l-149.45 0 0 -268.23 149.45 0 0 27.8 -118.27 0 0 86.4 111.14 0 0 27.43 -111.14 0 0 98.79 118.27 0 0 27.8zm229.47 -190.08c0,27.11 -9.27,48.02 -27.74,62.61 -18.54,14.59 -45.03,21.92 -79.52,21.92l-31.56 0 0 105.56 -31.18 0 0 -268.23 69.5 0c67,0 100.5,26.05 100.5,78.14zm-138.81 57.85l28.05 0c27.61,0 47.64,-4.45 59.97,-13.4 12.34,-8.9 18.54,-23.23 18.54,-42.9 0,-17.72 -5.83,-30.93 -17.41,-39.63 -11.65,-8.7 -29.74,-13.02 -54.35,-13.02l-34.81 0 0 108.95z"/>
  <path class="fil4" d="M16890.59 14007.55c0,42.95 -10.89,76.7 -32.56,101.31 -21.72,24.6 -51.91,36.87 -90.6,36.87 -39.51,0 -69.99,-12.08 -91.41,-36.25 -21.47,-24.16 -32.25,-58.22 -32.25,-102.24 0,-43.7 10.77,-77.51 32.3,-101.55 21.54,-24.05 52.09,-36.07 91.73,-36.07 38.57,0 68.63,12.22 90.28,36.69 21.67,24.48 32.5,58.23 32.5,101.24zm-213.75 -0.06c0,36.31 7.7,63.86 23.17,82.64 15.53,18.78 38.01,28.17 67.43,28.17 29.74,0 52.22,-9.32 67.37,-28.05 15.16,-18.72 22.73,-46.33 22.73,-82.77 0,-36.06 -7.51,-63.43 -22.66,-82.08 -15.09,-18.65 -37.45,-27.99 -67.06,-27.99 -29.74,0 -52.28,9.39 -67.8,28.17 -15.47,18.79 -23.17,46.08 -23.17,81.9zm388.32 -109.69c-29.43,0 -52.72,9.83 -69.82,29.42 -17.03,19.66 -25.54,46.53 -25.54,80.65 0,35.12 8.2,62.23 24.67,81.33 16.4,19.16 39.88,28.73 70.37,28.73 18.66,0 40.01,-3.38 63.99,-10.08l0 27.37c-18.6,7.01 -41.51,10.51 -68.81,10.51 -39.51,0 -69.99,-11.96 -91.41,-35.94 -21.47,-23.98 -32.25,-58.05 -32.25,-102.18 0,-27.68 5.2,-51.91 15.53,-72.69 10.33,-20.78 25.23,-36.82 44.76,-48.03 19.48,-11.27 42.45,-16.9 68.88,-16.9 28.17,0 52.71,5.14 73.75,15.34l-13.2 26.8c-20.29,-9.58 -40.57,-14.34 -60.92,-14.34zm204.67 244.18l-31.18 0 0 -240.42 -84.9 0 0 -27.8 200.91 0 0 27.8 -84.83 0 0 240.42z"/>
  <path class="fil4" d="M18408.12 14141.98l-35.57 0 -146.57 -225.09 -1.51 0c1.95,26.43 2.94,50.59 2.94,72.63l0 152.45 -28.8 0 0 -268.23 35.19 0 146.26 224.21 1.44 0c-0.25,-3.31 -0.76,-13.89 -1.63,-31.87 -0.88,-17.9 -1.19,-30.68 -0.94,-38.44l0 -153.9 29.18 0 0 268.23zm306.54 -134.43c0,42.95 -10.89,76.7 -32.56,101.31 -21.72,24.6 -51.91,36.87 -90.6,36.87 -39.51,0 -69.99,-12.08 -91.41,-36.25 -21.47,-24.16 -32.25,-58.22 -32.25,-102.24 0,-43.7 10.77,-77.51 32.3,-101.55 21.54,-24.05 52.09,-36.07 91.73,-36.07 38.57,0 68.63,12.22 90.28,36.69 21.67,24.48 32.5,58.23 32.5,101.24zm-213.75 -0.06c0,36.31 7.7,63.86 23.17,82.64 15.53,18.78 38.01,28.17 67.43,28.17 29.74,0 52.22,-9.32 67.37,-28.05 15.16,-18.72 22.73,-46.33 22.73,-82.77 0,-36.06 -7.51,-63.43 -22.66,-82.08 -15.09,-18.65 -37.45,-27.99 -67.06,-27.99 -29.74,0 -52.28,9.39 -67.8,28.17 -15.47,18.79 -23.17,46.08 -23.17,81.9zm422.87 -133.74l33.56 0 -96.6 268.23 -30.8 0 -96.11 -268.23 32.99 0 61.61 173.56c7.08,19.91 12.71,39.32 16.91,58.16 4.38,-19.85 10.14,-39.57 17.21,-59.29l61.23 -172.43z"/>
  <path class="fil4" d="M20068.32 14005.3c0,44.27 -12.02,78.14 -36.07,101.56 -24.04,23.42 -58.6,35.12 -103.74,35.12l-74.26 0 0 -268.23 82.15 0c41.7,0 74.13,11.59 97.23,34.69 23.1,23.11 34.69,55.41 34.69,96.86zm-33.06 1.13c0,-35 -8.77,-61.3 -26.29,-79.01 -17.53,-17.72 -43.64,-26.61 -78.2,-26.61l-45.34 0 0 214.13 37.94 0c37.19,0 65.12,-9.14 83.84,-27.43 18.72,-18.28 28.05,-45.33 28.05,-81.08zm92.85 135.55l0 -268.23 31.18 0 0 268.23 -31.18 0zm219.58 -244.18c-29.43,0 -52.72,9.83 -69.82,29.42 -17.03,19.66 -25.54,46.53 -25.54,80.65 0,35.12 8.2,62.23 24.67,81.33 16.4,19.16 39.88,28.73 70.37,28.73 18.66,0 40.01,-3.38 63.99,-10.08l0 27.37c-18.6,7.01 -41.51,10.51 -68.81,10.51 -39.51,0 -69.99,-11.96 -91.41,-35.94 -21.47,-23.98 -32.25,-58.05 -32.25,-102.18 0,-27.68 5.2,-51.91 15.53,-72.69 10.33,-20.78 25.23,-36.82 44.76,-48.03 19.48,-11.27 42.45,-16.9 68.88,-16.9 28.17,0 52.71,5.14 73.75,15.34l-13.2 26.8c-20.29,-9.58 -40.57,-14.34 -60.92,-14.34z"/>
  <path class="fil4" d="M21536.38 14141.98l-149.45 0 0 -268.23 149.45 0 0 27.8 -118.27 0 0 86.4 111.14 0 0 27.43 -111.14 0 0 98.79 118.27 0 0 27.8zm268.97 0l-35.57 0 -146.57 -225.09 -1.51 0c1.95,26.43 2.94,50.59 2.94,72.63l0 152.45 -28.79 0 0 -268.23 35.18 0 146.26 224.21 1.44 0c-0.25,-3.31 -0.76,-13.89 -1.63,-31.87 -0.88,-17.9 -1.19,-30.68 -0.94,-38.44l0 -153.9 29.18 0 0 268.23zm223.14 0l-149.45 0 0 -268.23 149.45 0 0 27.8 -118.27 0 0 86.4 111.14 0 0 27.43 -111.14 0 0 98.79 118.27 0 0 27.8z"/>
  <path class="fil4" d="M23008.14 14141.98l-31.18 0 0 -268.23 149.45 0 0 27.8 -118.27 0 0 98.05 111.14 0 0 27.79 -111.14 0 0 114.58zm312.18 0l-149.45 0 0 -268.23 149.45 0 0 27.8 -118.27 0 0 86.4 111.14 0 0 27.43 -111.14 0 0 98.79 118.27 0 0 27.8zm59.48 -268.23l75.76 0c35.57,0 61.36,5.32 77.19,15.96 15.91,10.65 23.86,27.49 23.86,50.47 0,15.91 -4.39,29.05 -13.28,39.38 -8.89,10.33 -21.78,17.03 -38.81,20.1l0 1.82c40.76,6.95 61.11,28.36 61.11,64.17 0,23.98 -8.14,42.7 -24.29,56.16 -16.22,13.47 -38.89,20.17 -68,20.17l-93.55 0 0 -268.23zm31.18 114.96l51.35 0c22.03,0 37.87,-3.45 47.51,-10.4 9.71,-6.88 14.53,-18.53 14.53,-34.94 0,-15.02 -5.38,-25.92 -16.16,-32.56 -10.77,-6.7 -27.86,-10.02 -51.34,-10.02l-45.9 0 0 87.91zm0 26.29l0 100.3 55.97 0c21.6,0 37.94,-4.19 48.84,-12.59 10.96,-8.33 16.47,-21.47 16.47,-39.32 0,-16.59 -5.63,-28.86 -16.79,-36.69 -11.2,-7.82 -28.23,-11.7 -51.09,-11.7l-53.41 0z"/>
  <g>
   <polygon class="fil5" points="1944.93,13531.32 1969.51,1142.16 2017.92,1142.25 1993.33,13531.41 "/>
  </g>
  <g>
   <polygon class="fil5" points="20841.36,13531.32 20865.94,1142.16 20914.35,1142.25 20889.76,13531.41 "/>
  </g>
  <path class="fil0 str2" d="M2647.88 2972.61c2256.67,775.43 10010.92,1126.71 20696.1,1316.83"/>
  <path class="fil4" d="M159.66 8206.38c27.11,0 48.02,9.27 62.61,27.74 14.59,18.54 21.92,45.03 21.92,79.52l0 31.56 105.56 0 0 31.18 -268.23 0 0 -69.5c0,-67 26.05,-100.5 78.14,-100.5zm57.85 138.81l0 -28.05c0,-27.61 -4.45,-47.64 -13.4,-59.97 -8.9,-12.34 -23.23,-18.54 -42.9,-18.54 -17.72,0 -30.93,5.83 -39.63,17.41 -8.7,11.65 -13.02,29.74 -13.02,54.35l0 34.81 108.95 0zm20.66 -226.15l111.57 0 0 31.18 -268.23 0 0 -73.51c0,-32.93 6.32,-57.22 18.91,-72.88 12.59,-15.72 31.56,-23.61 56.86,-23.61 35.5,0 59.48,17.98 71.94,53.91l120.53 -72.82 0 36.88 -111.57 64.92 0 55.92zm-26.67 0l0 -42.7c0,-22.04 -4.39,-38.13 -13.15,-48.39 -8.7,-10.27 -21.86,-15.4 -39.32,-15.4 -17.72,0 -30.49,5.19 -38.32,15.64 -7.83,10.46 -11.77,27.24 -11.77,50.34l0 40.51 102.56 0zm3.81 -433.89c42.95,0 76.7,10.89 101.31,32.56 24.6,21.72 36.87,51.91 36.87,90.6 0,39.51 -12.08,69.99 -36.25,91.41 -24.16,21.47 -58.22,32.25 -102.24,32.25 -43.7,0 -77.51,-10.77 -101.55,-32.3 -24.05,-21.54 -36.07,-52.09 -36.07,-91.73 0,-38.57 12.22,-68.63 36.69,-90.28 24.48,-21.67 58.23,-32.5 101.24,-32.5zm-0.06 213.75c36.31,0 63.86,-7.7 82.64,-23.17 18.78,-15.53 28.17,-38.01 28.17,-67.43 0,-29.74 -9.32,-52.22 -28.05,-67.37 -18.72,-15.16 -46.33,-22.73 -82.77,-22.73 -36.06,0 -63.43,7.51 -82.08,22.66 -18.65,15.09 -27.99,37.45 -27.99,67.06 0,29.74 9.39,52.28 28.17,67.8 18.79,15.47 46.08,23.17 81.9,23.17zm-55.6 -443.48c27.11,0 48.02,9.27 62.61,27.74 14.59,18.54 21.92,45.03 21.92,79.52l0 31.56 105.56 0 0 31.18 -268.23 0 0 -69.5c0,-67 26.05,-100.5 78.14,-100.5zm57.85 138.81l0 -28.05c0,-27.61 -4.45,-47.64 -13.4,-59.97 -8.9,-12.34 -23.23,-18.54 -42.9,-18.54 -17.72,0 -30.93,5.83 -39.63,17.41 -8.7,11.65 -13.02,29.74 -13.02,54.35l0 34.81 108.95 0zm-2.2 -427.82c42.95,0 76.7,10.89 101.31,32.56 24.6,21.72 36.87,51.91 36.87,90.6 0,39.51 -12.08,69.99 -36.25,91.41 -24.16,21.47 -58.22,32.25 -102.24,32.25 -43.7,0 -77.51,-10.77 -101.55,-32.3 -24.05,-21.54 -36.07,-52.09 -36.07,-91.73 0,-38.57 12.22,-68.63 36.69,-90.28 24.48,-21.67 58.23,-32.5 101.24,-32.5zm-0.06 213.75c36.31,0 63.86,-7.7 82.64,-23.17 18.78,-15.53 28.17,-38.01 28.17,-67.43 0,-29.74 -9.32,-52.22 -28.05,-67.37 -18.72,-15.16 -46.33,-22.73 -82.77,-22.73 -36.06,0 -63.43,7.51 -82.08,22.66 -18.65,15.09 -27.99,37.45 -27.99,67.06 0,29.74 9.39,52.28 28.17,67.8 18.79,15.47 46.08,23.17 81.9,23.17zm22.91 -304.66l111.57 0 0 31.18 -268.23 0 0 -73.51c0,-32.93 6.32,-57.22 18.91,-72.88 12.59,-15.72 31.56,-23.61 56.86,-23.61 35.5,0 59.48,17.98 71.94,53.91l120.53 -72.82 0 36.88 -111.57 64.92 0 55.92zm-26.67 0l0 -42.7c0,-22.04 -4.39,-38.13 -13.15,-48.39 -8.7,-10.27 -21.86,-15.4 -39.32,-15.4 -17.72,0 -30.49,5.19 -38.32,15.64 -7.83,10.46 -11.77,27.24 -11.77,50.34l0 40.51 102.56 0zm-105.94 -315.87c0,29.43 9.83,52.72 29.42,69.82 19.66,17.03 46.53,25.54 80.65,25.54 35.12,0 62.23,-8.2 81.33,-24.67 19.16,-16.4 28.73,-39.88 28.73,-70.37 0,-18.66 -3.38,-40.01 -10.08,-63.99l27.37 0c7.01,18.6 10.51,41.51 10.51,68.81 0,39.51 -11.96,69.99 -35.94,91.41 -23.98,21.47 -58.05,32.25 -102.18,32.25 -27.68,0 -51.91,-5.2 -72.69,-15.53 -20.78,-10.33 -36.82,-25.23 -48.03,-44.76 -11.27,-19.48 -16.9,-42.45 -16.9,-68.88 0,-28.17 5.14,-52.71 15.34,-73.75l26.8 13.2c-9.58,20.29 -14.34,40.57 -14.34,60.92zm244.18 -122.14l-268.23 0 0 -31.18 268.23 0 0 31.18zm-134.43 -337.6c42.95,0 76.7,10.89 101.31,32.56 24.6,21.72 36.87,51.91 36.87,90.6 0,39.51 -12.08,69.99 -36.25,91.41 -24.16,21.47 -58.22,32.25 -102.24,32.25 -43.7,0 -77.51,-10.77 -101.55,-32.3 -24.05,-21.54 -36.07,-52.09 -36.07,-91.73 0,-38.57 12.22,-68.63 36.69,-90.28 24.48,-21.67 58.23,-32.5 101.24,-32.5zm-0.06 213.75c36.31,0 63.86,-7.7 82.64,-23.17 18.78,-15.53 28.17,-38.01 28.17,-67.43 0,-29.74 -9.32,-52.22 -28.05,-67.37 -18.72,-15.16 -46.33,-22.73 -82.77,-22.73 -36.06,0 -63.43,7.51 -82.08,22.66 -18.65,15.09 -27.99,37.45 -27.99,67.06 0,29.74 9.39,52.28 28.17,67.8 18.79,15.47 46.08,23.17 81.9,23.17zm-159.72 -64.93c-7.57,-5.89 -16.72,-12.21 -27.48,-18.96 -10.77,-6.82 -20.1,-12.15 -28.05,-16.03l0 -37.07 3.81 0c7.95,5.38 17.72,13.4 29.36,24.05 11.59,10.58 20.6,19.85 26.92,27.67l0 20.35 -4.57 0zm294.21 -418.05l0 35.57 -225.09 146.57 0 1.51c26.43,-1.95 50.59,-2.94 72.63,-2.94l152.45 0 0 28.8 -268.23 0 0 -35.19 224.21 -146.26 0 -1.44c-3.31,0.25 -13.89,0.76 -31.87,1.63 -17.9,0.88 -30.68,1.19 -38.44,0.94l-153.9 0 0 -29.18 268.23 0z"/>
  <rect class="fil6" x="2037.51" y="-0" width="18820.48" height="936.53"/>
  <rect class="fil7" x="20912.37" y="-0" width="3372.23" height="936.53"/>
  <path class="fil8" d="M11063.92 717.07l-288.61 0 0 -42.92 115.68 -116.19c35.14,-35.65 58.39,-61.07 69.66,-76.33 11.17,-15.16 19.57,-30.01 25.21,-44.36 5.53,-14.44 8.4,-29.91 8.4,-46.62 0,-23.36 -7.17,-41.9 -21.32,-55.63 -14.24,-13.73 -34.01,-20.6 -59.22,-20.6 -18.24,0 -35.45,2.97 -51.74,9.02 -16.39,5.94 -34.52,16.9 -54.5,32.68l-26.43 -33.91c40.36,-33.51 84.42,-50.2 132.07,-50.2 41.29,0 73.55,10.55 97.02,31.66 23.47,21.1 35.14,49.49 35.14,85.14 0,27.76 -7.78,55.33 -23.47,82.58 -15.57,27.15 -44.76,61.58 -87.7,103.18l-96.1 94.05 0 2.35 225.91 0 0 46.11zm353.88 -219.97c0,75.92 -11.99,132.57 -35.87,169.97 -23.97,37.4 -60.54,56.15 -109.72,56.15 -47.34,0 -83.2,-19.16 -107.89,-57.47 -24.59,-38.32 -36.88,-94.57 -36.88,-168.64 0,-76.44 11.89,-133.09 35.76,-170.18 23.77,-36.99 60.14,-55.54 109.02,-55.54 47.64,0 83.81,19.37 108.49,58 24.7,38.63 37.1,94.56 37.1,167.72zm-239.96 -0.11c0,63.83 7.48,110.34 22.55,139.54 15.06,29.1 38.93,43.65 71.82,43.65 33.2,0 57.27,-14.75 72.23,-44.26 14.86,-29.61 22.33,-75.82 22.33,-138.93 0,-63.01 -7.47,-109.22 -22.33,-138.62 -14.96,-29.3 -39.03,-43.96 -72.23,-43.96 -32.9,0 -56.76,14.45 -71.82,43.45 -15.06,28.89 -22.55,75.31 -22.55,139.13zm485.12 220.07l-48.56 0 0 -312.8c0,-26.02 0.81,-50.61 2.35,-73.77 -4.2,4.2 -8.92,8.61 -14.13,13.21 -5.13,4.62 -29,24.08 -71.42,58.61l-26.44 -34.32 116.19 -89.86 42 0 0 438.92zm222.43 0l182.07 -392.82 -239.34 0 0 -46.1 292.1 0 0 39.95 -179.5 398.96 -55.33 0z"/>
  <path class="fil8" d="M22214.95 717.07l-288.61 0 0 -42.92 115.68 -116.19c35.14,-35.65 58.39,-61.07 69.66,-76.33 11.17,-15.16 19.57,-30.01 25.21,-44.36 5.53,-14.44 8.4,-29.91 8.4,-46.62 0,-23.36 -7.17,-41.9 -21.32,-55.63 -14.24,-13.73 -34.01,-20.6 -59.22,-20.6 -18.24,0 -35.45,2.97 -51.74,9.02 -16.39,5.94 -34.52,16.9 -54.5,32.68l-26.43 -33.91c40.36,-33.51 84.42,-50.2 132.07,-50.2 41.29,0 73.55,10.55 97.02,31.66 23.47,21.1 35.14,49.49 35.14,85.14 0,27.76 -7.78,55.33 -23.47,82.58 -15.57,27.15 -44.76,61.58 -87.7,103.18l-96.1 94.05 0 2.35 225.91 0 0 46.11zm353.88 -219.97c0,75.92 -11.99,132.57 -35.87,169.97 -23.97,37.4 -60.54,56.15 -109.72,56.15 -47.34,0 -83.2,-19.16 -107.89,-57.47 -24.59,-38.32 -36.88,-94.57 -36.88,-168.64 0,-76.44 11.89,-133.09 35.76,-170.18 23.77,-36.99 60.14,-55.54 109.02,-55.54 47.64,0 83.81,19.37 108.49,58 24.7,38.63 37.1,94.56 37.1,167.72zm-239.96 -0.11c0,63.83 7.48,110.34 22.55,139.54 15.06,29.1 38.93,43.65 71.82,43.65 33.2,0 57.27,-14.75 72.23,-44.26 14.86,-29.61 22.33,-75.82 22.33,-138.93 0,-63.01 -7.47,-109.22 -22.33,-138.62 -14.96,-29.3 -39.03,-43.96 -72.23,-43.96 -32.9,0 -56.76,14.45 -71.82,43.45 -15.06,28.89 -22.55,75.31 -22.55,139.13zm485.12 220.07l-48.56 0 0 -312.8c0,-26.02 0.81,-50.61 2.35,-73.77 -4.2,4.2 -8.92,8.61 -14.13,13.21 -5.13,4.62 -29,24.08 -71.42,58.61l-26.44 -34.32 116.19 -89.86 42 0 0 438.92zm312.28 -445.06c39.95,0 71.72,9.32 95.18,27.87 23.36,18.65 35.14,44.36 35.14,77.15 0,21.62 -6.77,41.29 -20.18,59.11 -13.43,17.83 -34.84,34.02 -64.24,48.67 35.65,17 60.96,34.83 76.02,53.58 14.96,18.74 22.44,40.36 22.44,64.95 0,36.48 -12.71,65.58 -38.11,87.29 -25.41,21.72 -60.24,32.59 -104.5,32.59 -46.83,0 -82.89,-10.24 -108.1,-30.74 -25.2,-20.59 -37.8,-49.69 -37.8,-87.29 0,-50.3 30.63,-89.44 91.9,-117.42 -27.66,-15.67 -47.44,-32.47 -59.53,-50.61 -11.98,-18.03 -17.93,-38.32 -17.93,-60.76 0,-31.75 11.68,-57.16 35.25,-76.01 23.46,-18.95 55.02,-28.38 94.46,-28.38zm-94.98 334.31c0,24.08 8.4,42.73 25.1,56.15 16.7,13.42 40.17,20.18 70.39,20.18 29.91,0 53.07,-6.97 69.77,-21.01 16.59,-14.04 24.9,-33.29 24.9,-57.68 0,-19.47 -7.79,-36.78 -23.47,-51.84 -15.58,-15.17 -42.83,-29.82 -81.66,-44.06 -29.82,12.81 -51.43,26.94 -64.85,42.52 -13.43,15.58 -20.18,34.12 -20.18,55.73zm94.36 -293.73c-25.1,0 -44.67,6.04 -58.91,18.04 -14.24,11.98 -21.32,27.97 -21.32,47.95 0,18.44 5.94,34.21 17.73,47.44 11.78,13.21 33.61,26.43 65.47,39.64 28.68,-11.98 48.87,-24.89 60.86,-38.72 11.88,-13.83 17.82,-29.91 17.82,-48.36 0,-20.18 -7.27,-36.27 -21.72,-48.16 -14.54,-11.88 -34.52,-17.82 -59.93,-17.82z"/>
 </g>
</svg>
