<?xml version="1.0" encoding="UTF-8"?>
<!DOCTYPE svg PUBLIC "-//W3C//DTD SVG 1.1//EN" "http://www.w3.org/Graphics/SVG/1.1/DTD/svg11.dtd">
<!-- Creator: CorelDRAW 2017 -->
<svg xmlns="http://www.w3.org/2000/svg" xml:space="preserve" width="178.666mm" height="116.271mm" version="1.1" style="shape-rendering:geometricPrecision; text-rendering:geometricPrecision; image-rendering:optimizeQuality; fill-rule:evenodd; clip-rule:evenodd"
viewBox="0 0 18182.8 11832.89"
 xmlns:xlink="http://www.w3.org/1999/xlink">
 <defs>
  <style type="text/css">
   <![CDATA[
    .str0 {stroke:#D9D9D9;stroke-width:4.3;stroke-miterlimit:22.9256}
    .fil3 {fill:black;fill-rule:nonzero}
    .fil4 {fill:black;fill-rule:nonzero}
    .fil0 {fill:#BD3146;fill-rule:nonzero}
    .fil1 {fill:#BD3146;fill-rule:nonzero}
    .fil2 {fill:#D9D9D9;fill-rule:nonzero}
   ]]>
  </style>
 </defs>
 <g id="Capa_x0020_1">
  <metadata id="CorelCorpID_0Corel-Layer"/>
  <path class="fil0" d="M1396.25 1418.81l374.81 0 0 8874.7 -374.81 0 0 -8874.7zm525.59 374.81l374.81 0 0 8499.89 -374.81 0 0 -8499.89zm525.59 3683.43l379.11 0 0 4816.46 -379.11 0 0 -4816.46zm529.91 1585.38l374.8 0 0 3231.08 -374.8 0 0 -3231.08z"/>
  <path class="fil1" d="M3502.92 7562.17l374.81 0 0 2731.34 -374.81 0 0 -2731.34zm525.59 77.55l379.12 0 0 2653.79 -379.12 0 0 -2653.79zm529.91 94.78l374.8 0 0 2559.01 -374.8 0 0 -2559.01zm525.59 17.23l374.79 0 0 2541.78 -374.79 0 0 -2541.78z"/>
  <path class="fil1" d="M5609.58 7889.58l379.11 0 0 2403.93 -379.11 0 0 -2403.93zm529.9 77.55l374.81 0 0 2326.38 -374.81 0 0 -2326.38zm525.59 60.31l374.81 0 0 2266.07 -374.81 0 0 -2266.07zm525.59 193.87l379.11 0 0 2072.2 -379.11 0 0 -2072.2z"/>
  <path class="fil1" d="M7716.25 8320.4l379.11 0 0 1973.11 -379.11 0 0 -1973.11zm529.9 340.34l374.81 0 0 1632.77 -374.81 0 0 -1632.77zm525.59 4.32l374.81 0 0 1628.46 -374.81 0 0 -1628.46zm525.59 99.08l379.11 0 0 1529.38 -379.11 0 0 -1529.38z"/>
  <path class="fil1" d="M9827.22 8794.29l374.81 0 0 1499.22 -374.81 0 0 -1499.22zm525.59 172.33l374.81 0 0 1326.9 -374.81 0 0 -1326.9zm525.59 68.93l379.11 0 0 1257.97 -379.11 0 0 -1257.97zm529.9 68.93l374.81 0 0 1189.04 -374.81 0 0 -1189.04z"/>
  <path class="fil1" d="M11933.89 9220.79l374.81 0 0 1072.72 -374.81 0 0 -1072.72zm525.59 12.92l379.11 0 0 1059.79 -379.11 0 0 -1059.79zm529.9 60.31l374.81 0 0 999.48 -374.81 0 0 -999.48zm525.59 30.15l374.81 0 0 969.33 -374.81 0 0 -969.33z"/>
  <path class="fil1" d="M14040.55 9354.35l374.81 0 0 939.16 -374.81 0 0 -939.16zm525.59 99.08l379.11 0 0 840.08 -379.11 0 0 -840.08zm529.9 241.26l374.81 0 0 598.82 -374.81 0 0 -598.82zm525.59 8.62l374.81 0 0 590.2 -374.81 0 0 -590.2z"/>
  <path class="fil1" d="M16147.22 9905.79l379.11 0 0 387.72 -379.11 0 0 -387.72zm529.91 56l374.8 0 0 331.72 -374.8 0 0 -331.72zm525.58 163.71l374.81 0 0 168.01 -374.81 0 0 -168.01zm525.58 0l379.12 0 0 168.01 -379.12 0 0 -168.01z"/>
  <polygon class="fil2 str0" points="1318.71,10280.59 18180.64,10280.59 18180.64,10306.43 1318.71,10306.43 "/>
  <path class="fil3" d="M801.99 10281.21c0,35.48 -5.61,61.95 -16.76,79.42 -11.19,17.46 -28.29,26.23 -51.26,26.23 -22.11,0 -38.88,-8.95 -50.41,-26.86 -11.49,-17.9 -17.24,-44.18 -17.24,-78.79 0,-35.71 5.56,-62.18 16.71,-79.51 11.1,-17.28 28.1,-25.94 50.94,-25.94 22.26,0 39.15,9.05 50.69,27.09 11.53,18.05 17.33,44.19 17.33,78.36zm-112.11 -0.04c0,29.82 3.49,51.55 10.52,65.19 7.04,13.6 18.2,20.39 33.56,20.39 15.51,0 26.76,-6.9 33.75,-20.68 6.94,-13.84 10.43,-35.43 10.43,-64.91 0,-29.44 -3.49,-51.04 -10.43,-64.78 -6.99,-13.69 -18.24,-20.53 -33.75,-20.53 -15.37,0 -26.52,6.75 -33.56,20.29 -7.03,13.49 -10.52,35.18 -10.52,65.01zm147.67 87.93c0,-6.22 1.43,-10.96 4.26,-14.17 2.87,-3.21 6.94,-4.83 12.3,-4.83 5.4,0 9.62,1.63 12.68,4.83 3.01,3.21 4.55,7.95 4.55,14.17 0,6.09 -1.54,10.77 -4.6,14.02 -3.1,3.26 -7.32,4.88 -12.63,4.88 -4.79,0 -8.71,-1.49 -11.88,-4.41 -3.11,-2.92 -4.69,-7.75 -4.69,-14.5zm205.13 -87.89c0,35.48 -5.61,61.95 -16.76,79.42 -11.19,17.46 -28.29,26.23 -51.26,26.23 -22.11,0 -38.88,-8.95 -50.41,-26.86 -11.49,-17.9 -17.24,-44.18 -17.24,-78.79 0,-35.71 5.56,-62.18 16.71,-79.51 11.1,-17.28 28.1,-25.94 50.94,-25.94 22.26,0 39.15,9.05 50.69,27.09 11.53,18.05 17.33,44.19 17.33,78.36zm-112.11 -0.04c0,29.82 3.49,51.55 10.52,65.19 7.04,13.6 18.2,20.39 33.56,20.39 15.51,0 26.76,-6.9 33.75,-20.68 6.94,-13.84 10.43,-35.43 10.43,-64.91 0,-29.44 -3.49,-51.04 -10.43,-64.78 -6.99,-13.69 -18.24,-20.53 -33.75,-20.53 -15.37,0 -26.52,6.75 -33.56,20.29 -7.03,13.49 -10.52,35.18 -10.52,65.01zm276.35 0.04c0,35.48 -5.61,61.95 -16.76,79.42 -11.19,17.46 -28.29,26.23 -51.26,26.23 -22.11,0 -38.88,-8.95 -50.41,-26.86 -11.49,-17.9 -17.24,-44.18 -17.24,-78.79 0,-35.71 5.56,-62.18 16.71,-79.51 11.1,-17.28 28.1,-25.94 50.94,-25.94 22.26,0 39.15,9.05 50.69,27.09 11.53,18.05 17.33,44.19 17.33,78.36zm-112.11 -0.04c0,29.82 3.49,51.55 10.52,65.19 7.04,13.6 18.2,20.39 33.56,20.39 15.51,0 26.76,-6.9 33.75,-20.68 6.94,-13.84 10.43,-35.43 10.43,-64.91 0,-29.44 -3.49,-51.04 -10.43,-64.78 -6.99,-13.69 -18.24,-20.53 -33.75,-20.53 -15.37,0 -26.52,6.75 -33.56,20.29 -7.03,13.49 -10.52,35.18 -10.52,65.01z"/>
  <path class="fil3" d="M800.88 9255.25l-134.85 0 0 -20.06 54.05 -54.28c16.42,-16.66 27.28,-28.53 32.55,-35.66 5.22,-7.08 9.15,-14.02 11.77,-20.73 2.58,-6.75 3.93,-13.97 3.93,-21.78 0,-10.91 -3.35,-19.58 -9.95,-25.99 -6.66,-6.41 -15.9,-9.62 -27.67,-9.62 -8.52,0 -16.57,1.38 -24.18,4.21 -7.65,2.77 -16.13,7.9 -25.46,15.27l-12.34 -15.85c18.86,-15.65 39.44,-23.46 61.7,-23.46 19.29,0 34.37,4.94 45.33,14.8 10.96,9.86 16.42,23.12 16.42,39.77 0,12.98 -3.63,25.85 -10.96,38.59 -7.28,12.68 -20.91,28.77 -40.97,48.2l-44.9 43.94 0 1.1 105.55 0 0 21.54zm36.67 -14.89c0,-6.22 1.43,-10.96 4.26,-14.17 2.87,-3.21 6.94,-4.83 12.3,-4.83 5.4,0 9.62,1.63 12.68,4.83 3.01,3.21 4.55,7.95 4.55,14.17 0,6.09 -1.54,10.77 -4.6,14.02 -3.1,3.26 -7.32,4.88 -12.63,4.88 -4.79,0 -8.71,-1.49 -11.88,-4.41 -3.11,-2.92 -4.69,-7.75 -4.69,-14.5zm205.13 -87.89c0,35.48 -5.61,61.95 -16.76,79.42 -11.19,17.46 -28.29,26.23 -51.26,26.23 -22.11,0 -38.88,-8.95 -50.41,-26.86 -11.49,-17.9 -17.24,-44.18 -17.24,-78.79 0,-35.71 5.56,-62.18 16.71,-79.51 11.1,-17.28 28.1,-25.94 50.94,-25.94 22.26,0 39.15,9.05 50.69,27.09 11.53,18.05 17.33,44.19 17.33,78.36zm-112.11 -0.04c0,29.82 3.49,51.55 10.52,65.19 7.04,13.6 18.2,20.39 33.56,20.39 15.51,0 26.76,-6.9 33.75,-20.68 6.94,-13.84 10.43,-35.43 10.43,-64.91 0,-29.44 -3.49,-51.04 -10.43,-64.78 -6.99,-13.69 -18.24,-20.53 -33.75,-20.53 -15.37,0 -26.52,6.75 -33.56,20.29 -7.03,13.49 -10.52,35.18 -10.52,65.01zm276.35 0.04c0,35.48 -5.61,61.95 -16.76,79.42 -11.19,17.46 -28.29,26.23 -51.26,26.23 -22.11,0 -38.88,-8.95 -50.41,-26.86 -11.49,-17.9 -17.24,-44.18 -17.24,-78.79 0,-35.71 5.56,-62.18 16.71,-79.51 11.1,-17.28 28.1,-25.94 50.94,-25.94 22.26,0 39.15,9.05 50.69,27.09 11.53,18.05 17.33,44.19 17.33,78.36zm-112.11 -0.04c0,29.82 3.49,51.55 10.52,65.19 7.04,13.6 18.2,20.39 33.56,20.39 15.51,0 26.76,-6.9 33.75,-20.68 6.94,-13.84 10.43,-35.43 10.43,-64.91 0,-29.44 -3.49,-51.04 -10.43,-64.78 -6.99,-13.69 -18.24,-20.53 -33.75,-20.53 -15.37,0 -26.52,6.75 -33.56,20.29 -7.03,13.49 -10.52,35.18 -10.52,65.01z"/>
  <path class="fil3" d="M810.56 8075.12l-30.45 0 0 47.1 -22.31 0 0 -47.1 -99.75 0 0 -20.34 97.36 -138.77 24.7 0 0 137.86 30.45 0 0 21.26zm-52.76 -21.26l0 -68.17c0,-13.35 0.48,-28.49 1.39,-45.29l-1.11 0c-4.5,8.96 -8.71,16.43 -12.63,22.31l-64.15 91.15 76.49 0zm79.75 53.47c0,-6.22 1.43,-10.96 4.26,-14.17 2.87,-3.21 6.94,-4.83 12.3,-4.83 5.4,0 9.62,1.63 12.68,4.83 3.01,3.21 4.55,7.95 4.55,14.17 0,6.09 -1.54,10.77 -4.6,14.02 -3.1,3.26 -7.32,4.88 -12.63,4.88 -4.79,0 -8.71,-1.49 -11.88,-4.41 -3.11,-2.92 -4.69,-7.75 -4.69,-14.5zm205.13 -87.89c0,35.48 -5.61,61.95 -16.76,79.42 -11.19,17.46 -28.29,26.23 -51.26,26.23 -22.11,0 -38.88,-8.95 -50.41,-26.86 -11.49,-17.9 -17.24,-44.18 -17.24,-78.79 0,-35.71 5.56,-62.18 16.71,-79.51 11.1,-17.28 28.1,-25.94 50.94,-25.94 22.26,0 39.15,9.05 50.69,27.09 11.53,18.05 17.33,44.19 17.33,78.36zm-112.11 -0.04c0,29.82 3.49,51.55 10.52,65.19 7.04,13.6 18.2,20.39 33.56,20.39 15.51,0 26.76,-6.9 33.75,-20.68 6.94,-13.84 10.43,-35.43 10.43,-64.91 0,-29.44 -3.49,-51.04 -10.43,-64.78 -6.99,-13.69 -18.24,-20.53 -33.75,-20.53 -15.37,0 -26.52,6.75 -33.56,20.29 -7.03,13.49 -10.52,35.18 -10.52,65.01zm276.35 0.04c0,35.48 -5.61,61.95 -16.76,79.42 -11.19,17.46 -28.29,26.23 -51.26,26.23 -22.11,0 -38.88,-8.95 -50.41,-26.86 -11.49,-17.9 -17.24,-44.18 -17.24,-78.79 0,-35.71 5.56,-62.18 16.71,-79.51 11.1,-17.28 28.1,-25.94 50.94,-25.94 22.26,0 39.15,9.05 50.69,27.09 11.53,18.05 17.33,44.19 17.33,78.36zm-112.11 -0.04c0,29.82 3.49,51.55 10.52,65.19 7.04,13.6 18.2,20.39 33.56,20.39 15.51,0 26.76,-6.9 33.75,-20.68 6.94,-13.84 10.43,-35.43 10.43,-64.91 0,-29.44 -3.49,-51.04 -10.43,-64.78 -6.99,-13.69 -18.24,-20.53 -33.75,-20.53 -15.37,0 -26.52,6.75 -33.56,20.29 -7.03,13.49 -10.52,35.18 -10.52,65.01z"/>
  <path class="fil3" d="M668.42 6905.9c0,-40.3 7.86,-70.41 23.51,-90.37 15.65,-19.97 38.83,-29.97 69.51,-29.97 10.57,0 18.91,0.92 24.98,2.69l0 20.06c-7.23,-2.35 -15.46,-3.5 -24.7,-3.5 -21.97,0 -38.77,6.85 -50.36,20.54 -11.63,13.69 -18,35.18 -19.1,64.48l1.67 0c10.3,-16.09 26.57,-24.13 48.83,-24.13 18.43,0 32.93,5.56 43.56,16.71 10.63,11.15 15.95,26.23 15.95,45.33 0,21.35 -5.84,38.1 -17.47,50.32 -11.63,12.2 -27.39,18.33 -47.2,18.33 -21.25,0 -38.05,-7.99 -50.5,-23.94 -12.45,-15.94 -18.67,-38.1 -18.67,-66.54zm68.89 70.66c13.31,0 23.6,-4.16 30.93,-12.54 7.37,-8.39 11,-20.5 11,-36.29 0,-13.6 -3.4,-24.22 -10.24,-32.03 -6.8,-7.75 -17,-11.63 -30.59,-11.63 -8.38,0 -16.13,1.73 -23.12,5.17 -7.03,3.5 -12.64,8.23 -16.8,14.32 -4.11,6.13 -6.22,12.4 -6.22,18.95 0,9.68 1.86,18.62 5.6,26.96 3.73,8.32 9.05,14.93 15.94,19.81 6.9,4.83 14.7,7.28 23.51,7.28zm100.23 2.06c0,-6.22 1.43,-10.96 4.26,-14.17 2.87,-3.21 6.94,-4.83 12.3,-4.83 5.4,0 9.62,1.63 12.68,4.83 3.01,3.21 4.55,7.95 4.55,14.17 0,6.09 -1.54,10.77 -4.6,14.02 -3.1,3.26 -7.32,4.88 -12.63,4.88 -4.79,0 -8.71,-1.49 -11.88,-4.41 -3.11,-2.92 -4.69,-7.75 -4.69,-14.5zm205.13 -87.89c0,35.48 -5.61,61.95 -16.76,79.42 -11.19,17.46 -28.29,26.23 -51.26,26.23 -22.11,0 -38.88,-8.95 -50.41,-26.86 -11.49,-17.9 -17.24,-44.18 -17.24,-78.79 0,-35.71 5.56,-62.18 16.71,-79.51 11.1,-17.28 28.1,-25.94 50.94,-25.94 22.26,0 39.15,9.05 50.69,27.09 11.53,18.05 17.33,44.19 17.33,78.36zm-112.11 -0.04c0,29.82 3.49,51.55 10.52,65.19 7.04,13.6 18.2,20.39 33.56,20.39 15.51,0 26.76,-6.9 33.75,-20.68 6.94,-13.84 10.43,-35.43 10.43,-64.91 0,-29.44 -3.49,-51.04 -10.43,-64.78 -6.99,-13.69 -18.24,-20.53 -33.75,-20.53 -15.37,0 -26.52,6.75 -33.56,20.29 -7.03,13.49 -10.52,35.18 -10.52,65.01zm276.35 0.04c0,35.48 -5.61,61.95 -16.76,79.42 -11.19,17.46 -28.29,26.23 -51.26,26.23 -22.11,0 -38.88,-8.95 -50.41,-26.86 -11.49,-17.9 -17.24,-44.18 -17.24,-78.79 0,-35.71 5.56,-62.18 16.71,-79.51 11.1,-17.28 28.1,-25.94 50.94,-25.94 22.26,0 39.15,9.05 50.69,27.09 11.53,18.05 17.33,44.19 17.33,78.36zm-112.11 -0.04c0,29.82 3.49,51.55 10.52,65.19 7.04,13.6 18.2,20.39 33.56,20.39 15.51,0 26.76,-6.9 33.75,-20.68 6.94,-13.84 10.43,-35.43 10.43,-64.91 0,-29.44 -3.49,-51.04 -10.43,-64.78 -6.99,-13.69 -18.24,-20.53 -33.75,-20.53 -15.37,0 -26.52,6.75 -33.56,20.29 -7.03,13.49 -10.52,35.18 -10.52,65.01z"/>
  <path class="fil3" d="M733.96 5652.53c18.66,0 33.5,4.36 44.46,13.03 10.92,8.71 16.43,20.72 16.43,36.05 0,10.1 -3.17,19.29 -9.43,27.62 -6.27,8.32 -16.27,15.89 -30.01,22.74 16.66,7.95 28.49,16.27 35.52,25.04 6.99,8.76 10.48,18.86 10.48,30.35 0,17.03 -5.93,30.62 -17.81,40.77 -11.87,10.16 -28.14,15.22 -48.82,15.22 -21.88,0 -38.73,-4.78 -50.51,-14.36 -11.77,-9.62 -17.66,-23.21 -17.66,-40.77 0,-23.51 14.31,-41.8 42.94,-54.86 -12.92,-7.32 -22.17,-15.17 -27.81,-23.64 -5.6,-8.43 -8.38,-17.91 -8.38,-28.39 0,-14.84 5.45,-26.7 16.47,-35.52 10.96,-8.85 25.71,-13.26 44.14,-13.26zm-44.38 156.2c0,11.25 3.93,19.96 11.73,26.23 7.8,6.27 18.77,9.43 32.88,9.43 13.98,0 24.8,-3.26 32.6,-9.82 7.75,-6.55 11.63,-15.55 11.63,-26.94 0,-9.1 -3.63,-17.18 -10.96,-24.22 -7.28,-7.08 -20.01,-13.93 -38.15,-20.58 -13.92,5.97 -24.03,12.59 -30.3,19.87 -6.27,7.27 -9.43,15.94 -9.43,26.03zm44.09 -137.24c-11.72,0 -20.86,2.82 -27.52,8.43 -6.66,5.6 -9.96,13.07 -9.96,22.4 0,8.62 2.78,15.99 8.28,22.17 5.51,6.18 15.7,12.34 30.59,18.52 13.4,-5.6 22.84,-11.63 28.43,-18.09 5.55,-6.46 8.32,-13.97 8.32,-22.59 0,-9.43 -3.4,-16.94 -10.15,-22.5 -6.8,-5.55 -16.13,-8.32 -28.01,-8.32zm103.88 174.09c0,-6.22 1.43,-10.96 4.26,-14.17 2.87,-3.21 6.94,-4.83 12.3,-4.83 5.4,0 9.62,1.63 12.68,4.83 3.01,3.21 4.55,7.95 4.55,14.17 0,6.09 -1.54,10.77 -4.6,14.02 -3.1,3.26 -7.32,4.88 -12.63,4.88 -4.79,0 -8.71,-1.49 -11.88,-4.41 -3.11,-2.92 -4.69,-7.75 -4.69,-14.5zm205.13 -87.88c0,35.48 -5.61,61.94 -16.76,79.41 -11.19,17.46 -28.29,26.23 -51.26,26.23 -22.11,0 -38.88,-8.95 -50.41,-26.86 -11.49,-17.9 -17.24,-44.17 -17.24,-78.78 0,-35.71 5.56,-62.18 16.71,-79.51 11.1,-17.28 28.1,-25.94 50.94,-25.94 22.26,0 39.15,9.05 50.69,27.09 11.53,18.05 17.33,44.19 17.33,78.36zm-112.11 -0.04c0,29.82 3.49,51.55 10.52,65.18 7.04,13.6 18.2,20.39 33.56,20.39 15.51,0 26.76,-6.9 33.75,-20.68 6.94,-13.83 10.43,-35.42 10.43,-64.9 0,-29.44 -3.49,-51.04 -10.43,-64.78 -6.99,-13.69 -18.24,-20.53 -33.75,-20.53 -15.37,0 -26.52,6.75 -33.56,20.29 -7.03,13.49 -10.52,35.18 -10.52,65.01zm276.35 0.04c0,35.48 -5.61,61.94 -16.76,79.41 -11.19,17.46 -28.29,26.23 -51.26,26.23 -22.11,0 -38.88,-8.95 -50.41,-26.86 -11.49,-17.9 -17.24,-44.17 -17.24,-78.78 0,-35.71 5.56,-62.18 16.71,-79.51 11.1,-17.28 28.1,-25.94 50.94,-25.94 22.26,0 39.15,9.05 50.69,27.09 11.53,18.05 17.33,44.19 17.33,78.36zm-112.11 -0.04c0,29.82 3.49,51.55 10.52,65.18 7.04,13.6 18.2,20.39 33.56,20.39 15.51,0 26.76,-6.9 33.75,-20.68 6.94,-13.83 10.43,-35.42 10.43,-64.9 0,-29.44 -3.49,-51.04 -10.43,-64.78 -6.99,-13.69 -18.24,-20.53 -33.75,-20.53 -15.37,0 -26.52,6.75 -33.56,20.29 -7.03,13.49 -10.52,35.18 -10.52,65.01z"/>
  <path class="fil3" d="M588.59 4731.75l-22.68 0 0 -146.14c0,-12.16 0.38,-23.65 1.1,-34.47 -1.96,1.96 -4.16,4.02 -6.6,6.18 -2.39,2.16 -13.55,11.25 -33.37,27.38l-12.34 -16.03 54.28 -41.99 19.62 0 0 205.08zm213.93 -102.78c0,35.48 -5.61,61.95 -16.76,79.42 -11.19,17.46 -28.29,26.23 -51.26,26.23 -22.11,0 -38.88,-8.95 -50.41,-26.86 -11.49,-17.9 -17.24,-44.18 -17.24,-78.79 0,-35.71 5.56,-62.18 16.71,-79.51 11.1,-17.28 28.1,-25.94 50.94,-25.94 22.26,0 39.15,9.05 50.69,27.09 11.53,18.05 17.33,44.19 17.33,78.36zm-112.11 -0.04c0,29.82 3.49,51.55 10.52,65.19 7.04,13.6 18.2,20.39 33.56,20.39 15.51,0 26.76,-6.9 33.75,-20.68 6.94,-13.84 10.43,-35.43 10.43,-64.91 0,-29.44 -3.49,-51.04 -10.43,-64.78 -6.99,-13.69 -18.24,-20.53 -33.75,-20.53 -15.37,0 -26.52,6.75 -33.56,20.29 -7.03,13.49 -10.52,35.18 -10.52,65.01zm147.67 87.93c0,-6.22 1.43,-10.96 4.26,-14.17 2.87,-3.21 6.94,-4.83 12.3,-4.83 5.4,0 9.62,1.63 12.68,4.83 3.01,3.21 4.55,7.95 4.55,14.17 0,6.09 -1.54,10.77 -4.6,14.02 -3.1,3.26 -7.32,4.88 -12.63,4.88 -4.79,0 -8.71,-1.49 -11.88,-4.41 -3.11,-2.92 -4.69,-7.75 -4.69,-14.5zm205.13 -87.89c0,35.48 -5.61,61.95 -16.76,79.42 -11.19,17.46 -28.29,26.23 -51.26,26.23 -22.11,0 -38.88,-8.95 -50.41,-26.86 -11.49,-17.9 -17.24,-44.18 -17.24,-78.79 0,-35.71 5.56,-62.18 16.71,-79.51 11.1,-17.28 28.1,-25.94 50.94,-25.94 22.26,0 39.15,9.05 50.69,27.09 11.53,18.05 17.33,44.19 17.33,78.36zm-112.11 -0.04c0,29.82 3.49,51.55 10.52,65.19 7.04,13.6 18.2,20.39 33.56,20.39 15.51,0 26.76,-6.9 33.75,-20.68 6.94,-13.84 10.43,-35.43 10.43,-64.91 0,-29.44 -3.49,-51.04 -10.43,-64.78 -6.99,-13.69 -18.24,-20.53 -33.75,-20.53 -15.37,0 -26.52,6.75 -33.56,20.29 -7.03,13.49 -10.52,35.18 -10.52,65.01zm276.35 0.04c0,35.48 -5.61,61.95 -16.76,79.42 -11.19,17.46 -28.29,26.23 -51.26,26.23 -22.11,0 -38.88,-8.95 -50.41,-26.86 -11.49,-17.9 -17.24,-44.18 -17.24,-78.79 0,-35.71 5.56,-62.18 16.71,-79.51 11.1,-17.28 28.1,-25.94 50.94,-25.94 22.26,0 39.15,9.05 50.69,27.09 11.53,18.05 17.33,44.19 17.33,78.36zm-112.11 -0.04c0,29.82 3.49,51.55 10.52,65.19 7.04,13.6 18.2,20.39 33.56,20.39 15.51,0 26.76,-6.9 33.75,-20.68 6.94,-13.84 10.43,-35.43 10.43,-64.91 0,-29.44 -3.49,-51.04 -10.43,-64.78 -6.99,-13.69 -18.24,-20.53 -33.75,-20.53 -15.37,0 -26.52,6.75 -33.56,20.29 -7.03,13.49 -10.52,35.18 -10.52,65.01z"/>
  <path class="fil3" d="M588.59 3598.71l-22.68 0 0 -146.14c0,-12.16 0.38,-23.65 1.1,-34.47 -1.96,1.96 -4.16,4.02 -6.6,6.18 -2.39,2.16 -13.55,11.25 -33.37,27.38l-12.34 -16.03 54.28 -41.99 19.62 0 0 205.08zm212.82 0l-134.85 0 0 -20.06 54.05 -54.28c16.42,-16.66 27.28,-28.53 32.55,-35.66 5.22,-7.08 9.15,-14.02 11.77,-20.73 2.58,-6.75 3.93,-13.97 3.93,-21.78 0,-10.91 -3.35,-19.58 -9.95,-25.99 -6.66,-6.41 -15.9,-9.62 -27.67,-9.62 -8.52,0 -16.57,1.38 -24.18,4.21 -7.65,2.77 -16.13,7.9 -25.46,15.27l-12.34 -15.85c18.86,-15.65 39.44,-23.46 61.7,-23.46 19.29,0 34.37,4.94 45.33,14.8 10.96,9.86 16.42,23.12 16.42,39.77 0,12.98 -3.63,25.85 -10.96,38.59 -7.28,12.68 -20.91,28.77 -40.97,48.2l-44.9 43.94 0 1.1 105.55 0 0 21.54zm36.67 -14.89c0,-6.22 1.43,-10.96 4.26,-14.17 2.87,-3.21 6.94,-4.83 12.3,-4.83 5.4,0 9.62,1.63 12.68,4.83 3.01,3.21 4.55,7.95 4.55,14.17 0,6.09 -1.54,10.77 -4.6,14.02 -3.1,3.26 -7.32,4.88 -12.63,4.88 -4.79,0 -8.71,-1.49 -11.88,-4.41 -3.11,-2.92 -4.69,-7.75 -4.69,-14.5zm205.13 -87.89c0,35.48 -5.61,61.95 -16.76,79.42 -11.19,17.46 -28.29,26.23 -51.26,26.23 -22.11,0 -38.88,-8.95 -50.41,-26.86 -11.49,-17.9 -17.24,-44.18 -17.24,-78.79 0,-35.71 5.56,-62.18 16.71,-79.51 11.1,-17.28 28.1,-25.94 50.94,-25.94 22.26,0 39.15,9.05 50.69,27.09 11.53,18.05 17.33,44.19 17.33,78.36zm-112.11 -0.04c0,29.82 3.49,51.55 10.52,65.19 7.04,13.6 18.2,20.39 33.56,20.39 15.51,0 26.76,-6.9 33.75,-20.68 6.94,-13.84 10.43,-35.43 10.43,-64.91 0,-29.44 -3.49,-51.04 -10.43,-64.78 -6.99,-13.69 -18.24,-20.53 -33.75,-20.53 -15.37,0 -26.52,6.75 -33.56,20.29 -7.03,13.49 -10.52,35.18 -10.52,65.01zm276.35 0.04c0,35.48 -5.61,61.95 -16.76,79.42 -11.19,17.46 -28.29,26.23 -51.26,26.23 -22.11,0 -38.88,-8.95 -50.41,-26.86 -11.49,-17.9 -17.24,-44.18 -17.24,-78.79 0,-35.71 5.56,-62.18 16.71,-79.51 11.1,-17.28 28.1,-25.94 50.94,-25.94 22.26,0 39.15,9.05 50.69,27.09 11.53,18.05 17.33,44.19 17.33,78.36zm-112.11 -0.04c0,29.82 3.49,51.55 10.52,65.19 7.04,13.6 18.2,20.39 33.56,20.39 15.51,0 26.76,-6.9 33.75,-20.68 6.94,-13.84 10.43,-35.43 10.43,-64.91 0,-29.44 -3.49,-51.04 -10.43,-64.78 -6.99,-13.69 -18.24,-20.53 -33.75,-20.53 -15.37,0 -26.52,6.75 -33.56,20.29 -7.03,13.49 -10.52,35.18 -10.52,65.01z"/>
  <path class="fil3" d="M588.59 2469.99l-22.68 0 0 -146.14c0,-12.16 0.38,-23.65 1.1,-34.47 -1.96,1.96 -4.16,4.02 -6.6,6.18 -2.39,2.16 -13.55,11.25 -33.37,27.38l-12.34 -16.03 54.28 -41.99 19.62 0 0 205.08zm222.5 -47.1l-30.45 0 0 47.1 -22.31 0 0 -47.1 -99.75 0 0 -20.34 97.36 -138.77 24.7 0 0 137.86 30.45 0 0 21.26zm-52.76 -21.26l0 -68.17c0,-13.35 0.48,-28.49 1.39,-45.29l-1.11 0c-4.5,8.96 -8.71,16.43 -12.63,22.31l-64.15 91.15 76.49 0zm79.75 53.47c0,-6.22 1.43,-10.96 4.26,-14.17 2.87,-3.21 6.94,-4.83 12.3,-4.83 5.4,0 9.62,1.63 12.68,4.83 3.01,3.21 4.55,7.95 4.55,14.17 0,6.09 -1.54,10.77 -4.6,14.02 -3.1,3.26 -7.32,4.88 -12.63,4.88 -4.79,0 -8.71,-1.49 -11.88,-4.41 -3.11,-2.92 -4.69,-7.75 -4.69,-14.5zm205.13 -87.89c0,35.48 -5.61,61.95 -16.76,79.42 -11.19,17.46 -28.29,26.23 -51.26,26.23 -22.11,0 -38.88,-8.95 -50.41,-26.86 -11.49,-17.9 -17.24,-44.18 -17.24,-78.79 0,-35.71 5.56,-62.18 16.71,-79.51 11.1,-17.28 28.1,-25.94 50.94,-25.94 22.26,0 39.15,9.05 50.69,27.09 11.53,18.05 17.33,44.19 17.33,78.36zm-112.11 -0.04c0,29.82 3.49,51.55 10.52,65.19 7.04,13.6 18.2,20.39 33.56,20.39 15.51,0 26.76,-6.9 33.75,-20.68 6.94,-13.84 10.43,-35.43 10.43,-64.91 0,-29.44 -3.49,-51.04 -10.43,-64.78 -6.99,-13.69 -18.24,-20.53 -33.75,-20.53 -15.37,0 -26.52,6.75 -33.56,20.29 -7.03,13.49 -10.52,35.18 -10.52,65.01zm276.35 0.04c0,35.48 -5.61,61.95 -16.76,79.42 -11.19,17.46 -28.29,26.23 -51.26,26.23 -22.11,0 -38.88,-8.95 -50.41,-26.86 -11.49,-17.9 -17.24,-44.18 -17.24,-78.79 0,-35.71 5.56,-62.18 16.71,-79.51 11.1,-17.28 28.1,-25.94 50.94,-25.94 22.26,0 39.15,9.05 50.69,27.09 11.53,18.05 17.33,44.19 17.33,78.36zm-112.11 -0.04c0,29.82 3.49,51.55 10.52,65.19 7.04,13.6 18.2,20.39 33.56,20.39 15.51,0 26.76,-6.9 33.75,-20.68 6.94,-13.84 10.43,-35.43 10.43,-64.91 0,-29.44 -3.49,-51.04 -10.43,-64.78 -6.99,-13.69 -18.24,-20.53 -33.75,-20.53 -15.37,0 -26.52,6.75 -33.56,20.29 -7.03,13.49 -10.52,35.18 -10.52,65.01z"/>
  <path class="fil3" d="M588.59 1341.27l-22.68 0 0 -146.14c0,-12.16 0.38,-23.65 1.1,-34.47 -1.96,1.96 -4.16,4.02 -6.6,6.18 -2.39,2.16 -13.55,11.25 -33.37,27.38l-12.34 -16.03 54.28 -41.99 19.62 0 0 205.08zm80.37 -87.6c0,-40.3 7.86,-70.41 23.51,-90.37 15.65,-19.97 38.83,-29.97 69.51,-29.97 10.57,0 18.91,0.92 24.98,2.69l0 20.06c-7.23,-2.35 -15.46,-3.5 -24.7,-3.5 -21.97,0 -38.77,6.85 -50.36,20.54 -11.63,13.69 -18,35.18 -19.1,64.48l1.67 0c10.3,-16.09 26.57,-24.13 48.83,-24.13 18.43,0 32.93,5.56 43.56,16.71 10.63,11.15 15.95,26.23 15.95,45.33 0,21.35 -5.84,38.1 -17.47,50.32 -11.63,12.2 -27.39,18.33 -47.2,18.33 -21.25,0 -38.05,-7.99 -50.5,-23.94 -12.45,-15.94 -18.67,-38.1 -18.67,-66.54zm68.89 70.66c13.31,0 23.6,-4.16 30.93,-12.54 7.37,-8.39 11,-20.5 11,-36.29 0,-13.6 -3.4,-24.22 -10.24,-32.03 -6.8,-7.75 -17,-11.63 -30.59,-11.63 -8.38,0 -16.13,1.73 -23.12,5.17 -7.03,3.5 -12.64,8.23 -16.8,14.32 -4.11,6.13 -6.22,12.4 -6.22,18.95 0,9.68 1.86,18.62 5.6,26.96 3.73,8.32 9.05,14.93 15.94,19.81 6.9,4.83 14.7,7.28 23.51,7.28zm100.23 2.06c0,-6.22 1.43,-10.96 4.26,-14.17 2.87,-3.21 6.94,-4.83 12.3,-4.83 5.4,0 9.62,1.63 12.68,4.83 3.01,3.21 4.55,7.95 4.55,14.17 0,6.09 -1.54,10.77 -4.6,14.02 -3.1,3.26 -7.32,4.88 -12.63,4.88 -4.79,0 -8.71,-1.49 -11.88,-4.41 -3.11,-2.92 -4.69,-7.75 -4.69,-14.5zm205.13 -87.89c0,35.48 -5.61,61.95 -16.76,79.42 -11.19,17.46 -28.29,26.23 -51.26,26.23 -22.11,0 -38.88,-8.95 -50.41,-26.86 -11.49,-17.9 -17.24,-44.18 -17.24,-78.79 0,-35.71 5.56,-62.18 16.71,-79.51 11.1,-17.28 28.1,-25.94 50.94,-25.94 22.26,0 39.15,9.05 50.69,27.09 11.53,18.05 17.33,44.19 17.33,78.36zm-112.11 -0.04c0,29.82 3.49,51.55 10.52,65.19 7.04,13.6 18.2,20.39 33.56,20.39 15.51,0 26.76,-6.9 33.75,-20.68 6.94,-13.84 10.43,-35.43 10.43,-64.91 0,-29.44 -3.49,-51.04 -10.43,-64.78 -6.99,-13.69 -18.24,-20.53 -33.75,-20.53 -15.37,0 -26.52,6.75 -33.56,20.29 -7.03,13.49 -10.52,35.18 -10.52,65.01zm276.35 0.04c0,35.48 -5.61,61.95 -16.76,79.42 -11.19,17.46 -28.29,26.23 -51.26,26.23 -22.11,0 -38.88,-8.95 -50.41,-26.86 -11.49,-17.9 -17.24,-44.18 -17.24,-78.79 0,-35.71 5.56,-62.18 16.71,-79.51 11.1,-17.28 28.1,-25.94 50.94,-25.94 22.26,0 39.15,9.05 50.69,27.09 11.53,18.05 17.33,44.19 17.33,78.36zm-112.11 -0.04c0,29.82 3.49,51.55 10.52,65.19 7.04,13.6 18.2,20.39 33.56,20.39 15.51,0 26.76,-6.9 33.75,-20.68 6.94,-13.84 10.43,-35.43 10.43,-64.91 0,-29.44 -3.49,-51.04 -10.43,-64.78 -6.99,-13.69 -18.24,-20.53 -33.75,-20.53 -15.37,0 -26.52,6.75 -33.56,20.29 -7.03,13.49 -10.52,35.18 -10.52,65.01z"/>
  <path class="fil3" d="M588.59 208.23l-22.68 0 0 -146.14c0,-12.16 0.38,-23.65 1.1,-34.47 -1.96,1.96 -4.16,4.02 -6.6,6.18 -2.39,2.16 -13.55,11.25 -33.37,27.38l-12.34 -16.03 54.28 -41.99 19.62 0 0 205.08zm145.91 -207.95c18.66,0 33.5,4.36 44.46,13.03 10.92,8.71 16.43,20.72 16.43,36.05 0,10.1 -3.17,19.29 -9.43,27.62 -6.27,8.32 -16.27,15.89 -30.01,22.74 16.66,7.95 28.49,16.27 35.52,25.04 6.99,8.76 10.48,18.86 10.48,30.35 0,17.04 -5.93,30.63 -17.81,40.78 -11.87,10.16 -28.14,15.22 -48.82,15.22 -21.88,0 -38.73,-4.78 -50.51,-14.36 -11.77,-9.62 -17.66,-23.21 -17.66,-40.78 0,-23.51 14.31,-41.8 42.94,-54.86 -12.92,-7.32 -22.17,-15.17 -27.81,-23.64 -5.6,-8.43 -8.38,-17.91 -8.38,-28.39 0,-14.84 5.45,-26.7 16.47,-35.52 10.96,-8.85 25.71,-13.26 44.14,-13.26zm-44.38 156.2c0,11.26 3.93,19.97 11.73,26.24 7.8,6.27 18.77,9.43 32.88,9.43 13.98,0 24.8,-3.26 32.6,-9.82 7.75,-6.55 11.63,-15.55 11.63,-26.95 0,-9.1 -3.63,-17.18 -10.96,-24.22 -7.28,-7.08 -20.01,-13.93 -38.15,-20.58 -13.92,5.97 -24.03,12.59 -30.3,19.87 -6.27,7.27 -9.43,15.94 -9.43,26.03zm44.09 -137.24c-11.72,0 -20.86,2.82 -27.52,8.43 -6.66,5.6 -9.96,13.07 -9.96,22.4 0,8.62 2.78,15.99 8.28,22.17 5.51,6.18 15.7,12.34 30.59,18.52 13.4,-5.6 22.84,-11.63 28.43,-18.09 5.55,-6.46 8.32,-13.97 8.32,-22.59 0,-9.43 -3.4,-16.94 -10.15,-22.5 -6.8,-5.55 -16.13,-8.32 -28.01,-8.32zm103.88 174.1c0,-6.22 1.43,-10.96 4.26,-14.17 2.87,-3.21 6.94,-4.83 12.3,-4.83 5.4,0 9.62,1.63 12.68,4.83 3.01,3.21 4.55,7.95 4.55,14.17 0,6.09 -1.54,10.77 -4.6,14.02 -3.1,3.26 -7.32,4.88 -12.63,4.88 -4.79,0 -8.71,-1.49 -11.88,-4.41 -3.11,-2.92 -4.69,-7.75 -4.69,-14.5zm205.13 -87.89c0,35.48 -5.61,61.95 -16.76,79.42 -11.19,17.46 -28.29,26.23 -51.26,26.23 -22.11,0 -38.88,-8.95 -50.41,-26.86 -11.49,-17.9 -17.24,-44.18 -17.24,-78.79 0,-35.71 5.56,-62.18 16.71,-79.51 11.1,-17.28 28.1,-25.94 50.94,-25.94 22.26,0 39.15,9.05 50.69,27.09 11.53,18.05 17.33,44.19 17.33,78.36zm-112.11 -0.04c0,29.82 3.49,51.55 10.52,65.19 7.04,13.6 18.2,20.39 33.56,20.39 15.51,0 26.76,-6.9 33.75,-20.68 6.94,-13.84 10.43,-35.43 10.43,-64.91 0,-29.44 -3.49,-51.04 -10.43,-64.78 -6.99,-13.69 -18.24,-20.53 -33.75,-20.53 -15.37,0 -26.52,6.75 -33.56,20.29 -7.03,13.49 -10.52,35.18 -10.52,65.01zm276.35 0.04c0,35.48 -5.61,61.95 -16.76,79.42 -11.19,17.46 -28.29,26.23 -51.26,26.23 -22.11,0 -38.88,-8.95 -50.41,-26.86 -11.49,-17.9 -17.24,-44.18 -17.24,-78.79 0,-35.71 5.56,-62.18 16.71,-79.51 11.1,-17.28 28.1,-25.94 50.94,-25.94 22.26,0 39.15,9.05 50.69,27.09 11.53,18.05 17.33,44.19 17.33,78.36zm-112.11 -0.04c0,29.82 3.49,51.55 10.52,65.19 7.04,13.6 18.2,20.39 33.56,20.39 15.51,0 26.76,-6.9 33.75,-20.68 6.94,-13.84 10.43,-35.43 10.43,-64.91 0,-29.44 -3.49,-51.04 -10.43,-64.78 -6.99,-13.69 -18.24,-20.53 -33.75,-20.53 -15.37,0 -26.52,6.75 -33.56,20.29 -7.03,13.49 -10.52,35.18 -10.52,65.01z"/>
  <path class="fil4" d="M8186.55 11829.32l-142.25 0 0 -255.3 142.25 0 0 26.46 -112.58 0 0 82.24 105.78 0 0 26.1 -105.78 0 0 94.04 112.58 0 0 26.46zm200.71 -67.82c0,22.47 -8.16,39.99 -24.42,52.56 -16.33,12.57 -38.44,18.83 -66.39,18.83 -30.28,0 -53.57,-3.93 -69.84,-11.73l0 -28.67c10.49,4.41 21.87,7.93 34.2,10.49 12.34,2.56 24.56,3.81 36.72,3.81 19.78,0 34.68,-3.75 44.69,-11.26 10.01,-7.45 15.02,-17.88 15.02,-31.29 0,-8.81 -1.79,-16.09 -5.3,-21.69 -3.57,-5.66 -9.54,-10.85 -17.82,-15.67 -8.35,-4.77 -21.04,-10.2 -38.02,-16.21 -23.72,-8.52 -40.7,-18.59 -50.9,-30.22 -10.19,-11.62 -15.32,-26.82 -15.32,-45.59 0,-19.66 7.39,-35.33 22.18,-46.96 14.84,-11.62 34.38,-17.46 58.7,-17.46 25.38,0 48.75,4.65 70.02,13.95l-9.23 25.8c-21.1,-8.87 -41.6,-13.29 -61.51,-13.29 -15.67,0 -28.01,3.4 -36.83,10.14 -8.87,6.79 -13.28,16.15 -13.28,28.19 0,8.87 1.67,16.09 4.88,21.75 3.28,5.66 8.76,10.85 16.51,15.55 7.74,4.71 19.6,9.89 35.58,15.62 26.76,9.53 45.17,19.78 55.24,30.74 10.08,10.91 15.13,25.15 15.13,42.61zm130.69 67.82l-29.68 0 0 -228.84 -80.82 0 0 -26.46 191.25 0 0 26.46 -80.75 0 0 228.84zm254.77 0l-31.76 -81.17 -102.39 0 -31.41 81.17 -30.03 0 100.96 -256.38 24.96 0 100.42 256.38 -30.74 0zm-41 -107.99l-29.74 -79.08c-3.82,-10.01 -7.81,-22.3 -11.86,-36.83 -2.56,11.14 -6.2,23.42 -11.03,36.83l-30.03 79.08 82.66 0zm310.55 -22.1c0,42.13 -11.44,74.37 -34.33,96.66 -22.88,22.29 -55.78,33.43 -98.75,33.43l-70.68 0 0 -255.3 78.19 0c39.69,0 70.56,11.02 92.55,33.01 21.99,21.99 33.01,52.74 33.01,92.19zm-31.47 1.07c0,-33.31 -8.35,-58.34 -25.03,-75.21 -16.69,-16.86 -41.54,-25.33 -74.43,-25.33l-43.15 0 0 203.81 36.12 0c35.4,0 61.98,-8.7 79.8,-26.1 17.82,-17.39 26.69,-43.14 26.69,-77.17zm310.01 1.08c0,40.88 -10.37,73 -30.99,96.42 -20.68,23.43 -49.41,35.1 -86.23,35.1 -37.61,0 -66.63,-11.5 -87.01,-34.5 -20.45,-23.01 -30.69,-55.42 -30.69,-97.32 0,-41.59 10.25,-73.77 30.75,-96.66 20.5,-22.89 49.58,-34.33 87.31,-34.33 36.71,0 65.32,11.62 85.93,34.93 20.62,23.3 30.93,55.42 30.93,96.37zm-203.46 -0.06c0,34.56 7.33,60.79 22.05,78.66 14.78,17.88 36.17,26.82 64.19,26.82 28.3,0 49.69,-8.87 64.11,-26.69 14.42,-17.82 21.64,-44.1 21.64,-78.78 0,-34.33 -7.15,-60.37 -21.58,-78.13 -14.36,-17.76 -35.64,-26.64 -63.82,-26.64 -28.31,0 -49.77,8.94 -64.54,26.82 -14.73,17.88 -22.05,43.86 -22.05,77.96zm556.97 -2.09c0,42.13 -11.44,74.37 -34.33,96.66 -22.88,22.29 -55.78,33.43 -98.75,33.43l-70.68 0 0 -255.3 78.19 0c39.69,0 70.56,11.02 92.55,33.01 21.99,21.99 33.01,52.74 33.01,92.19zm-31.47 1.07c0,-33.31 -8.35,-58.34 -25.03,-75.21 -16.69,-16.86 -41.54,-25.33 -74.43,-25.33l-43.15 0 0 203.81 36.12 0c35.4,0 61.98,-8.7 79.8,-26.1 17.82,-17.39 26.69,-43.14 26.69,-77.17zm230.63 129.02l-142.25 0 0 -255.3 142.25 0 0 26.46 -112.58 0 0 82.24 105.78 0 0 26.1 -105.78 0 0 94.04 112.58 0 0 26.46zm179.2 -106.2l0 106.2 -29.68 0 0 -255.3 69.97 0c31.35,0 54.47,6.01 69.37,17.99 14.96,11.98 22.47,30.03 22.47,54.11 0,33.79 -17.11,56.61 -51.31,68.48l69.31 114.71 -35.1 0 -61.79 -106.2 -53.23 0zm0 -25.39l40.65 0c20.97,0 36.29,-4.17 46.07,-12.51 9.77,-8.28 14.65,-20.8 14.65,-37.43 0,-16.86 -4.95,-29.02 -14.9,-36.47 -9.95,-7.45 -25.92,-11.2 -47.91,-11.2l-38.56 0 0 97.62zm333.61 131.59l-142.25 0 0 -255.3 142.25 0 0 26.46 -112.58 0 0 82.24 105.78 0 0 26.1 -105.78 0 0 94.04 112.58 0 0 26.46zm200.71 -67.82c0,22.47 -8.16,39.99 -24.42,52.56 -16.33,12.57 -38.44,18.83 -66.39,18.83 -30.28,0 -53.57,-3.93 -69.84,-11.73l0 -28.67c10.49,4.41 21.87,7.93 34.2,10.49 12.34,2.56 24.56,3.81 36.72,3.81 19.78,0 34.68,-3.75 44.69,-11.26 10.01,-7.45 15.02,-17.88 15.02,-31.29 0,-8.81 -1.79,-16.09 -5.3,-21.69 -3.57,-5.66 -9.54,-10.85 -17.82,-15.67 -8.35,-4.77 -21.04,-10.2 -38.02,-16.21 -23.72,-8.52 -40.7,-18.59 -50.9,-30.22 -10.19,-11.62 -15.32,-26.82 -15.32,-45.59 0,-19.66 7.39,-35.33 22.18,-46.96 14.84,-11.62 34.38,-17.46 58.7,-17.46 25.38,0 48.75,4.65 70.02,13.95l-9.23 25.8c-21.1,-8.87 -41.6,-13.29 -61.51,-13.29 -15.67,0 -28.01,3.4 -36.83,10.14 -8.87,6.79 -13.28,16.15 -13.28,28.19 0,8.87 1.67,16.09 4.88,21.75 3.28,5.66 8.76,10.85 16.51,15.55 7.74,4.71 19.6,9.89 35.58,15.62 26.76,9.53 45.17,19.78 55.24,30.74 10.08,10.91 15.13,25.15 15.13,42.61zm52.15 67.82l0 -255.3 29.68 0 0 255.3 -29.68 0zm303.46 -130.09c0,42.13 -11.44,74.37 -34.33,96.66 -22.88,22.29 -55.78,33.43 -98.75,33.43l-70.68 0 0 -255.3 78.19 0c39.69,0 70.56,11.02 92.55,33.01 21.99,21.99 33.01,52.74 33.01,92.19zm-31.47 1.07c0,-33.31 -8.35,-58.34 -25.03,-75.21 -16.69,-16.86 -41.54,-25.33 -74.43,-25.33l-43.15 0 0 203.81 36.12 0c35.4,0 61.98,-8.7 79.8,-26.1 17.82,-17.39 26.69,-43.14 26.69,-77.17zm230.63 129.02l-142.25 0 0 -255.3 142.25 0 0 26.46 -112.58 0 0 82.24 105.78 0 0 26.1 -105.78 0 0 94.04 112.58 0 0 26.46zm256.02 0l-33.85 0 -139.52 -214.25 -1.42 0c1.84,25.15 2.8,48.16 2.8,69.13l0 145.11 -27.42 0 0 -255.3 33.49 0 139.21 213.4 1.37 0c-0.23,-3.15 -0.71,-13.23 -1.55,-30.33 -0.83,-17.05 -1.14,-29.21 -0.9,-36.6l0 -146.48 27.77 0 0 255.3zm179.44 -232.42c-28.02,0 -50.18,9.36 -66.46,28.01 -16.2,18.72 -24.31,44.28 -24.31,76.76 0,33.43 7.81,59.24 23.48,77.42 15.62,18.23 37.97,27.35 66.98,27.35 17.76,0 38.08,-3.22 60.91,-9.59l0 26.04c-17.7,6.67 -39.51,10 -65.49,10 -37.61,0 -66.63,-11.38 -87.01,-34.2 -20.45,-22.83 -30.69,-55.24 -30.69,-97.26 0,-26.34 4.95,-49.4 14.78,-69.18 9.84,-19.78 24.02,-35.04 42.61,-45.72 18.54,-10.73 40.41,-16.09 65.56,-16.09 26.82,0 50.17,4.88 70.2,14.6l-12.58 25.5c-19.31,-9.12 -38.61,-13.65 -57.98,-13.65zm116.26 232.42l0 -255.3 29.68 0 0 255.3 -29.68 0zm260.19 0l-31.76 -81.17 -102.39 0 -31.41 81.17 -30.03 0 100.96 -256.38 24.96 0 100.42 256.38 -30.74 0zm-41 -107.99l-29.74 -79.08c-3.82,-10.01 -7.81,-22.3 -11.86,-36.83 -2.56,11.14 -6.2,23.42 -11.03,36.83l-30.03 79.08 82.66 0z"/>
  <path class="fil3" d="M234.24 8487.58l0 128.54 -230.69 0 0 -128.54 23.91 0 0 101.72 74.31 0 0 -95.58 23.59 0 0 95.58 84.98 0 0 -101.72 23.91 0zm0 -153.26l-204.52 78.3 0 1.23c16.2,-1.46 35.49,-2.21 57.77,-2.21l146.74 0 0 24.77 -230.69 0 0 -40.38 190.31 -73.07 0 -1.24 -190.31 -73.72 0 -40.07 230.69 0 0 26.82 -148.62 0c-17.07,0 -35.6,-0.75 -55.58,-2.21l0 1.24 204.2 78.94 0 21.6zm-230.69 -189.61l0 -65.15c0,-30.59 4.58,-52.78 13.73,-66.39 9.16,-13.68 23.64,-20.52 43.4,-20.52 13.68,0 24.98,3.77 33.87,11.41 8.88,7.65 14.65,18.75 17.29,33.39l1.56 0c5.98,-35.06 24.39,-52.55 55.2,-52.55 20.62,0 36.73,7 48.3,20.89 11.58,13.94 17.34,33.44 17.34,58.48l0 80.45 -230.69 0zm98.87 -26.82l0 -44.16c0,-18.95 -2.96,-32.58 -8.95,-40.87 -5.92,-8.35 -15.94,-12.49 -30.04,-12.49 -12.92,0 -22.3,4.63 -28.01,13.89 -5.76,9.26 -8.61,23.97 -8.61,44.16l0 39.47 75.6 0zm22.61 0l86.27 0 0 -48.14c0,-18.58 -3.61,-32.64 -10.83,-42 -7.15,-9.42 -18.47,-14.17 -33.82,-14.17 -14.27,0 -24.82,4.84 -31.55,14.43 -6.74,9.64 -10.08,24.28 -10.08,43.94l0 45.93zm109.21 -321.1l-73.35 28.7 0 92.52 73.35 28.37 0 27.14 -231.66 -91.23 0 -22.56 231.66 -90.73 0 27.78zm-97.58 37.04l-71.45 26.88c-9.05,3.44 -20.14,7.05 -33.29,10.72 10.08,2.31 21.17,5.6 33.29,9.96l71.45 27.13 0 -74.69zm1.62 -123.31l95.96 0 0 26.82 -230.69 0 0 -63.22c0,-28.32 5.43,-49.22 16.26,-62.68 10.82,-13.52 27.14,-20.3 48.89,-20.3 30.54,0 51.16,15.46 61.88,46.37l103.66 -62.63 0 31.72 -95.96 55.84 0 48.09zm-22.94 0l0 -36.72c0,-18.96 -3.78,-32.8 -11.31,-41.63 -7.49,-8.82 -18.8,-13.24 -33.82,-13.24 -15.25,0 -26.23,4.47 -32.96,13.46 -6.73,8.99 -10.12,23.42 -10.12,43.29l0 34.84 88.2 0zm118.9 -317.93l-73.35 28.7 0 92.52 73.35 28.37 0 27.14 -231.66 -91.23 0 -22.56 231.66 -90.73 0 27.78zm-97.58 37.04l-71.45 26.88c-9.05,3.44 -20.14,7.05 -33.29,10.72 10.08,2.31 21.17,5.6 33.29,9.96l71.45 27.13 0 -74.69zm97.58 -236.34l0 158.64 -21.01 0 -185.46 -122.51 0 118.68 -24.23 0 0 -151.31 21.01 0 185.46 122.45 0 -125.95 24.23 0zm-115.61 -241.68c36.93,0 65.96,9.37 87.13,28 21.16,18.7 31.71,44.65 31.71,77.93 0,33.98 -10.39,60.21 -31.17,78.62 -20.79,18.47 -50.08,27.73 -87.94,27.73 -37.58,0 -66.67,-9.26 -87.34,-27.78 -20.68,-18.52 -31.02,-44.8 -31.02,-78.89 0,-33.17 10.5,-59.02 31.55,-77.65 21.06,-18.63 50.08,-27.95 87.08,-27.95zm-0.06 183.85c31.23,0 54.93,-6.63 71.09,-19.93 16.15,-13.35 24.23,-32.69 24.23,-58 0,-25.57 -8.03,-44.91 -24.13,-57.94 -16.1,-13.04 -39.84,-19.55 -71.19,-19.55 -31.02,0 -54.55,6.46 -70.6,19.49 -16.05,12.98 -24.07,32.2 -24.07,57.67 0,25.58 8.08,44.97 24.23,58.32 16.16,13.3 39.64,19.93 70.43,19.93zm54.39 -365.42c20.3,0 36.14,7.38 47.5,22.07 11.37,14.76 17.02,34.73 17.02,59.99 0,27.36 -3.55,48.41 -10.6,63.11l-25.9 0c3.99,-9.47 7.16,-19.76 9.47,-30.91 2.32,-11.14 3.45,-22.19 3.45,-33.17 0,-17.88 -3.39,-31.35 -10.18,-40.39 -6.74,-9.05 -16.16,-13.57 -28.27,-13.57 -7.97,0 -14.54,1.62 -19.6,4.79 -5.12,3.23 -9.8,8.61 -14.17,16.1 -4.3,7.54 -9.21,19.01 -14.64,34.36 -7.7,21.43 -16.8,36.78 -27.3,45.98 -10.5,9.21 -24.23,13.84 -41.2,13.84 -17.77,0 -31.93,-6.68 -42.43,-20.03 -10.5,-13.41 -15.78,-31.07 -15.78,-53.04 0,-22.94 4.2,-44.05 12.61,-63.27l23.32 8.35c-8.03,19.06 -12.01,37.58 -12.01,55.58 0,14.16 3.06,25.3 9.15,33.28 6.15,8.02 14.59,12.01 25.47,12.01 8.03,0 14.54,-1.52 19.65,-4.42 5.12,-2.96 9.8,-7.92 14.06,-14.92 4.25,-7 8.94,-17.72 14.11,-32.15 8.61,-24.18 17.88,-40.82 27.78,-49.92 9.85,-9.1 22.73,-13.68 38.5,-13.68zm-148.73 -229.83c0,25.31 8.46,45.34 25.31,60.04 16.9,14.64 40.01,21.97 69.36,21.97 30.21,0 53.53,-7.05 69.95,-21.22 16.49,-14.11 24.72,-34.31 24.72,-60.52 0,-16.05 -2.91,-34.42 -8.67,-55.04l23.54 0c6.02,15.99 9.04,35.7 9.04,59.18 0,33.98 -10.28,60.21 -30.91,78.62 -20.62,18.47 -49.92,27.73 -87.88,27.73 -23.8,0 -44.65,-4.47 -62.52,-13.35 -17.88,-8.88 -31.67,-21.7 -41.31,-38.5 -9.69,-16.75 -14.54,-36.52 -14.54,-59.24 0,-24.23 4.42,-45.34 13.2,-63.43l23.05 11.37c-8.24,17.44 -12.33,34.89 -12.33,52.39zm94.4 -298.87c36.93,0 65.96,9.37 87.13,28 21.16,18.7 31.71,44.65 31.71,77.93 0,33.98 -10.39,60.21 -31.17,78.62 -20.79,18.47 -50.08,27.73 -87.94,27.73 -37.58,0 -66.67,-9.26 -87.34,-27.78 -20.68,-18.52 -31.02,-44.8 -31.02,-78.89 0,-33.17 10.5,-59.02 31.55,-77.65 21.06,-18.63 50.08,-27.95 87.08,-27.95zm-0.06 183.85c31.23,0 54.93,-6.63 71.09,-19.93 16.15,-13.35 24.23,-32.69 24.23,-58 0,-25.57 -8.03,-44.91 -24.13,-57.94 -16.1,-13.04 -39.84,-19.55 -71.19,-19.55 -31.02,0 -54.55,6.46 -70.6,19.49 -16.05,12.98 -24.07,32.2 -24.07,57.67 0,25.58 8.08,44.97 24.23,58.32 16.16,13.3 39.64,19.93 70.43,19.93zm115.67 -415.39l0 30.58 -193.59 126.06 0 1.29c22.73,-1.67 43.51,-2.53 62.47,-2.53l131.12 0 0 24.77 -230.69 0 0 -30.26 192.83 -125.8 0 -1.24c-2.85,0.22 -11.95,0.65 -27.41,1.4 -15.4,0.75 -26.39,1.03 -33.07,0.8l-132.36 0 0 -25.09 230.69 0zm0 -249.44l-204.52 78.3 0 1.23c16.2,-1.46 35.49,-2.21 57.77,-2.21l146.74 0 0 24.77 -230.69 0 0 -40.38 190.31 -73.07 0 -1.24 -190.31 -73.72 0 -40.07 230.69 0 0 26.82 -148.62 0c-17.07,0 -35.6,-0.75 -55.58,-2.21l0 1.24 204.2 78.94 0 21.6zm-115.61 -389.87c36.93,0 65.96,9.37 87.13,28 21.16,18.7 31.71,44.65 31.71,77.93 0,33.98 -10.39,60.21 -31.17,78.62 -20.79,18.47 -50.08,27.73 -87.94,27.73 -37.58,0 -66.67,-9.26 -87.34,-27.78 -20.68,-18.52 -31.02,-44.8 -31.02,-78.89 0,-33.17 10.5,-59.02 31.55,-77.65 21.06,-18.63 50.08,-27.95 87.08,-27.95zm-0.06 183.85c31.23,0 54.93,-6.63 71.09,-19.93 16.15,-13.35 24.23,-32.69 24.23,-58 0,-25.57 -8.03,-44.91 -24.13,-57.94 -16.1,-13.04 -39.84,-19.55 -71.19,-19.55 -31.02,0 -54.55,6.46 -70.6,19.49 -16.05,12.98 -24.07,32.2 -24.07,57.67 0,25.58 8.08,44.97 24.23,58.32 16.16,13.3 39.64,19.93 70.43,19.93zm19.71 -262.04l95.96 0 0 26.82 -230.69 0 0 -63.22c0,-28.32 5.43,-49.22 16.26,-62.68 10.82,-13.52 27.14,-20.3 48.89,-20.3 30.54,0 51.16,15.46 61.88,46.37l103.66 -62.63 0 31.72 -95.96 55.84 0 48.09zm-22.94 0l0 -36.72c0,-18.96 -3.78,-32.8 -11.31,-41.63 -7.49,-8.82 -18.8,-13.24 -33.82,-13.24 -15.25,0 -26.23,4.47 -32.96,13.46 -6.73,8.99 -10.12,23.42 -10.12,43.29l0 34.84 88.2 0zm-111.79 -172.92l0 -65.15c0,-30.59 4.58,-52.78 13.73,-66.39 9.16,-13.68 23.64,-20.52 43.4,-20.52 13.68,0 24.98,3.77 33.87,11.41 8.88,7.65 14.65,18.75 17.29,33.39l1.56 0c5.98,-35.06 24.39,-52.55 55.2,-52.55 20.62,0 36.73,7 48.3,20.89 11.58,13.94 17.34,33.44 17.34,58.48l0 80.45 -230.69 0zm98.87 -26.82l0 -44.16c0,-18.95 -2.96,-32.58 -8.95,-40.87 -5.92,-8.35 -15.94,-12.49 -30.04,-12.49 -12.92,0 -22.3,4.63 -28.01,13.89 -5.76,9.26 -8.61,23.97 -8.61,44.16l0 39.47 75.6 0zm22.61 0l86.27 0 0 -48.14c0,-18.58 -3.61,-32.64 -10.83,-42 -7.15,-9.42 -18.47,-14.17 -33.82,-14.17 -14.27,0 -24.82,4.84 -31.55,14.43 -6.74,9.64 -10.08,24.28 -10.08,43.94l0 45.93zm109.21 -182.55l-230.69 0 0 -26.82 230.69 0 0 26.82zm0 -90.09l-230.69 0 0 -26.82 206.46 0 0 -101.72 24.23 0 0 128.54zm0 -167.69l-230.69 0 0 -26.82 230.69 0 0 26.82zm-117.55 -274.2c38.07,0 67.21,10.34 87.35,31.02 20.14,20.68 30.21,50.41 30.21,89.23l0 63.86 -230.69 0 0 -70.65c0,-35.86 9.96,-63.76 29.83,-83.62 19.88,-19.88 47.66,-29.84 83.31,-29.84zm0.97 28.43c-30.1,0 -52.72,7.54 -67.95,22.62 -15.25,15.07 -22.89,37.53 -22.89,67.25l0 38.99 184.16 0 0 -32.63c0,-31.99 -7.86,-56 -23.58,-72.1 -15.73,-16.1 -38.99,-24.13 -69.74,-24.13zm116.59 -218.41l-73.35 28.7 0 92.52 73.35 28.37 0 27.14 -231.66 -91.23 0 -22.56 231.66 -90.73 0 27.78zm-97.58 37.04l-71.45 26.88c-9.05,3.44 -20.14,7.05 -33.29,10.72 10.08,2.31 21.17,5.6 33.29,9.96l71.45 27.13 0 -74.69zm-19.98 -280.61c38.07,0 67.21,10.34 87.35,31.02 20.14,20.68 30.21,50.41 30.21,89.23l0 63.86 -230.69 0 0 -70.65c0,-35.86 9.96,-63.76 29.83,-83.62 19.88,-19.88 47.66,-29.84 83.31,-29.84zm0.97 28.43c-30.1,0 -52.72,7.54 -67.95,22.62 -15.25,15.07 -22.89,37.53 -22.89,67.25l0 38.99 184.16 0 0 -32.63c0,-31.99 -7.86,-56 -23.58,-72.1 -15.73,-16.1 -38.99,-24.13 -69.74,-24.13zm116.59 -265.9l-204.52 78.3 0 1.23c16.2,-1.46 35.49,-2.21 57.77,-2.21l146.74 0 0 24.77 -230.69 0 0 -40.38 190.31 -73.07 0 -1.24 -190.31 -73.72 0 -40.07 230.69 0 0 26.82 -148.62 0c-17.07,0 -35.6,-0.75 -55.58,-2.21l0 1.24 204.2 78.94 0 21.6zm0 -334.61l-73.35 28.7 0 92.52 73.35 28.37 0 27.13 -231.66 -91.22 0 -22.56 231.66 -90.73 0 27.78zm-97.58 37.04l-71.45 26.88c-9.05,3.44 -20.14,7.05 -33.29,10.72 10.08,2.31 21.17,5.6 33.29,9.96l71.45 27.13 0 -74.69zm97.58 -144.91l0 26.83 -206.79 0 0 73.02 -23.91 0 0 -172.81 23.91 0 0 72.96 206.79 0zm0 -236.29l0 128.54 -230.69 0 0 -128.54 23.91 0 0 101.72 74.31 0 0 -95.58 23.59 0 0 95.58 84.98 0 0 -101.72 23.91 0zm-95.96 -77.98l95.96 0 0 26.82 -230.69 0 0 -63.22c0,-28.32 5.43,-49.22 16.26,-62.68 10.82,-13.52 27.14,-20.3 48.89,-20.3 30.54,0 51.16,15.46 61.88,46.37l103.66 -62.63 0 31.72 -95.96 55.84 0 48.09zm-22.94 0l0 -36.72c0,-18.96 -3.78,-32.8 -11.31,-41.63 -7.49,-8.82 -18.8,-13.24 -33.82,-13.24 -15.25,0 -26.23,4.47 -32.96,13.46 -6.73,8.99 -10.12,23.42 -10.12,43.29l0 34.84 88.2 0zm118.9 -353.09l0 30.58 -193.59 126.06 0 1.29c22.73,-1.67 43.51,-2.53 62.47,-2.53l131.12 0 0 24.77 -230.69 0 0 -30.26 192.83 -125.8 0 -1.24c-2.85,0.22 -11.95,0.65 -27.41,1.4 -15.4,0.75 -26.39,1.03 -33.07,0.8l-132.36 0 0 -25.09 230.69 0zm0 -208.4l-73.35 28.7 0 92.52 73.35 28.37 0 27.14 -231.66 -91.23 0 -22.56 231.66 -90.73 0 27.78zm-97.58 37.04l-71.45 26.88c-9.05,3.44 -20.14,7.05 -33.29,10.72 10.08,2.31 21.17,5.6 33.29,9.96l71.45 27.13 0 -74.69zm36.29 -310.65c20.3,0 36.14,7.38 47.5,22.07 11.37,14.76 17.02,34.73 17.02,59.99 0,27.36 -3.55,48.41 -10.6,63.11l-25.9 0c3.99,-9.47 7.16,-19.76 9.47,-30.91 2.32,-11.14 3.45,-22.19 3.45,-33.17 0,-17.88 -3.39,-31.35 -10.18,-40.39 -6.74,-9.05 -16.16,-13.57 -28.27,-13.57 -7.97,0 -14.54,1.62 -19.6,4.79 -5.12,3.23 -9.8,8.61 -14.17,16.1 -4.3,7.54 -9.21,19.01 -14.64,34.36 -7.7,21.43 -16.8,36.78 -27.3,45.98 -10.5,9.21 -24.23,13.84 -41.2,13.84 -17.77,0 -31.93,-6.68 -42.43,-20.03 -10.5,-13.41 -15.78,-31.07 -15.78,-53.04 0,-22.94 4.2,-44.05 12.61,-63.27l23.32 8.35c-8.03,19.06 -12.01,37.58 -12.01,55.58 0,14.16 3.06,25.3 9.15,33.28 6.15,8.02 14.59,12.01 25.47,12.01 8.03,0 14.54,-1.52 19.65,-4.42 5.12,-2.96 9.8,-7.92 14.06,-14.92 4.25,-7 8.94,-17.72 14.11,-32.15 8.61,-24.18 17.88,-40.82 27.78,-49.92 9.85,-9.1 22.73,-13.68 38.5,-13.68zm61.29 -175.65l0 128.54 -230.69 0 0 -128.54 23.91 0 0 101.72 74.31 0 0 -95.58 23.59 0 0 95.58 84.98 0 0 -101.72 23.91 0zm-230.69 -182.82l0 -28.86 230.69 83.08 0 26.5 -230.69 82.66 0 -28.38 149.28 -52.98c17.12,-6.09 33.81,-10.93 50.02,-14.54 -17.07,-3.77 -34.03,-8.72 -51,-14.81l-148.3 -52.67zm230.69 -189.17l0 128.54 -230.69 0 0 -128.54 23.91 0 0 101.72 74.31 0 0 -95.58 23.59 0 0 95.58 84.98 0 0 -101.72 23.91 0zm-95.96 -77.98l95.96 0 0 26.82 -230.69 0 0 -63.22c0,-28.32 5.43,-49.22 16.26,-62.68 10.82,-13.52 27.14,-20.3 48.89,-20.3 30.54,0 51.16,15.46 61.88,46.37l103.66 -62.63 0 31.72 -95.96 55.84 0 48.09zm-22.94 0l0 -36.72c0,-18.96 -3.78,-32.8 -11.31,-41.63 -7.49,-8.82 -18.8,-13.24 -33.82,-13.24 -15.25,0 -26.23,4.47 -32.96,13.46 -6.73,8.99 -10.12,23.42 -10.12,43.29l0 34.84 88.2 0zm118.9 -317.93l-73.35 28.7 0 92.52 73.35 28.37 0 27.14 -231.66 -91.23 0 -22.56 231.66 -90.73 0 27.78zm-97.58 37.04l-71.45 26.88c-9.05,3.44 -20.14,7.05 -33.29,10.72 10.08,2.31 21.17,5.6 33.29,9.96l71.45 27.13 0 -74.69z"/>
  <path class="fil4" d="M1508.4 10959l0 -25.66 205.08 73.86 0 23.55 -205.08 73.48 0 -25.23 132.7 -47.1c15.22,-5.41 30.06,-9.72 44.47,-12.92 -15.17,-3.35 -30.26,-7.75 -45.34,-13.17l-131.83 -46.81zm205.08 -168.16l0 114.27 -205.08 0 0 -114.27 21.26 0 0 90.42 66.06 0 0 -84.97 20.96 0 0 84.97 75.54 0 0 -90.42 21.25 0zm-85.3 -69.32l85.3 0 0 23.84 -205.08 0 0 -56.21c0,-25.18 4.84,-43.75 14.46,-55.72 9.62,-12.01 24.13,-18.04 43.47,-18.04 27.14,0 45.47,13.74 55,41.22l92.15 -55.67 0 28.19 -85.3 49.64 0 42.74zm-20.39 0l0 -32.65c0,-16.84 -3.35,-29.15 -10.04,-37 -6.66,-7.85 -16.71,-11.77 -30.06,-11.77 -13.56,0 -23.32,3.98 -29.3,11.97 -5.98,8 -9,20.82 -9,38.49l0 30.97 78.4 0z"/>
  <path class="fil4" d="M2240.53 10961.07l0 141.02 -18.66 0 -164.87 -108.9 0 105.5 -21.54 0 0 -134.51 18.67 0 164.86 108.85 0 -111.97 21.54 0zm0 -168.54l-65.19 25.51 0 82.24 65.19 25.22 0 24.13 -205.93 -81.09 0 -20.06 205.93 -80.66 0 24.71zm-86.74 32.93l-63.52 23.89c-8.04,3.06 -17.9,6.27 -29.58,9.53 8.96,2.06 18.82,4.98 29.58,8.85l63.52 24.13 0 -66.39zm-99.95 -167.84c0,22.5 7.51,40.31 22.49,53.38 15.03,13.02 35.57,19.53 61.66,19.53 26.86,0 47.58,-6.27 62.18,-18.87 14.64,-12.54 21.97,-30.49 21.97,-53.8 0,-14.27 -2.58,-30.59 -7.7,-48.93l20.91 0c5.36,14.22 8.04,31.74 8.04,52.62 0,30.21 -9.14,53.51 -27.48,69.89 -18.33,16.42 -44.37,24.65 -78.12,24.65 -21.16,0 -39.68,-3.97 -55.58,-11.87 -15.9,-7.9 -28.15,-19.3 -36.72,-34.23 -8.61,-14.89 -12.92,-32.45 -12.92,-52.66 0,-21.54 3.93,-40.31 11.73,-56.39l20.49 10.1c-7.33,15.51 -10.96,31.02 -10.96,46.58z"/>
  <path class="fil4" d="M2665.06 11063.17l-102.54 -54.67 0 -25.8 125.56 68.4 79.51 0 0 24.13 -78.41 0 -126.66 68.31 0 -26.08 102.54 -54.28zm-102.54 -263.47l132.75 0c23.36,0 41.74,7.03 55.14,21.16 13.36,14.12 20.06,33.5 20.06,58.21 0,24.7 -6.75,43.79 -20.2,57.3 -13.49,13.49 -31.98,20.25 -55.58,20.25l-132.17 0 0 -23.84 133.8 0c17.14,0 30.26,-4.69 39.45,-14.02 9.14,-9.33 13.74,-23.07 13.74,-41.22 0,-17.33 -4.6,-30.63 -13.83,-39.98 -9.19,-9.33 -22.41,-14.02 -39.59,-14.02l-133.56 0 0 -23.83zm18.39 -142.08c0,22.5 7.51,40.31 22.49,53.38 15.03,13.02 35.57,19.53 61.66,19.53 26.86,0 47.58,-6.27 62.18,-18.87 14.64,-12.54 21.97,-30.49 21.97,-53.8 0,-14.27 -2.58,-30.59 -7.7,-48.93l20.91 0c5.36,14.22 8.04,31.74 8.04,52.62 0,30.21 -9.14,53.51 -27.48,69.89 -18.33,16.42 -44.37,24.65 -78.12,24.65 -21.16,0 -39.68,-3.97 -55.58,-11.87 -15.9,-7.9 -28.15,-19.3 -36.72,-34.23 -8.61,-14.89 -12.92,-32.45 -12.92,-52.66 0,-21.54 3.93,-40.31 11.73,-56.39l20.49 10.1c-7.33,15.51 -10.96,31.02 -10.96,46.58z"/>
  <path class="fil4" d="M3295.07 11247.7l0 23.84 -183.82 0 0 64.91 -21.26 0 0 -153.61 21.26 0 0 64.86 183.82 0zm0 -204.63l-65.19 25.51 0 82.24 65.19 25.22 0 24.13 -205.93 -81.09 0 -20.06 205.93 -80.66 0 24.71zm-86.74 32.93l-63.52 23.89c-8.04,3.06 -17.9,6.27 -29.58,9.53 8.96,2.06 18.82,4.98 29.58,8.85l63.52 24.13 0 -66.39zm86.74 -176.55l-181.81 69.61 0 1.1c14.41,-1.29 31.55,-1.96 51.37,-1.96l130.44 0 0 22.02 -205.08 0 0 -35.9 169.17 -64.96 0 -1.1 -169.17 -65.54 0 -35.61 205.08 0 0 23.83 -132.12 0c-15.17,0 -31.64,-0.67 -49.4,-1.96l0 1.11 181.52 70.17 0 19.19zm-145.33 -298.51c20.72,0 36.71,7.08 47.86,21.21 11.15,14.17 16.76,34.42 16.76,60.79l0 24.13 80.7 0 0 23.84 -205.08 0 0 -53.14c0,-51.21 19.92,-76.83 59.75,-76.83zm44.23 106.13l0 -21.44c0,-21.11 -3.4,-36.43 -10.25,-45.86 -6.8,-9.43 -17.76,-14.18 -32.79,-14.18 -13.55,0 -23.64,4.46 -30.3,13.31 -6.66,8.9 -9.96,22.74 -9.96,41.55l0 26.61 83.3 0z"/>
  <path class="fil4" d="M3822.14 10954.46l0 27.19 -172.09 112.06 0 1.15c20.2,-1.49 38.68,-2.25 55.54,-2.25l116.56 0 0 22.02 -205.08 0 0 -26.91 171.42 -111.82 0 -1.1c-2.53,0.19 -10.62,0.58 -24.36,1.24 -13.69,0.67 -23.46,0.92 -29.39,0.72l-117.67 0 0 -22.31 205.08 0zm0 -185.25l-65.19 25.51 0 82.24 65.19 25.22 0 24.13 -205.93 -81.09 0 -20.06 205.93 -80.66 0 24.71zm-86.74 32.93l-63.52 23.89c-8.04,3.06 -17.9,6.27 -29.58,9.53 8.96,2.06 18.82,4.98 29.58,8.85l63.52 24.13 0 -66.39zm-15.79 -120.73l-102.54 -54.67 0 -25.8 125.56 68.4 79.51 0 0 24.13 -78.41 0 -126.66 68.31 0 -26.08 102.54 -54.28z"/>
  <path class="fil4" d="M4246.13 10959.06c32.84,0 58.64,8.32 77.46,24.89 18.81,16.61 28.19,39.68 28.19,69.26 0,30.21 -9.24,53.51 -27.71,69.89 -18.48,16.42 -44.52,24.65 -78.17,24.65 -33.41,0 -59.26,-8.23 -77.65,-24.7 -18.38,-16.47 -27.57,-39.82 -27.57,-70.13 0,-29.48 9.33,-52.46 28.05,-69.02 18.73,-16.57 44.52,-24.84 77.41,-24.84zm-0.04 163.42c27.76,0 48.82,-5.89 63.18,-17.71 14.36,-11.88 21.54,-29.07 21.54,-51.56 0,-22.75 -7.13,-39.92 -21.44,-51.51 -14.32,-11.59 -35.43,-17.38 -63.28,-17.38 -27.58,0 -48.49,5.75 -62.76,17.33 -14.27,11.53 -21.4,28.63 -21.4,51.26 0,22.75 7.18,39.98 21.54,51.85 14.36,11.82 35.23,17.71 62.62,17.71zm102.82 -332.26l-65.19 25.51 0 82.24 65.19 25.22 0 24.13 -205.93 -81.09 0 -20.06 205.93 -80.66 0 24.71zm-86.74 32.93l-63.52 23.89c-8.04,3.06 -17.9,6.27 -29.58,9.53 8.96,2.06 18.82,4.98 29.58,8.85l63.52 24.13 0 -66.39zm86.74 -222.21l0 27.09 -90.19 55.1 90.19 56.05 0 25.28 -107.18 -68.17 -97.89 63.52 0 -26.38 81.24 -50.88 -81.24 -51.31 0 -25.37 97.09 63.51 107.99 -68.45z"/>
  <path class="fil4" d="M4875.97 11044.27l0 23.83 -96.51 0 0 108.04 96.51 0 0 23.84 -205.08 0 0 -23.84 87.32 0 0 -108.04 -87.32 0 0 -23.83 205.08 0zm-107.42 -146.39l0 -69.7 99.75 0c3.45,10.87 6.09,21.88 7.86,33.13 1.77,11.2 2.68,24.22 2.68,38.97 0,31.07 -9.24,55.24 -27.71,72.52 -18.48,17.28 -44.33,25.94 -77.65,25.94 -21.3,0 -39.97,-4.3 -56,-12.82 -16.04,-8.57 -28.29,-20.87 -36.76,-36.95 -8.48,-16.09 -12.69,-34.95 -12.69,-56.53 0,-21.88 4.02,-42.28 12.02,-61.13l21.02 9.24c-7.86,18.52 -11.77,36.33 -11.77,53.42 0,24.98 7.42,44.47 22.31,58.5 14.84,14.02 35.47,21.02 61.85,21.02 27.66,0 48.68,-6.75 63,-20.25 14.31,-13.49 21.44,-33.36 21.44,-59.55 0,-14.17 -1.63,-28.05 -4.93,-41.64l-63.15 0 0 45.86 -21.25 0zm4.64 -296.93c32.84,0 58.64,8.32 77.46,24.89 18.81,16.61 28.19,39.68 28.19,69.26 0,30.21 -9.24,53.51 -27.71,69.89 -18.48,16.42 -44.52,24.65 -78.17,24.65 -33.41,0 -59.26,-8.23 -77.65,-24.7 -18.38,-16.47 -27.57,-39.82 -27.57,-70.13 0,-29.48 9.33,-52.46 28.05,-69.02 18.73,-16.57 44.52,-24.84 77.41,-24.84zm-0.04 163.42c27.76,0 48.82,-5.89 63.18,-17.71 14.36,-11.88 21.54,-29.07 21.54,-51.56 0,-22.75 -7.13,-39.92 -21.44,-51.51 -14.32,-11.59 -35.43,-17.38 -63.28,-17.38 -27.58,0 -48.49,5.75 -62.76,17.33 -14.27,11.53 -21.4,28.63 -21.4,51.26 0,22.75 7.18,39.98 21.54,51.85 14.36,11.82 35.23,17.71 62.62,17.71z"/>
  <path class="fil4" d="M5295.6 11075.43l0 -69.7 99.75 0c3.45,10.87 6.09,21.88 7.86,33.13 1.77,11.2 2.68,24.22 2.68,38.97 0,31.07 -9.24,55.24 -27.71,72.52 -18.48,17.28 -44.33,25.94 -77.65,25.94 -21.3,0 -39.97,-4.3 -56,-12.82 -16.04,-8.57 -28.29,-20.87 -36.76,-36.95 -8.48,-16.09 -12.69,-34.95 -12.69,-56.53 0,-21.88 4.02,-42.28 12.02,-61.13l21.02 9.24c-7.86,18.52 -11.77,36.33 -11.77,53.42 0,24.98 7.42,44.47 22.31,58.5 14.84,14.02 35.47,21.02 61.85,21.02 27.66,0 48.68,-6.75 63,-20.25 14.31,-13.49 21.44,-33.36 21.44,-59.55 0,-14.17 -1.63,-28.05 -4.93,-41.64l-63.15 0 0 45.86 -21.25 0zm22.11 -142.75l85.3 0 0 23.84 -205.08 0 0 -56.21c0,-25.18 4.84,-43.75 14.46,-55.72 9.62,-12.01 24.13,-18.04 43.47,-18.04 27.14,0 45.47,13.74 55,41.22l92.15 -55.67 0 28.19 -85.3 49.64 0 42.74zm-20.39 0l0 -32.65c0,-16.84 -3.35,-29.15 -10.04,-37 -6.66,-7.85 -16.71,-11.77 -30.06,-11.77 -13.56,0 -23.32,3.98 -29.3,11.97 -5.98,8 -9,20.82 -9,38.49l0 30.97 78.4 0zm2.92 -331.73c32.84,0 58.64,8.32 77.46,24.89 18.81,16.61 28.19,39.68 28.19,69.26 0,30.21 -9.24,53.51 -27.71,69.89 -18.48,16.42 -44.52,24.65 -78.17,24.65 -33.41,0 -59.26,-8.23 -77.65,-24.7 -18.38,-16.47 -27.57,-39.82 -27.57,-70.13 0,-29.48 9.33,-52.46 28.05,-69.02 18.73,-16.57 44.52,-24.84 77.41,-24.84zm-0.04 163.42c27.76,0 48.82,-5.89 63.18,-17.71 14.36,-11.88 21.54,-29.07 21.54,-51.56 0,-22.75 -7.13,-39.92 -21.44,-51.51 -14.32,-11.59 -35.43,-17.38 -63.28,-17.38 -27.58,0 -48.49,5.75 -62.76,17.33 -14.27,11.53 -21.4,28.63 -21.4,51.26 0,22.75 7.18,39.98 21.54,51.85 14.36,11.82 35.23,17.71 62.62,17.71z"/>
  <path class="fil4" d="M5930.36 11000.5l0 23.84 -183.82 0 0 64.91 -21.26 0 0 -153.61 21.26 0 0 64.86 183.82 0zm0 -204.63l-65.19 25.51 0 82.24 65.19 25.22 0 24.13 -205.93 -81.09 0 -20.06 205.93 -80.66 0 24.71zm-86.74 32.93l-63.52 23.89c-8.04,3.06 -17.9,6.27 -29.58,9.53 8.96,2.06 18.82,4.98 29.58,8.85l63.52 24.13 0 -66.39zm-118.34 -85.78l0 -57.93c0,-27.19 4.07,-46.91 12.21,-59.03 8.14,-12.15 21.02,-18.24 38.58,-18.24 12.16,0 22.22,3.36 30.11,10.16 7.9,6.79 13.02,16.65 15.37,29.68l1.38 0c5.31,-31.16 21.69,-46.72 49.06,-46.72 18.34,0 32.65,6.23 42.94,18.57 10.3,12.4 15.42,29.73 15.42,51.98l0 71.52 -205.08 0zm87.89 -23.84l0 -39.25c0,-16.85 -2.63,-28.96 -7.94,-36.33 -5.27,-7.42 -14.18,-11.1 -26.71,-11.1 -11.49,0 -19.81,4.11 -24.89,12.34 -5.12,8.23 -7.66,21.3 -7.66,39.25l0 35.09 67.21 0zm20.11 0l76.68 0 0 -42.79c0,-16.52 -3.21,-29 -9.62,-37.34 -6.37,-8.38 -16.43,-12.59 -30.06,-12.59 -12.69,0 -22.06,4.3 -28.05,12.83 -5.98,8.57 -8.96,21.59 -8.96,39.06l0 40.83z"/>
  <path class="fil4" d="M6310.23 10958.43c20.72,0 36.71,7.08 47.86,21.21 11.15,14.17 16.76,34.42 16.76,60.79l0 24.13 80.7 0 0 23.84 -205.08 0 0 -53.14c0,-51.21 19.92,-76.83 59.75,-76.83zm44.23 106.13l0 -21.44c0,-21.11 -3.4,-36.43 -10.25,-45.86 -6.8,-9.43 -17.76,-14.18 -32.79,-14.18 -13.55,0 -23.64,4.46 -30.3,13.31 -6.66,8.9 -9.96,22.74 -9.96,41.55l0 26.61 83.3 0zm101.1 -263.33l0 114.27 -205.08 0 0 -114.27 21.26 0 0 90.42 66.06 0 0 -84.97 20.96 0 0 84.97 75.54 0 0 -90.42 21.25 0zm-205.08 -200.28l132.75 0c23.36,0 41.74,7.03 55.14,21.16 13.36,14.12 20.06,33.5 20.06,58.21 0,24.7 -6.75,43.79 -20.2,57.3 -13.49,13.49 -31.98,20.25 -55.58,20.25l-132.17 0 0 -23.84 133.8 0c17.14,0 30.26,-4.69 39.45,-14.02 9.14,-9.33 13.74,-23.07 13.74,-41.22 0,-17.33 -4.6,-30.63 -13.83,-39.98 -9.19,-9.33 -22.41,-14.02 -39.59,-14.02l-133.56 0 0 -23.83z"/>
  <path class="fil4" d="M6858.43 11159.87c26.29,0 48.16,5.31 65.54,15.85 17.37,10.57 29.15,25.51 35.32,44.75l50.74 -48.82 0 34.65 -46.24 39.98 0.28 7.75c0,30.21 -9.24,53.51 -27.71,69.89 -18.48,16.42 -44.52,24.65 -78.17,24.65 -33.41,0 -59.26,-8.23 -77.65,-24.7 -18.38,-16.47 -27.57,-39.82 -27.57,-70.13 0,-29.48 9.33,-52.46 28.05,-69.02 18.73,-16.57 44.52,-24.84 77.41,-24.84zm-0.04 163.42c27.76,0 48.82,-5.89 63.18,-17.71 14.36,-11.88 21.54,-29.07 21.54,-51.56 0,-22.75 -7.13,-39.92 -21.44,-51.51 -14.32,-11.59 -35.43,-17.38 -63.28,-17.38 -27.58,0 -48.49,5.75 -62.76,17.33 -14.27,11.53 -21.4,28.63 -21.4,51.26 0,22.75 7.18,39.98 21.54,51.85 14.36,11.82 35.23,17.71 62.62,17.71zm-102.26 -363.9l132.75 0c23.36,0 41.74,7.03 55.14,21.16 13.36,14.12 20.06,33.5 20.06,58.21 0,24.7 -6.75,43.79 -20.2,57.3 -13.49,13.49 -31.98,20.25 -55.58,20.25l-132.17 0 0 -23.84 133.8 0c17.14,0 30.26,-4.69 39.45,-14.02 9.14,-9.33 13.74,-23.07 13.74,-41.22 0,-17.33 -4.6,-30.63 -13.83,-39.98 -9.19,-9.33 -22.41,-14.02 -39.59,-14.02l-133.56 0 0 -23.83zm205.08 -168.55l0 114.27 -205.08 0 0 -114.27 21.26 0 0 90.42 66.06 0 0 -84.97 20.96 0 0 84.97 75.54 0 0 -90.42 21.25 0zm-85.3 -69.32l85.3 0 0 23.84 -205.08 0 0 -56.21c0,-25.18 4.84,-43.75 14.46,-55.72 9.62,-12.01 24.13,-18.04 43.47,-18.04 27.14,0 45.47,13.74 55,41.22l92.15 -55.67 0 28.19 -85.3 49.64 0 42.74zm-20.39 0l0 -32.65c0,-16.84 -3.35,-29.15 -10.04,-37 -6.66,-7.85 -16.71,-11.77 -30.06,-11.77 -13.56,0 -23.32,3.98 -29.3,11.97 -5.98,8 -9,20.82 -9,38.49l0 30.97 78.4 0z"/>
  <path class="fil4" d="M7456.62 10921.86c18.05,0 32.12,6.55 42.22,19.63 10.1,13.11 15.12,30.87 15.12,53.32 0,24.32 -3.15,43.04 -9.42,56.11l-23.03 0c3.54,-8.43 6.37,-17.57 8.43,-27.48 2.06,-9.9 3.06,-19.72 3.06,-29.48 0,-15.9 -3.01,-27.86 -9.05,-35.9 -5.98,-8.04 -14.36,-12.06 -25.13,-12.06 -7.09,0 -12.92,1.43 -17.43,4.25 -4.54,2.88 -8.71,7.66 -12.59,14.32 -3.83,6.7 -8.18,16.89 -13.02,30.54 -6.85,19.05 -14.94,32.69 -24.27,40.88 -9.33,8.18 -21.53,12.29 -36.62,12.29 -15.79,0 -28.38,-5.93 -37.73,-17.8 -9.33,-11.93 -14.02,-27.62 -14.02,-47.15 0,-20.39 3.73,-39.16 11.2,-56.25l20.73 7.42c-7.13,16.94 -10.68,33.41 -10.68,49.4 0,12.59 2.73,22.5 8.13,29.58 5.47,7.13 12.98,10.68 22.64,10.68 7.13,0 12.92,-1.34 17.47,-3.93 4.55,-2.64 8.71,-7.03 12.5,-13.26 3.78,-6.22 7.94,-15.74 12.54,-28.58 7.66,-21.49 15.9,-36.28 24.7,-44.37 8.76,-8.09 20.2,-12.16 34.23,-12.16zm54.48 -41.88l-205.08 0 0 -23.84 183.53 0 0 -90.42 21.54 0 0 114.27zm-145.33 -279.03c20.72,0 36.71,7.08 47.86,21.21 11.15,14.17 16.76,34.42 16.76,60.79l0 24.13 80.7 0 0 23.84 -205.08 0 0 -53.14c0,-51.21 19.92,-76.83 59.75,-76.83zm44.23 106.13l0 -21.44c0,-21.11 -3.4,-36.43 -10.25,-45.86 -6.8,-9.43 -17.76,-14.18 -32.79,-14.18 -13.55,0 -23.64,4.46 -30.3,13.31 -6.66,8.9 -9.96,22.74 -9.96,41.55l0 26.61 83.3 0z"/>
  <path class="fil4" d="M8065.6 11003.58c0,8.8 -1.25,15.69 -3.79,20.77l-20.29 0c1.86,-6.66 2.82,-13.55 2.82,-20.77 0,-9.24 -2.82,-16.28 -8.43,-21.12 -5.6,-4.78 -13.69,-7.23 -24.26,-7.23l-205.13 0 0 -23.83 203.11 0c17.76,0 31.55,4.5 41.31,13.49 9.77,8.96 14.65,21.88 14.65,38.68zm-54 -235.52l-65.19 25.51 0 82.24 65.19 25.22 0 24.13 -205.93 -81.09 0 -20.06 205.93 -80.66 0 24.71zm-86.74 32.93l-63.52 23.89c-8.04,3.06 -17.9,6.27 -29.58,9.53 8.96,2.06 18.82,4.98 29.58,8.85l63.52 24.13 0 -66.39zm86.74 -85.78l-205.08 0 0 -23.84 183.53 0 0 -90.42 21.54 0 0 114.27z"/>
  <path class="fil4" d="M8565.22 11065.66l-181.81 69.61 0 1.1c14.41,-1.29 31.55,-1.96 51.37,-1.96l130.44 0 0 22.02 -205.08 0 0 -35.9 169.17 -64.96 0 -1.1 -169.17 -65.54 0 -35.61 205.08 0 0 23.83 -132.12 0c-15.17,0 -31.64,-0.67 -49.4,-1.96l0 1.11 181.52 70.17 0 19.19zm0 -282.81l0 114.27 -205.08 0 0 -114.27 21.26 0 0 90.42 66.06 0 0 -84.97 20.96 0 0 84.97 75.54 0 0 -90.42 21.25 0zm0 -181.9l0 27.09 -90.19 55.1 90.19 56.05 0 25.28 -107.18 -68.17 -97.89 63.52 0 -26.38 81.24 -50.88 -81.24 -51.31 0 -25.37 97.09 63.51 107.99 -68.45z"/>
  <path class="fil4" d="M8905.74 11026.55c0,22.5 7.51,40.31 22.49,53.38 15.03,13.02 35.57,19.53 61.66,19.53 26.86,0 47.58,-6.27 62.18,-18.87 14.64,-12.54 21.97,-30.49 21.97,-53.8 0,-14.27 -2.58,-30.59 -7.7,-48.93l20.91 0c5.36,14.22 8.04,31.74 8.04,52.62 0,30.21 -9.14,53.51 -27.48,69.89 -18.33,16.42 -44.37,24.65 -78.12,24.65 -21.16,0 -39.68,-3.97 -55.58,-11.87 -15.9,-7.9 -28.15,-19.3 -36.72,-34.23 -8.61,-14.89 -12.92,-32.45 -12.92,-52.66 0,-21.54 3.93,-40.31 11.73,-56.39l20.49 10.1c-7.33,15.51 -10.96,31.02 -10.96,46.58zm83.91 -265.67c32.84,0 58.64,8.32 77.46,24.89 18.81,16.61 28.19,39.68 28.19,69.26 0,30.21 -9.24,53.51 -27.71,69.89 -18.48,16.42 -44.52,24.65 -78.17,24.65 -33.41,0 -59.26,-8.23 -77.65,-24.7 -18.38,-16.47 -27.57,-39.82 -27.57,-70.13 0,-29.48 9.33,-52.46 28.05,-69.02 18.73,-16.57 44.52,-24.84 77.41,-24.84zm-0.04 163.42c27.76,0 48.82,-5.89 63.18,-17.71 14.36,-11.88 21.54,-29.07 21.54,-51.56 0,-22.75 -7.13,-39.92 -21.44,-51.51 -14.32,-11.59 -35.43,-17.38 -63.28,-17.38 -27.58,0 -48.49,5.75 -62.76,17.33 -14.27,11.53 -21.4,28.63 -21.4,51.26 0,22.75 7.18,39.98 21.54,51.85 14.36,11.82 35.23,17.71 62.62,17.71zm102.82 -209.09l-205.08 0 0 -23.84 183.53 0 0 -90.42 21.54 0 0 114.27z"/>
  <path class="fil4" d="M9619.35 11186.47l-181.81 69.61 0 1.1c14.41,-1.29 31.55,-1.96 51.37,-1.96l130.44 0 0 22.02 -205.08 0 0 -35.9 169.17 -64.96 0 -1.1 -169.17 -65.54 0 -35.61 205.08 0 0 23.83 -132.12 0c-15.17,0 -31.64,-0.67 -49.4,-1.96l0 1.11 181.52 70.17 0 19.19zm0 -168.54l-205.08 0 0 -23.84 205.08 0 0 23.84zm-186.69 -167.88c0,22.5 7.51,40.31 22.49,53.38 15.03,13.02 35.57,19.53 61.66,19.53 26.86,0 47.58,-6.27 62.18,-18.87 14.64,-12.54 21.97,-30.49 21.97,-53.8 0,-14.27 -2.58,-30.59 -7.7,-48.93l20.91 0c5.36,14.22 8.04,31.74 8.04,52.62 0,30.21 -9.14,53.51 -27.48,69.89 -18.33,16.42 -44.37,24.65 -78.12,24.65 -21.16,0 -39.68,-3.97 -55.58,-11.87 -15.9,-7.9 -28.15,-19.3 -36.72,-34.23 -8.61,-14.89 -12.92,-32.45 -12.92,-52.66 0,-21.54 3.93,-40.31 11.73,-56.39l20.49 10.1c-7.33,15.51 -10.96,31.02 -10.96,46.58zm186.69 -249.1l0 23.83 -96.51 0 0 108.04 96.51 0 0 23.84 -205.08 0 0 -23.84 87.32 0 0 -108.04 -87.32 0 0 -23.83 205.08 0z"/>
  <path class="fil4" d="M9959.72 11102.08c0,22.5 7.51,40.31 22.49,53.38 15.03,13.02 35.57,19.53 61.66,19.53 26.86,0 47.58,-6.27 62.18,-18.87 14.64,-12.54 21.97,-30.49 21.97,-53.8 0,-14.27 -2.58,-30.59 -7.7,-48.93l20.91 0c5.36,14.22 8.04,31.74 8.04,52.62 0,30.21 -9.14,53.51 -27.48,69.89 -18.33,16.42 -44.37,24.65 -78.12,24.65 -21.16,0 -39.68,-3.97 -55.58,-11.87 -15.9,-7.9 -28.15,-19.3 -36.72,-34.23 -8.61,-14.89 -12.92,-32.45 -12.92,-52.66 0,-21.54 3.93,-40.31 11.73,-56.39l20.49 10.1c-7.33,15.51 -10.96,31.02 -10.96,46.58zm186.69 -249.1l0 23.83 -96.51 0 0 108.04 96.51 0 0 23.84 -205.08 0 0 -23.84 87.32 0 0 -108.04 -87.32 0 0 -23.83 205.08 0zm0 -56.2l-205.08 0 0 -23.84 205.08 0 0 23.84zm-54.48 -195.84c18.05,0 32.12,6.55 42.22,19.63 10.1,13.11 15.12,30.87 15.12,53.32 0,24.32 -3.15,43.04 -9.42,56.11l-23.03 0c3.54,-8.43 6.37,-17.57 8.43,-27.48 2.06,-9.9 3.06,-19.72 3.06,-29.48 0,-15.9 -3.01,-27.86 -9.05,-35.9 -5.98,-8.04 -14.36,-12.06 -25.13,-12.06 -7.09,0 -12.92,1.43 -17.43,4.25 -4.54,2.88 -8.71,7.66 -12.59,14.32 -3.83,6.7 -8.18,16.89 -13.02,30.54 -6.85,19.05 -14.94,32.69 -24.27,40.88 -9.33,8.18 -21.53,12.29 -36.62,12.29 -15.79,0 -28.38,-5.93 -37.73,-17.8 -9.33,-11.93 -14.02,-27.62 -14.02,-47.15 0,-20.39 3.73,-39.16 11.2,-56.25l20.73 7.42c-7.13,16.94 -10.68,33.41 -10.68,49.4 0,12.59 2.73,22.5 8.13,29.58 5.47,7.13 12.98,10.68 22.64,10.68 7.13,0 12.92,-1.34 17.47,-3.93 4.55,-2.64 8.71,-7.03 12.5,-13.26 3.78,-6.22 7.94,-15.74 12.54,-28.58 7.66,-21.49 15.9,-36.28 24.7,-44.37 8.76,-8.09 20.2,-12.16 34.23,-12.16z"/>
  <path class="fil4" d="M10619.12 11026.69c18.05,0 32.12,6.55 42.22,19.63 10.1,13.11 15.12,30.87 15.12,53.32 0,24.32 -3.15,43.04 -9.42,56.11l-23.03 0c3.54,-8.43 6.37,-17.57 8.43,-27.48 2.06,-9.9 3.06,-19.72 3.06,-29.48 0,-15.9 -3.01,-27.86 -9.05,-35.9 -5.98,-8.04 -14.36,-12.06 -25.13,-12.06 -7.09,0 -12.92,1.43 -17.43,4.25 -4.54,2.88 -8.71,7.66 -12.59,14.32 -3.83,6.7 -8.18,16.89 -13.02,30.54 -6.85,19.05 -14.94,32.69 -24.27,40.88 -9.33,8.18 -21.53,12.29 -36.62,12.29 -15.79,0 -28.38,-5.93 -37.73,-17.8 -9.33,-11.93 -14.02,-27.62 -14.02,-47.15 0,-20.39 3.73,-39.16 11.2,-56.25l20.73 7.42c-7.13,16.94 -10.68,33.41 -10.68,49.4 0,12.59 2.73,22.5 8.13,29.58 5.47,7.13 12.98,10.68 22.64,10.68 7.13,0 12.92,-1.34 17.47,-3.93 4.55,-2.64 8.71,-7.03 12.5,-13.26 3.78,-6.22 7.94,-15.74 12.54,-28.58 7.66,-21.49 15.9,-36.28 24.7,-44.37 8.76,-8.09 20.2,-12.16 34.23,-12.16zm-48.3 -219.9c32.84,0 58.64,8.32 77.46,24.89 18.81,16.61 28.19,39.68 28.19,69.26 0,30.21 -9.24,53.51 -27.71,69.89 -18.48,16.42 -44.52,24.65 -78.17,24.65 -33.41,0 -59.26,-8.23 -77.65,-24.7 -18.38,-16.47 -27.57,-39.82 -27.57,-70.13 0,-29.48 9.33,-52.46 28.05,-69.02 18.73,-16.57 44.52,-24.84 77.41,-24.84zm-0.04 163.42c27.76,0 48.82,-5.89 63.18,-17.71 14.36,-11.88 21.54,-29.07 21.54,-51.56 0,-22.75 -7.13,-39.92 -21.44,-51.51 -14.32,-11.59 -35.43,-17.38 -63.28,-17.38 -27.58,0 -48.49,5.75 -62.76,17.33 -14.27,11.53 -21.4,28.63 -21.4,51.26 0,22.75 7.18,39.98 21.54,51.85 14.36,11.82 35.23,17.71 62.62,17.71zm102.82 -369.26l0 27.19 -172.09 112.06 0 1.15c20.2,-1.49 38.68,-2.25 55.54,-2.25l116.56 0 0 22.02 -205.08 0 0 -26.91 171.42 -111.82 0 -1.1c-2.53,0.19 -10.62,0.58 -24.36,1.24 -13.69,0.67 -23.46,0.92 -29.39,0.72l-117.67 0 0 -22.31 205.08 0z"/>
  <path class="fil4" d="M11013.83 11142.05c0,22.5 7.51,40.31 22.49,53.38 15.03,13.02 35.57,19.53 61.66,19.53 26.86,0 47.58,-6.27 62.18,-18.87 14.64,-12.54 21.97,-30.49 21.97,-53.8 0,-14.27 -2.58,-30.59 -7.7,-48.93l20.91 0c5.36,14.22 8.04,31.74 8.04,52.62 0,30.21 -9.14,53.51 -27.48,69.89 -18.33,16.42 -44.37,24.65 -78.12,24.65 -21.16,0 -39.68,-3.97 -55.58,-11.87 -15.9,-7.9 -28.15,-19.3 -36.72,-34.23 -8.61,-14.89 -12.92,-32.45 -12.92,-52.66 0,-21.54 3.93,-40.31 11.73,-56.39l20.49 10.1c-7.33,15.51 -10.96,31.02 -10.96,46.58zm186.69 -249.1l0 23.83 -96.51 0 0 108.04 96.51 0 0 23.84 -205.08 0 0 -23.84 87.32 0 0 -108.04 -87.32 0 0 -23.83 205.08 0zm0 -56.2l-205.08 0 0 -23.84 205.08 0 0 23.84zm0 -235.8l0 23.83 -96.51 0 0 108.04 96.51 0 0 23.84 -205.08 0 0 -23.84 87.32 0 0 -108.04 -87.32 0 0 -23.83 205.08 0z"/>
  <path class="fil4" d="M11673.09 10883.08c18.05,0 32.12,6.55 42.22,19.63 10.1,13.11 15.12,30.87 15.12,53.32 0,24.32 -3.15,43.04 -9.42,56.11l-23.03 0c3.54,-8.43 6.37,-17.57 8.43,-27.48 2.06,-9.9 3.06,-19.72 3.06,-29.48 0,-15.9 -3.01,-27.86 -9.05,-35.9 -5.98,-8.04 -14.36,-12.06 -25.13,-12.06 -7.09,0 -12.92,1.43 -17.43,4.25 -4.54,2.88 -8.71,7.66 -12.59,14.32 -3.83,6.7 -8.18,16.89 -13.02,30.54 -6.85,19.05 -14.94,32.69 -24.27,40.88 -9.33,8.18 -21.53,12.29 -36.62,12.29 -15.79,0 -28.38,-5.93 -37.73,-17.8 -9.33,-11.93 -14.02,-27.62 -14.02,-47.15 0,-20.39 3.73,-39.16 11.2,-56.25l20.73 7.42c-7.13,16.94 -10.68,33.41 -10.68,49.4 0,12.59 2.73,22.5 8.13,29.58 5.47,7.13 12.98,10.68 22.64,10.68 7.13,0 12.92,-1.34 17.47,-3.93 4.55,-2.64 8.71,-7.03 12.5,-13.26 3.78,-6.22 7.94,-15.74 12.54,-28.58 7.66,-21.49 15.9,-36.28 24.7,-44.37 8.76,-8.09 20.2,-12.16 34.23,-12.16zm54.48 -41.88l-205.08 0 0 -23.84 205.08 0 0 23.84zm0 -240.26l0 27.19 -172.09 112.06 0 1.15c20.2,-1.49 38.68,-2.25 55.54,-2.25l116.56 0 0 22.02 -205.08 0 0 -26.91 171.42 -111.82 0 -1.1c-2.53,0.19 -10.62,0.58 -24.36,1.24 -13.69,0.67 -23.46,0.92 -29.39,0.72l-117.67 0 0 -22.31 205.08 0z"/>
  <path class="fil4" d="M12147.36 11051.01l0 -69.7 99.75 0c3.45,10.87 6.09,21.88 7.86,33.13 1.77,11.2 2.68,24.22 2.68,38.97 0,31.07 -9.24,55.24 -27.71,72.52 -18.48,17.28 -44.33,25.94 -77.65,25.94 -21.3,0 -39.97,-4.3 -56,-12.82 -16.04,-8.57 -28.29,-20.87 -36.76,-36.95 -8.48,-16.09 -12.69,-34.95 -12.69,-56.53 0,-21.88 4.02,-42.28 12.02,-61.13l21.02 9.24c-7.86,18.52 -11.77,36.33 -11.77,53.42 0,24.98 7.42,44.47 22.31,58.5 14.84,14.02 35.47,21.02 61.85,21.02 27.66,0 48.68,-6.75 63,-20.25 14.31,-13.49 21.44,-33.36 21.44,-59.55 0,-14.17 -1.63,-28.05 -4.93,-41.64l-63.15 0 0 45.86 -21.25 0zm107.42 -182.01l0 23.84 -183.82 0 0 64.91 -21.26 0 0 -153.61 21.26 0 0 64.86 183.82 0zm-102.78 -268.06c32.84,0 58.64,8.32 77.46,24.89 18.81,16.61 28.19,39.68 28.19,69.26 0,30.21 -9.24,53.51 -27.71,69.89 -18.48,16.42 -44.52,24.65 -78.17,24.65 -33.41,0 -59.26,-8.23 -77.65,-24.7 -18.38,-16.47 -27.57,-39.82 -27.57,-70.13 0,-29.48 9.33,-52.46 28.05,-69.02 18.73,-16.57 44.52,-24.84 77.41,-24.84zm-0.04 163.42c27.76,0 48.82,-5.89 63.18,-17.71 14.36,-11.88 21.54,-29.07 21.54,-51.56 0,-22.75 -7.13,-39.92 -21.44,-51.51 -14.32,-11.59 -35.43,-17.38 -63.28,-17.38 -27.58,0 -48.49,5.75 -62.76,17.33 -14.27,11.53 -21.4,28.63 -21.4,51.26 0,22.75 7.18,39.98 21.54,51.85 14.36,11.82 35.23,17.71 62.62,17.71z"/>
  <path class="fil4" d="M12595 11265.37c0,22.5 7.51,40.31 22.49,53.38 15.03,13.02 35.57,19.53 61.66,19.53 26.86,0 47.58,-6.27 62.18,-18.87 14.64,-12.54 21.97,-30.49 21.97,-53.8 0,-14.27 -2.58,-30.59 -7.7,-48.93l20.91 0c5.36,14.22 8.04,31.74 8.04,52.62 0,30.21 -9.14,53.51 -27.48,69.89 -18.33,16.42 -44.37,24.65 -78.12,24.65 -21.16,0 -39.68,-3.97 -55.58,-11.87 -15.9,-7.9 -28.15,-19.3 -36.72,-34.23 -8.61,-14.89 -12.92,-32.45 -12.92,-52.66 0,-21.54 3.93,-40.31 11.73,-56.39l20.49 10.1c-7.33,15.51 -10.96,31.02 -10.96,46.58zm186.69 -222.3l-65.19 25.51 0 82.24 65.19 25.22 0 24.13 -205.93 -81.09 0 -20.06 205.93 -80.66 0 24.71zm-86.74 32.93l-63.52 23.89c-8.04,3.06 -17.9,6.27 -29.58,9.53 8.96,2.06 18.82,4.98 29.58,8.85l63.52 24.13 0 -66.39zm86.74 -176.55l-181.81 69.61 0 1.1c14.41,-1.29 31.55,-1.96 51.37,-1.96l130.44 0 0 22.02 -205.08 0 0 -35.9 169.17 -64.96 0 -1.1 -169.17 -65.54 0 -35.61 205.08 0 0 23.83 -132.12 0c-15.17,0 -31.64,-0.67 -49.4,-1.96l0 1.11 181.52 70.17 0 19.19zm-145.33 -298.51c20.72,0 36.71,7.08 47.86,21.21 11.15,14.17 16.76,34.42 16.76,60.79l0 24.13 80.7 0 0 23.84 -205.08 0 0 -53.14c0,-51.21 19.92,-76.83 59.75,-76.83zm44.23 106.13l0 -21.44c0,-21.11 -3.4,-36.43 -10.25,-45.86 -6.8,-9.43 -17.76,-14.18 -32.79,-14.18 -13.55,0 -23.64,4.46 -30.3,13.31 -6.66,8.9 -9.96,22.74 -9.96,41.55l0 26.61 83.3 0z"/>
  <path class="fil4" d="M13122.06 11299.45c0,22.5 7.51,40.31 22.49,53.38 15.03,13.02 35.57,19.53 61.66,19.53 26.86,0 47.58,-6.27 62.18,-18.87 14.64,-12.54 21.97,-30.49 21.97,-53.8 0,-14.27 -2.58,-30.59 -7.7,-48.93l20.91 0c5.36,14.22 8.04,31.74 8.04,52.62 0,30.21 -9.14,53.51 -27.48,69.89 -18.33,16.42 -44.37,24.65 -78.12,24.65 -21.16,0 -39.68,-3.97 -55.58,-11.87 -15.9,-7.9 -28.15,-19.3 -36.72,-34.23 -8.61,-14.89 -12.92,-32.45 -12.92,-52.66 0,-21.54 3.93,-40.31 11.73,-56.39l20.49 10.1c-7.33,15.51 -10.96,31.02 -10.96,46.58zm82.19 -257.05c33.84,0 59.74,9.19 77.64,27.57 17.9,18.38 26.86,44.81 26.86,79.32l0 56.78 -205.08 0 0 -62.81c0,-31.87 8.86,-56.68 26.52,-74.33 17.67,-17.67 42.37,-26.52 74.06,-26.52zm0.87 25.27c-26.77,0 -46.87,6.71 -60.41,20.11 -13.56,13.4 -20.35,33.36 -20.35,59.79l0 34.65 163.72 0 0 -29c0,-28.43 -6.99,-49.79 -20.96,-64.1 -13.98,-14.31 -34.66,-21.44 -61.99,-21.44zm103.63 -161.75l-181.81 69.61 0 1.1c14.41,-1.29 31.55,-1.96 51.37,-1.96l130.44 0 0 22.02 -205.08 0 0 -35.9 169.17 -64.96 0 -1.1 -169.17 -65.54 0 -35.61 205.08 0 0 23.83 -132.12 0c-15.17,0 -31.64,-0.67 -49.4,-1.96l0 1.11 181.52 70.17 0 19.19zm0 -304.97l0 27.09 -90.19 55.1 90.19 56.05 0 25.28 -107.18 -68.17 -97.89 63.52 0 -26.38 81.24 -50.88 -81.24 -51.31 0 -25.37 97.09 63.51 107.99 -68.45z"/>
  <path class="fil4" d="M13835.94 11137.6l-181.81 69.61 0 1.1c14.41,-1.29 31.55,-1.96 51.37,-1.96l130.44 0 0 22.02 -205.08 0 0 -35.9 169.17 -64.96 0 -1.1 -169.17 -65.54 0 -35.61 205.08 0 0 23.83 -132.12 0c-15.17,0 -31.64,-0.67 -49.4,-1.96l0 1.11 181.52 70.17 0 19.19zm-102.78 -346.57c32.84,0 58.64,8.32 77.46,24.89 18.81,16.61 28.19,39.68 28.19,69.26 0,30.21 -9.24,53.51 -27.71,69.89 -18.48,16.42 -44.52,24.65 -78.17,24.65 -33.41,0 -59.26,-8.23 -77.65,-24.7 -18.38,-16.47 -27.57,-39.82 -27.57,-70.13 0,-29.48 9.33,-52.46 28.05,-69.02 18.73,-16.57 44.52,-24.84 77.41,-24.84zm-0.04 163.42c27.76,0 48.82,-5.89 63.18,-17.71 14.36,-11.88 21.54,-29.07 21.54,-51.56 0,-22.75 -7.13,-39.92 -21.44,-51.51 -14.32,-11.59 -35.43,-17.38 -63.28,-17.38 -27.58,0 -48.49,5.75 -62.76,17.33 -14.27,11.53 -21.4,28.63 -21.4,51.26 0,22.75 7.18,39.98 21.54,51.85 14.36,11.82 35.23,17.71 62.62,17.71zm17.51 -232.93l85.3 0 0 23.84 -205.08 0 0 -56.21c0,-25.18 4.84,-43.75 14.46,-55.72 9.62,-12.01 24.13,-18.04 43.47,-18.04 27.14,0 45.47,13.74 55,41.22l92.15 -55.67 0 28.19 -85.3 49.64 0 42.74zm-20.39 0l0 -32.65c0,-16.84 -3.35,-29.15 -10.04,-37 -6.66,-7.85 -16.71,-11.77 -30.06,-11.77 -13.56,0 -23.32,3.98 -29.3,11.97 -5.98,8 -9,20.82 -9,38.49l0 30.97 78.4 0z"/>
  <path class="fil4" d="M14363.29 11163.98l0 23.84 -183.82 0 0 64.91 -21.26 0 0 -153.61 21.26 0 0 64.86 183.82 0zm0 -95.78l-205.08 0 0 -23.84 183.53 0 0 -90.42 21.54 0 0 114.27zm0 -277.97l-65.19 25.51 0 82.24 65.19 25.22 0 24.13 -205.93 -81.09 0 -20.06 205.93 -80.66 0 24.71zm-86.74 32.93l-63.52 23.89c-8.04,3.06 -17.9,6.27 -29.58,9.53 8.96,2.06 18.82,4.98 29.58,8.85l63.52 24.13 0 -66.39zm86.74 -222.21l0 27.09 -90.19 55.1 90.19 56.05 0 25.28 -107.18 -68.17 -97.89 63.52 0 -26.38 81.24 -50.88 -81.24 -51.31 0 -25.37 97.09 63.51 107.99 -68.45z"/>
  <path class="fil4" d="M14684.84 10931.54l0 -57.93c0,-27.19 4.07,-46.91 12.21,-59.03 8.14,-12.15 21.02,-18.24 38.58,-18.24 12.16,0 22.22,3.36 30.11,10.16 7.9,6.79 13.02,16.65 15.37,29.68l1.38 0c5.31,-31.16 21.69,-46.72 49.06,-46.72 18.34,0 32.65,6.23 42.94,18.57 10.3,12.4 15.42,29.73 15.42,51.98l0 71.52 -205.08 0zm87.89 -23.84l0 -39.25c0,-16.85 -2.63,-28.96 -7.94,-36.33 -5.27,-7.42 -14.18,-11.1 -26.71,-11.1 -11.49,0 -19.81,4.11 -24.89,12.34 -5.12,8.23 -7.66,21.3 -7.66,39.25l0 35.09 67.21 0zm20.11 0l76.68 0 0 -42.79c0,-16.52 -3.21,-29 -9.62,-37.34 -6.37,-8.38 -16.43,-12.59 -30.06,-12.59 -12.69,0 -22.06,4.3 -28.05,12.83 -5.98,8.57 -8.96,21.59 -8.96,39.06l0 40.83zm-89.61 -250.07c0,22.5 7.51,40.31 22.49,53.38 15.03,13.02 35.57,19.53 61.66,19.53 26.86,0 47.58,-6.27 62.18,-18.87 14.64,-12.54 21.97,-30.49 21.97,-53.8 0,-14.27 -2.58,-30.59 -7.7,-48.93l20.91 0c5.36,14.22 8.04,31.74 8.04,52.62 0,30.21 -9.14,53.51 -27.48,69.89 -18.33,16.42 -44.37,24.65 -78.12,24.65 -21.16,0 -39.68,-3.97 -55.58,-11.87 -15.9,-7.9 -28.15,-19.3 -36.72,-34.23 -8.61,-14.89 -12.92,-32.45 -12.92,-52.66 0,-21.54 3.93,-40.31 11.73,-56.39l20.49 10.1c-7.33,15.51 -10.96,31.02 -10.96,46.58z"/>
  <path class="fil4" d="M15230.43 11244.02c0,22.5 7.51,40.31 22.49,53.38 15.03,13.02 35.57,19.53 61.66,19.53 26.86,0 47.58,-6.27 62.18,-18.87 14.64,-12.54 21.97,-30.49 21.97,-53.8 0,-14.27 -2.58,-30.59 -7.7,-48.93l20.91 0c5.36,14.22 8.04,31.74 8.04,52.62 0,30.21 -9.14,53.51 -27.48,69.89 -18.33,16.42 -44.37,24.65 -78.12,24.65 -21.16,0 -39.68,-3.97 -55.58,-11.87 -15.9,-7.9 -28.15,-19.3 -36.72,-34.23 -8.61,-14.89 -12.92,-32.45 -12.92,-52.66 0,-21.54 3.93,-40.31 11.73,-56.39l20.49 10.1c-7.33,15.51 -10.96,31.02 -10.96,46.58zm83.91 -265.67c32.84,0 58.64,8.32 77.46,24.89 18.81,16.61 28.19,39.68 28.19,69.26 0,30.21 -9.24,53.51 -27.71,69.89 -18.48,16.42 -44.52,24.65 -78.17,24.65 -33.41,0 -59.26,-8.23 -77.65,-24.7 -18.38,-16.47 -27.57,-39.82 -27.57,-70.13 0,-29.48 9.33,-52.46 28.05,-69.02 18.73,-16.57 44.52,-24.84 77.41,-24.84zm-0.04 163.42c27.76,0 48.82,-5.89 63.18,-17.71 14.36,-11.88 21.54,-29.07 21.54,-51.56 0,-22.75 -7.13,-39.92 -21.44,-51.51 -14.32,-11.59 -35.43,-17.38 -63.28,-17.38 -27.58,0 -48.49,5.75 -62.76,17.33 -14.27,11.53 -21.4,28.63 -21.4,51.26 0,22.75 7.18,39.98 21.54,51.85 14.36,11.82 35.23,17.71 62.62,17.71zm102.82 -332.26l-65.19 25.51 0 82.24 65.19 25.22 0 24.13 -205.93 -81.09 0 -20.06 205.93 -80.66 0 24.71zm-86.74 32.93l-63.52 23.89c-8.04,3.06 -17.9,6.27 -29.58,9.53 8.96,2.06 18.82,4.98 29.58,8.85l63.52 24.13 0 -66.39zm86.74 -241.5l0 23.83 -96.51 0 0 108.04 96.51 0 0 23.84 -205.08 0 0 -23.84 87.32 0 0 -108.04 -87.32 0 0 -23.83 205.08 0z"/>
  <path class="fil4" d="M15818.41 11225.87c26.29,0 48.16,5.31 65.54,15.85 17.37,10.57 29.15,25.51 35.32,44.75l50.74 -48.82 0 34.65 -46.24 39.98 0.28 7.75c0,30.21 -9.24,53.51 -27.71,69.89 -18.48,16.42 -44.52,24.65 -78.17,24.65 -33.41,0 -59.26,-8.23 -77.65,-24.7 -18.38,-16.47 -27.57,-39.82 -27.57,-70.13 0,-29.48 9.33,-52.46 28.05,-69.02 18.73,-16.57 44.52,-24.84 77.41,-24.84zm-0.04 163.42c27.76,0 48.82,-5.89 63.18,-17.71 14.36,-11.88 21.54,-29.07 21.54,-51.56 0,-22.75 -7.13,-39.92 -21.44,-51.51 -14.32,-11.59 -35.43,-17.38 -63.28,-17.38 -27.58,0 -48.49,5.75 -62.76,17.33 -14.27,11.53 -21.4,28.63 -21.4,51.26 0,22.75 7.18,39.98 21.54,51.85 14.36,11.82 35.23,17.71 62.62,17.71zm17.51 -232.93l85.3 0 0 23.84 -205.08 0 0 -56.21c0,-25.18 4.84,-43.75 14.46,-55.72 9.62,-12.01 24.13,-18.04 43.47,-18.04 27.14,0 45.47,13.74 55,41.22l92.15 -55.67 0 28.19 -85.3 49.64 0 42.74zm-20.39 0l0 -32.65c0,-16.84 -3.35,-29.15 -10.04,-37 -6.66,-7.85 -16.71,-11.77 -30.06,-11.77 -13.56,0 -23.32,3.98 -29.3,11.97 -5.98,8 -9,20.82 -9,38.49l0 30.97 78.4 0zm2.92 -331.73c32.84,0 58.64,8.32 77.46,24.89 18.81,16.61 28.19,39.68 28.19,69.26 0,30.21 -9.24,53.51 -27.71,69.89 -18.48,16.42 -44.52,24.65 -78.17,24.65 -33.41,0 -59.26,-8.23 -77.65,-24.7 -18.38,-16.47 -27.57,-39.82 -27.57,-70.13 0,-29.48 9.33,-52.46 28.05,-69.02 18.73,-16.57 44.52,-24.84 77.41,-24.84zm-0.04 163.42c27.76,0 48.82,-5.89 63.18,-17.71 14.36,-11.88 21.54,-29.07 21.54,-51.56 0,-22.75 -7.13,-39.92 -21.44,-51.51 -14.32,-11.59 -35.43,-17.38 -63.28,-17.38 -27.58,0 -48.49,5.75 -62.76,17.33 -14.27,11.53 -21.4,28.63 -21.4,51.26 0,22.75 7.18,39.98 21.54,51.85 14.36,11.82 35.23,17.71 62.62,17.71zm0.04 -387.11c32.84,0 58.64,8.32 77.46,24.89 18.81,16.61 28.19,39.68 28.19,69.26 0,30.21 -9.24,53.51 -27.71,69.89 -18.48,16.42 -44.52,24.65 -78.17,24.65 -33.41,0 -59.26,-8.23 -77.65,-24.7 -18.38,-16.47 -27.57,-39.82 -27.57,-70.13 0,-29.48 9.33,-52.46 28.05,-69.02 18.73,-16.57 44.52,-24.84 77.41,-24.84zm-0.04 163.42c27.76,0 48.82,-5.89 63.18,-17.71 14.36,-11.88 21.54,-29.07 21.54,-51.56 0,-22.75 -7.13,-39.92 -21.44,-51.51 -14.32,-11.59 -35.43,-17.38 -63.28,-17.38 -27.58,0 -48.49,5.75 -62.76,17.33 -14.27,11.53 -21.4,28.63 -21.4,51.26 0,22.75 7.18,39.98 21.54,51.85 14.36,11.82 35.23,17.71 62.62,17.71z"/>
  <path class="fil4" d="M16266.02 11084l0 -57.93c0,-27.19 4.07,-46.91 12.21,-59.03 8.14,-12.15 21.02,-18.24 38.58,-18.24 12.16,0 22.22,3.36 30.11,10.16 7.9,6.79 13.02,16.65 15.37,29.68l1.38 0c5.31,-31.16 21.69,-46.72 49.06,-46.72 18.34,0 32.65,6.23 42.94,18.57 10.3,12.4 15.42,29.73 15.42,51.98l0 71.52 -205.08 0zm87.89 -23.84l0 -39.25c0,-16.85 -2.63,-28.96 -7.94,-36.33 -5.27,-7.42 -14.18,-11.1 -26.71,-11.1 -11.49,0 -19.81,4.11 -24.89,12.34 -5.12,8.23 -7.66,21.3 -7.66,39.25l0 35.09 67.21 0zm20.11 0l76.68 0 0 -42.79c0,-16.52 -3.21,-29 -9.62,-37.34 -6.37,-8.38 -16.43,-12.59 -30.06,-12.59 -12.69,0 -22.06,4.3 -28.05,12.83 -5.98,8.57 -8.96,21.59 -8.96,39.06l0 40.83zm-89.61 -250.07c0,22.5 7.51,40.31 22.49,53.38 15.03,13.02 35.57,19.53 61.66,19.53 26.86,0 47.58,-6.27 62.18,-18.87 14.64,-12.54 21.97,-30.49 21.97,-53.8 0,-14.27 -2.58,-30.59 -7.7,-48.93l20.91 0c5.36,14.22 8.04,31.74 8.04,52.62 0,30.21 -9.14,53.51 -27.48,69.89 -18.33,16.42 -44.37,24.65 -78.12,24.65 -21.16,0 -39.68,-3.97 -55.58,-11.87 -15.9,-7.9 -28.15,-19.3 -36.72,-34.23 -8.61,-14.89 -12.92,-32.45 -12.92,-52.66 0,-21.54 3.93,-40.31 11.73,-56.39l20.49 10.1c-7.33,15.51 -10.96,31.02 -10.96,46.58zm132.21 -209.14c18.05,0 32.12,6.55 42.22,19.63 10.1,13.11 15.12,30.87 15.12,53.32 0,24.32 -3.15,43.04 -9.42,56.11l-23.03 0c3.54,-8.43 6.37,-17.57 8.43,-27.48 2.06,-9.9 3.06,-19.72 3.06,-29.48 0,-15.9 -3.01,-27.86 -9.05,-35.9 -5.98,-8.04 -14.36,-12.06 -25.13,-12.06 -7.09,0 -12.92,1.43 -17.43,4.25 -4.54,2.88 -8.71,7.66 -12.59,14.32 -3.83,6.7 -8.18,16.89 -13.02,30.54 -6.85,19.05 -14.94,32.69 -24.27,40.88 -9.33,8.18 -21.53,12.29 -36.62,12.29 -15.79,0 -28.38,-5.93 -37.73,-17.8 -9.33,-11.93 -14.02,-27.62 -14.02,-47.15 0,-20.39 3.73,-39.16 11.2,-56.25l20.73 7.42c-7.13,16.94 -10.68,33.41 -10.68,49.4 0,12.59 2.73,22.5 8.13,29.58 5.47,7.13 12.98,10.68 22.64,10.68 7.13,0 12.92,-1.34 17.47,-3.93 4.55,-2.64 8.71,-7.03 12.5,-13.26 3.78,-6.22 7.94,-15.74 12.54,-28.58 7.66,-21.49 15.9,-36.28 24.7,-44.37 8.76,-8.09 20.2,-12.16 34.23,-12.16z"/>
  <path class="fil4" d="M16998.15 10972.9l-65.19 25.51 0 82.24 65.19 25.22 0 24.13 -205.93 -81.09 0 -20.06 205.93 -80.66 0 24.71zm-86.74 32.93l-63.52 23.89c-8.04,3.06 -17.9,6.27 -29.58,9.53 8.96,2.06 18.82,4.98 29.58,8.85l63.52 24.13 0 -66.39zm-20.68 -170.23l0 -69.7 99.75 0c3.45,10.87 6.09,21.88 7.86,33.13 1.77,11.2 2.68,24.22 2.68,38.97 0,31.07 -9.24,55.24 -27.71,72.52 -18.48,17.28 -44.33,25.94 -77.65,25.94 -21.3,0 -39.97,-4.3 -56,-12.82 -16.04,-8.57 -28.29,-20.87 -36.76,-36.95 -8.48,-16.09 -12.69,-34.95 -12.69,-56.53 0,-21.88 4.02,-42.28 12.02,-61.13l21.02 9.24c-7.86,18.52 -11.77,36.33 -11.77,53.42 0,24.98 7.42,44.47 22.31,58.5 14.84,14.02 35.47,21.02 61.85,21.02 27.66,0 48.68,-6.75 63,-20.25 14.31,-13.49 21.44,-33.36 21.44,-59.55 0,-14.17 -1.63,-28.05 -4.93,-41.64l-63.15 0 0 45.86 -21.25 0zm52.94 -234.66c18.05,0 32.12,6.55 42.22,19.63 10.1,13.11 15.12,30.87 15.12,53.32 0,24.32 -3.15,43.04 -9.42,56.11l-23.03 0c3.54,-8.43 6.37,-17.57 8.43,-27.48 2.06,-9.9 3.06,-19.72 3.06,-29.48 0,-15.9 -3.01,-27.86 -9.05,-35.9 -5.98,-8.04 -14.36,-12.06 -25.13,-12.06 -7.09,0 -12.92,1.43 -17.43,4.25 -4.54,2.88 -8.71,7.66 -12.59,14.32 -3.83,6.7 -8.18,16.89 -13.02,30.54 -6.85,19.05 -14.94,32.69 -24.27,40.88 -9.33,8.18 -21.53,12.29 -36.62,12.29 -15.79,0 -28.38,-5.93 -37.73,-17.8 -9.33,-11.93 -14.02,-27.62 -14.02,-47.15 0,-20.39 3.73,-39.16 11.2,-56.25l20.73 7.42c-7.13,16.94 -10.68,33.41 -10.68,49.4 0,12.59 2.73,22.5 8.13,29.58 5.47,7.13 12.98,10.68 22.64,10.68 7.13,0 12.92,-1.34 17.47,-3.93 4.55,-2.64 8.71,-7.03 12.5,-13.26 3.78,-6.22 7.94,-15.74 12.54,-28.58 7.66,-21.49 15.9,-36.28 24.7,-44.37 8.76,-8.09 20.2,-12.16 34.23,-12.16z"/>
  <path class="fil4" d="M17420.85 11033.78c33.84,0 59.74,9.19 77.64,27.57 17.9,18.38 26.86,44.81 26.86,79.32l0 56.78 -205.08 0 0 -62.81c0,-31.87 8.86,-56.68 26.52,-74.33 17.67,-17.67 42.37,-26.52 74.06,-26.52zm0.87 25.27c-26.77,0 -46.87,6.71 -60.41,20.11 -13.56,13.4 -20.35,33.36 -20.35,59.79l0 34.65 163.72 0 0 -29c0,-28.43 -6.99,-49.79 -20.96,-64.1 -13.98,-14.31 -34.66,-21.44 -61.99,-21.44zm-3.79 -161.17l0 -69.7 99.75 0c3.45,10.87 6.09,21.88 7.86,33.13 1.77,11.2 2.68,24.22 2.68,38.97 0,31.07 -9.24,55.24 -27.71,72.52 -18.48,17.28 -44.33,25.94 -77.65,25.94 -21.3,0 -39.97,-4.3 -56,-12.82 -16.04,-8.57 -28.29,-20.87 -36.76,-36.95 -8.48,-16.09 -12.69,-34.95 -12.69,-56.53 0,-21.88 4.02,-42.28 12.02,-61.13l21.02 9.24c-7.86,18.52 -11.77,36.33 -11.77,53.42 0,24.98 7.42,44.47 22.31,58.5 14.84,14.02 35.47,21.02 61.85,21.02 27.66,0 48.68,-6.75 63,-20.25 14.31,-13.49 21.44,-33.36 21.44,-59.55 0,-14.17 -1.63,-28.05 -4.93,-41.64l-63.15 0 0 45.86 -21.25 0zm4.64 -296.93c32.84,0 58.64,8.32 77.46,24.89 18.81,16.61 28.19,39.68 28.19,69.26 0,30.21 -9.24,53.51 -27.71,69.89 -18.48,16.42 -44.52,24.65 -78.17,24.65 -33.41,0 -59.26,-8.23 -77.65,-24.7 -18.38,-16.47 -27.57,-39.82 -27.57,-70.13 0,-29.48 9.33,-52.46 28.05,-69.02 18.73,-16.57 44.52,-24.84 77.41,-24.84zm-0.04 163.42c27.76,0 48.82,-5.89 63.18,-17.71 14.36,-11.88 21.54,-29.07 21.54,-51.56 0,-22.75 -7.13,-39.92 -21.44,-51.51 -14.32,-11.59 -35.43,-17.38 -63.28,-17.38 -27.58,0 -48.49,5.75 -62.76,17.33 -14.27,11.53 -21.4,28.63 -21.4,51.26 0,22.75 7.18,39.98 21.54,51.85 14.36,11.82 35.23,17.71 62.62,17.71z"/>
  <path class="fil4" d="M18052.26 10771.55l0 27.19 -172.09 112.06 0 1.15c20.2,-1.49 38.68,-2.25 55.54,-2.25l116.56 0 0 22.02 -205.08 0 0 -26.91 171.42 -111.82 0 -1.1c-2.53,0.19 -10.62,0.58 -24.36,1.24 -13.69,0.67 -23.46,0.92 -29.39,0.72l-117.67 0 0 -22.31 205.08 0zm0 -56.34l-205.08 0 0 -23.84 183.53 0 0 -90.42 21.54 0 0 114.27z"/>
 </g>
</svg>
