<?xml version="1.0" encoding="UTF-8"?>
<!DOCTYPE svg PUBLIC "-//W3C//DTD SVG 1.1//EN" "http://www.w3.org/Graphics/SVG/1.1/DTD/svg11.dtd">
<!-- Creator: CorelDRAW 2017 -->
<svg xmlns="http://www.w3.org/2000/svg" xml:space="preserve" width="183.47mm" height="48.8693mm" version="1.1" style="shape-rendering:geometricPrecision; text-rendering:geometricPrecision; image-rendering:optimizeQuality; fill-rule:evenodd; clip-rule:evenodd"
viewBox="0 0 18449.1 4914.11"
 xmlns:xlink="http://www.w3.org/1999/xlink">
 <defs>
  <style type="text/css">
   <![CDATA[
    .fil3 {fill:#E2CCA1}
    .fil0 {fill:#179F95;fill-rule:nonzero}
    .fil1 {fill:#373435;fill-rule:nonzero}
    .fil4 {fill:#EC5F8A;fill-rule:nonzero}
    .fil5 {fill:white;fill-rule:nonzero}
    .fil2 {fill:url(#id0);fill-rule:nonzero}
   ]]>
  </style>
  <linearGradient id="id0" gradientUnits="userSpaceOnUse" x1="3194.35" y1="1312.97" x2="14757.64" y2="1312.97">
   <stop offset="0" style="stop-opacity:1; stop-color:#18948C"/>
   <stop offset="1" style="stop-opacity:1; stop-color:#9BD6D1"/>
  </linearGradient>
 </defs>
 <g id="Capa_x0020_1">
  <metadata id="CorelCorpID_0Corel-Layer"/>
  <path class="fil0" d="M336.48 4764.23c0,46.73 -16.81,83.4 -50.67,110.03 -33.73,26.62 -80.34,39.85 -139.83,39.85 -59.49,0 -108.07,-9.19 -145.98,-27.7l0 -81.45c24.05,11.28 49.43,20.1 76.42,26.61 26.99,6.5 52.02,9.69 75.32,9.69 34.11,0 59.13,-6.51 75.32,-19.38 16.2,-12.88 24.29,-30.18 24.29,-51.89 0,-19.63 -7.48,-36.31 -22.32,-49.93 -14.84,-13.75 -45.5,-29.81 -92.01,-48.58 -47.96,-19.39 -81.68,-41.58 -101.44,-66.48 -19.63,-24.92 -29.44,-54.84 -29.44,-89.81 0,-43.91 15.58,-78.37 46.74,-103.52 31.15,-25.15 72.98,-37.79 125.49,-37.79 50.29,0 100.35,11.05 150.26,33l-27.34 70.04c-46.74,-19.62 -88.45,-29.44 -125.13,-29.44 -27.84,0 -48.94,6.01 -63.3,18.16 -14.34,12.14 -21.59,28.1 -21.59,48.09 0,13.62 2.96,25.27 8.72,35.07 5.76,9.69 15.2,18.78 28.33,27.49 13.25,8.59 36.93,19.99 71.27,34.09 38.52,16.08 66.86,31.04 84.76,44.9 18.03,13.99 31.16,29.68 39.62,47.11 8.36,17.55 12.52,38.15 12.52,61.83zm101.57 142.53l0 -525.51 85.88 0 0 525.51 -85.88 0zm662.28 0l-105.37 0 -258.22 -418.78 -2.94 0 1.84 23.43c3.32,44.52 5.03,85.24 5.03,122.17l0 273.18 -78.01 0 0 -525.51 104.27 0 257.59 416.58 2.09 0c-0.49,-5.53 -1.48,-25.52 -2.83,-60.23 -1.47,-34.6 -2.21,-61.58 -2.21,-80.96l0 -275.39 78.76 0 0 525.51zm557.15 0l-152.35 -438.9 -2.95 0c4.17,65.26 6.13,126.35 6.13,183.38l0 255.51 -77.89 0 0 -525.51 121.07 0 145.97 418.05 2.09 0 150.26 -418.05 121.44 0 0 525.51 -82.55 0 0 -259.93c0,-26.13 0.61,-60.1 1.95,-102.06 1.24,-41.94 2.45,-67.34 3.44,-76.17l-2.94 0 -157.75 438.16 -75.93 0zm795.74 -199.46c0,65.02 -16.68,115.69 -49.92,152.12 -33.37,36.43 -79.74,54.69 -139.12,54.69 -37.17,0 -70.04,-8.34 -98.49,-25.13 -28.58,-16.81 -50.54,-40.86 -65.87,-72.38 -15.32,-31.4 -22.93,-67.85 -22.93,-109.3 0,-64.52 16.56,-114.81 49.54,-151 33.12,-36.18 79.73,-54.33 139.84,-54.33 57.53,0 103.04,18.51 136.66,55.56 33.48,37.05 50.29,86.97 50.29,149.77zm-289.37 0c0,91.76 33.86,137.63 101.69,137.63 67.22,0 100.71,-45.87 100.71,-137.63 0,-90.77 -33.74,-136.14 -101.33,-136.14 -35.56,0 -61.2,11.77 -77.15,35.19 -15.95,23.43 -23.92,57.17 -23.92,100.95zm587.83 -205.33c17.04,0 31.03,1.22 42.07,3.54l-8.35 78.76c-11.91,-2.82 -24.41,-4.29 -37.29,-4.29 -33.74,0 -61.1,11.05 -82.07,33 -20.97,22.08 -31.39,50.79 -31.39,85.99l0 207.8 -84.53 0 0 -397.44 66.13 0 11.16 69.92 4.29 0c13.12,-23.67 30.42,-42.57 51.53,-56.43 21.22,-13.86 44.03,-20.84 68.45,-20.84zm318.81 0c49.67,0 88.32,18.03 115.92,53.96 27.72,35.95 41.46,86.36 41.46,151.37 0,65.27 -13.99,116.05 -41.95,152.35 -28.1,36.31 -66.98,54.46 -116.79,54.46 -50.3,0 -89.41,-18.15 -117.14,-54.33l-5.77 0 -15.46 46.98 -63.3 0 0 -559.36 84.53 0 0 132.97c0,9.82 -0.49,24.55 -1.48,43.93 -0.98,19.37 -1.72,31.77 -2.2,37.03l3.68 0c26.74,-39.62 66.36,-59.36 118.5,-59.36zm-21.84 69.18c-34.11,0 -58.5,10.05 -73.48,30.05 -14.96,19.99 -22.7,53.48 -23.18,100.34l0 5.76c0,48.46 7.6,83.42 22.94,105.13 15.32,21.72 40.36,32.5 75.07,32.5 29.94,0 52.63,-11.9 68.09,-35.57 15.46,-23.67 23.18,-58.02 23.18,-102.8 0,-90.28 -30.9,-135.41 -92.61,-135.41zm361.87 335.61l-84.41 0 0 -397.44 84.41 0 0 397.44zm-89.43 -502.68c0,-15.09 4.05,-26.76 12.4,-34.84 8.22,-8.23 19.99,-12.27 35.33,-12.27 14.84,0 26.49,4.04 34.71,12.27 8.22,8.08 12.39,19.75 12.39,34.84 0,14.35 -4.17,25.63 -12.39,33.97 -8.23,8.23 -19.87,12.39 -34.71,12.39 -15.33,0 -27.11,-4.16 -35.33,-12.39 -8.35,-8.34 -12.4,-19.62 -12.4,-33.97zm294.65 502.68l-84.4 0 0 -559.36 84.4 0 0 559.36zm205.23 0l-84.4 0 0 -397.44 84.4 0 0 397.44zm-89.42 -502.68c0,-15.09 4.04,-26.76 12.39,-34.84 8.22,-8.23 20,-12.27 35.33,-12.27 14.85,0 26.5,4.04 34.72,12.27 8.21,8.08 12.38,19.75 12.38,34.84 0,14.35 -4.17,25.63 -12.38,33.97 -8.23,8.23 -19.87,12.39 -34.72,12.39 -15.32,0 -27.11,-4.16 -35.33,-12.39 -8.35,-8.34 -12.39,-19.62 -12.39,-33.97zm344.19 510.03c-49.54,0 -88.32,-18.03 -116.04,-53.96 -27.83,-35.95 -41.7,-86.36 -41.7,-151.37 0,-65.27 14.1,-116.04 42.2,-152.35 28.08,-36.31 67.09,-54.46 116.9,-54.46 52.26,0 92.01,19.25 119.35,57.89l4.29 0c-4.04,-28.46 -6.13,-51.02 -6.13,-67.58l0 -144.88 84.89 0 0 559.36 -66.12 0 -14.71 -52.01 -4.06 0c-26.99,39.62 -66.61,59.36 -118.87,59.36zm22.57 -68.43c34.84,0 60.11,-9.82 75.81,-29.33 15.83,-19.5 24.04,-51.15 24.55,-95.07l0 -11.77c0,-50.05 -8.23,-85.62 -24.55,-106.73 -16.18,-21.1 -41.7,-31.63 -76.42,-31.63 -29.79,0 -52.62,12.02 -68.7,36.06 -16.06,24.16 -24.03,58.39 -24.03,103.04 0,44.03 7.72,77.64 23.3,100.71 15.59,23.19 38.89,34.72 70.05,34.72zm550.53 61.08l-16.92 -55.2 -2.83 0c-19.14,24.16 -38.39,40.73 -57.89,49.43 -19.39,8.71 -44.28,13.11 -74.71,13.11 -39.01,0 -69.55,-10.54 -91.38,-31.63 -21.96,-21.11 -32.88,-50.91 -32.88,-89.56 0,-40.97 15.2,-71.88 45.63,-92.72 30.42,-20.86 76.78,-32.27 138.98,-34.11l68.69 -2.2 0 -21.23c0,-25.4 -6,-44.41 -17.78,-57.04 -11.91,-12.64 -30.3,-18.89 -55.21,-18.89 -20.36,0 -39.87,2.94 -58.51,8.95 -18.76,6.01 -36.68,13.13 -53.98,21.23l-27.22 -60.34c21.47,-11.29 45.14,-19.88 70.77,-25.77 25.63,-5.88 49.81,-8.82 72.5,-8.82 50.66,0 88.81,11.03 114.44,33.1 25.76,21.96 38.63,56.68 38.63,103.9l0 267.78 -60.34 0zm-125.74 -57.41c30.67,0 55.33,-8.59 73.85,-25.76 18.53,-17.16 27.84,-41.21 27.84,-72.13l0 -34.59 -51.02 2.21c-39.75,1.35 -68.7,8.09 -86.73,20 -18.15,11.77 -27.24,30.05 -27.24,54.46 0,17.78 5.28,31.51 15.83,41.21 10.56,9.69 26.39,14.6 47.47,14.6zm438.04 64.76c-49.54,0 -88.32,-18.03 -116.04,-53.96 -27.83,-35.95 -41.7,-86.36 -41.7,-151.37 0,-65.27 14.1,-116.04 42.19,-152.35 28.09,-36.31 67.09,-54.46 116.91,-54.46 52.26,0 92,19.25 119.35,57.89l4.29 0c-4.04,-28.46 -6.13,-51.02 -6.13,-67.58l0 -144.88 84.89 0 0 559.36 -66.12 0 -14.72 -52.01 -4.05 0c-26.99,39.62 -66.61,59.36 -118.87,59.36zm22.57 -68.43c34.83,0 60.11,-9.82 75.81,-29.33 15.83,-19.5 24.04,-51.15 24.54,-95.07l0 -11.77c0,-50.05 -8.23,-85.62 -24.54,-106.73 -16.19,-21.1 -41.71,-31.63 -76.42,-31.63 -29.8,0 -52.62,12.02 -68.7,36.06 -16.06,24.16 -24.04,58.39 -24.04,103.04 0,44.03 7.73,77.64 23.31,100.71 15.58,23.19 38.89,34.72 70.05,34.72zm729.25 61.08l-152.35 -438.9 -2.95 0c4.16,65.26 6.13,126.35 6.13,183.38l0 255.51 -77.89 0 0 -525.51 121.07 0 145.97 418.05 2.09 0 150.26 -418.05 121.44 0 0 525.51 -82.55 0 0 -259.93c0,-26.13 0.6,-60.1 1.95,-102.06 1.24,-41.94 2.45,-67.34 3.44,-76.17l-2.94 0 -157.75 438.16 -75.93 0zm691.72 0l-16.92 -55.2 -2.83 0c-19.14,24.16 -38.39,40.73 -57.89,49.43 -19.39,8.71 -44.28,13.11 -74.71,13.11 -39.01,0 -69.55,-10.54 -91.38,-31.63 -21.96,-21.11 -32.88,-50.91 -32.88,-89.56 0,-40.97 15.21,-71.88 45.63,-92.72 30.42,-20.86 76.78,-32.27 138.98,-34.11l68.69 -2.2 0 -21.23c0,-25.4 -6,-44.41 -17.78,-57.04 -11.91,-12.64 -30.3,-18.89 -55.21,-18.89 -20.36,0 -39.87,2.94 -58.51,8.95 -18.76,6.01 -36.67,13.13 -53.97,21.23l-27.23 -60.34c21.47,-11.29 45.14,-19.88 70.77,-25.77 25.64,-5.88 49.81,-8.82 72.5,-8.82 50.66,0 88.81,11.03 114.44,33.1 25.76,21.96 38.64,56.68 38.64,103.9l0 267.78 -60.35 0zm-125.74 -57.41c30.67,0 55.33,-8.59 73.85,-25.76 18.53,-17.16 27.84,-41.21 27.84,-72.13l0 -34.59 -51.02 2.21c-39.75,1.35 -68.7,8.09 -86.73,20 -18.15,11.77 -27.24,30.05 -27.24,54.46 0,17.78 5.28,31.51 15.83,41.21 10.56,9.69 26.39,14.6 47.47,14.6zm452.03 -3.67c20.61,0 41.22,-3.2 61.83,-9.69l0 63.78c-9.32,4.04 -21.47,7.47 -36.19,10.18 -14.72,2.83 -29.94,4.16 -45.75,4.16 -79.98,0 -119.97,-42.19 -119.97,-126.58l0 -214.17 -54.34 0 0 -37.42 58.27 -30.91 28.7 -84.02 52.13 0 0 88.32 113.23 0 0 64.03 -113.23 0 0 212.7c0,20.37 5.03,35.34 15.22,45.02 10.18,9.69 23.54,14.61 40.1,14.61zm314.77 68.43c-61.83,0 -110.16,-18.03 -145,-54.09 -34.82,-36.06 -52.25,-85.86 -52.25,-149.17 0,-64.89 16.19,-116.04 48.46,-153.21 32.37,-37.17 76.78,-55.68 133.34,-55.68 52.37,0 93.83,15.94 124.26,47.82 30.42,31.9 45.62,75.82 45.62,131.75l0 45.63 -264.7 0c1.11,38.52 11.53,68.21 31.15,88.94 19.75,20.72 47.36,31.03 83.05,31.03 23.43,0 45.26,-2.22 65.51,-6.63 20.23,-4.41 42.06,-11.78 65.25,-22.08l0 68.7c-20.61,9.8 -41.47,16.79 -62.56,20.86 -20.98,4.04 -45.14,6.11 -72.13,6.11zm-15.46 -348.12c-26.87,0 -48.33,8.47 -64.53,25.51 -16.19,17.04 -25.76,41.96 -28.95,74.58l180.32 0c-0.48,-32.87 -8.34,-57.77 -23.67,-74.7 -15.34,-16.92 -36.43,-25.39 -63.17,-25.39zm467.49 -64.02c17.04,0 31.03,1.22 42.06,3.54l-8.34 78.76c-11.91,-2.82 -24.42,-4.29 -37.29,-4.29 -33.74,0 -61.1,11.05 -82.07,33 -20.97,22.08 -31.39,50.79 -31.39,85.99l0 207.8 -84.53 0 0 -397.44 66.13 0 11.15 69.92 4.29 0c13.13,-23.67 30.43,-42.57 51.54,-56.43 21.21,-13.86 44.03,-20.84 68.45,-20.84zm465.64 404.79l-84.76 0 0 -244.35c0,-30.66 -6.26,-53.49 -18.51,-68.58 -12.4,-15.07 -32.02,-22.68 -58.89,-22.68 -35.7,0 -61.83,10.54 -78.39,31.63 -16.56,21.11 -24.77,56.43 -24.77,106l0 197.98 -84.53 0 0 -397.44 66.13 0 11.9 52.01 4.28 0c12.03,-19.01 29.08,-33.61 51.03,-43.91 22.08,-10.3 46.61,-15.45 73.37,-15.45 95.43,0 143.14,48.56 143.14,145.6l0 259.19zm366.03 0l-16.92 -55.2 -2.83 0c-19.14,24.16 -38.39,40.73 -57.89,49.43 -19.39,8.71 -44.28,13.11 -74.71,13.11 -39.01,0 -69.55,-10.54 -91.38,-31.63 -21.96,-21.11 -32.88,-50.91 -32.88,-89.56 0,-40.97 15.2,-71.88 45.63,-92.72 30.42,-20.86 76.78,-32.27 138.98,-34.11l68.69 -2.2 0 -21.23c0,-25.4 -6,-44.41 -17.78,-57.04 -11.91,-12.64 -30.3,-18.89 -55.21,-18.89 -20.36,0 -39.87,2.94 -58.51,8.95 -18.76,6.01 -36.67,13.13 -53.97,21.23l-27.23 -60.34c21.47,-11.29 45.14,-19.88 70.77,-25.77 25.64,-5.88 49.81,-8.82 72.5,-8.82 50.66,0 88.81,11.03 114.44,33.1 25.76,21.96 38.64,56.68 38.64,103.9l0 267.78 -60.35 0zm-125.74 -57.41c30.67,0 55.33,-8.59 73.85,-25.76 18.53,-17.16 27.84,-41.21 27.84,-72.13l0 -34.59 -51.02 2.21c-39.75,1.35 -68.7,8.09 -86.73,20 -18.15,11.77 -27.24,30.05 -27.24,54.46 0,17.78 5.28,31.51 15.83,41.21 10.56,9.69 26.39,14.6 47.47,14.6zm807.28 -85.12c0,46.73 -16.81,83.4 -50.67,110.03 -33.73,26.62 -80.34,39.85 -139.83,39.85 -59.49,0 -108.07,-9.19 -145.98,-27.7l0 -81.45c24.05,11.28 49.43,20.1 76.42,26.61 26.99,6.5 52.01,9.69 75.32,9.69 34.11,0 59.13,-6.51 75.32,-19.38 16.2,-12.88 24.29,-30.18 24.29,-51.89 0,-19.63 -7.48,-36.31 -22.32,-49.93 -14.85,-13.75 -45.51,-29.81 -92.01,-48.58 -47.96,-19.39 -81.68,-41.58 -101.44,-66.48 -19.63,-24.92 -29.44,-54.84 -29.44,-89.81 0,-43.91 15.58,-78.37 46.74,-103.52 31.15,-25.15 72.98,-37.79 125.49,-37.79 50.29,0 100.35,11.05 150.26,33l-27.35 70.04c-46.73,-19.62 -88.44,-29.44 -125.12,-29.44 -27.84,0 -48.94,6.01 -63.3,18.16 -14.35,12.14 -21.59,28.1 -21.59,48.09 0,13.62 2.96,25.27 8.71,35.07 5.76,9.69 15.21,18.78 28.34,27.49 13.25,8.59 36.93,19.99 71.27,34.09 38.52,16.08 66.86,31.04 84.76,44.9 18.03,13.99 31.16,29.68 39.62,47.11 8.35,17.55 12.52,38.15 12.52,61.83zm266.19 149.88c-61.83,0 -110.16,-18.03 -145,-54.09 -34.82,-36.06 -52.24,-85.86 -52.24,-149.17 0,-64.89 16.18,-116.04 48.45,-153.21 32.38,-37.17 76.78,-55.68 133.34,-55.68 52.37,0 93.84,15.94 124.26,47.82 30.42,31.9 45.63,75.82 45.63,131.75l0 45.63 -264.71 0c1.11,38.52 11.53,68.21 31.15,88.94 19.75,20.72 47.36,31.03 83.05,31.03 23.43,0 45.27,-2.22 65.51,-6.63 20.23,-4.41 42.07,-11.78 65.25,-22.08l0 68.7c-20.6,9.8 -41.46,16.79 -62.56,20.86 -20.98,4.04 -45.14,6.11 -72.13,6.11zm-15.46 -348.12c-26.86,0 -48.33,8.47 -64.53,25.51 -16.19,17.04 -25.76,41.96 -28.94,74.58l180.31 0c-0.48,-32.87 -8.34,-57.77 -23.66,-74.7 -15.34,-16.92 -36.44,-25.39 -63.18,-25.39zm341.75 340.77l-150.88 -397.44 89.17 0 80.73 231.1c13.98,38.76 22.31,70.17 25.14,94.08l2.94 0c2.09,-17.16 10.56,-48.56 25.15,-94.08l80.85 -231.1 89.79 0 -151.62 397.44 -91.25 0zm476.93 7.35c-61.83,0 -110.16,-18.03 -145,-54.09 -34.82,-36.06 -52.25,-85.86 -52.25,-149.17 0,-64.89 16.19,-116.04 48.46,-153.21 32.37,-37.17 76.78,-55.68 133.34,-55.68 52.37,0 93.83,15.94 124.26,47.82 30.42,31.9 45.62,75.82 45.62,131.75l0 45.63 -264.71 0c1.12,38.52 11.54,68.21 31.16,88.94 19.75,20.72 47.36,31.03 83.04,31.03 23.43,0 45.27,-2.22 65.51,-6.63 20.23,-4.41 42.07,-11.78 65.25,-22.08l0 68.7c-20.6,9.8 -41.46,16.79 -62.55,20.86 -20.98,4.04 -45.14,6.11 -72.13,6.11zm-15.46 -348.12c-26.87,0 -48.33,8.47 -64.53,25.51 -16.19,17.04 -25.76,41.96 -28.95,74.58l180.32 0c-0.49,-32.87 -8.34,-57.77 -23.67,-74.7 -15.34,-16.92 -36.43,-25.39 -63.17,-25.39zm467.48 -64.02c17.05,0 31.04,1.22 42.07,3.54l-8.34 78.76c-11.91,-2.82 -24.42,-4.29 -37.29,-4.29 -33.74,0 -61.1,11.05 -82.07,33 -20.97,22.08 -31.39,50.79 -31.39,85.99l0 207.8 -84.53 0 0 -397.44 66.12 0 11.16 69.92 4.29 0c13.13,-23.67 30.43,-42.57 51.53,-56.43 21.22,-13.86 44.04,-20.84 68.45,-20.84zm349.72 404.79l-16.92 -55.2 -2.83 0c-19.14,24.16 -38.39,40.73 -57.89,49.43 -19.39,8.71 -44.28,13.11 -74.71,13.11 -39.01,0 -69.55,-10.54 -91.38,-31.63 -21.96,-21.11 -32.87,-50.91 -32.87,-89.56 0,-40.97 15.2,-71.88 45.62,-92.72 30.43,-20.86 76.78,-32.27 138.98,-34.11l68.7 -2.2 0 -21.23c0,-25.4 -6.01,-44.41 -17.79,-57.04 -11.91,-12.64 -30.3,-18.89 -55.21,-18.89 -20.36,0 -39.87,2.94 -58.5,8.95 -18.76,6.01 -36.68,13.13 -53.98,21.23l-27.23 -60.34c21.47,-11.29 45.15,-19.88 70.78,-25.77 25.63,-5.88 49.8,-8.82 72.49,-8.82 50.67,0 88.81,11.03 114.45,33.1 25.75,21.96 38.63,56.68 38.63,103.9l0 267.78 -60.35 0zm-125.74 -57.41c30.67,0 55.33,-8.59 73.85,-25.76 18.53,-17.16 27.85,-41.21 27.85,-72.13l0 -34.59 -51.03 2.21c-39.74,1.35 -68.7,8.09 -86.73,20 -18.15,11.77 -27.24,30.05 -27.24,54.46 0,17.78 5.28,31.51 15.83,41.21 10.56,9.69 26.39,14.6 47.47,14.6z"/>
  <path class="fil1" d="M234.35 3870.48c-48.51,0 -86.7,-14.81 -114.68,-44.32 -28.09,-29.51 -42.06,-70.58 -42.06,-123.06 0,-52.89 12.96,-94.87 39.01,-126.02 26.04,-31.15 60.97,-46.67 104.88,-46.67 41.05,0 73.63,13.47 97.53,40.54 23.89,27.06 35.93,62.7 35.93,106.92l0 31.45 -225.89 0c1.03,38.5 10.73,67.7 29.11,87.72 18.49,19.92 44.42,29.93 78.03,29.93 35.22,0 70.15,-7.36 104.67,-22.16l0 44.32c-17.57,7.67 -34.22,13.08 -49.84,16.44 -15.63,3.27 -34.52,4.91 -56.68,4.91zm-13.48 -298.4c-26.34,0 -47.27,8.58 -62.9,25.73 -15.73,17.06 -24.93,40.76 -27.67,71.07l171.35 0c0,-31.24 -6.94,-55.25 -20.93,-71.88 -14,-16.65 -33.91,-24.93 -59.85,-24.93zm443.21 292.28l0 -212.1c0,-26.77 -6.02,-46.68 -18.28,-59.85 -12.15,-13.16 -31.24,-19.71 -57.19,-19.71 -34.31,0 -59.43,9.29 -75.37,27.78 -16.03,18.57 -23.99,49.22 -23.99,91.9l0 171.98 -49.63 0 0 -327.81 40.34 0 8.05 44.74 2.45 0c10.22,-16.14 24.42,-28.7 42.8,-37.6 18.37,-8.88 38.8,-13.26 61.37,-13.26 39.53,0 69.24,9.49 89.15,28.6 20.02,18.99 29.93,49.52 29.93,91.4l0 213.94 -49.63 0zm257.55 -34.93c8.78,0 17.26,-0.6 25.42,-1.94 8.18,-1.32 14.61,-2.64 19.41,-4.08l0 38.09c-5.41,2.55 -13.27,4.71 -23.8,6.44 -10.42,1.74 -19.91,2.55 -28.29,2.55 -63.42,0 -95.08,-33.38 -95.08,-100.28l0 -195.05 -46.97 0 0 -23.89 46.97 -20.73 20.95 -69.96 28.69 0 0 75.98 95.18 0 0 38.6 -95.18 0 0 192.91c0,19.81 4.7,34.92 14.09,45.54 9.39,10.52 22.27,15.83 38.61,15.83zm160.03 34.93l-49.63 0 0 -327.81 49.63 0 0 327.81zm-53.83 -416.87c0,-11.33 2.77,-19.6 8.38,-24.91 5.62,-5.32 12.57,-7.96 20.95,-7.96 7.95,0 14.9,2.64 20.62,8.05 5.82,5.42 8.68,13.7 8.68,24.82 0,11.23 -2.86,19.61 -8.68,25.02 -5.72,5.51 -12.67,8.28 -20.62,8.28 -8.38,0 -15.32,-2.77 -20.95,-8.28 -5.61,-5.41 -8.38,-13.79 -8.38,-25.02zm382.45 372.95l-2.65 0c-22.98,33.39 -57.3,50.04 -102.93,50.04 -42.9,0 -76.29,-14.7 -100.19,-44.01 -23.79,-29.3 -35.74,-71.07 -35.74,-125.1 0,-54.12 11.95,-96.1 35.95,-126.01 23.89,-29.93 57.29,-44.94 99.98,-44.94 44.42,0 78.52,16.13 102.32,48.51l3.88 0 -2.04 -23.69 -1.23 -22.99 0 -133.58 49.63 0 0 465.69 -40.34 0 -6.64 -43.91zm-99.37 8.38c33.91,0 58.52,-9.2 73.84,-27.67 15.22,-18.49 22.88,-48.21 22.88,-89.36l0 -10.42c0,-46.47 -7.75,-79.65 -23.19,-99.46 -15.52,-19.92 -40.22,-29.82 -74.13,-29.82 -29.11,0 -51.36,11.33 -66.9,34.01 -15.42,22.57 -23.18,54.54 -23.18,95.9 0,41.87 7.66,73.43 23.08,94.76 15.32,21.34 37.89,32.07 67.6,32.07zm453.23 35.54l-9.9 -46.68 -2.45 0c-16.34,20.53 -32.57,34.52 -48.81,41.87 -16.34,7.26 -36.56,10.93 -60.88,10.93 -32.57,0 -57.99,-8.38 -76.48,-25.13 -18.38,-16.84 -27.67,-40.63 -27.67,-71.69 0,-66.27 52.99,-101 158.8,-104.16l55.66 -1.84 0 -20.32c0,-25.63 -5.51,-44.63 -16.55,-56.88 -11.12,-12.25 -28.79,-18.38 -53.09,-18.38 -27.37,0 -58.21,8.38 -92.72,25.12l-15.22 -37.98c16.13,-8.79 33.8,-15.73 53,-20.73 19.3,-5 38.6,-7.45 57.91,-7.45 39.11,0 68.01,8.67 86.9,26.04 18.88,17.36 28.28,45.13 28.28,83.43l0 223.85 -36.75 0zm-112.24 -34.93c30.95,0 55.26,-8.47 72.82,-25.42 17.67,-16.95 26.55,-40.64 26.55,-71.18l0 -29.61 -49.73 2.14c-39.43,1.33 -67.92,7.46 -85.37,18.39 -17.48,10.82 -26.14,27.77 -26.14,50.64 0,17.98 5.41,31.67 16.34,40.97 10.82,9.39 26.03,14.08 45.53,14.08zm474.67 -8.98l-2.66 0c-22.97,33.39 -57.29,50.04 -102.93,50.04 -42.89,0 -76.28,-14.7 -100.18,-44.01 -23.79,-29.3 -35.74,-71.07 -35.74,-125.1 0,-54.12 11.95,-96.1 35.95,-126.01 23.89,-29.93 57.29,-44.94 99.97,-44.94 44.43,0 78.53,16.13 102.33,48.51l3.88 0 -2.04 -23.69 -1.24 -22.99 0 -133.58 49.63 0 0 465.69 -40.33 0 -6.64 -43.91zm-99.37 8.38c33.91,0 58.52,-9.2 73.84,-27.67 15.21,-18.49 22.87,-48.21 22.87,-89.36l0 -10.42c0,-46.47 -7.75,-79.65 -23.18,-99.46 -15.52,-19.92 -40.23,-29.82 -74.13,-29.82 -29.11,0 -51.37,11.33 -66.9,34.01 -15.42,22.57 -23.18,54.54 -23.18,95.9 0,41.87 7.66,73.43 23.08,94.76 15.32,21.34 37.89,32.07 67.6,32.07zm390.12 41.66c-48.52,0 -86.71,-14.81 -114.69,-44.32 -28.09,-29.51 -42.06,-70.58 -42.06,-123.06 0,-52.89 12.96,-94.87 39.01,-126.02 26.04,-31.15 60.97,-46.67 104.88,-46.67 41.05,0 73.63,13.47 97.53,40.54 23.89,27.06 35.94,62.7 35.94,106.92l0 31.45 -225.89 0c1.02,38.5 10.72,67.7 29.1,87.72 18.49,19.92 44.42,29.93 78.03,29.93 35.22,0 70.15,-7.36 104.67,-22.16l0 44.32c-17.57,7.67 -34.22,13.08 -49.84,16.44 -15.63,3.27 -34.52,4.91 -56.67,4.91zm-13.49 -298.4c-26.34,0 -47.27,8.58 -62.9,25.73 -15.73,17.06 -24.92,40.76 -27.67,71.07l171.36 0c0,-31.24 -6.95,-55.25 -20.94,-71.88 -14,-16.65 -33.91,-24.93 -59.85,-24.93zm430.24 202.92c0,30.53 -11.43,54.13 -34.1,70.66 -22.78,16.55 -54.64,24.82 -95.8,24.82 -43.4,0 -77.3,-6.84 -101.71,-20.62l0 -46.17c15.83,7.96 32.68,14.3 50.75,18.89 18.08,4.61 35.45,6.84 52.19,6.84 25.94,0 45.85,-4.17 59.84,-12.45 14,-8.28 20.95,-20.84 20.95,-37.79 0,-12.77 -5.52,-23.69 -16.65,-32.78 -11.03,-9.09 -32.58,-19.81 -64.74,-32.18 -30.54,-11.43 -52.19,-21.34 -65.06,-29.81 -12.86,-8.47 -22.46,-18.07 -28.7,-28.9 -6.32,-10.71 -9.4,-23.59 -9.4,-38.59 0,-26.76 10.83,-47.79 32.59,-63.31 21.75,-15.44 51.57,-23.19 89.45,-23.19 35.22,0 69.75,7.15 103.45,21.54l-17.67 40.44c-32.89,-13.58 -62.71,-20.32 -89.35,-20.32 -23.59,0 -41.36,3.68 -53.3,11.02 -11.96,7.47 -17.98,17.58 -17.98,30.54 0,8.79 2.25,16.24 6.74,22.47 4.49,6.12 11.74,12.05 21.75,17.67 9.9,5.51 29.11,13.69 57.39,24.2 38.92,14.2 65.17,28.49 78.85,42.79 13.69,14.4 20.52,32.48 20.52,54.23zm463.23 45.44l-2.66 0c-22.97,33.39 -57.29,50.04 -102.93,50.04 -42.89,0 -76.28,-14.7 -100.19,-44.01 -23.79,-29.3 -35.73,-71.07 -35.73,-125.1 0,-54.12 11.94,-96.1 35.94,-126.01 23.89,-29.93 57.3,-44.94 99.98,-44.94 44.43,0 78.52,16.13 102.32,48.51l3.88 0 -2.04 -23.69 -1.23 -22.99 0 -133.58 49.63 0 0 465.69 -40.34 0 -6.63 -43.91zm-99.37 8.38c33.91,0 58.51,-9.2 73.84,-27.67 15.21,-18.49 22.87,-48.21 22.87,-89.36l0 -10.42c0,-46.47 -7.75,-79.65 -23.18,-99.46 -15.52,-19.92 -40.23,-29.82 -74.14,-29.82 -29.1,0 -51.36,11.33 -66.89,34.01 -15.42,22.57 -23.18,54.54 -23.18,95.9 0,41.87 7.66,73.43 23.08,94.76 15.31,21.34 37.89,32.07 67.6,32.07zm390.11 41.66c-48.51,0 -86.7,-14.81 -114.68,-44.32 -28.09,-29.51 -42.07,-70.58 -42.07,-123.06 0,-52.89 12.97,-94.87 39.02,-126.02 26.03,-31.15 60.97,-46.67 104.88,-46.67 41.05,0 73.63,13.47 97.53,40.54 23.88,27.06 35.93,62.7 35.93,106.92l0 31.45 -225.89 0c1.03,38.5 10.73,67.7 29.11,87.72 18.48,19.92 44.42,29.93 78.02,29.93 35.22,0 70.16,-7.36 104.68,-22.16l0 44.32c-17.58,7.67 -34.22,13.08 -49.84,16.44 -15.64,3.27 -34.52,4.91 -56.68,4.91zm-13.48 -298.4c-26.35,0 -47.27,8.58 -62.9,25.73 -15.73,17.06 -24.93,40.76 -27.67,71.07l171.35 0c0,-31.24 -6.94,-55.25 -20.93,-71.88 -14,-16.65 -33.91,-24.93 -59.85,-24.93zm268.38 292.28l-49.63 0 0 -465.69 49.63 0 0 465.69zm417.15 6.12c-21.34,0 -40.84,-3.98 -58.5,-11.85 -17.58,-7.87 -32.48,-20.01 -44.43,-36.35l-3.58 0c2.35,19.09 3.58,37.27 3.58,54.42l0 134.71 -49.63 0 0 -474.87 40.34 0 6.94 44.74 2.35 0c12.75,-17.99 27.67,-30.95 44.62,-38.92 16.96,-7.96 36.36,-11.95 58.31,-11.95 43.51,0 77.11,14.91 100.8,44.63 23.59,29.71 35.44,71.38 35.44,125.1 0,53.91 -12.06,95.78 -36.04,125.6 -24.1,29.81 -57.41,44.73 -100.19,44.73zm-7.14 -297.79c-33.5,0 -57.8,9.29 -72.72,27.78 -15,18.57 -22.67,48.09 -23.07,88.64l0 11.03c0,46.04 7.65,79.04 23.07,98.85 15.32,19.92 40.04,29.82 73.94,29.82 28.3,0 50.56,-11.44 66.58,-34.42 16.04,-22.99 24.1,-54.54 24.1,-94.86 0,-40.85 -8.06,-72.21 -24.1,-94.06 -16.02,-21.86 -38.69,-32.78 -67.8,-32.78zm431.67 291.66l-9.9 -46.68 -2.45 0c-16.33,20.53 -32.57,34.52 -48.81,41.87 -16.34,7.26 -36.56,10.93 -60.87,10.93 -32.58,0 -58,-8.38 -76.49,-25.13 -18.37,-16.84 -27.67,-40.63 -27.67,-71.69 0,-66.27 52.99,-101 158.8,-104.16l55.66 -1.84 0 -20.32c0,-25.63 -5.51,-44.63 -16.55,-56.88 -11.12,-12.25 -28.79,-18.38 -53.09,-18.38 -27.37,0 -58.2,8.38 -92.72,25.12l-15.21 -37.98c16.12,-8.79 33.79,-15.73 52.99,-20.73 19.3,-5 38.6,-7.45 57.91,-7.45 39.11,0 68.01,8.67 86.9,26.04 18.88,17.36 28.28,45.13 28.28,83.43l0 223.85 -36.75 0zm-112.23 -34.93c30.94,0 55.25,-8.47 72.81,-25.42 17.67,-16.95 26.56,-40.64 26.56,-71.18l0 -29.61 -49.74 2.14c-39.42,1.33 -67.92,7.46 -85.37,18.39 -17.48,10.82 -26.14,27.77 -26.14,50.64 0,17.98 5.41,31.67 16.34,40.97 10.82,9.39 26.04,14.08 45.54,14.08zm301.06 34.93l-49.63 0 0 -327.81 49.63 0 0 327.81zm-51.58 -378.77c9.59,-12.36 19.91,-27.28 30.94,-44.84 11.13,-17.57 19.81,-32.78 26.14,-45.75l60.44 0 0 6.22c-8.77,12.98 -21.84,28.91 -39.21,47.9 -17.26,18.89 -32.37,33.6 -45.14,43.91l-33.18 0 0 -7.45zm368.45 289.41c0,30.53 -11.43,54.13 -34.11,70.66 -22.77,16.55 -54.63,24.82 -95.8,24.82 -43.4,0 -77.3,-6.84 -101.7,-20.62l0 -46.17c15.83,7.96 32.67,14.3 50.75,18.89 18.08,4.61 35.44,6.84 52.19,6.84 25.94,0 45.85,-4.17 59.84,-12.45 14,-8.28 20.94,-20.84 20.94,-37.79 0,-12.77 -5.51,-23.69 -16.65,-32.78 -11.02,-9.09 -32.57,-19.81 -64.74,-32.18 -30.53,-11.43 -52.19,-21.34 -65.05,-29.81 -12.87,-8.47 -22.47,-18.07 -28.71,-28.9 -6.31,-10.71 -9.39,-23.59 -9.39,-38.59 0,-26.76 10.83,-47.79 32.59,-63.31 21.75,-15.44 51.57,-23.19 89.45,-23.19 35.22,0 69.74,7.15 103.44,21.54l-17.67 40.44c-32.88,-13.58 -62.7,-20.32 -89.35,-20.32 -23.59,0 -41.36,3.68 -53.3,11.02 -11.96,7.47 -17.98,17.58 -17.98,30.54 0,8.79 2.25,16.24 6.75,22.47 4.49,6.12 11.74,12.05 21.75,17.67 9.9,5.51 29.1,13.69 57.39,24.2 38.91,14.2 65.16,28.49 78.84,42.79 13.69,14.4 20.53,32.48 20.53,54.23z"/>
  <path class="fil1" d="M14720.05 3816.77l-2.66 0c-22.97,33.39 -57.29,50.04 -102.93,50.04 -42.89,0 -76.29,-14.7 -100.19,-44.01 -23.79,-29.3 -35.73,-71.07 -35.73,-125.1 0,-54.12 11.94,-96.1 35.94,-126.01 23.89,-29.93 57.29,-44.94 99.98,-44.94 44.43,0 78.52,16.13 102.32,48.51l3.88 0 -2.04 -23.69 -1.23 -22.99 0 -133.58 49.63 0 0 465.69 -40.34 0 -6.63 -43.91zm-99.37 8.38c33.91,0 58.51,-9.2 73.84,-27.67 15.21,-18.49 22.87,-48.21 22.87,-89.36l0 -10.42c0,-46.47 -7.75,-79.65 -23.18,-99.46 -15.52,-19.92 -40.23,-29.82 -74.14,-29.82 -29.1,0 -51.36,11.33 -66.89,34.01 -15.42,22.57 -23.19,54.54 -23.19,95.9 0,41.87 7.67,73.43 23.09,94.76 15.31,21.34 37.89,32.07 67.6,32.07zm390.11 41.66c-48.51,0 -86.7,-14.81 -114.68,-44.32 -28.09,-29.51 -42.07,-70.58 -42.07,-123.06 0,-52.89 12.97,-94.87 39.02,-126.02 26.03,-31.15 60.97,-46.67 104.88,-46.67 41.05,0 73.62,13.47 97.53,40.54 23.88,27.06 35.93,62.7 35.93,106.92l0 31.45 -225.89 0c1.03,38.5 10.73,67.7 29.1,87.72 18.49,19.92 44.43,29.93 78.03,29.93 35.22,0 70.16,-7.36 104.67,-22.16l0 44.32c-17.57,7.67 -34.21,13.08 -49.83,16.44 -15.64,3.27 -34.52,4.91 -56.68,4.91zm-13.48 -298.4c-26.35,0 -47.27,8.58 -62.9,25.73 -15.73,17.06 -24.93,40.76 -27.67,71.07l171.35 0c0,-31.24 -6.94,-55.25 -20.93,-71.88 -14,-16.65 -33.91,-24.93 -59.85,-24.93zm629.18 292.28l-243.77 0 0 -437.5 243.77 0 0 45.34 -192.92 0 0 140.93 181.26 0 0 44.74 -181.26 0 0 161.15 192.92 0 0 45.34zm507.33 0l0 -213.34c0,-26.04 -5.52,-45.64 -16.75,-58.71 -11.12,-13.06 -28.48,-19.61 -51.98,-19.61 -30.94,0 -53.72,8.88 -68.52,26.65 -14.71,17.77 -22.16,45.05 -22.16,81.91l0 183.1 -49.63 0 0 -213.34c0,-26.04 -5.61,-45.64 -16.75,-58.71 -11.12,-13.06 -28.59,-19.61 -52.38,-19.61 -31.04,0 -53.82,9.29 -68.31,27.98 -14.41,18.58 -21.66,49.22 -21.66,91.7l0 171.98 -49.63 0 0 -327.81 40.34 0 8.06 44.74 2.45 0c9.29,-15.95 22.56,-28.4 39.62,-37.39 17.05,-8.98 36.16,-13.47 57.3,-13.47 51.15,0 84.76,18.58 100.49,55.65l2.34 0c9.8,-17.14 24,-30.73 42.47,-40.74 18.59,-9.9 39.74,-14.91 63.43,-14.91 37.07,0 64.85,9.49 83.33,28.6 18.37,18.99 27.67,49.52 27.67,91.4l0 213.94 -49.74 0zm304.73 -333.32c43.1,0 76.59,14.7 100.49,44.1 23.8,29.52 35.75,71.19 35.75,125.01 0,53.91 -12.06,95.78 -36.04,125.6 -24.1,29.81 -57.41,44.73 -100.19,44.73 -21.34,0 -40.84,-3.98 -58.5,-11.86 -17.58,-7.86 -32.48,-20 -44.43,-36.34l-3.58 0 -10.52 42.07 -35.54 0 0 -465.69 49.63 0 0 113.17c0,25.32 -0.82,48.09 -2.35,68.31l2.35 0c23.18,-32.77 57.49,-49.11 102.93,-49.11zm-7.14 41.66c-33.91,0 -58.31,9.7 -73.33,29.21 -15.01,19.4 -22.46,52.18 -22.46,98.24 0,46.04 7.65,79.04 23.07,98.85 15.31,19.92 40.04,29.82 73.94,29.82 30.53,0 53.31,-11.14 68.23,-33.4 15,-22.15 22.45,-54.12 22.45,-95.88 0,-42.7 -7.45,-74.45 -22.45,-95.39 -14.91,-20.93 -38.09,-31.45 -69.44,-31.45zm431.67 291.66l-9.9 -46.68 -2.45 0c-16.33,20.53 -32.57,34.52 -48.81,41.87 -16.34,7.25 -36.56,10.93 -60.88,10.93 -32.57,0 -57.99,-8.38 -76.48,-25.13 -18.38,-16.84 -27.67,-40.63 -27.67,-71.69 0,-66.27 52.99,-101 158.8,-104.16l55.66 -1.84 0 -20.32c0,-25.63 -5.51,-44.63 -16.55,-56.88 -11.12,-12.25 -28.79,-18.38 -53.09,-18.38 -27.37,0 -58.21,8.38 -92.72,25.12l-15.22 -37.98c16.13,-8.79 33.8,-15.74 53,-20.73 19.3,-5 38.6,-7.45 57.91,-7.45 39.11,0 68.01,8.67 86.9,26.04 18.88,17.36 28.28,45.13 28.28,83.43l0 223.85 -36.75 0zm-112.23 -34.93c30.94,0 55.25,-8.47 72.81,-25.42 17.67,-16.95 26.56,-40.64 26.56,-71.18l0 -29.61 -49.74 2.14c-39.43,1.33 -67.92,7.46 -85.37,18.39 -17.48,10.82 -26.14,27.77 -26.14,50.64 0,17.98 5.41,31.67 16.34,40.97 10.82,9.39 26.03,14.08 45.54,14.08zm400.92 -299c14.51,0 27.57,1.22 39.13,3.57l-6.85 46.27c-13.59,-2.96 -25.53,-4.49 -35.95,-4.49 -26.46,0 -49.12,10.72 -68.01,32.27 -18.79,21.55 -28.19,48.4 -28.19,80.47l0 175.86 -49.74 0 0 -327.81 41.05 0 5.61 60.57 2.45 0c12.16,-21.35 26.77,-37.8 43.91,-49.33 17.15,-11.54 35.95,-17.36 56.57,-17.36zm289.92 333.94l-9.9 -46.68 -2.45 0c-16.33,20.53 -32.57,34.52 -48.81,41.87 -16.34,7.25 -36.56,10.93 -60.88,10.93 -32.57,0 -57.99,-8.38 -76.48,-25.13 -18.38,-16.84 -27.67,-40.63 -27.67,-71.69 0,-66.27 52.99,-101 158.8,-104.16l55.66 -1.84 0 -20.32c0,-25.63 -5.51,-44.63 -16.55,-56.88 -11.12,-12.25 -28.79,-18.38 -53.09,-18.38 -27.37,0 -58.21,8.38 -92.72,25.12l-15.21 -37.98c16.12,-8.79 33.79,-15.74 52.99,-20.73 19.3,-5 38.6,-7.45 57.91,-7.45 39.11,0 68.01,8.67 86.9,26.04 18.88,17.36 28.28,45.13 28.28,83.43l0 223.85 -36.75 0zm-112.23 -34.93c30.94,0 55.25,-8.47 72.81,-25.42 17.67,-16.95 26.56,-40.64 26.56,-71.18l0 -29.61 -49.74 2.14c-39.43,1.33 -67.92,7.46 -85.37,18.39 -17.48,10.82 -26.14,27.77 -26.14,50.64 0,17.98 5.41,31.67 16.34,40.97 10.82,9.39 26.04,14.08 45.54,14.08zm461.28 34.93l-238.05 0 0 -33.81 179.02 -255.41 -167.9 0 0 -38.59 222.43 0 0 38.59 -176.68 250.62 181.17 0 0 38.6zm359.78 -164.21c0,53.5 -13.48,95.27 -40.34,125.29 -26.97,30.03 -64.13,45.04 -111.62,45.04 -29.31,0 -55.36,-6.84 -78.12,-20.62 -22.68,-13.79 -40.23,-33.61 -52.59,-59.34 -12.47,-25.73 -18.58,-55.86 -18.58,-90.37 0,-53.53 13.37,-95.18 40.12,-125.01 26.66,-29.8 63.83,-44.72 111.22,-44.72 45.95,0 82.32,15.2 109.38,45.74 27.06,30.54 40.54,71.9 40.54,123.99zm-249.8 0c0,41.86 8.38,73.83 25.13,95.78 16.74,21.96 41.36,32.89 73.94,32.89 32.47,0 57.19,-10.93 74.03,-32.79 16.86,-21.85 25.24,-53.82 25.24,-95.88 0,-41.68 -8.38,-73.34 -25.24,-94.99 -16.84,-21.65 -41.76,-32.47 -74.64,-32.47 -32.58,0 -57.09,10.62 -73.63,31.97 -16.55,21.34 -24.83,53.2 -24.83,95.49zm548.4 74.85c0,30.53 -11.43,54.13 -34.11,70.66 -22.77,16.55 -54.63,24.82 -95.8,24.82 -43.4,0 -77.29,-6.84 -101.7,-20.62l0 -46.17c15.83,7.96 32.67,14.3 50.75,18.89 18.08,4.61 35.44,6.84 52.19,6.84 25.94,0 45.85,-4.17 59.84,-12.45 14,-8.28 20.94,-20.84 20.94,-37.79 0,-12.77 -5.51,-23.69 -16.64,-32.78 -11.03,-9.09 -32.58,-19.81 -64.75,-32.18 -30.53,-11.43 -52.18,-21.34 -65.05,-29.81 -12.86,-8.47 -22.47,-18.08 -28.71,-28.9 -6.31,-10.71 -9.39,-23.59 -9.39,-38.6 0,-26.75 10.83,-47.78 32.59,-63.3 21.75,-15.44 51.57,-23.19 89.45,-23.19 35.22,0 69.74,7.14 103.45,21.54l-17.68 40.44c-32.88,-13.58 -62.7,-20.32 -89.34,-20.32 -23.6,0 -41.37,3.68 -53.3,11.02 -11.97,7.47 -17.99,17.58 -17.99,30.54 0,8.79 2.25,16.24 6.75,22.47 4.49,6.12 11.74,12.05 21.75,17.67 9.9,5.51 29.1,13.69 57.39,24.2 38.91,14.2 65.16,28.49 78.84,42.79 13.7,14.4 20.53,32.48 20.53,54.23z"/>
  <path class="fil1" d="M5669.94 3530.42c14.51,0 27.57,1.23 39.12,3.57l-6.84 46.27c-13.6,-2.96 -25.54,-4.49 -35.95,-4.49 -26.46,0 -49.13,10.72 -68.02,32.27 -18.78,21.55 -28.19,48.41 -28.19,80.47l0 175.86 -49.74 0 0 -327.81 41.06 0 5.61 60.57 2.44 0c12.16,-21.35 26.77,-37.79 43.91,-49.33 17.16,-11.54 35.95,-17.36 56.58,-17.36zm226.8 340.06c-48.51,0 -86.7,-14.81 -114.68,-44.32 -28.09,-29.51 -42.07,-70.58 -42.07,-123.06 0,-52.89 12.97,-94.87 39.02,-126.02 26.04,-31.15 60.97,-46.67 104.88,-46.67 41.05,0 73.63,13.47 97.53,40.54 23.89,27.06 35.93,62.7 35.93,106.92l0 31.45 -225.89 0c1.03,38.5 10.73,67.7 29.11,87.72 18.48,19.92 44.42,29.93 78.03,29.93 35.22,0 70.15,-7.36 104.67,-22.16l0 44.32c-17.58,7.67 -34.22,13.08 -49.84,16.44 -15.63,3.27 -34.52,4.91 -56.68,4.91zm-13.48 -298.4c-26.35,0 -47.27,8.58 -62.9,25.73 -15.73,17.06 -24.93,40.76 -27.67,71.07l171.35 0c0,-31.24 -6.94,-55.25 -20.93,-71.88 -14,-16.65 -33.91,-24.93 -59.85,-24.93zm487.11 -35.54l0 31.45 -60.66 7.15c5.51,6.94 10.53,16.13 14.92,27.37 4.37,11.23 6.53,23.89 6.53,38.09 0,32.06 -10.92,57.69 -32.88,76.79 -21.95,19.1 -52.09,28.69 -90.38,28.69 -9.8,0 -18.89,-0.81 -27.57,-2.35 -21.14,11.14 -31.66,25.24 -31.66,42.18 0,8.99 3.67,15.64 11.03,19.91 7.45,4.29 20.12,6.44 38.08,6.44l58.01 0c35.54,0 62.8,7.45 81.9,22.47 19,14.9 28.5,36.65 28.5,65.15 0,36.26 -14.51,63.93 -43.62,82.92 -29.2,19.1 -71.68,28.6 -127.54,28.6 -42.89,0 -75.99,-7.96 -99.17,-23.89 -23.28,-15.93 -34.91,-38.5 -34.91,-67.5 0,-19.91 6.43,-37.19 19.2,-51.78 12.75,-14.51 30.73,-24.42 53.82,-29.51 -8.38,-3.88 -15.44,-9.71 -21.05,-17.67 -5.72,-8.06 -8.57,-17.37 -8.57,-27.87 0,-12.06 3.26,-22.47 9.59,-31.45 6.43,-8.99 16.43,-17.68 30.22,-26.04 -16.94,-7.05 -30.73,-18.89 -41.46,-35.64 -10.61,-16.75 -16.02,-35.95 -16.02,-57.5 0,-35.85 10.82,-63.52 32.36,-82.93 21.55,-19.51 52.09,-29.2 91.61,-29.2 17.15,0 32.57,2.04 46.36,6.12l113.36 0zm-261.53 382.86c0,17.67 7.46,31.14 22.46,40.33 14.92,9.09 36.36,13.69 64.35,13.69 41.65,0 72.6,-6.22 92.62,-18.69 20.01,-12.36 30.13,-29.3 30.13,-50.54 0,-17.77 -5.52,-30.03 -16.55,-36.87 -10.93,-6.84 -31.55,-10.32 -61.88,-10.32l-59.54 0c-22.56,0 -40.12,5.42 -52.69,16.14 -12.56,10.73 -18.89,26.14 -18.89,46.27zm26.96 -277.98c0,22.97 6.45,40.34 19.41,52.08 12.96,11.74 31.04,17.67 54.23,17.67 48.5,0 72.7,-23.59 72.7,-70.66 0,-49.32 -24.51,-73.94 -73.63,-73.94 -23.38,0 -41.36,6.34 -53.92,18.88 -12.56,12.57 -18.79,31.26 -18.79,55.97zm351.51 222.93l-49.63 0 0 -327.81 49.63 0 0 327.81zm-53.84 -416.87c0,-11.33 2.77,-19.6 8.38,-24.91 5.63,-5.32 12.57,-7.96 20.95,-7.96 7.96,0 14.9,2.64 20.62,8.05 5.83,5.42 8.68,13.7 8.68,24.82 0,11.23 -2.85,19.61 -8.68,25.02 -5.72,5.51 -12.66,8.28 -20.62,8.28 -8.38,0 -15.31,-2.77 -20.95,-8.28 -5.61,-5.41 -8.38,-13.79 -8.38,-25.02zm370.71 327.51c0,30.53 -11.44,54.13 -34.11,70.66 -22.78,16.55 -54.64,24.82 -95.8,24.82 -43.4,0 -77.3,-6.84 -101.71,-20.62l0 -46.17c15.83,7.96 32.68,14.3 50.76,18.89 18.08,4.61 35.44,6.84 52.18,6.84 25.94,0 45.85,-4.17 59.84,-12.45 14,-8.28 20.95,-20.84 20.95,-37.79 0,-12.77 -5.51,-23.69 -16.65,-32.78 -11.02,-9.09 -32.57,-19.81 -64.74,-32.18 -30.54,-11.43 -52.19,-21.34 -65.05,-29.81 -12.87,-8.47 -22.47,-18.07 -28.71,-28.9 -6.32,-10.71 -9.39,-23.59 -9.39,-38.59 0,-26.76 10.82,-47.79 32.58,-63.31 21.75,-15.44 51.57,-23.19 89.45,-23.19 35.22,0 69.75,7.15 103.45,21.54l-17.67 40.44c-32.89,-13.58 -62.7,-20.32 -89.35,-20.32 -23.59,0 -41.36,3.68 -53.3,11.02 -11.96,7.47 -17.98,17.58 -17.98,30.54 0,8.79 2.25,16.24 6.75,22.47 4.48,6.12 11.74,12.05 21.75,17.67 9.9,5.51 29.1,13.69 57.39,24.2 38.91,14.2 65.16,28.49 78.84,42.79 13.69,14.4 20.53,32.48 20.53,54.23zm186.67 54.42c8.79,0 17.27,-0.6 25.43,-1.94 8.18,-1.32 14.6,-2.64 19.41,-4.08l0 38.09c-5.41,2.55 -13.27,4.71 -23.8,6.44 -10.42,1.74 -19.91,2.55 -28.29,2.55 -63.42,0 -95.08,-33.38 -95.08,-100.28l0 -195.05 -46.97 0 0 -23.89 46.97 -20.73 20.95 -69.96 28.69 0 0 75.98 95.18 0 0 38.6 -95.18 0 0 192.91c0,19.81 4.7,34.92 14.09,45.54 9.39,10.52 22.27,15.83 38.6,15.83zm259.9 -299c14.51,0 27.57,1.23 39.13,3.57l-6.85 46.27c-13.59,-2.96 -25.53,-4.49 -35.95,-4.49 -26.45,0 -49.12,10.72 -68.01,32.27 -18.79,21.55 -28.19,48.41 -28.19,80.47l0 175.86 -49.74 0 0 -327.81 41.05 0 5.61 60.57 2.45 0c12.16,-21.35 26.77,-37.79 43.91,-49.33 17.15,-11.54 35.95,-17.36 56.57,-17.36zm289.92 333.94l-9.9 -46.68 -2.45 0c-16.33,20.53 -32.57,34.52 -48.81,41.87 -16.34,7.26 -36.56,10.93 -60.87,10.93 -32.58,0 -58,-8.38 -76.49,-25.13 -18.37,-16.84 -27.67,-40.63 -27.67,-71.69 0,-66.27 52.99,-101 158.8,-104.16l55.66 -1.84 0 -20.32c0,-25.63 -5.51,-44.63 -16.55,-56.88 -11.12,-12.25 -28.79,-18.38 -53.09,-18.38 -27.37,0 -58.2,8.38 -92.72,25.12l-15.21 -37.98c16.12,-8.79 33.79,-15.73 52.99,-20.73 19.3,-5 38.6,-7.45 57.91,-7.45 39.11,0 68.01,8.67 86.9,26.04 18.88,17.36 28.28,45.13 28.28,83.43l0 223.85 -36.75 0zm-112.23 -34.93c30.94,0 55.25,-8.47 72.81,-25.42 17.67,-16.95 26.56,-40.64 26.56,-71.18l0 -29.61 -49.74 2.14c-39.42,1.33 -67.92,7.46 -85.37,18.39 -17.48,10.82 -26.14,27.77 -26.14,50.64 0,17.98 5.41,31.67 16.34,40.97 10.82,9.39 26.04,14.08 45.54,14.08zm400.92 -299c14.51,0 27.58,1.23 39.13,3.57l-6.85 46.27c-13.59,-2.96 -25.53,-4.49 -35.95,-4.49 -26.45,0 -49.12,10.72 -68.01,32.27 -18.79,21.55 -28.19,48.41 -28.19,80.47l0 175.86 -49.74 0 0 -327.81 41.05 0 5.61 60.57 2.45 0c12.16,-21.35 26.77,-37.79 43.91,-49.33 17.15,-11.54 35.95,-17.36 56.57,-17.36zm371.31 169.73c0,53.5 -13.47,95.27 -40.34,125.29 -26.96,30.03 -64.12,45.04 -111.61,45.04 -29.32,0 -55.36,-6.84 -78.13,-20.62 -22.68,-13.79 -40.23,-33.61 -52.58,-59.34 -12.47,-25.73 -18.59,-55.86 -18.59,-90.37 0,-53.53 13.37,-95.18 40.13,-125 26.65,-29.81 63.83,-44.73 111.22,-44.73 45.94,0 82.31,15.2 109.38,45.74 27.06,30.54 40.53,71.9 40.53,123.99zm-249.79 0c0,41.86 8.38,73.83 25.12,95.78 16.75,21.96 41.37,32.89 73.94,32.89 32.48,0 57.19,-10.93 74.04,-32.79 16.85,-21.85 25.23,-53.82 25.23,-95.88 0,-41.68 -8.38,-73.34 -25.23,-94.99 -16.85,-21.65 -41.76,-32.47 -74.65,-32.47 -32.57,0 -57.09,10.62 -73.62,31.97 -16.55,21.34 -24.83,53.2 -24.83,95.49zm561.37 164.21l0 -212.1c0,-26.77 -6.02,-46.68 -18.28,-59.85 -12.15,-13.16 -31.24,-19.71 -57.19,-19.71 -34.31,0 -59.43,9.29 -75.37,27.78 -16.03,18.57 -23.99,49.22 -23.99,91.9l0 171.98 -49.63 0 0 -327.81 40.34 0 8.06 44.74 2.45 0c10.21,-16.14 24.41,-28.7 42.79,-37.6 18.38,-8.88 38.81,-13.26 61.37,-13.26 39.53,0 69.24,9.49 89.15,28.6 20.02,18.99 29.93,49.52 29.93,91.4l0 213.94 -49.63 0zm728.64 0l0 -213.34c0,-26.04 -5.52,-45.64 -16.75,-58.71 -11.12,-13.06 -28.49,-19.61 -51.98,-19.61 -30.94,0 -53.72,8.88 -68.52,26.65 -14.71,17.77 -22.16,45.05 -22.16,81.91l0 183.1 -49.63 0 0 -213.34c0,-26.04 -5.61,-45.64 -16.75,-58.71 -11.12,-13.06 -28.59,-19.61 -52.38,-19.61 -31.04,0 -53.82,9.29 -68.32,27.98 -14.4,18.58 -21.65,49.22 -21.65,91.7l0 171.98 -49.63 0 0 -327.81 40.34 0 8.06 44.74 2.45 0c9.29,-15.95 22.56,-28.4 39.62,-37.39 17.05,-8.98 36.15,-13.47 57.3,-13.47 51.15,0 84.76,18.58 100.49,55.65l2.34 0c9.8,-17.14 24,-30.73 42.47,-40.74 18.59,-9.9 39.73,-14.91 63.42,-14.91 37.08,0 64.86,9.49 83.33,28.6 18.38,18.99 27.67,49.52 27.67,91.4l0 213.94 -49.73 0zm353.75 0l-9.9 -46.68 -2.45 0c-16.33,20.53 -32.57,34.52 -48.81,41.87 -16.34,7.26 -36.55,10.93 -60.87,10.93 -32.58,0 -58,-8.38 -76.49,-25.13 -18.37,-16.84 -27.67,-40.63 -27.67,-71.69 0,-66.27 52.99,-101 158.8,-104.16l55.66 -1.84 0 -20.32c0,-25.63 -5.51,-44.63 -16.55,-56.88 -11.12,-12.25 -28.79,-18.38 -53.09,-18.38 -27.37,0 -58.2,8.38 -92.72,25.12l-15.21 -37.98c16.12,-8.79 33.8,-15.73 52.99,-20.73 19.3,-5 38.61,-7.45 57.91,-7.45 39.11,0 68.01,8.67 86.9,26.04 18.88,17.36 28.29,45.13 28.29,83.43l0 223.85 -36.76 0zm-112.23 -34.93c30.94,0 55.25,-8.47 72.81,-25.42 17.67,-16.95 26.56,-40.64 26.56,-71.18l0 -29.61 -49.74 2.14c-39.42,1.33 -67.92,7.46 -85.37,18.39 -17.47,10.82 -26.14,27.77 -26.14,50.64 0,17.98 5.41,31.67 16.34,40.97 10.82,9.39 26.04,14.08 45.54,14.08zm-11.63 -343.83c9.59,-12.36 19.91,-27.28 30.93,-44.84 11.13,-17.57 19.82,-32.78 26.14,-45.75l60.45 0 0 6.22c-8.78,12.98 -21.85,28.91 -39.22,47.9 -17.26,18.89 -32.36,33.6 -45.13,43.91l-33.18 0 0 -7.45zm474.55 289.41c0,30.53 -11.43,54.13 -34.1,70.66 -22.78,16.55 -54.64,24.82 -95.8,24.82 -43.4,0 -77.3,-6.84 -101.71,-20.62l0 -46.17c15.83,7.96 32.67,14.3 50.75,18.89 18.08,4.61 35.45,6.84 52.19,6.84 25.94,0 45.85,-4.17 59.84,-12.45 14,-8.28 20.94,-20.84 20.94,-37.79 0,-12.77 -5.51,-23.69 -16.64,-32.78 -11.03,-9.09 -32.58,-19.81 -64.74,-32.18 -30.54,-11.43 -52.19,-21.34 -65.06,-29.81 -12.86,-8.47 -22.46,-18.07 -28.7,-28.9 -6.32,-10.71 -9.4,-23.59 -9.4,-38.59 0,-26.76 10.83,-47.79 32.59,-63.31 21.75,-15.44 51.57,-23.19 89.45,-23.19 35.22,0 69.75,7.15 103.45,21.54l-17.67 40.44c-32.89,-13.58 -62.71,-20.32 -89.35,-20.32 -23.59,0 -41.36,3.68 -53.3,11.02 -11.96,7.47 -17.98,17.58 -17.98,30.54 0,8.79 2.25,16.24 6.74,22.47 4.49,6.12 11.74,12.05 21.75,17.67 9.9,5.51 29.11,13.69 57.39,24.2 38.92,14.2 65.17,28.49 78.85,42.79 13.69,14.4 20.52,32.48 20.52,54.23zm463.23 45.44l-2.66 0c-22.97,33.39 -57.29,50.04 -102.93,50.04 -42.89,0 -76.29,-14.7 -100.19,-44.01 -23.79,-29.3 -35.73,-71.07 -35.73,-125.1 0,-54.12 11.94,-96.1 35.94,-126.01 23.89,-29.93 57.29,-44.94 99.98,-44.94 44.43,0 78.52,16.13 102.32,48.51l3.88 0 -2.04 -23.69 -1.23 -22.99 0 -133.58 49.63 0 0 465.69 -40.34 0 -6.63 -43.91zm-99.37 8.38c33.91,0 58.51,-9.2 73.84,-27.67 15.21,-18.49 22.87,-48.21 22.87,-89.36l0 -10.42c0,-46.47 -7.75,-79.65 -23.18,-99.46 -15.52,-19.92 -40.23,-29.82 -74.14,-29.82 -29.1,0 -51.36,11.33 -66.89,34.01 -15.42,22.57 -23.19,54.54 -23.19,95.9 0,41.87 7.67,73.43 23.09,94.76 15.31,21.34 37.89,32.07 67.6,32.07zm390.11 41.66c-48.51,0 -86.7,-14.81 -114.68,-44.32 -28.09,-29.51 -42.07,-70.58 -42.07,-123.06 0,-52.89 12.97,-94.87 39.02,-126.02 26.03,-31.15 60.97,-46.67 104.88,-46.67 41.05,0 73.62,13.47 97.53,40.54 23.88,27.06 35.93,62.7 35.93,106.92l0 31.45 -225.89 0c1.03,38.5 10.73,67.7 29.1,87.72 18.49,19.92 44.43,29.93 78.03,29.93 35.22,0 70.16,-7.36 104.67,-22.16l0 44.32c-17.57,7.67 -34.21,13.08 -49.83,16.44 -15.64,3.27 -34.52,4.91 -56.68,4.91zm-13.48 -298.4c-26.35,0 -47.27,8.58 -62.9,25.73 -15.73,17.06 -24.93,40.76 -27.67,71.07l171.35 0c0,-31.24 -6.94,-55.25 -20.93,-71.88 -14,-16.65 -33.91,-24.93 -59.85,-24.93zm268.38 292.28l-49.63 0 0 -465.69 49.63 0 0 465.69z"/>
  <path class="fil2" d="M3849.53 1564.71c142.18,-75.92 237.89,-217.99 237.89,-380.65 0,-170.94 -105.81,-318.92 -260.27,-391.2 2.77,-13.32 4.29,-27.05 4.29,-41.14 0,-116.66 -102.29,-211.35 -228.65,-211.35l-141.41 0c-23.62,0.19 -47.14,9.55 -64.76,27.93l-4.95 5.15 0 261.59 69.71 -72.47 0 289.79 -69.71 -72.48 0 261.61 4.95 5.15c17.62,18.38 41.14,27.71 64.76,27.89l0 180.84 0 165.14 0 208.54 0 660.9c0,75.16 60.86,135.99 136.17,135.99 74.75,0 135.52,-60.84 135.52,-135.99l0 -660.9 116.46 0 0 -264.35zm10670.22 0c142.18,-75.92 237.89,-217.99 237.89,-380.65 0,-170.94 -105.81,-318.92 -260.26,-391.2 2.77,-13.32 4.28,-27.05 4.28,-41.14 0,-116.66 -102.28,-211.35 -228.63,-211.35l-141.43 0c-23.61,0.19 -47.12,9.55 -64.75,27.93l-4.95 5.15 0 261.59 69.7 -72.47 0 289.79 -69.7 -72.48 0 261.61 4.95 5.15c17.63,18.38 41.14,27.71 64.75,27.89l0 180.84 0 165.14 0 208.54 0 660.9c0,75.16 60.86,135.99 136.19,135.99 74.75,0 135.51,-60.84 135.51,-135.99l0 -660.9 116.45 0 0 -264.35zm-457.85 -1238.5l0 0 0 -197.01c36.74,-76.43 114.85,-129.19 205.22,-129.19 126.09,0 228.18,101.89 228.18,227.66 0,125.8 -102.09,227.98 -228.18,227.98 -90.37,0 -168.47,-52.9 -205.22,-129.44zm0 247.25l0 0 -21.25 22.19 -0.29 -0.3 -175.79 183.41 -36.65 37.43 0.38 0.28 -26.19 27.33c-16.84,17.53 -25.24,40.1 -25.33,62.68l0 2c0.09,22.55 8.49,45.13 25.33,62.74l26.19 27.25 -0.38 0.28 36.65 37.52 175.79 183.42 0.29 -0.38 21.25 22.18 0 -261.61 -69.62 -72.36 69.62 -72.48 0 -261.59zm0 -444.26l0 0 0 197.01c-14.29,-29.78 -22.29,-63.27 -22.29,-98.55 0,-35.3 8,-68.68 22.29,-98.46zm-727.73 1435.51c142.18,-75.92 237.89,-217.99 237.89,-380.65 0,-170.94 -105.81,-318.92 -260.27,-391.2 2.78,-13.32 4.29,-27.05 4.29,-41.14 0,-116.66 -102.29,-211.35 -228.65,-211.35l-141.41 0c-23.62,0.19 -47.13,9.55 -64.75,27.93l-4.95 5.15 0 261.59 69.7 -72.47 0 289.79 -69.7 -72.48 0 261.61 4.95 5.15c17.62,18.38 41.13,27.71 64.75,27.89l0 180.84 0 165.14 0 208.54 0 660.9c0,75.16 60.86,135.99 136.17,135.99 74.77,0 135.52,-60.84 135.52,-135.99l0 -660.9 116.46 0 0 -264.35zm-457.85 -1238.5l0 0 0 -197.01c36.74,-76.43 114.84,-129.19 205.22,-129.19 126.07,0 228.17,101.89 228.17,227.66 0,125.8 -102.1,227.98 -228.17,227.98 -90.38,0 -168.47,-52.9 -205.22,-129.44zm0 247.25l0 0 -21.25 22.19 -0.29 -0.3 -175.79 183.41 -36.67 37.43 0.39 0.28 -26.18 27.33c-16.84,17.53 -25.24,40.1 -25.33,62.68l0 2c0.09,22.55 8.49,45.13 25.33,62.74l26.18 27.25 -0.39 0.28 36.67 37.52 175.79 183.42 0.29 -0.38 21.25 22.18 0 -261.61 -69.62 -72.36 69.62 -72.48 0 -261.59zm0 -444.26l0 0 0 197.01c-14.3,-29.78 -22.29,-63.27 -22.29,-98.55 0,-35.3 7.99,-68.68 22.29,-98.46zm-727.73 1435.51c142.18,-75.92 237.89,-217.99 237.89,-380.65 0,-170.94 -105.81,-318.92 -260.27,-391.2 2.77,-13.32 4.29,-27.05 4.29,-41.14 0,-116.66 -102.29,-211.35 -228.65,-211.35l-141.41 0c-23.62,0.19 -47.13,9.55 -64.76,27.93l-4.95 5.15 0 261.59 69.71 -72.47 0 289.79 -69.71 -72.48 0 261.61 4.95 5.15c17.63,18.38 41.14,27.71 64.76,27.89l0 180.84 0 165.14 0 208.54 0 660.9c0,75.16 60.86,135.99 136.17,135.99 74.76,0 135.52,-60.84 135.52,-135.99l0 -660.9 116.46 0 0 -264.35zm-457.86 -1238.5l0 0 0 -197.01c36.75,-76.43 114.85,-129.19 205.23,-129.19 126.07,0 228.17,101.89 228.17,227.66 0,125.8 -102.1,227.98 -228.17,227.98 -90.38,0 -168.47,-52.9 -205.23,-129.44zm0 247.25l0 0 -21.24 22.19 -0.29 -0.3 -175.79 183.41 -36.67 37.43 0.39 0.28 -26.19 27.33c-16.85,17.53 -25.24,40.1 -25.33,62.68l0 2c0.09,22.55 8.48,45.13 25.33,62.74l26.19 27.25 -0.39 0.28 36.67 37.52 175.79 183.42 0.29 -0.38 21.24 22.18 0 -261.61 -69.62 -72.36 69.62 -72.48 0 -261.59zm0 -444.26l0 0 0 197.01c-14.29,-29.78 -22.28,-63.27 -22.28,-98.55 0,-35.3 7.99,-68.68 22.28,-98.46zm-727.73 1435.51c142.19,-75.92 237.9,-217.99 237.9,-380.65 0,-170.94 -105.81,-318.92 -260.27,-391.2 2.77,-13.32 4.28,-27.05 4.28,-41.14 0,-116.66 -102.28,-211.35 -228.64,-211.35l-141.41 0c-23.62,0.19 -47.14,9.55 -64.76,27.93l-4.95 5.15 0 261.59 69.71 -72.47 0 289.79 -69.71 -72.48 0 261.61 4.95 5.15c17.62,18.38 41.14,27.71 64.76,27.89l0 180.84 0 165.14 0 208.54 0 660.9c0,75.16 60.85,135.99 136.17,135.99 74.75,0 135.52,-60.84 135.52,-135.99l0 -660.9 116.45 0 0 -264.35zm-457.85 -1238.5l0 0 0 -197.01c36.75,-76.43 114.85,-129.19 205.22,-129.19 126.08,0 228.17,101.89 228.17,227.66 0,125.8 -102.09,227.98 -228.17,227.98 -90.37,0 -168.46,-52.9 -205.22,-129.44zm0 247.25l0 0 -21.24 22.19 -0.29 -0.3 -175.79 183.41 -36.67 37.43 0.39 0.28 -26.19 27.33c-16.85,17.53 -25.24,40.1 -25.34,62.68l0 2c0.1,22.55 8.49,45.13 25.34,62.74l26.19 27.25 -0.39 0.28 36.67 37.52 175.79 183.42 0.29 -0.38 21.24 22.18 0 -261.61 -69.63 -72.36 69.63 -72.48 0 -261.59zm0 -444.26l0 0 0 197.01c-14.29,-29.78 -22.28,-63.27 -22.28,-98.55 0,-35.3 7.99,-68.68 22.28,-98.46zm-727.73 1435.51c142.19,-75.92 237.9,-217.99 237.9,-380.65 0,-170.94 -105.81,-318.92 -260.27,-391.2 2.76,-13.32 4.27,-27.05 4.27,-41.14 0,-116.66 -102.27,-211.35 -228.63,-211.35l-141.41 0c-23.63,0.19 -47.14,9.55 -64.76,27.93l-4.95 5.15 0 261.59 69.71 -72.47 0 289.79 -69.71 -72.48 0 261.61 4.95 5.15c17.62,18.38 41.13,27.71 64.76,27.89l0 180.84 0 165.14 0 208.54 0 660.9c0,75.16 60.85,135.99 136.17,135.99 74.75,0 135.52,-60.84 135.52,-135.99l0 -660.9 116.45 0 0 -264.35zm-457.85 -1238.5l0 0 0 -197.01c36.75,-76.43 114.84,-129.19 205.22,-129.19 126.08,0 228.17,101.89 228.17,227.66 0,125.8 -102.09,227.98 -228.17,227.98 -90.38,0 -168.46,-52.9 -205.22,-129.44zm0 247.25l0 0 -21.25 22.19 -0.28 -0.3 -175.79 183.41 -36.67 37.43 0.38 0.28 -26.18 27.33c-16.85,17.53 -25.24,40.1 -25.34,62.68l0 2c0.1,22.55 8.49,45.13 25.34,62.74l26.18 27.25 -0.38 0.28 36.67 37.52 175.79 183.42 0.28 -0.38 21.25 22.18 0 -261.61 -69.63 -72.36 69.63 -72.48 0 -261.59zm0 -444.26l0 0 0 197.01c-14.29,-29.78 -22.3,-63.27 -22.3,-98.55 0,-35.3 8.01,-68.68 22.3,-98.46zm-727.74 1435.51c142.19,-75.92 237.91,-217.99 237.91,-380.65 0,-170.94 -105.81,-318.92 -260.27,-391.2 2.76,-13.32 4.27,-27.05 4.27,-41.14 0,-116.66 -102.27,-211.35 -228.63,-211.35l-141.41 0c-23.63,0.19 -47.14,9.55 -64.76,27.93l-4.95 5.15 0 261.59 69.71 -72.47 0 289.79 -69.71 -72.48 0 261.61 4.95 5.15c17.62,18.38 41.13,27.71 64.76,27.89l0 180.84 0 165.14 0 208.54 0 660.9c0,75.16 60.85,135.99 136.17,135.99 74.75,0 135.52,-60.84 135.52,-135.99l0 -660.9 116.44 0 0 -264.35zm-457.84 -1238.5l0 0 0 -197.01c36.74,-76.43 114.84,-129.19 205.22,-129.19 126.08,0 228.17,101.89 228.17,227.66 0,125.8 -102.09,227.98 -228.17,227.98 -90.38,0 -168.47,-52.9 -205.22,-129.44zm0 247.25l0 0 -21.25 22.19 -0.29 -0.3 -175.78 183.41 -36.67 37.43 0.38 0.28 -26.18 27.33c-16.85,17.53 -25.24,40.1 -25.34,62.68l0 2c0.1,22.55 8.49,45.13 25.34,62.74l26.18 27.25 -0.38 0.28 36.67 37.52 175.78 183.42 0.29 -0.38 21.25 22.18 0 -261.61 -69.63 -72.36 69.63 -72.48 0 -261.59zm0 -444.26l0 0 0 197.01c-14.3,-29.78 -22.3,-63.27 -22.3,-98.55 0,-35.3 8,-68.68 22.3,-98.46zm-727.74 1435.51c142.18,-75.92 237.89,-217.99 237.89,-380.65 0,-170.94 -105.79,-318.92 -260.26,-391.2 2.77,-13.32 4.28,-27.05 4.28,-41.14 0,-116.66 -102.28,-211.35 -228.63,-211.35l-141.43 0c-23.61,0.19 -47.12,9.55 -64.75,27.93l-4.95 5.15 0 261.59 69.7 -72.47 0 289.79 -69.7 -72.48 0 261.61 4.95 5.15c17.63,18.38 41.14,27.71 64.75,27.89l0 180.84 0 165.14 0 208.54 0 660.9c0,75.16 60.86,135.99 136.19,135.99 74.75,0 135.51,-60.84 135.51,-135.99l0 -660.9 116.45 0 0 -264.35zm-457.85 -1238.5l0 0 0 -197.01c36.75,-76.43 114.85,-129.19 205.22,-129.19 126.09,0 228.18,101.89 228.18,227.66 0,125.8 -102.09,227.98 -228.18,227.98 -90.37,0 -168.46,-52.9 -205.22,-129.44zm0 247.25l0 0 -21.24 22.19 -0.3 -0.3 -175.79 183.41 -36.65 37.43 0.38 0.28 -26.19 27.33c-16.84,17.53 -25.23,40.1 -25.33,62.68l0 2c0.1,22.55 8.49,45.13 25.33,62.74l26.19 27.25 -0.38 0.28 36.65 37.52 175.79 183.42 0.3 -0.38 21.24 22.18 0 -261.61 -69.62 -72.36 69.62 -72.48 0 -261.59zm0 -444.26l0 0 0 197.01c-14.29,-29.78 -22.29,-63.27 -22.29,-98.55 0,-35.3 8,-68.68 22.29,-98.46zm-727.73 1435.51c142.18,-75.92 237.89,-217.99 237.89,-380.65 0,-170.94 -105.81,-318.92 -260.26,-391.2 2.77,-13.32 4.28,-27.05 4.28,-41.14 0,-116.66 -102.29,-211.35 -228.63,-211.35l-141.43 0c-23.62,0.19 -47.12,9.55 -64.75,27.93l-4.95 5.15 0 261.59 69.7 -72.47 0 289.79 -69.7 -72.48 0 261.61 4.95 5.15c17.63,18.38 41.13,27.71 64.75,27.89l0 180.84 0 165.14 0 208.54 0 660.9c0,75.16 60.86,135.99 136.19,135.99 74.75,0 135.51,-60.84 135.51,-135.99l0 -660.9 116.45 0 0 -264.35zm-457.85 -1238.5l0 0 0 -197.01c36.74,-76.43 114.84,-129.19 205.22,-129.19 126.08,0 228.17,101.89 228.17,227.66 0,125.8 -102.09,227.98 -228.17,227.98 -90.38,0 -168.47,-52.9 -205.22,-129.44zm0 247.25l0 0 -21.25 22.19 -0.29 -0.3 -175.79 183.41 -36.67 37.43 0.4 0.28 -26.19 27.33c-16.84,17.53 -25.24,40.1 -25.33,62.68l0 2c0.09,22.55 8.49,45.13 25.33,62.74l26.19 27.25 -0.4 0.28 36.67 37.52 175.79 183.42 0.29 -0.38 21.25 22.18 0 -261.61 -69.62 -72.36 69.62 -72.48 0 -261.59zm0 -444.26l0 0 0 197.01c-14.29,-29.78 -22.29,-63.27 -22.29,-98.55 0,-35.3 8,-68.68 22.29,-98.46zm-727.73 1435.51c142.18,-75.92 237.89,-217.99 237.89,-380.65 0,-170.94 -105.81,-318.92 -260.27,-391.2 2.78,-13.32 4.29,-27.05 4.29,-41.14 0,-116.66 -102.29,-211.35 -228.65,-211.35l-141.41 0c-23.62,0.19 -47.13,9.55 -64.76,27.93l-4.94 5.15 0 261.59 69.7 -72.47 0 289.79 -69.7 -72.48 0 261.61 4.94 5.15c17.63,18.38 41.14,27.71 64.76,27.89l0 180.84 0 165.14 0 208.54 0 660.9c0,75.16 60.86,135.99 136.17,135.99 74.77,0 135.52,-60.84 135.52,-135.99l0 -660.9 116.46 0 0 -264.35zm-457.85 -1238.5l0 0 0 -197.01c36.74,-76.43 114.84,-129.19 205.22,-129.19 126.07,0 228.17,101.89 228.17,227.66 0,125.8 -102.1,227.98 -228.17,227.98 -90.38,0 -168.47,-52.9 -205.22,-129.44zm0 247.25l0 0 -21.25 22.19 -0.29 -0.3 -175.79 183.41 -36.67 37.43 0.39 0.28 -26.18 27.33c-16.84,17.53 -25.25,40.1 -25.33,62.68l0 2c0.08,22.55 8.49,45.13 25.33,62.74l26.18 27.25 -0.39 0.28 36.67 37.52 175.79 183.42 0.29 -0.38 21.25 22.18 0 -261.61 -69.62 -72.36 69.62 -72.48 0 -261.59zm0 -444.26l0 0 0 197.01c-14.3,-29.78 -22.29,-63.27 -22.29,-98.55 0,-35.3 7.99,-68.68 22.29,-98.46zm-1185.59 197.01l0 0 0 -197.01c36.75,-76.43 114.85,-129.19 205.23,-129.19 126.07,0 228.16,101.89 228.16,227.66 0,125.8 -102.09,227.98 -228.16,227.98 -90.38,0 -168.47,-52.9 -205.23,-129.44zm0 247.25l0 0 -21.24 22.19 -0.29 -0.3 -175.79 183.41 0 257.5 175.79 183.42 0.29 -0.38 21.24 22.18 0 -261.61 -69.63 -72.36 69.63 -72.48 0 -261.59zm0 -444.26l0 0 0 197.01c-14.29,-29.78 -22.28,-63.27 -22.28,-98.55 0,-35.3 7.99,-68.68 22.28,-98.46z"/>
  <polygon class="fil3" points="202.6,2625.94 202.6,715.39 2080.85,715.39 2799.66,1670.66 2080.85,2625.94 "/>
  <polygon class="fil4" points="39.77,2625.94 39.77,715.39 1918,715.39 2636.82,1670.66 1918,2625.94 "/>
  <path class="fil5" d="M760.3 2318.14l-126.61 0 0 -815.45c0,-67.85 2.14,-131.95 6.14,-192.31 -10.96,10.95 -23.24,22.43 -36.86,34.46 -13.35,12.02 -75.58,62.78 -186.16,152.78l-68.91 -89.47 302.89 -234.25 109.52 0 0 1144.25zm1144.24 -874.75c0,72.92 -20.31,132.48 -61.43,178.96 -40.88,46.48 -98.84,77.46 -174.15,92.94l0 6.42c91.88,11.48 160,40.59 204.33,87.6 44.35,47.01 66.51,108.7 66.51,184.83 0,109.24 -37.66,193.11 -113.52,251.87 -75.58,58.77 -182.96,88.14 -322.39,88.14 -60.62,0 -115.91,-4.54 -166.4,-13.63 -50.2,-9.34 -99.35,-25.37 -146.62,-48.34l0 -123.67c49.41,24.31 102.3,43.01 158.39,55.84 56.08,12.81 109.23,19.23 159.45,19.23 197.64,0 296.48,-77.46 296.48,-232.38 0,-138.89 -108.97,-208.33 -327.2,-208.33l-112.7 0 0 -112.19 114.31 0c89.2,0 159.98,-19.76 212.07,-59.03 52.35,-39.53 78.53,-94.02 78.53,-164 0,-55.82 -19.24,-99.62 -57.7,-131.42 -38.46,-31.78 -90.28,-47.8 -156.25,-47.8 -49.96,0 -97.23,6.69 -141.56,20.3 -44.35,13.62 -95.09,38.73 -151.97,75.06l-65.71 -87.61c47.01,-36.85 101.23,-65.7 162.39,-86.8 61.43,-21.11 125.82,-31.52 193.65,-31.52 111.38,0 197.66,25.37 259.35,76.13 61.43,51.01 92.15,120.72 92.15,209.4z"/>
  <path class="fil4" d="M12064.75 3266.42c0,205.75 -41.43,359.32 -124.32,460.73 -82.88,101.41 -207.7,152.1 -374.18,152.1 -63.39,0 -108.96,-3.89 -136.52,-11.44l0 -140.91c42.41,11.95 85.07,17.8 127.98,17.8 113.36,0 197.69,-30.48 253.52,-91.42 55.82,-60.94 86.3,-156.74 91.41,-287.4l-8.53 0c-28.03,42.9 -61.91,73.86 -101.89,92.87 -39.74,19.01 -86.29,28.52 -139.68,28.52 -92.39,0 -165.03,-28.76 -217.93,-86.3 -52.89,-57.52 -79.23,-136.51 -79.23,-236.93 0,-108.96 30.71,-195.74 91.91,-260.1 61.18,-64.61 144.55,-96.79 250.33,-96.79 74.36,0 138.96,18.05 194.28,54.37 55.34,36.07 98,88.73 127.99,157.46 29.98,68.75 44.85,151.15 44.85,247.43zm-364.18 -320.31c-58.26,0 -102.87,19.02 -133.83,56.79 -30.96,37.79 -46.32,91.17 -46.32,159.67 0,59.72 14.39,106.53 43.14,140.42 28.77,34.12 72.66,51.18 131.16,51.18 56.79,0 104.33,-16.81 143.09,-50.7 38.52,-33.88 57.77,-73.38 57.77,-118.72 0,-42.41 -8.29,-81.9 -24.61,-118.96 -16.59,-36.8 -39.5,-66.06 -69,-87.51 -29.48,-21.45 -63.37,-32.18 -101.4,-32.18zm846.84 266.19c105.32,0 188.69,27.79 250.12,83.62 61.43,55.82 92.14,131.87 92.14,228.16 0,111.41 -34.85,198.43 -104.57,261.07 -69.73,62.65 -168.94,94.09 -297.66,94.09 -116.51,0 -208.41,-18.76 -274.96,-56.55l0 -152.35c38.51,21.94 82.88,38.76 132.85,50.7 49.97,11.95 96.53,17.8 139.43,17.8 75.57,0 133.34,-16.82 172.84,-50.71 39.48,-33.63 59.23,-83.11 59.23,-148.45 0,-124.56 -79.47,-186.97 -238.64,-186.97 -22.43,0 -49.98,2.21 -82.89,6.84 -32.91,4.37 -61.68,9.5 -86.29,15.35l-75.09 -44.38 39.98 -510.2 542.86 0 0 149.19 -395.14 0 -23.41 258.4c16.57,-2.68 36.8,-6.09 60.95,-9.99 24.12,-3.66 53.63,-5.62 88.23,-5.62zm615.77 -78.97c0,70.92 6.84,123.58 20.48,158.45 13.9,34.6 36.57,52.16 68.02,52.16 62.89,0 94.33,-70.2 94.33,-210.6 0,-140.43 -31.44,-210.63 -94.33,-210.63 -31.44,0 -54.12,17.56 -68.02,52.16 -13.65,34.86 -20.48,87.52 -20.48,158.47zm321.3 -1.47c0,109.45 -19.5,191.59 -59,246.69 -39.25,54.84 -97.27,82.4 -173.8,82.4 -72.41,0 -128.47,-28.54 -168.2,-85.32 -39.74,-56.8 -59.73,-138.21 -59.73,-243.77 0,-217.44 76.06,-326.17 227.93,-326.17 74.83,0 132.37,28.29 172.58,84.59 40.22,56.32 60.21,137 60.21,241.59zm358.58 418.79c0,70.94 7.06,124.09 21.21,159.19 13.89,35.34 36.81,52.89 68.26,52.89 62.4,0 93.61,-70.69 93.61,-212.08 0,-139.68 -31.21,-209.64 -93.61,-209.64 -31.44,0 -54.37,17.32 -68.26,51.68 -14.15,34.14 -21.21,86.78 -21.21,157.96zm321.52 0c0,109.46 -19.73,191.6 -59.23,246.45 -39.49,54.84 -97.27,82.14 -172.83,82.14 -72.41,0 -128.71,-28.27 -168.69,-84.59 -39.98,-56.55 -59.96,-137.96 -59.96,-244.01 0,-217.68 76.05,-326.65 228.65,-326.65 73.12,0 130.16,28.04 170.88,84.35 40.72,56.07 61.18,137 61.18,242.3zm-212.07 -730.33l-579.44 1044.31 -138.47 0 579.19 -1044.31 138.71 0z"/>
  <path class="fil1" d="M11456.99 4909.97c-48.52,0 -86.7,-14.8 -114.68,-44.31 -28.09,-29.51 -42.07,-70.58 -42.07,-123.06 0,-52.89 12.96,-94.87 39.01,-126.03 26.04,-31.14 60.98,-46.66 104.88,-46.66 41.06,0 73.63,13.47 97.53,40.54 23.89,27.06 35.94,62.7 35.94,106.92l0 31.45 -225.89 0c1.02,38.49 10.72,67.7 29.1,87.71 18.49,19.93 44.43,29.93 78.03,29.93 35.22,0 70.16,-7.35 104.67,-22.15l0 44.32c-17.57,7.67 -34.22,13.08 -49.84,16.44 -15.63,3.27 -34.51,4.9 -56.67,4.9zm-13.49 -298.39c-26.34,0 -47.26,8.58 -62.9,25.73 -15.73,17.05 -24.92,40.75 -27.67,71.07l171.36 0c0,-31.24 -6.95,-55.25 -20.94,-71.88 -14,-16.65 -33.9,-24.93 -59.85,-24.93zm443.21 292.28l0 -212.1c0,-26.77 -6.02,-46.68 -18.28,-59.85 -12.15,-13.17 -31.24,-19.71 -57.19,-19.71 -34.31,0 -59.43,9.29 -75.37,27.78 -16.03,18.57 -23.99,49.22 -23.99,91.9l0 171.98 -49.63 0 0 -327.81 40.34 0 8.06 44.73 2.45 0c10.21,-16.14 24.41,-28.69 42.79,-37.59 18.38,-8.88 38.81,-13.26 61.37,-13.26 39.53,0 69.24,9.49 89.15,28.6 20.02,18.99 29.93,49.52 29.93,91.4l0 213.94 -49.63 0zm449.34 6.11c-48.51,0 -86.7,-14.8 -114.68,-44.31 -28.09,-29.51 -42.06,-70.58 -42.06,-123.06 0,-52.89 12.96,-94.87 39.01,-126.03 26.04,-31.14 60.97,-46.66 104.88,-46.66 41.05,0 73.63,13.47 97.53,40.54 23.89,27.06 35.94,62.7 35.94,106.92l0 31.45 -225.9 0c1.03,38.49 10.73,67.7 29.11,87.71 18.49,19.93 44.42,29.93 78.03,29.93 35.22,0 70.15,-7.35 104.67,-22.15l0 44.32c-17.57,7.67 -34.22,13.08 -49.84,16.44 -15.63,3.27 -34.52,4.9 -56.68,4.9zm-13.48 -298.39c-26.34,0 -47.27,8.58 -62.9,25.73 -15.73,17.05 -24.93,40.75 -27.67,71.07l171.35 0c0,-31.24 -6.94,-55.25 -20.93,-71.88 -14,-16.65 -33.91,-24.93 -59.85,-24.93zm268.38 292.28l-49.63 0 0 -465.69 49.63 0 0 465.69zm466.18 0l-9.9 -46.68 -2.45 0c-16.34,20.53 -32.58,34.52 -48.81,41.87 -16.34,7.25 -36.56,10.92 -60.88,10.92 -32.57,0 -57.99,-8.37 -76.48,-25.12 -18.38,-16.84 -27.67,-40.63 -27.67,-71.69 0,-66.27 52.99,-101 158.8,-104.16l55.66 -1.84 0 -20.32c0,-25.63 -5.52,-44.64 -16.55,-56.88 -11.12,-12.25 -28.8,-18.38 -53.09,-18.38 -27.38,0 -58.21,8.38 -92.72,25.12l-15.22 -37.99c16.13,-8.78 33.8,-15.73 52.99,-20.72 19.31,-5 38.61,-7.45 57.91,-7.45 39.11,0 68.02,8.67 86.9,26.04 18.89,17.36 28.29,45.13 28.29,83.43l0 223.85 -36.75 0zm-112.24 -34.93c30.95,0 55.25,-8.47 72.82,-25.42 17.67,-16.95 26.55,-40.64 26.55,-71.18l0 -29.61 -49.74 2.14c-39.42,1.33 -67.92,7.46 -85.37,18.39 -17.47,10.82 -26.13,27.76 -26.13,50.64 0,17.98 5.41,31.67 16.33,40.96 10.83,9.4 26.04,14.09 45.54,14.09zm475.88 34.93l0 -212.1c0,-26.77 -6.02,-46.68 -18.28,-59.85 -12.14,-13.17 -31.24,-19.71 -57.19,-19.71 -34.3,0 -59.43,9.29 -75.37,27.78 -16.03,18.57 -23.99,49.22 -23.99,91.9l0 171.98 -49.63 0 0 -327.81 40.34 0 8.06 44.73 2.45 0c10.22,-16.14 24.42,-28.69 42.79,-37.59 18.38,-8.88 38.81,-13.26 61.37,-13.26 39.53,0 69.24,9.49 89.15,28.6 20.02,18.99 29.93,49.52 29.93,91.4l0 213.94 -49.63 0zm-37.07 -371.94c-8.58,0 -16.94,-1.83 -25.12,-5.51 -8.17,-3.67 -16.24,-7.75 -24.1,-12.26 -7.86,-4.49 -15.42,-8.58 -22.68,-12.25 -7.35,-3.78 -14.4,-5.62 -21.14,-5.62 -10.01,0 -17.46,3.06 -22.56,8.99 -5.11,6.03 -9.09,15.11 -11.85,27.27l-29.31 0c2.55,-24.1 9.6,-42.99 21.04,-56.68 11.53,-13.69 26.35,-20.52 44.53,-20.52 9.08,0 17.98,1.84 26.56,5.51 8.57,3.68 16.84,7.76 24.61,12.26 7.76,4.48 15.21,8.59 22.46,12.26 7.15,3.78 13.9,5.61 20.33,5.61 9.8,0 17.04,-2.97 21.84,-8.89 4.81,-5.81 8.69,-15 11.65,-27.36l29.61 0c-2.56,24.1 -9.51,42.99 -20.85,56.68 -11.22,13.69 -26.25,20.51 -45.03,20.51zm471.7 207.72c0,53.51 -13.47,95.28 -40.34,125.3 -26.96,30.03 -64.12,45.03 -111.61,45.03 -29.32,0 -55.37,-6.83 -78.13,-20.61 -22.68,-13.79 -40.23,-33.61 -52.58,-59.34 -12.47,-25.73 -18.59,-55.86 -18.59,-90.38 0,-53.52 13.37,-95.18 40.13,-125 26.65,-29.8 63.83,-44.72 111.22,-44.72 45.94,0 82.31,15.2 109.38,45.74 27.06,30.53 40.53,71.9 40.53,123.98zm-249.79 0c0,41.87 8.38,73.84 25.12,95.79 16.75,21.96 41.36,32.89 73.94,32.89 32.48,0 57.19,-10.93 74.04,-32.79 16.85,-21.85 25.23,-53.82 25.23,-95.89 0,-41.67 -8.38,-73.33 -25.23,-94.98 -16.85,-21.65 -41.76,-32.47 -74.65,-32.47 -32.57,0 -57.09,10.62 -73.62,31.97 -16.55,21.34 -24.83,53.2 -24.83,95.48zm761.01 164.22l-287.67 0 0 -42.8 115.3 -115.8c35.03,-35.55 58.21,-60.87 69.43,-76.08 11.14,-15.11 19.51,-29.93 25.12,-44.22 5.53,-14.39 8.38,-29.81 8.38,-46.46 0,-23.29 -7.14,-41.77 -21.24,-55.46 -14.19,-13.68 -33.9,-20.52 -59.02,-20.52 -18.18,0 -35.34,2.97 -51.58,8.98 -16.34,5.92 -34.42,16.85 -54.33,32.58l-26.36 -33.8c40.24,-33.39 84.16,-50.05 131.64,-50.05 41.16,0 73.33,10.52 96.71,31.55 23.39,21.05 35.03,49.32 35.03,84.87 0,27.67 -7.76,55.15 -23.4,82.31 -15.52,27.06 -44.62,61.38 -87.4,102.84l-95.8 93.75 0 2.35 225.18 0 0 45.95zm352.73 -219.26c0,75.68 -11.94,132.14 -35.73,169.43 -23.9,37.28 -60.36,55.95 -109.38,55.95 -47.19,0 -82.94,-19.09 -107.53,-57.29 -24.52,-38.18 -36.77,-94.25 -36.77,-168.09 0,-76.17 11.85,-132.65 35.64,-169.62 23.69,-36.87 59.95,-55.35 108.67,-55.35 47.48,0 83.52,19.3 108.14,57.79 24.62,38.5 36.96,94.26 36.96,167.17zm-239.16 -0.1c0,63.62 7.45,109.99 22.46,139.09 15.01,29 38.8,43.5 71.6,43.5 33.08,0 57.08,-14.69 71.99,-44.11 14.81,-29.51 22.26,-75.56 22.26,-138.48 0,-62.8 -7.45,-108.86 -22.26,-138.16 -14.91,-29.21 -38.91,-43.81 -71.99,-43.81 -32.79,0 -56.58,14.4 -71.6,43.3 -15.01,28.8 -22.46,75.06 -22.46,138.68zm483.54 219.36l-48.4 0 0 -311.77c0,-25.94 0.8,-50.46 2.35,-73.54 -4.19,4.19 -8.89,8.59 -14.1,13.17 -5.11,4.6 -28.91,24 -71.17,58.42l-26.36 -34.22 115.8 -89.57 41.87 0 0 437.5zm221.72 0l181.46 -391.54 -238.56 0 0 -45.96 291.16 0 0 39.83 -178.92 397.67 -55.15 0z"/>
 </g>
</svg>
