<?xml version="1.0" encoding="UTF-8"?>
<!DOCTYPE svg PUBLIC "-//W3C//DTD SVG 1.1//EN" "http://www.w3.org/Graphics/SVG/1.1/DTD/svg11.dtd">
<!-- Creator: CorelDRAW 2017 -->
<svg xmlns="http://www.w3.org/2000/svg" xml:space="preserve" width="29.2317mm" height="29.2303mm" version="1.1" style="shape-rendering:geometricPrecision; text-rendering:geometricPrecision; image-rendering:optimizeQuality; fill-rule:evenodd; clip-rule:evenodd"
viewBox="0 0 2405.75 2405.63"
 xmlns:xlink="http://www.w3.org/1999/xlink">
 <defs>
  <style type="text/css">
   <![CDATA[
    .str0 {stroke:#E34856;stroke-width:61.72;stroke-miterlimit:22.9256}
    .str1 {stroke:#E34856;stroke-width:20.57;stroke-miterlimit:22.9256}
    .fil4 {fill:none}
    .fil2 {fill:#D4E0E5}
    .fil3 {fill:#E34856}
    .fil1 {fill:white}
    .fil0 {fill:url(#id0)}
   ]]>
  </style>
  <linearGradient id="id0" gradientUnits="userSpaceOnUse" x1="1737.11" y1="1737.13" x2="668.6" y2="668.53">
   <stop offset="0" style="stop-opacity:1; stop-color:white"/>
   <stop offset="1" style="stop-opacity:1; stop-color:#E0E0E0"/>
  </linearGradient>
 </defs>
 <g id="Capa_x0020_1">
  <metadata id="CorelCorpID_0Corel-Layer"/>
  <path class="fil0" d="M1202.98 2405.63l0 -104.52 0 104.52 0 0c312.33,-0.14 624.51,-121.04 860.18,-362 464.36,-475 455.49,-1236.88 -19.47,-1701.24 -233.98,-228.51 -537.56,-342.39 -840.7,-342.39l0 104.34c-285.39,0.18 -570.47,110.49 -785.73,330.56 -146.3,149.55 -241.01,330.25 -284.77,520.3 -20.09,83.67 -30.86,170.89 -30.86,260.61 0,164.05 35.68,319.52 99.57,459.54 3.57,0.62 6.97,1.23 10.55,1.72 -4.2,-0.17 -8.7,-0.49 -13.82,-0.62 4.81,0.76 9.8,1.73 14.79,2.48 53.87,112.16 128.01,217.29 222.29,309.36 213.71,208.91 490.85,312.81 767.98,312.81 285.21,0 570.28,-110.31 785.55,-330.38 357.06,-365.32 407.7,-916.43 155.65,-1334.56 -0.17,-0.13 -0.17,-0.3 -0.31,-0.62 1.68,-3.57 3.58,-7.32 5.26,-10.9 -149.21,-236.15 -384.91,-412.03 -662.35,-483.21 -93,-24.77 -188.47,-37.09 -283.8,-37.09l0 -104.34c-312.68,0 -624.82,120.86 -860.36,361.86 -464.23,475.13 -455.66,1236.84 19.3,1701.07 233.98,228.82 537.61,342.7 841.06,342.7zm941.21 -1769.47c1.37,-2.78 2.78,-5.74 4.2,-8.7 -1.42,2.96 -2.83,5.92 -4.2,8.7z"/>
  <circle class="fil1" cx="1202.87" cy="1202.8" r="1079.82"/>
  <path class="fil2" d="M1121.3 126.63c651.1,-100.54 1156.44,539.29 1156.44,1076.17 0,672.97 -552.85,1106.97 -1113.48,1086.67 -12.5,-14.13 -293.17,-39.22 -302.47,-54.36 -73.67,-119.83 -52.39,-266.68 -15.51,-366.22 41.55,-112.12 174.77,-223.57 216.97,-259.17 42.21,-35.59 102.39,-102.24 102.39,-102.24 0,0 -30.17,-24.73 -48.97,-69.25 -18.8,-44.52 -26.71,-104.36 3.96,-171.64 30.66,-67.26 145.91,-123.65 204.77,-155.8 58.86,-32.15 160.26,-136.02 173.12,-150.86 12.86,-14.84 26.22,-54.9 36.61,-65.29 10.39,-10.39 26.71,-24.73 31.16,-32.65 4.45,-7.92 -20.28,-36.1 -26.71,-54.41 -6.44,-18.3 -21.77,-60.34 -21.77,-60.34 0,0 -11.87,20.28 -39.08,45.01 -27.2,24.73 -57.37,59.85 -78.14,62.82 -20.78,2.96 -39.08,-12.86 -42.05,-20.78 -2.96,-7.91 -6.43,-16.32 -13.93,-21.27 -7.5,-4.95 -14.76,-4.45 -24.66,2.47 -9.89,6.93 -17.8,2.97 -22.75,-3.95 -4.95,-6.93 -1.49,-22.25 -4.45,-25.22 -2.97,-2.97 -12.86,7.42 -20.28,6.43 -7.42,-0.99 -7.92,-7.91 -9.4,-18.3 -1.49,-10.39 -9.4,-22.75 -20.28,-27.69 -10.88,-4.95 -26.22,6.92 -34.63,9.4 -8.4,2.47 -24.23,-0.49 -29.5,-7.75 -5.28,-7.26 -10.56,-31.66 -9.23,-48.8 1.32,-17.14 -6.59,-45.5 -13.85,-69.25 -7.26,-23.74 -33.64,-18.47 -42.2,-22.86 -8.58,-4.39 -22.43,-25.94 -38.25,-51.66 -15.83,-25.72 -38.58,-77.16 -38.58,-77.16 0,0 -18.8,-9.23 -28.03,-25.06 -9.23,-15.83 -12.53,-54.08 -9.89,-74.52 2.64,-20.44 11.22,-34.95 9.89,-49.46 -1.32,-14.51 13.19,-32.98 23.74,-44.19 10.55,-11.21 7.25,-31.66 9.23,-50.78 1.98,-19.13 15.17,-42.21 34.95,-56.72 4.64,-3.4 33.84,-41.89 44.86,-51.31z"/>
  <path class="fil3" d="M1475.65 157.77c464.29,120.86 807.04,542.9 807.04,1045.04 0,571.63 -444.21,1039.45 -1006.26,1077.27 -2.16,-0.15 -4.3,-0.3 -6.45,-0.46l-0.46 -0.52c-111.45,-125.96 -89.69,-298.09 -48.15,-410.2 41.55,-112.12 174.77,-223.57 216.97,-259.17 42.21,-35.59 102.39,-102.24 102.39,-102.24 0,0 -30.17,-24.73 -48.97,-69.25 -18.8,-44.52 -26.71,-104.36 3.96,-171.64 30.66,-67.26 145.91,-123.65 204.77,-155.8 58.86,-32.15 160.26,-136.02 173.12,-150.86 12.86,-14.84 26.22,-54.9 36.61,-65.29 10.39,-10.39 26.71,-24.73 31.16,-32.65 4.45,-7.92 -20.28,-36.1 -26.71,-54.41 -6.44,-18.3 -21.77,-60.34 -21.77,-60.34 0,0 -11.87,20.28 -39.08,45.01 -27.2,24.73 -57.37,59.85 -78.14,62.82 -20.78,2.96 -39.08,-12.86 -42.05,-20.78 -2.96,-7.91 -6.43,-16.32 -13.93,-21.27 -7.5,-4.95 -14.76,-4.45 -24.66,2.47 -9.89,6.93 -17.8,2.97 -22.75,-3.95 -4.95,-6.93 -1.49,-22.25 -4.45,-25.22 -2.97,-2.97 -12.86,7.42 -20.28,6.43 -7.42,-0.99 -7.92,-7.91 -9.4,-18.3 -1.49,-10.39 -9.4,-22.75 -20.28,-27.69 -10.88,-4.95 -26.22,6.92 -34.63,9.4 -8.4,2.47 -24.23,-0.49 -29.5,-7.75 -5.28,-7.26 -10.56,-31.66 -9.23,-48.8 1.32,-17.14 -6.59,-45.5 -13.85,-69.25 -7.26,-23.74 -33.64,-18.47 -42.2,-22.86 -8.58,-4.39 -22.43,-25.94 -38.25,-51.66 -15.83,-25.72 -38.58,-77.16 -38.58,-77.16 0,0 -18.8,-9.23 -28.03,-25.06 -9.23,-15.83 -12.53,-54.08 -9.89,-74.52 2.64,-20.44 11.22,-34.95 9.89,-49.46 -1.32,-14.51 13.19,-32.98 23.74,-44.19 10.55,-11.21 7.25,-31.66 9.23,-50.78 1.98,-19.13 15.17,-42.21 34.95,-56.72 4.64,-3.4 13.09,-10.76 24.11,-20.17z"/>
  <circle class="fil4 str0" cx="1202.87" cy="1202.8" r="1079.82"/>
  <path class="fil3 str1" d="M682.02 1486.16l3.21 0 -1.6 1.6 -1.6 -1.6zm27.25 -24.01l0 -788.81 -51.29 0 0 788.81 -302.05 -301.61 -31.59 31.59 359.29 359.77 359.29 -359.77 -31.59 -31.59 -302.05 301.61z"/>
 </g>
</svg>
