<?xml version="1.0" encoding="UTF-8"?>
<!DOCTYPE svg PUBLIC "-//W3C//DTD SVG 1.1//EN" "http://www.w3.org/Graphics/SVG/1.1/DTD/svg11.dtd">
<!-- Creator: CorelDRAW 2017 -->
<svg xmlns="http://www.w3.org/2000/svg" xml:space="preserve" width="29.2317mm" height="29.2303mm" version="1.1" style="shape-rendering:geometricPrecision; text-rendering:geometricPrecision; image-rendering:optimizeQuality; fill-rule:evenodd; clip-rule:evenodd"
viewBox="0 0 651.85 651.82"
 xmlns:xlink="http://www.w3.org/1999/xlink">
 <defs>
  <style type="text/css">
   <![CDATA[
    .str0 {stroke:#178A99;stroke-width:16.72;stroke-miterlimit:22.9256}
    .fil3 {fill:none}
    .fil2 {fill:#178A99}
    .fil1 {fill:white}
    .fil4 {fill:#178A99;fill-rule:nonzero}
    .fil0 {fill:url(#id0)}
   ]]>
  </style>
  <linearGradient id="id0" gradientUnits="userSpaceOnUse" x1="470.68" y1="470.69" x2="181.16" y2="181.14">
   <stop offset="0" style="stop-opacity:1; stop-color:white"/>
   <stop offset="1" style="stop-opacity:1; stop-color:#E0E0E0"/>
  </linearGradient>
 </defs>
 <g id="Capa_x0020_1">
  <metadata id="CorelCorpID_0Corel-Layer"/>
  <path class="fil0" d="M325.96 651.82l0 -28.32 0 28.32 0 0c84.63,-0.04 169.22,-32.8 233.07,-98.09 125.82,-128.7 123.42,-335.14 -5.28,-460.96 -63.4,-61.92 -145.66,-92.77 -227.79,-92.77l0 28.27c-77.33,0.05 -154.57,29.94 -212.9,89.57 -39.64,40.52 -65.3,89.48 -77.16,140.98 -5.44,22.67 -8.36,46.3 -8.36,70.61 0,44.45 9.67,86.58 26.98,124.52 0.97,0.17 1.89,0.33 2.86,0.47 -1.14,-0.05 -2.36,-0.13 -3.74,-0.17 1.3,0.21 2.66,0.47 4.01,0.67 14.6,30.39 34.68,58.88 60.23,83.82 57.91,56.6 133,84.76 208.09,84.76 77.28,0 154.52,-29.89 212.85,-89.52 96.75,-98.99 110.47,-248.31 42.17,-361.61 -0.05,-0.04 -0.05,-0.08 -0.08,-0.17 0.45,-0.97 0.97,-1.98 1.42,-2.95 -40.43,-63.99 -104.29,-111.64 -179.47,-130.93 -25.2,-6.71 -51.07,-10.05 -76.9,-10.05l0 -28.27c-84.72,0 -169.3,32.75 -233.12,98.05 -125.78,128.74 -123.46,335.13 5.23,460.91 63.4,62 145.67,92.86 227.89,92.86zm255.03 -479.45c0.37,-0.75 0.75,-1.55 1.14,-2.36 -0.38,0.8 -0.77,1.6 -1.14,2.36z"/>
  <circle class="fil1" cx="325.92" cy="325.91" r="292.58"/>
  <path class="fil2" d="M399.84 42.75c125.8,32.75 218.67,147.1 218.67,283.16 0,154.89 -120.36,281.64 -272.65,291.89 -0.58,-0.04 -1.17,-0.08 -1.75,-0.12l-0.12 -0.14c-30.2,-34.13 -24.3,-80.77 -13.05,-111.15 11.26,-30.38 47.36,-60.58 58.79,-70.22 11.44,-9.64 27.74,-27.7 27.74,-27.7 0,0 -8.17,-6.7 -13.27,-18.76 -5.09,-12.06 -7.24,-28.28 1.07,-46.51 8.31,-18.23 39.53,-33.5 55.48,-42.22 15.95,-8.71 43.42,-36.86 46.91,-40.88 3.49,-4.02 7.1,-14.88 9.92,-17.69 2.81,-2.81 7.24,-6.7 8.44,-8.85 1.21,-2.15 -5.49,-9.78 -7.24,-14.74 -1.74,-4.96 -5.9,-16.35 -5.9,-16.35 0,0 -3.22,5.49 -10.59,12.2 -7.37,6.7 -15.54,16.22 -21.17,17.02 -5.63,0.8 -10.59,-3.49 -11.39,-5.63 -0.8,-2.14 -1.74,-4.42 -3.77,-5.76 -2.03,-1.34 -4,-1.21 -6.68,0.67 -2.68,1.88 -4.82,0.81 -6.16,-1.07 -1.34,-1.88 -0.4,-6.03 -1.21,-6.83 -0.81,-0.81 -3.49,2.01 -5.49,1.74 -2.01,-0.27 -2.15,-2.14 -2.55,-4.96 -0.4,-2.81 -2.55,-6.16 -5.49,-7.5 -2.95,-1.34 -7.1,1.88 -9.38,2.55 -2.28,0.67 -6.56,-0.13 -7.99,-2.1 -1.43,-1.97 -2.86,-8.58 -2.5,-13.22 0.36,-4.64 -1.79,-12.33 -3.75,-18.76 -1.97,-6.43 -9.11,-5 -11.44,-6.19 -2.32,-1.19 -6.08,-7.03 -10.36,-14 -4.29,-6.97 -10.45,-20.91 -10.45,-20.91 0,0 -5.09,-2.5 -7.6,-6.79 -2.5,-4.29 -3.39,-14.65 -2.68,-20.19 0.72,-5.54 3.04,-9.47 2.68,-13.4 -0.36,-3.93 3.57,-8.94 6.43,-11.97 2.86,-3.04 1.96,-8.58 2.5,-13.76 0.54,-5.18 4.11,-11.44 9.47,-15.37 1.26,-0.92 3.55,-2.91 6.53,-5.47z"/>
  <circle class="fil3 str0" cx="325.92" cy="325.91" r="292.58"/>
  <path class="fil4" d="M360.48 304.78l-4.59 0 0 -64.28c0,-2.53 -2.06,-4.59 -4.59,-4.59l-68.87 0 0 -59.68c0,-2.54 -2.06,-4.59 -4.59,-4.59l-91.82 0c-2.54,0 -4.59,2.05 -4.59,4.59l0 59.68 -68.87 0c-2.54,0 -4.59,2.06 -4.59,4.59l0 64.28 -4.59 0c-2.53,0 -4.59,2.06 -4.59,4.59l0 96.41c0,2.54 2.06,4.59 4.59,4.59l257.1 0c2.54,0 4.59,-2.05 4.59,-4.59l0 -96.41c0,-2.53 -2.06,-4.59 -4.59,-4.59zm-169.87 -123.96l82.64 0 0 55.09 -82.64 0 0 -55.09zm-73.46 64.28l229.56 0 0 59.68 -229.56 0 0 -59.68zm156.1 156.1l-82.64 0 0 -68.87 82.64 0 0 68.87zm82.64 0l-73.46 0 0 -73.46c0,-2.54 -2.06,-4.59 -4.59,-4.59l-91.82 0c-2.54,0 -4.59,2.06 -4.59,4.59l0 73.46 -73.46 0 0 -87.23 247.92 0 0 87.23z"/>
  <path class="fil4" d="M167.65 254.28l-36.73 0c-2.54,0 -4.59,2.05 -4.59,4.59l0 32.14c0,2.53 2.06,4.59 4.59,4.59l36.73 0c2.54,0 4.59,-2.06 4.59,-4.59l0 -32.14c0,-2.54 -2.05,-4.59 -4.59,-4.59zm-4.59 32.14l-27.54 0 0 -22.96 27.55 0 0 22.96 -0 0z"/>
  <path class="fil4" d="M222.75 254.28l-36.73 0c-2.54,0 -4.59,2.05 -4.59,4.59l0 32.14c0,2.53 2.05,4.59 4.59,4.59l36.73 0c2.53,0 4.59,-2.06 4.59,-4.59l0 -32.14c0,-2.54 -2.06,-4.59 -4.59,-4.59zm-4.59 32.14l-27.54 0 0 -22.96 27.54 0 0 22.96z"/>
  <path class="fil4" d="M277.84 254.28l-36.73 0c-2.54,0 -4.59,2.05 -4.59,4.59l0 32.14c0,2.53 2.06,4.59 4.59,4.59l36.73 0c2.53,0 4.59,-2.06 4.59,-4.59l0 -32.14c-0,-2.54 -2.06,-4.59 -4.59,-4.59zm-4.59 32.14l-27.55 0 0 -22.96 27.55 0 0 22.96z"/>
  <path class="fil4" d="M332.93 254.28l-36.73 0c-2.54,0 -4.59,2.05 -4.59,4.59l0 32.14c0,2.53 2.06,4.59 4.59,4.59l36.73 0c2.54,0 4.59,-2.06 4.59,-4.59l0 -32.14c0,-2.54 -2.05,-4.59 -4.59,-4.59zm-4.59 32.14l-27.55 0 0 -22.96 27.55 0 0 22.96z"/>
  <polygon class="fil4" points="228.07,228.65 228.07,210.39 209.9,210.39 209.9,202.75 228.07,202.75 228.07,184.59 235.8,184.59 235.8,202.75 253.96,202.75 253.96,210.39 235.8,210.39 235.8,228.65 "/>
 </g>
</svg>
