<?xml version="1.0" encoding="UTF-8"?>
<!DOCTYPE svg PUBLIC "-//W3C//DTD SVG 1.1//EN" "http://www.w3.org/Graphics/SVG/1.1/DTD/svg11.dtd">
<!-- Creator: CorelDRAW 2017 -->
<svg xmlns="http://www.w3.org/2000/svg" xml:space="preserve" width="29.2317mm" height="29.2303mm" version="1.1" style="shape-rendering:geometricPrecision; text-rendering:geometricPrecision; image-rendering:optimizeQuality; fill-rule:evenodd; clip-rule:evenodd"
viewBox="0 0 373.81 373.79"
 xmlns:xlink="http://www.w3.org/1999/xlink">
 <defs>
  <style type="text/css">
   <![CDATA[
    .str0 {stroke:#F2A341;stroke-width:9.59;stroke-miterlimit:22.9256}
    .fil4 {fill:none}
    .fil5 {fill:none;fill-rule:nonzero}
    .fil2 {fill:#D4E0E5}
    .fil3 {fill:#F2A341}
    .fil1 {fill:white}
    .fil6 {fill:#F2A341;fill-rule:nonzero}
    .fil0 {fill:url(#id0)}
   ]]>
  </style>
  <linearGradient id="id0" gradientUnits="userSpaceOnUse" x1="269.91" y1="269.92" x2="103.89" y2="103.88">
   <stop offset="0" style="stop-opacity:1; stop-color:white"/>
   <stop offset="1" style="stop-opacity:1; stop-color:#E0E0E0"/>
  </linearGradient>
 </defs>
 <g id="Capa_x0020_1">
  <metadata id="CorelCorpID_0Corel-Layer"/>
  <path class="fil0" d="M186.92 373.79l0 -16.24 0 16.24 0 0c48.53,-0.02 97.04,-18.81 133.66,-56.25 72.15,-73.81 70.77,-192.19 -3.03,-264.34 -36.36,-35.51 -83.53,-53.2 -130.63,-53.2l0 16.21c-44.34,0.03 -88.64,17.17 -122.09,51.36 -22.73,23.24 -37.45,51.31 -44.25,80.85 -3.12,13 -4.8,26.55 -4.8,40.49 0,25.49 5.54,49.65 15.47,71.4 0.55,0.1 1.08,0.19 1.64,0.27 -0.65,-0.03 -1.35,-0.08 -2.15,-0.1 0.75,0.12 1.52,0.27 2.3,0.38 8.37,17.43 19.89,33.76 34.54,48.07 33.21,32.46 76.27,48.61 119.33,48.61 44.32,0 88.61,-17.14 122.06,-51.34 55.48,-56.76 63.35,-142.4 24.19,-207.37 -0.03,-0.02 -0.03,-0.05 -0.05,-0.1 0.26,-0.55 0.56,-1.14 0.82,-1.69 -23.18,-36.69 -59.81,-64.02 -102.92,-75.08 -14.45,-3.85 -29.28,-5.76 -44.1,-5.76l0 -16.21c-48.58,0 -97.09,18.78 -133.68,56.23 -72.13,73.83 -70.8,192.18 3,264.31 36.36,35.55 83.53,53.25 130.68,53.25zm146.25 -274.94c0.21,-0.43 0.43,-0.89 0.65,-1.35 -0.22,0.46 -0.44,0.92 -0.65,1.35z"/>
  <circle class="fil1" cx="186.9" cy="186.89" r="167.78"/>
  <path class="fil2" d="M174.23 19.68c101.17,-15.62 179.69,83.8 179.69,167.22 0,104.57 -85.9,172 -173.01,168.85 -1.94,-2.2 -45.55,-6.09 -47,-8.45 -11.45,-18.62 -8.14,-41.44 -2.41,-56.9 6.46,-17.42 27.16,-34.74 33.71,-40.27 6.56,-5.53 15.91,-15.89 15.91,-15.89 0,0 -4.69,-3.84 -7.61,-10.76 -2.92,-6.92 -4.15,-16.22 0.62,-26.67 4.76,-10.45 22.67,-19.21 31.82,-24.21 9.15,-5 24.9,-21.14 26.9,-23.44 2,-2.31 4.07,-8.53 5.69,-10.14 1.61,-1.61 4.15,-3.84 4.84,-5.07 0.69,-1.23 -3.15,-5.61 -4.15,-8.45 -1,-2.84 -3.38,-9.38 -3.38,-9.38 0,0 -1.84,3.15 -6.07,6.99 -4.23,3.84 -8.91,9.3 -12.14,9.76 -3.23,0.46 -6.07,-2 -6.53,-3.23 -0.46,-1.23 -1,-2.54 -2.16,-3.3 -1.16,-0.77 -2.29,-0.69 -3.83,0.38 -1.54,1.08 -2.77,0.46 -3.53,-0.61 -0.77,-1.08 -0.23,-3.46 -0.69,-3.92 -0.46,-0.46 -2,1.15 -3.15,1 -1.15,-0.15 -1.23,-1.23 -1.46,-2.84 -0.23,-1.61 -1.46,-3.53 -3.15,-4.3 -1.69,-0.77 -4.07,1.08 -5.38,1.46 -1.31,0.38 -3.76,-0.08 -4.58,-1.2 -0.82,-1.13 -1.64,-4.92 -1.43,-7.58 0.2,-2.66 -1.02,-7.07 -2.15,-10.76 -1.13,-3.69 -5.23,-2.87 -6.56,-3.55 -1.33,-0.68 -3.48,-4.03 -5.94,-8.03 -2.46,-4 -5.99,-11.99 -5.99,-11.99 0,0 -2.92,-1.43 -4.36,-3.89 -1.43,-2.46 -1.95,-8.4 -1.54,-11.58 0.41,-3.18 1.74,-5.43 1.54,-7.69 -0.2,-2.25 2.05,-5.12 3.69,-6.87 1.64,-1.74 1.13,-4.92 1.43,-7.89 0.31,-2.97 2.36,-6.56 5.43,-8.81 0.72,-0.53 5.26,-6.51 6.97,-7.97z"/>
  <path class="fil3" d="M229.29 24.51c72.14,18.78 125.4,84.36 125.4,162.38 0,88.82 -69.02,161.51 -156.35,167.39 -0.34,-0.02 -0.67,-0.05 -1,-0.07l-0.07 -0.08c-17.32,-19.57 -13.94,-46.32 -7.48,-63.74 6.46,-17.42 27.16,-34.74 33.71,-40.27 6.56,-5.53 15.91,-15.89 15.91,-15.89 0,0 -4.69,-3.84 -7.61,-10.76 -2.92,-6.92 -4.15,-16.22 0.62,-26.67 4.76,-10.45 22.67,-19.21 31.82,-24.21 9.15,-5 24.9,-21.14 26.9,-23.44 2,-2.31 4.07,-8.53 5.69,-10.14 1.61,-1.61 4.15,-3.84 4.84,-5.07 0.69,-1.23 -3.15,-5.61 -4.15,-8.45 -1,-2.84 -3.38,-9.38 -3.38,-9.38 0,0 -1.84,3.15 -6.07,6.99 -4.23,3.84 -8.91,9.3 -12.14,9.76 -3.23,0.46 -6.07,-2 -6.53,-3.23 -0.46,-1.23 -1,-2.54 -2.16,-3.3 -1.16,-0.77 -2.29,-0.69 -3.83,0.38 -1.54,1.08 -2.77,0.46 -3.53,-0.61 -0.77,-1.08 -0.23,-3.46 -0.69,-3.92 -0.46,-0.46 -2,1.15 -3.15,1 -1.15,-0.15 -1.23,-1.23 -1.46,-2.84 -0.23,-1.61 -1.46,-3.53 -3.15,-4.3 -1.69,-0.77 -4.07,1.08 -5.38,1.46 -1.31,0.38 -3.76,-0.08 -4.58,-1.2 -0.82,-1.13 -1.64,-4.92 -1.43,-7.58 0.2,-2.66 -1.02,-7.07 -2.15,-10.76 -1.13,-3.69 -5.23,-2.87 -6.56,-3.55 -1.33,-0.68 -3.48,-4.03 -5.94,-8.03 -2.46,-4 -5.99,-11.99 -5.99,-11.99 0,0 -2.92,-1.43 -4.36,-3.89 -1.43,-2.46 -1.95,-8.4 -1.54,-11.58 0.41,-3.18 1.74,-5.43 1.54,-7.69 -0.2,-2.25 2.05,-5.12 3.69,-6.87 1.64,-1.74 1.13,-4.92 1.43,-7.89 0.31,-2.97 2.36,-6.56 5.43,-8.81 0.72,-0.53 2.03,-1.67 3.75,-3.13z"/>
  <circle class="fil4 str0" cx="186.9" cy="186.89" r="167.78"/>
  <path class="fil5 str0" d="M147.71 195.48l-35.97 -60.14c-5.68,-9.57 -10.18,-14.33 -13.48,-14.33 -3.36,0 -7.85,4.77 -13.57,14.33l-35.88 60.14c-4.19,7.09 -6.3,12.38 -6.3,15.83 0,5.07 4.74,7.61 14.18,7.61l83.13 0c9.44,0 14.18,-2.54 14.18,-7.61 0,-3.45 -2.11,-8.74 -6.3,-15.83z"/>
  <path class="fil6" d="M100.65 183.93l-4.69 0 -2.27 -47.2 9.22 0 -2.27 47.2zm-7.76 13.25c0,-4.03 1.78,-6.04 5.36,-6.04 1.72,0 3.04,0.52 3.99,1.55 0.93,1.04 1.4,2.54 1.4,4.49 0,1.9 -0.47,3.38 -1.43,4.43 -0.94,1.05 -2.27,1.58 -3.96,1.58 -1.55,0 -2.83,-0.47 -3.84,-1.4 -1.02,-0.93 -1.52,-2.47 -1.52,-4.61z"/>
 </g>
</svg>
