<?xml version="1.0" encoding="UTF-8"?>
<!DOCTYPE svg PUBLIC "-//W3C//DTD SVG 1.1//EN" "http://www.w3.org/Graphics/SVG/1.1/DTD/svg11.dtd">
<!-- Creator: CorelDRAW 2017 -->
<svg xmlns="http://www.w3.org/2000/svg" xml:space="preserve" width="29.2317mm" height="29.2303mm" version="1.1" style="shape-rendering:geometricPrecision; text-rendering:geometricPrecision; image-rendering:optimizeQuality; fill-rule:evenodd; clip-rule:evenodd"
viewBox="0 0 109.56 109.55"
 xmlns:xlink="http://www.w3.org/1999/xlink">
 <defs>
  <style type="text/css">
   <![CDATA[
    .str0 {stroke:#178A99;stroke-width:2.81;stroke-miterlimit:22.9256}
    .str1 {stroke:#178A99;stroke-width:0.94;stroke-miterlimit:22.9256}
    .fil4 {fill:none}
    .fil3 {fill:#178A99}
    .fil5 {fill:#178A99}
    .fil2 {fill:#D4E0E5}
    .fil1 {fill:white}
    .fil0 {fill:url(#id0)}
   ]]>
  </style>
  <linearGradient id="id0" gradientUnits="userSpaceOnUse" x1="79.11" y1="79.11" x2="30.45" y2="30.45">
   <stop offset="0" style="stop-opacity:1; stop-color:white"/>
   <stop offset="1" style="stop-opacity:1; stop-color:#E0E0E0"/>
  </linearGradient>
 </defs>
 <g id="Capa_x0020_1">
  <metadata id="CorelCorpID_0Corel-Layer"/>
  <path class="fil0" d="M54.78 109.55l0 -4.76 0 4.76 0 0c14.22,-0.01 28.44,-5.51 39.17,-16.49 21.15,-21.63 20.74,-56.33 -0.89,-77.48 -10.66,-10.41 -24.48,-15.59 -38.29,-15.59l0 4.75c-13,0.01 -25.98,5.03 -35.78,15.05 -6.66,6.81 -10.98,15.04 -12.97,23.7 -0.91,3.81 -1.41,7.78 -1.41,11.87 0,7.47 1.62,14.55 4.53,20.93 0.16,0.03 0.32,0.06 0.48,0.08 -0.19,-0.01 -0.4,-0.02 -0.63,-0.03 0.22,0.03 0.45,0.08 0.67,0.11 2.45,5.11 5.83,9.9 10.12,14.09 9.73,9.51 22.35,14.25 34.97,14.25 12.99,0 25.97,-5.02 35.77,-15.05 16.26,-16.64 18.57,-41.74 7.09,-60.78 -0.01,-0.01 -0.01,-0.01 -0.01,-0.03 0.08,-0.16 0.16,-0.33 0.24,-0.5 -6.8,-10.75 -17.53,-18.76 -30.16,-22.01 -4.24,-1.13 -8.58,-1.69 -12.92,-1.69l0 -4.75c-14.24,0 -28.46,5.5 -39.18,16.48 -21.14,21.64 -20.75,56.33 0.88,77.47 10.66,10.42 24.48,15.61 38.3,15.61zm42.86 -80.58c0.06,-0.13 0.13,-0.26 0.19,-0.4 -0.06,0.13 -0.13,0.27 -0.19,0.4z"/>
  <circle class="fil1" cx="54.78" cy="54.78" r="49.18"/>
  <path class="fil2" d="M51.07 5.77c29.65,-4.58 52.67,24.56 52.67,49.01 0,30.65 -25.18,50.41 -50.71,49.49 -0.57,-0.64 -13.35,-1.79 -13.77,-2.48 -3.36,-5.46 -2.39,-12.14 -0.71,-16.68 1.89,-5.11 7.96,-10.18 9.88,-11.8 1.92,-1.62 4.66,-4.66 4.66,-4.66 0,0 -1.37,-1.13 -2.23,-3.15 -0.86,-2.03 -1.22,-4.75 0.18,-7.82 1.4,-3.06 6.64,-5.63 9.33,-7.1 2.68,-1.46 7.3,-6.19 7.88,-6.87 0.59,-0.68 1.19,-2.5 1.67,-2.97 0.47,-0.47 1.22,-1.13 1.42,-1.49 0.2,-0.36 -0.92,-1.64 -1.22,-2.48 -0.29,-0.83 -0.99,-2.75 -0.99,-2.75 0,0 -0.54,0.92 -1.78,2.05 -1.24,1.13 -2.61,2.73 -3.56,2.86 -0.95,0.13 -1.78,-0.59 -1.91,-0.95 -0.13,-0.36 -0.29,-0.74 -0.63,-0.97 -0.34,-0.23 -0.67,-0.2 -1.12,0.11 -0.45,0.32 -0.81,0.14 -1.04,-0.18 -0.23,-0.32 -0.07,-1.01 -0.2,-1.15 -0.14,-0.14 -0.59,0.34 -0.92,0.29 -0.34,-0.04 -0.36,-0.36 -0.43,-0.83 -0.07,-0.47 -0.43,-1.04 -0.92,-1.26 -0.5,-0.23 -1.19,0.32 -1.58,0.43 -0.38,0.11 -1.1,-0.02 -1.34,-0.35 -0.24,-0.33 -0.48,-1.44 -0.42,-2.22 0.06,-0.78 -0.3,-2.07 -0.63,-3.15 -0.33,-1.08 -1.53,-0.84 -1.92,-1.04 -0.39,-0.2 -1.02,-1.18 -1.74,-2.35 -0.72,-1.17 -1.76,-3.51 -1.76,-3.51 0,0 -0.86,-0.42 -1.28,-1.14 -0.42,-0.72 -0.57,-2.46 -0.45,-3.39 0.12,-0.93 0.51,-1.59 0.45,-2.25 -0.06,-0.66 0.6,-1.5 1.08,-2.01 0.48,-0.51 0.33,-1.44 0.42,-2.31 0.09,-0.87 0.69,-1.92 1.59,-2.58 0.21,-0.15 1.54,-1.91 2.04,-2.34z"/>
  <path class="fil3" d="M67.2 7.18c21.14,5.5 36.75,24.72 36.75,47.59 0,26.03 -20.23,47.34 -45.83,49.06 -0.1,-0.01 -0.2,-0.01 -0.29,-0.02l-0.02 -0.02c-5.08,-5.74 -4.08,-13.58 -2.19,-18.68 1.89,-5.11 7.96,-10.18 9.88,-11.8 1.92,-1.62 4.66,-4.66 4.66,-4.66 0,0 -1.37,-1.13 -2.23,-3.15 -0.86,-2.03 -1.22,-4.75 0.18,-7.82 1.4,-3.06 6.64,-5.63 9.33,-7.1 2.68,-1.46 7.3,-6.19 7.88,-6.87 0.59,-0.68 1.19,-2.5 1.67,-2.97 0.47,-0.47 1.22,-1.13 1.42,-1.49 0.2,-0.36 -0.92,-1.64 -1.22,-2.48 -0.29,-0.83 -0.99,-2.75 -0.99,-2.75 0,0 -0.54,0.92 -1.78,2.05 -1.24,1.13 -2.61,2.73 -3.56,2.86 -0.95,0.13 -1.78,-0.59 -1.91,-0.95 -0.13,-0.36 -0.29,-0.74 -0.63,-0.97 -0.34,-0.23 -0.67,-0.2 -1.12,0.11 -0.45,0.32 -0.81,0.14 -1.04,-0.18 -0.23,-0.32 -0.07,-1.01 -0.2,-1.15 -0.14,-0.14 -0.59,0.34 -0.92,0.29 -0.34,-0.04 -0.36,-0.36 -0.43,-0.83 -0.07,-0.47 -0.43,-1.04 -0.92,-1.26 -0.5,-0.23 -1.19,0.32 -1.58,0.43 -0.38,0.11 -1.1,-0.02 -1.34,-0.35 -0.24,-0.33 -0.48,-1.44 -0.42,-2.22 0.06,-0.78 -0.3,-2.07 -0.63,-3.15 -0.33,-1.08 -1.53,-0.84 -1.92,-1.04 -0.39,-0.2 -1.02,-1.18 -1.74,-2.35 -0.72,-1.17 -1.76,-3.51 -1.76,-3.51 0,0 -0.86,-0.42 -1.28,-1.14 -0.42,-0.72 -0.57,-2.46 -0.45,-3.39 0.12,-0.93 0.51,-1.59 0.45,-2.25 -0.06,-0.66 0.6,-1.5 1.08,-2.01 0.48,-0.51 0.33,-1.44 0.42,-2.31 0.09,-0.87 0.69,-1.92 1.59,-2.58 0.21,-0.15 0.6,-0.49 1.1,-0.92z"/>
  <circle class="fil4 str0" cx="54.78" cy="54.78" r="49.18"/>
  <path class="fil5 str1" d="M31.12 64.29l0.15 0 -0.07 0.07 -0.07 -0.07zm1.24 -1.09l0 -35.92 -2.34 0 0 35.92 -13.76 -13.74 -1.44 1.44 16.36 16.38 16.36 -16.38 -1.44 -1.44 -13.76 13.74z"/>
 </g>
</svg>
