<?xml version="1.0" encoding="UTF-8"?>
<!DOCTYPE svg PUBLIC "-//W3C//DTD SVG 1.1//EN" "http://www.w3.org/Graphics/SVG/1.1/DTD/svg11.dtd">
<!-- Creator: CorelDRAW 2017 -->
<svg xmlns="http://www.w3.org/2000/svg" xml:space="preserve" width="29.2317mm" height="29.2303mm" version="1.1" style="shape-rendering:geometricPrecision; text-rendering:geometricPrecision; image-rendering:optimizeQuality; fill-rule:evenodd; clip-rule:evenodd"
viewBox="0 0 462.22 462.19"
 xmlns:xlink="http://www.w3.org/1999/xlink">
 <defs>
  <style type="text/css">
   <![CDATA[
    .str0 {stroke:#178A99;stroke-width:11.86;stroke-miterlimit:22.9256}
    .str1 {stroke:#178A99;stroke-width:3.95;stroke-miterlimit:22.9256}
    .fil4 {fill:none}
    .fil3 {fill:#178A99}
    .fil5 {fill:#178A99}
    .fil2 {fill:#D4E0E5}
    .fil1 {fill:white}
    .fil0 {fill:url(#id0)}
   ]]>
  </style>
  <linearGradient id="id0" gradientUnits="userSpaceOnUse" x1="333.75" y1="333.75" x2="128.46" y2="128.45">
   <stop offset="0" style="stop-opacity:1; stop-color:white"/>
   <stop offset="1" style="stop-opacity:1; stop-color:#E0E0E0"/>
  </linearGradient>
 </defs>
 <g id="Capa_x0020_1">
  <metadata id="CorelCorpID_0Corel-Layer"/>
  <path class="fil0" d="M231.13 462.19l0 -20.08 0 20.08 0 0c60.01,-0.03 119.99,-23.25 165.27,-69.55 89.22,-91.26 87.51,-237.64 -3.74,-326.86 -44.96,-43.9 -103.28,-65.78 -161.52,-65.78l0 20.05c-54.83,0.03 -109.6,21.23 -150.96,63.51 -28.11,28.73 -46.31,63.45 -54.71,99.97 -3.86,16.08 -5.93,32.83 -5.93,50.07 0,31.52 6.85,61.39 19.13,88.29 0.69,0.12 1.34,0.24 2.03,0.33 -0.81,-0.03 -1.67,-0.09 -2.65,-0.12 0.92,0.15 1.88,0.33 2.84,0.48 10.35,21.55 24.59,41.75 42.71,59.44 41.06,40.14 94.31,60.1 147.55,60.1 54.8,0 109.57,-21.19 150.93,-63.48 68.6,-70.19 78.33,-176.07 29.91,-256.41 -0.03,-0.03 -0.03,-0.06 -0.06,-0.12 0.32,-0.69 0.69,-1.41 1.01,-2.1 -28.67,-45.37 -73.95,-79.16 -127.26,-92.84 -17.87,-4.76 -36.21,-7.13 -54.53,-7.13l0 -20.05c-60.08,0 -120.05,23.22 -165.3,69.52 -89.19,91.29 -87.55,237.63 3.71,326.83 44.96,43.96 103.29,65.84 161.59,65.84zm180.83 -339.97c0.26,-0.53 0.53,-1.1 0.81,-1.67 -0.27,0.57 -0.54,1.14 -0.81,1.67z"/>
  <circle class="fil1" cx="231.11" cy="231.09" r="207.47"/>
  <path class="fil2" d="M215.44 24.33c125.1,-19.32 222.19,103.61 222.19,206.76 0,129.3 -106.22,212.68 -213.93,208.78 -2.4,-2.71 -56.33,-7.53 -58.11,-10.44 -14.16,-23.02 -10.07,-51.24 -2.98,-70.36 7.98,-21.54 33.58,-42.96 41.69,-49.79 8.11,-6.84 19.67,-19.64 19.67,-19.64 0,0 -5.8,-4.75 -9.41,-13.3 -3.61,-8.55 -5.13,-20.05 0.76,-32.98 5.89,-12.92 28.03,-23.76 39.34,-29.93 11.31,-6.18 30.79,-26.13 33.26,-28.99 2.47,-2.85 5.04,-10.55 7.03,-12.54 2,-2 5.13,-4.75 5.99,-6.27 0.86,-1.52 -3.9,-6.94 -5.13,-10.45 -1.24,-3.52 -4.18,-11.59 -4.18,-11.59 0,0 -2.28,3.9 -7.51,8.65 -5.23,4.75 -11.02,11.5 -15.01,12.07 -3.99,0.57 -7.51,-2.47 -8.08,-3.99 -0.57,-1.52 -1.23,-3.14 -2.68,-4.09 -1.44,-0.95 -2.84,-0.86 -4.74,0.47 -1.9,1.33 -3.42,0.57 -4.37,-0.76 -0.95,-1.33 -0.29,-4.28 -0.86,-4.85 -0.57,-0.57 -2.47,1.42 -3.9,1.23 -1.43,-0.19 -1.52,-1.52 -1.81,-3.52 -0.29,-2 -1.81,-4.37 -3.9,-5.32 -2.09,-0.95 -5.04,1.33 -6.65,1.81 -1.61,0.47 -4.66,-0.09 -5.67,-1.49 -1.01,-1.39 -2.03,-6.08 -1.77,-9.38 0.25,-3.29 -1.27,-8.74 -2.66,-13.3 -1.39,-4.56 -6.46,-3.55 -8.11,-4.39 -1.65,-0.84 -4.31,-4.98 -7.35,-9.93 -3.04,-4.94 -7.41,-14.83 -7.41,-14.83 0,0 -3.61,-1.77 -5.39,-4.81 -1.77,-3.04 -2.41,-10.39 -1.9,-14.32 0.51,-3.93 2.16,-6.72 1.9,-9.5 -0.25,-2.79 2.53,-6.34 4.56,-8.49 2.03,-2.15 1.39,-6.08 1.77,-9.76 0.38,-3.67 2.91,-8.11 6.72,-10.9 0.89,-0.65 6.5,-8.05 8.62,-9.86z"/>
  <path class="fil3" d="M283.52 30.31c89.2,23.22 155.06,104.31 155.06,200.78 0,109.83 -85.35,199.71 -193.33,206.98 -0.41,-0.03 -0.83,-0.06 -1.24,-0.09l-0.09 -0.1c-21.41,-24.2 -17.23,-57.27 -9.25,-78.81 7.98,-21.54 33.58,-42.96 41.69,-49.79 8.11,-6.84 19.67,-19.64 19.67,-19.64 0,0 -5.8,-4.75 -9.41,-13.3 -3.61,-8.55 -5.13,-20.05 0.76,-32.98 5.89,-12.92 28.03,-23.76 39.34,-29.93 11.31,-6.18 30.79,-26.13 33.26,-28.99 2.47,-2.85 5.04,-10.55 7.03,-12.54 2,-2 5.13,-4.75 5.99,-6.27 0.86,-1.52 -3.9,-6.94 -5.13,-10.45 -1.24,-3.52 -4.18,-11.59 -4.18,-11.59 0,0 -2.28,3.9 -7.51,8.65 -5.23,4.75 -11.02,11.5 -15.01,12.07 -3.99,0.57 -7.51,-2.47 -8.08,-3.99 -0.57,-1.52 -1.23,-3.14 -2.68,-4.09 -1.44,-0.95 -2.84,-0.86 -4.74,0.47 -1.9,1.33 -3.42,0.57 -4.37,-0.76 -0.95,-1.33 -0.29,-4.28 -0.86,-4.85 -0.57,-0.57 -2.47,1.42 -3.9,1.23 -1.43,-0.19 -1.52,-1.52 -1.81,-3.52 -0.29,-2 -1.81,-4.37 -3.9,-5.32 -2.09,-0.95 -5.04,1.33 -6.65,1.81 -1.61,0.47 -4.66,-0.09 -5.67,-1.49 -1.01,-1.39 -2.03,-6.08 -1.77,-9.38 0.25,-3.29 -1.27,-8.74 -2.66,-13.3 -1.39,-4.56 -6.46,-3.55 -8.11,-4.39 -1.65,-0.84 -4.31,-4.98 -7.35,-9.93 -3.04,-4.94 -7.41,-14.83 -7.41,-14.83 0,0 -3.61,-1.77 -5.39,-4.81 -1.77,-3.04 -2.41,-10.39 -1.9,-14.32 0.51,-3.93 2.16,-6.72 1.9,-9.5 -0.25,-2.79 2.53,-6.34 4.56,-8.49 2.03,-2.15 1.39,-6.08 1.77,-9.76 0.38,-3.67 2.91,-8.11 6.72,-10.9 0.89,-0.65 2.51,-2.07 4.63,-3.88z"/>
  <circle class="fil4 str0" cx="231.11" cy="231.09" r="207.47"/>
  <path class="fil5 str1" d="M137.62 158.67l0.62 0 -0.31 -0.31 -0.31 0.31zm5.24 4.61l0 151.55 -9.85 0 0 -151.55 -58.03 57.95 -6.07 -6.07 69.03 -69.12 69.03 69.12 -6.07 6.07 -58.03 -57.95z"/>
 </g>
</svg>
