<?xml version="1.0" encoding="UTF-8"?>
<!DOCTYPE svg PUBLIC "-//W3C//DTD SVG 1.1//EN" "http://www.w3.org/Graphics/SVG/1.1/DTD/svg11.dtd">
<!-- Creator: CorelDRAW 2017 -->
<svg xmlns="http://www.w3.org/2000/svg" xml:space="preserve" width="29.2317mm" height="29.2303mm" version="1.1" style="shape-rendering:geometricPrecision; text-rendering:geometricPrecision; image-rendering:optimizeQuality; fill-rule:evenodd; clip-rule:evenodd"
viewBox="0 0 1698.9 1698.82"
 xmlns:xlink="http://www.w3.org/1999/xlink">
 <defs>
  <style type="text/css">
   <![CDATA[
    .str0 {stroke:#936FB0;stroke-width:43.59;stroke-miterlimit:22.9256}
    .fil3 {fill:none}
    .fil2 {fill:#D4E0E5}
    .fil1 {fill:white}
    .fil4 {fill:#936FB0;fill-rule:nonzero}
    .fil0 {fill:url(#id0)}
   ]]>
  </style>
  <linearGradient id="id0" gradientUnits="userSpaceOnUse" x1="1226.72" y1="1226.73" x2="472.15" y2="472.11">
   <stop offset="0" style="stop-opacity:1; stop-color:white"/>
   <stop offset="1" style="stop-opacity:1; stop-color:#E0E0E0"/>
  </linearGradient>
 </defs>
 <g id="Capa_x0020_1">
  <metadata id="CorelCorpID_0Corel-Layer"/>
  <path class="fil0" d="M849.53 1698.82l0 -73.81 0 73.81 0 0c220.56,-0.1 441.02,-85.47 607.44,-255.64 327.92,-335.44 321.66,-873.47 -13.75,-1201.39 -165.24,-161.37 -379.62,-241.79 -593.69,-241.79l0 73.68c-201.54,0.13 -402.85,78.02 -554.87,233.44 -103.31,105.61 -170.2,233.22 -201.1,367.43 -14.19,59.09 -21.79,120.68 -21.79,184.04 0,115.85 25.19,225.64 70.32,324.52 2.52,0.44 4.92,0.87 7.45,1.21 -2.96,-0.12 -6.14,-0.34 -9.76,-0.44 3.39,0.53 6.92,1.22 10.44,1.75 38.04,79.2 90.4,153.45 156.98,218.47 150.92,147.53 346.63,220.9 542.33,220.9 201.41,0 402.73,-77.9 554.75,-233.31 252.15,-257.98 287.91,-647.17 109.92,-942.45 -0.12,-0.09 -0.12,-0.22 -0.22,-0.44 1.19,-2.52 2.53,-5.17 3.71,-7.7 -105.37,-166.76 -271.82,-290.97 -467.74,-341.24 -65.67,-17.49 -133.09,-26.19 -200.42,-26.19l0 -73.68c-220.81,0 -441.24,85.35 -607.57,255.54 -327.83,335.53 -321.78,873.44 13.63,1201.27 165.24,161.59 379.65,242.01 593.94,242.01zm664.67 -1249.57c0.96,-1.96 1.96,-4.05 2.96,-6.14 -1,2.09 -2,4.18 -2.96,6.14z"/>
  <circle class="fil1" cx="849.45" cy="849.4" r="762.55"/>
  <path class="fil2" d="M1042.08 111.41c327.88,85.35 569.92,383.39 569.92,737.99 0,403.68 -313.69,734.04 -710.6,760.75 -1.52,-0.1 -3.04,-0.21 -4.56,-0.33l-0.33 -0.37c-78.7,-88.95 -63.34,-210.5 -34,-289.68 29.34,-79.18 123.42,-157.88 153.22,-183.02 29.81,-25.14 72.31,-72.2 72.31,-72.2 0,0 -21.31,-17.46 -34.58,-48.9 -13.27,-31.44 -18.86,-73.7 2.8,-121.21 21.65,-47.5 103.04,-87.32 144.6,-110.02 41.57,-22.71 113.17,-96.06 122.25,-106.54 9.08,-10.48 18.52,-38.77 25.85,-46.11 7.33,-7.33 18.86,-17.46 22,-23.06 3.14,-5.59 -14.32,-25.5 -18.86,-38.42 -4.54,-12.92 -15.37,-42.61 -15.37,-42.61 0,0 -8.38,14.32 -27.59,31.78 -19.21,17.46 -40.51,42.26 -55.18,44.36 -14.67,2.09 -27.59,-9.08 -29.69,-14.67 -2.09,-5.59 -4.54,-11.52 -9.83,-15.02 -5.29,-3.49 -10.43,-3.14 -17.41,1.74 -6.99,4.89 -12.57,2.1 -16.06,-2.79 -3.49,-4.89 -1.05,-15.72 -3.14,-17.81 -2.1,-2.1 -9.08,5.24 -14.32,4.54 -5.24,-0.7 -5.59,-5.59 -6.64,-12.93 -1.05,-7.33 -6.64,-16.06 -14.32,-19.56 -7.68,-3.49 -18.52,4.89 -24.46,6.64 -5.93,1.74 -17.11,-0.35 -20.84,-5.47 -3.73,-5.13 -7.46,-22.36 -6.52,-34.46 0.93,-12.11 -4.66,-32.13 -9.78,-48.9 -5.13,-16.77 -23.75,-13.04 -29.8,-16.15 -6.06,-3.1 -15.84,-18.32 -27.01,-36.48 -11.18,-18.16 -27.25,-54.49 -27.25,-54.49 0,0 -13.27,-6.52 -19.8,-17.7 -6.52,-11.18 -8.85,-38.19 -6.99,-52.63 1.87,-14.44 7.92,-24.68 6.99,-34.93 -0.93,-10.25 9.32,-23.29 16.77,-31.2 7.45,-7.92 5.12,-22.36 6.52,-35.86 1.39,-13.51 10.71,-29.81 24.68,-40.06 3.28,-2.4 9.24,-7.6 17.02,-14.24z"/>
  <circle class="fil3 str0" cx="849.45" cy="849.4" r="762.55"/>
  <g id="_3070206452112">
   <path class="fil4" d="M841.41 584.75l-85.58 0 0 -39.39c0,-10.91 -8.86,-19.77 -19.77,-19.77 -10.88,0 -19.75,8.86 -19.75,19.77l0 39.39 -118.32 0 0 -39.39c0,-10.91 -8.87,-19.77 -19.75,-19.77 -10.91,0 -19.77,8.86 -19.77,19.77l0 39.39 -118.44 0 0 -39.39c0,-10.91 -8.86,-19.77 -19.76,-19.77 -10.88,0 -19.64,8.86 -19.64,19.77l0 39.39 -85.59 0c-29.01,0 -52.61,23.61 -52.61,52.61l0 467.11c0,29.11 23.61,52.72 52.61,52.72l526.37 0c29.01,0 52.61,-23.61 52.61,-52.72l0 -467.11c0,-29.01 -23.61,-52.61 -52.61,-52.61zm13.1 519.72c0,7.33 -5.88,13.2 -13.1,13.2l-526.37 0c-7.22,0 -13.1,-5.86 -13.1,-13.2l0 -467.11c0,-7.23 5.88,-13.09 13.1,-13.09l85.59 0 0 39.53c0,10.87 8.76,19.63 19.64,19.63 10.9,0 19.76,-8.76 19.76,-19.63l0 -39.53 118.44 0 0 39.53c0,10.87 8.86,19.63 19.77,19.63 10.88,0 19.75,-8.76 19.75,-19.63l0 -39.53 118.32 0 0 39.53c0,10.87 8.87,19.63 19.75,19.63 10.91,0 19.77,-8.76 19.77,-19.63l0 -39.53 85.58 0c7.22,0 13.1,5.86 13.1,13.09l0 467.11z"/>
   <polygon class="fil4" points="400.62,821.63 479.55,821.63 479.55,762.47 400.62,762.47 "/>
   <polygon class="fil4" points="400.62,920.31 479.55,920.31 479.55,861.15 400.62,861.15 "/>
   <polygon class="fil4" points="400.62,1018.99 479.55,1018.99 479.55,959.83 400.62,959.83 "/>
   <polygon class="fil4" points="538.7,1018.99 617.62,1018.99 617.62,959.83 538.7,959.83 "/>
   <polygon class="fil4" points="538.7,920.31 617.62,920.31 617.62,861.15 538.7,861.15 "/>
   <polygon class="fil4" points="538.7,821.63 617.62,821.63 617.62,762.47 538.7,762.47 "/>
   <polygon class="fil4" points="676.91,1018.99 755.83,1018.99 755.83,959.83 676.91,959.83 "/>
   <polygon class="fil4" points="676.91,920.31 755.83,920.31 755.83,861.15 676.91,861.15 "/>
   <polygon class="fil4" points="676.91,821.63 755.83,821.63 755.83,762.47 676.91,762.47 "/>
  </g>
 </g>
</svg>
