<?xml version="1.0" encoding="UTF-8"?>
<!DOCTYPE svg PUBLIC "-//W3C//DTD SVG 1.1//EN" "http://www.w3.org/Graphics/SVG/1.1/DTD/svg11.dtd">
<!-- Creator: CorelDRAW 2017 -->
<svg xmlns="http://www.w3.org/2000/svg" xml:space="preserve" width="29.2317mm" height="29.2303mm" version="1.1" style="shape-rendering:geometricPrecision; text-rendering:geometricPrecision; image-rendering:optimizeQuality; fill-rule:evenodd; clip-rule:evenodd"
viewBox="0 0 1275.09 1275.03"
 xmlns:xlink="http://www.w3.org/1999/xlink">
 <defs>
  <style type="text/css">
   <![CDATA[
    .str0 {stroke:#4E99C4;stroke-width:32.72;stroke-miterlimit:22.9256}
    .str1 {stroke:#4E99C4;stroke-width:10.91;stroke-miterlimit:22.9256}
    .fil3 {fill:none}
    .fil2 {fill:#4E99C4}
    .fil4 {fill:#D4E0E5}
    .fil1 {fill:white}
    .fil5 {fill:#4E99C4;fill-rule:nonzero}
    .fil0 {fill:url(#id0)}
   ]]>
  </style>
  <linearGradient id="id0" gradientUnits="userSpaceOnUse" x1="920.7" y1="920.71" x2="354.37" y2="354.34">
   <stop offset="0" style="stop-opacity:1; stop-color:white"/>
   <stop offset="1" style="stop-opacity:1; stop-color:#E0E0E0"/>
  </linearGradient>
 </defs>
 <g id="Capa_x0020_1">
  <metadata id="CorelCorpID_0Corel-Layer"/>
  <path class="fil0" d="M637.6 1275.03l0 -55.4 0 55.4 0 0c165.54,-0.07 331,-64.15 455.91,-191.87 246.12,-251.76 241.42,-655.57 -10.32,-901.69 -124.02,-121.12 -284.92,-181.47 -445.59,-181.47l0 55.3c-151.26,0.1 -302.36,58.56 -416.45,175.2 -77.54,79.27 -127.74,175.04 -150.93,275.77 -10.65,44.35 -16.36,90.57 -16.36,138.13 0,86.95 18.91,169.35 52.78,243.57 1.89,0.33 3.69,0.65 5.59,0.91 -2.22,-0.09 -4.61,-0.26 -7.32,-0.33 2.55,0.4 5.2,0.92 7.84,1.31 28.55,59.45 67.85,115.17 117.82,163.97 113.27,110.73 260.16,165.8 407.04,165.8 151.17,0 302.26,-58.46 416.36,-175.11 189.25,-193.63 216.09,-485.73 82.5,-707.34 -0.09,-0.07 -0.09,-0.16 -0.17,-0.33 0.89,-1.89 1.9,-3.88 2.79,-5.78 -79.08,-125.16 -204.01,-218.38 -351.06,-256.11 -49.29,-13.13 -99.89,-19.66 -150.42,-19.66l0 -55.3c-165.73,0 -331.17,64.06 -456.01,191.79 -246.05,251.83 -241.51,655.55 10.23,901.6 124.02,121.28 284.94,181.64 445.78,181.64zm498.86 -937.85c0.72,-1.47 1.47,-3.04 2.22,-4.61 -0.75,1.57 -1.5,3.14 -2.22,4.61z"/>
  <circle class="fil1" cx="637.54" cy="637.51" r="572.33"/>
  <path class="fil2" d="M782.12 83.62c246.08,64.06 427.75,287.75 427.75,553.89 0,302.98 -235.44,550.93 -533.33,570.97 -1.14,-0.08 -2.28,-0.16 -3.42,-0.24l-0.24 -0.27c-59.07,-66.76 -47.54,-157.99 -25.52,-217.42 22.02,-59.43 92.63,-118.5 115,-137.36 22.37,-18.87 54.27,-54.19 54.27,-54.19 0,0 -15.99,-13.11 -25.95,-36.7 -9.96,-23.59 -14.15,-55.31 2.1,-90.97 16.25,-35.65 77.33,-65.54 108.53,-82.58 31.2,-17.04 84.94,-72.1 91.76,-79.96 6.82,-7.86 13.9,-29.1 19.4,-34.6 5.5,-5.5 14.15,-13.11 16.51,-17.3 2.36,-4.2 -10.75,-19.14 -14.15,-28.84 -3.41,-9.7 -11.54,-31.98 -11.54,-31.98 0,0 -6.29,10.75 -20.71,23.86 -14.42,13.11 -30.41,31.72 -41.42,33.3 -11.01,1.57 -20.71,-6.82 -22.29,-11.01 -1.57,-4.19 -3.41,-8.65 -7.38,-11.27 -3.97,-2.62 -7.83,-2.36 -13.07,1.31 -5.24,3.67 -9.44,1.57 -12.06,-2.09 -2.62,-3.67 -0.79,-11.79 -2.36,-13.37 -1.57,-1.57 -6.82,3.93 -10.75,3.41 -3.93,-0.52 -4.2,-4.19 -4.98,-9.7 -0.79,-5.5 -4.98,-12.06 -10.75,-14.68 -5.77,-2.62 -13.9,3.67 -18.36,4.98 -4.45,1.31 -12.84,-0.26 -15.64,-4.11 -2.8,-3.85 -5.6,-16.78 -4.89,-25.87 0.7,-9.09 -3.49,-24.12 -7.34,-36.7 -3.85,-12.58 -17.83,-9.79 -22.37,-12.12 -4.55,-2.33 -11.89,-13.75 -20.27,-27.38 -8.39,-13.63 -20.45,-40.9 -20.45,-40.9 0,0 -9.96,-4.89 -14.86,-13.28 -4.89,-8.39 -6.64,-28.66 -5.24,-39.5 1.4,-10.84 5.95,-18.53 5.24,-26.22 -0.7,-7.69 6.99,-17.48 12.58,-23.42 5.59,-5.94 3.84,-16.78 4.89,-26.91 1.05,-10.14 8.04,-22.37 18.53,-30.06 2.46,-1.8 6.94,-5.7 12.78,-10.69z"/>
  <circle class="fil3 str0" cx="637.54" cy="637.51" r="572.33"/>
  <g>
   <path class="fil4" d="M979.59 909.06l59.14 -3.54 -59.14 3.54zm49.98 -64.42l3.95 -3.95 1.39 -1.63 2.32 0.7 1.63 -1.86 -1.39 -1.39 2.55 -3.02 0.93 0.93 3.71 -4.17 -0.7 -1.63 2.32 -3.01 1.86 -0.23 0.47 -3.25 5.57 -2.09 -0.46 -2.09 6.73 -2.32 3.02 -1.62 4.88 -0.23 -0.46 -2.56 1.85 -0.69 0 -2.56 4.64 -0.23 0 2.56 2.56 0 -0.23 -5.81 4.87 -0.93 -0.92 -6.26 -1.16 -0.93 1.62 -3.94 -0.46 -3.48 4.41 -1.16 2.32 0.69 0 -4.41 -1.16 -0.24 -0.69 2.09 -6.03 0 -0.47 -6.03 2.32 -0.46 0 -4.65 -51.76 69.87zm-731.34 -168.42l-2.66 -4.78 2.66 4.78zm9.91 7.61l-9.91 -7.61 -2.66 -4.78 12.57 12.39zm730.59 221.69l-8.15 -0.36 -50.99 3.9 0.53 18.77 -12.22 1.77 -0.89 1.23 12.04 10.45 11.52 6.73 3.01 6.37 6.9 3.36 0.53 11.51 -43.38 3.37 -15.04 28.51 5.13 7.26 -1.24 3.01 -0.71 9.39 0 6.73 -18.59 -15.58 -3.72 -4.96 -24.26 -18.24 -12.75 -10.8 -7.43 -4.25 -10.27 -3.18 -1.59 2.47 -6.38 -0.35 -5.67 -3.19 0.53 -1.42 -3.9 -1.59 -3.72 1.59 -14.7 14.7 -30.1 11.69 -6.73 1.06 -10.8 -4.24 -6.37 -2.84 -1.77 -3.01 -22.13 -0.72 -7.08 -2.48 -8.5 -5.31 -10.45 -3.54 -8.5 -7.44 -6.37 0 -12.39 -3.18 -14.35 -3.72 -7.44 -6.73 -7.61 -0.88 -28.86 -11.15 -18.94 -13.82 -8.68 -8.85 -4.6 -1.06 -2.66 1.06 -3.01 1.06 -40.73 -14.52 -9.38 -11.51 -3.9 -4.96 -17.71 -10.45 -5.31 -2.66 -10.8 -5.31 -17.71 -24.44 -3.9 -10.97 -1.23 -3.9 5.84 -2.12 6.2 -1.77 1.77 -4.25 -6.38 -4.25 -2.48 -0.71 1.6 -3.36 6.02 -4.97 1.95 -5.84 1.24 -8.5 -7.26 -5.67 -6.55 -15.41 0.71 -3.54 4.07 3.72 1.24 -1.24 -4.96 -7.43 0.53 -7.27 -4.25 -0.89 -5.67 -8.5 -3.54 -3.36 0.88 -2.12 -19.65 -20.72 -9.56 -15.05 -3.37 -6.02 -9.03 -4.43 -5.13 -10.26 -5.67 0 -6.37 -6.73 -0.53 -4.79 -2.48 -4.78 0 -2.66 -8.5 -5.49 -6.2 -4.61 -6.02 -5.84 -2.84 -3.01 -2.12 3.01 -11.15 -6.2 -1.6 -0.35 0 -3.01 -3.18 -6.37 2.12 -6.02 4.61 -5.67 -0.36 -2.66 -0.71 -7.61 -5.49 -6.91 -4.6 1.24 -5.49 -2.12 -2.84 -10.27 -6.73 -4.07 -4.78 -1.59 -6.02 -6.38 -2.12 -11.33 1.23 -7.44 -7.43 -1.95 -1.6 0.89 -0.89 0.89 -4.78 -3.01 -5.49 -5.31 -4.6 -9.92 -10.44 -8.85 -3.37 -3.72 0 -4.25 -6.91 -9.21 -0.89 -7.79 -4.25 -2.83 0.17 -4.25 -9.91 -18.6 -0.35 -8.5 -3.19 -8.15 -4.78 -10.63 1.59 -10.09 0 -4.25 -5.49 -3.9 -3.9 -0.35 -9.91 -10.98 -4.25 -2.12 -5.13 2.84 -10.09 -7.26 -6.55 -3.36 -0.71 -0.53 -3.01 -0.53 -4.07 21.95 0.88 5.13 2.13 3.9 1.95 28.51 4.78 9.03 4.43 4.24 12.22 13.46 7.44 12.75 0.53 3.9 6.37 2.12 3.9 13.81 6.91 4.25 1.41 7.26 1.24 3.01 0 2.12 0 2.12 2.66 10.1 7.79 8.32 2.12 6.91 6.02 5.84 2.12 0.89 0 5.14 2.12 4.61 1.42 6.37 3.01 3.01 0 -5.13 -1.42 -3.72 0.89 -1.42 6.55 6.73 0.36 4.6 2.12 2.13 -0.89 2.66 3.01 6.38 0.71 6.37 -2.12 4.25 5.67 11.86 4.6 3.19 1.23 8.14 5.85 11.33 2.13 5.67 -1.95 10.63 2.12 7.08 8.5 5.67 2.12 -1.95 0.35 -4.25 3.36 0.89 7.44 9.74 3.36 1.24 1.24 6.37 2.66 6.2 7.44 9.39 -3.01 8.85 -7.44 4.96 -3.9 3.72 -2.48 0.53 -5.13 -5.49 -4.07 -17.53 -5.67 -4.96 -6.02 -3.72 -17.53 -17.71 -13.28 -12.92 -1.77 0 -0.89 -4.43 -2.12 1.41 -3.01 -5.13 -2.48 -0.89 -3.01 -8.5 3.9 -23.37 -7.44 -18.42 -4.61 -2.12 -24.79 -21.07 -2.66 1.24 -4.61 0.18 -6.37 -8.14 -3.9 -1.24 -4.78 -4.25 -8.5 -4.43 -1.78 -3.54 -13.28 -16.82 1.24 -0.71 9.38 2.3 7.61 -2.12 3.37 4.07 3.9 0.88 5.13 2.13 0.89 -2.66 -1.42 -1.23 -3.72 -0.89 -4.24 -4.61 3.72 -3.36 0.89 -3.9 1.06 -6.37 3.01 -6.38 -8.67 -11.51 -6.38 -7.44 -13.81 -15.76 -5.84 -4.43 -11.33 -10.27 0 -3.36 -2.48 -3.54 0.17 -11.69 -5.84 -5.84 -1.06 -14.87 -5.13 -4.25 -0.53 -8.5 -5.14 -8.5 -2.12 -4.07 -0.35 -4.25 2.65 -5.31 -2.12 -4.07 -3.72 -2.12 -2.3 -8.5 -4.78 -8.5 0.89 -3.37 -0.53 -1.06 0.18 0.18 71 1.95 -3.54 7.26 5.67 2.83 105 47.28 63.57 3.01 18.68 0.71 -0.27 -3.36 0.35 -11.16 50.29 1.06 7.97 9.03 6.91 6.37 11.16 11.33 7.61 7.26 12.57 9.21 3.37 10.09 3.54 5.13 0.54 10.62 6.91 10.98 5.13 2.48 6.73 6.02 5.13 0.53 6.55 5.13 3.9 0.89 7.26 4.96 4.6 -0.53 8.68 -12.22 3.9 -10.27 5.31 -3.54 4.25 -0.35 3.9 -3.54 12.75 3.36 10.63 0.36 13.81 11.33 11.52 12.57 11.33 24.97 1.24 3.9 6.55 4.43 7.79 12.39 1.95 3.01 5.13 1.95 2.3 3.72 -1.24 4.78 3.36 6.37 -0.35 4.25 7.26 13.11 4.07 9.74 8.85 1.95 5.13 4.25 9.39 1.6 6.72 4.6 15.41 1.24 6.9 3.72 6.2 -3.18 2.3 2.12 -5.31 18.59 -5.13 10.09 -4.78 22.13 -0.89 -0.36 4.07 -21.78 4.07 -8.68 -1.95 -1.42 -1.42 2.83 -3.72 -1.24 -3.01 3.01 1.23 3.01 -1.23 5.85 3.36 3.01 -2.3 3.9 0.35 6.73 -2.48 4.25 0.36 1.23 3.01 1.78 -1.6 7.62 -0.17 20.89 1.06 17.88 0 7.62 -4.07 8.85 2.3 8.86 3.72 14.16 9.56 9.74 3.01 3.9 -0.89 4.61 -1.95 0.17 -0.18 -1.41 -0.71 -6.55 -8.14 -7.79 3.01 10.09 4.96 5.5 1.42 1.77 7.26 17.52 16.47 22.85 11.15 15.23 7.79 17.35 9.92 11.86 5.13 4.25 20.01 1.06 7.26 4.61 5.13 1.24 7.26 10.8 6.9 2.66 9.03 -4.43 15.06 -7.26 13.45 -2.84 2.66 1.42 5.49 -2.66 10.27 -3.89 5.85 -3.9 15.4 -2.66 2.12 1.24 -1.77 3.72 4.25 1.42 1.24 2.48 10.62 -1.95 7.62 -5.84 0.53 -1.77 -5.31 -5.49 4.6 -4.61 14.35 -11.69 2.48 -5.49 0 -10.63 7.08 -7.97 -2.66 -17.18 1.95 -15.05 4.24 -7.26 16.47 -9.03 3.37 -0.53 30.99 -8.14 6.73 -4.96 30.28 1.23 7.61 -0.17 2.12 -1.77 0.89 -0.89 -1.77 -1.6 4.6 -1.77 4.78 2.47 5.49 6.73 -1.24 3.72 1.24 3.9 -2.83 9.38 -12.57 16.65 -3.19 13.63 0 7.26 -3.89 3.37 -2.12 0.17 -0.71 2.13 2.84 2.83 5.67 -1.77 1.59 0.88 -1.06 3.01 -5.13 3.9 -1.6 3.54 0.72 1.06 5.13 -3.01 0.53 2.13 -2.13 6.91 -6.9 26.38 -0.53 8.15 -1.24 -0.18 0.18 -7.79 -5.49 -6.02 0.89 -8.15 -1.24 -2.13 -0.88 0.89 -1.24 3.01 -5.49 5.49 -7.08 5.31 -0.89 3.72 -7.79 14.87 -7.08 -2.66 -2.63 2.34 -0.55 0.49 -0.1 1.43 -0.26 3.7z"/>
  </g>
  <polygon class="fil5 str1" points="363.07,846.66 208.16,691.4 230.55,669 363.07,801.18 687.21,477.38 709.61,499.78 "/>
 </g>
</svg>
