<?xml version="1.0" encoding="UTF-8"?>
<!DOCTYPE svg PUBLIC "-//W3C//DTD SVG 1.1//EN" "http://www.w3.org/Graphics/SVG/1.1/DTD/svg11.dtd">
<!-- Creator: CorelDRAW 2017 -->
<svg xmlns="http://www.w3.org/2000/svg" xml:space="preserve" width="29.2317mm" height="29.2303mm" version="1.1" style="shape-rendering:geometricPrecision; text-rendering:geometricPrecision; image-rendering:optimizeQuality; fill-rule:evenodd; clip-rule:evenodd"
viewBox="0 0 609.51 609.48"
 xmlns:xlink="http://www.w3.org/1999/xlink">
 <defs>
  <style type="text/css">
   <![CDATA[
    .str0 {stroke:#DE525E;stroke-width:15.64;stroke-miterlimit:22.9256}
    .str1 {stroke:#DE525E;stroke-width:1.59;stroke-miterlimit:22.9256}
    .fil3 {fill:none}
    .fil2 {fill:#D4E0E5}
    .fil1 {fill:white}
    .fil4 {fill:#DE525E;fill-rule:nonzero}
    .fil0 {fill:url(#id0)}
   ]]>
  </style>
  <linearGradient id="id0" gradientUnits="userSpaceOnUse" x1="440.1" y1="440.11" x2="169.39" y2="169.38">
   <stop offset="0" style="stop-opacity:1; stop-color:white"/>
   <stop offset="1" style="stop-opacity:1; stop-color:#E0E0E0"/>
  </linearGradient>
 </defs>
 <g id="Capa_x0020_1">
  <metadata id="CorelCorpID_0Corel-Layer"/>
  <path class="fil0" d="M304.78 609.48l0 -26.48 0 26.48 0 0c79.13,-0.04 158.22,-30.67 217.93,-91.71 117.65,-120.34 115.4,-313.37 -4.93,-431.02 -59.28,-57.89 -136.19,-86.75 -213,-86.75l0 26.43c-72.3,0.05 -144.53,27.99 -199.07,83.75 -37.06,37.89 -61.06,83.67 -72.15,131.82 -5.09,21.2 -7.82,43.29 -7.82,66.03 0,41.56 9.04,80.95 25.23,116.43 0.9,0.16 1.77,0.31 2.67,0.44 -1.06,-0.04 -2.2,-0.12 -3.5,-0.16 1.22,0.19 2.48,0.44 3.75,0.63 13.65,28.42 32.43,55.05 56.32,78.38 54.15,52.93 124.36,79.25 194.57,79.25 72.26,0 144.48,-27.95 199.02,-83.7 90.46,-92.56 103.29,-232.18 39.44,-338.12 -0.04,-0.03 -0.04,-0.08 -0.08,-0.16 0.43,-0.9 0.91,-1.86 1.33,-2.76 -37.8,-59.83 -97.52,-104.39 -167.81,-122.42 -23.56,-6.28 -47.75,-9.4 -71.9,-9.4l0 -26.43c-79.22,0 -158.3,30.62 -217.98,91.68 -117.61,120.38 -115.44,313.36 4.89,430.97 59.28,57.97 136.21,86.83 213.09,86.83zm238.46 -448.3c0.35,-0.7 0.7,-1.45 1.06,-2.2 -0.36,0.75 -0.72,1.5 -1.06,2.2z"/>
  <circle class="fil1" cx="304.75" cy="304.74" r="273.58"/>
  <path class="fil2" d="M373.86 39.97c117.63,30.62 204.47,137.55 204.47,264.76 0,144.83 -112.54,263.35 -254.94,272.93 -0.55,-0.04 -1.09,-0.08 -1.63,-0.12l-0.12 -0.13c-28.24,-31.91 -22.72,-75.52 -12.2,-103.93 10.53,-28.41 44.28,-56.64 54.97,-65.66 10.69,-9.02 25.94,-25.9 25.94,-25.9 0,0 -7.64,-6.27 -12.41,-17.54 -4.76,-11.28 -6.77,-26.44 1,-43.48 7.77,-17.04 36.97,-31.33 51.88,-39.47 14.91,-8.15 40.6,-34.46 43.86,-38.22 3.26,-3.76 6.64,-13.91 9.27,-16.54 2.63,-2.63 6.77,-6.27 7.89,-8.27 1.13,-2.01 -5.14,-9.15 -6.77,-13.78 -1.63,-4.64 -5.52,-15.29 -5.52,-15.29 0,0 -3.01,5.14 -9.9,11.4 -6.89,6.27 -14.54,15.16 -19.8,15.92 -5.26,0.75 -9.9,-3.26 -10.65,-5.26 -0.75,-2 -1.63,-4.13 -3.53,-5.39 -1.9,-1.25 -3.74,-1.13 -6.25,0.63 -2.51,1.76 -4.51,0.75 -5.76,-1 -1.25,-1.76 -0.38,-5.64 -1.13,-6.39 -0.75,-0.75 -3.26,1.88 -5.14,1.63 -1.88,-0.25 -2.01,-2 -2.38,-4.64 -0.38,-2.63 -2.38,-5.76 -5.14,-7.02 -2.76,-1.25 -6.64,1.75 -8.77,2.38 -2.13,0.63 -6.14,-0.13 -7.48,-1.96 -1.34,-1.84 -2.68,-8.02 -2.34,-12.36 0.33,-4.34 -1.67,-11.53 -3.51,-17.54 -1.84,-6.02 -8.52,-4.68 -10.69,-5.79 -2.17,-1.11 -5.68,-6.57 -9.69,-13.09 -4.01,-6.52 -9.77,-19.55 -9.77,-19.55 0,0 -4.76,-2.34 -7.1,-6.35 -2.34,-4.01 -3.17,-13.7 -2.51,-18.88 0.67,-5.18 2.84,-8.86 2.51,-12.53 -0.33,-3.68 3.34,-8.35 6.02,-11.19 2.67,-2.84 1.84,-8.02 2.34,-12.87 0.5,-4.85 3.84,-10.69 8.86,-14.37 1.18,-0.86 3.32,-2.73 6.11,-5.11z"/>
  <circle class="fil3 str0" cx="304.75" cy="304.74" r="273.58"/>
  <g id="_3069801499600">
   <path class="fil4 str1" d="M190.64 166.59c-8.87,0 -16.07,7.2 -16.07,16.07 0,8.88 7.19,16.07 16.07,16.07 8.88,0 16.07,-7.2 16.07,-16.07 0,-8.87 -7.19,-16.07 -16.07,-16.07zm0 21.43c-2.96,0 -5.35,-2.4 -5.35,-5.36 0,-2.95 2.4,-5.35 5.35,-5.35 2.96,0 5.35,2.4 5.35,5.35 0,2.96 -2.4,5.36 -5.35,5.36z"/>
   <path class="fil4 str1" d="M370.06 204.09c-19.21,0.02 -34.79,15.6 -34.81,34.81l0 190.14c-0.02,17.74 -14.4,32.12 -32.14,32.13l-74.98 0c-15.67,-0.03 -29.03,-11.34 -31.66,-26.78l4.87 0c2.96,0 5.35,-2.4 5.35,-5.35l0 -21.43 42.85 0c26.61,-0.03 48.17,-21.59 48.21,-48.2l0 -128.55c-0.03,-26.61 -21.6,-48.17 -48.21,-48.21l-16.07 0c-2.96,0 -5.35,-2.4 -5.35,-5.35l0 -10.71c0,-8.87 -7.2,-16.07 -16.07,-16.07l-42.85 0c-8.87,0 -16.07,7.2 -16.07,16.07l0 10.71c0,2.96 -2.4,5.35 -5.35,5.35l-16.07 0c-26.61,0.03 -48.17,21.6 -48.21,48.21l0 128.55c0.03,26.61 21.6,48.17 48.21,48.2l0 42.85c0,2.96 2.4,5.36 5.35,5.36l21.43 0c2.95,0 5.35,-2.4 5.35,-5.36l0 -42.85 10.71 0 0 21.43c0,2.96 2.4,5.35 5.35,5.35l5.73 0c2.71,21.4 20.91,37.46 42.48,37.49l74.98 0c23.66,-0.03 42.82,-19.2 42.85,-42.85l0 -190.14c0,-13.31 10.79,-24.1 24.1,-24.1 13.31,0 24.1,10.79 24.1,24.1l0 232.98 10.71 0 0 -232.98c-0.02,-19.22 -15.6,-34.79 -34.81,-34.81zm-238.34 192.81c-20.7,-0.02 -37.47,-16.79 -37.49,-37.49l0 -128.55c0.02,-20.69 16.8,-37.47 37.49,-37.49l16.07 0c8.87,0 16.07,-7.19 16.07,-16.07l0 -10.71c0,-2.96 2.4,-5.35 5.36,-5.35l42.85 0c2.95,0 5.35,2.4 5.35,5.35l0 10.71c0,8.88 7.2,16.07 16.07,16.07l16.07 0c20.7,0.02 37.47,16.8 37.49,37.49l0 128.55c-0.02,20.7 -16.8,37.47 -37.49,37.49l-42.85 0 0 -10.71 37.49 0c17.74,-0.02 32.12,-14.4 32.13,-32.14l0 -117.83c-0.01,-17.74 -14.39,-32.12 -32.13,-32.14l-107.12 0c-17.74,0.02 -32.12,14.39 -32.14,32.14l0 117.83c0.02,15.68 11.33,29.06 26.78,31.69l0 11.15 0 0zm133.9 -112.66c-6.72,-0.43 -13.3,-2.05 -19.44,-4.79 -9.05,-4.01 -18.87,-5.97 -28.77,-5.74 -9.9,-0.23 -19.72,1.73 -28.78,5.74 -7.79,3.49 -16.25,5.19 -24.78,4.98 -8.53,0.21 -17,-1.48 -24.78,-4.97 -7.4,-3.29 -15.34,-5.18 -23.42,-5.59l0 -37.65c0,-11.83 9.6,-21.42 21.43,-21.42l107.12 0c11.83,0 21.43,9.59 21.43,21.42l0 48.02 0 0zm-112.48 160.87l-10.71 0 0 -10.71 10.71 0 0 10.71zm21.42 -48.21l-10.71 0 0 -10.71 10.71 0 0 10.71zm21.42 26.78l-10.71 0 0 -42.85c0,-2.96 -2.4,-5.35 -5.36,-5.35l-21.42 0c-2.96,0 -5.36,2.4 -5.36,5.35l0 42.85 -10.71 0 0 -42.85c0,-2.96 -2.4,-5.35 -5.35,-5.35 -11.83,0 -21.43,-9.59 -21.43,-21.43l0 -69.44c6.71,0.43 13.29,2.05 19.42,4.78 9.05,4.02 18.88,5.98 28.78,5.74 9.9,0.23 19.72,-1.73 28.77,-5.74 7.79,-3.49 16.26,-5.19 24.79,-4.98 8.53,-0.22 17.01,1.49 24.8,4.98 7.4,3.28 15.33,5.17 23.41,5.58l0 59.07c0,11.83 -9.6,21.43 -21.43,21.43l-42.85 0c-2.96,0 -5.36,2.4 -5.36,5.35l0 42.85z"/>
   <polygon class="fil4 str1" points="244.2,354.05 254.91,354.05 254.91,343.34 244.2,343.34 "/>
   <polygon class="fil4 str1" points="244.2,337.99 254.91,337.99 254.91,311.21 244.2,311.21 "/>
  </g>
 </g>
</svg>
