<?xml version="1.0" encoding="UTF-8"?>
<!DOCTYPE svg PUBLIC "-//W3C//DTD SVG 1.1//EN" "http://www.w3.org/Graphics/SVG/1.1/DTD/svg11.dtd">
<!-- Creator: CorelDRAW 2017 -->
<svg xmlns="http://www.w3.org/2000/svg" xml:space="preserve" width="29.2317mm" height="29.2303mm" version="1.1" style="shape-rendering:geometricPrecision; text-rendering:geometricPrecision; image-rendering:optimizeQuality; fill-rule:evenodd; clip-rule:evenodd"
viewBox="0 0 743.81 743.78"
 xmlns:xlink="http://www.w3.org/1999/xlink">
 <defs>
  <style type="text/css">
   <![CDATA[
    .str0 {stroke:#E34D7A;stroke-width:19.08;stroke-miterlimit:22.9256}
    .str1 {stroke:#E34D7A;stroke-width:6.36;stroke-miterlimit:22.9256}
    .fil4 {fill:none}
    .fil2 {fill:#D4E0E5}
    .fil3 {fill:#E34D7A}
    .fil1 {fill:white}
    .fil5 {fill:#E34D7A;fill-rule:nonzero}
    .fil0 {fill:url(#id0)}
   ]]>
  </style>
  <linearGradient id="id0" gradientUnits="userSpaceOnUse" x1="537.08" y1="537.09" x2="206.72" y2="206.7">
   <stop offset="0" style="stop-opacity:1; stop-color:white"/>
   <stop offset="1" style="stop-opacity:1; stop-color:#E0E0E0"/>
  </linearGradient>
 </defs>
 <g id="Capa_x0020_1">
  <metadata id="CorelCorpID_0Corel-Layer"/>
  <path class="fil0" d="M371.94 743.78l0 -32.32 0 32.32 0 0c96.57,-0.04 193.09,-37.42 265.95,-111.92 143.57,-146.86 140.83,-382.42 -6.02,-525.99 -72.34,-70.65 -166.2,-105.86 -259.93,-105.86l0 32.26c-88.24,0.06 -176.38,34.16 -242.93,102.2 -45.23,46.24 -74.52,102.11 -88.05,160.87 -6.21,25.87 -9.54,52.83 -9.54,80.58 0,50.72 11.03,98.79 30.79,142.08 1.1,0.19 2.16,0.38 3.26,0.53 -1.3,-0.05 -2.69,-0.15 -4.27,-0.19 1.49,0.23 3.03,0.53 4.57,0.77 16.66,34.68 39.58,67.18 68.73,95.65 66.08,64.59 151.76,96.72 237.44,96.72 88.18,0 176.32,-34.1 242.88,-102.15 110.4,-112.95 126.05,-283.35 48.13,-412.62 -0.05,-0.04 -0.05,-0.09 -0.1,-0.19 0.52,-1.1 1.11,-2.26 1.63,-3.37 -46.13,-73.01 -119.01,-127.39 -204.79,-149.4 -28.75,-7.66 -58.27,-11.47 -87.75,-11.47l0 -32.26c-96.67,0 -193.18,37.37 -266.01,111.88 -143.53,146.9 -140.88,382.41 5.97,525.94 72.34,70.75 166.22,105.96 260.04,105.96zm291 -547.09c0.42,-0.86 0.86,-1.77 1.3,-2.69 -0.44,0.92 -0.88,1.83 -1.3,2.69z"/>
  <circle class="fil1" cx="371.91" cy="371.88" r="333.86"/>
  <path class="fil2" d="M346.69 39.15c201.31,-31.08 357.55,166.74 357.55,332.73 0,208.07 -170.93,342.25 -344.27,335.98 -3.87,-4.37 -90.64,-12.12 -93.52,-16.81 -22.78,-37.05 -16.2,-82.45 -4.79,-113.23 12.85,-34.67 54.04,-69.13 67.08,-80.13 13.05,-11.01 31.66,-31.61 31.66,-31.61 0,0 -9.33,-7.65 -15.14,-21.41 -5.81,-13.76 -8.26,-32.27 1.22,-53.07 9.48,-20.8 45.11,-38.23 63.31,-48.17 18.2,-9.94 49.55,-42.06 53.52,-46.64 3.98,-4.59 8.11,-16.97 11.32,-20.19 3.21,-3.21 8.26,-7.65 9.63,-10.09 1.38,-2.45 -6.27,-11.16 -8.26,-16.82 -1.99,-5.66 -6.73,-18.66 -6.73,-18.66 0,0 -3.67,6.27 -12.08,13.92 -8.41,7.65 -17.74,18.5 -24.16,19.42 -6.42,0.92 -12.08,-3.98 -13,-6.42 -0.92,-2.45 -1.99,-5.05 -4.31,-6.58 -2.32,-1.53 -4.56,-1.38 -7.62,0.76 -3.06,2.14 -5.5,0.92 -7.03,-1.22 -1.53,-2.14 -0.46,-6.88 -1.38,-7.8 -0.92,-0.92 -3.98,2.29 -6.27,1.99 -2.3,-0.31 -2.45,-2.45 -2.91,-5.66 -0.46,-3.21 -2.91,-7.03 -6.27,-8.56 -3.36,-1.53 -8.11,2.14 -10.71,2.91 -2.6,0.76 -7.49,-0.15 -9.12,-2.4 -1.63,-2.24 -3.26,-9.79 -2.85,-15.09 0.41,-5.3 -2.04,-14.07 -4.28,-21.41 -2.24,-7.34 -10.4,-5.71 -13.05,-7.07 -2.65,-1.36 -6.93,-8.02 -11.83,-15.97 -4.9,-7.95 -11.93,-23.86 -11.93,-23.86 0,0 -5.81,-2.85 -8.67,-7.75 -2.85,-4.89 -3.87,-16.72 -3.06,-23.04 0.82,-6.32 3.47,-10.81 3.06,-15.29 -0.41,-4.49 4.08,-10.2 7.34,-13.66 3.26,-3.47 2.24,-9.79 2.85,-15.7 0.61,-5.91 4.69,-13.05 10.81,-17.54 1.44,-1.05 10.46,-12.95 13.87,-15.86z"/>
  <path class="fil3" d="M456.24 48.78c143.55,37.37 249.52,167.86 249.52,323.11 0,176.74 -137.34,321.38 -311.12,333.07 -0.67,-0.05 -1.33,-0.09 -1.99,-0.14l-0.14 -0.16c-34.46,-38.94 -27.73,-92.16 -14.89,-126.83 12.85,-34.67 54.04,-69.13 67.08,-80.13 13.05,-11.01 31.66,-31.61 31.66,-31.61 0,0 -9.33,-7.65 -15.14,-21.41 -5.81,-13.76 -8.26,-32.27 1.22,-53.07 9.48,-20.8 45.11,-38.23 63.31,-48.17 18.2,-9.94 49.55,-42.06 53.52,-46.64 3.98,-4.59 8.11,-16.97 11.32,-20.19 3.21,-3.21 8.26,-7.65 9.63,-10.09 1.38,-2.45 -6.27,-11.16 -8.26,-16.82 -1.99,-5.66 -6.73,-18.66 -6.73,-18.66 0,0 -3.67,6.27 -12.08,13.92 -8.41,7.65 -17.74,18.5 -24.16,19.42 -6.42,0.92 -12.08,-3.98 -13,-6.42 -0.92,-2.45 -1.99,-5.05 -4.31,-6.58 -2.32,-1.53 -4.56,-1.38 -7.62,0.76 -3.06,2.14 -5.5,0.92 -7.03,-1.22 -1.53,-2.14 -0.46,-6.88 -1.38,-7.8 -0.92,-0.92 -3.98,2.29 -6.27,1.99 -2.3,-0.31 -2.45,-2.45 -2.91,-5.66 -0.46,-3.21 -2.91,-7.03 -6.27,-8.56 -3.36,-1.53 -8.11,2.14 -10.71,2.91 -2.6,0.76 -7.49,-0.15 -9.12,-2.4 -1.63,-2.24 -3.26,-9.79 -2.85,-15.09 0.41,-5.3 -2.04,-14.07 -4.28,-21.41 -2.24,-7.34 -10.4,-5.71 -13.05,-7.07 -2.65,-1.36 -6.93,-8.02 -11.83,-15.97 -4.9,-7.95 -11.93,-23.86 -11.93,-23.86 0,0 -5.81,-2.85 -8.67,-7.75 -2.85,-4.89 -3.87,-16.72 -3.06,-23.04 0.82,-6.32 3.47,-10.81 3.06,-15.29 -0.41,-4.49 4.08,-10.2 7.34,-13.66 3.26,-3.47 2.24,-9.79 2.85,-15.7 0.61,-5.91 4.69,-13.05 10.81,-17.54 1.44,-1.05 4.05,-3.33 7.45,-6.24z"/>
  <circle class="fil4 str0" cx="371.91" cy="371.88" r="333.86"/>
  <polygon class="fil5 str1" points="172.53,493.89 82.16,403.32 95.23,390.26 172.53,467.36 361.62,278.48 374.68,291.54 "/>
 </g>
</svg>
