<?xml version="1.0" encoding="UTF-8"?>
<!DOCTYPE svg PUBLIC "-//W3C//DTD SVG 1.1//EN" "http://www.w3.org/Graphics/SVG/1.1/DTD/svg11.dtd">
<!-- Creator: CorelDRAW 2017 -->
<svg xmlns="http://www.w3.org/2000/svg" xml:space="preserve" width="29.2317mm" height="29.2303mm" version="1.1" style="shape-rendering:geometricPrecision; text-rendering:geometricPrecision; image-rendering:optimizeQuality; fill-rule:evenodd; clip-rule:evenodd"
viewBox="0 0 371.37 371.35"
 xmlns:xlink="http://www.w3.org/1999/xlink">
 <defs>
  <style type="text/css">
   <![CDATA[
    .str0 {stroke:#DE8028;stroke-width:9.53;stroke-miterlimit:22.9256}
    .str1 {stroke:#DE8028;stroke-width:0.97;stroke-miterlimit:22.9256}
    .fil3 {fill:none}
    .fil2 {fill:#D4E0E5}
    .fil1 {fill:white}
    .fil4 {fill:#DE8028;fill-rule:nonzero}
    .fil0 {fill:url(#id0)}
   ]]>
  </style>
  <linearGradient id="id0" gradientUnits="userSpaceOnUse" x1="268.15" y1="268.16" x2="103.21" y2="103.2">
   <stop offset="0" style="stop-opacity:1; stop-color:white"/>
   <stop offset="1" style="stop-opacity:1; stop-color:#E0E0E0"/>
  </linearGradient>
 </defs>
 <g id="Capa_x0020_1">
  <metadata id="CorelCorpID_0Corel-Layer"/>
  <path class="fil0" d="M185.7 371.35l0 -16.13 0 16.13 0 0c48.21,-0.02 96.4,-18.68 132.78,-55.88 71.68,-73.32 70.31,-190.94 -3.01,-262.62 -36.12,-35.28 -82.98,-52.85 -129.78,-52.85l0 16.11c-44.06,0.03 -88.06,17.06 -121.29,51.03 -22.58,23.09 -37.2,50.98 -43.96,80.32 -3.1,12.92 -4.76,26.38 -4.76,40.23 0,25.32 5.51,49.32 15.37,70.94 0.55,0.1 1.08,0.19 1.63,0.27 -0.65,-0.03 -1.34,-0.07 -2.13,-0.1 0.74,0.12 1.51,0.27 2.28,0.38 8.32,17.31 19.76,33.54 34.31,47.76 32.99,32.25 75.77,48.29 118.55,48.29 44.03,0 88.03,-17.03 121.26,-51 55.12,-56.39 62.94,-141.47 24.03,-206.01 -0.03,-0.02 -0.03,-0.05 -0.05,-0.1 0.26,-0.55 0.55,-1.13 0.81,-1.68 -23.03,-36.45 -59.42,-63.6 -102.25,-74.59 -14.36,-3.82 -29.09,-5.73 -43.81,-5.73l0 -16.11c-48.27,0 -96.45,18.66 -132.81,55.86 -71.66,73.35 -70.34,190.93 2.98,262.59 36.12,35.32 82.99,52.9 129.83,52.9zm145.29 -273.15c0.21,-0.43 0.43,-0.89 0.65,-1.34 -0.22,0.46 -0.44,0.91 -0.65,1.34z"/>
  <circle class="fil1" cx="185.68" cy="185.67" r="166.69"/>
  <path class="fil2" d="M227.79 24.35c71.67,18.66 124.58,83.81 124.58,161.32 0,88.24 -68.57,160.46 -155.33,166.3 -0.33,-0.02 -0.66,-0.05 -1,-0.07l-0.07 -0.08c-17.2,-19.44 -13.85,-46.02 -7.43,-63.32 6.41,-17.31 26.98,-34.51 33.49,-40.01 6.52,-5.49 15.81,-15.78 15.81,-15.78 0,0 -4.66,-3.82 -7.56,-10.69 -2.9,-6.87 -4.12,-16.11 0.61,-26.5 4.73,-10.38 22.52,-19.09 31.61,-24.05 9.09,-4.96 24.74,-21 26.72,-23.29 1.99,-2.29 4.05,-8.48 5.65,-10.08 1.6,-1.6 4.12,-3.82 4.81,-5.04 0.69,-1.22 -3.13,-5.57 -4.12,-8.4 -0.99,-2.82 -3.36,-9.31 -3.36,-9.31 0,0 -1.83,3.13 -6.03,6.95 -4.2,3.82 -8.86,9.24 -12.06,9.7 -3.21,0.46 -6.03,-1.99 -6.49,-3.21 -0.46,-1.22 -0.99,-2.52 -2.15,-3.28 -1.16,-0.76 -2.28,-0.69 -3.81,0.38 -1.53,1.07 -2.75,0.46 -3.51,-0.61 -0.76,-1.07 -0.23,-3.44 -0.69,-3.89 -0.46,-0.46 -1.99,1.14 -3.13,0.99 -1.15,-0.15 -1.22,-1.22 -1.45,-2.83 -0.23,-1.6 -1.45,-3.51 -3.13,-4.28 -1.68,-0.76 -4.05,1.07 -5.35,1.45 -1.3,0.38 -3.74,-0.08 -4.55,-1.2 -0.81,-1.12 -1.63,-4.89 -1.43,-7.53 0.2,-2.65 -1.02,-7.02 -2.14,-10.69 -1.12,-3.67 -5.19,-2.85 -6.51,-3.53 -1.32,-0.68 -3.46,-4 -5.91,-7.97 -2.44,-3.97 -5.96,-11.91 -5.96,-11.91 0,0 -2.9,-1.43 -4.33,-3.87 -1.43,-2.44 -1.93,-8.35 -1.53,-11.5 0.41,-3.16 1.73,-5.4 1.53,-7.64 -0.2,-2.24 2.04,-5.09 3.67,-6.82 1.63,-1.73 1.12,-4.89 1.43,-7.84 0.3,-2.95 2.34,-6.52 5.4,-8.76 0.72,-0.52 2.02,-1.66 3.72,-3.11z"/>
  <circle class="fil3 str0" cx="185.68" cy="185.67" r="166.69"/>
  <g id="_3070063671952">
   <path class="fil4 str1" d="M187.39 61.16c-2.02,-3.5 -5.3,-6.01 -9.2,-7.07 -8.06,-2.16 -16.38,2.65 -18.55,10.71l-39.61 147.86c-0.6,2.25 -0.05,4.61 1.35,6.43l-20.45 76.32c-0.28,1.06 -0.02,2.19 0.73,3 0.73,0.82 1.83,1.21 2.91,1.05 0.57,-0.09 7.48,-1.25 15.19,-5.69 7.62,-4.4 15.99,-12.02 19.67,-24.99l8.47 -31.6c0.27,-1.04 0.02,-2.17 -0.7,-2.99l-5.93 -6.74 2.73 -10.24 1.14 -0.34c0.78,-0.23 1.51,-0.56 2.2,-0.96 2.39,-1.38 4.16,-3.65 4.89,-6.38l36.68 -136.88c1.04,-3.9 0.51,-7.99 -1.51,-11.49l0 0zm-12.79 39.76l-15.03 -10.75 2.82 -10.53 15.03 10.74 -2.82 10.54 -0 0zm-4.62 17.24l-15.03 -10.75 2.82 -10.53 15.04 10.73 -2.82 10.55 -0 0zm-33.29 101.29l-2.15 7.98c-0.27,1.05 -0.02,2.18 0.7,2.99l5.93 6.75 -8 29.87c-4.48,15.77 -17.29,22.22 -24.51,24.66l18.67 -69.68c0.01,-0.01 0.03,-0.02 0.06,-0.02 0.66,-0.02 1.34,-0.12 2,-0.31l7.3 -2.24 0 -0zm9.26 -11.61c-0.36,1.35 -1.36,2.4 -2.72,2.82l-15.75 4.81c-0.17,0.06 -0.29,0.04 -0.43,0.01 -0.08,-0.02 -0.19,-0.04 -0.29,-0.1 -0.06,-0.04 -0.16,-0.08 -0.2,-0.12 -0.17,-0.18 -0.36,-0.47 -0.25,-0.92l26.86 -100.23 15.03 10.75 -22.24 82.98 0 0zm36.68 -136.86l-3.4 12.7 -15.03 -10.74 1.72 -6.45c0.63,-2.3 2.12,-4.13 4.04,-5.24 1.92,-1.11 4.25,-1.49 6.56,-0.88 2.23,0.6 4.09,2.04 5.24,4.04 1.15,1.99 1.46,4.34 0.86,6.57l0 -0z"/>
   <path class="fil4 str1" d="M123.77 254.01l-2.39 8.87c-0.46,1.73 0.57,3.52 2.3,3.98 0.87,0.23 1.76,0.09 2.47,-0.33 0.73,-0.42 1.28,-1.11 1.51,-1.97l2.38 -8.88c0.46,-1.73 -0.56,-3.5 -2.29,-3.97 -1.74,-0.48 -3.53,0.55 -3.98,2.3l0 -0z"/>
   <path class="fil4 str1" d="M119 271.74c-0.2,0.83 -0.1,1.74 0.33,2.48 0.42,0.73 1.15,1.28 1.97,1.52 0.83,0.2 1.73,0.08 2.46,-0.34 0.76,-0.44 1.3,-1.15 1.53,-1.96 0.22,-0.85 0.09,-1.74 -0.33,-2.47 -0.43,-0.74 -1.14,-1.3 -1.98,-1.53 -1.63,-0.45 -3.53,0.64 -3.98,2.3l0 0z"/>
  </g>
 </g>
</svg>
