<?xml version="1.0" encoding="UTF-8"?>
<!DOCTYPE svg PUBLIC "-//W3C//DTD SVG 1.1//EN" "http://www.w3.org/Graphics/SVG/1.1/DTD/svg11.dtd">
<!-- Creator: CorelDRAW 2017 -->
<svg xmlns="http://www.w3.org/2000/svg" xml:space="preserve" width="29.2317mm" height="29.2303mm" version="1.1" style="shape-rendering:geometricPrecision; text-rendering:geometricPrecision; image-rendering:optimizeQuality; fill-rule:evenodd; clip-rule:evenodd"
viewBox="0 0 2438.77 2438.66"
 xmlns:xlink="http://www.w3.org/1999/xlink">
 <defs>
  <style type="text/css">
   <![CDATA[
    .str0 {stroke:#179F95;stroke-width:62.57;stroke-miterlimit:22.9256}
    .str1 {stroke:#179F95;stroke-width:20.86;stroke-miterlimit:22.9256}
    .fil4 {fill:none}
    .fil3 {fill:#179F95}
    .fil2 {fill:#D4E0E5}
    .fil1 {fill:white}
    .fil0 {fill:url(#id0)}
   ]]>
  </style>
  <linearGradient id="id0" gradientUnits="userSpaceOnUse" x1="1760.95" y1="1760.98" x2="677.78" y2="677.71">
   <stop offset="0" style="stop-opacity:1; stop-color:white"/>
   <stop offset="1" style="stop-opacity:1; stop-color:#E0E0E0"/>
  </linearGradient>
 </defs>
 <g id="Capa_x0020_1">
  <metadata id="CorelCorpID_0Corel-Layer"/>
  <path class="fil0" d="M1219.5 2438.66l0 -105.95 0 105.95 0 0c316.61,-0.14 633.08,-122.7 871.98,-366.97 470.73,-481.52 461.74,-1253.86 -19.74,-1724.6 -237.2,-231.65 -544.94,-347.09 -852.24,-347.09l0 105.77c-289.31,0.18 -578.3,112 -796.51,335.1 -148.3,151.61 -244.32,334.78 -288.68,527.45 -20.37,84.82 -31.29,173.23 -31.29,264.19 0,166.3 36.17,323.9 100.94,465.85 3.62,0.63 7.07,1.25 10.7,1.74 -4.25,-0.18 -8.82,-0.49 -14.01,-0.63 4.87,0.77 9.94,1.75 14.99,2.51 54.61,113.7 129.77,220.28 225.34,313.61 216.65,211.78 497.59,317.11 778.52,317.11 289.12,0 578.11,-111.82 796.34,-334.92 361.96,-370.33 413.3,-929.02 157.79,-1352.89 -0.18,-0.13 -0.18,-0.31 -0.32,-0.63 1.7,-3.62 3.63,-7.43 5.33,-11.05 -151.26,-239.39 -390.2,-417.69 -671.45,-489.85 -94.27,-25.11 -191.05,-37.6 -287.7,-37.6l0 -105.77c-316.97,0 -633.4,122.52 -872.17,366.83 -470.6,481.65 -461.91,1253.82 19.56,1724.42 237.2,231.96 544.99,347.41 852.6,347.41zm954.13 -1793.76c1.38,-2.82 2.82,-5.82 4.25,-8.82 -1.43,3 -2.87,6 -4.25,8.82z"/>
  <circle class="fil1" cx="1219.38" cy="1219.31" r="1094.64"/>
  <path class="fil2" d="M1136.7 128.37c660.04,-101.92 1172.31,546.69 1172.31,1090.94 0,682.21 -560.44,1122.16 -1128.77,1101.59 -12.67,-14.32 -297.19,-39.75 -306.63,-55.1 -74.69,-121.47 -53.11,-270.34 -15.72,-371.25 42.12,-113.66 177.17,-226.64 219.95,-262.73 42.79,-36.08 103.79,-103.64 103.79,-103.64 0,0 -30.59,-25.07 -49.64,-70.2 -19.06,-45.13 -27.07,-105.8 4.01,-173.99 31.09,-68.19 147.91,-125.35 207.58,-157.94 59.67,-32.6 162.46,-137.89 175.49,-152.93 13.04,-15.04 26.58,-55.66 37.11,-66.18 10.53,-10.53 27.07,-25.07 31.59,-33.1 4.51,-8.03 -20.56,-36.6 -27.07,-55.15 -6.52,-18.55 -22.07,-61.17 -22.07,-61.17 0,0 -12.03,20.56 -39.61,45.63 -27.57,25.07 -58.16,60.67 -79.22,63.68 -21.07,3 -39.61,-13.04 -42.62,-21.07 -3,-8.02 -6.52,-16.54 -14.12,-21.56 -7.6,-5.01 -14.97,-4.51 -25,2.5 -10.03,7.02 -18.05,3.01 -23.06,-4 -5.01,-7.02 -1.51,-22.56 -4.51,-25.57 -3.01,-3.01 -13.04,7.52 -20.56,6.52 -7.53,-1 -8.03,-8.02 -9.53,-18.55 -1.51,-10.53 -9.53,-23.06 -20.56,-28.07 -11.03,-5.01 -26.58,7.02 -35.11,9.53 -8.52,2.5 -24.56,-0.5 -29.91,-7.86 -5.35,-7.36 -10.7,-32.1 -9.36,-49.47 1.33,-17.38 -6.68,-46.13 -14.04,-70.2 -7.36,-24.07 -34.1,-18.72 -42.78,-23.18 -8.69,-4.46 -22.73,-26.3 -38.78,-52.37 -16.05,-26.07 -39.11,-78.22 -39.11,-78.22 0,0 -19.06,-9.36 -28.42,-25.4 -9.36,-16.04 -12.7,-54.82 -10.03,-75.54 2.68,-20.72 11.37,-35.43 10.03,-50.14 -1.33,-14.71 13.37,-33.43 24.07,-44.79 10.7,-11.36 7.35,-32.1 9.36,-51.48 2,-19.39 15.38,-42.79 35.43,-57.5 4.71,-3.45 34.31,-42.47 45.48,-52.01z"/>
  <path class="fil3" d="M1495.91 159.93c470.66,122.52 818.12,550.36 818.12,1059.38 0,579.48 -450.31,1053.72 -1020.07,1092.06 -2.19,-0.15 -4.36,-0.3 -6.54,-0.47l-0.47 -0.53c-112.98,-127.69 -90.92,-302.18 -48.81,-415.84 42.12,-113.66 177.17,-226.64 219.95,-262.73 42.79,-36.08 103.79,-103.64 103.79,-103.64 0,0 -30.59,-25.07 -49.64,-70.2 -19.06,-45.13 -27.07,-105.8 4.01,-173.99 31.09,-68.19 147.91,-125.35 207.58,-157.94 59.67,-32.6 162.46,-137.89 175.49,-152.93 13.04,-15.04 26.58,-55.66 37.11,-66.18 10.53,-10.53 27.07,-25.07 31.59,-33.1 4.51,-8.03 -20.56,-36.6 -27.07,-55.15 -6.52,-18.55 -22.07,-61.17 -22.07,-61.17 0,0 -12.03,20.56 -39.61,45.63 -27.57,25.07 -58.16,60.67 -79.22,63.68 -21.07,3 -39.61,-13.04 -42.62,-21.07 -3,-8.02 -6.52,-16.54 -14.12,-21.56 -7.6,-5.01 -14.97,-4.51 -25,2.5 -10.03,7.02 -18.05,3.01 -23.06,-4 -5.01,-7.02 -1.51,-22.56 -4.51,-25.57 -3.01,-3.01 -13.04,7.52 -20.56,6.52 -7.53,-1 -8.03,-8.02 -9.53,-18.55 -1.51,-10.53 -9.53,-23.06 -20.56,-28.07 -11.03,-5.01 -26.58,7.02 -35.11,9.53 -8.52,2.5 -24.56,-0.5 -29.91,-7.86 -5.35,-7.36 -10.7,-32.1 -9.36,-49.47 1.33,-17.38 -6.68,-46.13 -14.04,-70.2 -7.36,-24.07 -34.1,-18.72 -42.78,-23.18 -8.69,-4.46 -22.73,-26.3 -38.78,-52.37 -16.05,-26.07 -39.11,-78.22 -39.11,-78.22 0,0 -19.06,-9.36 -28.42,-25.4 -9.36,-16.04 -12.7,-54.82 -10.03,-75.54 2.68,-20.72 11.37,-35.43 10.03,-50.14 -1.33,-14.71 13.37,-33.43 24.07,-44.79 10.7,-11.36 7.35,-32.1 9.36,-51.48 2,-19.39 15.38,-42.79 35.43,-57.5 4.71,-3.45 13.27,-10.9 24.44,-20.45z"/>
  <circle class="fil4 str0" cx="1219.38" cy="1219.31" r="1094.64"/>
  <path class="fil3 str1" d="M729.76 1092.86c-1.29,-1.97 1.28,-1.1 -3.37,-2.93 -4.2,3.33 -3.61,9.01 -9.89,9.81l-3.74 2.37c0.3,1.35 0.53,3.51 1.28,5.01 1.49,2.98 -0.8,0.68 2.71,2.39l12.99 24.13c-0.7,4.33 9.17,22.59 10.09,40.15 8.18,-1.86 32.06,-16.64 40.1,-21.34 33.71,-19.79 29.63,-7.88 46.8,-29.09 89.74,-110.84 84.94,-30.49 131.96,-95.56 8.94,-12.37 15.43,-29.1 9.55,-45.84 -4.1,-11.69 -16.96,-28.57 -27.71,-32.69 -5.97,4.41 -16.07,17.55 -39.7,34.06 -26.46,18.48 -37.25,18.62 -47.78,24.75 -20.22,11.77 -20.4,32.29 -26.19,46.22 -12.09,29.07 -34.06,4.7 -52.52,6.8 -8.31,10.74 1.76,28.7 -21.56,25.56 -5.65,18.25 -19.11,6.92 -23.03,6.21zm-20.03 30.3c-0.18,-0.2 -0.47,-0.79 -0.53,-0.62l-1.29 -1.99c-0.72,-1.26 -1.39,-2.57 -2.16,-3.85 -1.72,-1.97 -2.56,-4.01 -4.15,-6.52 -1.45,-2.29 -2.63,-3.6 -4.3,-5.69 -3.71,-4.66 -7.38,-5.84 -14.4,-7.66 -4.93,-3.55 -12.81,-6.65 -18.07,-9.87 -6.26,-3.82 -11.34,-7.25 -17.37,-11.76 -28.08,-21.04 -51.24,-46.03 -70.4,-75.75 -10.64,-16.49 1.99,-15.97 4.65,-14.73 2.46,1.14 9.71,13.37 12.21,16.93 4.94,7.03 7.1,10.17 12.42,16.54 12.66,15.13 15.27,16.84 28.85,30.23 10.7,10.55 54.52,45.07 75.59,40.92 3.77,-4.96 4.96,-11.75 11.2,-12.99 9.4,-1.87 12.07,5.97 18.91,6.47 3.6,-7.95 6.81,-8.53 16.56,-8.63 6.6,-23.57 2.95,-32.53 40.21,-20.98 5.82,1.8 12.17,5.75 16.09,-0.78 6.96,-11.64 5.27,-41.54 36.49,-57.17 10.77,-5.4 15.46,-4.77 32.03,-14.82 30.03,-18.21 53.85,-39.45 70.78,-70.81 52.89,-97.99 -14.13,-210.67 -73.33,-266.31 -28.57,-26.85 -71.37,-59.01 -118.64,-68.78 -100.67,-20.79 -196.93,46.69 -227.08,141.15 -14.69,46.05 6.37,86.67 -22.66,141.29 -2.97,5.59 -6.61,10.35 -9.27,15.17l-2.95 4.01c-7.27,9.22 -13.7,16.89 -21.77,23.89 -32.18,27.97 -37.94,22.23 -74.96,62.25 -12.25,13.24 -27.92,37.93 -36.42,54.99 -21.42,42.92 -23.72,68.44 -32.53,113.15 -0.21,-0.02 -0.43,-0.05 -0.64,-0.12 -5.56,60.33 -4.53,121.63 10.89,180.67 32.37,123.93 127.39,298.39 253.74,332.66 23.33,8.84 56.56,15.81 85.3,14.25 57.5,-3.1 117.62,-10.6 157.87,-42.11 88.58,-69.35 34.48,-231.68 57.48,-317.29 3.66,-13.62 11.25,-7.94 12.66,-5.54 1.52,2.6 -3.24,23.16 -4.44,32.84 -6.87,55.25 5.9,118.06 -1.89,180.91 -1.49,12.01 3.21,18.4 8.29,28.32 7.52,14.68 18.88,34.19 31.39,44.29 19.54,15.78 28.17,-4.61 40.6,-23.54 17.54,-26.75 64.54,-94.2 65.68,-123.92 4.27,-13.36 2.69,-30.97 -0.06,-44.38 -1.56,-5.53 -8.16,-14.83 -11.5,-18.73 -3.7,-4.33 -13.01,-12.54 -21.72,-7.84l-5.63 3c-0.2,0.16 -0.55,0.45 -0.71,0.58 -0.17,0.14 -0.48,0.42 -0.73,0.62 -2.84,1.61 -4.49,3.33 -6.82,6.17 -1.78,2.16 -4.64,5.5 -5.91,7.94 -0.91,1.89 -0.45,1 -1.45,2.54 -1.38,2.14 -0.21,-0.38 -1.82,2.7 -2.46,4.71 0.48,3.55 -3.53,5.1 -3.95,16.05 -14.1,21.88 -13.35,46.17 0.3,9.89 1.24,18.73 1.8,27.87 1.47,23.62 8.98,17.7 4.81,25.66 -6.9,8.28 -12.61,2.37 -14.84,-6.34 -3.85,-14.94 -6.28,-65.31 -5.01,-79.5 -0.13,-0.24 -0.32,-0.87 -0.35,-0.73l-1.38 -73.94c2.02,-16.99 -6.81,-52.23 -12.74,-67.03 -15.53,-38.76 -49.16,-67.09 -92.66,-69.53 -27.02,-1.51 -40.61,10.03 -55,25.6 -44.21,47.85 -111.84,284.58 -161.85,306.64 -9.67,4.26 -34.66,2.25 -27.88,-10.97 7.63,-13 12.36,20.06 42.59,-18.97 19.7,-25.43 35.51,-64.71 46.91,-94.62 3.2,-8.36 17.19,-45.39 17.81,-53.11 -26.16,14.83 -48.48,17.73 -77.52,5.09 -51.59,-22.46 -104.77,-94.86 -132.68,-141.69l-31.51 -56.65c-2.89,-5.65 -9.62,-15.32 1.12,-18.16 6.68,1.44 7.07,6.07 9.84,11.7 24.6,50.09 57.12,100.15 93.83,142.61 11,12.73 25.45,26.21 39.5,36.35 4.35,3.15 7.78,5.06 11.45,7.37 31.2,19.55 62.1,18.93 89.61,-5.83 10.47,-9.43 8.24,-12.82 16.51,-31.36 4.15,-9.29 7.7,-17.26 12.23,-25.83 16.44,-31.09 37.37,-66.58 68.86,-84.01 14.17,-7.84 33.18,-8.43 50.12,-5.23 5.01,0.95 11.1,3.07 15.67,3.41 -9.57,-20.13 -23.05,-38.62 -49.59,-38.76 -60.3,-0.32 -120.28,99.95 -189.24,23.03 -11.68,-13.03 -26.26,-36.78 -35.51,-53.69 -2.16,-3.95 -20.47,-29.73 -5.08,-28.91 6.42,0.33 14.66,20.24 18.35,26.73 8.36,14.76 24.49,40.19 36.56,52.72 6.87,7.14 15.85,14.84 26.6,17.95 11.73,3.39 29.29,1.49 39.11,-4.37 0.37,-8.98 -8.43,-41.16 -13.61,-45.74l-4.28 -10.3zm260.01 210.56c-0.02,-0.16 -0.02,-0.32 0,-0.47 -0.02,0.15 -0.02,0.31 0,0.47zm0.96 -2.61c0.09,-0.1 0.18,-0.2 0.28,-0.29 -0.1,0.09 -0.19,0.19 -0.28,0.29zm93.62 96.66l0.29 3.97c-0.11,1.83 0.08,1.74 -0.53,3.63 -1.77,5.51 -0.65,1.74 -1.87,3.53 -9.44,40.74 -44.96,92.23 -66.98,123.96 -11.14,16.07 -25.45,47.89 -54.21,29.75 -24.12,-15.22 -36.62,-49.72 -41.86,-54.18 -1.04,6.93 -3.33,14.17 -5.52,20.98 -1.53,4.72 -6.37,15.05 -6.57,18.53 -2.29,2.11 -8.3,13.92 -9.88,16.4 -2.67,4.21 -8.18,10 -10.38,14.03 -2.77,2.68 -5.06,5.53 -7.02,7.56 -16.44,16.95 -41.94,29.75 -64.57,37.09 -30.43,9.89 -64.05,14.63 -98.97,16.34 -57.12,2.8 -92.93,-5.68 -141.07,-31.2 -129.37,-68.61 -230.1,-268.32 -236.85,-410.96 -0.64,-13.71 1.28,-105.04 5.25,-111.55l0.08 0.17c12.01,-75.2 36.85,-138.47 97.46,-189.53 13.93,-11.73 17.26,-12.44 29.12,-21.04 19.36,-14.05 36.02,-29.82 48.21,-50.98 34.01,-59.08 -0.62,-94.4 32.84,-166.75 44.45,-96.1 155.73,-156.7 257.99,-117.61 67.32,25.74 125.16,80.93 159.47,140.55 12.31,21.4 22.88,44.64 29.38,70.1 7.8,30.59 8.96,58.28 2.54,90.76 -3.5,17.68 -12.42,37.76 -21.79,52.81 -2.75,4.41 -8.01,10.77 -9.94,15.41 7.98,3.96 18.61,15.14 24.01,23.29 23.69,35.77 2.59,71.49 -25.1,95.43 -24.75,21.4 -39.82,4.26 -67.22,26.46 -12.5,10.12 -24.17,23.13 -34.55,35.66l-10.07 12.57c19.95,2.4 26.99,3.85 40.6,15.38 9.94,8.42 17.64,21.71 22.36,33.32 5.4,13.31 1.04,7.67 12.94,15.03 35.32,21.85 12.19,21.62 51.84,31.76 82.09,20.98 73.41,-39.15 87.78,-73.17 12.14,-28.74 25.86,-19.78 32.57,-21.8 2.05,2.55 0.03,0.7 2.95,2.93 0.23,0.18 1.66,1.01 2.16,1.33 2.24,1.47 1.93,1.71 4.81,2.59 2.54,4.68 9.01,7.46 8.11,12.98 -0.69,4.19 -0.86,2.77 -2.91,4.13 -9.15,4.84 -11.04,-9.04 -20.92,-11.27 -17.33,-3.92 -23.42,50.22 -30.36,66.68 -6.22,14.74 -18.45,24.72 -36.31,29.77 -22.88,6.47 -46.5,-2.67 -58.89,-3.36 9.47,17.92 22.28,52.44 21.43,77.88 3.13,5.12 2.36,30.79 2.15,36.06l1.35 35.96c1.88,-5.82 5.63,-11.63 8.88,-16.69 3.8,-5.93 7.71,-9.45 10.48,-13.82 0.74,-0.89 1.03,-1.38 1.67,-2.04 2.19,-2.24 -1.94,1.25 1.13,-1.09 2.51,-1.91 0.13,-1.03 3.94,-1.59 9.87,-9.75 26.32,-8.22 37.14,-0.71 6.14,4.26 18.5,18.87 20.02,27.84 2.9,1.59 2.85,4.1 3.57,7.7l-0.13 3.5c3.15,3.8 3.61,34.43 -0.05,35.52zm-282.2 -461.3l8.14 -0.73c4.59,9.77 3.31,16.21 17.85,25.66 5.8,3.78 8.79,4.36 14.98,7.26 7.91,3.7 5.46,11.8 -0.78,12.34 -11.15,0.98 -51.01,-24.9 -40.19,-44.53zm-99.23 -179.79l0.1 16.14c-0.94,7.98 -6.16,8.92 -11.67,5.56 -3.21,-4.22 7.9,-45.11 -29.64,-49.84 -30.28,-3.8 -33.49,23.2 -28.29,47.5 1.98,9.25 8.98,22.03 4.46,31.59 -4.44,9.39 -11.58,12.59 -14.32,25.39 -5.72,26.77 34.14,15.78 26.77,31.23 -2.52,5.3 -10.7,2.77 -16.2,1.19 -23.58,-6.77 -30.14,-27.06 -16.77,-50.42 8.94,-15.64 12.11,-7.79 5.76,-28.81 -9.84,-32.57 -3.53,-77.55 40.23,-70.31 21.66,3.58 37.83,18.3 39.57,40.78z"/>
 </g>
</svg>
