<?xml version="1.0" encoding="UTF-8"?>
<!DOCTYPE svg PUBLIC "-//W3C//DTD SVG 1.1//EN" "http://www.w3.org/Graphics/SVG/1.1/DTD/svg11.dtd">
<!-- Creator: CorelDRAW 2017 -->
<svg xmlns="http://www.w3.org/2000/svg" xml:space="preserve" width="31.3373mm" height="31.3373mm" version="1.1" style="shape-rendering:geometricPrecision; text-rendering:geometricPrecision; image-rendering:optimizeQuality; fill-rule:evenodd; clip-rule:evenodd"
viewBox="0 0 733.03 733.03"
 xmlns:xlink="http://www.w3.org/1999/xlink">
 <defs>
  <style type="text/css">
   <![CDATA[
    .str1 {stroke:#0087C0;stroke-width:17.54;stroke-miterlimit:22.9256}
    .str0 {stroke:#AAC2CC;stroke-width:11.7;stroke-miterlimit:22.9256}
    .fil2 {fill:none}
    .fil4 {fill:#0087C0}
    .fil3 {fill:#D4E0E5}
    .fil1 {fill:white}
    .fil0 {fill:url(#id0)}
   ]]>
  </style>
  <linearGradient id="id0" gradientUnits="userSpaceOnUse" x1="532.4" y1="518.38" x2="228.7" y2="214.66">
   <stop offset="0" style="stop-opacity:1; stop-color:white"/>
   <stop offset="1" style="stop-opacity:1; stop-color:#E0E0E0"/>
  </linearGradient>
 </defs>
 <g id="Capa_x0020_1">
  <metadata id="CorelCorpID_0Corel-Layer"/>
  <path class="fil0" d="M380.58 708.39l0 -29.71 0 29.71 0 0c88.77,-0.04 177.5,-34.4 244.49,-102.89 131.98,-135.01 129.46,-351.56 -5.53,-483.54 -66.5,-64.95 -152.79,-97.32 -238.95,-97.32l0 29.66c-81.12,0.05 -162.14,31.4 -223.33,93.96 -41.58,42.51 -68.5,93.87 -80.94,147.88 -5.71,23.78 -8.77,48.57 -8.77,74.07 0,46.63 10.14,90.82 28.3,130.61 1.02,0.18 1.98,0.35 3,0.49 -1.19,-0.05 -2.47,-0.14 -3.93,-0.18 1.37,0.22 2.79,0.49 4.2,0.7 15.31,31.88 36.38,61.76 63.18,87.93 60.74,59.38 139.51,88.91 218.28,88.91 81.06,0 162.09,-31.35 223.28,-93.9 101.48,-103.83 115.88,-260.48 44.24,-379.32 -0.05,-0.04 -0.05,-0.09 -0.09,-0.18 0.48,-1.02 1.02,-2.08 1.49,-3.1 -42.41,-67.12 -109.4,-117.11 -188.26,-137.34 -26.43,-7.04 -53.57,-10.54 -80.66,-10.54l0 -29.66c-88.87,0 -177.59,34.35 -244.54,102.85 -131.95,135.04 -129.51,351.54 5.49,483.49 66.5,65.04 152.8,97.41 239.05,97.41zm267.52 -502.93c0.39,-0.79 0.79,-1.63 1.19,-2.47 -0.4,0.84 -0.8,1.68 -1.19,2.47z"/>
  <circle class="fil1" cx="380.55" cy="366.51" r="306.91"/>
  <path class="fil2 str0" d="M357.37 60.64c185.06,-28.58 328.69,153.28 328.69,305.88 0,191.28 -157.14,314.63 -316.48,308.86 -3.55,-4.02 -83.33,-11.15 -85.97,-15.45 -20.94,-34.06 -14.89,-75.8 -4.41,-104.09 11.81,-31.87 49.67,-63.55 61.67,-73.66 12,-10.12 29.1,-29.06 29.1,-29.06 0,0 -8.58,-7.03 -13.92,-19.68 -5.34,-12.65 -7.59,-29.66 1.13,-48.78 8.72,-19.12 41.47,-35.15 58.2,-44.28 16.73,-9.14 45.55,-38.66 49.2,-42.88 3.66,-4.22 7.45,-15.6 10.4,-18.56 2.95,-2.95 7.59,-7.03 8.86,-9.28 1.27,-2.25 -5.76,-10.26 -7.59,-15.46 -1.83,-5.2 -6.19,-17.15 -6.19,-17.15 0,0 -3.37,5.76 -11.11,12.79 -7.73,7.03 -16.31,17.01 -22.21,17.85 -5.91,0.84 -11.11,-3.66 -11.95,-5.91 -0.84,-2.25 -1.83,-4.64 -3.96,-6.04 -2.13,-1.41 -4.2,-1.27 -7.01,0.7 -2.81,1.97 -5.06,0.84 -6.47,-1.12 -1.41,-1.97 -0.42,-6.33 -1.27,-7.17 -0.84,-0.84 -3.66,2.11 -5.76,1.83 -2.11,-0.28 -2.25,-2.25 -2.67,-5.2 -0.42,-2.95 -2.67,-6.47 -5.76,-7.87 -3.09,-1.41 -7.45,1.97 -9.84,2.67 -2.39,0.7 -6.89,-0.14 -8.39,-2.2 -1.5,-2.06 -3,-9 -2.62,-13.87 0.37,-4.87 -1.87,-12.93 -3.94,-19.68 -2.06,-6.75 -9.56,-5.25 -12,-6.5 -2.44,-1.25 -6.37,-7.37 -10.87,-14.68 -4.5,-7.31 -10.97,-21.93 -10.97,-21.93 0,0 -5.34,-2.62 -7.97,-7.12 -2.62,-4.5 -3.56,-15.37 -2.81,-21.18 0.75,-5.81 3.19,-9.93 2.81,-14.06 -0.37,-4.12 3.75,-9.37 6.75,-12.56 3,-3.19 2.06,-9 2.62,-14.43 0.56,-5.44 4.31,-12 9.93,-16.12 1.32,-0.97 9.62,-11.91 12.75,-14.58z"/>
  <path class="fil3" d="M458.08 69.49c131.96,34.35 229.38,154.31 229.38,297.03 0,162.47 -126.26,295.44 -286.01,306.19 -0.61,-0.04 -1.22,-0.08 -1.83,-0.13l-0.13 -0.15c-31.68,-35.8 -25.49,-84.72 -13.68,-116.59 11.81,-31.87 49.67,-63.55 61.67,-73.66 12,-10.12 29.1,-29.06 29.1,-29.06 0,0 -8.58,-7.03 -13.92,-19.68 -5.34,-12.65 -7.59,-29.66 1.13,-48.78 8.72,-19.12 41.47,-35.15 58.2,-44.28 16.73,-9.14 45.55,-38.66 49.2,-42.88 3.66,-4.22 7.45,-15.6 10.4,-18.56 2.95,-2.95 7.59,-7.03 8.86,-9.28 1.27,-2.25 -5.76,-10.26 -7.59,-15.46 -1.83,-5.2 -6.19,-17.15 -6.19,-17.15 0,0 -3.37,5.76 -11.11,12.79 -7.73,7.03 -16.31,17.01 -22.21,17.85 -5.91,0.84 -11.11,-3.66 -11.95,-5.91 -0.84,-2.25 -1.83,-4.64 -3.96,-6.04 -2.13,-1.41 -4.2,-1.27 -7.01,0.7 -2.81,1.97 -5.06,0.84 -6.47,-1.12 -1.41,-1.97 -0.42,-6.33 -1.27,-7.17 -0.84,-0.84 -3.66,2.11 -5.76,1.83 -2.11,-0.28 -2.25,-2.25 -2.67,-5.2 -0.42,-2.95 -2.67,-6.47 -5.76,-7.87 -3.09,-1.41 -7.45,1.97 -9.84,2.67 -2.39,0.7 -6.89,-0.14 -8.39,-2.2 -1.5,-2.06 -3,-9 -2.62,-13.87 0.37,-4.87 -1.87,-12.93 -3.94,-19.68 -2.06,-6.75 -9.56,-5.25 -12,-6.5 -2.44,-1.25 -6.37,-7.37 -10.87,-14.68 -4.5,-7.31 -10.97,-21.93 -10.97,-21.93 0,0 -5.34,-2.62 -7.97,-7.12 -2.62,-4.5 -3.56,-15.37 -2.81,-21.18 0.75,-5.81 3.19,-9.93 2.81,-14.06 -0.37,-4.12 3.75,-9.37 6.75,-12.56 3,-3.19 2.06,-9 2.62,-14.43 0.56,-5.44 4.31,-12 9.93,-16.12 1.32,-0.97 3.72,-3.06 6.85,-5.73z"/>
  <circle class="fil2 str1" cx="380.55" cy="366.51" r="306.91"/>
  <path class="fil4" d="M233.91 398.96c-12.69,0 -24.68,-2.41 -35.89,-7.27 -11.22,-4.87 -21.01,-11.49 -29.33,-19.81 -8.32,-8.32 -14.94,-18.11 -19.81,-29.33 -4.87,-11.22 -7.28,-23.2 -7.28,-35.95 0,-12.69 2.41,-24.68 7.28,-35.89 4.87,-11.22 11.49,-21.01 19.81,-29.33 8.32,-8.32 18.11,-14.94 29.33,-19.81 11.22,-4.87 23.2,-7.28 35.89,-7.28 12.75,0 24.73,2.41 35.95,7.28 11.22,4.87 21.01,11.49 29.33,19.81 8.32,8.32 14.94,18.11 19.81,29.33 4.87,11.22 7.28,23.2 7.28,35.89 0,12.75 -2.41,24.73 -7.28,35.95 -4.87,11.21 -11.49,21.01 -19.81,29.33 -8.32,8.32 -18.11,14.94 -29.33,19.81 -11.22,4.87 -23.2,7.27 -35.95,7.27zm-215.41 111.89c0,3.01 0.93,5.58 2.74,7.82 1.81,2.24 4.32,3.39 7.5,3.39 2.79,0 5.2,-1.04 7.22,-3.06l125.85 -125.68c10.29,8.48 21.5,14.94 33.76,19.42 12.2,4.48 25.01,6.73 38.36,6.73 10.4,0 20.41,-1.31 29.98,-3.99 9.63,-2.68 18.6,-6.46 26.98,-11.38 8.32,-4.92 15.92,-10.83 22.82,-17.73 6.89,-6.9 12.8,-14.5 17.73,-22.82 4.92,-8.37 8.7,-17.35 11.38,-26.98 2.68,-9.57 3.99,-19.59 3.99,-29.99 0,-10.34 -1.31,-20.35 -3.99,-29.93 -2.68,-9.63 -6.46,-18.6 -11.38,-26.98 -4.92,-8.32 -10.83,-15.92 -17.73,-22.82 -6.89,-6.89 -14.5,-12.8 -22.82,-17.73 -8.37,-4.92 -17.34,-8.7 -26.98,-11.38 -9.57,-2.68 -19.59,-3.99 -29.98,-3.99 -10.34,0 -20.36,1.31 -29.93,3.99 -9.63,2.68 -18.6,6.46 -26.98,11.38 -8.32,4.92 -15.92,10.83 -22.81,17.73 -6.9,6.9 -12.8,14.5 -17.73,22.82 -4.92,8.37 -8.7,17.34 -11.38,26.98 -2.68,9.57 -3.99,19.59 -3.99,29.93 0,13.41 2.25,26.16 6.73,38.41 4.48,12.25 10.94,23.47 19.42,33.76 -1.64,1.59 -4.71,4.65 -9.25,9.14 -4.54,4.49 -10.01,9.85 -16.36,16.03 -6.35,6.18 -13.3,13.02 -20.85,20.41 -7.5,7.44 -15.1,14.99 -22.76,22.6 -7.6,7.66 -15.05,15.1 -22.16,22.38 -7.17,7.28 -13.57,13.84 -19.09,19.7 -5.58,5.91 -10.01,10.78 -13.3,14.72 -3.34,3.88 -4.98,6.24 -4.98,7.11l-0.01 -0.01z"/>
  <rect class="fil2" x="-0" y="-0" width="733.03" height="733.03"/>
 </g>
</svg>
