<?xml version="1.0" encoding="UTF-8"?>
<!DOCTYPE svg PUBLIC "-//W3C//DTD SVG 1.1//EN" "http://www.w3.org/Graphics/SVG/1.1/DTD/svg11.dtd">
<!-- Creator: CorelDRAW 2017 -->
<svg xmlns="http://www.w3.org/2000/svg" xml:space="preserve" width="248.83mm" height="72.7684mm" version="1.1" style="shape-rendering:geometricPrecision; text-rendering:geometricPrecision; image-rendering:optimizeQuality; fill-rule:evenodd; clip-rule:evenodd"
viewBox="0 0 25370.38 7419.38"
 xmlns:xlink="http://www.w3.org/1999/xlink">
 <defs>
  <style type="text/css">
   <![CDATA[
    .fil4 {fill:#006633;fill-rule:nonzero}
    .fil5 {fill:#008D36;fill-rule:nonzero}
    .fil6 {fill:#00A19A;fill-rule:nonzero}
    .fil12 {fill:#087F3A;fill-rule:nonzero}
    .fil3 {fill:#1D71B8;fill-rule:nonzero}
    .fil9 {fill:#605C5E;fill-rule:nonzero}
    .fil11 {fill:#605C5E;fill-rule:nonzero}
    .fil10 {fill:#706F6F;fill-rule:nonzero}
    .fil13 {fill:#D01543;fill-rule:nonzero}
    .fil2 {fill:#E6007E;fill-rule:nonzero}
    .fil0 {fill:#F9B233;fill-rule:nonzero}
    .fil7 {fill:#FCEA10;fill-rule:nonzero}
    .fil8 {fill:white;fill-rule:nonzero}
    .fil1 {fill:white;fill-rule:nonzero}
   ]]>
  </style>
 </defs>
 <g id="Capa_x0020_1">
  <metadata id="CorelCorpID_0Corel-Layer"/>
  <path class="fil0" d="M22635.62 32.19c138.31,59.63 289.48,97.81 412.08,183.55 233.03,162.92 336.13,415.89 348.98,713.32 21,485.5 -134.18,893.64 -466.49,1220 -299.17,293.73 -603.83,580.86 -905.58,871.45 -96.38,92.84 -191.16,187.57 -292.01,286.63 -110.97,-108.63 -216.67,-214.44 -324.76,-317.3 -255.88,-243.45 -514.99,-483.01 -768.75,-728.89 -207.9,-201.36 -400.01,-419.25 -490.72,-713.31 -91.03,-295.11 -130.36,-597.39 -33.79,-899.52 106.39,-333.09 330.31,-526.25 649.05,-594.87 19.96,-4.26 39.1,-13.31 58.6,-20.14 66.48,-0.07 132.95,-0.07 199.5,-0.15 173.32,45.11 343.48,101.64 476.69,236.45 84.5,85.59 158.22,183.55 232.64,271.08 73.25,-86.63 144.06,-179.08 223.26,-262.23 133.59,-140.37 305.9,-198.64 481.8,-245.93 66.48,-0.06 133.03,-0.06 199.5,-0.13z"/>
  <path class="fil1" d="M22648.37 2.54c43.9,18.92 86.91,34.94 129.88,50.93 99.98,37.19 199.97,74.43 287.89,135.9 117,81.8 202.58,185.42 261.31,305.48 62.66,128.09 94.59,274.53 101.42,432.83 10.71,247.54 -23.59,475.47 -103.02,683.2 -79.36,207.57 -203.69,394.83 -373.07,561.16 -196.35,192.78 -394.31,382 -592.23,571.19 -105,100.37 -210.02,200.76 -313.6,300.51 -65.39,62.98 -129.75,126.56 -195.73,191.71l-118.58 116.8 -22.61 -22.15c-34.55,-33.82 -68.63,-67.4 -102.39,-100.67 -74.39,-73.3 -147.41,-145.27 -221.99,-216.25 -95.16,-90.53 -193.3,-182.89 -291.41,-275.23 -159.55,-150.15 -319.11,-300.33 -477.6,-453.9 -105.05,-101.74 -206.22,-207.81 -292.84,-325.94 -87.3,-119.05 -159.68,-250.16 -206.21,-401.01 -46.21,-149.82 -79.33,-301.67 -88.64,-454.7 -9.35,-153.84 5.37,-308.79 54.99,-464 54.26,-169.88 138.41,-304.86 249.56,-406.72 114.24,-104.71 256.42,-174.02 423.46,-209.97 11.39,-2.43 23.34,-7.08 35.26,-11.7 6.43,-2.49 12.89,-5 19.42,-7.29l5.04 -1.76 209.24 -0.16 3.89 1.01c88.29,22.97 175.86,48.9 258.57,86.36 84.14,38.11 163.27,88.08 233.02,158.68 60.17,60.95 113.84,126.56 166.14,190.51l43.53 52.98c14.86,-17.86 28.86,-34.95 42.92,-52.1 50.69,-61.84 101.85,-124.26 157.01,-182.16 69.92,-73.46 149.72,-125.33 234.87,-164.94 83.93,-39.02 172.58,-65.94 261.94,-89.96l3.74 -1c70.31,-0.15 140.63,-0.14 210.94,-0.14l5.88 2.53zm107.42 111.25c-43.31,-16.11 -86.63,-32.26 -126.99,-49.42l-188.08 0.13c-85.25,22.99 -169.42,48.69 -247.86,85.16 -78.35,36.44 -151.53,83.91 -215.19,150.81 -54.11,56.8 -104.26,118 -153.97,178.63 -23.58,28.76 -47.17,57.55 -68.03,82.21l-24.54 29.02 -24.66 -29.02c-24.6,-28.94 -46.64,-55.87 -68.89,-83.09 -51.85,-63.39 -105.06,-128.44 -162.1,-186.23 -63.42,-64.19 -136.03,-109.93 -213.58,-145.06 -77.79,-35.24 -160.65,-59.92 -244.34,-81.8l-189.62 0.15 -12.48 4.76c-14.59,5.67 -29.21,11.35 -45.11,14.74 -155.88,33.55 -288,97.71 -393.42,194.33 -102.84,94.25 -180.94,219.9 -231.66,378.71 -46.95,146.9 -60.86,294.18 -51.95,440.78 8.97,147.41 41.07,294.3 85.87,439.56 44.17,143.19 113.2,268.09 196.61,381.83 84.08,114.66 182.94,218.26 285.78,317.87 156.89,152.02 316.88,302.59 476.84,453.15 96.53,90.85 193.09,181.73 291.65,275.49 74.25,70.67 147.82,143.17 222.75,217.01l79.76 78.5 73.48 -72.48c66.36,-65.54 131.12,-129.5 196.24,-192.22 105.08,-101.19 209.47,-200.99 313.85,-300.76 198.19,-189.44 396.4,-378.91 591.47,-570.44 162.56,-159.65 281.84,-339.25 357.92,-538.2 76.34,-199.66 109.29,-419 98.98,-657.46 -6.46,-149.82 -36.33,-287.71 -94.85,-407.34 -54.03,-110.45 -132.75,-205.76 -240.37,-281.01 -81.11,-56.71 -177.31,-92.53 -273.49,-128.32z"/>
  <path class="fil2" d="M19510.82 564.59c135.93,-66.43 263.31,-157 409.89,-194.08 278.5,-70.41 544.72,18.35 788.08,205.76 397.17,305.89 619.98,695.37 664.29,1166.46 39.79,423.91 70.94,847.7 106.67,1271.57 11.43,135.39 25.39,270.8 38.89,413.72 -157.31,13.02 -308.79,23.82 -459.57,38.38 -356.93,34.57 -712.83,74.19 -1070.27,105.59 -292.7,25.66 -588.44,28.31 -879.16,-97.2 -291.74,-125.99 -555.9,-296.31 -732.66,-570.65 -194.89,-302.34 -203.56,-601.96 -52.85,-891.7 9.37,-18.09 14.48,-38.69 21.65,-58.2 42.7,-50.91 85.4,-101.89 128.11,-152.85 147.1,-102.98 301.1,-195.75 493.35,-208.48 121.91,-7.94 246.73,0.57 363.78,1.61 -21.37,-113.57 -48.9,-229.08 -63.77,-344.91 -25,-195.49 39.73,-366.1 115.32,-532.19 42.77,-50.97 85.48,-101.95 128.24,-152.84z"/>
  <path class="fil1" d="M19496.68 535.57c42.71,-20.86 83.13,-43.28 123.51,-65.68 93.81,-52.03 187.71,-104.11 292.7,-130.67 139.64,-35.3 276.37,-32.12 408.9,2.48 141.27,36.88 277.32,109.45 406.68,209.09 202.18,155.71 360.1,332.99 473.17,531.52 112.9,198.25 180.92,417.53 203.49,657.52 26.73,284.82 48.78,558.36 70.8,831.85 11.7,145.31 23.42,290.66 36,439.98 8.39,99.41 16.94,187.41 25.68,277.55l16.12 168.31 -32.45 2.68c-47.01,3.88 -97.43,7.89 -147.54,11.86 -107.9,8.55 -213.88,16.96 -311.65,26.39 -131.2,12.7 -269.11,26.83 -407.08,40.95 -223.8,22.9 -447.64,45.82 -663.44,64.77 -147.78,12.95 -296.55,20.09 -445.63,8.1 -150.14,-12.08 -300.16,-43.55 -449.05,-107.82 -147.82,-63.84 -288.93,-139.1 -415.89,-233.48 -127.61,-94.86 -240.56,-208.79 -331.16,-349.41 -99.23,-153.94 -151.69,-307.66 -160.74,-460.2 -9.3,-156.96 27.39,-311.89 106.38,-463.8 5.14,-9.85 9.14,-22.01 13.11,-34.18 2.25,-6.88 4.53,-13.81 6.89,-20.24l1.95 -5.3 134.24 -160.17 3.78 -2.65c74.96,-52.48 151.77,-102.4 234.57,-140.93 84.15,-39.21 174.48,-66.69 275.2,-73.35 85.39,-5.57 172.36,-3.13 257.12,-0.77 23.45,0.65 46.75,1.29 69.53,1.77 -4.5,-22.82 -9.04,-45.11 -13.6,-67.46 -16.19,-79.36 -32.52,-159.44 -42.95,-240.63 -13.05,-102.17 -2.73,-197.64 20.7,-289.11 23.27,-90.79 58.88,-176.4 97.15,-260.49l1.75 -3.85 135.61 -161.61 6.15 -3.01zm154.81 -9.4c-40.32,22.37 -80.66,44.75 -120.38,64.41l-120.89 144.07c-36.63,80.71 -70.44,162.24 -91.85,245.8 -21.56,84.22 -31.11,171.83 -19.19,265.13 10.04,78.25 26.19,157.39 42.19,235.84 7.45,36.6 14.92,73.12 21.32,107.18l7.23 38.47 -39.15 -0.36c-36.8,-0.33 -73.31,-1.36 -110.19,-2.39 -82.75,-2.3 -167.66,-4.68 -251.31,0.77 -91.52,6.06 -174.35,31.36 -251.99,67.49l-0.13 0c-77.61,36.1 -150.16,83.04 -221.07,132.54l-121.87 145.41 -4.28 12.79c-4.78,14.64 -9.59,29.28 -17.15,43.88l0 0.12c-73.66,141.63 -107.88,285.36 -99.31,430.24 8.38,141.42 57.57,284.76 150.64,429.16 86.13,133.69 193.68,242.13 315.26,332.51 122.23,90.86 259.12,163.76 403.02,225.91 141.8,61.22 285.05,91.2 428.61,102.76 144.62,11.63 290.12,4.6 435.03,-8.1 226.92,-19.92 444.65,-42.23 662.42,-64.51 133.46,-13.66 267.05,-27.34 407.59,-40.95 108.57,-10.48 209.65,-18.5 312.65,-26.65l114.83 -9.2 -9.98 -103.24c-9.53,-98.25 -18.83,-194.03 -25.95,-278.31 -12.14,-144.07 -24.08,-292.16 -36,-440.23 -22.6,-280.78 -45.24,-561.56 -70.54,-831.1 -21.69,-230.56 -87,-441.17 -195.41,-631.54 -108.76,-190.96 -261.12,-361.83 -456.53,-512.33 -122.71,-94.51 -251.05,-163.16 -383.46,-197.73 -122.16,-31.88 -248.26,-34.81 -377.1,-2.23 -97.1,24.55 -187.1,74.48 -277.04,124.37z"/>
  <path class="fil3" d="M17909.99 3300.47c37.85,-147.12 51.3,-303.05 119,-439.45 128.8,-259.31 373.72,-407.18 680.45,-474.33 500.73,-109.64 951.58,-31.54 1348.3,235.97 357.05,240.81 708.23,488.23 1062.51,732.15 113.17,77.89 228.05,153.87 348.39,234.98 -93.54,129.28 -185.16,252.73 -273.2,378.04 -208.46,296.59 -412.28,595.61 -623.66,890.62 -173.08,241.58 -366.1,470.7 -655.84,613.86 -290.79,143.74 -597.96,237.81 -928.59,198.15 -364.43,-43.8 -603.9,-228.89 -730.53,-530.31 -7.92,-18.88 -20.66,-36 -31.18,-53.88 -11.5,-65.52 -23.13,-131.01 -34.71,-196.49 16.74,-179.04 45.87,-356.95 162.87,-512.82 74.16,-98.92 163.19,-189.38 241.21,-278.72 -102.77,-56.28 -211.11,-109.09 -311.19,-171.85 -169.06,-105.94 -259.5,-264.92 -339.16,-429.47 -11.56,-65.49 -23.19,-130.96 -34.69,-196.44z"/>
  <path class="fil1" d="M17878.83 3292.52c11.52,-44.8 20.85,-90.92 30.16,-137 21.32,-105.54 42.66,-211.13 91.11,-308.76 64.66,-130.18 157.3,-233.32 271.57,-312.97 121.77,-84.88 267.99,-142.98 430.95,-178.64 254.7,-55.76 496.97,-63.69 726.21,-23.57 229.12,40.1 444.98,128.15 646.95,264.34 229.33,154.66 462.76,316.66 696.19,478.68 122.05,84.7 244.14,169.44 366.57,253.72 76.02,52.33 152.83,103.78 231.52,156.51l144.27 96.86 -108.87 149.63c-61.1,83.77 -121.14,166.08 -183.65,255.05 -75.11,106.86 -155.75,222.92 -236.3,338.86 -128.36,184.74 -256.73,369.51 -387.49,552.02 -87.28,121.83 -179.81,240.73 -287.7,347.87 -108.4,107.66 -231.83,202.82 -380.13,276.09 -147.44,72.88 -299.23,133.23 -456.28,170.36 -157.92,37.33 -321.07,51.22 -490.34,30.92 -185.49,-22.29 -339.95,-80.33 -464.82,-170.98 -128.6,-93.34 -225.3,-220.77 -291.7,-378.88l0.11 -0.05c-4.19,-9.95 -11.37,-21.24 -18.52,-32.48 -2.91,-4.58 -5.75,-9.03 -10.77,-17.56l-3.08 -5.21c-11.95,-68.62 -24.08,-137.25 -36.34,-205.81l0.44 -4.64c8.52,-91.22 20.26,-182.28 44.84,-270.78 24.98,-89.88 63.13,-176.91 124.31,-258.43 52.76,-70.38 111.58,-135.2 168.92,-198.36l47.04 -52.05 -60.48 -32.09c-72.86,-38.49 -146.37,-77.33 -216.85,-121.52 -88.32,-55.45 -156.03,-124.5 -211.93,-201.08 -55.32,-75.77 -98.66,-158.11 -139.08,-241.63l-2.04 -4.19c-12.07,-69.11 -24.37,-138.18 -36.59,-207.26l1.79 -6.94zm93.25 -124.38c-8.99,44.54 -18.03,89.11 -29.14,133.29l32.79 185.67c38.62,79.57 79.82,157.52 131,227.6 51.47,70.49 113.52,133.89 194.15,184.42l0.12 0c67.78,42.51 140.49,80.92 212.56,119 31.15,16.46 62.16,32.85 96.84,51.84l35.2 19.28 -26.37 30.18c-26.11,29.89 -50.24,56.47 -74.57,83.29 -56.81,62.59 -115.09,126.82 -165.12,193.55 -55.78,74.34 -90.71,154.22 -113.72,237 -22.97,82.69 -34.22,168.55 -42.38,254.81l32.99 186.84 6.73 10.62c8.28,13.03 16.6,26.11 23.33,42.12l0.13 0c61.84,147.23 151.35,265.5 269.99,351.62 115.97,84.19 260.34,138.21 434.54,159.14 161.34,19.35 317.12,6.04 468.13,-29.66 151.88,-35.91 299.12,-94.5 442.41,-165.33 141.43,-69.88 259.41,-160.9 363.21,-263.98 104.31,-103.6 194.87,-220.07 280.64,-339.8 131.24,-183.17 259.13,-367.22 386.98,-551.26 76.61,-110.27 153.16,-220.47 236.56,-339.1 57.2,-81.41 120.22,-167.81 184.4,-255.8l69.45 -95.55 -88.7 -59.59c-78.97,-52.91 -156.03,-104.54 -232.27,-157.02 -122.43,-84.29 -244.52,-169.03 -366.57,-253.72 -228.84,-158.82 -457.74,-317.67 -695.71,-478.17 -194.32,-131.03 -401.85,-215.72 -621.97,-254.24 -220.92,-38.66 -454.95,-30.91 -701.48,23.06 -154.79,33.88 -293.19,88.7 -407.72,168.55 -105.63,73.62 -191.14,168.72 -250.62,288.48 -44.92,90.52 -65.38,191.72 -85.81,292.88z"/>
  <path class="fil4" d="M18976.75 6285.38c-90.06,-120.45 -202.12,-228.92 -265.63,-364.01 -120.75,-256.86 -84.24,-526.29 52.52,-788.93 223.26,-428.7 560.61,-702.61 1010.75,-817.53 405.07,-103.37 811.73,-198.37 1217.63,-297.81 129.59,-31.79 258.73,-66 395.36,-100.94 42.12,149.14 81.02,293.11 123.52,435.73 100.46,337.61 205.75,673.47 303.31,1012.22 79.84,277.32 137.86,561.07 70.16,859.73 -67.88,299.7 -184.17,579.68 -418.04,791.71 -257.76,233.65 -547.7,288.05 -857.91,187.73 -19.45,-6.21 -40.44,-8.04 -60.68,-11.85 -57.61,-33.26 -115.23,-66.46 -172.79,-99.67 -127.86,-125.57 -247.06,-259.29 -295.36,-442.06 -30.62,-115.88 -45.67,-237.15 -66.67,-349.77 -106.53,38.06 -213.77,82.19 -323.73,114.23 -185.52,54.06 -363.7,18.15 -539.61,-29.06 -57.63,-33.22 -115.18,-66.42 -172.82,-99.72z"/>
  <path class="fil1" d="M18950.89 6304.68c-28.79,-38.51 -58.06,-73.75 -87.29,-108.96 -68.06,-81.96 -136.17,-163.98 -181.64,-260.72 -60.65,-129.02 -83.23,-261.01 -74.41,-393.67 9.43,-141.8 54.64,-283.97 127.44,-423.78 113.78,-218.46 256.95,-397.69 429.3,-537.09 172.07,-139.17 372.85,-238.3 602.15,-296.83 256.43,-65.45 526.81,-130.63 797.21,-195.8 136.19,-32.82 272.39,-65.67 420.79,-102.02 87.41,-21.44 175.17,-44.13 265.16,-67.4l160.23 -41.31 46.86 167.19c27.73,99.52 54.96,197.19 85.13,298.4 42.6,143.19 79.74,265.46 116.94,387.96 64,210.78 128.03,421.61 186.49,624.63 40.3,140 75.14,281.87 91.42,427.16 16.38,146.13 13.86,295.23 -20.88,448.48 -34.51,152.37 -81.35,299.77 -149.29,436.05 -68.39,137.19 -158.29,263.38 -278.59,372.45 -131.57,119.26 -271.57,193.47 -418.43,225.59 -150.78,32.98 -308.28,21.53 -470.91,-31.06 -10.93,-3.52 -23.85,-5.54 -36.72,-7.53 -7.26,-1.13 -14.62,-2.29 -20.05,-3.3l-5.25 -0.98c-60.4,-34.97 -120.88,-69.84 -181.38,-104.63l-2.81 -2.77c-64.95,-63.79 -127.83,-129.83 -181.05,-203.74 -53.98,-74.97 -97.65,-157.54 -122.89,-253.08 -21.47,-81.3 -35.36,-164.76 -48.87,-246.11 -3.85,-23.19 -7.68,-46.22 -11.56,-68.53 -22.63,8.28 -42.47,15.68 -62.32,23.1 -74.79,27.97 -150.25,56.2 -227.52,78.71 -97,28.26 -191.86,33.02 -285.28,24.57 -92.45,-8.36 -182.49,-29.46 -271.63,-53.38l-3.75 -1 -182.78 -105.47 -3.81 -5.12zm-37.82 -150.09c29.65,35.73 59.33,71.48 85.69,106.36l162.89 93.99c85.51,22.87 171.31,42.86 257.03,50.61 86,7.78 173.03,3.48 261.54,-22.31 75.04,-21.86 149.34,-49.65 222.99,-77.2 36.23,-13.55 72.32,-27.05 98.84,-36.52l35.55 -12.7 6.96 37.31c6.75,36.23 12.64,71.59 18.58,107.32 13.23,79.66 26.83,161.38 47.6,240.05 23.04,87.21 63.15,162.92 112.8,231.87 49.66,68.96 109.28,131.76 171.16,192.66l164.13 94.68 12.86 2.09c15.28,2.39 30.61,4.77 46.42,9.82l0.12 0c151.63,49.03 298.02,59.82 437.61,29.28 135.99,-29.75 266.1,-98.89 388.9,-210.2 113.55,-102.95 198.78,-222.8 263.95,-353.52 65.62,-131.63 110.89,-274.11 144.25,-421.41 32.95,-145.4 35.28,-287.54 19.62,-427.27 -15.74,-140.56 -49.86,-279.25 -89.4,-416.57 -61.77,-214.49 -123.9,-419.08 -186,-623.61 -41.3,-136.04 -82.72,-272.39 -117.18,-388.23 -28.61,-95.97 -56.73,-196.85 -85.37,-299.65l-29.71 -106.21 -99.15 25.5c-89.98,23.27 -177.72,45.95 -266.16,67.65 -132.1,32.36 -276.59,67.2 -421.06,102.02 -261.21,62.96 -522.44,125.94 -796.19,195.8 -220.33,56.24 -412.96,151.25 -577.68,284.48 -165.15,133.58 -302.67,305.98 -412.39,516.64 -68.87,132.26 -111.57,265.87 -120.36,398.05 -8.14,122.28 12.62,243.79 68.35,362.37 41.98,89.29 107.41,168.1 172.81,246.85z"/>
  <path class="fil5" d="M21949.17 7386.85c-150.07,-7.92 -305.07,8.51 -449.13,-28.92 -273.77,-71.22 -456.02,-270.25 -568.29,-541.26 -183.42,-442.39 -175.14,-873.41 27.24,-1289.26 182.07,-374.31 371.6,-744.38 557.19,-1116.72 59.24,-118.9 116.41,-239.03 177.72,-365.21 140.97,62.59 275.91,124.41 412.23,182.7 322.42,137.91 646.6,271.08 968.06,412.02 263.11,115.33 517.15,251.43 701.44,492.7 185.03,242.17 323.8,508.62 334.98,821.4 12.21,344.78 -133.08,600.22 -409.52,772.85 -17.25,10.79 -32.16,25.71 -48.19,38.69 -62.48,22.73 -124.94,45.54 -187.35,68.29 -178.18,17.56 -357.11,23.44 -527.73,-55.87 -108.28,-50.27 -210.53,-115.85 -309.98,-171.47 -39.59,105.31 -74.99,215.13 -121.37,319.2 -78.3,175.73 -220.56,288.58 -369.91,392.52 -62.49,22.82 -124.95,45.61 -187.41,68.34z"/>
  <path class="fil1" d="M21947.53 7419.03c-46.79,-2.47 -93.17,-2.58 -139.51,-2.68 -106.5,-0.22 -213.01,-0.47 -316.05,-27.24 -137.56,-35.78 -252.96,-102.53 -348.67,-193.68 -102.04,-97.2 -181.46,-221.99 -241.29,-366.4 -93.54,-225.48 -138.12,-448.41 -133.48,-668.26 4.65,-219.66 58.37,-435.66 161.45,-647.49 119.26,-245.09 241.55,-488.09 363.8,-731.06 61.39,-122.01 122.81,-244.06 193.52,-385.91 42.55,-85.41 81.18,-165.42 120.8,-247.46l70.39 -145.36 28.42 12.61c57.38,25.48 95.43,42.54 133,59.38 93.03,41.71 184.42,82.69 278.87,123.06 131.41,56.21 250.49,106.38 369.38,156.46 201.09,84.72 402.28,169.47 598.94,255.68 132.86,58.24 263.65,121.86 385.07,201.78 122.32,80.5 234.63,177.19 329.11,300.89 93.93,122.94 176.23,252.29 236.6,390.92 60.74,139.48 99.21,288.17 104.94,448.9 6.23,175.97 -27.36,329.77 -97.47,462.09 -72.06,136.01 -182.31,248.82 -327.19,339.28 -9.75,6.09 -19.36,14.45 -28.97,22.79 -5.11,4.44 -10.26,8.9 -15.94,13.51l-4.27 3.47 -196.15 71.49 -4.1 0.4c-90.76,8.94 -181.82,14.91 -272.13,8.52 -91.9,-6.49 -183.03,-25.7 -272.25,-67.17 -76.08,-35.32 -149.28,-78.13 -220.59,-119.85 -19.65,-11.49 -39.16,-22.9 -58.85,-34.21 -7.99,21.79 -15.28,42.11 -22.59,62.48 -26.86,74.83 -53.97,150.34 -86.42,223.16 -40.97,91.95 -98.47,167.24 -165.12,233.02 -65.88,65.01 -140.01,120.17 -215.75,172.88l-3.23 2.24 -197.77 72.13 -6.47 -0.35zm-139.51 -67.04c45.81,0.1 91.67,0.21 136.27,2.36l177.07 -64.57c72.47,-50.53 142.99,-103.13 204.23,-163.57 61.37,-60.56 114.18,-129.58 151.5,-213.34 31.73,-71.19 58.31,-145.23 84.65,-218.61 12.57,-35.04 25.13,-70 35.96,-98.83l13.16 -35.03 32.65 18.25c29.88,16.71 61.17,35.01 92.78,53.51 69.51,40.66 140.84,82.38 215.04,116.83 81.36,37.82 165.05,55.36 249.8,61.36 85,6.02 171.17,0.52 257.2,-7.86l178.42 -65.04 10.27 -8.83c11.67,-10.13 23.36,-20.29 37.04,-28.84 135.17,-84.4 237.7,-189 304.22,-314.56 64.91,-122.48 95.96,-265.51 90.15,-429.79 -5.41,-152 -41.95,-292.96 -99.63,-425.43 -58.05,-133.3 -137.67,-258.32 -228.76,-377.54 -89.8,-117.56 -196.7,-209.57 -313.23,-286.25 -117.41,-77.27 -245.23,-139.39 -375.46,-196.47 -200.97,-88.1 -399.6,-171.78 -598.18,-255.44 -127.61,-53.74 -255.07,-107.45 -369.64,-156.46 -91.5,-39.12 -184.83,-80.97 -279.87,-123.57l-104.34 -46.73 -43.18 89.33c-41.71,86.38 -82.39,170.63 -121.05,248.22 -57.75,115.85 -125.77,251.02 -193.76,386.16 -122.22,242.91 -244.47,485.83 -363.31,730.19l0 0.12c-99.06,203.58 -150.7,410.58 -155.13,620.49 -4.45,210.68 38.54,424.93 128.64,642.28l0 0.13c56.43,136.24 130.89,253.55 226.19,344.3 87.98,83.79 194.03,145.15 320.41,178.02 95.34,24.77 197.64,25.01 299.9,25.22z"/>
  <path class="fil6" d="M24703.53 5817.89c-99.3,111.02 -184.32,241.03 -300.91,329.02 -221.73,167.24 -477.61,183.78 -741.32,101.54 -430.51,-134.38 -733.3,-409.7 -904.1,-825.61 -153.83,-374.31 -300.01,-751.76 -450.21,-1127.51 -47.94,-120.08 -98.14,-239.19 -150.02,-365.36 132.7,-69.84 261.14,-135.56 387.75,-204.51 299.76,-163.2 597.24,-330.63 898.42,-491.12 246.58,-131.39 502.28,-242.77 789.76,-234.68 288.38,8.14 565.39,67.14 795.84,253.72 254.01,205.68 345.73,477.4 296.64,798.7 -3.1,20.15 -1.79,40.97 -2.46,61.41 -22.74,62.51 -45.46,125.03 -68.16,187.49 -98.57,148.63 -206.07,290.58 -369.19,372.98 -103.43,52.27 -214.09,90.39 -315.91,132.54 50.53,96.35 106.93,192.24 152.35,293.06 76.61,170.16 68.54,350.53 49.6,530.84 -22.67,62.46 -45.41,125 -68.08,187.48z"/>
  <path class="fil1" d="M24727.5 5839.33c-29.98,33.53 -59.45,69.86 -88.9,106.16 -66.63,82.15 -133.3,164.33 -216.55,227.15 -111.42,84.05 -231.33,131.64 -356.57,148.79 -133.67,18.31 -272.84,1.75 -413.78,-42.2 -220.06,-68.68 -407.61,-173.6 -562.07,-314.64 -154.12,-140.75 -275.06,-317.29 -362.22,-529.52 -103.23,-251.22 -199.58,-494.84 -295.87,-738.38 -54.54,-137.94 -108.95,-275.54 -154.46,-389.38l0 -0.13c-31.84,-79.77 -66.05,-162.32 -101.11,-246.93l-59.94 -145.14 149.61 -78.32c88.94,-46.42 176.26,-92 263.68,-139.59 104.37,-56.81 222.84,-122.14 341.3,-187.44 183.06,-100.93 366.14,-201.88 557.39,-303.79 124.97,-66.59 252.26,-128.12 384.59,-171.91 133.79,-44.29 273.17,-70.71 421.19,-66.55 146.71,4.12 290.74,21.27 427.73,61.2 138.03,40.23 268.73,103.52 387.54,199.72 129.9,105.17 218.99,227.37 269.88,364.43 52.22,140.6 64.04,296.03 38.38,464.05 -1.89,12.32 -1.94,24.98 -1.97,37.59 -0.01,6.88 -0.04,13.77 -0.23,20.02l-0.17 5.22c-23.7,65.34 -47.39,130.69 -71.24,195.96l-2.05 3.1c-49.92,75.26 -102.32,149.07 -163.67,215.36 -62.07,67.05 -132.67,125.55 -217.89,168.59 -73.19,37 -149.06,66.7 -223.01,95.65 -21.2,8.3 -42.26,16.55 -62.28,24.55l31.23 57.66c36.75,67.54 73.83,135.7 105.37,205.72 40.09,89.03 58.01,180.49 63.43,273.1 5.3,90.94 -1.55,182.69 -11.16,274.27l-0.43 4.01 -71.51 196.92 -4.22 4.72zm-138.86 65.54c28.24,-34.82 56.51,-69.66 86.68,-103.68l64.67 -178.08c9.09,-87.37 15.48,-174.62 10.48,-260.17 -4.98,-85.19 -21.34,-169.04 -57.86,-250.14 -31.17,-69.19 -67.3,-135.61 -103.11,-201.42 -16.08,-29.57 -32.13,-59.03 -48.35,-89.99l-16.34 -31.15 32.63 -13.52c33.35,-13.82 64.59,-26.04 96.17,-38.4 72.68,-28.45 147.25,-57.64 217.47,-93.14 77.9,-39.35 142.64,-93.05 199.72,-154.7 56.97,-61.55 107.04,-131.93 155.06,-204.19l65.04 -178.93 0.1 -12.89c0.04,-15.8 0.09,-31.66 2.48,-47.18 24.06,-157.53 13.35,-302.25 -34.85,-432.01 -46.87,-126.2 -129.45,-239.15 -250.19,-336.92 -111.6,-90.37 -234.68,-149.91 -364.84,-187.85 -131.21,-38.24 -269.91,-54.68 -411.58,-58.67 -139.43,-3.93 -271.68,21.29 -399.23,63.51 -129.01,42.69 -252.91,102.58 -374.49,167.37 -181.99,96.97 -369.33,200.27 -556.63,303.54 -108.92,60.05 -217.88,120.13 -341.54,187.44 -86.43,47.06 -174.75,93.16 -264.7,140.1l-97.5 51.03 37.62 90.93c34.26,82.69 67.68,163.34 101.32,247.58 58.22,145.54 106.56,267.75 154.74,389.63 98.57,249.31 197.19,498.66 295.38,737.62 83.43,203.19 198.98,371.98 346.07,506.3 147.44,134.65 326.92,234.92 537.84,300.76 132.29,41.25 262.19,56.89 386.01,39.94 114.31,-15.65 224.02,-59.28 326.29,-136.43 77.38,-58.39 141.44,-137.36 205.46,-216.29z"/>
  <path class="fil7" d="M25272.09 2699.4c13.83,151.68 54.14,303.05 35.99,455.06 -34.43,288.95 -217.34,513.58 -486.46,683.84 -439.36,277.91 -895.07,361.89 -1363.68,248.63 -421.66,-101.94 -839.96,-212.22 -1260.13,-318.01 -134.25,-33.82 -269.32,-65.22 -411.58,-99.52 45.22,-154.28 90.38,-302.43 131.65,-451.06 97.63,-351.84 189.99,-704.42 290.97,-1055.76 82.62,-287.69 188.45,-570.7 415.57,-806.49 227.92,-236.71 488.34,-432.45 816.59,-510.55 361.76,-85.99 652.6,4.58 875.6,243.94 13.96,14.98 31.92,26.68 48,39.92 33.2,57.56 66.55,115.11 99.82,172.69 44.88,174.3 77.64,351.87 19.25,539.36 -37.03,118.99 -90.96,235.22 -134.89,346.52 117,17.05 237.99,28.96 354.65,53.04 196.91,40.63 337.05,158.69 468.82,285.73 33.22,57.56 66.5,115.12 99.82,172.68z"/>
  <path class="fil1" d="M25304.14 2696.5c4.11,45.16 11.04,92.69 17.97,140.19 15.49,106.4 31,212.84 18.03,321.56 -17.26,144.83 -70.38,274.12 -152.08,388.97 -87,122.31 -206.37,227.94 -349.26,318.33 -223.36,141.27 -451.23,233.28 -683.12,275.55 -231.6,42.22 -466.87,34.74 -705.3,-22.89 -280.57,-67.82 -549.68,-136.72 -818.79,-205.58 -151.18,-38.69 -302.36,-77.39 -441.58,-112.44 -90.22,-22.73 -184.28,-45.17 -280.83,-68.18l-163.36 -39.27 9.51 -32.43c13.72,-46.84 27.47,-93.14 41.07,-139.03 31.34,-105.69 62.1,-209.41 90.46,-311.51 32.44,-116.94 70.91,-258.56 109.36,-400.15 59.18,-217.89 118.36,-435.78 181.61,-655.87 41.64,-145.01 89.31,-289.18 155.62,-427.76 66.59,-139.14 151.68,-271.71 267.78,-392.24 115.59,-120.05 239.5,-229.77 376.21,-319.43 137.59,-90.23 288.15,-160.24 456.14,-200.21 183.85,-43.7 350.46,-42.98 500.13,-1.28 154.13,42.93 289.51,129.09 406.52,254.68 7.63,8.2 17.89,16.05 28.14,23.87 5.13,3.92 10.32,7.89 16.71,13.15l4.6 3.79 104.77 181.26 1.17 4.54c22.89,88.92 42.72,178.75 49.36,270.4 6.77,93.27 0.03,188.47 -30.5,286.49 -26.12,83.96 -60.27,165.95 -93.54,245.82 -9.12,21.88 -18.17,43.62 -26.88,64.94l67.85 9.03c82.72,10.82 166.18,21.74 247.97,38.62 103.05,21.27 190.98,62.61 270.19,115.14 78.11,51.78 147.45,114.26 214.52,178.92l3.32 3.21 105.55 182.61 0.66 7.18zm-45.88 149.29c-6.52,-44.72 -13.02,-89.46 -17.53,-136.25l-94.11 -162.81c-63.64,-61.21 -129.27,-120.1 -202.12,-168.4 -73,-48.41 -153.63,-86.44 -247.47,-105.8 -79.68,-16.45 -161.92,-27.2 -243.43,-37.87 -38.42,-5.02 -76.6,-10.01 -109.34,-14.78l-40.39 -5.88 14.91 -37.78c13.77,-34.91 28.11,-69.32 42.6,-104.11 32.7,-78.5 66.26,-159.08 91.52,-240.28 27.86,-89.44 33.95,-176.82 27.72,-262.76 -6.23,-86 -24.68,-170.66 -46.17,-254.51l-94.75 -163.91 -10.45 -8.05c-12.43,-9.49 -24.88,-19.01 -36.22,-31.19 -108.89,-116.89 -234.3,-196.9 -376.5,-236.51 -139,-38.72 -294.91,-39.12 -468.07,2.04 -160.22,38.11 -304.04,105.05 -435.69,191.38 -132.54,86.91 -252.81,193.46 -365.11,310.09 -111,115.24 -192.43,242.11 -256.18,375.33 -64.02,133.77 -110.62,275 -151.58,417.66 -62.15,216.26 -121.75,435.7 -181.34,655.12 -34.03,125.32 -68.09,250.68 -109.63,400.41 -29.11,104.83 -59.62,207.7 -90.7,312.51l-31.52 106.53 97.35 23.22c94.49,22.52 186.55,44.48 281.58,68.42 155.53,39.16 298.74,75.82 441.85,112.44 275.54,70.51 551.12,141.05 818.04,205.58 229.63,55.5 456.06,62.74 678.79,22.14 223.45,-40.73 443.67,-129.79 660.16,-266.72 135.94,-85.99 249.15,-185.97 331.09,-301.18 75.48,-106.11 124.55,-225.49 140.48,-359.18 11.98,-100.48 -2.91,-202.69 -17.78,-304.9z"/>
  <path class="fil8" d="M21263.73 4794.1c-43.8,-37.17 -79.78,-67.63 -115.56,-98.25 -103.69,-88.38 -207.06,-177.15 -311.21,-264.85 -31.45,-26.49 -32.56,-44.72 38.06,-121.13 125.79,-136.28 192.44,-309.52 237.41,-489.43 2.39,-9.65 7.75,-13.67 18.15,-27.24 196,313.02 199.55,646.39 133.15,1000.9zm1297.99 1371.65c161.49,-115.75 303.95,-252.92 416.75,-418.35 193.42,-283.88 221.84,-582.92 80.74,-897.03 -94.38,-209.97 -237.4,-385.04 -395.74,-548.95 -97.3,-100.61 -201.95,-193.29 -308.99,-283.45 -13.96,-11.81 -31.46,-20.43 -40.76,-42.08 41.07,-14.95 83.14,-26.89 122.16,-45.05 114.55,-53.25 167.76,-157.34 144.71,-275.56 -3.68,-19.09 -8.79,-34.41 -28.5,-44.44 -400.66,-204.18 -600.02,-549.47 -682.64,-976.14 -10.66,-54.86 -20.68,-109.82 -30.87,-164.73 3.42,-0.27 6.9,-0.52 10.33,-0.77 37.87,47.46 73.72,96.69 113.95,142.05 49.5,55.78 130.24,71.91 197.25,39.15 91.47,-44.7 173.96,-102.73 232.57,-187.28 99.08,-142.93 193.03,-289.37 265.77,-447.9 119.9,-261.19 80.63,-499.12 -115.77,-707.33 -126.3,-133.72 -258.99,-261.32 -385.68,-394.91 -152.19,-160.47 -301.93,-147.43 -442.13,22.67 -21.63,26.22 -43.53,53.16 -59.88,82.7 -138.56,250.39 -281.78,498.54 -375.01,771.02 -38.69,112.86 -80.3,224.88 -144.83,326.29 -75.65,119.07 -215.06,119.4 -298.53,5.57 -32.23,-43.85 -59.12,-91.61 -92.83,-135.93 -1.8,124.31 19.64,242.59 86.24,349.31 69.38,111.29 177.41,164.39 309.44,189.76 -69.37,78.68 -127.58,154.08 -179.59,234.02 -130.04,199.66 -226.82,415.57 -308.22,638.53 -128.04,350.94 -224.02,711.44 -313.37,1073.68 -16.1,65.04 -21.39,131.35 -15.26,198.02 8.34,89.85 47.87,162.47 134.71,195.2 156.54,58.99 304.28,137.34 458.93,200.32 52.14,21.24 106.53,36.86 159.76,55.67 66.8,23.58 106.72,96.63 85.79,164.42 -14.66,47.59 -40.24,90.05 -63.75,133.52 -102.64,189.23 -177.27,386.96 -184.12,605.52 -3.04,99.56 8.21,197.04 32.56,293.28 266.87,79.86 550.04,121.85 843.2,119.33 222.47,-1.81 438.45,-29.92 645.88,-79.92 0.4,-0.45 0.71,-0.77 1.09,-1.16 12.3,-82.89 56.15,-139.89 124.7,-189.03z"/>
  <path class="fil9" d="M21242.91 4818.69l-26.2 -22.23c-31.17,-26.44 -58.65,-49.76 -89.49,-76.14l-85.6 -73.06c-78.57,-67.11 -157.14,-134.22 -225.35,-191.66 -25.65,-21.59 -38.65,-40.93 -29.72,-74.64 6.11,-23.03 25.73,-50.69 64.74,-92.9 60.51,-65.57 106.85,-140.1 143.47,-219.9 36.97,-80.57 64.3,-167.1 86.39,-255.53 3.52,-14 8.56,-20.15 17.22,-30.66l6.61 -8.32 28.21 -36.84 24.65 39.36c100.87,161.11 152.21,327.28 169.77,498.65 17.43,170.25 1.51,345.21 -32.21,525.22l-10.22 54.53 -42.27 -35.86zm-73.81 -147.33l72.7 61.86c25.86,-155.07 36.69,-305.73 21.72,-451.85 -14.67,-143.32 -54.23,-282.65 -128.89,-417.96 -21.27,79.36 -47.31,157.33 -81.33,231.49 -39.4,85.85 -89.3,166.1 -154.56,236.81 -31.57,34.16 -46.74,53.85 -49.86,65.64 -0.3,1.12 2.99,4.17 8.78,9.04 82.69,69.64 154.27,130.78 225.84,191.91l85.6 73.06zm1373.81 1468.14c79.61,-57.06 154.31,-119.18 222.72,-187.14 68.44,-67.99 130.97,-142.1 186.22,-223.14 93.82,-137.71 147.5,-278.66 160.47,-422.78 12.93,-143.65 -14.4,-291.32 -82.51,-442.96 -46.11,-102.6 -104.29,-196.9 -170.36,-285.69 -66.34,-89.15 -140.85,-172.93 -219.21,-254.05 -47.79,-49.43 -97.84,-97.31 -149.33,-144.13 -52.77,-47.98 -105.08,-93.2 -157.14,-137.04l-0.12 0c-1.99,-1.68 -5.29,-4.16 -8.69,-6.69l0 -0.12c-14.92,-11.16 -30.46,-22.8 -40.91,-47.13l-13.47 -31.33 32.14 -11.69c14.55,-5.29 27.06,-9.52 39.55,-13.74 27.26,-9.22 54.43,-18.4 79.96,-30.29l0.13 0c50.36,-23.4 87.1,-57.58 108.63,-98.56 21.54,-41.03 28.06,-89.62 17.91,-141.65 -1.25,-6.54 -2.62,-12.18 -4.71,-15.91 -1.17,-2.08 -3.22,-4.04 -6.76,-5.83 -205.44,-104.69 -359.4,-245.77 -472.69,-415.49 -112.84,-169.05 -184.89,-366.03 -226.98,-583.37 -7.4,-38.11 -15.79,-83.43 -24.18,-128.89l-13.23 -71.42 63.11 -4.67 10.66 13.36c10.61,13.31 23.08,29.37 35.58,45.5 25.3,32.64 50.62,65.28 77.23,95.29 19.88,22.41 46.15,36.88 74.2,42.45 28.13,5.58 57.94,2.27 84.82,-10.87l0 -0.12c44.11,-21.54 85.76,-46.1 122.93,-75.04 36.91,-28.74 69.94,-62.1 97.27,-101.52 48.87,-70.49 96.67,-142.17 141.63,-216.47 44.61,-73.71 85.78,-148.96 121.36,-226.51 57.18,-124.56 76.51,-243.11 58.23,-354.81 -18.27,-111.72 -74.43,-217.67 -168.2,-317.07 -64.61,-68.41 -130.45,-134.77 -196.27,-201.12 -63.57,-64.07 -127.17,-128.18 -189.28,-193.66 -14.88,-15.68 -29.55,-29.48 -43.96,-41.36 -53.09,-43.75 -104.83,-63.93 -154.83,-61.4 -50.11,2.54 -100.47,28.05 -150.59,75.58 -15.03,14.25 -29.89,30.31 -44.55,48.08 -10.44,12.66 -20.98,25.53 -30.9,38.85l0 0.12c-9.8,13.13 -18.7,26.17 -25.69,38.81l-35.33 63.81c-126.41,227.6 -252.86,455.26 -337.29,702.06l0 0.12c-19.4,56.6 -39.65,113.27 -63.61,169.59 -23.84,56.04 -51.15,110.89 -84.6,163.46l0.09 0.05c-17.58,27.68 -38.46,49.94 -61.35,66.72 -33.55,24.61 -71.37,37.33 -109.8,38.27 -38.28,0.93 -76.75,-9.82 -111.83,-32.11 -25.07,-15.92 -48.46,-37.8 -68.8,-65.54 -9.87,-13.43 -19.36,-27.4 -28.73,-41.58 2.63,20.47 6.18,40.7 10.77,60.65 12.67,55.03 33.41,108 64.74,158.22 31.74,50.9 72.31,88.5 120.01,116.24 48.79,28.38 105.47,46.84 168.12,58.87l55.48 10.66 -37.31 42.32c-34.64,39.28 -66.13,77.29 -95.05,114.91 -28.91,37.49 -55.95,75.63 -81.77,115.33 -64.08,98.39 -120.11,201.06 -170.2,306.75 -50.25,106.01 -94.42,214.8 -134.74,325.23 -63.54,174.17 -119.34,351.41 -170.44,530.43 -51.31,179.76 -97.5,359.83 -141.93,539.94 -7.62,30.78 -12.68,62.01 -15.11,93.52 -2.43,31.5 -2.24,62.87 0.61,93.91 3.85,41.54 14.99,78.57 35.34,108.06 17.98,26.05 43.71,46.71 78.68,59.88 88.49,33.35 173.56,72.51 258.6,111.64 66.41,30.56 132.83,61.12 201.08,88.93 32.23,13.13 66.12,24.3 100.01,35.45 19.47,6.42 39,12.87 58.36,19.72 41.53,14.66 74.64,44.85 93.97,81.88 19.18,36.76 24.87,80.36 11.89,122.41 -13.33,43.28 -34.11,81 -54.87,118.71l-11.3 20.74c-50.58,93.26 -94.16,188.26 -125.7,286.2 -31.45,97.71 -51.29,198.89 -54.61,304.93 -1.46,48.02 0.54,95.79 5.87,143.34 4.62,41.26 11.81,82.34 21.44,123.27 127.96,37.38 259.52,65.97 393.91,84.97 138,19.53 278.98,29.08 422.1,27.84 107.82,-0.88 214.78,-8.13 320.48,-21.2 101.85,-12.6 201.46,-30.49 298.62,-53.18 8.14,-37.62 22.58,-70.41 42.76,-99.86 23.43,-34.19 54.14,-63.32 91.26,-89.94zm268.15 -141.46c-71.39,70.92 -148.69,135.28 -230.55,193.95 -31.39,22.5 -56.91,46.49 -75.62,73.79 -18.31,26.73 -30.56,57.32 -35.94,93.68l-1.51 10.13 -14.7 15.39 -9.37 2.25c-106.91,25.78 -215.46,45.76 -325.27,59.34 -106.88,13.22 -216.22,20.55 -327.8,21.46 -146.77,1.26 -290.85,-8.46 -431.44,-28.35 -144.23,-20.4 -284.93,-51.45 -421.22,-92.23l-17.58 -5.25 -4.51 -17.84c-12.49,-49.4 -21.66,-99.28 -27.3,-149.69 -5.61,-50.08 -7.71,-100.83 -6.14,-152.32l0 -0.12c3.52,-112.49 24.46,-219.5 57.65,-322.59 33.13,-102.85 78.21,-201.37 130.25,-297.31l11.54 -20.98c19.27,-34.98 38.54,-69.96 49.82,-106.6 7.77,-25.16 4.27,-51.45 -7.34,-73.72 -11.99,-22.98 -32.58,-41.74 -58.38,-50.85 -18.86,-6.67 -37.94,-12.96 -56.97,-19.21l-0.12 0c-34.76,-11.44 -69.53,-22.9 -104.05,-36.96 -68.49,-27.9 -136.19,-59.05 -203.86,-90.19 -84.08,-38.69 -168.2,-77.42 -254.32,-109.87 -47.99,-18.08 -83.67,-46.95 -108.96,-83.62 -26.98,-39.09 -41.59,-86.55 -46.43,-138.83 -3.25,-35.33 -3.52,-70.23 -0.88,-104.52 2.68,-34.84 8.34,-69.62 16.88,-104.12 44.92,-182.12 91.42,-363.44 142.44,-542.21 51.23,-179.49 107.47,-358 171.95,-534.73 41.08,-112.51 86.01,-223.2 137,-330.77 51.15,-107.91 108.57,-213.08 174.5,-314.32 26.15,-40.2 54.22,-79.72 84.79,-119.5l0 -0.13c19.95,-25.96 40.67,-51.63 62.33,-77.31 -48.73,-12.93 -93.93,-30.5 -134.89,-54.31 -56.65,-32.94 -104.81,-77.57 -142.46,-137.94 -35.25,-56.5 -58.58,-116.06 -72.82,-177.92 -14.04,-60.98 -19.16,-124.17 -18.22,-188.81l1.36 -93.32 56.43 74.14c18.55,24.37 35.08,49.77 51.52,75.01 13.46,20.68 26.9,41.29 41.68,61.42 15.38,20.96 32.83,37.37 51.39,49.14 24.27,15.43 50.33,22.87 75.76,22.26 25.28,-0.62 50.47,-9.22 73.2,-25.89 16.46,-12.06 31.74,-28.5 44.95,-49.31l0.12 0c31.07,-48.83 56.83,-100.7 79.59,-154.19 22.65,-53.25 42.57,-109.07 61.84,-165.29 86.24,-251.9 214.17,-482.23 342.08,-712.54l35.33 -63.67c9.39,-16.82 19.63,-32.02 30.24,-46.24 10.54,-14.03 21.79,-27.73 32.92,-41.25 16.57,-20.1 33.2,-38.08 49.85,-53.88 61.62,-58.44 125.79,-89.92 191.97,-93.26 66.29,-3.35 132.74,21.63 198.76,76.04 16.74,13.81 33.35,29.37 49.76,46.67 61.83,65.19 125.07,128.94 188.28,192.64 66.56,67.09 133.13,134.19 197.53,202.39 102.73,108.91 164.46,226.18 184.86,350.9 20.37,124.48 -0.63,255.43 -63.29,391.9 -37.14,80.96 -79.34,158.23 -124.64,233.08 -44.95,74.28 -93.7,147.32 -143.89,219.73 -31.26,45.11 -68.82,83.09 -110.65,115.65 -41.58,32.37 -86.94,59.23 -134.29,82.36l-0.05 -0.1c-40.06,19.58 -84.12,24.59 -125.39,16.39 -41.47,-8.23 -80.41,-29.75 -110.04,-63.14 -16.73,-18.87 -32.51,-38.08 -47.88,-57.44l10.25 53.52c40.53,209.31 109.49,398.36 217.15,559.65 107.2,160.62 253.26,294.29 448.47,393.78 16.16,8.22 26.54,18.98 33.76,31.83 6.29,11.21 9.36,22.81 11.77,35.34 12.99,66.63 4.2,129.68 -24.22,183.8 -28.02,53.34 -74.91,97.41 -138.55,127.02 -25.29,11.84 -51.63,21.03 -78.15,30.04l3.97 3.26c54.89,46.33 108.43,92.55 159.04,138.55 51.91,47.2 102.87,95.99 152.35,147.17 79.96,82.77 156.18,168.53 224.51,260.35 68.61,92.19 129.17,190.45 177.42,297.8 72.66,161.75 101.72,320.04 87.81,474.75 -14,155.57 -71.31,306.79 -171.32,453.57 -57.55,84.39 -122.69,161.61 -194.03,232.48z"/>
  <path class="fil9" d="M22676.42 4969.48c8.26,3.23 16,5.83 23.73,8.42 20.54,6.89 41.13,13.81 60.72,26.32 26.47,16.9 45.92,38.43 59.34,63.42 14.03,26.15 21.32,55.8 23.04,87.66 2.63,47.72 -4.21,91.93 -20.55,132.49 -16.29,40.42 -41.96,76.93 -77,109.35 -38.3,35.61 -75.12,68.8 -111.92,101.98l-59.78 53.91c-8.25,7.47 -22.89,21.09 -37.72,34.86l-38.82 36.04 -41.75 -37.49c-15.2,-13.68 -30.18,-27.17 -42,-37.44l-54.42 -46.88c-30.25,-25.99 -60.54,-52.02 -93.53,-81.15 -21.21,-18.76 -41.7,-38.38 -59.37,-60.4 -18.62,-23.2 -34.17,-48.94 -44.35,-78.81 -9.72,-28.41 -16.75,-57.43 -18.93,-87.06 -2.24,-30.44 0.72,-61.38 11.18,-92.63 11.68,-34.8 30.19,-62.68 54.8,-83.94 25.08,-21.67 56.01,-36.07 92.1,-43.6 3.96,-1.25 7.98,-2.84 11.9,-4.25l47.58 -0.39 3.45 0.8c17.94,4.16 35.91,8.98 53.5,16.21 18.81,7.74 36.58,18.01 52.43,32.63 7.81,7.2 15.27,15.02 22.51,22.94 6.4,-7.22 12.95,-14.37 19.83,-21.22l0.13 -0.12c15.78,-15.61 33.54,-26.55 52.33,-34.84 17.22,-7.61 35.43,-12.91 53.71,-17.65l3.76 -0.97 48.48 -0.37 5.62 2.19zm3.29 69.5c-7.13,-2.39 -14.28,-4.79 -20.95,-7.25l-27.77 0.21c-13.81,3.66 -27.44,7.78 -40.14,13.39 -12.26,5.4 -23.55,12.26 -33.02,21.58 -9.35,9.31 -18.18,19.44 -26.91,29.45l-14.03 15.99 -23.47 26.01 -23.97 -25.63c-5.78,-6.18 -10.02,-10.91 -14.28,-15.67 -9.03,-10.09 -18.32,-20.46 -28.77,-30.09 -9.8,-9.04 -21.11,-15.53 -33.24,-20.51 -12.33,-5.07 -26,-8.83 -40.01,-12.15l-28.39 0.23c-3.39,1.24 -6.85,2.42 -10.82,3.2 -25.22,5.27 -46.28,14.91 -62.69,29.08 -15.9,13.73 -28,32.22 -35.88,55.68 -7.48,22.36 -9.56,45 -7.9,67.65 1.72,23.49 7.56,47.26 15.65,70.91 7.52,22.05 19.29,41.43 33.5,59.14 15.16,18.89 33.11,36.05 51.78,52.57 28.62,25.28 60.69,52.82 92.77,80.39l54.68 47.15c15.73,13.67 28.29,24.97 40.91,36.32 9.45,-8.78 19.29,-17.88 34.01,-31.23 20.2,-18.46 40.04,-36.36 59.85,-54.21 37.89,-34.16 75.82,-68.34 111.23,-101.16l0.12 0c27.83,-25.75 48.14,-54.54 60.91,-86.21 12.79,-31.73 18.12,-66.76 16.02,-104.98l0 -0.12c-1.21,-22.57 -6.11,-43.11 -15.47,-60.54 -8.39,-15.63 -20.58,-29.11 -37.13,-39.68 -12.76,-8.15 -29.69,-13.84 -46.58,-19.5z"/>
  <path class="fil10" d="M2404.48 2473.1l-377.25 69.69c16.41,-75.18 24.61,-138.03 24.61,-188.61 0,-325.26 -197.52,-487.93 -592.48,-487.93 -311.62,0 -467.46,112.07 -467.46,336.25 0,168.09 174.28,312.28 522.8,432.52 672.47,231.02 1008.7,572.72 1008.7,1025.09 0,265.19 -94.33,478.04 -282.97,638.63 -188.59,160.62 -439.44,240.92 -752.38,240.92 -692.95,0 -1039.42,-268.56 -1039.42,-805.77 0,-43.67 3.36,-97.66 10.24,-161.9l391.6 -86.1c-30.11,118.9 -45.14,222.12 -45.14,309.54 0,347.17 198.87,520.73 596.61,520.73 318.42,0 477.69,-125.04 477.69,-375.14 0,-185.92 -190.67,-349.23 -572.01,-490.01 -550.8,-202.27 -826.2,-525.52 -826.2,-969.7 0,-251.48 91.88,-454.14 275.72,-607.9 183.82,-153.74 425.44,-230.62 724.76,-230.62 615.06,0 922.57,276.76 922.57,830.32z"/>
  <polygon class="fil10" points="2882.15,4488.38 3694.03,4488.38 3694.03,1689.92 2882.15,1689.92 "/>
  <polygon class="fil10" points="6197.25,1689.94 5385.41,4488.38 4657.62,4488.38 3915.46,1689.94 4735.54,1689.94 5289.09,3809.79 5893.89,1689.94 "/>
  <polygon class="fil10" points="8222.85,1689.94 8222.85,1970.77 7220.29,1970.77 7220.29,2817.5 8062.97,2817.5 8062.97,3098.37 7220.29,3098.37 7220.29,4207.5 8393.01,4207.5 8393.01,4488.38 6408.45,4488.38 6408.45,1689.94 "/>
  <polygon class="fil10" points="11246.87,1689.94 11246.87,4488.38 10463.7,4488.38 10463.7,2540.74 9918.33,4488.38 9465.27,4488.38 8905.58,2573.56 8905.58,4488.38 8632.89,4488.38 8632.89,1689.94 9457.07,1689.94 9936.8,3379.27 10414.48,1689.94 "/>
  <polygon class="fil10" points="14330.33,1689.94 14330.33,4488.38 13547.16,4488.38 13547.16,2540.74 13001.86,4488.38 12548.73,4488.38 11989.02,2573.56 11989.02,4488.38 11716.34,4488.38 11716.34,1689.94 12540.53,1689.94 13020.26,3379.27 13497.99,1689.94 "/>
  <path class="fil10" d="M16642.89 2473.1l-377.22 69.69c16.41,-75.18 24.61,-138.03 24.61,-188.61 0,-325.26 -197.48,-487.93 -592.52,-487.93 -311.58,0 -467.4,112.07 -467.4,336.25 0,168.09 174.24,312.28 522.76,432.52 672.45,231.02 1008.7,572.72 1008.7,1025.09 0,265.19 -94.32,478.04 -282.97,638.63 -188.57,160.62 -439.42,240.92 -752.36,240.92 -692.97,0 -1039.44,-268.56 -1039.44,-805.77 0,-43.67 3.43,-97.66 10.27,-161.9l391.63 -86.1c-30.11,118.9 -45.16,222.12 -45.16,309.54 0,347.17 198.83,520.73 596.59,520.73 318.42,0 477.67,-125.04 477.67,-375.14 0,-185.92 -190.63,-349.23 -571.99,-490.01 -550.85,-202.27 -826.18,-525.52 -826.18,-969.7 0,-251.48 91.93,-454.14 275.72,-607.9 183.8,-153.74 425.41,-230.62 724.7,-230.62 615.08,0 922.58,276.76 922.58,830.32z"/>
  <path class="fil11" d="M493.55 6069.5c0,19.14 -3.25,38.17 -9.74,56.91 -6.54,18.79 -15.66,34.68 -27.37,47.74 -12.87,14.08 -27.81,25.12 -44.91,33.08 -17.14,7.96 -37.7,11.94 -61.81,11.94 -25.86,0 -49.11,-3.35 -69.75,-9.94 -20.62,-6.64 -41.61,-16.39 -62.98,-29.46l0 -82.16 3.37 0c18.15,20.73 39.11,36.75 62.87,47.99 23.8,11.32 46.11,16.93 66.97,16.93 29.56,0 52.57,-7.64 69.02,-22.88 16.49,-15.23 24.7,-35.45 24.7,-60.9 0,-21.92 -3.91,-37.98 -11.7,-48.39 -7.8,-10.34 -19.63,-18.41 -35.52,-24.16 -12.05,-4.39 -25.09,-8 -39.15,-10.94 -14.03,-2.83 -28.94,-6.46 -44.67,-10.91 -31.79,-9.23 -55.39,-25.12 -70.7,-47.54 -15.34,-22.43 -23.02,-51.62 -23.02,-87.6 0,-41.29 12.69,-75.11 38.09,-101.47 25.35,-26.43 57.58,-39.63 96.6,-39.63 25.18,0 48.33,3.35 69.35,9.98 21.04,6.63 39.66,14.78 55.88,24.47l0 77.53 -3.34 0c-13.66,-15.91 -31.63,-29.08 -53.85,-39.62 -22.24,-10.44 -45.04,-15.7 -68.29,-15.7 -25.53,0 -46.05,7.24 -61.55,21.85 -15.49,14.54 -23.24,33.35 -23.24,56.33 0,20.49 3.83,36.64 11.57,48.33 7.68,11.67 21.27,20.67 40.69,26.86 10.26,3.12 24.87,6.8 43.86,11.25 18.95,4.39 34.99,8.94 48.14,13.57 26.67,9.75 46.75,24.36 60.23,44.06 13.51,19.66 20.25,47.18 20.25,82.51z"/>
  <path class="fil11" d="M612.31 6210.22l-45.31 0 0 -369.92 45.31 0 0 369.92zm2.88 -431.89l-51.08 0 0 -64.58 51.08 0 0 64.58z"/>
  <path class="fil11" d="M894.14 6103.62c0,33.71 -10.2,61.51 -30.49,83.08 -20.35,21.71 -48.07,32.47 -83.25,32.47 -19.89,0 -38.16,-3.28 -54.79,-9.75 -16.63,-6.52 -30.57,-13.62 -41.79,-21.44l0 -69.82 2.41 0c14.28,14.77 30.17,26.6 47.69,35.25 17.52,8.74 34.3,13.06 50.36,13.06 19.92,0 35.47,-4.39 46.73,-13.24 11.23,-8.77 16.85,-22.69 16.85,-41.68 0,-14.59 -3.03,-25.63 -9.16,-33.13 -6.09,-7.5 -17.82,-13.95 -35.17,-19.26 -6.4,-1.91 -14.81,-4.27 -25.17,-6.92 -10.35,-2.64 -19.78,-5.45 -28.29,-8.65 -23.59,-8.58 -40.35,-21.17 -50.21,-37.91 -9.87,-16.68 -14.84,-37.09 -14.84,-61.43 0,-15.2 2.32,-29.54 6.88,-43.04 4.57,-13.43 11.5,-25.46 20.82,-36.11 8.98,-10.4 20.44,-18.59 34.34,-24.61 13.89,-6.12 29.42,-9.18 46.63,-9.18 16.04,0 32.32,2.73 48.77,8.16 16.45,5.41 30.14,12.01 41.09,19.7l0 66.53 -2.44 0c-11.55,-11.68 -25.63,-21.57 -42.15,-29.57 -16.56,-8.08 -32.76,-12.14 -48.65,-12.14 -16.54,0 -30.52,4.39 -41.91,13.09 -11.43,8.74 -17.12,21.7 -17.12,38.88 0,15.27 3.48,26.75 10.36,34.44 6.76,7.77 17.68,14.1 32.77,18.86 8.35,2.66 17.7,5.31 28.05,7.95 10.35,2.65 19.01,5.13 25.92,7.36 21.01,6.59 37.27,17.99 48.63,34.14 11.43,16.31 17.14,37.98 17.14,64.92z"/>
  <path class="fil11" d="M1098.64 6206.91c-8.52,3.1 -17.78,5.63 -27.83,7.62 -10.04,2 -18.97,3.03 -26.87,3.03 -27.44,0 -48.33,-10.21 -62.61,-30.5 -14.28,-20.32 -21.46,-52.91 -21.46,-97.73l0 -196.79 -30.6 0 0 -52.24 30.6 0 0 -106.35 45.3 0 0 106.35 93.48 0 0 52.24 -93.48 0 0 168.68c0,19.39 0.3,34.57 0.94,45.56 0.66,10.92 2.9,21.12 6.76,30.55 3.53,8.87 8.38,15.39 14.56,19.39 6.19,4.14 15.62,6.12 28.34,6.12 7.36,0 15.07,-1.48 23.11,-4.45 7.99,-2.97 13.78,-5.44 17.32,-7.47l2.44 0 0 56z"/>
  <path class="fil11" d="M1334.46 5983.98c-0.18,-32.64 -6.14,-57.88 -17.97,-75.85 -11.79,-17.85 -29.74,-26.82 -53.8,-26.82 -24.28,0 -43.58,9.87 -57.93,29.45 -14.42,19.73 -22.54,44.07 -24.47,73.22l154.17 0zm44.08 47.73l-198.25 0c0,22.72 2.48,42.56 7.47,59.45 4.95,16.9 11.81,30.73 20.47,41.57 8.33,10.6 18.27,18.56 29.76,23.87 11.48,5.29 24.11,7.94 37.94,7.94 18.29,0 36.72,-5.06 55.26,-15.07 18.56,-10.01 31.78,-19.96 39.63,-29.65l2.42 0 0 67.9c-15.27,8.79 -30.85,16.2 -46.77,22.16 -15.9,5.93 -32.58,8.99 -50.08,8.99 -44.61,0 -79.46,-16.68 -104.53,-49.83 -25.03,-33.27 -37.59,-80.5 -37.59,-141.66 0,-60.47 12.01,-108.55 36.02,-144.07 24,-35.52 55.61,-53.38 94.8,-53.38 36.26,0 64.27,14.61 83.92,43.76 19.69,29.12 29.52,70.55 29.52,124.22l0 33.79z"/>
  <path class="fil11" d="M1839.81 6210.22l-45.29 0 0 -210.69c0,-15.87 -0.51,-31.19 -1.57,-45.98 -1.03,-14.81 -3.22,-26.62 -6.61,-35.42 -3.68,-9.55 -8.97,-16.66 -15.9,-21.55 -6.9,-4.81 -16.88,-7.3 -29.87,-7.3 -12.67,0 -25.4,4.39 -38.08,13.09 -12.66,8.74 -25.33,19.83 -38.02,33.29 0.48,5.1 0.88,10.99 1.17,17.76 0.33,6.73 0.49,13.39 0.49,19.96l0 236.84 -45.25 0 0 -210.69c0,-16.28 -0.56,-31.84 -1.59,-46.44 -1.04,-14.74 -3.26,-26.41 -6.65,-35.34 -3.68,-9.5 -8.97,-16.6 -15.9,-21.3 -6.88,-4.72 -16.84,-7.18 -29.84,-7.18 -12.37,0 -24.79,4.25 -37.24,12.6 -12.43,8.45 -24.85,19.1 -37.2,32.17l0 276.18 -45.27 0 0 -369.92 45.27 0 0 41.02c14.11,-16.09 28.23,-28.69 42.29,-37.8 14.03,-8.99 29.01,-13.58 44.9,-13.58 18.3,0 33.84,5.38 46.6,15.99 12.76,10.58 22.3,25.24 28.55,43.99 18.34,-21.21 35.02,-36.44 50.13,-45.86 15.06,-9.32 31.21,-14.11 48.4,-14.11 29.56,0 51.33,12.34 65.42,37.02 14.02,24.63 21.05,59 21.05,103.12l0 240.13z"/>
  <path class="fil11" d="M2091.05 6119.11l0 -102.99c-13.83,1.12 -30.05,2.78 -48.79,4.99 -18.68,2.26 -33.49,5.38 -44.42,9.62 -13.02,5.06 -23.51,12.93 -31.57,23.66 -8.02,10.72 -12.02,25.51 -12.02,44.22 0,21.21 4.66,37.16 13.96,47.87 9.32,10.68 23.51,16.05 42.63,16.05 15.9,0 30.46,-4.2 43.61,-12.73 13.16,-8.53 25.38,-18.73 36.6,-30.69zm45.05 91.11l-45.05 0 0 -39.42c-4.01,3.74 -9.43,9.03 -16.24,15.77 -6.85,6.76 -13.48,12.05 -19.87,16.02 -7.57,5.1 -16.24,9.36 -26,12.77 -9.84,3.45 -21.3,5.13 -34.45,5.13 -24.28,0 -44.82,-11 -61.67,-33.09 -16.88,-22.1 -25.33,-50.28 -25.33,-84.51 0,-27.97 4.39,-50.69 13.13,-68.09 8.77,-17.23 21.28,-30.92 37.47,-40.81 16.38,-10 36.07,-16.67 59.03,-20.22 22.97,-3.56 47.59,-6.21 73.93,-7.95l0 -9.61c0,-14.08 -1.77,-25.84 -5.42,-35.08 -3.6,-9.3 -8.75,-16.61 -15.51,-21.9 -6.44,-5.04 -14.13,-8.47 -23.12,-10.22 -9.03,-1.79 -18.39,-2.66 -28.22,-2.66 -11.87,0 -25.12,2.16 -39.73,6.41 -14.62,4.32 -29.71,10.53 -45.27,18.73l-2.42 0 0 -63.25c8.82,-3.35 21.63,-6.97 38.31,-10.92 16.7,-3.99 33.18,-6.01 49.37,-6.01 18.93,0 35.47,2.14 49.5,6.55 14.04,4.26 26.2,11.55 36.51,21.95 10.11,10.22 17.82,23.31 23.11,39.41 5.29,16.15 7.94,36.11 7.94,59.94l0 251.06z"/>
  <path class="fil11" d="M2569.72 6119.11l0 -212.28c-12.21,-7.48 -23.14,-12.65 -32.78,-15.56 -9.65,-2.87 -20.16,-4.34 -31.55,-4.34 -25.39,0 -45.15,12.21 -59.28,36.51 -14.14,24.29 -21.19,58.73 -21.19,103.28 0,43.95 5.43,77.41 16.36,100.23 10.94,22.85 28.45,34.24 52.52,34.24 12.84,0 25.86,-3.89 39.01,-11.72 13.2,-7.82 25.47,-17.94 36.9,-30.36zm45.25 91.11l-45.25 0 0 -38.71c-13.05,15.46 -26.61,27.45 -40.72,36.05 -14.14,8.67 -29.49,12.93 -46,12.93 -32.16,0 -57.61,-16.94 -76.49,-51.05 -18.88,-33.92 -28.29,-81.09 -28.29,-141.34 0,-31.35 3.22,-59.32 9.74,-83.85 6.53,-24.49 15.29,-45.36 26.38,-62.61 10.89,-16.74 23.63,-29.58 38.19,-38.37 14.53,-8.86 29.56,-13.33 45.13,-13.33 14.15,0 26.68,2.14 37.63,6.17 10.89,4.1 22.38,10.44 34.44,19.05l0 -160.29 45.25 0 0 515.35z"/>
  <path class="fil11" d="M2885.24 5983.98c-0.16,-32.64 -6.12,-57.88 -17.94,-75.85 -11.8,-17.85 -29.76,-26.82 -53.83,-26.82 -24.25,0 -43.55,9.87 -57.94,29.45 -14.38,19.73 -22.5,44.07 -24.45,73.22l154.17 0zm44.1 47.73l-198.27 0c0,22.72 2.51,42.56 7.49,59.45 4.95,16.9 11.79,30.73 20.47,41.57 8.33,10.6 18.25,18.56 29.75,23.87 11.48,5.29 24.12,7.94 37.95,7.94 18.29,0 36.69,-5.06 55.24,-15.07 18.58,-10.01 31.78,-19.96 39.61,-29.65l2.46 0 0 67.9c-15.27,8.79 -30.85,16.2 -46.77,22.16 -15.9,5.93 -32.58,8.99 -50.08,8.99 -44.62,0 -79.5,-16.68 -104.53,-49.83 -25.05,-33.27 -37.6,-80.5 -37.6,-141.66 0,-60.47 12.02,-108.55 36.01,-144.07 24,-35.52 55.63,-53.38 94.78,-53.38 36.3,0 64.3,14.61 83.96,43.76 19.69,29.12 29.52,70.55 29.52,124.22l0 33.79z"/>
  <polygon class="fil11" points="3457.8,5717.04 3327.23,6210.22 3263.63,6210.22 3133.12,5717.04 3184.13,5717.04 3296.66,6150.92 3409.14,5717.04 "/>
  <path class="fil11" d="M3554.42 6210.22l-45.29 0 0 -369.92 45.29 0 0 369.92zm2.89 -431.89l-51.09 0 0 -64.58 51.09 0 0 64.58z"/>
  <path class="fil11" d="M3816.94 6108.52l0 -201.69c-12.03,-7.48 -23.24,-12.87 -33.63,-16.02 -10.34,-3.22 -20.66,-4.83 -30.92,-4.83 -24.91,0 -44.51,11.49 -58.79,34.4 -14.27,23.02 -21.44,56.37 -21.44,100.08 0,41.48 5.31,73.01 15.9,94.39 10.6,21.45 28.2,32.09 52.77,32.09 13.15,0 26.38,-3.48 39.63,-10.38 13.24,-6.98 25.38,-16.28 36.48,-28.04zm45.27 59.63c0,62.74 -10.35,108.74 -31.06,138.18 -20.74,29.31 -52.6,43.99 -95.62,43.99 -14.32,0 -28.23,-1.36 -41.78,-4.14 -13.61,-2.71 -26.94,-6.72 -40.14,-11.76l0 -63.58 2.44 0c7.38,3.98 19.1,8.87 35.13,14.74 16.06,5.84 32.16,8.79 48.21,8.79 15.4,0 28.16,-2.58 38.29,-7.62 10.11,-5.11 17.99,-12.21 23.58,-21.17 5.63,-8.7 9.68,-19.02 12.07,-31.22 2.4,-12.09 3.61,-25.64 3.61,-40.71l0 -33.79c-13.64,15 -26.7,26.24 -39.13,33.63 -12.46,7.41 -28.31,11.09 -47.57,11.09 -32.13,0 -57.64,-15.95 -76.5,-47.87 -18.86,-31.86 -28.27,-76.82 -28.27,-134.96 0,-31.77 3.22,-59.22 9.73,-82.29 6.48,-23.05 15.39,-42.99 26.62,-59.76 10.46,-15.69 23.13,-27.91 38.04,-36.56 14.96,-8.78 29.83,-13.2 44.59,-13.2 15.57,0 28.59,2.19 39.13,6.54 10.51,4.26 21.67,10.86 33.37,19.72l2.88 -15.9 42.39 0 0 327.85z"/>
  <path class="fil11" d="M3997.15 6210.22l-45.32 0 0 -369.92 45.32 0 0 369.92zm2.83 -431.89l-51.03 0 0 -64.58 51.03 0 0 64.58z"/>
  <polygon class="fil11" points="4087.21,6210.22 4132.53,6210.22 4132.53,5694.87 4087.21,5694.87 "/>
  <path class="fil11" d="M4386.15 6119.11l0 -102.99c-13.83,1.12 -30.07,2.78 -48.76,4.99 -18.7,2.26 -33.55,5.38 -44.44,9.62 -13.02,5.06 -23.55,12.93 -31.58,23.66 -8.02,10.72 -12.01,25.51 -12.01,44.22 0,21.21 4.62,37.16 13.96,47.87 9.32,10.68 23.49,16.05 42.63,16.05 15.9,0 30.41,-4.2 43.58,-12.73 13.19,-8.53 25.4,-18.73 36.62,-30.69zm45.06 91.11l-45.06 0 0 -39.42c-4.01,3.74 -9.43,9.03 -16.24,15.77 -6.84,6.76 -13.48,12.05 -19.85,16.02 -7.58,5.1 -16.25,9.36 -26.05,12.77 -9.78,3.45 -21.3,5.13 -34.45,5.13 -24.25,0 -44.79,-11 -61.67,-33.09 -16.84,-22.1 -25.29,-50.28 -25.29,-84.51 0,-27.97 4.39,-50.69 13.13,-68.09 8.75,-17.23 21.28,-30.92 37.46,-40.81 16.39,-10 36.08,-16.67 59.04,-20.22 22.96,-3.56 47.59,-6.21 73.92,-7.95l0 -9.61c0,-14.08 -1.8,-25.84 -5.41,-35.08 -3.61,-9.3 -8.77,-16.61 -15.51,-21.9 -6.45,-5.04 -14.14,-8.47 -23.15,-10.22 -9,-1.79 -18.36,-2.66 -28.18,-2.66 -11.88,0 -25.14,2.16 -39.75,6.41 -14.59,4.32 -29.7,10.53 -45.27,18.73l-2.42 0 0 -63.25c8.83,-3.35 21.61,-6.97 38.28,-10.92 16.73,-3.99 33.18,-6.01 49.42,-6.01 18.92,0 35.46,2.14 49.48,6.55 14.05,4.26 26.22,11.55 36.5,21.95 10.14,10.22 17.83,23.31 23.12,39.41 5.31,16.15 7.95,36.11 7.95,59.94l0 251.06z"/>
  <path class="fil11" d="M4743.36 6210.22l-45.28 0 0 -210.69c0,-16.9 -0.71,-32.89 -2.14,-47.8 -1.47,-14.93 -4.13,-26.55 -7.95,-34.95 -4.05,-9.24 -9.82,-16.19 -17.36,-20.66 -7.52,-4.53 -17.33,-6.85 -29.4,-6.85 -12.36,0 -25.28,4.25 -38.75,12.6 -13.51,8.45 -26.46,19.1 -38.82,32.17l0 276.18 -45.25 0 0 -369.92 45.25 0 0 41.02c14.13,-16.09 28.76,-28.69 43.85,-37.8 15.13,-8.99 30.61,-13.58 46.48,-13.58 29.08,0 51.23,12.08 66.51,36.1 15.23,24.1 22.87,58.81 22.87,104.04l0 240.13z"/>
  <path class="fil11" d="M5029.5 6187.06c-15.05,9.91 -29.38,17.66 -42.98,23.15 -13.57,5.55 -27.98,8.26 -43.22,8.26 -19.46,0 -37.28,-3.86 -53.51,-11.68 -16.18,-7.88 -30.07,-19.73 -41.66,-35.62 -11.72,-15.87 -20.78,-36.03 -27.22,-60.32 -6.37,-24.28 -9.61,-52.65 -9.61,-85.07 0,-60.54 12.08,-108.03 36.24,-142.46 24.17,-34.5 56.11,-51.67 95.77,-51.67 15.39,0 30.53,3.02 45.4,8.97 14.84,5.93 28.48,13.25 40.79,21.83l0 69.25 -2.38 0c-13.83,-14.79 -28.07,-26.22 -42.74,-34.17 -14.7,-7.95 -29.05,-11.89 -43.02,-11.89 -25.69,0 -45.96,11.83 -60.82,35.65 -14.87,23.72 -22.28,58.54 -22.28,104.48 0,44.57 7.27,78.81 21.81,102.84 14.52,23.97 34.94,35.93 61.29,35.93 9.18,0 18.46,-1.7 27.93,-4.97 9.52,-3.39 18.01,-7.65 25.56,-12.93 6.56,-4.59 12.74,-9.57 18.58,-14.73 5.75,-5.22 10.33,-9.64 13.69,-13.47l2.38 0 0 68.62z"/>
  <path class="fil11" d="M5133.4 6210.22l-45.35 0 0 -369.92 45.35 0 0 369.92zm2.83 -431.89l-51.04 0 0 -64.58 51.04 0 0 64.58z"/>
  <path class="fil11" d="M5387.02 6119.11l0 -102.99c-13.83,1.12 -30.04,2.78 -48.77,4.99 -18.73,2.26 -33.53,5.38 -44.44,9.62 -13.06,5.06 -23.53,12.93 -31.61,23.66 -8,10.72 -12.01,25.51 -12.01,44.22 0,21.21 4.65,37.16 14.03,47.87 9.3,10.68 23.43,16.05 42.57,16.05 15.89,0 30.42,-4.2 43.61,-12.73 13.18,-8.53 25.38,-18.73 36.62,-30.69zm45.02 91.11l-45.02 0 0 -39.42c-4.01,3.74 -9.43,9.03 -16.28,15.77 -6.85,6.76 -13.44,12.05 -19.83,16.02 -7.57,5.1 -16.28,9.36 -26.04,12.77 -9.82,3.45 -21.32,5.13 -34.43,5.13 -24.28,0 -44.82,-11 -61.69,-33.09 -16.87,-22.1 -25.26,-50.28 -25.26,-84.51 0,-27.97 4.32,-50.69 13.11,-68.09 8.72,-17.23 21.24,-30.92 37.47,-40.81 16.33,-10 36.03,-16.67 58.98,-20.22 22.99,-3.56 47.6,-6.21 73.96,-7.95l0 -9.61c0,-14.08 -1.81,-25.84 -5.42,-35.08 -3.62,-9.3 -8.79,-16.61 -15.51,-21.9 -6.46,-5.04 -14.14,-8.47 -23.12,-10.22 -9.05,-1.79 -18.4,-2.66 -28.22,-2.66 -11.91,0 -25.14,2.16 -39.74,6.41 -14.59,4.32 -29.72,10.53 -45.28,18.73l-2.41 0 0 -63.25c8.8,-3.35 21.59,-6.97 38.32,-10.92 16.68,-3.99 33.15,-6.01 49.37,-6.01 18.91,0 35.45,2.14 49.48,6.55 14.08,4.26 26.22,11.55 36.49,21.95 10.16,10.22 17.84,23.31 23.13,39.41 5.29,16.15 7.94,36.11 7.94,59.94l0 251.06z"/>
  <polygon class="fil11" points="5932.58,6210.22 5696.28,6210.22 5696.28,5717.04 5932.58,5717.04 5932.58,5775.36 5743.95,5775.36 5743.95,5910.53 5932.58,5910.53 5932.58,5968.78 5743.95,5968.78 5743.95,6151.93 5932.58,6151.93 "/>
  <path class="fil11" d="M6194.67 6022.42c0,-44.52 -5.55,-77.94 -16.59,-100 -11.11,-22.13 -28.16,-33.15 -51.11,-33.15 -12.98,0 -26.09,3.86 -39.27,11.61 -13.17,7.69 -25.76,17.88 -37.79,30.51l0 209.62c12.86,7.97 23.9,13.39 33.08,16.21 9.23,2.93 19.76,4.26 31.46,4.26 25.19,0 44.9,-11.6 59.03,-35.06 14.08,-23.37 21.19,-58.03 21.19,-104zm46.72 -1.63c0,30 -3.1,57.44 -9.43,82.3 -6.21,24.88 -15.05,45.89 -26.48,63.12 -10.6,16.34 -23.07,28.93 -37.42,37.92 -14.41,8.9 -29.59,13.43 -45.67,13.43 -13.95,0 -26.62,-2.2 -37.93,-6.3 -11.3,-4.23 -22.87,-10.74 -34.55,-19.6l0 155.05 -45.28 0 0 -506.41 45.28 0 0 38.69c12.02,-13.9 25.58,-25.52 40.57,-34.94 15,-9.32 31.07,-14.11 48.06,-14.11 32.43,0 57.69,16.88 75.78,50.59 18.03,33.68 27.07,80.43 27.07,140.25z"/>
  <path class="fil11" d="M6357.74 6210.22l-45.29 0 0 -369.92 45.29 0 0 369.92zm2.9 -431.89l-51.09 0 0 -64.58 51.09 0 0 64.58z"/>
  <path class="fil11" d="M6620.34 6119.11l0 -212.28c-12.21,-7.48 -23.12,-12.65 -32.81,-15.56 -9.64,-2.87 -20.17,-4.34 -31.54,-4.34 -25.38,0 -45.16,12.21 -59.24,36.51 -14.14,24.29 -21.19,58.73 -21.19,103.28 0,43.95 5.43,77.41 16.35,100.23 10.91,22.85 28.42,34.24 52.52,34.24 12.86,0 25.84,-3.89 39.02,-11.72 13.17,-7.82 25.46,-17.94 36.88,-30.36zm45.22 91.11l-45.22 0 0 -38.71c-13.05,15.46 -26.62,27.45 -40.76,36.05 -14.08,8.67 -29.46,12.93 -45.99,12.93 -32.11,0 -57.63,-16.94 -76.49,-51.05 -18.86,-33.92 -28.29,-81.09 -28.29,-141.34 0,-31.35 3.29,-59.32 9.76,-83.85 6.52,-24.49 15.31,-45.36 26.36,-62.61 10.91,-16.74 23.71,-29.58 38.24,-38.37 14.47,-8.86 29.53,-13.33 45.09,-13.33 14.16,0 26.68,2.14 37.67,6.17 10.84,4.1 22.34,10.44 34.42,19.05l0 -160.29 45.22 0 0 515.35z"/>
  <path class="fil11" d="M6935.86 5983.98c-0.12,-32.64 -6.15,-57.88 -17.95,-75.85 -11.77,-17.85 -29.72,-26.82 -53.82,-26.82 -24.23,0 -43.53,9.87 -57.94,29.45 -14.34,19.73 -22.48,44.07 -24.43,73.22l154.15 0zm44.12 47.73l-198.27 0c0,22.72 2.46,42.56 7.43,59.45 4.99,16.9 11.84,30.73 20.47,41.57 8.34,10.6 18.3,18.56 29.8,23.87 11.5,5.29 24.07,7.94 37.9,7.94 18.3,0 36.78,-5.06 55.31,-15.07 18.55,-10.01 31.71,-19.96 39.6,-29.65l2.46 0 0 67.9c-15.3,8.79 -30.87,16.2 -46.77,22.16 -15.9,5.93 -32.56,8.99 -50.06,8.99 -44.65,0 -79.54,-16.68 -104.6,-49.83 -25,-33.27 -37.6,-80.5 -37.6,-141.66 0,-60.47 12.01,-108.55 36.06,-144.07 24.02,-35.52 55.61,-53.38 94.76,-53.38 36.3,0 64.27,14.61 83.98,43.76 19.63,29.12 29.52,70.55 29.52,124.22l0 33.79z"/>
  <path class="fil11" d="M7441.23 6210.22l-45.28 0 0 -210.69c0,-15.87 -0.52,-31.19 -1.54,-45.98 -1.05,-14.81 -3.3,-26.62 -6.67,-35.42 -3.68,-9.55 -8.97,-16.66 -15.87,-21.55 -6.92,-4.81 -16.86,-7.3 -29.85,-7.3 -12.72,0 -25.4,4.39 -38.12,13.09 -12.65,8.74 -25.33,19.83 -38.05,33.29 0.53,5.1 0.91,10.99 1.24,17.76 0.31,6.73 0.44,13.39 0.44,19.96l0 236.84 -45.22 0 0 -210.69c0,-16.28 -0.58,-31.84 -1.61,-46.44 -1.04,-14.74 -3.24,-26.41 -6.59,-35.34 -3.68,-9.5 -9.04,-16.6 -15.9,-21.3 -6.92,-4.72 -16.93,-7.18 -29.9,-7.18 -12.35,0 -24.76,4.25 -37.21,12.6 -12.41,8.45 -24.89,19.1 -37.2,32.17l0 276.18 -45.29 0 0 -369.92 45.29 0 0 41.02c14.13,-16.09 28.21,-28.69 42.3,-37.8 14.02,-8.99 29,-13.58 44.89,-13.58 18.28,0 33.86,5.38 46.6,15.99 12.78,10.58 22.28,25.24 28.55,43.99 18.34,-21.21 35.01,-36.44 50.11,-45.86 15.06,-9.32 31.21,-14.11 48.4,-14.11 29.53,0 51.36,12.34 65.44,37.02 14.03,24.63 21.05,59 21.05,103.12l0 240.13z"/>
  <path class="fil11" d="M7574.19 6210.22l-45.28 0 0 -369.92 45.28 0 0 369.92zm2.9 -431.89l-51.09 0 0 -64.58 51.09 0 0 64.58z"/>
  <path class="fil11" d="M7846.35 6025.44c0,-47.94 -6.77,-83.51 -20.47,-106.79 -13.64,-23.37 -32.63,-34.96 -56.85,-34.96 -24.54,0 -43.61,11.59 -57.18,34.96 -13.57,23.28 -20.34,58.85 -20.34,106.79 0,46.39 6.77,81.55 20.47,105.49 13.64,23.97 32.69,35.87 57.05,35.87 24.09,0 43.03,-11.81 56.73,-35.54 13.75,-23.77 20.6,-59.04 20.6,-105.81zm46.78 0c0,60.27 -11.25,107.88 -33.79,142.71 -22.42,34.96 -52.58,52.34 -90.32,52.34 -38.06,0 -68.29,-17.37 -90.63,-52.34 -22.41,-34.83 -33.66,-82.44 -33.66,-142.71 0,-60.34 11.25,-107.94 33.66,-142.95 22.34,-34.95 52.57,-52.55 90.63,-52.55 37.73,0 67.89,17.6 90.32,52.55 22.54,35 33.79,82.61 33.79,142.95z"/>
  <polygon class="fil11" points="7963.68,6210.22 8008.95,6210.22 8008.95,5694.87 7963.68,5694.87 "/>
  <path class="fil11" d="M8278.8 5655.09l-65.75 123.9 -35.93 0 43.09 -123.9 58.6 0zm2.41 370.34c0,-47.94 -6.85,-83.51 -20.49,-106.79 -13.7,-23.37 -32.62,-34.96 -56.84,-34.96 -24.56,0 -43.68,11.59 -57.25,34.96 -13.57,23.28 -20.34,58.85 -20.34,106.79 0,46.39 6.85,81.55 20.47,105.49 13.69,23.97 32.69,35.87 57.12,35.87 24.02,0 42.96,-11.81 56.71,-35.54 13.7,-23.77 20.63,-59.04 20.63,-105.81zm46.69 0c0,60.27 -11.24,107.88 -33.71,142.71 -22.49,34.96 -52.59,52.34 -90.32,52.34 -38.05,0 -68.29,-17.37 -90.7,-52.34 -22.41,-34.83 -33.61,-82.44 -33.61,-142.71 0,-60.34 11.2,-107.94 33.61,-142.95 22.41,-34.95 52.65,-52.55 90.7,-52.55 37.72,0 67.82,17.6 90.32,52.55 22.47,35 33.71,82.61 33.71,142.95z"/>
  <path class="fil11" d="M8570.99 6108.52l0 -201.69c-12.08,-7.48 -23.26,-12.87 -33.66,-16.02 -10.33,-3.22 -20.68,-4.83 -30.94,-4.83 -24.87,0 -44.44,11.49 -58.79,34.4 -14.28,23.02 -21.44,56.37 -21.44,100.08 0,41.48 5.29,73.01 15.9,94.39 10.58,21.45 28.22,32.09 52.77,32.09 13.18,0 26.43,-3.48 39.67,-10.38 13.23,-6.98 25.38,-16.28 36.49,-28.04zm45.23 59.63c0,62.74 -10.34,108.74 -31.08,138.18 -20.74,29.31 -52.59,43.99 -95.61,43.99 -14.28,0 -28.23,-1.36 -41.8,-4.14 -13.57,-2.71 -26.94,-6.72 -40.12,-11.76l0 -63.58 2.45 0c7.38,3.98 19.07,8.87 35.17,14.74 16.01,5.84 32.1,8.79 48.18,8.79 15.39,0 28.17,-2.58 38.32,-7.62 10.08,-5.11 17.95,-12.21 23.58,-21.17 5.62,-8.7 9.64,-19.02 12.01,-31.22 2.46,-12.09 3.68,-25.64 3.68,-40.71l0 -33.79c-13.69,15 -26.73,26.24 -39.15,33.63 -12.47,7.41 -28.34,11.09 -47.61,11.09 -32.1,0 -57.61,-15.95 -76.49,-47.87 -18.86,-31.86 -28.29,-76.82 -28.29,-134.96 0,-31.77 3.24,-59.22 9.77,-82.29 6.52,-23.05 15.38,-42.99 26.6,-59.76 10.48,-15.69 23.13,-27.91 38.06,-36.56 14.92,-8.78 29.79,-13.2 44.57,-13.2 15.59,0 28.62,2.19 39.15,6.54 10.53,4.26 21.65,10.86 33.4,19.72l2.83 -15.9 42.39 0 0 327.85z"/>
  <path class="fil11" d="M8751.16 6210.22l-45.34 0 0 -369.92 45.34 0 0 369.92zm2.84 -431.89l-51.04 0 0 -64.58 51.04 0 0 64.58z"/>
  <path class="fil11" d="M9039.68 6187.06c-15.05,9.91 -29.45,17.66 -43.02,23.15 -13.56,5.55 -27.98,8.26 -43.21,8.26 -19.45,0 -37.29,-3.86 -53.5,-11.68 -16.22,-7.88 -30.05,-19.73 -41.67,-35.62 -11.68,-15.87 -20.74,-36.03 -27.2,-60.32 -6.38,-24.28 -9.62,-52.65 -9.62,-85.07 0,-60.54 12.08,-108.03 36.24,-142.46 24.17,-34.5 56.09,-51.67 95.76,-51.67 15.44,0 30.55,3.02 45.41,8.97 14.86,5.93 28.48,13.25 40.81,21.83l0 69.25 -2.38 0c-13.83,-14.79 -28.11,-26.22 -42.78,-34.17 -14.66,-7.95 -29.06,-11.89 -43.02,-11.89 -25.65,0 -45.92,11.83 -60.8,35.65 -14.85,23.72 -22.28,58.54 -22.28,104.48 0,44.57 7.23,78.81 21.77,102.84 14.6,23.97 34.94,35.93 61.31,35.93 9.18,0 18.49,-1.7 27.97,-4.97 9.5,-3.39 17.97,-7.65 25.53,-12.93 6.59,-4.59 12.78,-9.57 18.53,-14.73 5.82,-5.22 10.4,-9.64 13.77,-13.47l2.38 0 0 68.62z"/>
  <path class="fil11" d="M9261.79 6119.11l0 -102.99c-13.83,1.12 -30.06,2.78 -48.79,4.99 -18.73,2.26 -33.53,5.38 -44.44,9.62 -13.04,5.06 -23.51,12.93 -31.59,23.66 -8,10.72 -12.01,25.51 -12.01,44.22 0,21.21 4.65,37.16 14.01,47.87 9.3,10.68 23.45,16.05 42.57,16.05 15.9,0 30.43,-4.2 43.61,-12.73 13.18,-8.53 25.4,-18.73 36.64,-30.69zm45.02 91.11l-45.02 0 0 -39.42c-4.02,3.74 -9.43,9.03 -16.28,15.77 -6.85,6.76 -13.44,12.05 -19.83,16.02 -7.57,5.1 -16.28,9.36 -26.04,12.77 -9.82,3.45 -21.32,5.13 -34.43,5.13 -24.3,0 -44.84,-11 -61.7,-33.09 -16.86,-22.1 -25.27,-50.28 -25.27,-84.51 0,-27.97 4.34,-50.69 13.11,-68.09 8.74,-17.23 21.26,-30.92 37.48,-40.81 16.33,-10 36.04,-16.67 58.97,-20.22 22.99,-3.56 47.6,-6.21 73.98,-7.95l0 -9.61c0,-14.08 -1.81,-25.84 -5.44,-35.08 -3.61,-9.3 -8.77,-16.61 -15.49,-21.9 -6.46,-5.04 -14.16,-8.47 -23.13,-10.22 -9.04,-1.79 -18.41,-2.66 -28.23,-2.66 -11.89,0 -25.12,2.16 -39.72,6.41 -14.61,4.32 -29.72,10.53 -45.28,18.73l-2.41 0 0 -63.25c8.79,-3.35 21.57,-6.97 38.32,-10.92 16.66,-3.99 33.15,-6.01 49.35,-6.01 18.93,0 35.47,2.14 49.5,6.55 14.08,4.26 26.22,11.55 36.49,21.95 10.14,10.22 17.82,23.31 23.13,39.41 5.29,16.15 7.94,36.11 7.94,59.94l0 251.06z"/>
  <path class="fil11" d="M9740.42 6119.11l0 -212.28c-12.21,-7.48 -23.12,-12.65 -32.76,-15.56 -9.61,-2.87 -20.15,-4.34 -31.59,-4.34 -25.38,0 -45.09,12.21 -59.24,36.51 -14.14,24.29 -21.19,58.73 -21.19,103.28 0,43.95 5.43,77.41 16.34,100.23 10.99,22.85 28.5,34.24 52.53,34.24 12.85,0 25.91,-3.89 39.02,-11.72 13.16,-7.82 25.45,-17.94 36.88,-30.36zm45.29 91.11l-45.29 0 0 -38.71c-13.05,15.46 -26.6,27.45 -40.69,36.05 -14.15,8.67 -29.46,12.93 -45.99,12.93 -32.18,0 -57.63,-16.94 -76.49,-51.05 -18.86,-33.92 -28.29,-81.09 -28.29,-141.34 0,-31.35 3.22,-59.32 9.74,-83.85 6.46,-24.49 15.25,-45.36 26.37,-62.61 10.92,-16.74 23.64,-29.58 38.18,-38.37 14.53,-8.86 29.58,-13.33 45.16,-13.33 14.14,0 26.61,2.14 37.6,6.17 10.91,4.1 22.41,10.44 34.42,19.05l0 -160.29 45.29 0 0 515.35z"/>
  <path class="fil11" d="M10055.94 5983.98c-0.12,-32.64 -6.08,-57.88 -17.9,-75.85 -11.82,-17.85 -29.78,-26.82 -53.8,-26.82 -24.3,0 -43.61,9.87 -57.96,29.45 -14.39,19.73 -22.54,44.07 -24.48,73.22l154.15 0zm44.12 47.73l-198.27 0c0,22.72 2.53,42.56 7.5,59.45 4.97,16.9 11.77,30.73 20.47,41.57 8.34,10.6 18.23,18.56 29.72,23.87 11.5,5.29 24.15,7.94 37.98,7.94 18.28,0 36.71,-5.06 55.23,-15.07 18.56,-10.01 31.79,-19.96 39.61,-29.65l2.46 0 0 67.9c-15.25,8.79 -30.87,16.2 -46.77,22.16 -15.9,5.93 -32.57,8.99 -50.07,8.99 -44.64,0 -79.53,-16.68 -104.53,-49.83 -25.06,-33.27 -37.59,-80.5 -37.59,-141.66 0,-60.47 12.01,-108.55 35.98,-144.07 24.03,-35.52 55.62,-53.38 94.82,-53.38 36.25,0 64.3,14.61 83.93,43.76 19.7,29.12 29.52,70.55 29.52,124.22l0 33.79z"/>
  <polygon class="fil11" points="10665.19,6210.22 10617.46,6210.22 10617.46,5785.25 10517.78,6074.48 10489.36,6074.48 10390.3,5785.25 10390.3,6210.22 10345.74,6210.22 10345.74,5717.04 10410.8,5717.04 10506.47,5991.6 10598.92,5717.04 10665.19,5717.04 "/>
  <path class="fil11" d="M10940.46 6025.44c0,-47.94 -6.77,-83.51 -20.47,-106.79 -13.64,-23.37 -32.63,-34.96 -56.85,-34.96 -24.54,0 -43.61,11.59 -57.18,34.96 -13.57,23.28 -20.34,58.85 -20.34,106.79 0,46.39 6.77,81.55 20.47,105.49 13.64,23.97 32.69,35.87 57.05,35.87 24.09,0 43.03,-11.81 56.73,-35.54 13.75,-23.77 20.6,-59.04 20.6,-105.81zm46.77 0c0,60.27 -11.24,107.88 -33.78,142.71 -22.42,34.96 -52.6,52.34 -90.32,52.34 -38.06,0 -68.29,-17.37 -90.63,-52.34 -22.41,-34.83 -33.66,-82.44 -33.66,-142.71 0,-60.34 11.25,-107.94 33.66,-142.95 22.34,-34.95 52.57,-52.55 90.63,-52.55 37.71,0 67.89,17.6 90.32,52.55 22.54,35 33.78,82.61 33.78,142.95z"/>
  <path class="fil11" d="M11225.17 5908.13l-2.41 0c-6.7,-2.2 -13.23,-3.74 -19.58,-4.78 -6.38,-0.99 -13.88,-1.48 -22.54,-1.48 -13.95,0 -27.45,4.26 -40.43,12.78 -13.06,8.46 -25.58,19.53 -37.6,32.94l0 262.63 -45.28 0 0 -369.92 45.28 0 0 54.57c17.95,-19.83 33.79,-33.91 47.54,-42.15 13.77,-8.3 27.78,-12.42 42.07,-12.42 7.81,0 13.56,0.24 17.05,0.77 3.55,0.58 8.84,1.66 15.9,3.15l0 63.91z"/>
  <path class="fil11" d="M11457.93 6024.08c0,-44.11 -5.31,-77.66 -15.97,-100.51 -10.58,-22.87 -27.65,-34.3 -51.3,-34.3 -13.18,0 -26.48,3.94 -39.99,11.74 -13.5,7.89 -25.97,17.97 -37.6,30.38l0 211.94c12.93,7.95 23.92,13.43 33.15,16.54 9.24,3.1 19.71,4.67 31.46,4.67 25.07,0 44.65,-11.39 58.85,-33.91 14.27,-22.69 21.39,-58.24 21.39,-106.55zm46.7 -1.66c0,30.99 -3.16,58.77 -9.48,83.45 -6.41,24.81 -14.93,45.53 -25.73,62.28 -11.35,17.43 -23.89,30.57 -37.52,39.29 -13.69,8.7 -28.69,13.04 -45.1,13.04 -15.24,0 -28.55,-2.47 -39.98,-7.45 -11.38,-4.97 -22.61,-11.62 -33.74,-19.99l-2.83 17.18 -42.37 0 0 -515.35 45.21 0 0 184.13c12.73,-14.28 26.24,-26.11 40.51,-35.27 14.28,-9.12 30.36,-13.78 48.21,-13.78 31.79,0 56.84,16.8 75.26,50.39 18.4,33.55 27.58,80.97 27.58,142.09z"/>
  <path class="fil11" d="M11620.99 6210.22l-45.28 0 0 -369.92 45.28 0 0 369.92zm2.84 -431.89l-51.04 0 0 -64.58 51.04 0 0 64.58z"/>
  <polygon class="fil11" points="11711.04,6210.22 11756.39,6210.22 11756.39,5694.87 11711.04,5694.87 "/>
  <path class="fil11" d="M11891.74 6210.22l-45.29 0 0 -369.92 45.29 0 0 369.92zm2.83 -431.89l-51.03 0 0 -64.58 51.03 0 0 64.58z"/>
  <path class="fil11" d="M12154.26 6119.11l0 -212.28c-12.19,-7.48 -23.12,-12.65 -32.74,-15.56 -9.64,-2.87 -20.17,-4.34 -31.54,-4.34 -25.38,0 -45.16,12.21 -59.29,36.51 -14.16,24.29 -21.2,58.73 -21.2,103.28 0,43.95 5.5,77.41 16.42,100.23 10.91,22.85 28.42,34.24 52.52,34.24 12.78,0 25.84,-3.89 39.02,-11.72 13.17,-7.82 25.46,-17.94 36.81,-30.36zm45.29 91.11l-45.29 0 0 -38.71c-12.98,15.46 -26.53,27.45 -40.69,36.05 -14.15,8.67 -29.46,12.93 -45.99,12.93 -32.18,0 -57.63,-16.94 -76.49,-51.05 -18.86,-33.92 -28.29,-81.09 -28.29,-141.34 0,-31.35 3.22,-59.32 9.76,-83.85 6.46,-24.49 15.31,-45.36 26.36,-62.61 10.91,-16.74 23.63,-29.58 38.17,-38.37 14.54,-8.86 29.6,-13.33 45.16,-13.33 14.16,0 26.68,2.14 37.6,6.17 10.91,4.1 22.41,10.44 34.42,19.05l0 -160.29 45.29 0 0 515.35z"/>
  <path class="fil11" d="M12452.74 6119.11l0 -102.99c-13.83,1.12 -30.05,2.78 -48.78,4.99 -18.67,2.26 -33.53,5.38 -44.45,9.62 -13.03,5.06 -23.51,12.93 -31.59,23.66 -8,10.72 -12.01,25.51 -12.01,44.22 0,21.21 4.65,37.16 14.01,47.87 9.3,10.68 23.46,16.05 42.58,16.05 15.9,0 30.43,-4.2 43.62,-12.73 13.16,-8.53 25.38,-18.73 36.62,-30.69zm45.04 91.11l-45.04 0 0 -39.42c-4.01,3.74 -9.43,9.03 -16.27,15.77 -6.8,6.76 -13.45,12.05 -19.84,16.02 -7.56,5.1 -16.27,9.36 -26.04,12.77 -9.81,3.45 -21.31,5.13 -34.42,5.13 -24.31,0 -44.85,-11 -61.7,-33.09 -16.86,-22.1 -25.28,-50.28 -25.28,-84.51 0,-27.97 4.39,-50.69 13.11,-68.09 8.79,-17.23 21.27,-30.92 37.49,-40.81 16.33,-10 36.03,-16.67 58.96,-20.22 23,-3.56 47.61,-6.21 73.98,-7.95l0 -9.61c0,-14.08 -1.81,-25.84 -5.43,-35.08 -3.61,-9.3 -8.78,-16.61 -15.5,-21.9 -6.46,-5.04 -14.15,-8.47 -23.12,-10.22 -9.04,-1.79 -18.42,-2.66 -28.24,-2.66 -11.88,0 -25.12,2.16 -39.71,6.41 -14.62,4.32 -29.72,10.53 -45.29,18.73l-2.4 0 0 -63.25c8.84,-3.35 21.57,-6.97 38.31,-10.92 16.67,-3.99 33.15,-6.01 49.36,-6.01 18.93,0 35.46,2.14 49.49,6.55 14.08,4.26 26.22,11.55 36.5,21.95 10.14,10.22 17.81,23.31 23.12,39.41 5.29,16.15 7.95,36.11 7.95,59.94l0 251.06z"/>
  <path class="fil11" d="M12757.99 6119.11l0 -212.28c-12.29,-7.48 -23.21,-12.65 -32.84,-15.56 -9.61,-2.87 -20.14,-4.34 -31.59,-4.34 -25.38,0 -45.09,12.21 -59.24,36.51 -14.14,24.29 -21.19,58.73 -21.19,103.28 0,43.95 5.43,77.41 16.35,100.23 10.97,22.85 28.49,34.24 52.57,34.24 12.81,0 25.84,-3.89 38.97,-11.72 13.17,-7.82 25.51,-17.94 36.96,-30.36zm45.21 91.11l-45.21 0 0 -38.71c-13.13,15.46 -26.68,27.45 -40.78,36.05 -14.14,8.67 -29.45,12.93 -45.98,12.93 -32.18,0 -57.63,-16.94 -76.49,-51.05 -18.86,-33.92 -28.29,-81.09 -28.29,-141.34 0,-31.35 3.22,-59.32 9.74,-83.85 6.46,-24.49 15.26,-45.36 26.38,-62.61 10.91,-16.74 23.63,-29.58 38.18,-38.37 14.52,-8.86 29.57,-13.33 45.16,-13.33 14.13,0 26.6,2.14 37.59,6.17 10.91,4.1 22.41,10.44 34.5,19.05l0 -160.29 45.21 0 0 515.35z"/>
  <polygon class="fil11" points="13388.76,6210.22 13341.07,6210.22 13341.07,5785.25 13241.4,6074.48 13212.97,6074.48 13113.94,5785.25 13113.94,6210.22 13069.35,6210.22 13069.35,5717.04 13134.41,5717.04 13230.03,5991.6 13322.54,5717.04 13388.76,5717.04 "/>
  <path class="fil11" d="M13645.6 6119.11l0 -102.99c-13.83,1.12 -30.1,2.78 -48.77,4.99 -18.73,2.26 -33.6,5.38 -44.52,9.62 -12.98,5.06 -23.51,12.93 -31.52,23.66 -8.02,10.72 -12.03,25.51 -12.03,44.22 0,21.21 4.65,37.16 13.96,47.87 9.3,10.68 23.51,16.05 42.65,16.05 15.9,0 30.41,-4.2 43.53,-12.73 13.25,-8.53 25.46,-18.73 36.69,-30.69zm45.04 91.11l-45.04 0 0 -39.42c-4.06,3.74 -9.48,9.03 -16.27,15.77 -6.85,6.76 -13.45,12.05 -19.89,16.02 -7.57,5.1 -16.22,9.36 -25.99,12.77 -9.81,3.45 -21.31,5.13 -34.42,5.13 -24.29,0 -44.83,-11 -61.7,-33.09 -16.86,-22.1 -25.33,-50.28 -25.33,-84.51 0,-27.97 4.39,-50.69 13.11,-68.09 8.79,-17.23 21.26,-30.92 37.47,-40.81 16.43,-10 36.12,-16.67 59.05,-20.22 23,-3.56 47.61,-6.21 73.96,-7.95l0 -9.61c0,-14.08 -1.87,-25.84 -5.41,-35.08 -3.63,-9.3 -8.79,-16.61 -15.52,-21.9 -6.46,-5.04 -14.13,-8.47 -23.18,-10.22 -8.99,-1.79 -18.35,-2.66 -28.17,-2.66 -11.9,0 -25.14,2.16 -39.8,6.41 -14.53,4.32 -29.71,10.53 -45.22,18.73l-2.46 0 0 -63.25c8.85,-3.35 21.65,-6.97 38.32,-10.92 16.73,-3.99 33.2,-6.01 49.42,-6.01 18.92,0 35.4,2.14 49.48,6.55 14.03,4.26 26.17,11.55 36.5,21.95 10.14,10.22 17.83,23.31 23.12,39.41 5.29,16.15 7.95,36.11 7.95,59.94l0 251.06z"/>
  <path class="fil11" d="M13917.53 6206.91c-8.53,3.1 -17.83,5.63 -27.86,7.62 -10.01,2 -18.98,3.03 -26.87,3.03 -27.47,0 -48.32,-10.21 -62.6,-30.5 -14.27,-20.32 -21.45,-52.91 -21.45,-97.73l0 -196.79 -30.56 0 0 -52.24 30.56 0 0 -106.35 45.29 0 0 106.35 93.49 0 0 52.24 -93.49 0 0 168.68c0,19.39 0.33,34.57 0.97,45.56 0.64,10.92 2.92,21.12 6.78,30.55 3.5,8.87 8.4,15.39 14.54,19.39 6.21,4.14 15.56,6.12 28.36,6.12 7.36,0 15.05,-1.48 23.05,-4.45 8.02,-2.97 13.83,-5.44 17.38,-7.47l2.4 0 0 56z"/>
  <path class="fil11" d="M14153.32 5983.98c-0.13,-32.64 -6.14,-57.88 -17.89,-75.85 -11.83,-17.85 -29.79,-26.82 -53.81,-26.82 -24.29,0 -43.61,9.87 -58.01,29.45 -14.35,19.73 -22.47,44.07 -24.41,73.22l154.13 0zm44.12 47.73l-198.25 0c0,22.72 2.51,42.56 7.48,59.45 4.99,16.9 11.76,30.73 20.47,41.57 8.33,10.6 18.22,18.56 29.72,23.87 11.5,5.29 24.15,7.94 37.98,7.94 18.29,0 36.69,-5.06 55.25,-15.07 18.53,-10.01 31.77,-19.96 39.66,-29.65l2.39 0 0 67.9c-15.31,8.79 -30.88,16.2 -46.78,22.16 -15.9,5.93 -32.56,8.99 -50.06,8.99 -44.65,0 -79.53,-16.68 -104.53,-49.83 -25.07,-33.27 -37.59,-80.5 -37.59,-141.66 0,-60.47 12.01,-108.55 35.98,-144.07 24.03,-35.52 55.62,-53.38 94.84,-53.38 36.24,0 64.27,14.61 83.9,43.76 19.66,29.12 29.53,70.55 29.53,124.22l0 33.79z"/>
  <path class="fil11" d="M14433.95 5908.13l-2.4 0c-6.77,-2.2 -13.23,-3.74 -19.63,-4.78 -6.41,-0.99 -13.9,-1.48 -22.56,-1.48 -13.88,0 -27.38,4.26 -40.44,12.78 -13.05,8.46 -25.51,19.53 -37.59,32.94l0 262.63 -45.29 0 0 -369.92 45.29 0 0 54.57c18.02,-19.83 33.84,-33.91 47.61,-42.15 13.75,-8.3 27.7,-12.42 41.99,-12.42 7.87,0 13.57,0.24 17.13,0.77 3.55,0.58 8.84,1.66 15.89,3.15l0 63.91z"/>
  <path class="fil11" d="M14701.59 6210.22l-45.34 0 0 -210.69c0,-16.9 -0.66,-32.89 -2.14,-47.8 -1.42,-14.93 -4.07,-26.55 -7.95,-34.95 -3.99,-9.24 -9.74,-16.19 -17.3,-20.66 -7.57,-4.53 -17.38,-6.85 -29.47,-6.85 -12.34,0 -25.26,4.25 -38.69,12.6 -13.5,8.45 -26.43,19.1 -38.83,32.17l0 276.18 -45.28 0 0 -369.92 45.28 0 0 41.02c14.16,-16.09 28.81,-28.69 43.86,-37.8 15.05,-8.99 30.62,-13.58 46.51,-13.58 29.01,0 51.23,12.08 66.48,36.1 15.17,24.1 22.87,58.81 22.87,104.04l0 240.13z"/>
  <path class="fil11" d="M14952.84 6119.11l0 -102.99c-13.83,1.12 -30.11,2.78 -48.79,4.99 -18.73,2.26 -33.53,5.38 -44.44,9.62 -12.98,5.06 -23.51,12.93 -31.52,23.66 -8.08,10.72 -12.08,25.51 -12.08,44.22 0,21.21 4.65,37.16 14.01,47.87 9.25,10.68 23.45,16.05 42.57,16.05 15.9,0 30.5,-4.2 43.63,-12.73 13.16,-8.53 25.38,-18.73 36.62,-30.69zm45.02 91.11l-45.02 0 0 -39.42c-4.02,3.74 -9.43,9.03 -16.28,15.77 -6.79,6.76 -13.44,12.05 -19.83,16.02 -7.64,5.1 -16.22,9.36 -26.04,12.77 -9.82,3.45 -21.32,5.13 -34.43,5.13 -24.3,0 -44.77,-11 -61.7,-33.09 -16.86,-22.1 -25.33,-50.28 -25.33,-84.51 0,-27.97 4.46,-50.69 13.11,-68.09 8.8,-17.23 21.32,-30.92 37.54,-40.81 16.33,-10 36.04,-16.67 59.04,-20.22 22.92,-3.56 47.53,-6.21 73.91,-7.95l0 -9.61c0,-14.08 -1.81,-25.84 -5.44,-35.08 -3.55,-9.3 -8.77,-16.61 -15.49,-21.9 -6.46,-5.04 -14.16,-8.47 -23.13,-10.22 -9.04,-1.79 -18.41,-2.66 -28.23,-2.66 -11.89,0 -25.12,2.16 -39.72,6.41 -14.61,4.32 -29.72,10.53 -45.23,18.73l-2.51 0 0 -63.25c8.84,-3.35 21.63,-6.97 38.31,-10.92 16.72,-3.99 33.21,-6.01 49.41,-6.01 18.93,0 35.47,2.14 49.55,6.55 13.96,4.26 26.17,11.55 36.44,21.95 10.14,10.22 17.82,23.31 23.13,39.41 5.29,16.15 7.94,36.11 7.94,59.94l0 251.06z"/>
  <path class="fil11" d="M15522.76 6069.5c0,19.14 -3.24,38.17 -9.77,56.91 -6.52,18.79 -15.64,34.68 -27.31,47.74 -12.86,14.08 -27.78,25.12 -44.9,33.08 -17.18,7.96 -37.72,11.94 -61.83,11.94 -25.91,0 -49.09,-3.35 -69.7,-9.94 -20.67,-6.64 -41.67,-16.39 -63.06,-29.46l0 -82.16 3.43 0c18.09,20.73 39.09,36.75 62.86,47.99 23.78,11.32 46.06,16.93 66.99,16.93 29.53,0 52.53,-7.64 69.01,-22.88 16.47,-15.23 24.66,-35.45 24.66,-60.9 0,-21.92 -3.94,-37.98 -11.68,-48.39 -7.82,-10.34 -19.63,-18.41 -35.52,-24.16 -12.01,-4.39 -25.07,-8 -39.15,-10.94 -14.03,-2.83 -28.96,-6.46 -44.65,-10.91 -31.84,-9.23 -55.42,-25.12 -70.74,-47.54 -15.3,-22.43 -23,-51.62 -23,-87.6 0,-41.29 12.73,-75.11 38.05,-101.47 25.41,-26.43 57.64,-39.63 96.59,-39.63 25.27,0 48.33,3.35 69.45,9.98 20.99,6.63 39.59,14.78 55.87,24.47l0 77.53 -3.43 0c-13.62,-15.91 -31.59,-29.08 -53.8,-39.62 -22.3,-10.44 -45.02,-15.7 -68.35,-15.7 -25.46,0 -46,7.24 -61.49,21.85 -15.52,14.54 -23.26,33.35 -23.26,56.33 0,20.49 3.8,36.64 11.62,48.33 7.68,11.67 21.24,20.67 40.64,26.86 10.32,3.12 24.87,6.8 43.85,11.25 18.93,4.39 35.01,8.94 48.12,13.57 26.68,9.75 46.77,24.36 60.29,44.06 13.49,19.66 20.22,47.18 20.22,82.51z"/>
  <path class="fil11" d="M15776.89 5983.98c-0.18,-32.64 -6.13,-57.88 -17.97,-75.85 -11.81,-17.85 -29.7,-26.82 -53.8,-26.82 -24.23,0 -43.55,9.87 -57.95,29.45 -14.34,19.73 -22.47,44.07 -24.48,73.22l154.2 0zm44.07 47.73l-198.27 0c0,22.72 2.52,42.56 7.56,59.45 4.91,16.9 11.76,30.73 20.42,41.57 8.33,10.6 18.27,18.56 29.77,23.87 11.5,5.29 24.1,7.94 37.93,7.94 18.27,0 36.69,-5.06 55.23,-15.07 18.55,-10.01 31.79,-19.96 39.66,-29.65l2.4 0 0 67.9c-15.3,8.79 -30.81,16.2 -46.71,22.16 -15.9,5.93 -32.62,8.99 -50.07,8.99 -44.7,0 -79.53,-16.68 -104.58,-49.83 -25.01,-33.27 -37.59,-80.5 -37.59,-141.66 0,-60.47 12.01,-108.55 36.03,-144.07 23.97,-35.52 55.57,-53.38 94.77,-53.38 36.24,0 64.27,14.61 83.92,43.76 19.64,29.12 29.53,70.55 29.53,124.22l0 33.79z"/>
  <polygon class="fil11" points="16122.31,5840.3 16013.39,6210.22 15967.85,6210.22 15859.72,5840.3 15908.86,5840.3 15992.2,6134.7 16074.83,5840.3 "/>
  <path class="fil11" d="M16358.38 5983.98c-0.2,-32.64 -6.21,-57.88 -17.97,-75.85 -11.83,-17.85 -29.72,-26.82 -53.81,-26.82 -24.29,0 -43.61,9.87 -57.94,29.45 -14.34,19.73 -22.49,44.07 -24.48,73.22l154.2 0zm44.06 47.73l-198.26 0c0,22.72 2.45,42.56 7.48,59.45 4.99,16.9 11.76,30.73 20.47,41.57 8.33,10.6 18.22,18.56 29.72,23.87 11.5,5.29 24.17,7.94 37.98,7.94 18.29,0 36.69,-5.06 55.25,-15.07 18.53,-10.01 31.72,-19.96 39.59,-29.65l2.46 0 0 67.9c-15.31,8.79 -30.8,16.2 -46.7,22.16 -15.9,5.93 -32.64,8.99 -50.14,8.99 -44.65,0 -79.53,-16.68 -104.58,-49.83 -25.02,-33.27 -37.54,-80.5 -37.54,-141.66 0,-60.47 12.01,-108.55 36.05,-144.07 23.96,-35.52 55.55,-53.38 94.77,-53.38 36.24,0 64.27,14.61 83.98,43.76 19.58,29.12 29.46,70.55 29.46,124.22l0 33.79z"/>
  <path class="fil11" d="M16639 5908.13l-2.46 0c-6.72,-2.2 -13.23,-3.74 -19.63,-4.78 -6.34,-0.99 -13.83,-1.48 -22.54,-1.48 -13.96,0 -27.4,4.26 -40.46,12.78 -12.98,8.46 -25.5,19.53 -37.59,32.94l0 262.63 -45.28 0 0 -369.92 45.28 0 0 54.57c18.02,-19.83 33.91,-33.91 47.61,-42.15 13.75,-8.3 27.7,-12.42 42.06,-12.42 7.81,0 13.56,0.24 17.11,0.77 3.5,0.58 8.79,1.66 15.9,3.15l0 63.91z"/>
  <path class="fil11" d="M16837.01 6119.11l0 -102.99c-13.83,1.12 -30.11,2.78 -48.84,4.99 -18.68,2.26 -33.46,5.38 -44.39,9.62 -12.98,5.06 -23.51,12.93 -31.52,23.66 -8.08,10.72 -12.08,25.51 -12.08,44.22 0,21.21 4.65,37.16 13.95,47.87 9.31,10.68 23.51,16.05 42.63,16.05 15.9,0 30.43,-4.2 43.63,-12.73 13.16,-8.53 25.33,-18.73 36.62,-30.69zm45.02 91.11l-45.02 0 0 -39.42c-4.02,3.74 -9.43,9.03 -16.28,15.77 -6.78,6.76 -13.44,12.05 -19.83,16.02 -7.62,5.1 -16.22,9.36 -26.1,12.77 -9.76,3.45 -21.26,5.13 -34.44,5.13 -24.23,0 -44.75,-11 -61.62,-33.09 -16.86,-22.1 -25.33,-50.28 -25.33,-84.51 0,-27.97 4.39,-50.69 13.11,-68.09 8.8,-17.23 21.32,-30.92 37.54,-40.81 16.33,-10 35.99,-16.67 58.98,-20.22 22.93,-3.56 47.61,-6.21 73.97,-7.95l0 -9.61c0,-14.08 -1.81,-25.84 -5.42,-35.08 -3.63,-9.3 -8.86,-16.61 -15.58,-21.9 -6.39,-5.04 -14.14,-8.47 -23.06,-10.22 -9.04,-1.79 -18.47,-2.66 -28.23,-2.66 -11.89,0 -25.12,2.16 -39.72,6.41 -14.66,4.32 -29.72,10.53 -45.28,18.73l-2.41 0 0 -63.25c8.79,-3.35 21.52,-6.97 38.25,-10.92 16.72,-3.99 33.2,-6.01 49.41,-6.01 18.93,0 35.47,2.14 49.55,6.55 13.96,4.26 26.17,11.55 36.44,21.95 10.07,10.22 17.84,23.31 23.13,39.41 5.29,16.15 7.94,36.11 7.94,59.94l0 251.06z"/>
  <path class="fil12" d="M3299.34 5267.66c-1822.55,0 -3299.34,-38.23 -3299.34,-86.36 0,-47.61 1476.78,-85.75 3299.34,-85.75l4575.9 0 0 172.11 -4575.9 0z"/>
  <path class="fil13" d="M13728.3 5095.55c1824.09,0 3303.22,38.13 3303.22,86.46 0,47.41 -1479.13,85.65 -3303.22,85.65l-4581.18 0 0 -172.11 4581.18 0z"/>
 </g>
</svg>
