<?xml version="1.0" encoding="UTF-8"?>
<!DOCTYPE svg PUBLIC "-//W3C//DTD SVG 1.1//EN" "http://www.w3.org/Graphics/SVG/1.1/DTD/svg11.dtd">
<!-- Creator: CorelDRAW 2017 -->
<svg xmlns="http://www.w3.org/2000/svg" xml:space="preserve" width="73.4939mm" height="72.7684mm" version="1.1" style="shape-rendering:geometricPrecision; text-rendering:geometricPrecision; image-rendering:optimizeQuality; fill-rule:evenodd; clip-rule:evenodd"
viewBox="0 0 5065.87 5015.86"
 xmlns:xlink="http://www.w3.org/1999/xlink">
 <defs>
  <style type="text/css">
   <![CDATA[
    .fil4 {fill:#006633;fill-rule:nonzero}
    .fil5 {fill:#008D36;fill-rule:nonzero}
    .fil6 {fill:#00A19A;fill-rule:nonzero}
    .fil3 {fill:#1D71B8;fill-rule:nonzero}
    .fil9 {fill:#605C5E;fill-rule:nonzero}
    .fil2 {fill:#E6007E;fill-rule:nonzero}
    .fil0 {fill:#F9B233;fill-rule:nonzero}
    .fil7 {fill:#FCEA10;fill-rule:nonzero}
    .fil8 {fill:white;fill-rule:nonzero}
    .fil1 {fill:white;fill-rule:nonzero}
   ]]>
  </style>
 </defs>
 <g id="Capa_x0020_1">
  <metadata id="CorelCorpID_0Corel-Layer"/>
  <path class="fil0" d="M3217.04 21.76c93.5,40.31 195.7,66.12 278.58,124.09 157.54,110.14 227.24,281.16 235.93,482.24 14.2,328.22 -90.71,604.14 -315.37,824.78 -202.25,198.58 -408.22,392.69 -612.21,589.14 -65.16,62.77 -129.24,126.81 -197.41,193.77 -75.02,-73.44 -146.48,-144.97 -219.55,-214.51 -172.98,-164.58 -348.16,-326.54 -519.71,-492.77 -140.55,-136.13 -270.43,-283.44 -331.75,-482.24 -61.54,-199.51 -88.13,-403.86 -22.84,-608.12 71.93,-225.18 223.3,-355.77 438.79,-402.16 13.5,-2.88 26.43,-9 39.61,-13.61 44.94,-0.05 89.88,-0.05 134.87,-0.1 117.17,30.49 232.21,68.72 322.26,159.85 57.13,57.87 106.96,124.09 157.28,183.26 49.52,-58.57 97.39,-121.07 150.93,-177.28 90.31,-94.89 206.8,-134.29 325.72,-166.26 44.94,-0.04 89.93,-0.04 134.87,-0.09z"/>
  <path class="fil1" d="M3225.66 1.72c29.68,12.79 58.76,23.62 87.8,34.43 67.59,25.15 135.19,50.32 194.63,91.88 79.1,55.3 136.96,125.35 176.66,206.52 42.36,86.6 63.95,185.6 68.56,292.61 7.24,167.35 -15.95,321.44 -69.65,461.87 -53.65,140.33 -137.71,266.92 -252.21,379.37 -132.74,130.33 -266.57,258.25 -400.37,386.15 -70.98,67.85 -141.99,135.72 -212.01,203.16 -44.2,42.58 -87.72,85.56 -132.32,129.61l-80.16 78.97 -15.29 -14.97c-23.36,-22.86 -46.4,-45.57 -69.22,-68.06 -50.29,-49.55 -99.66,-98.21 -150.08,-146.2 -64.33,-61.2 -130.68,-123.65 -197.01,-186.07 -107.86,-101.51 -215.73,-203.04 -322.88,-306.86 -71.02,-68.78 -139.42,-140.49 -197.97,-220.35 -59.02,-80.48 -107.95,-169.12 -139.41,-271.11 -31.24,-101.28 -53.63,-203.94 -59.93,-307.4 -6.32,-104 3.63,-208.76 37.17,-313.69 36.68,-114.85 93.57,-206.1 168.72,-274.97 77.24,-70.79 173.35,-117.65 286.28,-141.95 7.7,-1.64 15.78,-4.78 23.84,-7.91 4.35,-1.68 8.71,-3.38 13.13,-4.93l3.41 -1.19 141.46 -0.11 2.63 0.68c59.69,15.53 118.89,33.06 174.8,58.38 56.88,25.77 110.38,59.55 157.53,107.27 40.68,41.21 76.96,85.56 112.32,128.79l29.43 35.82c10.04,-12.08 19.51,-23.63 29.02,-35.22 34.27,-41.81 68.85,-84 106.14,-123.15 47.27,-49.66 101.22,-84.73 158.79,-111.51 56.74,-26.38 116.67,-44.58 177.09,-60.82l2.53 -0.68c47.53,-0.1 95.07,-0.1 142.61,-0.1l3.98 1.71zm72.62 75.21c-29.28,-10.89 -58.57,-21.81 -85.85,-33.41l-127.15 0.09c-57.63,15.54 -114.54,32.91 -167.57,57.57 -52.97,24.64 -102.44,56.73 -145.48,101.95 -36.58,38.4 -70.49,79.77 -104.09,120.76 -15.94,19.44 -31.89,38.9 -45.99,55.58l-16.59 19.62 -16.67 -19.62c-16.63,-19.56 -31.53,-37.77 -46.58,-56.17 -35.05,-42.85 -71.02,-86.83 -109.59,-125.9 -42.87,-43.4 -91.97,-74.32 -144.39,-98.07 -52.59,-23.82 -108.6,-40.51 -165.19,-55.3l-128.19 0.1 -8.44 3.22c-9.86,3.83 -19.75,7.67 -30.49,9.97 -105.39,22.68 -194.7,66.05 -265.97,131.38 -69.52,63.72 -122.32,148.67 -156.61,256.02 -31.74,99.31 -41.14,198.88 -35.12,297.99 6.07,99.66 27.76,198.96 58.05,297.17 29.86,96.8 76.53,181.24 132.92,258.13 56.84,77.52 123.68,147.56 193.2,214.89 106.07,102.77 214.22,204.57 322.37,306.35 65.26,61.42 130.54,122.86 197.17,186.25 50.19,47.77 99.93,96.79 150.59,146.71l53.92 53.07 49.68 -49c44.87,-44.31 88.64,-87.55 132.67,-129.95 71.04,-68.41 141.61,-135.88 212.18,-203.33 133.98,-128.07 267.98,-256.16 399.86,-385.64 109.9,-107.93 190.54,-229.35 241.97,-363.85 51.61,-134.98 73.89,-283.26 66.92,-444.48 -4.37,-101.28 -24.56,-194.5 -64.12,-275.38 -36.53,-74.67 -89.75,-139.11 -162.5,-189.98 -54.83,-38.34 -119.87,-62.55 -184.9,-86.75z"/>
  <path class="fil2" d="M1104.52 381.69c91.9,-44.91 178.01,-106.14 277.11,-131.21 188.28,-47.6 368.26,12.41 532.78,139.11 268.51,206.79 419.14,470.1 449.09,788.58 26.9,286.59 47.96,573.08 72.11,859.64 7.73,91.53 17.16,183.08 26.29,279.69 -106.35,8.8 -208.76,16.1 -310.69,25.94 -241.3,23.37 -481.91,50.15 -723.56,71.38 -197.88,17.35 -397.82,19.14 -594.36,-65.71 -197.23,-85.18 -375.82,-200.32 -495.31,-385.79 -131.76,-204.4 -137.62,-406.96 -35.73,-602.83 6.33,-12.23 9.79,-26.16 14.63,-39.34 28.87,-34.42 57.74,-68.88 86.61,-103.33 99.44,-69.62 203.56,-132.34 333.53,-140.94 82.42,-5.37 166.8,0.39 245.93,1.09 -14.45,-76.78 -33.06,-154.87 -43.11,-233.17 -16.9,-132.16 26.86,-247.5 77.96,-359.79 28.92,-34.46 57.79,-68.92 86.7,-103.32z"/>
  <path class="fil1" d="M1094.96 362.07c28.87,-14.1 56.2,-29.26 83.5,-44.4 63.42,-35.17 126.9,-70.38 197.88,-88.34 94.41,-23.86 186.84,-21.71 276.43,1.67 95.51,24.93 187.48,74 274.94,141.35 136.69,105.27 243.44,225.12 319.89,359.33 76.33,134.03 122.31,282.27 137.57,444.52 18.07,192.55 32.98,377.48 47.86,562.37 7.91,98.24 15.83,196.5 24.34,297.45 5.67,67.21 11.45,126.7 17.36,187.64l10.9 113.79 -21.94 1.81c-31.78,2.63 -65.87,5.34 -99.75,8.02 -72.95,5.78 -144.59,11.46 -210.69,17.84 -88.7,8.59 -181.93,18.14 -275.21,27.68 -151.3,15.48 -302.63,30.98 -448.52,43.79 -99.91,8.75 -200.48,13.58 -301.27,5.47 -101.51,-8.17 -202.92,-29.44 -303.58,-72.89 -99.93,-43.16 -195.33,-94.04 -281.16,-157.84 -86.27,-64.13 -162.63,-141.15 -223.88,-236.22 -67.08,-104.07 -102.55,-207.99 -108.67,-311.12 -6.29,-106.11 18.51,-210.85 71.92,-313.55 3.47,-6.66 6.18,-14.88 8.86,-23.11 1.52,-4.65 3.06,-9.33 4.66,-13.68l1.32 -3.58 90.75 -108.28 2.56 -1.79c50.68,-35.48 102.6,-69.23 158.58,-95.27 56.89,-26.51 117.96,-45.09 186.05,-49.59 57.73,-3.76 116.52,-2.12 173.83,-0.52 15.85,0.44 31.6,0.88 47,1.2 -3.04,-15.43 -6.11,-30.49 -9.2,-45.6 -10.95,-53.65 -21.99,-107.79 -29.03,-162.68 -8.82,-69.07 -1.85,-133.61 13.99,-195.46 15.73,-61.38 39.81,-119.25 65.68,-176.11l1.19 -2.61 91.68 -109.26 4.16 -2.03zm104.66 -6.36c-27.26,15.12 -54.53,30.25 -81.38,43.54l-81.73 97.4c-24.77,54.56 -47.62,109.68 -62.1,166.17 -14.58,56.94 -21.03,116.17 -12.97,179.24 6.79,52.9 17.71,106.41 28.52,159.44 5.04,24.75 10.08,49.44 14.41,72.46l4.89 26.01 -26.47 -0.24c-24.88,-0.22 -49.56,-0.92 -74.49,-1.61 -55.94,-1.56 -113.35,-3.16 -169.9,0.52 -61.87,4.09 -117.87,21.2 -170.36,45.62l-0.09 0c-52.47,24.41 -101.52,56.14 -149.45,89.6l-82.39 98.31 -2.9 8.64c-3.23,9.9 -6.49,19.8 -11.59,29.67l0 0.08c-49.79,95.75 -72.93,192.92 -67.14,290.86 5.67,95.6 38.92,192.51 101.84,290.14 58.23,90.38 130.94,163.69 213.13,224.79 82.63,61.42 175.18,110.71 272.46,152.73 95.87,41.39 192.71,61.66 289.76,69.47 97.77,7.86 196.14,3.11 294.1,-5.47 153.41,-13.47 300.61,-28.55 447.83,-43.61 90.23,-9.24 180.54,-18.48 275.55,-27.68 73.4,-7.09 141.73,-12.5 211.36,-18.02l77.63 -6.22 -6.75 -69.8c-6.44,-66.42 -12.73,-131.17 -17.54,-188.15 -8.21,-97.4 -16.28,-197.52 -24.34,-297.62 -15.28,-189.82 -30.58,-379.64 -47.69,-561.86 -14.66,-155.87 -58.82,-298.25 -132.11,-426.95 -73.53,-129.1 -176.53,-244.62 -308.64,-346.36 -82.96,-63.89 -169.72,-110.31 -259.24,-133.67 -82.58,-21.55 -167.84,-23.53 -254.94,-1.51 -65.64,16.6 -126.49,50.35 -187.29,84.08z"/>
  <path class="fil3" d="M22.28 2231.28c25.59,-99.46 34.68,-204.88 80.45,-297.09 87.08,-175.31 252.65,-275.28 460.02,-320.67 338.52,-74.12 643.32,-21.32 911.52,159.53 241.38,162.8 478.8,330.07 718.31,494.97 76.51,52.65 154.17,104.02 235.53,158.86 -63.24,87.4 -125.18,170.85 -184.7,255.58 -140.93,200.51 -278.72,402.66 -421.63,602.1 -117.01,163.32 -247.5,318.22 -443.38,415 -196.59,97.18 -404.25,160.77 -627.77,133.96 -246.37,-29.61 -408.27,-154.74 -493.88,-358.51 -5.36,-12.77 -13.97,-24.34 -21.08,-36.42 -7.78,-44.29 -15.64,-88.57 -23.46,-132.84 11.32,-121.04 31.01,-241.31 110.11,-346.69 50.14,-66.88 110.32,-128.03 163.07,-188.43 -69.48,-38.05 -142.72,-73.75 -210.38,-116.18 -114.29,-71.62 -175.43,-179.1 -229.29,-290.34 -7.82,-44.27 -15.67,-88.53 -23.45,-132.81z"/>
  <path class="fil1" d="M1.21 2225.91c7.79,-30.29 14.1,-61.46 20.39,-92.62 14.41,-71.35 28.84,-142.73 61.6,-208.74 43.71,-88.01 106.34,-157.74 183.59,-211.58 82.32,-57.38 181.17,-96.66 291.34,-120.77 172.19,-37.7 335.97,-43.06 490.95,-15.94 154.9,27.11 300.83,86.64 437.37,178.71 155.04,104.56 312.85,214.08 470.66,323.61 82.52,57.26 165.05,114.55 247.82,171.53 51.39,35.37 103.32,70.16 156.52,105.81l97.53 65.48 -73.6 101.16c-41.31,56.63 -81.89,112.28 -124.16,172.43 -50.78,72.24 -105.3,150.71 -159.75,229.09 -86.77,124.89 -173.56,249.81 -261.97,373.19 -59,82.36 -121.56,162.75 -194.5,235.18 -73.29,72.78 -156.73,137.11 -256.99,186.65 -99.68,49.27 -202.29,90.07 -308.46,115.17 -106.76,25.23 -217.06,34.63 -331.49,20.91 -125.4,-15.07 -229.82,-54.31 -314.24,-115.59 -86.94,-63.1 -152.31,-149.25 -197.21,-256.14l0.08 -0.03c-2.83,-6.73 -7.69,-14.36 -12.52,-21.96 -1.96,-3.09 -3.89,-6.11 -7.28,-11.87l-2.08 -3.52c-8.08,-46.39 -16.28,-92.79 -24.57,-139.14l0.3 -3.14c5.76,-61.67 13.7,-123.23 30.32,-183.06 16.89,-60.76 42.68,-119.6 84.04,-174.71 35.67,-47.58 75.44,-91.4 114.19,-134.1l31.8 -35.19 -40.89 -21.69c-49.26,-26.02 -98.95,-52.28 -146.6,-82.16 -59.71,-37.48 -105.48,-84.17 -143.28,-135.94 -37.4,-51.22 -66.7,-106.89 -94.03,-163.36l-1.38 -2.83c-8.16,-46.72 -16.47,-93.42 -24.74,-140.12l1.21 -4.69zm63.04 -84.09c-6.08,30.11 -12.19,60.24 -19.7,90.11l22.17 125.52c26.11,53.79 53.96,106.49 88.56,153.87 34.8,47.66 76.75,90.52 131.25,124.68l0.08 0c45.82,28.74 94.98,54.71 143.7,80.45 21.06,11.13 42.03,22.21 65.47,35.04l23.79 13.03 -17.83 20.4c-17.65,20.21 -33.96,38.18 -50.41,56.31 -38.41,42.32 -77.81,85.73 -111.63,130.85 -37.71,50.26 -61.33,104.26 -76.88,160.23 -15.53,55.9 -23.13,113.95 -28.65,172.26l22.31 126.31 4.55 7.18c5.6,8.81 11.22,17.65 15.77,28.47l0.09 0c41.81,99.53 102.32,179.49 182.52,237.71 78.4,56.91 176,93.43 293.77,107.58 109.07,13.08 214.39,4.08 316.48,-20.05 102.68,-24.28 202.22,-63.88 299.09,-111.77 95.61,-47.24 175.38,-108.78 245.55,-178.46 70.52,-70.04 131.74,-148.78 189.73,-229.72 88.73,-123.83 175.18,-248.26 261.62,-372.68 51.79,-74.55 103.55,-149.05 159.93,-229.25 38.67,-55.04 81.27,-113.45 124.67,-172.94l46.95 -64.59 -59.97 -40.29c-53.39,-35.77 -105.48,-70.67 -157.03,-106.15 -82.77,-56.98 -165.31,-114.27 -247.82,-171.53 -154.7,-107.37 -309.46,-214.76 -470.33,-323.26 -131.37,-88.58 -271.67,-145.84 -420.48,-171.88 -149.36,-26.14 -307.57,-20.9 -474.23,15.59 -104.65,22.91 -198.21,59.97 -275.64,113.95 -71.41,49.77 -129.22,114.06 -169.43,195.03 -30.37,61.2 -44.2,129.61 -58.01,198z"/>
  <path class="fil4" d="M743.46 4249.23c-60.89,-81.43 -136.65,-154.76 -179.58,-246.09 -81.63,-173.65 -56.95,-355.8 35.51,-533.35 150.93,-289.82 379,-475 683.32,-552.69 273.85,-69.88 548.77,-134.11 823.18,-201.34 87.61,-21.49 174.91,-44.62 267.28,-68.24 28.47,100.82 54.77,198.16 83.51,294.58 67.92,228.24 139.1,455.3 205.05,684.31 53.98,187.48 93.2,379.31 47.43,581.22 -45.89,202.61 -124.51,391.89 -282.62,535.23 -174.26,157.96 -370.27,194.74 -579.99,126.91 -13.15,-4.2 -27.34,-5.44 -41.02,-8.01 -38.94,-22.48 -77.9,-44.93 -116.81,-67.39 -86.44,-84.89 -167.02,-175.29 -199.68,-298.86 -20.7,-78.34 -30.87,-160.32 -45.07,-236.46 -72.02,25.73 -144.52,55.56 -218.86,77.23 -125.42,36.55 -245.88,12.27 -364.8,-19.64 -38.96,-22.46 -77.87,-44.9 -116.83,-67.41z"/>
  <path class="fil1" d="M725.98 4262.27c-19.47,-26.03 -39.25,-49.86 -59.01,-73.66 -46.01,-55.41 -92.05,-110.86 -122.8,-176.26 -41,-87.22 -56.27,-176.46 -50.3,-266.14 6.38,-95.87 36.94,-191.97 86.15,-286.5 76.92,-147.69 173.71,-268.86 290.23,-363.1 116.32,-94.09 252.07,-161.1 407.08,-200.67 173.36,-44.25 356.15,-88.31 538.95,-132.37 92.07,-22.19 184.15,-44.4 284.48,-68.97 59.09,-14.5 118.42,-29.83 179.26,-45.57l108.32 -27.93 31.68 113.03c18.75,67.28 37.15,133.31 57.55,201.73 28.8,96.8 53.91,179.46 79.05,262.28 43.27,142.5 86.55,285.03 126.08,422.28 27.25,94.65 50.8,190.55 61.8,288.78 11.08,98.79 9.37,199.59 -14.12,303.19 -23.33,103.01 -55,202.66 -100.93,294.79 -46.24,92.74 -107.01,178.06 -188.34,251.79 -88.95,80.63 -183.59,130.79 -282.88,152.51 -101.93,22.3 -208.41,14.56 -318.36,-21 -7.39,-2.38 -16.12,-3.74 -24.82,-5.09 -4.91,-0.77 -9.88,-1.55 -13.55,-2.23l-3.55 -0.66c-40.83,-23.64 -81.72,-47.22 -122.62,-70.74l-1.9 -1.87c-43.91,-43.12 -86.42,-87.77 -122.4,-137.74 -36.49,-50.68 -66.01,-106.5 -83.08,-171.1 -14.52,-54.96 -23.9,-111.38 -33.04,-166.38 -2.61,-15.67 -5.19,-31.25 -7.82,-46.33 -15.3,5.6 -28.71,10.6 -42.13,15.62 -50.56,18.91 -101.57,37.99 -153.82,53.21 -65.58,19.11 -129.7,22.33 -192.86,16.61 -62.5,-5.65 -123.37,-19.91 -183.63,-36.08l-2.54 -0.68 -123.57 -71.3 -2.58 -3.46zm-25.57 -101.47c20.04,24.15 40.11,48.33 57.93,71.91l110.12 63.54c57.81,15.46 115.81,28.98 173.76,34.22 58.14,5.26 116.98,2.35 176.82,-15.08 50.73,-14.78 100.96,-33.57 150.75,-52.19 24.49,-9.16 48.89,-18.29 66.82,-24.69l24.04 -8.59 4.71 25.22c4.56,24.49 8.55,48.4 12.56,72.55 8.95,53.85 18.14,109.1 32.18,162.29 15.58,58.96 42.69,110.14 76.26,156.76 33.58,46.62 73.88,89.08 115.71,130.25l110.96 64.01 8.69 1.41c10.33,1.61 20.69,3.23 31.38,6.64l0.08 0c102.51,33.15 201.47,40.44 295.84,19.8 91.94,-20.11 179.9,-66.85 262.92,-142.1 76.77,-69.6 134.38,-150.62 178.44,-239 44.36,-88.99 74.97,-185.31 97.52,-284.89 22.28,-98.3 23.85,-194.39 13.26,-288.85 -10.64,-95.03 -33.71,-188.79 -60.44,-281.62 -41.76,-145.01 -83.76,-283.32 -125.75,-421.59 -27.92,-91.97 -55.92,-184.15 -79.22,-262.46 -19.34,-64.88 -38.35,-133.08 -57.71,-202.58l-20.09 -71.8 -67.03 17.24c-60.83,15.73 -120.15,31.07 -179.94,45.73 -89.3,21.88 -186.99,45.43 -284.66,68.97 -176.59,42.56 -353.19,85.14 -538.26,132.37 -148.96,38.02 -279.18,102.25 -390.54,192.32 -111.65,90.3 -204.62,206.86 -278.8,349.27 -46.56,89.41 -75.43,179.74 -81.37,269.1 -5.5,82.67 8.53,164.82 46.21,244.98 28.38,60.36 72.62,113.64 116.83,166.88z"/>
  <path class="fil5" d="M2752.96 4993.87c-101.46,-5.36 -206.24,5.76 -303.63,-19.55 -185.08,-48.15 -308.29,-182.7 -384.19,-365.92 -124,-299.08 -118.41,-590.47 18.42,-871.6 123.09,-253.05 251.22,-503.24 376.69,-754.96 40.05,-80.39 78.7,-161.6 120.15,-246.9 95.3,42.32 186.53,84.11 278.69,123.51 217.97,93.23 437.13,183.26 654.45,278.54 177.88,77.97 349.62,169.98 474.2,333.09 125.09,163.72 218.91,343.85 226.46,555.31 8.26,233.09 -89.97,405.78 -276.85,522.48 -11.66,7.29 -21.74,17.38 -32.58,26.16 -42.24,15.36 -84.47,30.79 -126.66,46.17 -120.46,11.87 -241.42,15.85 -356.77,-37.77 -73.2,-33.98 -142.33,-78.32 -209.56,-115.93 -26.77,71.2 -50.7,145.44 -82.05,215.8 -52.94,118.8 -149.11,195.1 -250.07,265.36 -42.25,15.43 -84.47,30.83 -126.7,46.2z"/>
  <path class="fil1" d="M2751.85 5015.63c-31.63,-1.67 -62.99,-1.74 -94.32,-1.81 -72,-0.15 -144.01,-0.32 -213.67,-18.42 -93,-24.19 -171.01,-69.32 -235.72,-130.94 -68.98,-65.71 -122.67,-150.08 -163.12,-247.7 -63.24,-152.44 -93.38,-303.15 -90.24,-451.78 3.14,-148.5 39.46,-294.53 109.15,-437.73 80.63,-165.69 163.3,-329.97 245.95,-494.24 41.5,-82.49 83.03,-165 130.83,-260.9 28.76,-57.74 54.88,-111.83 81.67,-167.3l47.59 -98.27 19.21 8.53c38.79,17.23 64.52,28.76 89.91,40.14 62.89,28.2 124.68,55.9 188.53,83.2 88.84,38 169.35,71.92 249.72,105.77 135.95,57.27 271.96,114.57 404.91,172.85 89.82,39.37 178.24,82.38 260.32,136.41 82.69,54.42 158.62,119.79 222.5,203.42 63.5,83.11 119.14,170.56 159.95,264.28 41.06,94.3 67.07,194.81 70.94,303.48 4.21,118.96 -18.49,222.94 -65.9,312.39 -48.72,91.95 -123.25,168.21 -221.19,229.37 -6.59,4.12 -13.09,9.77 -19.58,15.41 -3.45,3 -6.93,6.02 -10.77,9.13l-2.89 2.34 -132.61 48.33 -2.77 0.27c-61.36,6.05 -122.92,10.08 -183.97,5.76 -62.13,-4.39 -123.73,-17.38 -184.05,-45.41 -51.43,-23.88 -100.92,-52.82 -149.13,-81.03 -13.28,-7.77 -26.48,-15.48 -39.79,-23.13 -5.4,14.73 -10.33,28.47 -15.27,42.24 -18.16,50.59 -36.48,101.64 -58.42,150.87 -27.7,62.16 -66.57,113.06 -111.63,157.53 -44.54,43.95 -94.65,81.24 -145.86,116.88l-2.19 1.52 -133.7 48.76 -4.38 -0.23zm-94.32 -45.32c30.97,0.07 61.97,0.14 92.12,1.59l119.71 -43.65c48.99,-34.16 96.67,-69.72 138.07,-110.58 41.49,-40.94 77.19,-87.6 102.42,-144.23 21.45,-48.13 39.42,-98.18 57.22,-147.79 8.5,-23.69 16.99,-47.33 24.31,-66.81l8.9 -23.68 22.07 12.34c20.2,11.3 41.35,23.67 62.73,36.17 46.99,27.49 95.21,55.69 145.38,78.99 55.01,25.57 111.58,37.43 168.88,41.48 57.47,4.07 115.72,0.35 173.88,-5.31l120.62 -43.97 6.94 -5.97c7.89,-6.85 15.79,-13.72 25.04,-19.5 91.38,-57.06 160.69,-127.77 205.67,-212.66 43.88,-82.8 64.88,-179.5 60.95,-290.56 -3.66,-102.76 -28.36,-198.05 -67.36,-287.61 -39.24,-90.12 -93.08,-174.64 -154.66,-255.24 -60.71,-79.48 -132.98,-141.68 -211.76,-193.52 -79.37,-52.24 -165.79,-94.23 -253.83,-132.83 -135.87,-59.56 -270.15,-116.13 -404.4,-172.69 -86.27,-36.33 -172.44,-72.64 -249.9,-105.77 -61.86,-26.45 -124.95,-54.74 -189.2,-83.54l-70.54 -31.59 -29.19 60.39c-28.2,58.4 -55.7,115.35 -81.83,167.81 -39.04,78.32 -85.02,169.7 -130.99,261.06 -82.63,164.22 -165.27,328.45 -245.62,493.64l0 0.08c-66.97,137.63 -101.88,277.57 -104.88,419.48 -3.01,142.43 26.06,287.28 86.97,434.21l0 0.09c38.15,92.1 88.49,171.41 152.91,232.77 59.48,56.65 131.17,98.13 216.61,120.35 64.46,16.74 133.61,16.91 202.75,17.05z"/>
  <path class="fil6" d="M4615.05 3933.18c-67.13,75.06 -124.61,162.95 -203.43,222.43 -149.9,113.06 -322.88,124.24 -501.17,68.65 -291.05,-90.85 -495.75,-276.98 -611.22,-558.15 -103.99,-253.05 -202.82,-508.23 -304.36,-762.25 -32.41,-81.18 -66.34,-161.7 -101.42,-247 89.71,-47.22 176.54,-91.65 262.14,-138.26 202.65,-110.33 403.77,-223.52 607.38,-332.02 166.7,-88.83 339.57,-164.13 533.92,-158.65 194.96,5.5 382.23,45.39 538.03,171.53 171.72,139.05 233.73,322.75 200.54,539.96 -2.1,13.62 -1.21,27.7 -1.66,41.52 -15.37,42.26 -30.74,84.53 -46.08,126.75 -66.64,100.48 -139.31,196.45 -249.59,252.15 -69.92,35.34 -144.74,61.11 -213.57,89.6 34.16,65.14 72.29,129.97 102.99,198.12 51.79,115.04 46.33,236.98 33.53,358.87 -15.32,42.23 -30.7,84.51 -46.02,126.75z"/>
  <path class="fil1" d="M4631.25 3947.68c-20.27,22.67 -40.19,47.23 -60.1,71.77 -45.05,55.54 -90.12,111.09 -146.4,153.57 -75.33,56.83 -156.39,88.99 -241.06,100.59 -90.37,12.38 -184.45,1.19 -279.74,-28.53 -148.77,-46.43 -275.56,-117.36 -379.99,-212.72 -104.19,-95.16 -185.96,-214.5 -244.88,-357.98 -69.79,-169.83 -134.93,-334.53 -200.03,-499.18 -36.87,-93.25 -73.66,-186.28 -104.42,-263.24l0 -0.09c-21.53,-53.93 -44.65,-109.74 -68.36,-166.94l-40.52 -98.12 101.15 -52.95c60.13,-31.38 119.16,-62.19 178.26,-94.37 70.56,-38.41 150.65,-82.57 230.73,-126.72 123.76,-68.23 247.53,-136.48 376.82,-205.37 84.49,-45.02 170.54,-86.62 260,-116.22 90.45,-29.94 184.67,-47.8 284.75,-44.99 99.18,2.78 196.55,14.38 289.16,41.37 93.32,27.2 181.68,69.98 261.99,135.02 87.82,71.1 148.05,153.71 182.46,246.37 35.31,95.05 43.29,200.13 25.94,313.72 -1.28,8.33 -1.31,16.89 -1.33,25.41 -0.01,4.65 -0.03,9.31 -0.16,13.54l-0.12 3.53c-16.02,44.17 -32.04,88.35 -48.16,132.48l-1.39 2.1c-33.75,50.88 -69.17,100.78 -110.65,145.59 -41.96,45.33 -89.69,84.88 -147.3,113.97 -49.48,25.01 -100.77,45.09 -150.77,64.66 -14.33,5.61 -28.57,11.19 -42.1,16.6l21.11 38.98c24.84,45.66 49.91,91.74 71.24,139.08 27.1,60.19 39.22,122.02 42.88,184.63 3.58,61.48 -1.05,123.51 -7.55,185.42l-0.29 2.71 -48.35 133.13 -2.85 3.19zm-93.87 44.31c19.09,-23.54 38.2,-47.09 58.6,-70.09l43.72 -120.39c6.15,-59.07 10.46,-118.05 7.09,-175.89 -3.36,-57.59 -14.43,-114.28 -39.12,-169.1 -21.07,-46.78 -45.5,-91.68 -69.71,-136.17 -10.87,-19.99 -21.72,-39.91 -32.69,-60.84l-11.05 -21.06 22.06 -9.14c22.55,-9.34 43.67,-17.6 65.01,-25.96 49.13,-19.23 99.55,-38.97 147.02,-62.97 52.66,-26.6 96.43,-62.9 135.02,-104.59 38.52,-41.61 72.36,-89.19 104.83,-138.04l43.97 -120.96 0.07 -8.71c0.03,-10.68 0.06,-21.4 1.67,-31.89 16.27,-106.5 9.02,-204.33 -23.56,-292.06 -31.69,-85.32 -87.51,-161.68 -169.14,-227.78 -75.45,-61.09 -158.65,-101.35 -246.65,-127 -88.7,-25.86 -182.47,-36.97 -278.25,-39.66 -94.26,-2.65 -183.67,14.39 -269.9,42.94 -87.22,28.86 -170.98,69.35 -253.18,113.15 -123.03,65.56 -249.68,135.39 -376.31,205.21 -73.64,40.6 -147.29,81.21 -230.9,126.72 -58.43,31.82 -118.14,62.98 -178.95,94.72l-65.92 34.5 25.43 61.47c23.16,55.9 45.76,110.42 68.49,167.37 39.36,98.39 72.04,181.01 104.61,263.41 66.64,168.55 133.31,337.12 199.69,498.67 56.4,137.37 134.52,251.47 233.96,342.28 99.68,91.03 221.01,158.82 363.61,203.33 89.44,27.89 177.25,38.46 260.96,27 77.28,-10.58 151.45,-40.08 220.59,-92.23 52.31,-39.48 95.62,-92.86 138.9,-146.22z"/>
  <path class="fil7" d="M4999.42 1824.93c9.35,102.55 36.6,204.88 24.33,307.64 -23.28,195.35 -146.93,347.2 -328.87,462.31 -297.03,187.88 -605.11,244.66 -921.91,168.08 -285.06,-68.92 -567.85,-143.47 -851.91,-214.99 -90.76,-22.86 -182.08,-44.09 -278.25,-67.28 30.57,-104.3 61.1,-204.46 89,-304.94 66,-237.86 128.44,-476.22 196.71,-713.75 55.85,-194.49 127.4,-385.82 280.95,-545.23 154.08,-160.03 330.14,-292.36 552.05,-345.16 244.57,-58.13 441.19,3.09 591.95,164.91 9.44,10.13 21.58,18.04 32.45,26.99 22.44,38.91 44.99,77.82 67.48,116.75 30.34,117.83 52.49,237.88 13.01,364.64 -25.04,80.44 -61.49,159.02 -91.19,234.26 79.1,11.52 160.89,19.58 239.76,35.86 133.12,27.47 227.86,107.28 316.94,193.17 22.46,38.91 44.96,77.83 67.48,116.74z"/>
  <path class="fil1" d="M5021.09 1822.97c2.78,30.53 7.47,62.66 12.15,94.78 10.47,71.93 20.95,143.89 12.19,217.39 -11.67,97.91 -47.58,185.32 -102.81,262.96 -58.82,82.69 -139.52,154.1 -236.12,215.2 -151,95.51 -305.05,157.71 -461.83,186.29 -156.57,28.54 -315.63,23.48 -476.82,-15.47 -189.68,-45.85 -371.61,-92.43 -553.54,-138.98 -102.21,-26.16 -204.41,-52.32 -298.53,-76.02 -61,-15.36 -124.58,-30.54 -189.85,-46.09l-110.44 -26.55 6.43 -21.93c9.28,-31.67 18.57,-62.97 27.76,-93.99 21.19,-71.45 41.98,-141.57 61.15,-210.6 21.93,-79.05 47.94,-174.8 73.93,-270.52 40.01,-147.3 80.02,-294.61 122.78,-443.4 28.15,-98.03 60.38,-195.5 105.21,-289.19 45.02,-94.07 102.55,-183.69 181.04,-265.17 78.14,-81.16 161.91,-155.34 254.33,-215.95 93.02,-61 194.8,-108.33 308.38,-135.35 124.29,-29.54 236.93,-29.05 338.11,-0.87 104.2,29.03 195.72,87.27 274.83,172.18 5.16,5.54 12.1,10.85 19.02,16.14 3.47,2.65 6.98,5.34 11.3,8.89l3.11 2.56 70.83 122.54 0.79 3.07c15.47,60.11 28.88,120.85 33.37,182.81 4.58,63.06 0.02,127.42 -20.62,193.68 -17.66,56.76 -40.74,112.19 -63.24,166.19 -6.16,14.79 -12.28,29.49 -18.17,43.9l45.87 6.11c55.92,7.31 112.35,14.7 167.64,26.11 69.67,14.38 129.11,42.33 182.66,77.84 52.81,35.01 99.69,77.24 145.03,120.96l2.25 2.17 71.36 123.45 0.45 4.85zm-31.02 100.93c-4.4,-30.23 -8.8,-60.48 -11.85,-92.11l-63.62 -110.07c-43.03,-41.38 -87.4,-81.19 -136.65,-113.84 -49.35,-32.73 -103.86,-58.44 -167.3,-71.53 -53.87,-11.12 -109.47,-18.39 -164.57,-25.6 -25.97,-3.39 -51.79,-6.77 -73.92,-9.99l-27.3 -3.98 10.08 -25.54c9.31,-23.6 19,-46.86 28.8,-70.38 22.11,-53.07 44.8,-107.54 61.87,-162.44 18.83,-60.46 22.95,-119.54 18.74,-177.64 -4.21,-58.14 -16.69,-115.37 -31.21,-172.06l-64.06 -110.81 -7.07 -5.45c-8.4,-6.42 -16.82,-12.85 -24.48,-21.09 -73.62,-79.02 -158.4,-133.12 -254.53,-159.89 -93.97,-26.18 -199.37,-26.45 -316.44,1.38 -108.32,25.77 -205.55,71.02 -294.55,129.38 -89.6,58.76 -170.91,130.79 -246.84,209.63 -75.04,77.91 -130.09,163.68 -173.19,253.74 -43.28,90.44 -74.78,185.92 -102.48,282.36 -42.02,146.21 -82.31,294.55 -122.6,442.89 -23.01,84.72 -46.03,169.47 -74.11,270.7 -19.68,70.87 -40.3,140.42 -61.32,211.27l-21.31 72.02 65.81 15.7c63.88,15.23 126.12,30.07 190.36,46.26 105.14,26.48 201.96,51.26 298.71,76.02 186.28,47.67 372.58,95.36 553.03,138.98 155.24,37.52 308.32,42.41 458.9,14.96 151.07,-27.54 299.95,-87.75 446.3,-180.32 91.9,-58.13 168.44,-125.73 223.83,-203.61 51.03,-71.73 84.2,-152.44 94.97,-242.82 8.1,-67.93 -1.96,-137.03 -12.02,-206.13z"/>
  <path class="fil8" d="M2289.57 3241.05c-29.61,-25.13 -53.94,-45.72 -78.12,-66.42 -70.1,-59.75 -139.98,-119.76 -210.39,-179.05 -21.26,-17.91 -22.01,-30.23 25.73,-81.89 85.04,-92.13 130.1,-209.25 160.5,-330.88 1.61,-6.52 5.24,-9.24 12.27,-18.42 132.5,211.62 134.91,436.99 90.01,676.66zm877.5 927.3c109.18,-78.26 205.48,-170.99 281.74,-282.82 130.76,-191.92 149.98,-394.08 54.58,-606.44 -63.81,-141.95 -160.49,-260.3 -267.54,-371.11 -65.78,-68.02 -136.53,-130.68 -208.89,-191.62 -9.44,-7.98 -21.27,-13.81 -27.56,-28.45 27.76,-10.11 56.2,-18.18 82.58,-30.45 77.44,-36 113.42,-106.37 97.83,-186.29 -2.49,-12.9 -5.94,-23.26 -19.27,-30.05 -270.86,-138.04 -405.64,-371.47 -461.5,-659.92 -7.21,-37.09 -13.98,-74.24 -20.87,-111.37 2.31,-0.18 4.67,-0.35 6.98,-0.52 25.6,32.09 49.84,65.37 77.04,96.03 33.47,37.71 88.05,48.62 133.35,26.47 61.84,-30.22 117.61,-69.45 157.23,-126.61 66.99,-96.62 130.5,-195.63 179.67,-302.81 81.06,-176.58 54.51,-337.43 -78.27,-478.19 -85.38,-90.4 -175.09,-176.67 -260.74,-266.98 -102.89,-108.49 -204.12,-99.67 -298.9,15.32 -14.62,17.73 -29.43,35.94 -40.48,55.91 -93.67,169.28 -190.5,337.04 -253.53,521.25 -26.16,76.3 -54.29,152.03 -97.91,220.59 -51.15,80.5 -145.39,80.72 -201.82,3.76 -21.79,-29.65 -39.97,-61.93 -62.76,-91.9 -1.22,84.04 13.28,164 58.3,236.15 46.91,75.24 119.94,111.13 209.2,128.28 -46.9,53.19 -86.25,104.17 -121.41,158.21 -87.91,134.98 -153.34,280.95 -208.37,431.68 -86.56,237.25 -151.45,480.97 -211.85,725.86 -10.88,43.97 -14.46,88.8 -10.32,133.87 5.64,60.74 32.36,109.84 91.07,131.96 105.83,39.88 205.71,92.85 310.26,135.43 35.25,14.36 72.02,24.92 108.01,37.64 45.16,15.94 72.15,65.32 58,111.16 -9.91,32.18 -27.21,60.88 -43.1,90.26 -69.39,127.93 -119.84,261.61 -124.47,409.36 -2.05,67.31 5.55,133.21 22.01,198.27 180.42,53.99 371.85,82.38 570.04,80.67 150.4,-1.23 296.42,-20.23 436.65,-54.03 0.27,-0.3 0.48,-0.52 0.74,-0.79 8.31,-56.04 37.96,-94.57 84.3,-127.79z"/>
  <path class="fil9" d="M2275.5 3257.67l-17.71 -15.03c-21.07,-17.87 -39.65,-33.64 -60.5,-51.48l-57.87 -49.39c-53.12,-45.37 -106.23,-90.74 -152.35,-129.57 -17.34,-14.6 -26.13,-27.67 -20.09,-50.46 4.13,-15.57 17.4,-34.27 43.77,-62.81 40.91,-44.33 72.24,-94.72 96.99,-148.67 24.99,-54.47 43.47,-112.97 58.4,-172.75 2.38,-9.46 5.79,-13.62 11.64,-20.73l4.47 -5.62 19.07 -24.9 16.67 26.61c68.19,108.91 102.9,221.26 114.77,337.11 11.79,115.1 1.02,233.38 -21.77,355.07l-6.91 36.86 -28.58 -24.24zm-49.9 -99.6l49.15 41.82c17.48,-104.83 24.81,-206.69 14.68,-305.47 -9.92,-96.89 -36.66,-191.09 -87.13,-282.56 -14.38,53.65 -31.98,106.36 -54.98,156.5 -26.63,58.04 -60.37,112.29 -104.49,160.09 -21.34,23.09 -31.6,36.41 -33.71,44.38 -0.2,0.76 2.02,2.82 5.93,6.11 55.9,47.08 104.3,88.42 152.68,129.74l57.87 49.39zm928.76 992.53c53.82,-38.57 104.32,-80.57 150.57,-126.51 46.27,-45.96 88.54,-96.07 125.89,-150.85 63.43,-93.1 99.72,-188.39 108.49,-285.82 8.74,-97.11 -9.73,-196.94 -55.78,-299.46 -31.17,-69.36 -70.51,-133.12 -115.17,-193.14 -44.85,-60.27 -95.22,-116.91 -148.2,-171.75 -32.31,-33.42 -66.14,-65.79 -100.95,-97.44 -35.68,-32.44 -71.04,-63.01 -106.23,-92.65l-0.08 0c-1.34,-1.14 -3.58,-2.81 -5.87,-4.52l0 -0.08c-10.08,-7.55 -20.59,-15.41 -27.65,-31.86l-9.11 -21.18 21.73 -7.91c9.84,-3.58 18.29,-6.44 26.74,-9.29 18.43,-6.23 36.79,-12.44 54.05,-20.48l0.09 0c34.04,-15.82 58.89,-38.92 73.44,-66.63 14.56,-27.74 18.97,-60.59 12.11,-95.76 -0.85,-4.42 -1.77,-8.24 -3.18,-10.75 -0.79,-1.41 -2.18,-2.73 -4.57,-3.94 -138.89,-70.78 -242.98,-166.15 -319.56,-280.89 -76.28,-114.28 -125,-247.46 -153.45,-394.38 -5,-25.77 -10.68,-56.4 -16.35,-87.13l-8.95 -48.28 42.67 -3.16 7.21 9.03c7.18,9 15.61,19.86 24.06,30.76 17.1,22.06 34.22,44.14 52.21,64.42 13.44,15.15 31.2,24.93 50.16,28.7 19.02,3.77 39.17,1.54 57.34,-7.35l0 -0.08c29.82,-14.56 57.98,-31.16 83.11,-50.73 24.95,-19.43 47.29,-41.98 65.76,-68.63 33.04,-47.66 65.35,-96.11 95.75,-146.34 30.16,-49.83 57.99,-100.71 82.05,-153.13 38.66,-84.21 51.72,-164.35 39.37,-239.87 -12.35,-75.53 -50.32,-147.16 -113.71,-214.36 -43.68,-46.25 -88.19,-91.11 -132.69,-135.97 -42.98,-43.32 -85.98,-86.66 -127.96,-130.92 -10.06,-10.6 -19.98,-19.93 -29.72,-27.96 -35.89,-29.58 -70.87,-43.22 -104.68,-41.51 -33.88,1.72 -67.92,18.96 -101.81,51.1 -10.16,9.64 -20.21,20.49 -30.12,32.51 -7.06,8.56 -14.19,17.26 -20.89,26.26l0 0.08c-6.62,8.88 -12.64,17.69 -17.37,26.23l-23.88 43.14c-85.46,153.87 -170.94,307.78 -228.02,474.63l0 0.08c-13.12,38.26 -26.81,76.57 -43,114.65 -16.12,37.88 -34.58,74.97 -57.19,110.51l0.06 0.03c-11.88,18.71 -26,33.76 -41.47,45.11 -22.68,16.64 -48.25,25.23 -74.23,25.87 -25.88,0.63 -51.89,-6.64 -75.6,-21.71 -16.95,-10.76 -32.76,-25.55 -46.51,-44.31 -6.67,-9.08 -13.09,-18.52 -19.42,-28.11 1.78,13.84 4.18,27.52 7.28,41 8.57,37.2 22.59,73.02 43.77,106.96 21.46,34.41 48.88,59.83 81.13,78.59 32.98,19.18 71.3,31.67 113.66,39.8l37.5 7.21 -25.22 28.61c-23.42,26.56 -44.71,52.26 -64.26,77.68 -19.54,25.35 -37.83,51.13 -55.28,77.97 -43.32,66.52 -81.2,135.93 -115.06,207.38 -33.97,71.67 -63.84,145.21 -91.09,219.87 -42.96,117.74 -80.68,237.57 -115.23,358.6 -34.69,121.53 -65.92,243.26 -95.95,365.03 -5.15,20.81 -8.57,41.92 -10.22,63.22 -1.64,21.29 -1.52,42.5 0.41,63.49 2.61,28.08 10.13,53.12 23.89,73.05 12.15,17.61 29.55,31.58 53.19,40.48 59.82,22.55 117.34,49.02 174.82,75.48 44.89,20.66 89.8,41.32 135.94,60.12 21.79,8.88 44.7,16.43 67.61,23.97 13.17,4.34 26.37,8.7 39.46,13.33 28.07,9.91 50.46,30.32 63.53,55.36 12.97,24.85 16.81,54.33 8.04,82.76 -9.01,29.26 -23.06,54.76 -37.1,80.25l-7.64 14.02c-34.2,63.05 -63.66,127.27 -84.98,193.48 -21.26,66.05 -34.67,134.46 -36.92,206.15 -0.99,32.47 0.37,64.76 3.97,96.91 3.12,27.9 7.98,55.67 14.5,83.34 86.51,25.27 175.45,44.6 266.3,57.45 93.3,13.2 188.6,19.66 285.36,18.82 72.89,-0.59 145.2,-5.49 216.66,-14.33 68.85,-8.52 136.2,-20.61 201.88,-35.95 5.5,-25.43 15.27,-47.6 28.91,-67.51 15.84,-23.11 36.6,-42.8 61.7,-60.8zm181.28 -95.63c-48.26,47.95 -100.52,91.46 -155.86,131.12 -21.22,15.21 -38.48,31.43 -51.12,49.88 -12.38,18.07 -20.66,38.75 -24.3,63.33l-1.02 6.85 -9.94 10.4 -6.33 1.52c-72.28,17.43 -145.66,30.94 -219.9,40.12 -72.26,8.94 -146.18,13.9 -221.61,14.51 -99.22,0.85 -196.63,-5.72 -291.67,-19.17 -97.51,-13.79 -192.63,-34.78 -284.77,-62.35l-11.88 -3.55 -3.05 -12.06c-8.44,-33.4 -14.64,-67.12 -18.46,-101.19 -3.79,-33.86 -5.21,-68.16 -4.15,-102.97l0 -0.08c2.38,-76.05 16.54,-148.39 38.97,-218.08 22.4,-69.53 52.88,-136.14 88.06,-201l7.8 -14.19c13.03,-23.65 26.06,-47.3 33.68,-72.07 5.25,-17.01 2.89,-34.78 -4.96,-49.84 -8.11,-15.54 -22.02,-28.22 -39.47,-34.37 -12.75,-4.51 -25.65,-8.76 -38.52,-12.99l-0.08 0c-23.5,-7.73 -47,-15.48 -70.34,-24.99 -46.3,-18.86 -92.07,-39.92 -137.82,-60.97 -56.84,-26.16 -113.71,-52.34 -171.93,-74.28 -32.44,-12.22 -56.56,-31.74 -73.66,-56.53 -18.24,-26.43 -28.12,-58.51 -31.39,-93.85 -2.2,-23.88 -2.38,-47.48 -0.59,-70.66 1.81,-23.55 5.64,-47.06 11.41,-70.39 30.37,-123.12 61.8,-245.7 96.29,-366.56 34.64,-121.34 72.66,-242.02 116.25,-361.51 27.77,-76.06 58.15,-150.89 92.62,-223.62 34.58,-72.95 73.4,-144.06 117.97,-212.49 17.68,-27.18 36.66,-53.9 57.32,-80.78l0 -0.09c13.49,-17.55 27.5,-34.91 42.14,-52.26 -32.94,-8.74 -63.5,-20.62 -91.19,-36.72 -38.3,-22.27 -70.86,-52.44 -96.31,-93.25 -23.83,-38.19 -39.6,-78.46 -49.23,-120.28 -9.49,-41.23 -12.95,-83.94 -12.32,-127.64l0.92 -63.09 38.15 50.13c12.54,16.47 23.72,33.64 34.83,50.71 9.1,13.98 18.18,27.92 28.18,41.52 10.39,14.17 22.2,25.26 34.74,33.22 16.41,10.43 34.02,15.46 51.21,15.05 17.09,-0.42 34.12,-6.23 49.48,-17.5 11.13,-8.15 21.46,-19.27 30.39,-33.33l0.08 0c21,-33.01 38.42,-68.08 53.81,-104.24 15.31,-36 28.78,-73.73 41.81,-111.74 58.3,-170.3 144.79,-326.01 231.26,-481.71l23.88 -43.05c6.35,-11.37 13.27,-21.64 20.44,-31.26 7.13,-9.48 14.73,-18.75 22.26,-27.89 11.2,-13.59 22.44,-25.75 33.7,-36.42 41.66,-39.51 85.04,-60.79 129.78,-63.05 44.82,-2.27 89.74,14.62 134.37,51.41 11.32,9.33 22.55,19.86 33.64,31.55 41.8,44.07 84.56,87.17 127.28,130.23 45,45.36 90,90.72 133.54,136.82 69.45,73.63 111.18,152.91 124.98,237.23 13.77,84.16 -0.43,172.68 -42.78,264.94 -25.11,54.73 -53.64,106.97 -84.27,157.57 -30.39,50.21 -63.35,99.6 -97.28,148.55 -21.13,30.49 -46.53,56.17 -74.8,78.19 -28.11,21.89 -58.78,40.04 -90.79,55.68l-0.03 -0.07c-27.08,13.23 -56.87,16.63 -84.77,11.08 -28.03,-5.56 -54.36,-20.11 -74.4,-42.69 -11.31,-12.76 -21.98,-25.75 -32.37,-38.83l6.93 36.18c27.4,141.5 74.02,269.31 146.81,378.35 72.47,108.58 171.21,198.96 303.18,266.21 10.93,5.56 17.94,12.83 22.82,21.52 4.25,7.58 6.33,15.42 7.95,23.89 8.78,45.05 2.84,87.67 -16.37,124.26 -18.94,36.06 -50.64,65.85 -93.67,85.87 -17.09,8 -34.91,14.22 -52.83,20.31l2.68 2.21c37.11,31.32 73.31,62.57 107.52,93.67 35.09,31.91 69.54,64.9 102.99,99.49 54.05,55.96 105.59,113.93 151.78,176.01 46.38,62.33 87.33,128.75 119.94,201.33 49.12,109.35 68.77,216.36 59.36,320.95 -9.46,105.17 -48.21,207.41 -115.82,306.64 -38.9,57.05 -82.94,109.26 -131.17,157.17z"/>
  <path class="fil9" d="M3244.62 3359.61c5.58,2.19 10.81,3.94 16.04,5.69 13.89,4.66 27.81,9.33 41.05,17.79 17.89,11.43 31.05,25.98 40.12,42.87 9.48,17.68 14.41,37.72 15.58,59.27 1.78,32.26 -2.85,62.15 -13.9,89.57 -11.01,27.32 -28.36,52.01 -52.06,73.93 -25.89,24.08 -50.79,46.51 -75.66,68.94l-40.41 36.44c-5.58,5.05 -15.47,14.25 -25.5,23.57l-26.24 24.37 -28.23 -25.35c-10.28,-9.25 -20.4,-18.37 -28.39,-25.31l-36.79 -31.69c-20.45,-17.57 -40.93,-35.17 -63.23,-54.86 -14.34,-12.68 -28.19,-25.94 -40.14,-40.83 -12.59,-15.68 -23.1,-33.09 -29.98,-53.28 -6.57,-19.2 -11.33,-38.83 -12.8,-58.86 -1.52,-20.58 0.49,-41.5 7.56,-62.62 7.9,-23.53 20.41,-42.38 37.05,-56.75 16.96,-14.65 37.86,-24.39 62.26,-29.47 2.67,-0.85 5.4,-1.92 8.04,-2.87l32.17 -0.26 2.33 0.54c12.13,2.81 24.28,6.07 36.17,10.96 12.72,5.23 24.73,12.17 35.44,22.06 5.28,4.87 10.33,10.15 15.22,15.51 4.33,-4.88 8.75,-9.71 13.41,-14.34l0.09 -0.08c10.67,-10.55 22.68,-17.95 35.37,-23.55 11.64,-5.14 23.95,-8.73 36.31,-11.93l2.54 -0.65 32.78 -0.25 3.8 1.48zm2.23 46.98c-4.82,-1.61 -9.66,-3.24 -14.16,-4.9l-18.78 0.14c-9.33,2.47 -18.55,5.26 -27.14,9.05 -8.29,3.65 -15.92,8.29 -22.33,14.59 -6.32,6.29 -12.29,13.14 -18.19,19.91l-9.48 10.81 -15.87 17.58 -16.21 -17.33c-3.91,-4.18 -6.78,-7.38 -9.66,-10.59 -6.11,-6.82 -12.39,-13.83 -19.45,-20.34 -6.62,-6.11 -14.27,-10.5 -22.47,-13.87 -8.33,-3.43 -17.58,-5.97 -27.05,-8.22l-19.19 0.16c-2.29,0.84 -4.63,1.63 -7.31,2.16 -17.05,3.56 -31.29,10.08 -42.38,19.66 -10.75,9.28 -18.93,21.78 -24.26,37.64 -5.06,15.12 -6.47,30.43 -5.34,45.73 1.16,15.88 5.11,31.95 10.58,47.94 5.09,14.91 13.04,28.01 22.65,39.98 10.25,12.77 22.38,24.37 35.01,35.54 19.35,17.09 41.03,35.71 62.72,54.35l36.97 31.87c10.64,9.24 19.13,16.88 27.65,24.55 6.39,-5.93 13.04,-12.09 22.99,-21.11 13.65,-12.48 27.07,-24.58 40.46,-36.65 25.61,-23.09 51.26,-46.2 75.19,-68.39l0.08 0c18.82,-17.41 32.55,-36.87 41.18,-58.28 8.64,-21.45 12.25,-45.13 10.83,-70.97l0 -0.08c-0.82,-15.26 -4.13,-29.14 -10.46,-40.93 -5.67,-10.57 -13.91,-19.68 -25.1,-26.83 -8.62,-5.51 -20.07,-9.35 -31.49,-13.19z"/>
 </g>
</svg>
