<?xml version="1.0" encoding="UTF-8"?>
<!DOCTYPE svg PUBLIC "-//W3C//DTD SVG 1.1//EN" "http://www.w3.org/Graphics/SVG/1.1/DTD/svg11.dtd">
<!-- Creator: CorelDRAW 2017 -->
<svg xmlns="http://www.w3.org/2000/svg" xml:space="preserve" width="167.043mm" height="46.171mm" version="1.1" style="shape-rendering:geometricPrecision; text-rendering:geometricPrecision; image-rendering:optimizeQuality; fill-rule:evenodd; clip-rule:evenodd"
viewBox="0 0 11433.52 3160.24"
 xmlns:xlink="http://www.w3.org/1999/xlink">
 <defs>
  <style type="text/css">
   <![CDATA[
    .fil2 {fill:#087F3A;fill-rule:nonzero}
    .fil1 {fill:#605C5E;fill-rule:nonzero}
    .fil0 {fill:#706F6F;fill-rule:nonzero}
    .fil3 {fill:#D01543;fill-rule:nonzero}
   ]]>
  </style>
 </defs>
 <g id="Capa_x0020_1">
  <metadata id="CorelCorpID_0Corel-Layer"/>
  <path class="fil0" d="M1614.17 557.41l-253.25 46.78c11.01,-50.47 16.52,-92.66 16.52,-126.62 0,-218.35 -132.6,-327.56 -397.74,-327.56 -209.19,0 -313.81,75.24 -313.81,225.73 0,112.84 117,209.64 350.97,290.36 451.44,155.09 677.15,384.48 677.15,688.16 0,178.03 -63.33,320.92 -189.96,428.72 -126.61,107.82 -295,161.73 -505.09,161.73 -465.19,0 -697.78,-180.29 -697.78,-540.93 0,-29.32 2.26,-65.56 6.87,-108.69l262.89 -57.8c-20.21,79.82 -30.3,149.11 -30.3,207.8 0,233.06 133.5,349.58 400.51,349.58 213.76,0 320.68,-83.94 320.68,-251.84 0,-124.81 -128,-234.44 -384,-328.95 -369.76,-135.78 -554.64,-352.79 -554.64,-650.97 0,-168.82 61.68,-304.87 185.09,-408.09 123.4,-103.21 285.61,-154.82 486.54,-154.82 412.9,0 619.34,185.79 619.34,557.41z"/>
  <polygon class="fil0" points="1934.83,1910.29 2479.86,1910.29 2479.86,31.64 1934.83,31.64 "/>
  <polygon class="fil0" points="4160.31,31.66 3615.31,1910.29 3126.73,1910.29 2628.51,31.66 3179.04,31.66 3550.65,1454.75 3956.66,31.66 "/>
  <polygon class="fil0" points="5520.13,31.66 5520.13,220.19 4847.09,220.19 4847.09,788.61 5412.79,788.61 5412.79,977.16 4847.09,977.16 4847.09,1721.74 5634.36,1721.74 5634.36,1910.29 4302.09,1910.29 4302.09,31.66 "/>
  <polygon class="fil0" points="7550.19,31.66 7550.19,1910.29 7024.44,1910.29 7024.44,602.81 6658.32,1910.29 6354.18,1910.29 5978.45,624.85 5978.45,1910.29 5795.39,1910.29 5795.39,31.66 6348.68,31.66 6670.72,1165.73 6991.4,31.66 "/>
  <polygon class="fil0" points="9620.17,31.66 9620.17,1910.29 9094.41,1910.29 9094.41,602.81 8728.34,1910.29 8424.15,1910.29 8048.41,624.85 8048.41,1910.29 7865.36,1910.29 7865.36,31.66 8418.65,31.66 8740.7,1165.73 9061.4,31.66 "/>
  <path class="fil0" d="M11172.62 557.41l-253.23 46.78c11.01,-50.47 16.52,-92.66 16.52,-126.62 0,-218.35 -132.57,-327.56 -397.77,-327.56 -209.17,0 -313.77,75.24 -313.77,225.73 0,112.84 116.97,209.64 350.94,290.36 451.43,155.09 677.15,384.48 677.15,688.16 0,178.03 -63.32,320.92 -189.96,428.72 -126.59,107.82 -294.99,161.73 -505.07,161.73 -465.2,0 -697.79,-180.29 -697.79,-540.93 0,-29.32 2.3,-65.56 6.89,-108.69l262.91 -57.8c-20.21,79.82 -30.31,149.11 -30.31,207.8 0,233.06 133.48,349.58 400.5,349.58 213.76,0 320.66,-83.94 320.66,-251.84 0,-124.81 -127.97,-234.44 -383.98,-328.95 -369.8,-135.78 -554.63,-352.79 -554.63,-650.97 0,-168.82 61.71,-304.87 185.09,-408.09 123.39,-103.21 285.59,-154.82 486.5,-154.82 412.91,0 619.34,185.79 619.34,557.41z"/>
  <path class="fil1" d="M331.33 2971.73c0,12.85 -2.18,25.63 -6.54,38.21 -4.39,12.61 -10.51,23.28 -18.37,32.05 -8.64,9.45 -18.67,16.87 -30.15,22.2 -11.51,5.35 -25.31,8.02 -41.49,8.02 -17.36,0 -32.97,-2.25 -46.82,-6.67 -13.84,-4.46 -27.93,-11.01 -42.28,-19.77l0 -55.15 2.27 0c12.18,13.92 26.26,24.67 42.2,32.22 15.98,7.6 30.95,11.36 44.96,11.36 19.84,0 35.29,-5.13 46.33,-15.36 11.07,-10.23 16.58,-23.8 16.58,-40.88 0,-14.72 -2.62,-25.5 -7.86,-32.48 -5.24,-6.94 -13.18,-12.36 -23.85,-16.22 -8.09,-2.95 -16.84,-5.37 -26.28,-7.34 -9.42,-1.9 -19.43,-4.34 -29.99,-7.32 -21.34,-6.19 -37.19,-16.87 -47.46,-31.92 -10.3,-15.06 -15.46,-34.65 -15.46,-58.81 0,-27.72 8.52,-50.42 25.57,-68.12 17.02,-17.74 38.65,-26.61 64.85,-26.61 16.91,0 32.44,2.25 46.56,6.7 14.13,4.45 26.63,9.92 37.52,16.43l0 52.05 -2.25 0c-9.17,-10.68 -21.23,-19.52 -36.15,-26.6 -14.93,-7.01 -30.23,-10.54 -45.85,-10.54 -17.14,0 -30.92,4.86 -41.32,14.67 -10.4,9.76 -15.6,22.39 -15.6,37.82 0,13.76 2.57,24.6 7.77,32.44 5.15,7.84 14.28,13.87 27.32,18.03 6.89,2.09 16.69,4.57 29.45,7.55 12.72,2.95 23.49,6 32.32,9.11 17.91,6.54 31.38,16.35 40.43,29.58 9.07,13.2 13.59,31.67 13.59,55.39z"/>
  <path class="fil1" d="M411.06 3066.19l-30.42 0 0 -248.33 30.42 0 0 248.33zm1.93 -289.93l-34.29 0 0 -43.35 34.29 0 0 43.35z"/>
  <path class="fil1" d="M600.25 2994.63c0,22.63 -6.84,41.29 -20.47,55.77 -13.66,14.57 -32.27,21.8 -55.89,21.8 -13.35,0 -25.62,-2.2 -36.78,-6.54 -11.16,-4.37 -20.52,-9.14 -28.06,-14.39l0 -46.87 1.62 0c9.59,9.92 20.25,17.86 32.01,23.66 11.76,5.87 23.03,8.77 33.81,8.77 13.37,0 23.81,-2.95 31.37,-8.89 7.54,-5.89 11.31,-15.23 11.31,-27.98 0,-9.79 -2.03,-17.21 -6.15,-22.24 -4.09,-5.04 -11.96,-9.36 -23.61,-12.93 -4.3,-1.28 -9.95,-2.87 -16.9,-4.65 -6.95,-1.77 -13.28,-3.66 -18.99,-5.8 -15.84,-5.76 -27.08,-14.21 -33.71,-25.45 -6.63,-11.2 -9.96,-24.9 -9.96,-41.24 0,-10.21 1.56,-19.83 4.62,-28.89 3.07,-9.01 7.72,-17.09 13.98,-24.24 6.03,-6.98 13.72,-12.48 23.05,-16.52 9.32,-4.11 19.75,-6.16 31.3,-6.16 10.77,0 21.7,1.83 32.74,5.48 11.04,3.63 20.23,8.06 27.58,13.22l0 44.66 -1.64 0c-7.75,-7.84 -17.21,-14.48 -28.3,-19.85 -11.12,-5.42 -21.99,-8.15 -32.66,-8.15 -11.1,0 -20.49,2.95 -28.13,8.79 -7.67,5.87 -11.49,14.57 -11.49,26.1 0,10.25 2.33,17.96 6.95,23.12 4.54,5.22 11.87,9.47 22,12.66 5.61,1.79 11.88,3.57 18.83,5.34 6.95,1.78 12.76,3.44 17.4,4.94 14.11,4.42 25.02,12.07 32.65,22.92 7.67,10.95 11.51,25.5 11.51,43.58z"/>
  <path class="fil1" d="M737.53 3063.97c-5.72,2.08 -11.94,3.78 -18.69,5.11 -6.74,1.34 -12.74,2.03 -18.04,2.03 -18.42,0 -32.44,-6.85 -42.03,-20.47 -9.59,-13.64 -14.41,-35.52 -14.41,-65.61l0 -132.11 -20.54 0 0 -35.07 20.54 0 0 -71.4 30.41 0 0 71.4 62.75 0 0 35.07 -62.75 0 0 113.24c0,13.02 0.2,23.21 0.63,30.58 0.44,7.33 1.94,14.18 4.54,20.51 2.37,5.95 5.63,10.33 9.77,13.02 4.15,2.78 10.49,4.11 19.03,4.11 4.94,0 10.12,-0.99 15.52,-2.98 5.37,-1.99 9.25,-3.66 11.63,-5.02l1.64 0 0 37.59z"/>
  <path class="fil1" d="M895.84 2914.31c-0.12,-21.91 -4.12,-38.86 -12.06,-50.92 -7.91,-11.98 -19.97,-18 -36.12,-18 -16.3,0 -29.25,6.63 -38.89,19.77 -9.68,13.24 -15.13,29.58 -16.43,49.15l103.5 0zm29.59 32.04l-133.09 0c0,15.25 1.66,28.57 5.02,39.91 3.32,11.35 7.93,20.63 13.74,27.91 5.59,7.12 12.27,12.46 19.98,16.02 7.71,3.55 16.19,5.33 25.47,5.33 12.28,0 24.65,-3.39 37.1,-10.12 12.46,-6.72 21.33,-13.4 26.61,-19.9l1.62 0 0 45.59c-10.25,5.9 -20.71,10.88 -31.4,14.87 -10.67,3.98 -21.87,6.04 -33.62,6.04 -29.95,0 -53.34,-11.2 -70.17,-33.45 -16.8,-22.33 -25.24,-54.04 -25.24,-95.1 0,-40.6 8.06,-72.87 24.18,-96.71 16.11,-23.85 37.33,-35.83 63.64,-35.83 24.34,0 43.15,9.81 56.34,29.38 13.22,19.55 19.82,47.36 19.82,83.39l0 22.68z"/>
  <path class="fil1" d="M1235.09 3066.19l-30.4 0 0 -141.44c0,-10.66 -0.34,-20.94 -1.05,-30.87 -0.69,-9.95 -2.16,-17.87 -4.44,-23.78 -2.47,-6.41 -6.02,-11.18 -10.67,-14.47 -4.63,-3.23 -11.33,-4.9 -20.05,-4.9 -8.51,0 -17.05,2.95 -25.56,8.79 -8.5,5.87 -17,13.31 -25.52,22.35 0.32,3.42 0.59,7.38 0.79,11.92 0.22,4.52 0.33,8.99 0.33,13.4l0 158.99 -30.38 0 0 -141.44c0,-10.93 -0.38,-21.38 -1.07,-31.18 -0.7,-9.9 -2.19,-17.73 -4.46,-23.72 -2.47,-6.38 -6.02,-11.14 -10.67,-14.3 -4.62,-3.17 -11.31,-4.82 -20.03,-4.82 -8.3,0 -16.64,2.85 -25,8.46 -8.34,5.67 -16.68,12.82 -24.98,21.59l0 185.4 -30.39 0 0 -248.33 30.39 0 0 27.54c9.47,-10.8 18.95,-19.26 28.39,-25.37 9.42,-6.04 19.47,-9.12 30.14,-9.12 12.29,0 22.72,3.61 31.28,10.73 8.56,7.1 14.97,16.95 19.17,29.53 12.31,-14.24 23.51,-24.46 33.66,-30.79 10.11,-6.26 20.95,-9.47 32.49,-9.47 19.84,0 34.46,8.28 43.92,24.85 9.41,16.54 14.13,39.61 14.13,69.23l0 161.21z"/>
  <path class="fil1" d="M1403.75 3005.03l0 -69.14c-9.28,0.75 -20.17,1.87 -32.75,3.35 -12.54,1.52 -22.48,3.61 -29.82,6.46 -8.74,3.39 -15.78,8.68 -21.19,15.89 -5.39,7.19 -8.07,17.13 -8.07,29.69 0,14.24 3.13,24.95 9.37,32.14 6.26,7.17 15.78,10.77 28.62,10.77 10.67,0 20.44,-2.82 29.27,-8.55 8.84,-5.73 17.04,-12.57 24.57,-20.6zm30.24 61.16l-30.24 0 0 -26.46c-2.69,2.51 -6.33,6.06 -10.9,10.59 -4.6,4.54 -9.05,8.09 -13.34,10.75 -5.08,3.42 -10.9,6.28 -17.45,8.57 -6.61,2.31 -14.3,3.44 -23.13,3.44 -16.3,0 -30.09,-7.39 -41.4,-22.21 -11.33,-14.84 -17,-33.75 -17,-56.74 0,-18.77 2.95,-34.03 8.82,-45.71 5.89,-11.57 14.28,-20.76 25.15,-27.4 11,-6.71 24.22,-11.19 39.63,-13.57 15.42,-2.39 31.95,-4.17 49.63,-5.34l0 -6.45c0,-9.45 -1.19,-17.34 -3.64,-23.55 -2.42,-6.24 -5.87,-11.15 -10.41,-14.7 -4.33,-3.38 -9.49,-5.69 -15.52,-6.86 -6.06,-1.2 -12.35,-1.79 -18.95,-1.79 -7.97,0 -16.87,1.45 -26.67,4.31 -9.82,2.9 -19.95,7.07 -30.39,12.57l-1.62 0 0 -42.46c5.92,-2.25 14.52,-4.68 25.72,-7.33 11.21,-2.68 22.27,-4.03 33.14,-4.03 12.71,0 23.81,1.44 33.23,4.39 9.43,2.86 17.59,7.75 24.51,14.74 6.79,6.86 11.96,15.65 15.52,26.45 3.55,10.84 5.33,24.24 5.33,40.24l0 168.54z"/>
  <path class="fil1" d="M1725.09 3005.03l0 -142.51c-8.2,-5.02 -15.54,-8.49 -22.01,-10.44 -6.48,-1.92 -13.53,-2.92 -21.18,-2.92 -17.04,0 -30.31,8.2 -39.79,24.51 -9.49,16.3 -14.22,39.43 -14.22,69.34 0,29.51 3.65,51.96 10.99,67.28 7.34,15.34 19.1,22.98 35.26,22.98 8.62,0 17.36,-2.61 26.19,-7.86 8.86,-5.25 17.1,-12.05 24.77,-20.38zm30.38 61.16l-30.38 0 0 -25.99c-8.76,10.38 -17.86,18.43 -27.34,24.2 -9.49,5.82 -19.79,8.68 -30.88,8.68 -21.59,0 -38.67,-11.37 -51.35,-34.27 -12.68,-22.77 -18.99,-54.44 -18.99,-94.88 0,-21.05 2.16,-39.82 6.54,-56.29 4.38,-16.44 10.27,-30.45 17.71,-42.03 7.31,-11.24 15.87,-19.86 25.64,-25.76 9.75,-5.95 19.84,-8.95 30.29,-8.95 9.5,0 17.91,1.44 25.26,4.14 7.31,2.75 15.02,7.01 23.12,12.79l0 -107.6 30.38 0 0 345.96z"/>
  <path class="fil1" d="M1936.91 2914.31c-0.11,-21.91 -4.11,-38.86 -12.05,-50.92 -7.92,-11.98 -19.98,-18 -36.14,-18 -16.28,0 -29.23,6.63 -38.9,19.77 -9.65,13.24 -15.11,29.58 -16.41,49.15l103.5 0zm29.6 32.04l-133.1 0c0,15.25 1.68,28.57 5.03,39.91 3.32,11.35 7.91,20.63 13.74,27.91 5.59,7.12 12.25,12.46 19.97,16.02 7.71,3.55 16.19,5.33 25.48,5.33 12.28,0 24.63,-3.39 37.08,-10.12 12.47,-6.72 21.33,-13.4 26.59,-19.9l1.65 0 0 45.59c-10.25,5.9 -20.71,10.88 -31.4,14.87 -10.67,3.98 -21.87,6.04 -33.62,6.04 -29.95,0 -53.37,-11.2 -70.17,-33.45 -16.82,-22.33 -25.24,-54.04 -25.24,-95.1 0,-40.6 8.07,-72.87 24.18,-96.71 16.11,-23.85 37.34,-35.83 63.63,-35.83 24.37,0 43.16,9.81 56.37,29.38 13.22,19.55 19.82,47.36 19.82,83.39l0 22.68z"/>
  <polygon class="fil1" points="2321.27,2735.11 2233.62,3066.19 2190.92,3066.19 2103.31,2735.11 2137.56,2735.11 2213.1,3026.38 2288.61,2735.11 "/>
  <path class="fil1" d="M2386.13 3066.19l-30.4 0 0 -248.33 30.4 0 0 248.33zm1.94 -289.93l-34.3 0 0 -43.35 34.3 0 0 43.35z"/>
  <path class="fil1" d="M2562.37 2997.92l0 -135.4c-8.08,-5.02 -15.6,-8.64 -22.57,-10.75 -6.94,-2.16 -13.87,-3.24 -20.76,-3.24 -16.72,0 -29.88,7.71 -39.47,23.09 -9.58,15.46 -14.39,37.84 -14.39,67.19 0,27.84 3.57,49.01 10.67,63.37 7.12,14.4 18.93,21.54 35.43,21.54 8.83,0 17.71,-2.33 26.61,-6.97 8.89,-4.69 17.04,-10.93 24.49,-18.82zm30.39 40.03c0,42.12 -6.95,73 -20.85,92.77 -13.92,19.68 -35.31,29.53 -64.19,29.53 -9.61,0 -18.95,-0.91 -28.05,-2.78 -9.14,-1.82 -18.08,-4.51 -26.95,-7.89l0 -42.68 1.64 0c4.96,2.67 12.82,5.95 23.59,9.9 10.78,3.92 21.59,5.9 32.36,5.9 10.34,0 18.9,-1.73 25.7,-5.11 6.79,-3.43 12.07,-8.2 15.83,-14.21 3.78,-5.84 6.5,-12.77 8.1,-20.96 1.61,-8.12 2.42,-17.21 2.42,-27.33l0 -22.68c-9.16,10.07 -17.93,17.62 -26.27,22.57 -8.36,4.98 -19.01,7.45 -31.94,7.45 -21.57,0 -38.69,-10.71 -51.36,-32.14 -12.66,-21.39 -18.98,-51.57 -18.98,-90.6 0,-21.33 2.16,-39.75 6.53,-55.24 4.35,-15.48 10.33,-28.86 17.87,-40.12 7.02,-10.53 15.53,-18.73 25.54,-24.54 10.04,-5.89 20.03,-8.86 29.93,-8.86 10.45,0 19.19,1.47 26.27,4.39 7.06,2.86 14.54,7.29 22.4,13.24l1.93 -10.67 28.46 0 0 220.09z"/>
  <path class="fil1" d="M2683.35 3066.19l-30.42 0 0 -248.33 30.42 0 0 248.33zm1.9 -289.93l-34.26 0 0 -43.35 34.26 0 0 43.35z"/>
  <polygon class="fil1" points="2743.81,3066.19 2774.23,3066.19 2774.23,2720.23 2743.81,2720.23 "/>
  <path class="fil1" d="M2944.49 3005.03l0 -69.14c-9.28,0.75 -20.18,1.87 -32.73,3.35 -12.55,1.52 -22.53,3.61 -29.84,6.46 -8.74,3.39 -15.81,8.68 -21.2,15.89 -5.39,7.19 -8.06,17.13 -8.06,29.69 0,14.24 3.1,24.95 9.37,32.14 6.26,7.17 15.77,10.77 28.62,10.77 10.67,0 20.42,-2.82 29.25,-8.55 8.86,-5.73 17.05,-12.57 24.59,-20.6zm30.25 61.16l-30.25 0 0 -26.46c-2.69,2.51 -6.33,6.06 -10.9,10.59 -4.59,4.54 -9.05,8.09 -13.33,10.75 -5.09,3.42 -10.91,6.28 -17.49,8.57 -6.56,2.31 -14.3,3.44 -23.13,3.44 -16.28,0 -30.07,-7.39 -41.4,-22.21 -11.31,-14.84 -16.97,-33.75 -16.97,-56.74 0,-18.77 2.95,-34.03 8.82,-45.71 5.87,-11.57 14.28,-20.76 25.15,-27.4 11.01,-6.71 24.22,-11.19 39.64,-13.57 15.41,-2.39 31.95,-4.17 49.62,-5.34l0 -6.45c0,-9.45 -1.21,-17.34 -3.63,-23.55 -2.42,-6.24 -5.89,-11.15 -10.41,-14.7 -4.33,-3.38 -9.49,-5.69 -15.54,-6.86 -6.04,-1.2 -12.33,-1.79 -18.92,-1.79 -7.97,0 -16.88,1.45 -26.69,4.31 -9.79,2.9 -19.94,7.07 -30.39,12.57l-1.62 0 0 -42.46c5.93,-2.25 14.5,-4.68 25.69,-7.33 11.23,-2.68 22.27,-4.03 33.18,-4.03 12.7,0 23.81,1.44 33.22,4.39 9.43,2.86 17.6,7.75 24.5,14.74 6.81,6.86 11.97,15.65 15.52,26.45 3.57,10.84 5.34,24.24 5.34,40.24l0 168.54z"/>
  <path class="fil1" d="M3184.29 3066.19l-30.4 0 0 -141.44c0,-11.35 -0.48,-22.08 -1.44,-32.09 -0.99,-10.02 -2.77,-17.82 -5.34,-23.46 -2.72,-6.2 -6.59,-10.87 -11.66,-13.87 -5.05,-3.04 -11.64,-4.6 -19.74,-4.6 -8.3,0 -16.97,2.85 -26.02,8.46 -9.07,5.67 -17.76,12.82 -26.06,21.59l0 185.4 -30.38 0 0 -248.33 30.38 0 0 27.54c9.49,-10.8 19.31,-19.26 29.44,-25.37 10.16,-6.04 20.55,-9.12 31.2,-9.12 19.52,0 34.39,8.11 44.65,24.24 10.23,16.18 15.35,39.48 15.35,69.84l0 161.21z"/>
  <path class="fil1" d="M3376.38 3050.65c-10.1,6.65 -19.73,11.85 -28.85,15.54 -9.11,3.72 -18.78,5.54 -29.01,5.54 -13.07,0 -25.02,-2.59 -35.92,-7.84 -10.86,-5.29 -20.18,-13.24 -27.97,-23.92 -7.86,-10.66 -13.95,-24.19 -18.28,-40.49 -4.28,-16.3 -6.45,-35.35 -6.45,-57.11 0,-40.64 8.11,-72.52 24.33,-95.63 16.23,-23.16 37.67,-34.69 64.29,-34.69 10.33,0 20.49,2.03 30.48,6.02 9.96,3.98 19.12,8.9 27.39,14.65l0 46.49 -1.59 0c-9.28,-9.93 -18.84,-17.6 -28.69,-22.94 -9.87,-5.34 -19.5,-7.98 -28.88,-7.98 -17.25,0 -30.86,7.94 -40.83,23.94 -9.98,15.92 -14.96,39.3 -14.96,70.14 0,29.92 4.88,52.91 14.64,69.04 9.75,16.09 23.46,24.12 41.14,24.12 6.16,0 12.4,-1.14 18.75,-3.33 6.39,-2.27 12.09,-5.13 17.16,-8.68 4.4,-3.08 8.56,-6.43 12.47,-9.89 3.86,-3.5 6.93,-6.47 9.19,-9.04l1.59 0 0 46.06z"/>
  <path class="fil1" d="M3446.13 3066.19l-30.44 0 0 -248.33 30.44 0 0 248.33zm1.9 -289.93l-34.26 0 0 -43.35 34.26 0 0 43.35z"/>
  <path class="fil1" d="M3616.39 3005.03l0 -69.14c-9.28,0.75 -20.16,1.87 -32.74,3.35 -12.57,1.52 -22.51,3.61 -29.84,6.46 -8.77,3.39 -15.8,8.68 -21.22,15.89 -5.37,7.19 -8.06,17.13 -8.06,29.69 0,14.24 3.12,24.95 9.42,32.14 6.24,7.17 15.73,10.77 28.58,10.77 10.66,0 20.42,-2.82 29.27,-8.55 8.85,-5.73 17.04,-12.57 24.59,-20.6zm30.23 61.16l-30.23 0 0 -26.46c-2.69,2.51 -6.33,6.06 -10.93,10.59 -4.6,4.54 -9.02,8.09 -13.31,10.75 -5.08,3.42 -10.93,6.28 -17.48,8.57 -6.59,2.31 -14.31,3.44 -23.11,3.44 -16.3,0 -30.09,-7.39 -41.41,-22.21 -11.33,-14.84 -16.95,-33.75 -16.95,-56.74 0,-18.77 2.9,-34.03 8.8,-45.71 5.85,-11.57 14.26,-20.76 25.15,-27.4 10.97,-6.71 24.19,-11.19 39.6,-13.57 15.43,-2.39 31.96,-4.17 49.65,-5.34l0 -6.45c0,-9.45 -1.22,-17.34 -3.64,-23.55 -2.43,-6.24 -5.9,-11.15 -10.41,-14.7 -4.34,-3.38 -9.49,-5.69 -15.52,-6.86 -6.08,-1.2 -12.35,-1.79 -18.95,-1.79 -7.99,0 -16.88,1.45 -26.68,4.31 -9.79,2.9 -19.95,7.07 -30.4,12.57l-1.62 0 0 -42.46c5.91,-2.25 14.5,-4.68 25.72,-7.33 11.2,-2.68 22.25,-4.03 33.14,-4.03 12.7,0 23.8,1.44 33.22,4.39 9.45,2.86 17.6,7.75 24.5,14.74 6.82,6.86 11.98,15.65 15.53,26.45 3.55,10.84 5.33,24.24 5.33,40.24l0 168.54z"/>
  <polygon class="fil1" points="3982.63,3066.19 3824,3066.19 3824,2735.11 3982.63,2735.11 3982.63,2774.27 3856,2774.27 3856,2865 3982.63,2865 3982.63,2904.11 3856,2904.11 3856,3027.06 3982.63,3027.06 "/>
  <path class="fil1" d="M4158.57 2940.12c0,-29.88 -3.72,-52.32 -11.14,-67.13 -7.46,-14.85 -18.9,-22.25 -34.31,-22.25 -8.71,0 -17.52,2.59 -26.37,7.8 -8.84,5.16 -17.3,12.01 -25.37,20.48l0 140.72c8.63,5.35 16.04,8.99 22.2,10.88 6.19,1.96 13.26,2.86 21.12,2.86 16.91,0 30.14,-7.79 39.63,-23.54 9.45,-15.69 14.22,-38.96 14.22,-69.82zm31.36 -1.1c0,20.14 -2.08,38.56 -6.33,55.25 -4.17,16.7 -10.1,30.81 -17.78,42.38 -7.12,10.97 -15.49,19.42 -25.12,25.46 -9.67,5.98 -19.86,9.01 -30.66,9.01 -9.36,0 -17.87,-1.48 -25.46,-4.23 -7.58,-2.84 -15.35,-7.21 -23.2,-13.16l0 104.09 -30.4 0 0 -339.96 30.4 0 0 25.98c8.07,-9.33 17.17,-17.13 27.23,-23.46 10.07,-6.26 20.86,-9.47 32.27,-9.47 21.77,0 38.73,11.33 50.87,33.96 12.1,22.61 18.17,53.99 18.17,94.15z"/>
  <path class="fil1" d="M4268.05 3066.19l-30.4 0 0 -248.33 30.4 0 0 248.33zm1.94 -289.93l-34.3 0 0 -43.35 34.3 0 0 43.35z"/>
  <path class="fil1" d="M4444.33 3005.03l0 -142.51c-8.2,-5.02 -15.52,-8.49 -22.03,-10.44 -6.47,-1.92 -13.54,-2.92 -21.17,-2.92 -17.04,0 -30.31,8.2 -39.77,24.51 -9.49,16.3 -14.22,39.43 -14.22,69.34 0,29.51 3.65,51.96 10.98,67.28 7.32,15.34 19.08,22.98 35.26,22.98 8.63,0 17.34,-2.61 26.19,-7.86 8.84,-5.25 17.09,-12.05 24.76,-20.38zm30.36 61.16l-30.36 0 0 -25.99c-8.76,10.38 -17.87,18.43 -27.36,24.2 -9.45,5.82 -19.77,8.68 -30.88,8.68 -21.55,0 -38.69,-11.37 -51.35,-34.27 -12.66,-22.77 -18.99,-54.44 -18.99,-94.88 0,-21.05 2.21,-39.82 6.55,-56.29 4.37,-16.44 10.28,-30.45 17.69,-42.03 7.32,-11.24 15.91,-19.86 25.67,-25.76 9.71,-5.95 19.82,-8.95 30.27,-8.95 9.51,0 17.91,1.44 25.29,4.14 7.28,2.75 15,7.01 23.11,12.79l0 -107.6 30.36 0 0 345.96z"/>
  <path class="fil1" d="M4656.15 2914.31c-0.08,-21.91 -4.13,-38.86 -12.05,-50.92 -7.9,-11.98 -19.95,-18 -36.13,-18 -16.26,0 -29.22,6.63 -38.9,19.77 -9.62,13.24 -15.09,29.58 -16.4,49.15l103.48 0zm29.62 32.04l-133.1 0c0,15.25 1.65,28.57 4.99,39.91 3.35,11.35 7.95,20.63 13.74,27.91 5.6,7.12 12.29,12.46 20.01,16.02 7.72,3.55 16.16,5.33 25.44,5.33 12.29,0 24.69,-3.39 37.13,-10.12 12.45,-6.72 21.29,-13.4 26.58,-19.9l1.65 0 0 45.59c-10.27,5.9 -20.73,10.88 -31.4,14.87 -10.67,3.98 -21.85,6.04 -33.61,6.04 -29.97,0 -53.4,-11.2 -70.22,-33.45 -16.78,-22.33 -25.24,-54.04 -25.24,-95.1 0,-40.6 8.06,-72.87 24.21,-96.71 16.13,-23.85 37.33,-35.83 63.61,-35.83 24.37,0 43.15,9.81 56.38,29.38 13.18,19.55 19.82,47.36 19.82,83.39l0 22.68z"/>
  <path class="fil1" d="M4995.41 3066.19l-30.4 0 0 -141.44c0,-10.66 -0.35,-20.94 -1.03,-30.87 -0.7,-9.95 -2.22,-17.87 -4.48,-23.78 -2.47,-6.41 -6.02,-11.18 -10.66,-14.47 -4.65,-3.23 -11.32,-4.9 -20.04,-4.9 -8.54,0 -17.05,2.95 -25.59,8.79 -8.49,5.87 -17,13.31 -25.54,22.35 0.36,3.42 0.61,7.38 0.84,11.92 0.21,4.52 0.29,8.99 0.29,13.4l0 158.99 -30.36 0 0 -141.44c0,-10.93 -0.39,-21.38 -1.08,-31.18 -0.7,-9.9 -2.18,-17.73 -4.42,-23.72 -2.47,-6.38 -6.07,-11.14 -10.67,-14.3 -4.65,-3.17 -11.36,-4.82 -20.08,-4.82 -8.29,0 -16.62,2.85 -24.98,8.46 -8.33,5.67 -16.71,12.82 -24.98,21.59l0 185.4 -30.4 0 0 -248.33 30.4 0 0 27.54c9.49,-10.8 18.94,-19.26 28.4,-25.37 9.41,-6.04 19.47,-9.12 30.14,-9.12 12.27,0 22.73,3.61 31.28,10.73 8.58,7.1 14.96,16.95 19.17,29.53 12.31,-14.24 23.5,-24.46 33.64,-30.79 10.11,-6.26 20.95,-9.47 32.49,-9.47 19.82,0 34.48,8.28 43.93,24.85 9.42,16.54 14.13,39.61 14.13,69.23l0 161.21z"/>
  <path class="fil1" d="M5084.67 3066.19l-30.4 0 0 -248.33 30.4 0 0 248.33zm1.94 -289.93l-34.3 0 0 -43.35 34.3 0 0 43.35z"/>
  <path class="fil1" d="M5267.37 2942.14c0,-32.18 -4.54,-56.06 -13.74,-71.69 -9.16,-15.69 -21.9,-23.47 -38.17,-23.47 -16.48,0 -29.27,7.78 -38.38,23.47 -9.11,15.63 -13.66,39.51 -13.66,71.69 0,31.14 4.54,54.74 13.74,70.81 9.16,16.09 21.94,24.08 38.3,24.08 16.17,0 28.88,-7.93 38.08,-23.86 9.23,-15.95 13.83,-39.64 13.83,-71.03zm31.4 0c0,40.46 -7.55,72.42 -22.68,95.8 -15.05,23.47 -35.3,35.13 -60.63,35.13 -25.55,0 -45.85,-11.66 -60.84,-35.13 -15.04,-23.38 -22.59,-55.35 -22.59,-95.8 0,-40.51 7.55,-72.46 22.59,-95.96 15,-23.46 35.29,-35.28 60.84,-35.28 25.33,0 45.58,11.81 60.63,35.28 15.13,23.5 22.68,55.46 22.68,95.96z"/>
  <polygon class="fil1" points="5346.14,3066.19 5376.53,3066.19 5376.53,2720.23 5346.14,2720.23 "/>
  <path class="fil1" d="M5557.68 2693.53l-44.14 83.18 -24.12 0 28.93 -83.18 39.34 0zm1.62 248.62c0,-32.18 -4.6,-56.06 -13.76,-71.69 -9.2,-15.69 -21.9,-23.47 -38.16,-23.47 -16.49,0 -29.32,7.78 -38.43,23.47 -9.11,15.63 -13.66,39.51 -13.66,71.69 0,31.14 4.6,54.74 13.74,70.81 9.19,16.09 21.94,24.08 38.34,24.08 16.13,0 28.84,-7.93 38.07,-23.86 9.2,-15.95 13.85,-39.64 13.85,-71.03zm31.34 0c0,40.46 -7.54,72.42 -22.63,95.8 -15.1,23.47 -35.3,35.13 -60.63,35.13 -25.54,0 -45.85,-11.66 -60.89,-35.13 -15.04,-23.38 -22.56,-55.35 -22.56,-95.8 0,-40.51 7.52,-72.46 22.56,-95.96 15.04,-23.46 35.35,-35.28 60.89,-35.28 25.33,0 45.53,11.81 60.63,35.28 15.09,23.5 22.63,55.46 22.63,95.96z"/>
  <path class="fil1" d="M5753.84 2997.92l0 -135.4c-8.11,-5.02 -15.61,-8.64 -22.59,-10.75 -6.93,-2.16 -13.88,-3.24 -20.77,-3.24 -16.69,0 -29.84,7.71 -39.47,23.09 -9.59,15.46 -14.39,37.84 -14.39,67.19 0,27.84 3.55,49.01 10.67,63.37 7.1,14.4 18.95,21.54 35.43,21.54 8.85,0 17.74,-2.33 26.63,-6.97 8.88,-4.69 17.04,-10.93 24.5,-18.82zm30.36 40.03c0,42.12 -6.94,73 -20.86,92.77 -13.92,19.68 -35.3,29.53 -64.18,29.53 -9.59,0 -18.95,-0.91 -28.06,-2.78 -9.11,-1.82 -18.08,-4.51 -26.93,-7.89l0 -42.68 1.64 0c4.96,2.67 12.8,5.95 23.61,9.9 10.75,3.92 21.55,5.9 32.34,5.9 10.33,0 18.91,-1.73 25.72,-5.11 6.77,-3.43 12.05,-8.2 15.83,-14.21 3.77,-5.84 6.47,-12.77 8.06,-20.96 1.65,-8.12 2.47,-17.21 2.47,-27.33l0 -22.68c-9.19,10.07 -17.95,17.62 -26.28,22.57 -8.37,4.98 -19.03,7.45 -31.96,7.45 -21.55,0 -38.67,-10.71 -51.35,-32.14 -12.66,-21.39 -18.99,-51.57 -18.99,-90.6 0,-21.33 2.18,-39.75 6.56,-55.24 4.37,-15.48 10.32,-28.86 17.86,-40.12 7.04,-10.53 15.53,-18.73 25.55,-24.54 10.01,-5.89 20,-8.86 29.92,-8.86 10.47,0 19.21,1.47 26.28,4.39 7.07,2.86 14.53,7.29 22.42,13.24l1.9 -10.67 28.46 0 0 220.09z"/>
  <path class="fil1" d="M5874.79 3066.19l-30.44 0 0 -248.33 30.44 0 0 248.33zm1.91 -289.93l-34.26 0 0 -43.35 34.26 0 0 43.35z"/>
  <path class="fil1" d="M6068.47 3050.65c-10.1,6.65 -19.77,11.85 -28.88,15.54 -9.1,3.72 -18.78,5.54 -29.01,5.54 -13.06,0 -25.03,-2.59 -35.91,-7.84 -10.89,-5.29 -20.17,-13.24 -27.97,-23.92 -7.84,-10.66 -13.92,-24.19 -18.26,-40.49 -4.28,-16.3 -6.46,-35.35 -6.46,-57.11 0,-40.64 8.11,-72.52 24.33,-95.63 16.23,-23.16 37.65,-34.69 64.28,-34.69 10.36,0 20.51,2.03 30.49,6.02 9.97,3.98 19.12,8.9 27.4,14.65l0 46.49 -1.59 0c-9.28,-9.93 -18.87,-17.6 -28.72,-22.94 -9.84,-5.34 -19.51,-7.98 -28.88,-7.98 -17.22,0 -30.83,7.94 -40.81,23.94 -9.97,15.92 -14.96,39.3 -14.96,70.14 0,29.92 4.85,52.91 14.61,69.04 9.8,16.09 23.46,24.12 41.16,24.12 6.16,0 12.41,-1.14 18.77,-3.33 6.38,-2.27 12.06,-5.13 17.14,-8.68 4.42,-3.08 8.58,-6.43 12.44,-9.89 3.91,-3.5 6.98,-6.47 9.25,-9.04l1.59 0 0 46.06z"/>
  <path class="fil1" d="M6217.58 3005.03l0 -69.14c-9.28,0.75 -20.18,1.87 -32.75,3.35 -12.57,1.52 -22.51,3.61 -29.84,6.46 -8.75,3.39 -15.78,8.68 -21.2,15.89 -5.37,7.19 -8.06,17.13 -8.06,29.69 0,14.24 3.12,24.95 9.4,32.14 6.24,7.17 15.74,10.77 28.58,10.77 10.67,0 20.43,-2.82 29.27,-8.55 8.85,-5.73 17.05,-12.57 24.6,-20.6zm30.23 61.16l-30.23 0 0 -26.46c-2.7,2.51 -6.33,6.06 -10.93,10.59 -4.6,4.54 -9.02,8.09 -13.31,10.75 -5.08,3.42 -10.93,6.28 -17.48,8.57 -6.59,2.31 -14.31,3.44 -23.11,3.44 -16.31,0 -30.1,-7.39 -41.42,-22.21 -11.32,-14.84 -16.96,-33.75 -16.96,-56.74 0,-18.77 2.92,-34.03 8.8,-45.71 5.87,-11.57 14.27,-20.76 25.16,-27.4 10.97,-6.71 24.2,-11.19 39.59,-13.57 15.43,-2.39 31.96,-4.17 49.66,-5.34l0 -6.45c0,-9.45 -1.22,-17.34 -3.66,-23.55 -2.42,-6.24 -5.89,-11.15 -10.4,-14.7 -4.34,-3.38 -9.51,-5.69 -15.53,-6.86 -6.07,-1.2 -12.36,-1.79 -18.95,-1.79 -7.98,0 -16.87,1.45 -26.67,4.31 -9.81,2.9 -19.95,7.07 -30.4,12.57l-1.62 0 0 -42.46c5.9,-2.25 14.48,-4.68 25.72,-7.33 11.18,-2.68 22.25,-4.03 33.13,-4.03 12.71,0 23.81,1.44 33.23,4.39 9.45,2.86 17.6,7.75 24.5,14.74 6.81,6.86 11.96,15.65 15.53,26.45 3.55,10.84 5.33,24.24 5.33,40.24l0 168.54z"/>
  <path class="fil1" d="M6538.89 3005.03l0 -142.51c-8.2,-5.02 -15.52,-8.49 -21.99,-10.44 -6.45,-1.92 -13.53,-2.92 -21.2,-2.92 -17.04,0 -30.27,8.2 -39.77,24.51 -9.49,16.3 -14.22,39.43 -14.22,69.34 0,29.51 3.65,51.96 10.97,67.28 7.38,15.34 19.13,22.98 35.26,22.98 8.62,0 17.39,-2.61 26.19,-7.86 8.84,-5.25 17.08,-12.05 24.76,-20.38zm30.4 61.16l-30.4 0 0 -25.99c-8.76,10.38 -17.86,18.43 -27.32,24.2 -9.5,5.82 -19.77,8.68 -30.88,8.68 -21.6,0 -38.69,-11.37 -51.35,-34.27 -12.66,-22.77 -18.99,-54.44 -18.99,-94.88 0,-21.05 2.16,-39.82 6.54,-56.29 4.34,-16.44 10.24,-30.45 17.7,-42.03 7.33,-11.24 15.87,-19.86 25.63,-25.76 9.75,-5.95 19.86,-8.95 30.31,-8.95 9.49,0 17.86,1.44 25.24,4.14 7.32,2.75 15.04,7.01 23.11,12.79l0 -107.6 30.4 0 0 345.96z"/>
  <path class="fil1" d="M6750.7 2914.31c-0.08,-21.91 -4.08,-38.86 -12.02,-50.92 -7.93,-11.98 -19.99,-18 -36.12,-18 -16.31,0 -29.27,6.63 -38.91,19.77 -9.66,13.24 -15.13,29.58 -16.43,49.15l103.48 0zm29.62 32.04l-133.1 0c0,15.25 1.7,28.57 5.04,39.91 3.33,11.35 7.9,20.63 13.74,27.91 5.6,7.12 12.24,12.46 19.95,16.02 7.72,3.55 16.21,5.33 25.5,5.33 12.27,0 24.64,-3.39 37.08,-10.12 12.46,-6.72 21.34,-13.4 26.59,-19.9l1.65 0 0 45.59c-10.24,5.9 -20.73,10.88 -31.4,14.87 -10.67,3.98 -21.86,6.04 -33.61,6.04 -29.97,0 -53.39,-11.2 -70.17,-33.45 -16.82,-22.33 -25.24,-54.04 -25.24,-95.1 0,-40.6 8.06,-72.87 24.15,-96.71 16.13,-23.85 37.34,-35.83 63.66,-35.83 24.33,0 43.16,9.81 56.35,29.38 13.22,19.55 19.82,47.36 19.82,83.39l0 22.68z"/>
  <polygon class="fil1" points="7159.71,3066.19 7127.66,3066.19 7127.66,2780.9 7060.75,2975.07 7041.66,2975.07 6975.17,2780.9 6975.17,3066.19 6945.25,3066.19 6945.25,2735.11 6988.93,2735.11 7053.15,2919.43 7115.22,2735.11 7159.71,2735.11 "/>
  <path class="fil1" d="M7344.5 2942.14c0,-32.18 -4.54,-56.06 -13.74,-71.69 -9.16,-15.69 -21.9,-23.47 -38.17,-23.47 -16.48,0 -29.27,7.78 -38.38,23.47 -9.11,15.63 -13.66,39.51 -13.66,71.69 0,31.14 4.54,54.74 13.74,70.81 9.16,16.09 21.94,24.08 38.3,24.08 16.17,0 28.88,-7.93 38.08,-23.86 9.23,-15.95 13.83,-39.64 13.83,-71.03zm31.4 0c0,40.46 -7.54,72.42 -22.68,95.8 -15.05,23.47 -35.31,35.13 -60.63,35.13 -25.55,0 -45.85,-11.66 -60.84,-35.13 -15.04,-23.38 -22.59,-55.35 -22.59,-95.8 0,-40.51 7.55,-72.46 22.59,-95.96 15,-23.46 35.29,-35.28 60.84,-35.28 25.32,0 45.58,11.81 60.63,35.28 15.13,23.5 22.68,55.46 22.68,95.96z"/>
  <path class="fil1" d="M7535.63 2863.4l-1.62 0c-4.5,-1.48 -8.88,-2.51 -13.14,-3.21 -4.28,-0.66 -9.32,-0.99 -15.13,-0.99 -9.36,0 -18.43,2.86 -27.14,8.58 -8.77,5.68 -17.17,13.11 -25.24,22.12l0 176.3 -30.4 0 0 -248.33 30.4 0 0 36.63c12.05,-13.31 22.68,-22.77 31.92,-28.3 9.25,-5.57 18.65,-8.34 28.24,-8.34 5.24,0 9.1,0.16 11.44,0.52 2.38,0.39 5.93,1.12 10.67,2.11l0 42.9z"/>
  <path class="fil1" d="M7691.88 2941.23c0,-29.61 -3.57,-52.14 -10.72,-67.47 -7.1,-15.35 -18.56,-23.03 -34.44,-23.03 -8.85,0 -17.78,2.64 -26.84,7.88 -9.06,5.3 -17.43,12.06 -25.24,20.4l0 142.28c8.68,5.34 16.06,9.01 22.25,11.1 6.2,2.08 13.23,3.13 21.12,3.13 16.83,0 29.97,-7.65 39.51,-22.77 9.58,-15.23 14.36,-39.1 14.36,-71.53zm31.35 -1.12c0,20.8 -2.12,39.45 -6.37,56.02 -4.31,16.65 -10.02,30.57 -17.28,41.81 -7.62,11.7 -16.04,20.52 -25.19,26.38 -9.19,5.84 -19.26,8.75 -30.27,8.75 -10.23,0 -19.17,-1.66 -26.84,-5 -7.64,-3.33 -15.18,-7.8 -22.65,-13.42l-1.9 11.53 -28.45 0 0 -345.96 30.35 0 0 123.61c8.55,-9.59 17.62,-17.53 27.19,-23.68 9.59,-6.12 20.38,-9.25 32.36,-9.25 21.34,0 38.16,11.28 50.52,33.83 12.35,22.53 18.51,54.35 18.51,95.39z"/>
  <path class="fil1" d="M7801.34 3066.19l-30.4 0 0 -248.33 30.4 0 0 248.33zm1.91 -289.93l-34.26 0 0 -43.35 34.26 0 0 43.35z"/>
  <polygon class="fil1" points="7861.8,3066.19 7892.24,3066.19 7892.24,2720.23 7861.8,2720.23 "/>
  <path class="fil1" d="M7983.1 3066.19l-30.4 0 0 -248.33 30.4 0 0 248.33zm1.9 -289.93l-34.26 0 0 -43.35 34.26 0 0 43.35z"/>
  <path class="fil1" d="M8159.34 3005.03l0 -142.51c-8.19,-5.02 -15.52,-8.49 -21.98,-10.44 -6.47,-1.92 -13.54,-2.92 -21.17,-2.92 -17.04,0 -30.31,8.2 -39.8,24.51 -9.51,16.3 -14.23,39.43 -14.23,69.34 0,29.51 3.69,51.96 11.02,67.28 7.32,15.34 19.08,22.98 35.26,22.98 8.58,0 17.34,-2.61 26.19,-7.86 8.84,-5.25 17.09,-12.05 24.71,-20.38zm30.4 61.16l-30.4 0 0 -25.99c-8.71,10.38 -17.81,18.43 -27.32,24.2 -9.5,5.82 -19.77,8.68 -30.88,8.68 -21.6,0 -38.69,-11.37 -51.35,-34.27 -12.66,-22.77 -18.99,-54.44 -18.99,-94.88 0,-21.05 2.16,-39.82 6.55,-56.29 4.34,-16.44 10.28,-30.45 17.69,-42.03 7.32,-11.24 15.87,-19.86 25.63,-25.76 9.76,-5.95 19.87,-8.95 30.31,-8.95 9.51,0 17.91,1.44 25.24,4.14 7.32,2.75 15.04,7.01 23.11,12.79l0 -107.6 30.4 0 0 345.96z"/>
  <path class="fil1" d="M8359.71 3005.03l0 -69.14c-9.28,0.75 -20.17,1.87 -32.74,3.35 -12.53,1.52 -22.51,3.61 -29.84,6.46 -8.75,3.39 -15.78,8.68 -21.2,15.89 -5.37,7.19 -8.06,17.13 -8.06,29.69 0,14.24 3.12,24.95 9.4,32.14 6.24,7.17 15.75,10.77 28.58,10.77 10.67,0 20.43,-2.82 29.28,-8.55 8.84,-5.73 17.04,-12.57 24.59,-20.6zm30.23 61.16l-30.23 0 0 -26.46c-2.69,2.51 -6.33,6.06 -10.92,10.59 -4.57,4.54 -9.03,8.09 -13.32,10.75 -5.07,3.42 -10.92,6.28 -17.48,8.57 -6.58,2.31 -14.31,3.44 -23.11,3.44 -16.32,0 -30.11,-7.39 -41.42,-22.21 -11.32,-14.84 -16.97,-33.75 -16.97,-56.74 0,-18.77 2.95,-34.03 8.8,-45.71 5.9,-11.57 14.28,-20.76 25.17,-27.4 10.97,-6.71 24.19,-11.19 39.58,-13.57 15.44,-2.39 31.96,-4.17 49.66,-5.34l0 -6.45c0,-9.45 -1.22,-17.34 -3.65,-23.55 -2.42,-6.24 -5.89,-11.15 -10.4,-14.7 -4.34,-3.38 -9.5,-5.69 -15.52,-6.86 -6.07,-1.2 -12.37,-1.79 -18.96,-1.79 -7.97,0 -16.87,1.45 -26.66,4.31 -9.82,2.9 -19.95,7.07 -30.4,12.57l-1.61 0 0 -42.46c5.93,-2.25 14.48,-4.68 25.72,-7.33 11.19,-2.68 22.25,-4.03 33.13,-4.03 12.71,0 23.81,1.44 33.22,4.39 9.45,2.86 17.6,7.75 24.5,14.74 6.81,6.86 11.96,15.65 15.52,26.45 3.55,10.84 5.34,24.24 5.34,40.24l0 168.54z"/>
  <path class="fil1" d="M8564.63 3005.03l0 -142.51c-8.25,-5.02 -15.58,-8.49 -22.05,-10.44 -6.45,-1.92 -13.52,-2.92 -21.2,-2.92 -17.04,0 -30.27,8.2 -39.77,24.51 -9.49,16.3 -14.22,39.43 -14.22,69.34 0,29.51 3.65,51.96 10.98,67.28 7.36,15.34 19.12,22.98 35.29,22.98 8.6,0 17.34,-2.61 26.16,-7.86 8.84,-5.25 17.13,-12.05 24.81,-20.38zm30.35 61.16l-30.35 0 0 -25.99c-8.82,10.38 -17.91,18.43 -27.38,24.2 -9.49,5.82 -19.77,8.68 -30.87,8.68 -21.6,0 -38.69,-11.37 -51.35,-34.27 -12.66,-22.77 -18.99,-54.44 -18.99,-94.88 0,-21.05 2.16,-39.82 6.54,-56.29 4.34,-16.44 10.25,-30.45 17.71,-42.03 7.32,-11.24 15.87,-19.86 25.63,-25.76 9.75,-5.95 19.85,-8.95 30.31,-8.95 9.49,0 17.86,1.44 25.24,4.14 7.32,2.75 15.04,7.01 23.16,12.79l0 -107.6 30.35 0 0 345.96z"/>
  <polygon class="fil1" points="8988.08,3066.19 8956.06,3066.19 8956.06,2780.9 8889.15,2975.07 8870.07,2975.07 8803.59,2780.9 8803.59,3066.19 8773.65,3066.19 8773.65,2735.11 8817.33,2735.11 8881.52,2919.43 8943.62,2735.11 8988.08,2735.11 "/>
  <path class="fil1" d="M9160.5 3005.03l0 -69.14c-9.28,0.75 -20.21,1.87 -32.74,3.35 -12.57,1.52 -22.55,3.61 -29.88,6.46 -8.71,3.39 -15.78,8.68 -21.16,15.89 -5.39,7.19 -8.08,17.13 -8.08,29.69 0,14.24 3.12,24.95 9.37,32.14 6.24,7.17 15.78,10.77 28.63,10.77 10.67,0 20.42,-2.82 29.22,-8.55 8.9,-5.73 17.09,-12.57 24.63,-20.6zm30.23 61.16l-30.23 0 0 -26.46c-2.72,2.51 -6.37,6.06 -10.92,10.59 -4.6,4.54 -9.03,8.09 -13.35,10.75 -5.08,3.42 -10.89,6.28 -17.45,8.57 -6.58,2.31 -14.31,3.44 -23.11,3.44 -16.3,0 -30.1,-7.39 -41.42,-22.21 -11.32,-14.84 -17,-33.75 -17,-56.74 0,-18.77 2.95,-34.03 8.8,-45.71 5.9,-11.57 14.27,-20.76 25.15,-27.4 11.03,-6.71 24.25,-11.19 39.64,-13.57 15.44,-2.39 31.96,-4.17 49.65,-5.34l0 -6.45c0,-9.45 -1.25,-17.34 -3.63,-23.55 -2.44,-6.24 -5.9,-11.15 -10.42,-14.7 -4.34,-3.38 -9.49,-5.69 -15.56,-6.86 -6.04,-1.2 -12.32,-1.79 -18.91,-1.79 -7.99,0 -16.88,1.45 -26.72,4.31 -9.75,2.9 -19.95,7.07 -30.36,12.57l-1.65 0 0 -42.46c5.94,-2.25 14.53,-4.68 25.72,-7.33 11.23,-2.68 22.29,-4.03 33.18,-4.03 12.7,0 23.76,1.44 33.22,4.39 9.42,2.86 17.57,7.75 24.5,14.74 6.81,6.86 11.97,15.65 15.52,26.45 3.55,10.84 5.34,24.24 5.34,40.24l0 168.54z"/>
  <path class="fil1" d="M9343.05 3063.97c-5.73,2.08 -11.97,3.78 -18.7,5.11 -6.72,1.34 -12.74,2.03 -18.04,2.03 -18.44,0 -32.44,-6.85 -42.03,-20.47 -9.58,-13.64 -14.4,-35.52 -14.4,-65.61l0 -132.11 -20.51 0 0 -35.07 20.51 0 0 -71.4 30.4 0 0 71.4 62.76 0 0 35.07 -62.76 0 0 113.24c0,13.02 0.22,23.21 0.65,30.58 0.43,7.33 1.96,14.18 4.55,20.51 2.35,5.95 5.64,10.33 9.76,13.02 4.17,2.78 10.44,4.11 19.04,4.11 4.94,0 10.1,-0.99 15.48,-2.98 5.39,-1.99 9.28,-3.66 11.67,-5.02l1.61 0 0 37.59z"/>
  <path class="fil1" d="M9501.34 2914.31c-0.09,-21.91 -4.12,-38.86 -12.01,-50.92 -7.94,-11.98 -20,-18 -36.13,-18 -16.3,0 -29.27,6.63 -38.95,19.77 -9.63,13.24 -15.09,29.58 -16.39,49.15l103.47 0zm29.62 32.04l-133.09 0c0,15.25 1.68,28.57 5.02,39.91 3.35,11.35 7.89,20.63 13.74,27.91 5.59,7.12 12.23,12.46 19.95,16.02 7.72,3.55 16.21,5.33 25.5,5.33 12.28,0 24.63,-3.39 37.09,-10.12 12.44,-6.72 21.33,-13.4 26.63,-19.9l1.6 0 0 45.59c-10.28,5.9 -20.73,10.88 -31.4,14.87 -10.67,3.98 -21.85,6.04 -33.61,6.04 -29.97,0 -53.39,-11.2 -70.17,-33.45 -16.83,-22.33 -25.24,-54.04 -25.24,-95.1 0,-40.6 8.06,-72.87 24.15,-96.71 16.13,-23.85 37.34,-35.83 63.67,-35.83 24.33,0 43.15,9.81 56.32,29.38 13.2,19.55 19.82,47.36 19.82,83.39l0 22.68z"/>
  <path class="fil1" d="M9689.73 2863.4l-1.61 0c-4.54,-1.48 -8.88,-2.51 -13.18,-3.21 -4.31,-0.66 -9.33,-0.99 -15.15,-0.99 -9.32,0 -18.38,2.86 -27.15,8.58 -8.76,5.68 -17.13,13.11 -25.24,22.12l0 176.3 -30.4 0 0 -248.33 30.4 0 0 36.63c12.09,-13.31 22.72,-22.77 31.96,-28.3 9.23,-5.57 18.6,-8.34 28.19,-8.34 5.28,0 9.11,0.16 11.5,0.52 2.38,0.39 5.93,1.12 10.66,2.11l0 42.9z"/>
  <path class="fil1" d="M9869.4 3066.19l-30.44 0 0 -141.44c0,-11.35 -0.44,-22.08 -1.44,-32.09 -0.95,-10.02 -2.73,-17.82 -5.34,-23.46 -2.68,-6.2 -6.54,-10.87 -11.62,-13.87 -5.08,-3.04 -11.67,-4.6 -19.78,-4.6 -8.28,0 -16.95,2.85 -25.98,8.46 -9.06,5.67 -17.74,12.82 -26.06,21.59l0 185.4 -30.4 0 0 -248.33 30.4 0 0 27.54c9.51,-10.8 19.34,-19.26 29.45,-25.37 10.1,-6.04 20.55,-9.12 31.23,-9.12 19.47,0 34.39,8.11 44.63,24.24 10.18,16.18 15.35,39.48 15.35,69.84l0 161.21z"/>
  <path class="fil1" d="M10038.07 3005.03l0 -69.14c-9.28,0.75 -20.21,1.87 -32.75,3.35 -12.57,1.52 -22.51,3.61 -29.84,6.46 -8.71,3.39 -15.78,8.68 -21.16,15.89 -5.42,7.19 -8.11,17.13 -8.11,29.69 0,14.24 3.12,24.95 9.4,32.14 6.21,7.17 15.74,10.77 28.58,10.77 10.67,0 20.47,-2.82 29.29,-8.55 8.84,-5.73 17.04,-12.57 24.59,-20.6zm30.23 61.16l-30.23 0 0 -26.46c-2.7,2.51 -6.33,6.06 -10.93,10.59 -4.56,4.54 -9.02,8.09 -13.31,10.75 -5.13,3.42 -10.89,6.28 -17.48,8.57 -6.59,2.31 -14.31,3.44 -23.11,3.44 -16.31,0 -30.05,-7.39 -41.42,-22.21 -11.32,-14.84 -17,-33.75 -17,-56.74 0,-18.77 2.99,-34.03 8.8,-45.71 5.91,-11.57 14.31,-20.76 25.2,-27.4 10.97,-6.71 24.2,-11.19 39.64,-13.57 15.39,-2.39 31.91,-4.17 49.62,-5.34l0 -6.45c0,-9.45 -1.22,-17.34 -3.66,-23.55 -2.38,-6.24 -5.89,-11.15 -10.4,-14.7 -4.34,-3.38 -9.51,-5.69 -15.53,-6.86 -6.07,-1.2 -12.36,-1.79 -18.95,-1.79 -7.98,0 -16.87,1.45 -26.67,4.31 -9.81,2.9 -19.95,7.07 -30.36,12.57l-1.68 0 0 -42.46c5.93,-2.25 14.52,-4.68 25.72,-7.33 11.23,-2.68 22.29,-4.03 33.17,-4.03 12.71,0 23.81,1.44 33.26,4.39 9.37,2.86 17.57,7.75 24.46,14.74 6.81,6.86 11.96,15.65 15.53,26.45 3.55,10.84 5.33,24.24 5.33,40.24l0 168.54z"/>
  <path class="fil1" d="M10420.66 2971.73c0,12.85 -2.18,25.63 -6.56,38.21 -4.37,12.61 -10.5,23.28 -18.34,32.05 -8.63,9.45 -18.65,16.87 -30.14,22.2 -11.53,5.35 -25.33,8.02 -41.51,8.02 -17.39,0 -32.96,-2.25 -46.79,-6.67 -13.87,-4.46 -27.97,-11.01 -42.33,-19.77l0 -55.15 2.3 0c12.14,13.92 26.24,24.67 42.2,32.22 15.96,7.6 30.92,11.36 44.97,11.36 19.82,0 35.26,-5.13 46.32,-15.36 11.05,-10.23 16.56,-23.8 16.56,-40.88 0,-14.72 -2.64,-25.5 -7.84,-32.48 -5.25,-6.94 -13.18,-12.36 -23.85,-16.22 -8.06,-2.95 -16.83,-5.37 -26.28,-7.34 -9.42,-1.9 -19.44,-4.34 -29.97,-7.32 -21.38,-6.19 -37.21,-16.87 -47.49,-31.92 -10.27,-15.06 -15.44,-34.65 -15.44,-58.81 0,-27.72 8.55,-50.42 25.54,-68.12 17.06,-17.74 38.69,-26.61 64.84,-26.61 16.96,0 32.44,2.25 46.63,6.7 14.09,4.45 26.58,9.92 37.51,16.43l0 52.05 -2.3 0c-9.14,-10.68 -21.2,-19.52 -36.12,-26.6 -14.97,-7.01 -30.23,-10.54 -45.89,-10.54 -17.09,0 -30.88,4.86 -41.28,14.67 -10.42,9.76 -15.61,22.39 -15.61,37.82 0,13.76 2.55,24.6 7.8,32.44 5.15,7.84 14.26,13.87 27.28,18.03 6.93,2.09 16.69,4.57 29.44,7.55 12.71,2.95 23.5,6 32.31,9.11 17.91,6.54 31.4,16.35 40.47,29.58 9.06,13.2 13.57,31.67 13.57,55.39z"/>
  <path class="fil1" d="M10591.26 2914.31c-0.12,-21.91 -4.11,-38.86 -12.06,-50.92 -7.93,-11.98 -19.94,-18 -36.12,-18 -16.26,0 -29.23,6.63 -38.9,19.77 -9.62,13.24 -15.09,29.58 -16.43,49.15l103.52 0zm29.58 32.04l-133.1 0c0,15.25 1.69,28.57 5.07,39.91 3.3,11.35 7.89,20.63 13.71,27.91 5.59,7.12 12.27,12.46 19.99,16.02 7.72,3.55 16.18,5.33 25.46,5.33 12.27,0 24.63,-3.39 37.08,-10.12 12.45,-6.72 21.34,-13.4 26.63,-19.9l1.61 0 0 45.59c-10.27,5.9 -20.68,10.88 -31.36,14.87 -10.67,3.98 -21.9,6.04 -33.61,6.04 -30.01,0 -53.39,-11.2 -70.21,-33.45 -16.79,-22.33 -25.24,-54.04 -25.24,-95.1 0,-40.6 8.06,-72.87 24.19,-96.71 16.09,-23.85 37.3,-35.83 63.62,-35.83 24.33,0 43.15,9.81 56.34,29.38 13.18,19.55 19.82,47.36 19.82,83.39l0 22.68z"/>
  <polygon class="fil1" points="10823.15,2817.86 10750.03,3066.19 10719.46,3066.19 10646.87,2817.86 10679.86,2817.86 10735.81,3015.49 10791.28,2817.86 "/>
  <path class="fil1" d="M10981.63 2914.31c-0.14,-21.91 -4.17,-38.86 -12.06,-50.92 -7.94,-11.98 -19.95,-18 -36.13,-18 -16.3,0 -29.27,6.63 -38.9,19.77 -9.62,13.24 -15.1,29.58 -16.43,49.15l103.52 0zm29.58 32.04l-133.09 0c0,15.25 1.64,28.57 5.02,39.91 3.35,11.35 7.89,20.63 13.74,27.91 5.59,7.12 12.23,12.46 19.95,16.02 7.72,3.55 16.23,5.33 25.5,5.33 12.28,0 24.63,-3.39 37.09,-10.12 12.44,-6.72 21.29,-13.4 26.58,-19.9l1.65 0 0 45.59c-10.28,5.9 -20.68,10.88 -31.35,14.87 -10.67,3.98 -21.91,6.04 -33.66,6.04 -29.97,0 -53.39,-11.2 -70.21,-33.45 -16.8,-22.33 -25.2,-54.04 -25.2,-95.1 0,-40.6 8.06,-72.87 24.2,-96.71 16.08,-23.85 37.29,-35.83 63.62,-35.83 24.33,0 43.15,9.81 56.38,29.38 13.14,19.55 19.77,47.36 19.77,83.39l0 22.68z"/>
  <path class="fil1" d="M11170.01 2863.4l-1.65 0c-4.51,-1.48 -8.88,-2.51 -13.18,-3.21 -4.26,-0.66 -9.28,-0.99 -15.13,-0.99 -9.37,0 -18.39,2.86 -27.16,8.58 -8.71,5.68 -17.12,13.11 -25.24,22.12l0 176.3 -30.4 0 0 -248.33 30.4 0 0 36.63c12.09,-13.31 22.77,-22.77 31.96,-28.3 9.23,-5.57 18.6,-8.34 28.23,-8.34 5.24,0 9.1,0.16 11.49,0.52 2.35,0.39 5.9,1.12 10.67,2.11l0 42.9z"/>
  <path class="fil1" d="M11302.94 3005.03l0 -69.14c-9.28,0.75 -20.21,1.87 -32.79,3.35 -12.54,1.52 -22.46,3.61 -29.8,6.46 -8.71,3.39 -15.78,8.68 -21.16,15.89 -5.42,7.19 -8.11,17.13 -8.11,29.69 0,14.24 3.12,24.95 9.36,32.14 6.25,7.17 15.78,10.77 28.62,10.77 10.67,0 20.43,-2.82 29.29,-8.55 8.84,-5.73 17,-12.57 24.59,-20.6zm30.23 61.16l-30.23 0 0 -26.46c-2.7,2.51 -6.33,6.06 -10.93,10.59 -4.55,4.54 -9.02,8.09 -13.31,10.75 -5.11,3.42 -10.89,6.28 -17.52,8.57 -6.55,2.31 -14.27,3.44 -23.12,3.44 -16.26,0 -30.04,-7.39 -41.37,-22.21 -11.32,-14.84 -17,-33.75 -17,-56.74 0,-18.77 2.95,-34.03 8.8,-45.71 5.91,-11.57 14.31,-20.76 25.2,-27.4 10.97,-6.71 24.16,-11.19 39.6,-13.57 15.39,-2.39 31.96,-4.17 49.66,-5.34l0 -6.45c0,-9.45 -1.22,-17.34 -3.64,-23.55 -2.44,-6.24 -5.95,-11.15 -10.46,-14.7 -4.29,-3.38 -9.49,-5.69 -15.48,-6.86 -6.07,-1.2 -12.4,-1.79 -18.95,-1.79 -7.98,0 -16.87,1.45 -26.67,4.31 -9.84,2.9 -19.95,7.07 -30.4,12.57l-1.62 0 0 -42.46c5.9,-2.25 14.45,-4.68 25.68,-7.33 11.23,-2.68 22.29,-4.03 33.17,-4.03 12.71,0 23.81,1.44 33.26,4.39 9.37,2.86 17.57,7.75 24.46,14.74 6.76,6.86 11.98,15.65 15.53,26.45 3.55,10.84 5.33,24.24 5.33,40.24l0 168.54z"/>
  <path class="fil2" d="M2214.89 2433.44c-1223.51,0 -2214.89,-25.67 -2214.89,-57.97 0,-31.96 991.39,-57.56 2214.89,-57.56l3071.87 0 0 115.54 -3071.87 0z"/>
  <path class="fil3" d="M9216.02 2317.9c1224.54,0 2217.5,25.6 2217.5,58.04 0,31.83 -992.96,57.5 -2217.5,57.5l-3075.42 0 0 -115.54 3075.42 0z"/>
 </g>
</svg>
