<?xml version="1.0" encoding="UTF-8"?>
<svg version="1.1" id="Layer_1" xmlns="http://www.w3.org/2000/svg" xmlns:xlink="http://www.w3.org/1999/xlink" x="0px" y="0px" viewBox="0 0 2441 614" style="enable-background:new 0 0 2441 614;" xml:space="preserve">
<style type="text/css">
	.st0{fill:#818285;}
</style>
<g id="Capa_x0020_1">
	<polygon class="st0" points="26.1,126.4 135.6,126.4 135.6,142.1 26.1,142.1 26.1,220.1 0.4,220.1 0.4,49.4 138.6,49.4 138.6,66.1    26.1,66.1  "/>
	<path class="st0" d="M436.7,49.4v123.4c0,45.4-36.5,49.4-88.8,49.4c-49.4,0-89.8-1-89.8-49.4V49.4h25.7v123.4   c0,27.6,8.9,31.6,64.2,31.6c45.4,0,63.2,0,63.2-31.6V49.4H436.7z"/>
	<polygon class="st0" points="764.4,220.1 722,220.1 595.6,65.2 594.7,65.2 594.7,220.1 569,220.1 569,49.4 611.4,49.4 737.8,205.3    738.8,205.3 738.8,49.4 764.4,49.4  "/>
	<path class="st0" d="M893.8,49.4h110.6c26.7,0,77,3,77,66.1V156c0,16.8-3.9,64.2-71.1,64.2H893.8V49.4z M1004.3,202.4   c44.4,0,51.3-19.7,51.3-49.4v-45.4c0-8.9-3.9-41.5-47.4-41.5h-87.9v136.2H1004.3z"/>
	<path class="st0" d="M1232.3,183.6l-16.8,36.5h-27.6l82.9-170.8h35.5l84.9,170.8h-26.7l-17.8-36.5H1232.3z M1288.6,65.2   l-49.4,102.7h99.7L1288.6,65.2z"/>
	<path class="st0" d="M1562,221.1c-41.5,0-65.2-19.7-65.2-53.3v-66.1c0-48.4,39.5-53.3,93.8-53.3h21.7c47.4,0,61.2,15.8,61.2,48.4   v5.9h-25.7v-4.9c0-23.7-6.9-32.6-39.5-32.6h-14.8c-52.3,0-71.1,3.9-71.1,35.5v46.4c0,38.5,2,57.3,44.4,57.3h30.6   c40.5,0,53.3-4.9,53.3-28.6v-13.8h25.7v15.8c0,39.5-32.6,43.4-78,43.4H1562z"/>
	<rect x="1795" y="49.4" class="st0" width="25.7" height="170.4"/>
	<path class="st0" d="M2048.7,48.4c56.3,0,74,13.8,74,56.3v61.2c0,40.5-19.7,55.3-74,55.3h-29.6c-54.3,0-74-14.8-74-55.3v-61.2   c0-42.4,17.8-56.3,74-56.3H2048.7z M2019.1,65.2c-38.5,0-48.4,7.9-48.4,40.5v61.2c0,33.6,14.8,37.5,48.4,37.5h29.6   c32.6,0,48.4-3.9,48.4-37.5v-61.2c0-32.6-9.9-40.5-48.4-40.5H2019.1z M2062.5,11.8l-49.4,23.7l-7.9-9.9L2050.7,0L2062.5,11.8z"/>
	<polygon class="st0" points="2440.6,220.1 2398.2,220.1 2271.8,65.2 2270.8,65.2 2270.8,220.1 2245.1,220.1 2245.1,49.4    2287.6,49.4 2414,205.3 2414.9,205.3 2414.9,49.4 2440.6,49.4  "/>
	<g>
		<path d="M1797,418.5c3.9-3.9,8.9-8.9,12.8-11.8c12.8-16.8,28.6-33.6,44.4-48.4c5.9-5.9,12.8-11.8,18.8-17.8    c7.9-11.8,17.8-20.7,28.6-29.6c5.9-5.9,11.8-11.8,16.8-17.8c4.9-3.9,11.8-6.9,15.8-10.9c4.9,0,3.9-1,5.9,3    c6.9,12.8-23.7,24.7-28.6,31.6c0,1,0,1-1,1c1,1,2,2,3,3c17.8,3.9,29.6-14.8,35.5-27.6c3-4.9,6.9-14.8,2-20.7    c-3.9-6.9-10.9-9.9-22.7-8.9c-3.9,1-8.9,2-12.8,3.9c-10.9,4.9-20.7,12.8-30.6,18.8c-7.9,5.9-13.8,14.8-20.7,20.7    c-19.7,14.8-38.5,34.5-54.3,54.3c-3.9,3.9-6.9,6.9-10.9,9.9c-14.8,19.7-33.6,36.5-49.4,56.3c-16.8,22.7-37.5,43.4-54.3,66.1    c-7.9,6.9-13.8,13.8-21.7,20.7c-7.9,10.9-23.7,29.6-34.5,37.5c-15.8,11.8-31.6,29.6-53.3,35.5c-21.7,5.9-33.6-12.8-39.5-23.7    c-2-3.9-6.9-11.8-3.9-16.8c3.9-8.9,20.7-4.9,27.6-10.9h1v-2c-29.6-7.9-41.5,0-57.3,16.8c0,30.6,25.7,48.4,48.4,57.3    c6.9,3,18.8,7.9,30.6,4.9c18.8-4.9,33.6-15.8,47.4-25.7c4.9-4.9,9.9-9.9,14.8-14.8c18.8-13.8,35.5-31.6,49.4-50.3    c3-3,6.9-5.9,9.9-8.9c15.8-20.7,35.5-38.5,51.3-60.2C1775.3,441.3,1787.1,430.4,1797,418.5L1797,418.5z M1127.7,398.8    c5.9-6.9,11.8-11.8,17.8-18.8c15.8-20.7,37.5-38.5,53.3-60.2c6.9-8.9,11.8-17.8,18.8-26.7c0-3,0-5.9-1-7.9    c-1-4.9-4.9-6.9-10.9-7.9c-5.9,3.9-12.8,4.9-17.8,8.9c-3.9,3.9-5.9,8.9-8.9,12.8c-5.9,7.9-14.8,14.8-21.7,23.7    c-3,2-6.9,5.9-9.9,8.9c-15.8,21.7-36.5,39.5-53.3,61.2c-7.9,6.9-13.8,13.8-21.7,20.7c-18.8,25.7-42.4,46.4-62.2,72.1    c-6.9,6.9-13.8,12.8-20.7,19.7c-14.8,20.7-35.5,36.5-50.3,57.3c-3,4.9-9.9,17.8-3.9,24.7c2,3.9,5.9,3.9,9.9,6.9    c20.7,0,27.6-15.8,37.5-28.6c10.9-14.8,24.7-28.6,36.5-44.4c15.8-21.7,37.5-40.5,54.3-62.2c3-3,6.9-4.9,8.9-7.9    C1097.1,432.4,1113.9,416.6,1127.7,398.8L1127.7,398.8z M1927.3,437.3c3.9-3,7.9-6.9,11.8-9.9c12.8-17.8,28.6-31.6,42.4-49.4    c3-3,5.9-5.9,9.9-8.9c10.9-14.8,24.7-27.6,35.5-42.4c5.9-6.9,15.8-12.8,18.8-22.7c3.9-3,3-10.9-1-14.8c-2-3-2-3-3.9-3.9    c-2-1-3.9-1-6.9-1c-18.8,14.8-35.5,32.6-50.3,51.3c-4.9,4.9-10.9,9.9-15.8,14.8c-9.9,12.8-22.7,23.7-32.6,36.5    c-10.9,11.8-21.7,22.7-33.6,33.6c-23.7,31.6-55.3,56.3-79,87.9c-15.8,19.7-63.2,49.4-59.2,81.9h1c4.9,3.9,18.8,4.9,24.7,1    c6.9-3.9,11.8-13.8,16.8-19.7c8.9-11.8,22.7-23.7,33.6-35.5c17.8-20.7,37.5-39.5,54.3-61.2C1903.6,461,1917.4,450.1,1927.3,437.3    L1927.3,437.3z M458.4,303.1c-6.9,4.9-20.7,1-28.6,3c-23.7,4.9-47.4,6.9-69.1,13.8c-63.2,20.7-124.4,40.5-181.6,64.2    c-33.6,13.8-65.2,24.7-92.8,42.4c-32.6,19.7-74,38.5-81.9,81.9c-1,3.9,1,9.9,2,12.8c8.9,31.6,34.5,40.5,64.2,52.3    c27.6,11.8,59.2,16.8,92.8,24.7c13.8,3.9,28.6-1,43.4,2c18.8,3.9,69.1,3,86.9-1h20.7c17.8-3.9,40.5-1,59.2-4.9h12.8    c14.8-3.9,33.6-3,48.4-4.9c9.9,1,19.7,1,29.6,1c5.9-1,8.9-5.9,12.8-8.9c0-9.9-1-12.8-5.9-19.7c-21.7-5.9-54.3-2-77,3    c-15.8,3.9-33.6,1-49.4,4.9c-17.8,1-35.5,2-53.3,3h-22.7c-13.8,3.9-51.3,3-66.1,0c-15.8-3-31.6,0-46.4-3    c-40.5-9.9-79-16.8-108.6-38.5c-5.9-3.9-7.9-11.8-12.8-16.8c-1-34.5,38.5-49.4,61.2-63.2c28.6-17.8,63.2-28.6,96.7-42.4    c47.4-19.7,98.7-36.5,148.1-55.3c24.7-8.9,51.3-12.8,79-19.7c5.9-2,23.7-4.9,28.6-1c3.9,0,3.9,1,6.9,2c0,8.9-3.9,13.8-7.9,18.8    c0,1,0,3,1,3.9c24.7,4.9,49.4-10.9,49.4-37.5C486.1,308,481.1,304,458.4,303.1L458.4,303.1z M1985.5,418.5    c4.9,3.9,5.9,9.9,12.8,11.8c3,3,10.9,3,13.8,0c9.9-3,16.8-17.8,15.8-30.6c-6.9-7.9-9.9-11.8-25.7-11.8    C1993.4,395.8,1985.5,400.8,1985.5,418.5L1985.5,418.5z M1222.5,451.1c-2-5.9-6.9-10.9-9.9-15.8c-8.9,0-10.9,1-15.8,3.9    c-1,7.9-1,18.8,3,23.7v1c-46.4,2-88.8,36.5-110.6,65.2c-9.9,13.8-22.7,35.5-8.9,55.3c12.8,17.8,51.3,6.9,68.1,1    c35.5-14.8,76-30.6,85.9-71.1c3-11.8-2-22.7-3-33.6c3.9,0,6.9-1,10.9-2v-2c-3.9-2-9.9-5.9-13.8-8.9    C1224.4,463,1224.4,456.1,1222.5,451.1L1222.5,451.1z M1199.8,516.3c-8.9,21.7-54.3,48.4-86.9,48.4c-2-2-4.9-3.9-6.9-4.9    c0-16.8,12.8-22.7,22.7-29.6c13.8-10.9,27.6-23.7,44.4-30.6c8.9-3.9,20.7-3.9,27.6-9.9h3C1203.7,500.5,1203.7,509.4,1199.8,516.3    L1199.8,516.3z M628.2,449.1c-4.9,2-12.8,1-17.8,3c-5.9,2-9.9,5.9-13.8,7.9c-1,3.9-3,7.9-1,11.8c2,4.9,4.9,5.9,8.9,8.9    c11.8,0,14.8-4.9,24.7-7.9c8.9,1,17.8,1,27.6,2c22.7,4.9,66.1,10.9,73,30.6h1c-1,1-1,3-1,3.9c-10.9-1-17.8-4.9-25.7-6.9    c-14.8-4.9-30.6-6.9-45.4-9.9c-5.9-1-12.8-1-18.8-1c-43.4-9.9-87.9,9.9-103.6,33.6c-4.9,6.9-16.8,28.6-13.8,43.4    c3.9,15.8,15.8,21.7,31.6,25.7H569c14.8,3,39.5-1,54.3-4.9c5.9,0,12.8,0,18.8-1c22.7-4.9,47.4-6.9,70.1-11.8    c16.8-4.9,35.5,1,47.4-5.9c4.9-10.9-1-15.8-6.9-23.7c-16.8-3.9-34.5-2-51.3,2c-12.8,2-25.7,3.9-38.5,5.9    c-29.6,7.9-75,17.8-106.6,7.9c-11.8-60.2,96.7-48.4,135.2-36.5c8.9,2,16.8,3.9,24.7,5.9c13.8,3.9,38.5,4.9,45.4-4.9    c11.8-17.8-3.9-34.5-12.8-42.4C723,458,680.5,447.2,628.2,449.1L628.2,449.1z M2423.8,472.8c-10.9-16.8-37.5-15.8-59.2-8.9    c-31.6,10.9-60.2,25.7-85.9,41.5c-13.8,8.9-30.6,14.8-41.5,25.7h-1c4.9-20.7,19.7-50.3,8.9-72.1c-20.7-3.9-36.5,3.9-50.3,9.9    c-29.6,11.8-57.3,24.7-82.9,40.5c-11.8,7.9-28.6,10.9-39.5,20.7h-3c5.9-11.8,17.8-19.7,25.7-29.6c4.9-6.9,6.9-14.8,12.8-21.7    c-1-5.9-3-7.9-4.9-11.8c-19.7-4.9-30.6-1-44.4,8.9c0,0,0,1,1,2c3,1,3.9,2,8.9,2v3.9c-20.7,18.8-34.5,44.4-55.3,64.2    c-9.9,10.9-23.7,16.8-23.7,38.5c1,1,2,3,3,3.9c16.8,6.9,45.4-5.9,58.2-12.8c52.3-27.6,104.6-55.3,157-82.9h3.9    c-8.9,24.7-12.8,57.3-29.6,75c0,6.9,0,12.8,3,16.8c2,1,3,3,4.9,3.9c21.7-1,36.5-15.8,51.3-25.7c28.6-18.8,57.3-37.5,87.9-54.3    c8.9-4.9,47.4-23.7,59.2-14.8c31.6,5.9,6.9,66.1,1,81.9c-2,6.9,0,9.9,3,13.8c2,1,3.9,2,4.9,3    C2439.6,594.3,2443.6,501.5,2423.8,472.8L2423.8,472.8z M1387.3,460c-4.9,3-11.8,3-17.8,5.9c-13.8,5.9-30.6,19.7-38.5,32.6    c-13.8,21.7-12.8,54.3-31.6,71.1c-18.8-1-30.6-13.8-40.5-24.7c-3.9,0-4.9,0-7.9,2c-2,2-2,2-3,4.9c-3,3.9-2,5.9-1,10.9    c8.9,8.9,14.8,19.7,26.7,25.7c3.9,2,9.9,4.9,14.8,5.9c8.9,2,18.8-1,24.7-3.9c39.5-13.8,22.7-63.2,48.4-88.8    c5.9-4.9,30.6-24.7,41.5-17.8c3,0,3,1,4.9,2c-1,6.9-4.9,14.8-2,18.8v2c3.9,2,8.9,2,11.8-1c8.9-3,15.8-20.7,8.9-32.6    C1419.9,462,1406.1,459,1387.3,460L1387.3,460z M967.8,480.7c3.9-1,4.9-5.9,3.9-8.9c-2-7.9-9.9-9.9-20.7-8.9c-3.9,3-9.9,1-14.8,3    c-11.8,3.9-36.5,11.8-45.4,18.8h-2c1-4.9,2-12.8-1-16.8c-2-2-2-2-4.9-3c-3.9-3-16.8-2-21.7,0c-12.8,3.9-53.3,16.8-57.3,26.7    c-1,1-1,1-1,2c1,2,2,2,2,3.9c6.9,1,36.5-4.9,42.4-8.9c6.9,0,6.9,1,10.9,3c0,25.7-31.6,49.4-45.4,64.2    c-7.9,7.9-16.8,11.8-16.8,27.6c2,3,4.9,4.9,6.9,7.9c25.7,5.9,34.5-13.8,45.4-29.6c18.8-23.7,41.5-50.3,67.1-66.1    c9.9-6.9,21.7-11.8,34.5-14.8H967.8z M1993.4,465.9c-3.9-2-5.9-3-10.9-3c-30.6,26.7-58.2,58.2-85.9,85.9    c-7.9,7.9-25.7,21.7-14.8,38.5c9.9,14.8,25.7-1,33.6-7.9c18.8-18.8,37.5-40.5,54.3-62.2c7.9-9.9,21.7-18.8,25.7-30.6    C1999.4,479.7,1994.4,469.9,1993.4,465.9z"/>
	</g>
</g>
</svg>