<?xml version="1.0" encoding="UTF-8"?>
<!DOCTYPE svg PUBLIC "-//W3C//DTD SVG 1.1//EN" "http://www.w3.org/Graphics/SVG/1.1/DTD/svg11.dtd">
<!-- Creator: CorelDRAW 2017 -->
<svg xmlns="http://www.w3.org/2000/svg" xml:space="preserve" width="44.2918mm" height="18.2156mm" version="1.1" style="shape-rendering:geometricPrecision; text-rendering:geometricPrecision; image-rendering:optimizeQuality; fill-rule:evenodd; clip-rule:evenodd"
viewBox="0 0 912.12 375.12"
 xmlns:xlink="http://www.w3.org/1999/xlink">
 <defs>
  <style type="text/css">
   <![CDATA[
    .str0 {stroke:#2D8C55;stroke-width:1.57;stroke-miterlimit:22.9256}
    .str1 {stroke:#D43A5A;stroke-width:1.57;stroke-miterlimit:22.9256}
    .fil4 {fill:none}
    .fil0 {fill:#2D8C55;fill-rule:nonzero}
    .fil2 {fill:#5C6061;fill-rule:nonzero}
    .fil3 {fill:#B4B1A8;fill-rule:nonzero}
    .fil1 {fill:#D43A5A;fill-rule:nonzero}
   ]]>
  </style>
 </defs>
 <g id="Capa_x0020_1">
  <metadata id="CorelCorpID_0Corel-Layer"/>
  <g id="_1448101691696">
   <path class="fil0 str0" d="M612.15 277.52c-36.35,0 -65.83,-0.78 -65.83,-1.73 0,-0.95 29.47,-1.72 65.83,-1.72l91.3 0 0 3.45 -91.3 0 0 0z"/>
   <path class="fil1 str1" d="M820.23 274.07c36.4,0 65.9,0.77 65.9,1.73 0,0.95 -29.5,1.72 -65.9,1.72l-91.41 0 0 -3.45 91.41 0 0 0z"/>
   <g>
    <path class="fil2" d="M548.05 358.31l0 -1.72 4.43 -0.26c4.64,-0.52 5.34,-2.33 5.34,-15.44l0 -29.85c0,-13.2 -0.81,-14.92 -5.34,-15.44l-4.43 -0.26 0 -1.73 28.02 0 0 1.73 -4.43 0.26c-4.64,0.52 -5.34,2.24 -5.34,15.44l0 29.85c0,13.11 0.71,14.92 5.34,15.44l4.43 0.26 0 1.72 -28.02 0z"/>
    <path id="1" class="fil2" d="M549.32 356.59l0 1.72 -2.54 0 0 -1.72 1.19 -1.26 1.34 1.26zm-2.54 0l0 -1.19 1.19 -0.07 -1.19 1.26zm5.78 1l-4.43 0.26 -0.15 -2.52 4.43 -0.26 0.22 2.51 -0.07 0.01zm0.07 -0.01l-0.04 0 -0.03 0 0.07 -0.01zm3.93 -16.7l2.54 0 0 0 -0 1.2 -0.01 1.14 -0.01 1.08 -0.02 1.02 -0.03 0.96 -0.03 0.91 -0.04 0.85 -0.05 0.8 -0.06 0.76 -0.07 0.71 -0.08 0.67 -0.09 0.62 -0.11 0.59 -0.12 0.55 -0.14 0.52 -0.16 0.49 -0.18 0.46 -0.2 0.43 -0.23 0.41 -0.26 0.38 -0.28 0.34 -0.31 0.32 -0.34 0.28 -0.35 0.24 -0.37 0.21 -0.39 0.18 -0.4 0.15 -0.41 0.13 -0.42 0.1 -0.43 0.08 -0.44 0.07 -0.46 0.06 -0.28 -2.51 0.39 -0.05 0.36 -0.06 0.33 -0.06 0.29 -0.07 0.27 -0.08 0.24 -0.09 0.2 -0.09 0.18 -0.11 0.17 -0.12 0.15 -0.12 0.14 -0.14 0.14 -0.17 0.13 -0.19 0.13 -0.23 0.13 -0.27 0.12 -0.32 0.12 -0.36 0.11 -0.41 0.1 -0.45 0.09 -0.5 0.08 -0.55 0.07 -0.6 0.06 -0.66 0.05 -0.71 0.05 -0.77 0.04 -0.82 0.03 -0.88 0.02 -0.94 0.02 -1 0.01 -1.06 0.01 -1.13 0 -1.19 0 0zm2.54 -29.85l0 29.85 -2.54 0 0 -29.85 0 0 2.54 0zm-6.68 -14.18l0.15 -2.52 0.07 0.01 0.45 0.06 0.43 0.07 0.42 0.08 0.42 0.1 0.4 0.12 0.39 0.14 0.38 0.18 0.37 0.21 0.35 0.24 0.34 0.28 0.31 0.32 0.28 0.34 0.25 0.37 0.23 0.4 0.2 0.43 0.18 0.46 0.16 0.49 0.14 0.52 0.12 0.55 0.11 0.59 0.1 0.63 0.08 0.67 0.07 0.71 0.06 0.76 0.05 0.81 0.04 0.86 0.04 0.91 0.03 0.96 0.02 1.02 0.01 1.08 0.01 1.14 0 1.21 -2.54 0 -0 -1.2 -0.01 -1.13 -0.01 -1.07 -0.02 -1 -0.02 -0.94 -0.04 -0.88 -0.04 -0.82 -0.05 -0.77 -0.06 -0.71 -0.07 -0.66 -0.07 -0.61 -0.08 -0.55 -0.09 -0.5 -0.1 -0.45 -0.11 -0.4 -0.12 -0.35 -0.12 -0.31 -0.13 -0.27 -0.13 -0.23 -0.13 -0.2 -0.14 -0.17 -0.14 -0.14 -0.15 -0.12 -0.16 -0.11 -0.18 -0.1 -0.21 -0.09 -0.23 -0.09 -0.26 -0.08 -0.29 -0.07 -0.32 -0.06 -0.35 -0.06 -0.38 -0.05 0.07 0.01zm0.15 -2.52l0.03 0 0.04 0 -0.07 -0.01zm-4.43 -0.26l4.43 0.26 -0.15 2.52 -4.43 -0.26 -1.19 -1.26 1.34 -1.26zm-0.15 2.52l-1.19 -0.07 0 -1.19 1.19 1.26zm1.34 -2.99l0 1.73 -2.54 0 0 -1.73 1.27 -1.26 1.27 1.26zm-2.54 0l0 -1.26 1.27 0 -1.27 1.26zm29.29 1.26l-28.02 0 0 -2.52 28.02 0 1.27 1.26 -1.27 1.26zm0 -2.52l1.27 0 0 1.26 -1.27 -1.26zm-1.27 2.99l0 -1.73 2.54 0 0 1.73 -1.19 1.26 -1.34 -1.26zm2.54 0l0 1.19 -1.19 0.07 1.19 -1.26zm-5.78 -1l4.43 -0.26 0.15 2.52 -4.43 0.26 -0.22 -2.51 0.07 -0.01zm-0.07 0.01l0.04 -0 0.03 -0 -0.07 0.01zm-3.93 16.7l-2.54 0 0 0 0 -1.21 0.01 -1.14 0.01 -1.08 0.02 -1.02 0.03 -0.96 0.03 -0.91 0.04 -0.86 0.05 -0.8 0.06 -0.76 0.07 -0.71 0.08 -0.67 0.09 -0.63 0.11 -0.59 0.12 -0.55 0.14 -0.52 0.16 -0.49 0.18 -0.46 0.2 -0.43 0.23 -0.4 0.25 -0.37 0.28 -0.35 0.32 -0.32 0.33 -0.27 0.36 -0.24 0.38 -0.21 0.39 -0.18 0.4 -0.14 0.41 -0.12 0.42 -0.1 0.43 -0.08 0.44 -0.07 0.45 -0.06 0.28 2.51 -0.39 0.05 -0.36 0.06 -0.33 0.06 -0.29 0.07 -0.27 0.08 -0.24 0.09 -0.21 0.09 -0.18 0.1 -0.16 0.11 -0.15 0.13 -0.14 0.14 -0.13 0.16 -0.13 0.19 -0.13 0.23 -0.12 0.27 -0.12 0.31 -0.12 0.35 -0.11 0.4 -0.1 0.45 -0.09 0.5 -0.08 0.55 -0.07 0.61 -0.06 0.66 -0.05 0.71 -0.05 0.77 -0.04 0.82 -0.03 0.88 -0.02 0.94 -0.02 1 -0.01 1.07 -0.01 1.13 -0 1.2 0 0zm-2.54 29.85l0 -29.85 2.54 0 0 29.85 0 0 -2.54 0zm6.68 14.18l-0.15 2.52 -0.07 -0.01 -0.46 -0.06 -0.44 -0.07 -0.43 -0.08 -0.43 -0.1 -0.41 -0.13 -0.39 -0.15 -0.39 -0.18 -0.38 -0.21 -0.35 -0.24 -0.34 -0.28 -0.31 -0.32 -0.28 -0.34 -0.26 -0.38 -0.23 -0.41 -0.2 -0.43 -0.18 -0.46 -0.16 -0.49 -0.14 -0.52 -0.12 -0.55 -0.11 -0.59 -0.09 -0.63 -0.08 -0.67 -0.07 -0.71 -0.06 -0.76 -0.05 -0.8 -0.04 -0.85 -0.03 -0.91 -0.03 -0.96 -0.02 -1.02 -0.01 -1.08 -0.01 -1.14 -0 -1.2 2.54 0 0 1.19 0.01 1.13 0.01 1.06 0.02 1 0.02 0.94 0.03 0.88 0.04 0.82 0.05 0.77 0.05 0.71 0.06 0.66 0.07 0.6 0.08 0.55 0.09 0.5 0.1 0.46 0.11 0.41 0.12 0.36 0.12 0.32 0.13 0.27 0.13 0.23 0.13 0.19 0.14 0.17 0.14 0.14 0.15 0.13 0.17 0.12 0.18 0.1 0.2 0.09 0.24 0.09 0.26 0.08 0.29 0.07 0.33 0.06 0.36 0.06 0.39 0.05 -0.07 -0.01zm-0.15 2.52l-0.03 -0 -0.04 -0 0.07 0.01zm4.43 0.26l-4.43 -0.26 0.15 -2.52 4.43 0.26 1.19 1.26 -1.34 1.26zm0.15 -2.52l1.19 0.07 0 1.19 -1.19 -1.26zm-1.34 2.98l0 -1.72 2.54 0 0 1.72 -1.27 1.26 -1.27 -1.26zm2.54 0l0 1.26 -1.27 0 1.27 -1.26zm-29.29 -1.26l28.02 0 0 2.52 -28.02 0 -1.27 -1.26 1.27 -1.26zm0 2.52l-1.27 0 0 -1.26 1.27 1.26z"/>
   </g>
   <g>
    <path class="fil2" d="M592.19 357.45c-0.7,-3.28 -1.01,-10.18 -1.01,-14.66l2.32 0c2.42,9.32 7.86,13.28 18.64,13.28 7.46,0 15.52,-3.8 15.52,-11.13 0,-6.47 -3.93,-10.44 -11.09,-14.32l-8.97 -4.83c-8.67,-4.66 -14.61,-9.49 -14.61,-17.42 0,-9.92 9.17,-16.05 21.37,-16.05 8.97,0 12.4,1.99 19.25,1.99 0,4.74 -0.1,9.66 -1.31,14.66l-2.32 0c-1.21,-9.4 -6.55,-13.2 -15.52,-13.2 -7.56,0 -13.81,3.71 -13.81,10.09 0,6.12 4.13,9.32 12.09,13.63l8.37 4.57c11.29,6.21 14.41,11.13 14.41,18.2 0,10.18 -10.78,17.34 -23.88,17.34 -7.86,-0 -13.91,-2.07 -19.45,-2.16z"/>
    <path id="1" class="fil2" d="M591.19 341.52l0 2.52 1.27 -1.26 0 0.42 0 0.43 0 0.45 0.01 0.46 0.01 0.47 0.01 0.48 0.01 0.49 0.01 0.49 0.02 0.49 0.02 0.5 0.02 0.5 0.02 0.51 0.02 0.51 0.02 0.5 0.03 0.5 0.03 0.5 0.03 0.5 0.03 0.49 0.04 0.49 0.04 0.48 0.04 0.47 0.04 0.46 0.05 0.45 0.04 0.44 0.05 0.42 0.05 0.41 0.05 0.39 0.05 0.38 0.06 0.36 0.06 0.34 0.06 0.32 0.06 0.29 -2.48 0.53 -0.07 -0.34 -0.07 -0.36 -0.06 -0.38 -0.06 -0.39 -0.06 -0.41 -0.06 -0.42 -0.05 -0.43 -0.05 -0.45 -0.05 -0.46 -0.05 -0.47 -0.04 -0.48 -0.04 -0.49 -0.04 -0.49 -0.04 -0.5 -0.03 -0.51 -0.04 -0.51 -0.03 -0.51 -0.03 -0.52 -0.02 -0.52 -0.02 -0.51 -0.02 -0.51 -0.02 -0.51 -0.02 -0.51 -0.02 -0.51 -0.01 -0.5 -0.01 -0.49 -0.01 -0.49 -0.01 -0.48 -0.01 -0.47 -0 -0.45 -0 -0.45 0 -0.43 1.27 -1.26zm-1.27 1.26l0 -1.26 1.27 0 -1.27 1.26zm3.59 1.26l-2.32 0 0 -2.52 2.32 0 1.23 0.95 -1.23 1.58zm0 -2.52l0.98 0 0.25 0.95 -1.23 -0.95zm18.64 13.28l0 2.52 0 0 -1.03 -0.01 -1 -0.04 -0.97 -0.06 -0.94 -0.09 -0.91 -0.11 -0.89 -0.14 -0.86 -0.17 -0.83 -0.19 -0.81 -0.22 -0.78 -0.25 -0.76 -0.28 -0.74 -0.31 -0.71 -0.34 -0.68 -0.37 -0.66 -0.4 -0.63 -0.43 -0.61 -0.46 -0.58 -0.49 -0.55 -0.52 -0.53 -0.55 -0.5 -0.58 -0.48 -0.61 -0.45 -0.64 -0.42 -0.67 -0.4 -0.7 -0.37 -0.72 -0.35 -0.75 -0.33 -0.78 -0.31 -0.81 -0.28 -0.83 -0.27 -0.86 -0.25 -0.89 2.45 -0.63 0.22 0.82 0.25 0.79 0.26 0.76 0.27 0.72 0.29 0.69 0.31 0.66 0.33 0.63 0.34 0.6 0.36 0.57 0.38 0.54 0.4 0.51 0.42 0.48 0.44 0.46 0.46 0.43 0.48 0.4 0.5 0.38 0.52 0.35 0.55 0.33 0.57 0.31 0.6 0.28 0.62 0.26 0.65 0.24 0.68 0.22 0.71 0.19 0.74 0.17 0.77 0.15 0.8 0.13 0.84 0.1 0.87 0.08 0.9 0.06 0.93 0.03 0.96 0.01 0 0zm14.25 -9.86l2.54 0 0 0 -0.03 0.76 -0.08 0.75 -0.13 0.72 -0.18 0.7 -0.22 0.68 -0.27 0.65 -0.31 0.63 -0.35 0.6 -0.39 0.58 -0.43 0.55 -0.46 0.52 -0.49 0.5 -0.52 0.47 -0.54 0.44 -0.57 0.42 -0.59 0.39 -0.61 0.37 -0.63 0.34 -0.65 0.32 -0.66 0.29 -0.68 0.27 -0.69 0.25 -0.7 0.22 -0.71 0.2 -0.72 0.18 -0.73 0.15 -0.74 0.13 -0.74 0.11 -0.74 0.08 -0.74 0.06 -0.74 0.04 -0.74 0.01 0 -2.52 0.66 -0.01 0.67 -0.04 0.66 -0.05 0.66 -0.07 0.66 -0.09 0.66 -0.12 0.65 -0.13 0.64 -0.16 0.63 -0.18 0.62 -0.2 0.6 -0.21 0.59 -0.23 0.58 -0.26 0.56 -0.27 0.54 -0.29 0.52 -0.31 0.49 -0.33 0.47 -0.34 0.44 -0.36 0.41 -0.38 0.39 -0.4 0.36 -0.41 0.33 -0.43 0.3 -0.44 0.27 -0.46 0.24 -0.47 0.2 -0.49 0.17 -0.51 0.13 -0.53 0.1 -0.55 0.06 -0.56 0.02 -0.59 0 0zm-10.42 -13.21l1.21 -2.22 0 0 0.68 0.37 0.66 0.37 0.64 0.38 0.62 0.38 0.61 0.38 0.58 0.39 0.57 0.39 0.55 0.4 0.53 0.4 0.51 0.41 0.49 0.42 0.48 0.43 0.45 0.43 0.43 0.44 0.41 0.45 0.39 0.46 0.37 0.47 0.35 0.48 0.33 0.49 0.31 0.5 0.28 0.52 0.26 0.53 0.24 0.54 0.21 0.55 0.19 0.56 0.16 0.58 0.14 0.58 0.11 0.6 0.09 0.61 0.06 0.63 0.04 0.64 0.01 0.65 -2.54 0 -0.01 -0.55 -0.03 -0.53 -0.05 -0.52 -0.07 -0.5 -0.09 -0.49 -0.11 -0.48 -0.13 -0.46 -0.15 -0.46 -0.17 -0.44 -0.19 -0.43 -0.21 -0.43 -0.23 -0.42 -0.25 -0.41 -0.27 -0.41 -0.29 -0.4 -0.31 -0.4 -0.33 -0.39 -0.35 -0.38 -0.37 -0.38 -0.4 -0.38 -0.41 -0.37 -0.44 -0.37 -0.46 -0.37 -0.48 -0.37 -0.5 -0.36 -0.52 -0.36 -0.54 -0.36 -0.56 -0.36 -0.58 -0.36 -0.61 -0.36 -0.63 -0.36 -0.65 -0.36 0 0zm1.21 -2.22l0 0 0.04 0.02 -0.04 -0.02zm-8.97 -4.83l8.97 4.83 -1.21 2.22 -8.97 -4.83 1.21 -2.22zm-16.49 -16.31l2.54 0 0 0 0.01 0.68 0.05 0.65 0.08 0.64 0.11 0.62 0.14 0.61 0.17 0.59 0.19 0.58 0.22 0.56 0.25 0.55 0.28 0.54 0.3 0.53 0.33 0.52 0.36 0.51 0.39 0.51 0.41 0.5 0.44 0.49 0.47 0.49 0.49 0.48 0.51 0.47 0.54 0.47 0.56 0.46 0.59 0.46 0.61 0.46 0.63 0.45 0.65 0.45 0.68 0.44 0.7 0.44 0.72 0.44 0.74 0.43 0.76 0.43 0.77 0.43 0.79 0.43 -1.21 2.22 -0.82 -0.44 -0.8 -0.44 -0.78 -0.45 -0.77 -0.45 -0.75 -0.46 -0.73 -0.46 -0.71 -0.47 -0.7 -0.47 -0.68 -0.48 -0.66 -0.49 -0.63 -0.49 -0.62 -0.51 -0.59 -0.51 -0.57 -0.52 -0.55 -0.54 -0.52 -0.55 -0.5 -0.56 -0.47 -0.57 -0.45 -0.59 -0.42 -0.6 -0.39 -0.62 -0.36 -0.63 -0.33 -0.65 -0.3 -0.67 -0.27 -0.68 -0.23 -0.7 -0.2 -0.72 -0.16 -0.73 -0.13 -0.75 -0.09 -0.76 -0.06 -0.78 -0.02 -0.79 0 0zm22.63 -17.31l0 2.52 0 0 -1.09 0.02 -1.07 0.05 -1.05 0.08 -1.03 0.12 -1.01 0.15 -0.99 0.18 -0.96 0.21 -0.93 0.25 -0.91 0.28 -0.88 0.3 -0.85 0.33 -0.81 0.36 -0.78 0.39 -0.75 0.42 -0.72 0.44 -0.68 0.47 -0.65 0.5 -0.61 0.52 -0.57 0.54 -0.54 0.57 -0.49 0.59 -0.46 0.61 -0.42 0.64 -0.38 0.66 -0.34 0.68 -0.3 0.7 -0.25 0.73 -0.21 0.75 -0.16 0.77 -0.12 0.8 -0.07 0.82 -0.02 0.85 -2.54 0 0.03 -0.99 0.09 -0.97 0.14 -0.95 0.2 -0.92 0.25 -0.9 0.3 -0.88 0.35 -0.85 0.41 -0.82 0.46 -0.79 0.5 -0.76 0.54 -0.73 0.59 -0.7 0.63 -0.67 0.67 -0.64 0.71 -0.61 0.75 -0.57 0.78 -0.54 0.82 -0.51 0.85 -0.47 0.88 -0.44 0.92 -0.41 0.95 -0.37 0.97 -0.34 1 -0.3 1.03 -0.27 1.05 -0.23 1.07 -0.2 1.1 -0.16 1.12 -0.13 1.14 -0.09 1.15 -0.05 1.18 -0.02 0 0zm20.52 3.25l-2.54 0 1.27 1.26 -0.65 -0.01 -0.64 -0.02 -0.62 -0.03 -0.61 -0.04 -0.59 -0.05 -0.57 -0.05 -0.57 -0.06 -0.55 -0.07 -0.55 -0.07 -0.54 -0.08 -0.53 -0.08 -0.53 -0.09 -0.52 -0.09 -0.53 -0.09 -0.53 -0.09 -0.53 -0.09 -0.53 -0.09 -0.54 -0.09 -0.54 -0.09 -0.55 -0.09 -0.56 -0.08 -0.58 -0.08 -0.59 -0.08 -0.61 -0.07 -0.63 -0.07 -0.65 -0.06 -0.67 -0.05 -0.69 -0.04 -0.72 -0.04 -0.75 -0.02 -0.78 -0.02 -0.81 -0.01 0 -2.52 0.84 0.01 0.81 0.02 0.78 0.03 0.76 0.04 0.73 0.05 0.7 0.05 0.68 0.06 0.66 0.07 0.64 0.07 0.62 0.08 0.6 0.08 0.59 0.09 0.57 0.09 0.56 0.09 0.55 0.09 0.54 0.09 0.53 0.09 0.53 0.09 0.52 0.09 0.51 0.09 0.51 0.08 0.51 0.08 0.51 0.08 0.52 0.07 0.52 0.07 0.53 0.06 0.54 0.05 0.55 0.04 0.56 0.03 0.58 0.03 0.59 0.01 0.61 0.01 1.27 1.26zm-1.27 -1.26l1.27 0 0 1.26 -1.27 -1.26zm-1.31 17.19l0 -2.52 -1.23 0.97 0.11 -0.46 0.1 -0.45 0.09 -0.45 0.09 -0.46 0.08 -0.45 0.08 -0.45 0.07 -0.45 0.07 -0.45 0.06 -0.45 0.06 -0.45 0.05 -0.45 0.05 -0.46 0.05 -0.45 0.04 -0.45 0.04 -0.45 0.04 -0.45 0.03 -0.45 0.03 -0.45 0.02 -0.45 0.02 -0.45 0.02 -0.44 0.02 -0.45 0.01 -0.45 0.01 -0.45 0.01 -0.45 0.01 -0.44 0.01 -0.44 0 -0.44 0 -0.45 0 -0.45 0 -0.44 0 -0.44 2.54 0 0 0.45 -0 0.45 -0 0.45 -0 0.45 -0 0.46 -0.01 0.46 -0.01 0.46 -0.01 0.46 -0.01 0.46 -0.01 0.46 -0.02 0.46 -0.02 0.47 -0.02 0.46 -0.02 0.47 -0.03 0.47 -0.03 0.47 -0.04 0.47 -0.04 0.47 -0.04 0.47 -0.05 0.48 -0.05 0.47 -0.06 0.48 -0.06 0.48 -0.07 0.47 -0.07 0.48 -0.08 0.48 -0.08 0.48 -0.09 0.48 -0.09 0.48 -0.1 0.48 -0.11 0.48 -0.11 0.48 -1.23 0.97zm1.23 -0.97l-0.23 0.97 -1 0 1.23 -0.97zm-3.55 -1.56l2.32 0 0 2.52 -2.32 0 -1.26 -1.1 1.26 -1.42zm0 2.52l-1.12 0 -0.14 -1.1 1.26 1.1zm-15.52 -13.2l0 -2.52 0 0 0.86 0.01 0.85 0.04 0.83 0.06 0.81 0.08 0.79 0.11 0.77 0.14 0.75 0.16 0.73 0.19 0.71 0.22 0.69 0.25 0.67 0.28 0.65 0.3 0.63 0.34 0.6 0.36 0.58 0.4 0.56 0.42 0.53 0.46 0.51 0.49 0.48 0.52 0.46 0.55 0.43 0.58 0.4 0.61 0.37 0.64 0.34 0.67 0.32 0.7 0.29 0.73 0.26 0.76 0.23 0.79 0.21 0.82 0.18 0.85 0.16 0.87 0.13 0.91 -2.52 0.32 -0.12 -0.82 -0.14 -0.79 -0.16 -0.76 -0.19 -0.72 -0.21 -0.69 -0.23 -0.65 -0.25 -0.62 -0.27 -0.59 -0.29 -0.56 -0.31 -0.53 -0.33 -0.5 -0.34 -0.47 -0.36 -0.44 -0.38 -0.41 -0.4 -0.39 -0.42 -0.36 -0.44 -0.34 -0.47 -0.32 -0.49 -0.29 -0.51 -0.27 -0.53 -0.25 -0.56 -0.23 -0.58 -0.21 -0.6 -0.19 -0.63 -0.16 -0.65 -0.14 -0.68 -0.12 -0.7 -0.1 -0.72 -0.08 -0.75 -0.05 -0.77 -0.03 -0.79 -0.01 0 0zm-12.54 8.83l-2.54 0 0 0 0.02 -0.67 0.06 -0.65 0.1 -0.64 0.14 -0.62 0.18 -0.6 0.22 -0.58 0.25 -0.57 0.29 -0.55 0.32 -0.53 0.35 -0.5 0.38 -0.48 0.41 -0.46 0.43 -0.44 0.46 -0.42 0.49 -0.39 0.51 -0.37 0.53 -0.35 0.56 -0.33 0.57 -0.3 0.59 -0.28 0.61 -0.26 0.62 -0.23 0.64 -0.21 0.65 -0.19 0.67 -0.17 0.68 -0.14 0.69 -0.13 0.71 -0.1 0.72 -0.08 0.73 -0.06 0.74 -0.03 0.74 -0.01 0 2.52 -0.67 0.01 -0.65 0.03 -0.65 0.05 -0.63 0.07 -0.62 0.09 -0.61 0.11 -0.6 0.13 -0.58 0.15 -0.57 0.16 -0.55 0.18 -0.53 0.2 -0.51 0.22 -0.49 0.23 -0.48 0.25 -0.45 0.26 -0.43 0.28 -0.41 0.3 -0.39 0.31 -0.36 0.32 -0.34 0.34 -0.31 0.35 -0.29 0.36 -0.27 0.38 -0.24 0.39 -0.21 0.4 -0.19 0.42 -0.16 0.43 -0.13 0.45 -0.11 0.46 -0.08 0.48 -0.05 0.5 -0.02 0.51 0 0zm11.44 12.52l-1.22 2.21 0 0 -0.74 -0.41 -0.72 -0.4 -0.7 -0.4 -0.68 -0.39 -0.65 -0.39 -0.64 -0.39 -0.62 -0.39 -0.6 -0.39 -0.57 -0.39 -0.55 -0.39 -0.53 -0.4 -0.51 -0.4 -0.49 -0.4 -0.47 -0.41 -0.45 -0.42 -0.42 -0.42 -0.4 -0.43 -0.38 -0.44 -0.35 -0.45 -0.33 -0.46 -0.31 -0.48 -0.28 -0.49 -0.26 -0.5 -0.23 -0.51 -0.2 -0.53 -0.18 -0.54 -0.15 -0.56 -0.12 -0.57 -0.09 -0.57 -0.07 -0.6 -0.04 -0.61 -0.01 -0.62 2.54 0 0.01 0.51 0.03 0.49 0.06 0.47 0.07 0.46 0.09 0.44 0.12 0.43 0.14 0.42 0.16 0.41 0.18 0.4 0.2 0.39 0.22 0.38 0.24 0.37 0.27 0.37 0.29 0.37 0.31 0.36 0.34 0.36 0.36 0.36 0.39 0.36 0.41 0.36 0.43 0.36 0.46 0.36 0.49 0.36 0.51 0.36 0.53 0.36 0.56 0.36 0.58 0.37 0.61 0.37 0.63 0.37 0.66 0.38 0.68 0.38 0.7 0.39 0.73 0.4 0 0zm-0 -0l0 0 0.04 0.02 -0.04 -0.02zm7.15 6.79l-8.37 -4.57 1.22 -2.21 8.37 4.57 0 0 -1.22 2.21zm1.22 -2.21l0 0 0.05 0.03 -0.06 -0.03zm15.07 19.31l-2.54 0 0 0 -0.01 -0.62 -0.03 -0.61 -0.05 -0.59 -0.07 -0.58 -0.08 -0.56 -0.11 -0.55 -0.13 -0.54 -0.15 -0.53 -0.17 -0.53 -0.2 -0.52 -0.22 -0.51 -0.25 -0.51 -0.27 -0.51 -0.3 -0.5 -0.33 -0.5 -0.36 -0.5 -0.4 -0.5 -0.43 -0.5 -0.47 -0.5 -0.5 -0.51 -0.54 -0.51 -0.58 -0.51 -0.62 -0.52 -0.66 -0.52 -0.7 -0.52 -0.74 -0.53 -0.79 -0.53 -0.83 -0.54 -0.88 -0.55 -0.92 -0.55 -0.97 -0.56 -1.02 -0.57 1.23 -2.21 1.05 0.59 1 0.58 0.96 0.57 0.91 0.57 0.87 0.57 0.83 0.57 0.79 0.56 0.75 0.56 0.71 0.56 0.68 0.56 0.63 0.56 0.6 0.56 0.56 0.57 0.53 0.57 0.49 0.58 0.46 0.58 0.43 0.58 0.39 0.59 0.36 0.6 0.33 0.61 0.3 0.61 0.27 0.62 0.24 0.63 0.21 0.63 0.18 0.64 0.15 0.65 0.13 0.65 0.1 0.66 0.07 0.67 0.05 0.68 0.03 0.68 0.01 0.69 0 0zm-25.15 18.6l0 -2.52 0 0 1.18 -0.02 1.16 -0.06 1.14 -0.1 1.13 -0.14 1.11 -0.17 1.08 -0.21 1.06 -0.25 1.04 -0.28 1.01 -0.31 0.98 -0.35 0.95 -0.38 0.92 -0.41 0.89 -0.44 0.86 -0.47 0.82 -0.5 0.78 -0.53 0.75 -0.55 0.7 -0.58 0.67 -0.6 0.62 -0.63 0.58 -0.65 0.53 -0.67 0.49 -0.69 0.44 -0.71 0.4 -0.73 0.34 -0.75 0.29 -0.77 0.25 -0.79 0.19 -0.81 0.14 -0.83 0.08 -0.84 0.03 -0.86 2.54 0 -0.04 1.03 -0.1 1.01 -0.17 0.99 -0.23 0.97 -0.29 0.95 -0.35 0.92 -0.41 0.89 -0.47 0.87 -0.52 0.84 -0.57 0.81 -0.62 0.78 -0.67 0.75 -0.72 0.72 -0.76 0.69 -0.8 0.66 -0.84 0.63 -0.88 0.59 -0.92 0.56 -0.95 0.52 -0.98 0.49 -1.02 0.45 -1.05 0.42 -1.08 0.38 -1.1 0.34 -1.13 0.31 -1.15 0.27 -1.17 0.23 -1.2 0.19 -1.22 0.15 -1.23 0.11 -1.25 0.06 -1.26 0.02 0 0zm-20.69 -3.16l2.48 -0.53 -1.22 -1 0.55 0.02 0.55 0.02 0.55 0.04 0.55 0.05 0.55 0.06 0.55 0.06 0.56 0.07 0.56 0.08 0.56 0.08 0.57 0.09 0.57 0.09 0.57 0.09 0.58 0.1 0.58 0.1 0.59 0.1 0.59 0.1 0.6 0.1 0.6 0.1 0.61 0.09 0.61 0.09 0.62 0.09 0.63 0.08 0.64 0.08 0.64 0.07 0.65 0.07 0.65 0.06 0.67 0.05 0.68 0.05 0.69 0.04 0.69 0.03 0.7 0.01 0.71 0.01 0 2.52 -0.75 -0.01 -0.74 -0.02 -0.73 -0.03 -0.72 -0.04 -0.71 -0.05 -0.7 -0.06 -0.69 -0.06 -0.68 -0.07 -0.67 -0.08 -0.66 -0.08 -0.65 -0.09 -0.64 -0.09 -0.63 -0.09 -0.62 -0.1 -0.61 -0.1 -0.6 -0.1 -0.6 -0.1 -0.59 -0.1 -0.58 -0.1 -0.57 -0.09 -0.57 -0.09 -0.56 -0.09 -0.55 -0.08 -0.54 -0.08 -0.54 -0.07 -0.53 -0.07 -0.53 -0.06 -0.52 -0.05 -0.51 -0.04 -0.5 -0.03 -0.5 -0.02 -0.49 -0.01 -1.22 -1zm1.22 1l-1.01 -0.02 -0.21 -0.98 1.22 1z"/>
   </g>
   <g>
    <path class="fil2" d="M823.79 293.62c1.01,4.49 1.72,10.7 2.02,16.47l-2.21 0c-3.43,-10.7 -6.65,-13.03 -13.91,-13.03 -3.62,0 -8.06,0.17 -11.79,0.69l0 43.13c0,13.2 0.8,15.18 5.34,15.44l4.43 0.26 0 1.73 -28.02 0 0 -1.73 4.44 -0.26c4.63,-0.26 5.34,-2.24 5.34,-15.44l0 -43.13c-3.73,-0.52 -8.16,-0.69 -11.79,-0.69 -7.25,0 -10.48,2.33 -13.91,13.03l-2.22 0c0.3,-5.78 1.01,-11.99 2.02,-16.47l60.26 0 0 0z"/>
    <path id="1" class="fil2" d="M825.8 311.36l0 -2.52 -1.27 1.33 -0.03 -0.54 -0.03 -0.54 -0.03 -0.54 -0.04 -0.54 -0.04 -0.55 -0.04 -0.54 -0.04 -0.55 -0.05 -0.55 -0.05 -0.54 -0.05 -0.54 -0.05 -0.54 -0.06 -0.54 -0.05 -0.54 -0.06 -0.54 -0.06 -0.53 -0.06 -0.53 -0.06 -0.53 -0.07 -0.51 -0.07 -0.51 -0.07 -0.51 -0.07 -0.5 -0.07 -0.5 -0.08 -0.49 -0.08 -0.49 -0.08 -0.48 -0.08 -0.47 -0.08 -0.46 -0.08 -0.45 -0.09 -0.44 -0.09 -0.44 -0.09 -0.42 -0.09 -0.41 2.48 -0.55 0.1 0.44 0.09 0.44 0.09 0.45 0.09 0.46 0.09 0.47 0.08 0.48 0.08 0.49 0.08 0.49 0.08 0.5 0.08 0.51 0.07 0.51 0.08 0.52 0.07 0.52 0.07 0.53 0.07 0.54 0.06 0.53 0.07 0.54 0.06 0.54 0.06 0.54 0.06 0.55 0.06 0.55 0.05 0.56 0.05 0.55 0.05 0.55 0.05 0.55 0.04 0.55 0.04 0.56 0.04 0.55 0.04 0.55 0.04 0.55 0.03 0.55 0.03 0.55 -1.27 1.33zm1.27 -1.33l0.07 1.33 -1.34 0 1.27 -1.33zm-3.48 -1.2l2.21 0 0 2.52 -2.21 0 -1.21 -0.88 1.21 -1.65zm0 2.52l-0.93 0 -0.28 -0.88 1.21 0.88zm-13.91 -13.03l0 -2.52 0 0 0.7 0.01 0.68 0.02 0.66 0.04 0.64 0.06 0.63 0.08 0.61 0.1 0.6 0.12 0.59 0.15 0.57 0.18 0.56 0.2 0.54 0.23 0.53 0.26 0.51 0.29 0.49 0.33 0.48 0.36 0.46 0.39 0.45 0.42 0.43 0.46 0.42 0.49 0.4 0.52 0.39 0.56 0.38 0.59 0.37 0.63 0.36 0.66 0.35 0.7 0.34 0.74 0.34 0.78 0.34 0.82 0.33 0.86 0.33 0.9 0.33 0.95 0.33 0.99 -2.42 0.77 -0.32 -0.96 -0.31 -0.91 -0.31 -0.86 -0.31 -0.81 -0.32 -0.77 -0.31 -0.72 -0.32 -0.68 -0.32 -0.63 -0.32 -0.59 -0.32 -0.55 -0.32 -0.5 -0.33 -0.47 -0.33 -0.43 -0.34 -0.39 -0.34 -0.36 -0.35 -0.33 -0.35 -0.3 -0.36 -0.27 -0.37 -0.24 -0.38 -0.22 -0.39 -0.2 -0.41 -0.18 -0.43 -0.15 -0.45 -0.14 -0.46 -0.12 -0.49 -0.1 -0.51 -0.09 -0.54 -0.07 -0.56 -0.05 -0.59 -0.04 -0.61 -0.02 -0.64 -0.01 0 0zm-10.52 -0.57l-2.54 0 1.09 -1.25 0.36 -0.05 0.36 -0.05 0.37 -0.05 0.36 -0.04 0.38 -0.04 0.37 -0.04 0.38 -0.04 0.38 -0.03 0.38 -0.04 0.38 -0.03 0.39 -0.03 0.38 -0.03 0.39 -0.03 0.39 -0.02 0.38 -0.02 0.39 -0.02 0.39 -0.02 0.38 -0.02 0.39 -0.02 0.38 -0.01 0.38 -0.01 0.38 -0.01 0.38 -0.01 0.37 -0.01 0.37 -0.01 0.37 -0.01 0.37 -0.01 0.36 -0 0.36 -0 0.35 -0 0.35 -0 0.35 0 0 2.52 -0.34 0 -0.34 0 -0.35 0 -0.35 0 -0.35 0 -0.36 0.01 -0.36 0.01 -0.36 0.01 -0.37 0.01 -0.37 0.01 -0.37 0.01 -0.37 0.01 -0.38 0.01 -0.37 0.02 -0.38 0.02 -0.37 0.02 -0.37 0.02 -0.38 0.02 -0.37 0.02 -0.37 0.03 -0.37 0.03 -0.37 0.03 -0.37 0.03 -0.37 0.03 -0.36 0.03 -0.36 0.04 -0.36 0.04 -0.36 0.04 -0.36 0.04 -0.35 0.04 -0.35 0.05 -0.34 0.05 1.09 -1.25zm-2.54 0l0 -1.1 1.09 -0.15 -1.09 1.25zm0 43.13l0 -43.13 2.54 0 0 43.13 0 0 -2.54 0zm6.68 14.18l-0.15 2.52 0 0 -0.46 -0.03 -0.44 -0.05 -0.43 -0.06 -0.43 -0.08 -0.41 -0.11 -0.4 -0.14 -0.39 -0.17 -0.38 -0.2 -0.36 -0.24 -0.34 -0.28 -0.31 -0.32 -0.28 -0.35 -0.26 -0.38 -0.23 -0.41 -0.2 -0.43 -0.18 -0.46 -0.16 -0.49 -0.14 -0.52 -0.12 -0.56 -0.11 -0.59 -0.1 -0.63 -0.08 -0.67 -0.07 -0.72 -0.06 -0.77 -0.05 -0.81 -0.04 -0.86 -0.04 -0.92 -0.03 -0.97 -0.02 -1.03 -0.01 -1.09 -0.01 -1.15 -0 -1.21 2.54 0 0 1.2 0.01 1.13 0.01 1.07 0.02 1.01 0.02 0.95 0.04 0.89 0.04 0.83 0.05 0.78 0.06 0.72 0.07 0.67 0.07 0.61 0.08 0.56 0.09 0.51 0.1 0.46 0.11 0.41 0.12 0.36 0.12 0.32 0.13 0.28 0.13 0.23 0.13 0.19 0.14 0.16 0.14 0.14 0.15 0.12 0.15 0.1 0.17 0.09 0.2 0.08 0.23 0.08 0.25 0.07 0.28 0.06 0.32 0.05 0.35 0.04 0.37 0.02 0 0zm-0 0l0 0 0.09 0 -0.09 -0zm4.29 2.78l-4.43 -0.26 0.15 -2.52 4.43 0.26 1.19 1.26 -1.34 1.26zm0.15 -2.52l1.19 0.07 0 1.19 -1.19 -1.26zm-1.34 2.99l0 -1.73 2.54 0 0 1.73 -1.27 1.26 -1.27 -1.26zm2.54 0l0 1.26 -1.27 0 1.27 -1.26zm-29.28 -1.26l28.02 0 0 2.52 -28.02 0 -1.27 -1.26 1.27 -1.26zm0 2.52l-1.27 0 0 -1.26 1.27 1.26zm1.27 -2.99l0 1.73 -2.54 0 0 -1.73 1.19 -1.26 1.34 1.26zm-2.54 0l0 -1.19 1.19 -0.07 -1.19 1.26zm5.78 1l-4.44 0.26 -0.15 -2.52 4.44 -0.26 0 0 0.15 2.52zm-0.15 -2.52l0 0 -0.05 0 0.05 -0zm4.15 -14.18l2.54 0 0 0 -0 1.21 -0.01 1.15 -0.01 1.09 -0.02 1.03 -0.03 0.97 -0.03 0.92 -0.04 0.86 -0.05 0.81 -0.06 0.76 -0.07 0.72 -0.08 0.67 -0.09 0.63 -0.11 0.59 -0.12 0.56 -0.14 0.52 -0.16 0.49 -0.18 0.46 -0.2 0.43 -0.23 0.41 -0.26 0.38 -0.28 0.35 -0.31 0.32 -0.34 0.28 -0.37 0.25 -0.38 0.2 -0.39 0.17 -0.4 0.14 -0.42 0.11 -0.43 0.08 -0.43 0.06 -0.45 0.05 -0.46 0.03 -0.14 -2.52 0.38 -0.02 0.36 -0.04 0.32 -0.05 0.28 -0.06 0.26 -0.07 0.23 -0.08 0.2 -0.08 0.18 -0.09 0.15 -0.1 0.14 -0.12 0.14 -0.14 0.13 -0.16 0.13 -0.19 0.13 -0.23 0.13 -0.27 0.12 -0.32 0.12 -0.36 0.11 -0.41 0.1 -0.46 0.09 -0.51 0.08 -0.56 0.07 -0.61 0.06 -0.67 0.05 -0.72 0.05 -0.78 0.04 -0.83 0.03 -0.89 0.02 -0.95 0.02 -1.01 0.01 -1.07 0.01 -1.13 0 -1.2 0 0zm2.54 -43.13l0 43.13 -2.54 0 0 -43.13 1.44 -1.25 1.09 1.25zm-1.09 -1.25l1.09 0.15 0 1.1 -1.09 -1.25zm-11.97 1.82l0 -2.52 0 0 0.35 0 0.35 0 0.35 0 0.36 0 0.36 0 0.37 0.01 0.37 0.01 0.37 0.01 0.37 0.01 0.38 0.01 0.38 0.01 0.38 0.01 0.38 0.01 0.39 0.02 0.38 0.02 0.39 0.02 0.39 0.02 0.38 0.02 0.39 0.02 0.39 0.03 0.38 0.03 0.39 0.03 0.38 0.03 0.38 0.04 0.38 0.03 0.38 0.04 0.38 0.04 0.37 0.04 0.37 0.04 0.37 0.05 0.36 0.05 0.36 0.05 -0.35 2.5 -0.34 -0.05 -0.35 -0.05 -0.35 -0.04 -0.36 -0.04 -0.36 -0.04 -0.36 -0.04 -0.36 -0.04 -0.36 -0.03 -0.37 -0.03 -0.37 -0.03 -0.37 -0.03 -0.37 -0.03 -0.37 -0.03 -0.37 -0.02 -0.38 -0.02 -0.37 -0.02 -0.37 -0.02 -0.38 -0.02 -0.37 -0.02 -0.38 -0.01 -0.37 -0.01 -0.37 -0.01 -0.37 -0.01 -0.37 -0.01 -0.36 -0.01 -0.36 -0.01 -0.35 -0.01 -0.35 -0 -0.35 -0 -0.35 -0 -0.34 -0 -0.34 0 0 0zm-13.91 13.03l0 -2.52 -1.21 0.88 0.33 -0.99 0.33 -0.95 0.33 -0.9 0.33 -0.86 0.34 -0.82 0.34 -0.78 0.35 -0.74 0.35 -0.7 0.36 -0.66 0.37 -0.63 0.38 -0.59 0.39 -0.56 0.41 -0.52 0.41 -0.49 0.43 -0.46 0.45 -0.42 0.46 -0.39 0.48 -0.36 0.5 -0.33 0.51 -0.29 0.53 -0.26 0.54 -0.23 0.56 -0.2 0.57 -0.18 0.59 -0.15 0.6 -0.12 0.61 -0.1 0.63 -0.08 0.64 -0.06 0.66 -0.04 0.68 -0.02 0.7 -0.01 0 2.52 -0.64 0.01 -0.61 0.02 -0.59 0.04 -0.56 0.05 -0.54 0.07 -0.51 0.08 -0.49 0.1 -0.46 0.12 -0.45 0.14 -0.43 0.15 -0.41 0.18 -0.39 0.2 -0.38 0.22 -0.37 0.24 -0.36 0.27 -0.35 0.3 -0.35 0.33 -0.34 0.36 -0.34 0.4 -0.33 0.43 -0.33 0.47 -0.32 0.5 -0.32 0.55 -0.32 0.59 -0.32 0.63 -0.32 0.68 -0.31 0.72 -0.32 0.77 -0.31 0.81 -0.31 0.86 -0.31 0.91 -0.32 0.96 -1.21 0.88zm1.21 -0.88l-0.28 0.88 -0.93 0 1.21 -0.88zm-3.43 -1.65l2.22 0 0 2.52 -2.22 0 -1.27 -1.33 1.27 -1.2zm0 2.52l-1.34 0 0.07 -1.33 1.27 1.33zm2.02 -19l0 2.52 1.24 -0.99 -0.09 0.41 -0.09 0.43 -0.09 0.43 -0.08 0.44 -0.08 0.46 -0.08 0.46 -0.08 0.47 -0.08 0.48 -0.08 0.48 -0.07 0.49 -0.07 0.5 -0.07 0.5 -0.07 0.51 -0.07 0.52 -0.07 0.52 -0.06 0.52 -0.06 0.53 -0.06 0.53 -0.06 0.54 -0.05 0.54 -0.06 0.54 -0.05 0.54 -0.05 0.54 -0.05 0.54 -0.05 0.55 -0.04 0.54 -0.04 0.54 -0.04 0.55 -0.04 0.55 -0.04 0.54 -0.03 0.54 -0.03 0.54 -2.53 -0.13 0.03 -0.55 0.04 -0.55 0.04 -0.55 0.04 -0.55 0.04 -0.55 0.04 -0.56 0.04 -0.56 0.05 -0.55 0.05 -0.55 0.05 -0.55 0.05 -0.56 0.06 -0.55 0.06 -0.55 0.06 -0.54 0.06 -0.54 0.07 -0.54 0.06 -0.54 0.07 -0.53 0.07 -0.53 0.07 -0.52 0.08 -0.52 0.07 -0.51 0.08 -0.51 0.08 -0.5 0.08 -0.49 0.08 -0.49 0.08 -0.48 0.09 -0.47 0.09 -0.46 0.09 -0.46 0.09 -0.44 0.09 -0.44 1.24 -0.99zm-1.24 0.99l0.22 -0.99 1.02 0 -1.24 0.99zm61.5 1.54l-60.26 0 0 -2.52 60.26 0 1.24 0.99 -1.24 1.54zm0 -2.52l1.02 0 0.22 0.99 -1.24 -0.99zm0 1.26l0 0 0 0 0 0 1.24 -0.28 -1.24 0.28zm0 -1.26l1.02 0 0.22 0.99 -1.24 -0.99z"/>
   </g>
   <g>
    <path class="fil2" d="M837.9 358.31l0 -1.72 4.43 -0.26c4.43,-0.26 5.34,-2.33 5.34,-15.44l0 -29.85c0,-13.2 -0.81,-15.18 -5.34,-15.44l-4.43 -0.26 0 -1.73 47.47 0c0.2,1.3 0.3,2.68 0.3,3.97 0,3.71 -0.61,7.68 -1.51,11.13l-2.02 0c-0.81,-9.75 -4.03,-11.65 -12.7,-11.65 -4.94,0 -9.57,0.26 -13.3,0.69l0 26.05 10.18 0c8.67,0 10.18,-0.69 11.49,-5.87l2.02 0 -0.91 17.42 -2.01 0 -0.71 -3.02c-0.9,-4.31 -2.52,-5.43 -11.08,-5.43l-8.97 0 0 14.06c0,13.28 1.01,13.97 8.16,13.97l7.56 0c8.87,0 11.49,-3.19 14.91,-11.82l2.11 0c-0.3,5.26 -1.51,10.96 -3.13,15.18l-47.87 0 0 0z"/>
    <path id="1" class="fil2" d="M839.17 356.59l0 1.72 -2.54 0 0 -1.72 1.19 -1.26 1.34 1.26zm-2.54 0l0 -1.19 1.19 -0.07 -1.19 1.26zm5.77 1l-4.43 0.26 -0.15 -2.52 4.43 -0.26 0 0 0.15 2.52zm4 -16.7l2.54 0 0 0 -0 1.2 -0.01 1.14 -0.01 1.08 -0.02 1.02 -0.03 0.97 -0.04 0.91 -0.05 0.86 -0.06 0.81 -0.06 0.76 -0.07 0.72 -0.09 0.68 -0.1 0.63 -0.11 0.6 -0.13 0.56 -0.14 0.53 -0.16 0.49 -0.18 0.46 -0.21 0.43 -0.23 0.41 -0.26 0.38 -0.28 0.35 -0.31 0.32 -0.34 0.28 -0.36 0.25 -0.37 0.21 -0.39 0.18 -0.4 0.14 -0.41 0.11 -0.42 0.09 -0.43 0.07 -0.43 0.05 -0.45 0.04 -0.15 -2.52 0.36 -0.03 0.34 -0.04 0.3 -0.05 0.27 -0.06 0.25 -0.07 0.22 -0.08 0.19 -0.08 0.17 -0.09 0.16 -0.11 0.15 -0.12 0.14 -0.14 0.14 -0.17 0.13 -0.2 0.14 -0.24 0.13 -0.27 0.13 -0.32 0.12 -0.37 0.11 -0.41 0.11 -0.46 0.09 -0.51 0.09 -0.56 0.08 -0.61 0.07 -0.67 0.06 -0.72 0.05 -0.77 0.05 -0.83 0.04 -0.88 0.03 -0.94 0.02 -1 0.01 -1.07 0.01 -1.13 0 -1.19 0 0zm2.54 -29.85l0 29.85 -2.54 0 0 -29.85 0 0 2.54 0zm-6.69 -14.18l0.15 -2.52 -0 0 0.46 0.03 0.44 0.05 0.43 0.06 0.43 0.08 0.41 0.11 0.4 0.14 0.39 0.17 0.38 0.2 0.36 0.24 0.34 0.28 0.31 0.32 0.28 0.35 0.26 0.38 0.23 0.41 0.2 0.44 0.18 0.46 0.16 0.49 0.14 0.53 0.12 0.56 0.11 0.6 0.09 0.63 0.08 0.67 0.07 0.72 0.06 0.76 0.05 0.82 0.04 0.86 0.04 0.92 0.03 0.97 0.02 1.03 0.01 1.09 0.01 1.15 0 1.21 -2.54 0 -0 -1.2 -0.01 -1.13 -0.01 -1.07 -0.02 -1.01 -0.02 -0.95 -0.04 -0.89 -0.04 -0.83 -0.05 -0.77 -0.06 -0.72 -0.07 -0.67 -0.08 -0.61 -0.08 -0.56 -0.1 -0.51 -0.1 -0.46 -0.11 -0.41 -0.12 -0.37 -0.12 -0.32 -0.13 -0.27 -0.13 -0.23 -0.13 -0.19 -0.14 -0.16 -0.14 -0.14 -0.14 -0.12 -0.16 -0.1 -0.17 -0.09 -0.2 -0.08 -0.23 -0.08 -0.25 -0.07 -0.28 -0.06 -0.32 -0.05 -0.35 -0.04 -0.37 -0.02 -0 0zm0 0l-0 0 -0.09 -0.01 0.09 0.01zm-4.29 -2.78l4.43 0.26 -0.15 2.52 -4.43 -0.26 -1.19 -1.26 1.34 -1.26zm-0.15 2.52l-1.19 -0.07 0 -1.19 1.19 1.26zm1.34 -2.99l0 1.73 -2.54 0 0 -1.73 1.27 -1.26 1.27 1.26zm-2.54 0l0 -1.26 1.27 0 -1.27 1.26zm48.73 1.26l-47.47 0 0 -2.52 47.47 0 1.25 1.07 -1.25 1.46zm0 -2.52l1.09 0 0.17 1.07 -1.25 -1.07zm1.57 5.23l-2.54 0 0 0 0 -0.11 -0 -0.12 0 -0.12 0 -0.1 -0 -0.12 -0 -0.12 -0 -0.11 -0 -0.13 -0 -0.11 -0.01 -0.12 -0.01 -0.12 -0.01 -0.12 -0.01 -0.12 -0.01 -0.12 -0.01 -0.13 -0.01 -0.12 -0.01 -0.12 -0.01 -0.13 -0.01 -0.12 -0.01 -0.11 -0.01 -0.13 -0.01 -0.13 -0.01 -0.11 -0.01 -0.12 -0.01 -0.12 -0.01 -0.11 -0.01 -0.11 -0.02 -0.12 -0.02 -0.12 -0.02 -0.11 -0.02 -0.11 -0.02 -0.12 2.5 -0.39 0.02 0.13 0.02 0.13 0.02 0.13 0.02 0.12 0.02 0.12 0.02 0.13 0.02 0.13 0.01 0.13 0.01 0.14 0.01 0.13 0.01 0.13 0.01 0.13 0.01 0.13 0.01 0.14 0.01 0.13 0.01 0.14 0.01 0.14 0.01 0.13 0.01 0.12 0.01 0.14 0.01 0.14 0.01 0.12 0.01 0.14 0 0.13 0 0.13 0 0.13 0 0.12 0 0.12 0 0.14 0 0.12 0 0.12 0 0.13 0 0zm-2.78 12.39l0 -2.52 -1.23 0.95 0.08 -0.32 0.08 -0.32 0.08 -0.33 0.08 -0.33 0.07 -0.33 0.07 -0.33 0.07 -0.33 0.07 -0.33 0.07 -0.34 0.07 -0.34 0.06 -0.34 0.06 -0.34 0.06 -0.35 0.06 -0.34 0.05 -0.34 0.05 -0.35 0.05 -0.35 0.04 -0.34 0.04 -0.35 0.04 -0.35 0.04 -0.34 0.03 -0.35 0.03 -0.35 0.03 -0.34 0.02 -0.35 0.02 -0.34 0.02 -0.34 0.02 -0.34 0.01 -0.34 0.01 -0.34 0 -0.33 0 -0.34 2.54 0 -0 0.36 -0 0.37 -0.01 0.36 -0.01 0.36 -0.02 0.37 -0.02 0.36 -0.02 0.37 -0.02 0.36 -0.03 0.37 -0.04 0.37 -0.03 0.36 -0.04 0.37 -0.04 0.36 -0.04 0.36 -0.05 0.37 -0.05 0.36 -0.05 0.36 -0.06 0.37 -0.06 0.36 -0.06 0.35 -0.06 0.36 -0.07 0.36 -0.07 0.35 -0.07 0.35 -0.07 0.35 -0.07 0.35 -0.08 0.35 -0.08 0.34 -0.08 0.34 -0.08 0.34 -0.08 0.34 -0.09 0.34 -1.23 0.95zm1.23 -0.95l-0.25 0.95 -0.98 0 1.23 -0.95zm-3.24 -1.58l2.02 0 0 2.52 -2.02 0 -1.26 -1.16 1.26 -1.37zm0 2.52l-1.17 0 -0.1 -1.16 1.26 1.16zm-12.7 -11.65l0 -2.52 0 0 0.82 0.01 0.79 0.02 0.76 0.03 0.73 0.05 0.71 0.06 0.69 0.08 0.66 0.1 0.64 0.13 0.62 0.15 0.6 0.17 0.58 0.2 0.55 0.23 0.53 0.26 0.51 0.29 0.49 0.33 0.46 0.36 0.43 0.4 0.4 0.43 0.37 0.46 0.35 0.5 0.32 0.53 0.29 0.56 0.27 0.59 0.24 0.62 0.21 0.65 0.2 0.69 0.17 0.72 0.15 0.76 0.14 0.8 0.12 0.83 0.1 0.88 0.09 0.92 -2.53 0.21 -0.08 -0.86 -0.1 -0.82 -0.11 -0.77 -0.12 -0.72 -0.14 -0.68 -0.15 -0.63 -0.17 -0.58 -0.18 -0.55 -0.19 -0.5 -0.21 -0.46 -0.22 -0.43 -0.23 -0.39 -0.25 -0.35 -0.26 -0.32 -0.28 -0.29 -0.29 -0.27 -0.31 -0.25 -0.33 -0.22 -0.36 -0.21 -0.38 -0.19 -0.41 -0.17 -0.44 -0.15 -0.47 -0.14 -0.51 -0.12 -0.54 -0.11 -0.57 -0.09 -0.6 -0.07 -0.64 -0.06 -0.68 -0.04 -0.7 -0.03 -0.74 -0.01 -0.78 -0.01 0 0zm-12.03 -0.57l-2.54 0 1.12 -1.25 0.36 -0.04 0.36 -0.04 0.37 -0.04 0.37 -0.04 0.37 -0.04 0.39 -0.04 0.39 -0.03 0.39 -0.04 0.4 -0.03 0.4 -0.03 0.4 -0.03 0.41 -0.03 0.41 -0.03 0.41 -0.02 0.42 -0.02 0.42 -0.02 0.43 -0.02 0.43 -0.02 0.43 -0.02 0.44 -0.02 0.44 -0.02 0.44 -0.01 0.44 -0.01 0.45 -0.01 0.45 -0.01 0.45 -0.01 0.46 -0.01 0.46 -0.01 0.46 -0.01 0.46 -0 0.47 -0 0.46 0 0 2.52 -0.46 0 -0.46 0 -0.45 0 -0.46 0.01 -0.45 0.01 -0.44 0.01 -0.45 0.01 -0.44 0.01 -0.44 0.01 -0.44 0.01 -0.43 0.01 -0.43 0.02 -0.43 0.02 -0.43 0.02 -0.42 0.02 -0.42 0.02 -0.41 0.02 -0.41 0.02 -0.41 0.02 -0.4 0.02 -0.4 0.03 -0.4 0.03 -0.39 0.03 -0.38 0.03 -0.38 0.03 -0.38 0.03 -0.37 0.04 -0.37 0.04 -0.36 0.04 -0.35 0.04 -0.36 0.04 -0.35 0.04 1.12 -1.25zm-2.54 0l0 -1.12 1.12 -0.13 -1.12 1.25zm0 26.05l0 -26.05 2.54 0 0 26.05 -1.27 1.26 -1.27 -1.26zm1.27 1.26l-1.27 0 0 -1.26 1.27 1.26zm10.18 0l-10.18 0 0 -2.52 10.18 0 0 0 0 2.52zm11.49 -8.39l0 2.52 1.23 -0.95 -0.13 0.49 -0.13 0.47 -0.14 0.46 -0.15 0.43 -0.16 0.41 -0.17 0.4 -0.19 0.39 -0.2 0.37 -0.22 0.35 -0.24 0.34 -0.27 0.32 -0.28 0.29 -0.31 0.28 -0.34 0.25 -0.35 0.23 -0.37 0.2 -0.39 0.18 -0.41 0.16 -0.43 0.14 -0.45 0.12 -0.46 0.1 -0.49 0.09 -0.52 0.08 -0.53 0.06 -0.56 0.06 -0.6 0.04 -0.62 0.03 -0.65 0.03 -0.69 0.02 -0.72 0.01 -0.76 0.01 -0.8 0 0 -2.52 0.79 -0 0.74 -0.01 0.7 -0.01 0.66 -0.02 0.62 -0.03 0.58 -0.03 0.54 -0.04 0.51 -0.05 0.47 -0.06 0.43 -0.06 0.4 -0.07 0.37 -0.08 0.33 -0.09 0.29 -0.1 0.27 -0.11 0.25 -0.11 0.21 -0.12 0.2 -0.13 0.18 -0.13 0.16 -0.15 0.16 -0.16 0.15 -0.18 0.14 -0.2 0.14 -0.22 0.13 -0.25 0.13 -0.27 0.13 -0.3 0.12 -0.33 0.12 -0.36 0.12 -0.39 0.12 -0.42 0.12 -0.45 1.23 -0.95zm-1.23 0.95l0.24 -0.95 0.99 0 -1.23 0.95zm3.25 1.57l-2.02 0 0 -2.52 2.02 0 1.27 1.33 -1.27 1.2zm0 -2.52l1.34 0 -0.07 1.33 -1.27 -1.33zm-2.18 18.62l0.91 -17.42 2.53 0.13 -0.91 17.42 -1.27 1.2 -1.27 -1.33zm2.53 0.13l-0.06 1.2 -1.2 0 1.27 -1.2zm-3.28 -1.33l2.01 0 0 2.52 -2.01 0 -1.24 -0.98 1.24 -1.55zm0 2.52l-1.01 0 -0.23 -0.98 1.24 0.98zm0.53 -4.57l0.71 3.02 -2.47 0.57 -0.71 -3.02 -0.01 -0.03 2.48 -0.54zm-2.47 0.57l-0 -0.01 -0 -0.02 0.01 0.03zm-9.85 -4.46l0 -2.52 0 0 0.79 0 0.75 0.01 0.72 0.02 0.69 0.03 0.65 0.03 0.62 0.04 0.59 0.05 0.56 0.06 0.53 0.07 0.51 0.09 0.49 0.1 0.46 0.11 0.44 0.13 0.42 0.15 0.4 0.16 0.38 0.18 0.36 0.2 0.34 0.22 0.32 0.24 0.3 0.26 0.27 0.28 0.25 0.3 0.23 0.31 0.21 0.33 0.19 0.34 0.16 0.35 0.15 0.36 0.13 0.37 0.12 0.39 0.11 0.4 0.1 0.41 0.09 0.42 -2.48 0.51 -0.08 -0.37 -0.08 -0.34 -0.09 -0.32 -0.09 -0.3 -0.1 -0.28 -0.1 -0.25 -0.11 -0.23 -0.11 -0.21 -0.12 -0.19 -0.12 -0.17 -0.13 -0.16 -0.14 -0.14 -0.16 -0.14 -0.17 -0.13 -0.19 -0.12 -0.21 -0.12 -0.24 -0.11 -0.27 -0.11 -0.29 -0.1 -0.33 -0.09 -0.36 -0.09 -0.39 -0.08 -0.43 -0.07 -0.46 -0.07 -0.5 -0.06 -0.54 -0.05 -0.57 -0.04 -0.61 -0.03 -0.65 -0.03 -0.69 -0.01 -0.73 -0.01 -0.77 -0 0 0zm-8.97 -2.52l8.97 0 0 2.52 -8.97 0 -1.27 -1.26 1.27 -1.26zm-1.27 1.26l0 -1.26 1.27 0 -1.27 1.26zm0 14.06l0 -14.06 2.54 0 0 14.06 0 0 -2.54 0zm9.43 12.71l0 2.52 0 0 -0.66 -0 -0.64 -0.01 -0.61 -0.02 -0.58 -0.03 -0.56 -0.05 -0.54 -0.06 -0.52 -0.08 -0.5 -0.11 -0.49 -0.14 -0.47 -0.18 -0.45 -0.21 -0.43 -0.26 -0.41 -0.3 -0.37 -0.35 -0.33 -0.39 -0.3 -0.43 -0.26 -0.46 -0.23 -0.5 -0.19 -0.53 -0.17 -0.57 -0.14 -0.6 -0.12 -0.64 -0.11 -0.68 -0.09 -0.73 -0.08 -0.78 -0.06 -0.84 -0.05 -0.89 -0.04 -0.95 -0.03 -1.01 -0.02 -1.08 -0.01 -1.14 -0 -1.22 2.54 0 0 1.2 0.01 1.13 0.02 1.06 0.02 0.99 0.04 0.92 0.05 0.85 0.06 0.79 0.07 0.72 0.08 0.66 0.09 0.6 0.1 0.54 0.12 0.48 0.13 0.42 0.14 0.37 0.14 0.32 0.15 0.26 0.15 0.22 0.16 0.19 0.17 0.16 0.18 0.14 0.21 0.12 0.24 0.12 0.27 0.1 0.31 0.09 0.35 0.08 0.4 0.06 0.44 0.05 0.48 0.04 0.52 0.03 0.56 0.02 0.6 0.01 0.64 0 0 0zm7.56 2.52l-7.56 0 0 -2.52 7.56 0 0 0 0 2.52zm14.91 -14.34l0 2.52 1.18 -0.8 -0.33 0.81 -0.32 0.77 -0.32 0.75 -0.32 0.72 -0.32 0.69 -0.33 0.66 -0.33 0.64 -0.34 0.61 -0.35 0.58 -0.36 0.56 -0.37 0.54 -0.38 0.51 -0.4 0.49 -0.42 0.46 -0.44 0.43 -0.45 0.41 -0.47 0.39 -0.5 0.36 -0.52 0.33 -0.54 0.3 -0.56 0.27 -0.58 0.25 -0.61 0.22 -0.62 0.19 -0.65 0.17 -0.68 0.14 -0.7 0.12 -0.72 0.09 -0.75 0.07 -0.78 0.05 -0.81 0.03 -0.84 0.01 0 -2.52 0.78 -0.01 0.74 -0.02 0.7 -0.05 0.67 -0.06 0.63 -0.08 0.6 -0.1 0.57 -0.12 0.54 -0.14 0.51 -0.15 0.48 -0.17 0.46 -0.19 0.43 -0.21 0.41 -0.23 0.39 -0.25 0.38 -0.27 0.36 -0.29 0.36 -0.32 0.34 -0.34 0.33 -0.37 0.33 -0.4 0.32 -0.43 0.32 -0.46 0.31 -0.49 0.31 -0.52 0.3 -0.55 0.3 -0.58 0.3 -0.62 0.3 -0.65 0.3 -0.68 0.3 -0.71 0.31 -0.75 0.31 -0.78 1.18 -0.8zm-1.18 0.8l0.32 -0.8 0.86 0 -1.18 0.8zm3.29 1.73l-2.11 0 0 -2.52 2.11 0 1.27 1.33 -1.27 1.19zm0 -2.52l1.34 0 -0.07 1.33 -1.27 -1.33zm-3.13 17.71l0 -2.52 -1.18 0.81 0.14 -0.39 0.14 -0.4 0.14 -0.4 0.14 -0.41 0.14 -0.42 0.13 -0.42 0.13 -0.43 0.13 -0.44 0.12 -0.44 0.12 -0.45 0.12 -0.45 0.12 -0.46 0.11 -0.47 0.11 -0.47 0.11 -0.48 0.1 -0.48 0.1 -0.48 0.09 -0.48 0.09 -0.48 0.08 -0.49 0.08 -0.49 0.08 -0.49 0.07 -0.49 0.07 -0.49 0.06 -0.49 0.06 -0.49 0.06 -0.49 0.05 -0.49 0.05 -0.49 0.04 -0.49 0.04 -0.48 0.03 -0.48 2.53 0.14 -0.03 0.51 -0.04 0.51 -0.04 0.51 -0.05 0.51 -0.05 0.51 -0.06 0.51 -0.06 0.51 -0.07 0.51 -0.07 0.51 -0.07 0.51 -0.08 0.51 -0.09 0.51 -0.09 0.51 -0.09 0.51 -0.1 0.5 -0.1 0.5 -0.11 0.5 -0.11 0.5 -0.12 0.49 -0.12 0.48 -0.12 0.48 -0.13 0.48 -0.13 0.47 -0.13 0.47 -0.14 0.46 -0.14 0.46 -0.14 0.45 -0.14 0.45 -0.15 0.44 -0.15 0.43 -0.15 0.42 -0.16 0.41 -1.18 0.81zm1.18 -0.81l-0.31 0.81 -0.87 0 1.18 -0.81zm-49.05 -1.71l47.87 0 0 2.52 -47.87 0 -1.27 -1.26 1.27 -1.26zm0 2.52l-1.27 0 0 -1.26 1.27 1.26zm0 -1.26l0 0 0 0 0 0 -1.27 0 1.27 0zm0 1.26l-1.27 0 0 -1.26 1.27 1.26z"/>
   </g>
   <g>
    <path class="fil2" d="M647.93 357.45c-0.7,-3.28 -1.01,-10.18 -1.01,-14.66l2.32 0c2.42,9.32 7.86,13.28 18.65,13.28 7.46,0 15.52,-3.8 15.52,-11.13 0,-6.47 -3.93,-10.44 -11.09,-14.32l-8.97 -4.83c-8.67,-4.66 -14.61,-9.49 -14.61,-17.42 0,-9.92 9.17,-16.05 21.36,-16.05 8.97,0 12.4,1.99 19.25,1.99 0,4.74 -0.1,9.66 -1.31,14.66l-2.32 0c-1.21,-9.4 -6.55,-13.2 -15.52,-13.2 -7.56,0 -13.81,3.71 -13.81,10.09 0,6.12 4.13,9.32 12.09,13.63l8.37 4.57c11.29,6.21 14.41,11.13 14.41,18.2 0,10.18 -10.78,17.34 -23.88,17.34 -7.86,-0 -13.91,-2.07 -19.45,-2.16z"/>
    <path id="1" class="fil2" d="M646.93 341.52l0 2.52 1.27 -1.26 0 0.42 0 0.43 0 0.45 0.01 0.46 0.01 0.47 0.01 0.48 0.01 0.49 0.01 0.49 0.02 0.49 0.02 0.5 0.02 0.5 0.02 0.51 0.02 0.51 0.02 0.5 0.03 0.5 0.03 0.5 0.03 0.5 0.03 0.49 0.04 0.49 0.04 0.48 0.04 0.47 0.04 0.46 0.05 0.45 0.04 0.44 0.05 0.42 0.05 0.41 0.05 0.39 0.05 0.38 0.06 0.36 0.06 0.34 0.06 0.32 0.06 0.29 -2.48 0.53 -0.07 -0.34 -0.07 -0.36 -0.06 -0.38 -0.06 -0.39 -0.06 -0.41 -0.06 -0.42 -0.05 -0.43 -0.05 -0.45 -0.05 -0.46 -0.05 -0.47 -0.04 -0.48 -0.04 -0.49 -0.04 -0.49 -0.04 -0.5 -0.03 -0.51 -0.04 -0.51 -0.03 -0.51 -0.03 -0.52 -0.02 -0.52 -0.02 -0.51 -0.02 -0.51 -0.02 -0.51 -0.02 -0.51 -0.02 -0.51 -0.01 -0.5 -0.01 -0.49 -0.01 -0.49 -0.01 -0.48 -0.01 -0.47 -0 -0.45 -0 -0.45 0 -0.43 1.27 -1.26zm-1.27 1.26l0 -1.26 1.27 0 -1.27 1.26zm3.59 1.26l-2.32 0 0 -2.52 2.32 0 1.23 0.95 -1.23 1.58zm0 -2.52l0.98 0 0.25 0.95 -1.23 -0.95zm18.65 13.28l0 2.52 0 0 -1.03 -0.01 -1 -0.04 -0.97 -0.06 -0.94 -0.09 -0.91 -0.11 -0.89 -0.14 -0.86 -0.17 -0.83 -0.19 -0.81 -0.22 -0.78 -0.25 -0.76 -0.28 -0.74 -0.31 -0.71 -0.34 -0.68 -0.37 -0.66 -0.4 -0.63 -0.43 -0.6 -0.46 -0.58 -0.49 -0.56 -0.52 -0.52 -0.55 -0.5 -0.57 -0.48 -0.61 -0.45 -0.64 -0.42 -0.67 -0.4 -0.69 -0.38 -0.72 -0.35 -0.75 -0.33 -0.78 -0.31 -0.81 -0.29 -0.83 -0.27 -0.86 -0.25 -0.89 2.45 -0.63 0.22 0.82 0.25 0.79 0.26 0.76 0.28 0.72 0.29 0.69 0.31 0.66 0.33 0.63 0.34 0.6 0.36 0.57 0.38 0.54 0.4 0.51 0.42 0.48 0.44 0.46 0.45 0.43 0.48 0.4 0.5 0.38 0.52 0.35 0.55 0.33 0.57 0.31 0.6 0.28 0.62 0.26 0.65 0.24 0.68 0.22 0.71 0.19 0.74 0.17 0.77 0.15 0.8 0.13 0.84 0.1 0.87 0.08 0.9 0.06 0.93 0.03 0.96 0.01 0 0zm14.25 -9.86l2.54 0 0 0 -0.03 0.76 -0.08 0.75 -0.13 0.72 -0.18 0.7 -0.22 0.68 -0.27 0.65 -0.31 0.63 -0.35 0.6 -0.39 0.58 -0.43 0.55 -0.46 0.52 -0.49 0.5 -0.52 0.47 -0.54 0.44 -0.57 0.42 -0.59 0.39 -0.61 0.37 -0.63 0.34 -0.65 0.32 -0.66 0.29 -0.68 0.27 -0.69 0.25 -0.7 0.22 -0.71 0.2 -0.72 0.18 -0.73 0.15 -0.73 0.13 -0.74 0.11 -0.74 0.08 -0.74 0.06 -0.74 0.04 -0.74 0.01 0 -2.52 0.66 -0.01 0.66 -0.04 0.67 -0.05 0.66 -0.07 0.66 -0.09 0.65 -0.12 0.65 -0.13 0.64 -0.16 0.63 -0.18 0.62 -0.2 0.6 -0.21 0.59 -0.23 0.57 -0.26 0.56 -0.27 0.54 -0.29 0.52 -0.31 0.49 -0.33 0.47 -0.34 0.44 -0.36 0.41 -0.38 0.39 -0.4 0.36 -0.41 0.33 -0.43 0.3 -0.44 0.27 -0.46 0.24 -0.47 0.2 -0.49 0.17 -0.51 0.13 -0.53 0.1 -0.55 0.06 -0.56 0.02 -0.59 0 0zm-10.42 -13.21l1.21 -2.22 0 0 0.68 0.37 0.66 0.37 0.64 0.38 0.62 0.38 0.61 0.38 0.58 0.39 0.57 0.39 0.55 0.4 0.53 0.4 0.51 0.41 0.49 0.42 0.48 0.43 0.45 0.43 0.43 0.44 0.41 0.46 0.4 0.46 0.37 0.47 0.35 0.48 0.33 0.49 0.31 0.5 0.28 0.52 0.26 0.53 0.24 0.54 0.21 0.55 0.19 0.56 0.16 0.58 0.14 0.59 0.11 0.6 0.09 0.61 0.06 0.63 0.04 0.64 0.01 0.65 -2.54 0 -0.01 -0.55 -0.03 -0.53 -0.05 -0.52 -0.07 -0.51 -0.09 -0.49 -0.11 -0.48 -0.13 -0.47 -0.15 -0.45 -0.17 -0.44 -0.19 -0.43 -0.21 -0.43 -0.23 -0.42 -0.25 -0.41 -0.27 -0.41 -0.29 -0.4 -0.31 -0.4 -0.33 -0.39 -0.35 -0.38 -0.38 -0.38 -0.4 -0.38 -0.41 -0.37 -0.44 -0.37 -0.46 -0.37 -0.48 -0.37 -0.5 -0.36 -0.52 -0.36 -0.54 -0.36 -0.56 -0.36 -0.58 -0.36 -0.61 -0.36 -0.63 -0.36 -0.65 -0.36 0 0zm1.21 -2.22l0 0 0.04 0.02 -0.04 -0.02zm-8.97 -4.83l8.97 4.83 -1.21 2.22 -8.97 -4.83 1.21 -2.22zm-16.49 -16.31l2.54 0 0 0 0.01 0.68 0.05 0.65 0.08 0.64 0.11 0.62 0.14 0.61 0.17 0.59 0.19 0.58 0.22 0.56 0.25 0.55 0.28 0.54 0.3 0.53 0.33 0.52 0.36 0.51 0.39 0.51 0.41 0.5 0.44 0.49 0.47 0.49 0.49 0.48 0.51 0.47 0.54 0.47 0.56 0.46 0.59 0.46 0.61 0.46 0.63 0.45 0.65 0.45 0.68 0.44 0.7 0.44 0.72 0.44 0.74 0.43 0.76 0.43 0.77 0.43 0.79 0.43 -1.21 2.22 -0.82 -0.44 -0.8 -0.44 -0.78 -0.45 -0.77 -0.45 -0.75 -0.46 -0.73 -0.46 -0.71 -0.47 -0.7 -0.47 -0.68 -0.48 -0.66 -0.49 -0.63 -0.49 -0.62 -0.51 -0.59 -0.51 -0.57 -0.52 -0.55 -0.54 -0.52 -0.55 -0.5 -0.56 -0.47 -0.57 -0.45 -0.59 -0.42 -0.6 -0.39 -0.62 -0.36 -0.63 -0.33 -0.65 -0.3 -0.67 -0.27 -0.68 -0.23 -0.7 -0.2 -0.72 -0.16 -0.73 -0.13 -0.75 -0.09 -0.76 -0.06 -0.78 -0.02 -0.79 0 0zm22.63 -17.31l0 2.52 0 0 -1.09 0.02 -1.07 0.05 -1.05 0.08 -1.03 0.12 -1.01 0.15 -0.98 0.18 -0.96 0.21 -0.93 0.25 -0.9 0.28 -0.88 0.3 -0.84 0.33 -0.81 0.36 -0.78 0.39 -0.75 0.42 -0.72 0.44 -0.68 0.47 -0.65 0.5 -0.61 0.52 -0.57 0.54 -0.54 0.57 -0.5 0.59 -0.46 0.61 -0.42 0.64 -0.38 0.66 -0.34 0.68 -0.3 0.7 -0.25 0.73 -0.21 0.75 -0.16 0.77 -0.12 0.8 -0.07 0.82 -0.02 0.85 -2.54 0 0.03 -0.99 0.09 -0.97 0.14 -0.95 0.2 -0.92 0.25 -0.9 0.3 -0.88 0.35 -0.85 0.41 -0.82 0.46 -0.79 0.5 -0.76 0.55 -0.73 0.59 -0.7 0.63 -0.67 0.67 -0.64 0.71 -0.61 0.75 -0.57 0.78 -0.54 0.82 -0.51 0.85 -0.47 0.88 -0.44 0.92 -0.41 0.94 -0.37 0.97 -0.34 1 -0.3 1.03 -0.27 1.05 -0.23 1.07 -0.2 1.1 -0.16 1.12 -0.13 1.14 -0.09 1.15 -0.05 1.18 -0.02 0 0zm20.52 3.25l-2.54 0 1.27 1.26 -0.65 -0.01 -0.64 -0.02 -0.62 -0.03 -0.61 -0.04 -0.59 -0.05 -0.57 -0.05 -0.57 -0.06 -0.55 -0.07 -0.55 -0.07 -0.54 -0.08 -0.53 -0.08 -0.53 -0.09 -0.52 -0.09 -0.53 -0.09 -0.53 -0.09 -0.53 -0.09 -0.53 -0.09 -0.54 -0.09 -0.54 -0.09 -0.55 -0.09 -0.56 -0.08 -0.58 -0.08 -0.6 -0.08 -0.61 -0.07 -0.63 -0.07 -0.65 -0.06 -0.67 -0.05 -0.69 -0.04 -0.72 -0.04 -0.75 -0.02 -0.78 -0.02 -0.81 -0.01 0 -2.52 0.84 0.01 0.81 0.02 0.78 0.03 0.76 0.04 0.73 0.05 0.7 0.05 0.68 0.06 0.66 0.07 0.64 0.07 0.62 0.08 0.6 0.08 0.59 0.09 0.57 0.09 0.56 0.09 0.55 0.09 0.54 0.09 0.53 0.09 0.53 0.09 0.52 0.09 0.51 0.09 0.51 0.08 0.51 0.08 0.51 0.08 0.52 0.07 0.52 0.07 0.53 0.06 0.54 0.05 0.55 0.04 0.56 0.03 0.58 0.03 0.59 0.01 0.61 0.01 1.27 1.26zm-1.27 -1.26l1.27 0 0 1.26 -1.27 -1.26zm-1.31 17.19l0 -2.52 -1.23 0.97 0.11 -0.46 0.1 -0.45 0.09 -0.45 0.09 -0.46 0.08 -0.45 0.08 -0.45 0.07 -0.45 0.07 -0.45 0.06 -0.45 0.06 -0.45 0.05 -0.45 0.05 -0.46 0.05 -0.45 0.04 -0.45 0.04 -0.45 0.04 -0.45 0.03 -0.45 0.03 -0.45 0.02 -0.45 0.02 -0.45 0.02 -0.44 0.02 -0.45 0.01 -0.45 0.01 -0.45 0.01 -0.45 0.01 -0.44 0.01 -0.44 0 -0.44 0 -0.45 0 -0.45 0 -0.44 0 -0.44 2.54 0 0 0.45 -0 0.45 -0 0.45 -0 0.45 -0 0.46 -0.01 0.46 -0.01 0.46 -0.01 0.46 -0.01 0.46 -0.01 0.46 -0.02 0.46 -0.02 0.47 -0.02 0.46 -0.02 0.47 -0.03 0.47 -0.03 0.47 -0.04 0.47 -0.04 0.47 -0.04 0.47 -0.05 0.48 -0.05 0.47 -0.06 0.48 -0.06 0.48 -0.07 0.47 -0.07 0.48 -0.08 0.48 -0.08 0.48 -0.09 0.48 -0.09 0.48 -0.1 0.48 -0.11 0.48 -0.11 0.48 -1.23 0.97zm1.23 -0.97l-0.23 0.97 -1 0 1.23 -0.97zm-3.55 -1.56l2.32 0 0 2.52 -2.32 0 -1.26 -1.1 1.26 -1.42zm0 2.52l-1.12 0 -0.14 -1.1 1.26 1.1zm-15.52 -13.2l0 -2.52 0 0 0.86 0.01 0.85 0.04 0.83 0.06 0.81 0.08 0.79 0.11 0.77 0.14 0.75 0.16 0.73 0.19 0.71 0.22 0.69 0.25 0.67 0.28 0.65 0.3 0.63 0.34 0.6 0.36 0.58 0.4 0.56 0.42 0.53 0.46 0.51 0.49 0.48 0.52 0.46 0.55 0.43 0.58 0.4 0.61 0.37 0.64 0.34 0.67 0.32 0.7 0.29 0.73 0.26 0.76 0.23 0.79 0.21 0.82 0.18 0.85 0.16 0.87 0.13 0.91 -2.52 0.32 -0.12 -0.82 -0.14 -0.79 -0.16 -0.76 -0.19 -0.72 -0.21 -0.69 -0.23 -0.65 -0.25 -0.62 -0.27 -0.59 -0.29 -0.56 -0.31 -0.53 -0.33 -0.5 -0.34 -0.47 -0.36 -0.44 -0.38 -0.41 -0.4 -0.39 -0.42 -0.36 -0.44 -0.34 -0.47 -0.32 -0.49 -0.29 -0.51 -0.27 -0.53 -0.25 -0.56 -0.23 -0.58 -0.21 -0.6 -0.18 -0.63 -0.16 -0.65 -0.14 -0.68 -0.12 -0.7 -0.1 -0.72 -0.08 -0.75 -0.05 -0.77 -0.03 -0.79 -0.01 0 0zm-12.54 8.83l-2.54 0 0 0 0.02 -0.67 0.06 -0.65 0.1 -0.64 0.14 -0.62 0.18 -0.6 0.22 -0.58 0.25 -0.57 0.29 -0.55 0.32 -0.53 0.35 -0.5 0.38 -0.48 0.41 -0.46 0.43 -0.44 0.46 -0.42 0.49 -0.39 0.51 -0.37 0.53 -0.35 0.56 -0.33 0.57 -0.3 0.59 -0.28 0.61 -0.26 0.62 -0.23 0.64 -0.21 0.65 -0.19 0.67 -0.17 0.68 -0.14 0.69 -0.13 0.71 -0.1 0.72 -0.08 0.72 -0.06 0.74 -0.03 0.74 -0.01 0 2.52 -0.67 0.01 -0.65 0.03 -0.65 0.05 -0.64 0.07 -0.62 0.09 -0.61 0.11 -0.6 0.13 -0.58 0.15 -0.56 0.16 -0.55 0.18 -0.53 0.2 -0.51 0.22 -0.49 0.23 -0.48 0.25 -0.45 0.26 -0.43 0.28 -0.41 0.3 -0.39 0.31 -0.36 0.32 -0.34 0.34 -0.31 0.35 -0.29 0.36 -0.27 0.38 -0.24 0.39 -0.21 0.4 -0.19 0.42 -0.16 0.43 -0.13 0.45 -0.11 0.46 -0.08 0.48 -0.05 0.5 -0.02 0.51 0 0zm11.44 12.52l-1.22 2.21 0 0 -0.74 -0.41 -0.72 -0.4 -0.7 -0.4 -0.68 -0.39 -0.66 -0.39 -0.64 -0.39 -0.61 -0.39 -0.6 -0.39 -0.57 -0.39 -0.55 -0.39 -0.53 -0.39 -0.51 -0.4 -0.49 -0.41 -0.47 -0.41 -0.44 -0.42 -0.43 -0.42 -0.4 -0.44 -0.38 -0.44 -0.36 -0.45 -0.33 -0.47 -0.31 -0.48 -0.28 -0.49 -0.26 -0.5 -0.23 -0.51 -0.21 -0.53 -0.18 -0.54 -0.15 -0.56 -0.12 -0.57 -0.09 -0.57 -0.07 -0.6 -0.04 -0.61 -0.01 -0.62 2.54 0 0.01 0.51 0.03 0.49 0.06 0.47 0.07 0.46 0.09 0.44 0.12 0.43 0.13 0.41 0.16 0.4 0.18 0.4 0.2 0.39 0.22 0.38 0.24 0.38 0.26 0.37 0.29 0.37 0.31 0.37 0.33 0.36 0.36 0.36 0.39 0.36 0.41 0.36 0.43 0.36 0.46 0.36 0.48 0.36 0.51 0.36 0.53 0.36 0.56 0.36 0.58 0.37 0.61 0.37 0.63 0.37 0.66 0.38 0.68 0.38 0.7 0.39 0.73 0.4 0 0zm-0 -0l0 0 0.04 0.02 -0.04 -0.02zm7.15 6.79l-8.37 -4.57 1.22 -2.21 8.37 4.57 0 0 -1.22 2.21zm1.22 -2.21l0 0 0.05 0.03 -0.05 -0.03zm15.07 19.31l-2.54 0 0 0 -0.01 -0.62 -0.03 -0.61 -0.05 -0.59 -0.06 -0.58 -0.09 -0.57 -0.11 -0.56 -0.13 -0.54 -0.15 -0.53 -0.17 -0.53 -0.2 -0.52 -0.22 -0.51 -0.25 -0.51 -0.27 -0.51 -0.3 -0.5 -0.33 -0.5 -0.36 -0.5 -0.4 -0.5 -0.43 -0.5 -0.47 -0.5 -0.5 -0.51 -0.54 -0.51 -0.58 -0.51 -0.62 -0.52 -0.66 -0.52 -0.7 -0.52 -0.74 -0.53 -0.79 -0.53 -0.83 -0.54 -0.88 -0.55 -0.92 -0.55 -0.97 -0.56 -1.02 -0.57 1.23 -2.21 1.05 0.59 1 0.58 0.96 0.57 0.91 0.57 0.87 0.57 0.83 0.57 0.79 0.56 0.75 0.56 0.71 0.56 0.67 0.56 0.63 0.56 0.6 0.56 0.56 0.57 0.53 0.57 0.49 0.57 0.46 0.58 0.43 0.59 0.39 0.59 0.36 0.6 0.33 0.61 0.3 0.61 0.27 0.62 0.23 0.62 0.21 0.63 0.18 0.64 0.15 0.65 0.12 0.65 0.1 0.66 0.08 0.67 0.05 0.68 0.03 0.68 0.01 0.69 0 0zm-25.15 18.6l0 -2.52 0 0 1.18 -0.02 1.16 -0.06 1.14 -0.1 1.13 -0.14 1.11 -0.17 1.08 -0.21 1.06 -0.25 1.04 -0.28 1.01 -0.31 0.98 -0.35 0.95 -0.38 0.92 -0.41 0.89 -0.44 0.86 -0.47 0.82 -0.5 0.78 -0.53 0.75 -0.55 0.7 -0.58 0.67 -0.6 0.62 -0.63 0.58 -0.65 0.53 -0.67 0.49 -0.69 0.44 -0.71 0.4 -0.73 0.34 -0.75 0.29 -0.77 0.25 -0.79 0.19 -0.81 0.14 -0.83 0.08 -0.84 0.03 -0.86 2.54 0 -0.04 1.03 -0.1 1.01 -0.17 0.99 -0.23 0.97 -0.29 0.95 -0.35 0.92 -0.41 0.89 -0.47 0.87 -0.52 0.84 -0.57 0.81 -0.62 0.78 -0.67 0.75 -0.72 0.72 -0.76 0.69 -0.8 0.66 -0.84 0.63 -0.88 0.59 -0.92 0.56 -0.95 0.52 -0.98 0.49 -1.02 0.45 -1.05 0.42 -1.08 0.38 -1.1 0.34 -1.13 0.31 -1.15 0.27 -1.17 0.23 -1.2 0.19 -1.22 0.15 -1.23 0.11 -1.25 0.06 -1.26 0.02 0 0zm-20.69 -3.16l2.48 -0.53 -1.22 -1 0.55 0.02 0.55 0.02 0.55 0.04 0.55 0.05 0.55 0.06 0.55 0.06 0.56 0.07 0.56 0.08 0.56 0.08 0.57 0.09 0.57 0.09 0.57 0.09 0.58 0.1 0.58 0.1 0.59 0.1 0.59 0.1 0.6 0.1 0.6 0.1 0.61 0.09 0.61 0.09 0.62 0.09 0.63 0.08 0.64 0.08 0.64 0.07 0.65 0.07 0.65 0.06 0.67 0.05 0.68 0.05 0.69 0.04 0.69 0.03 0.7 0.01 0.71 0.01 0 2.52 -0.75 -0.01 -0.74 -0.02 -0.73 -0.03 -0.72 -0.04 -0.71 -0.05 -0.7 -0.06 -0.69 -0.06 -0.68 -0.07 -0.67 -0.08 -0.66 -0.08 -0.65 -0.09 -0.64 -0.09 -0.63 -0.09 -0.62 -0.1 -0.61 -0.1 -0.6 -0.1 -0.6 -0.1 -0.59 -0.1 -0.58 -0.1 -0.57 -0.09 -0.57 -0.09 -0.56 -0.09 -0.55 -0.08 -0.54 -0.08 -0.54 -0.07 -0.53 -0.07 -0.53 -0.06 -0.52 -0.05 -0.51 -0.04 -0.5 -0.03 -0.5 -0.02 -0.49 -0.01 -1.22 -1zm1.22 1l-1.01 -0.02 -0.21 -0.98 1.22 1z"/>
   </g>
   <g>
    <path class="fil2" d="M705.38 357.45c-0.7,-3.28 -1.01,-10.18 -1.01,-14.66l2.32 0c2.42,9.32 7.86,13.28 18.65,13.28 7.46,0 15.52,-3.8 15.52,-11.13 0,-6.47 -3.93,-10.44 -11.09,-14.32l-8.97 -4.83c-8.67,-4.66 -14.62,-9.49 -14.62,-17.42 0,-9.92 9.17,-16.05 21.37,-16.05 8.97,0 12.4,1.99 19.25,1.99 0,4.74 -0.1,9.66 -1.31,14.66l-2.32 0c-1.21,-9.4 -6.55,-13.2 -15.52,-13.2 -7.56,0 -13.81,3.71 -13.81,10.09 0,6.12 4.13,9.32 12.09,13.63l8.37 4.57c11.29,6.21 14.41,11.13 14.41,18.2 0,10.18 -10.78,17.34 -23.89,17.34 -7.86,-0 -13.91,-2.07 -19.45,-2.16z"/>
    <path id="1" class="fil2" d="M704.37 341.52l0 2.52 1.27 -1.26 0 0.42 0 0.43 0 0.45 0.01 0.46 0.01 0.47 0.01 0.48 0.01 0.49 0.01 0.49 0.02 0.49 0.02 0.5 0.02 0.5 0.02 0.51 0.02 0.51 0.02 0.5 0.03 0.5 0.03 0.5 0.03 0.5 0.03 0.49 0.04 0.49 0.04 0.48 0.04 0.47 0.04 0.46 0.05 0.45 0.04 0.44 0.05 0.42 0.05 0.41 0.05 0.39 0.05 0.38 0.06 0.36 0.06 0.34 0.06 0.32 0.06 0.29 -2.48 0.53 -0.07 -0.34 -0.07 -0.36 -0.06 -0.38 -0.06 -0.39 -0.06 -0.41 -0.06 -0.42 -0.05 -0.43 -0.05 -0.45 -0.05 -0.46 -0.05 -0.47 -0.04 -0.48 -0.04 -0.49 -0.04 -0.49 -0.04 -0.5 -0.03 -0.51 -0.04 -0.51 -0.03 -0.51 -0.03 -0.52 -0.02 -0.52 -0.02 -0.51 -0.02 -0.51 -0.02 -0.51 -0.02 -0.51 -0.02 -0.51 -0.01 -0.5 -0.01 -0.49 -0.01 -0.49 -0.01 -0.48 -0.01 -0.47 -0 -0.45 -0 -0.45 0 -0.43 1.27 -1.26zm-1.27 1.26l0 -1.26 1.27 0 -1.27 1.26zm3.59 1.26l-2.32 0 0 -2.52 2.32 0 1.23 0.95 -1.23 1.58zm0 -2.52l0.98 0 0.25 0.95 -1.23 -0.95zm18.65 13.28l0 2.52 0 0 -1.03 -0.01 -1 -0.04 -0.97 -0.06 -0.94 -0.09 -0.91 -0.11 -0.89 -0.14 -0.86 -0.17 -0.84 -0.19 -0.81 -0.22 -0.78 -0.25 -0.76 -0.28 -0.73 -0.31 -0.71 -0.34 -0.68 -0.37 -0.66 -0.4 -0.63 -0.43 -0.6 -0.46 -0.58 -0.49 -0.55 -0.52 -0.53 -0.55 -0.5 -0.58 -0.47 -0.61 -0.45 -0.64 -0.42 -0.66 -0.4 -0.7 -0.37 -0.72 -0.35 -0.75 -0.33 -0.78 -0.31 -0.81 -0.29 -0.83 -0.27 -0.86 -0.25 -0.89 2.45 -0.63 0.22 0.82 0.25 0.79 0.26 0.76 0.28 0.72 0.29 0.69 0.31 0.66 0.33 0.63 0.34 0.6 0.36 0.57 0.38 0.54 0.4 0.51 0.41 0.48 0.44 0.45 0.46 0.43 0.48 0.4 0.5 0.38 0.52 0.35 0.55 0.33 0.57 0.31 0.6 0.28 0.62 0.26 0.65 0.24 0.68 0.22 0.71 0.19 0.74 0.17 0.77 0.15 0.8 0.13 0.84 0.1 0.87 0.08 0.9 0.06 0.93 0.03 0.96 0.01 0 0zm14.25 -9.86l2.54 0 0 0 -0.03 0.76 -0.08 0.75 -0.13 0.72 -0.18 0.7 -0.22 0.68 -0.27 0.65 -0.31 0.63 -0.35 0.6 -0.39 0.58 -0.43 0.55 -0.46 0.52 -0.49 0.5 -0.52 0.47 -0.54 0.44 -0.57 0.42 -0.59 0.39 -0.61 0.37 -0.63 0.34 -0.65 0.32 -0.66 0.29 -0.68 0.27 -0.69 0.25 -0.7 0.22 -0.71 0.2 -0.72 0.18 -0.73 0.15 -0.73 0.13 -0.74 0.11 -0.74 0.08 -0.74 0.06 -0.74 0.04 -0.74 0.01 0 -2.52 0.66 -0.01 0.66 -0.04 0.67 -0.05 0.66 -0.07 0.66 -0.09 0.65 -0.12 0.65 -0.13 0.64 -0.16 0.63 -0.18 0.62 -0.2 0.6 -0.21 0.59 -0.23 0.57 -0.26 0.56 -0.27 0.54 -0.29 0.52 -0.31 0.49 -0.33 0.47 -0.34 0.44 -0.36 0.41 -0.38 0.39 -0.4 0.36 -0.41 0.33 -0.43 0.3 -0.44 0.27 -0.46 0.24 -0.47 0.2 -0.49 0.17 -0.51 0.13 -0.53 0.1 -0.55 0.06 -0.56 0.02 -0.59 0 0zm-10.42 -13.21l1.21 -2.22 0 0 0.68 0.37 0.66 0.37 0.64 0.38 0.62 0.38 0.61 0.38 0.58 0.39 0.57 0.39 0.55 0.4 0.53 0.4 0.51 0.41 0.49 0.42 0.48 0.43 0.45 0.43 0.43 0.44 0.41 0.46 0.4 0.46 0.37 0.47 0.35 0.48 0.33 0.49 0.31 0.5 0.28 0.52 0.26 0.53 0.24 0.54 0.21 0.55 0.19 0.56 0.16 0.58 0.14 0.59 0.11 0.6 0.09 0.61 0.06 0.63 0.04 0.64 0.01 0.65 -2.54 0 -0.01 -0.55 -0.03 -0.53 -0.05 -0.52 -0.07 -0.51 -0.09 -0.49 -0.11 -0.48 -0.13 -0.47 -0.15 -0.45 -0.17 -0.44 -0.19 -0.43 -0.21 -0.43 -0.23 -0.42 -0.25 -0.41 -0.27 -0.41 -0.29 -0.4 -0.31 -0.4 -0.33 -0.39 -0.35 -0.38 -0.38 -0.38 -0.4 -0.38 -0.41 -0.37 -0.44 -0.37 -0.46 -0.37 -0.48 -0.37 -0.5 -0.36 -0.52 -0.36 -0.54 -0.36 -0.56 -0.36 -0.58 -0.36 -0.61 -0.36 -0.63 -0.36 -0.65 -0.36 0 0zm1.21 -2.22l0 0 0.04 0.02 -0.04 -0.02zm-8.97 -4.83l8.97 4.83 -1.21 2.22 -8.97 -4.83 1.21 -2.22zm-16.49 -16.31l2.54 0 0 0 0.01 0.68 0.05 0.65 0.08 0.64 0.11 0.62 0.14 0.61 0.16 0.59 0.19 0.57 0.22 0.56 0.25 0.55 0.28 0.54 0.3 0.53 0.33 0.52 0.36 0.51 0.38 0.51 0.41 0.5 0.44 0.49 0.47 0.49 0.49 0.48 0.51 0.47 0.54 0.47 0.56 0.46 0.59 0.46 0.61 0.46 0.63 0.45 0.66 0.44 0.68 0.44 0.7 0.44 0.72 0.44 0.74 0.43 0.76 0.43 0.77 0.43 0.79 0.43 -1.21 2.22 -0.82 -0.44 -0.8 -0.44 -0.78 -0.45 -0.77 -0.45 -0.75 -0.46 -0.73 -0.46 -0.71 -0.46 -0.7 -0.47 -0.68 -0.48 -0.65 -0.49 -0.64 -0.49 -0.62 -0.51 -0.6 -0.51 -0.57 -0.53 -0.55 -0.54 -0.52 -0.55 -0.5 -0.56 -0.47 -0.57 -0.45 -0.59 -0.42 -0.6 -0.39 -0.62 -0.36 -0.63 -0.33 -0.65 -0.3 -0.67 -0.27 -0.68 -0.23 -0.7 -0.2 -0.71 -0.17 -0.73 -0.13 -0.75 -0.09 -0.76 -0.06 -0.78 -0.02 -0.79 0 0zm22.63 -17.31l0 2.52 0 0 -1.09 0.02 -1.07 0.05 -1.05 0.08 -1.03 0.12 -1.01 0.15 -0.98 0.18 -0.96 0.21 -0.93 0.25 -0.9 0.28 -0.88 0.3 -0.84 0.33 -0.81 0.36 -0.78 0.39 -0.75 0.42 -0.72 0.44 -0.68 0.47 -0.65 0.5 -0.61 0.52 -0.57 0.54 -0.53 0.57 -0.5 0.59 -0.46 0.61 -0.42 0.64 -0.38 0.66 -0.34 0.68 -0.3 0.7 -0.25 0.73 -0.21 0.75 -0.16 0.77 -0.12 0.8 -0.07 0.82 -0.02 0.85 -2.54 0 0.03 -0.99 0.09 -0.97 0.14 -0.95 0.2 -0.92 0.25 -0.9 0.3 -0.88 0.35 -0.85 0.41 -0.82 0.46 -0.79 0.5 -0.76 0.55 -0.73 0.59 -0.7 0.63 -0.67 0.67 -0.64 0.71 -0.61 0.75 -0.57 0.78 -0.54 0.82 -0.51 0.85 -0.47 0.88 -0.44 0.92 -0.41 0.95 -0.37 0.97 -0.34 1 -0.3 1.03 -0.27 1.05 -0.23 1.07 -0.2 1.1 -0.16 1.12 -0.13 1.14 -0.09 1.15 -0.05 1.18 -0.02 0 0zm20.52 3.25l-2.54 0 1.27 1.26 -0.65 -0.01 -0.64 -0.02 -0.62 -0.03 -0.61 -0.04 -0.59 -0.05 -0.57 -0.05 -0.57 -0.06 -0.55 -0.07 -0.55 -0.07 -0.54 -0.08 -0.53 -0.08 -0.53 -0.09 -0.52 -0.09 -0.53 -0.09 -0.53 -0.09 -0.53 -0.09 -0.53 -0.09 -0.54 -0.09 -0.54 -0.09 -0.55 -0.09 -0.56 -0.08 -0.58 -0.08 -0.6 -0.08 -0.61 -0.07 -0.63 -0.07 -0.65 -0.06 -0.67 -0.05 -0.69 -0.04 -0.72 -0.04 -0.75 -0.02 -0.78 -0.02 -0.81 -0.01 0 -2.52 0.84 0.01 0.81 0.02 0.78 0.03 0.76 0.04 0.73 0.05 0.7 0.05 0.68 0.06 0.66 0.07 0.64 0.07 0.62 0.08 0.6 0.08 0.59 0.09 0.57 0.09 0.56 0.09 0.55 0.09 0.54 0.09 0.53 0.09 0.53 0.09 0.52 0.09 0.51 0.09 0.51 0.08 0.51 0.08 0.51 0.08 0.52 0.07 0.52 0.07 0.53 0.06 0.54 0.05 0.55 0.04 0.56 0.03 0.58 0.03 0.59 0.01 0.61 0.01 1.27 1.26zm-1.27 -1.26l1.27 0 0 1.26 -1.27 -1.26zm-1.31 17.19l0 -2.52 -1.23 0.97 0.11 -0.46 0.1 -0.45 0.09 -0.45 0.09 -0.45 0.08 -0.45 0.08 -0.45 0.07 -0.45 0.07 -0.45 0.06 -0.45 0.06 -0.45 0.05 -0.45 0.05 -0.45 0.05 -0.45 0.04 -0.45 0.04 -0.45 0.04 -0.45 0.03 -0.45 0.03 -0.45 0.02 -0.44 0.02 -0.45 0.02 -0.45 0.02 -0.44 0.01 -0.45 0.01 -0.45 0.01 -0.45 0.01 -0.44 0.01 -0.44 0 -0.44 0 -0.45 0 -0.45 0 -0.44 0 -0.44 2.54 0 0 0.45 -0 0.45 -0 0.45 -0 0.45 -0 0.46 -0.01 0.46 -0.01 0.46 -0.01 0.46 -0.01 0.46 -0.01 0.46 -0.02 0.47 -0.02 0.46 -0.02 0.46 -0.02 0.47 -0.03 0.47 -0.03 0.47 -0.04 0.47 -0.04 0.47 -0.04 0.47 -0.05 0.48 -0.05 0.47 -0.06 0.47 -0.06 0.48 -0.07 0.48 -0.07 0.48 -0.08 0.48 -0.08 0.48 -0.09 0.48 -0.09 0.48 -0.1 0.48 -0.11 0.48 -0.11 0.48 -1.23 0.97zm1.23 -0.97l-0.23 0.97 -1 0 1.23 -0.97zm-3.55 -1.56l2.32 0 0 2.52 -2.32 0 -1.26 -1.1 1.26 -1.42zm0 2.52l-1.12 0 -0.14 -1.1 1.26 1.1zm-15.52 -13.2l0 -2.52 0 0 0.86 0.01 0.85 0.04 0.83 0.06 0.81 0.08 0.79 0.11 0.77 0.14 0.75 0.16 0.73 0.19 0.71 0.22 0.69 0.25 0.67 0.28 0.65 0.3 0.63 0.34 0.6 0.36 0.58 0.4 0.56 0.42 0.53 0.46 0.51 0.49 0.48 0.52 0.46 0.55 0.43 0.58 0.4 0.61 0.37 0.64 0.34 0.67 0.32 0.7 0.29 0.73 0.26 0.76 0.23 0.79 0.21 0.82 0.18 0.85 0.16 0.87 0.13 0.91 -2.52 0.32 -0.12 -0.82 -0.14 -0.79 -0.16 -0.76 -0.19 -0.72 -0.21 -0.69 -0.23 -0.65 -0.25 -0.62 -0.27 -0.59 -0.29 -0.56 -0.31 -0.53 -0.33 -0.5 -0.34 -0.47 -0.36 -0.44 -0.38 -0.41 -0.4 -0.39 -0.42 -0.36 -0.44 -0.34 -0.47 -0.32 -0.49 -0.29 -0.51 -0.27 -0.53 -0.25 -0.56 -0.23 -0.58 -0.21 -0.6 -0.18 -0.63 -0.16 -0.65 -0.14 -0.68 -0.12 -0.7 -0.1 -0.72 -0.08 -0.75 -0.05 -0.77 -0.03 -0.79 -0.01 0 0zm-12.54 8.83l-2.54 0 0 0 0.02 -0.67 0.06 -0.65 0.1 -0.64 0.14 -0.62 0.18 -0.6 0.22 -0.58 0.25 -0.57 0.29 -0.55 0.32 -0.53 0.35 -0.5 0.38 -0.48 0.41 -0.46 0.43 -0.44 0.46 -0.42 0.49 -0.39 0.51 -0.37 0.53 -0.35 0.56 -0.33 0.57 -0.3 0.59 -0.28 0.61 -0.26 0.62 -0.23 0.64 -0.21 0.65 -0.19 0.67 -0.17 0.68 -0.14 0.69 -0.13 0.71 -0.1 0.72 -0.08 0.72 -0.06 0.74 -0.03 0.74 -0.01 0 2.52 -0.67 0.01 -0.65 0.03 -0.65 0.05 -0.64 0.07 -0.62 0.09 -0.61 0.11 -0.6 0.13 -0.58 0.15 -0.56 0.16 -0.55 0.18 -0.53 0.2 -0.51 0.22 -0.49 0.23 -0.48 0.25 -0.45 0.26 -0.43 0.28 -0.41 0.3 -0.39 0.31 -0.36 0.32 -0.34 0.34 -0.31 0.35 -0.29 0.36 -0.27 0.38 -0.24 0.39 -0.21 0.4 -0.19 0.42 -0.16 0.43 -0.13 0.45 -0.11 0.46 -0.08 0.48 -0.05 0.5 -0.02 0.51 0 0zm11.43 12.52l-1.22 2.21 0 0 -0.74 -0.41 -0.72 -0.4 -0.7 -0.4 -0.68 -0.39 -0.66 -0.39 -0.64 -0.39 -0.62 -0.39 -0.59 -0.39 -0.57 -0.39 -0.55 -0.39 -0.53 -0.4 -0.51 -0.4 -0.49 -0.4 -0.47 -0.41 -0.44 -0.42 -0.43 -0.42 -0.4 -0.44 -0.38 -0.44 -0.36 -0.45 -0.33 -0.47 -0.31 -0.48 -0.28 -0.49 -0.26 -0.5 -0.23 -0.51 -0.21 -0.53 -0.18 -0.54 -0.15 -0.56 -0.12 -0.57 -0.09 -0.57 -0.07 -0.6 -0.04 -0.61 -0.01 -0.62 2.54 0 0.01 0.51 0.03 0.49 0.06 0.47 0.07 0.46 0.09 0.44 0.12 0.43 0.13 0.41 0.16 0.4 0.18 0.4 0.2 0.39 0.22 0.38 0.24 0.38 0.26 0.37 0.29 0.37 0.31 0.37 0.33 0.36 0.36 0.36 0.39 0.36 0.41 0.36 0.43 0.36 0.46 0.36 0.49 0.36 0.51 0.36 0.53 0.36 0.56 0.36 0.58 0.37 0.61 0.37 0.63 0.37 0.66 0.38 0.68 0.38 0.7 0.39 0.73 0.4 0 0zm-0 -0l0 0 0.04 0.02 -0.04 -0.02zm7.15 6.79l-8.37 -4.57 1.22 -2.21 8.37 4.57 0 0 -1.22 2.21zm1.22 -2.21l0 0 0.05 0.03 -0.06 -0.03zm15.07 19.31l-2.54 0 0 0 -0.01 -0.62 -0.03 -0.61 -0.05 -0.59 -0.06 -0.58 -0.09 -0.57 -0.1 -0.55 -0.13 -0.54 -0.15 -0.53 -0.17 -0.53 -0.2 -0.52 -0.22 -0.51 -0.25 -0.5 -0.28 -0.51 -0.3 -0.5 -0.33 -0.5 -0.36 -0.5 -0.4 -0.5 -0.43 -0.5 -0.47 -0.5 -0.5 -0.51 -0.54 -0.51 -0.58 -0.51 -0.62 -0.52 -0.66 -0.52 -0.7 -0.52 -0.75 -0.53 -0.79 -0.53 -0.83 -0.54 -0.88 -0.55 -0.92 -0.55 -0.97 -0.56 -1.02 -0.57 1.23 -2.21 1.05 0.59 1 0.58 0.96 0.57 0.91 0.57 0.87 0.57 0.83 0.57 0.79 0.56 0.75 0.56 0.71 0.56 0.67 0.56 0.63 0.56 0.6 0.56 0.56 0.57 0.53 0.57 0.49 0.57 0.46 0.58 0.43 0.59 0.39 0.59 0.36 0.6 0.33 0.6 0.3 0.61 0.27 0.62 0.23 0.62 0.21 0.63 0.18 0.64 0.15 0.65 0.12 0.65 0.1 0.66 0.08 0.67 0.05 0.68 0.03 0.68 0.01 0.69 0 0zm-25.15 18.6l0 -2.52 0 0 1.18 -0.02 1.16 -0.06 1.14 -0.1 1.13 -0.14 1.11 -0.17 1.09 -0.21 1.06 -0.25 1.04 -0.28 1.01 -0.31 0.98 -0.35 0.96 -0.38 0.92 -0.41 0.89 -0.44 0.85 -0.47 0.82 -0.5 0.78 -0.53 0.74 -0.55 0.71 -0.58 0.66 -0.6 0.62 -0.63 0.58 -0.65 0.53 -0.67 0.49 -0.69 0.44 -0.71 0.4 -0.73 0.34 -0.75 0.29 -0.77 0.25 -0.79 0.19 -0.81 0.14 -0.83 0.08 -0.84 0.03 -0.86 2.54 0 -0.04 1.03 -0.1 1.01 -0.17 0.99 -0.23 0.97 -0.29 0.95 -0.35 0.92 -0.41 0.89 -0.47 0.87 -0.52 0.84 -0.57 0.81 -0.62 0.78 -0.67 0.75 -0.71 0.72 -0.76 0.69 -0.8 0.66 -0.84 0.63 -0.88 0.59 -0.91 0.56 -0.95 0.52 -0.98 0.49 -1.02 0.45 -1.05 0.42 -1.08 0.38 -1.1 0.34 -1.13 0.31 -1.15 0.27 -1.18 0.23 -1.2 0.19 -1.22 0.15 -1.23 0.11 -1.25 0.06 -1.26 0.02 0 0zm-20.69 -3.16l2.48 -0.53 -1.22 -1 0.55 0.02 0.55 0.02 0.55 0.04 0.55 0.05 0.55 0.06 0.55 0.06 0.56 0.07 0.56 0.08 0.56 0.08 0.57 0.09 0.57 0.09 0.57 0.09 0.58 0.1 0.58 0.1 0.59 0.1 0.59 0.1 0.6 0.1 0.61 0.1 0.61 0.09 0.61 0.09 0.62 0.09 0.63 0.09 0.63 0.08 0.64 0.07 0.65 0.07 0.65 0.06 0.67 0.05 0.68 0.05 0.68 0.04 0.69 0.03 0.7 0.01 0.71 0.01 0 2.52 -0.75 -0.01 -0.74 -0.02 -0.73 -0.03 -0.72 -0.04 -0.71 -0.05 -0.7 -0.06 -0.69 -0.06 -0.68 -0.07 -0.67 -0.08 -0.66 -0.08 -0.65 -0.09 -0.64 -0.09 -0.63 -0.09 -0.62 -0.1 -0.61 -0.1 -0.6 -0.1 -0.6 -0.1 -0.59 -0.1 -0.58 -0.1 -0.57 -0.09 -0.57 -0.09 -0.55 -0.09 -0.55 -0.08 -0.54 -0.08 -0.54 -0.07 -0.53 -0.07 -0.53 -0.06 -0.52 -0.05 -0.51 -0.04 -0.5 -0.03 -0.5 -0.02 -0.49 -0.01 -1.22 -1zm1.22 1l-1.01 -0.02 -0.21 -0.98 1.22 1z"/>
   </g>
   <path class="fil3" d="M606.11 84.34l7.26 34.36c1.21,7.16 -7.53,5.86 -8.74,-0.27l-6.32 -37.3c-1.21,-4.09 6.59,-3 7.8,3.21zm17.73 14.07l4.06 22.09c1.35,8.02 -6.77,6.87 -6.77,-1.14l-1.36 -20.95c-1.35,-4.58 4.06,-4.58 4.06,0zm15.59 14.08l3.94 18.41c1.32,5.56 -6.57,3.97 -6.57,-3.81l-0.51 -11.11c-1.31,-6.67 3.14,-5.71 3.14,-3.49zm190.59 -28.15c1.21,-5.11 8.46,-5.11 7.25,-1.02l-5.22 35.11c-1.21,6.14 -9.67,7.16 -8.46,0l6.44 -34.09zm-17.27 14.71c0,-4.09 4.84,-4.09 3.63,0l-1.21 18.7c0,7.16 -7.25,8.18 -6.04,1.02l3.62 -19.72zm-15.71 13.97c0,-2.05 4.1,-2.92 2.89,3.21l-0.47 10.23c0,7.16 -7.25,8.62 -6.04,3.5l3.62 -16.94zm-70.61 3.26c2.42,0 7.71,3.44 7.71,7.53 -0.12,6.85 -0.43,7.03 0.19,13.7 5.38,2.24 -0.68,5.17 -3.52,4.71 -1.55,-0.1 -4.59,0.57 -6.15,0.47 -5.8,-0.63 -3.08,7.5 -3.89,11.22 -0.4,1.82 -4.28,3.48 -4.38,0.59 -3.63,0 -6.04,-10.97 -1.21,-15.06 3.63,-3.07 11.62,-3.35 14.04,-9.48 2.42,-5.12 -1.21,-7.16 -3.63,-2.04 -2.42,2.04 -8.74,3.53 -12.36,4.56 -3.63,0 -8.74,4.83 -8.74,8.92 -0.41,13.11 3.82,18.27 12.62,20.97 3.76,1.16 9.41,1.36 10.57,-7.43 0.24,-1.81 0.59,-3.67 0.33,-5.54l13.37 -0.45c1.33,-0.05 3.58,-0.93 4.48,-3.04 0.54,-1.25 1.19,-2.99 -0.78,-4.23l-2.51 -2.76c-4.86,-5.35 4.01,-18.57 -3.03,-23.37 -2.43,-1.66 -4.76,-0.88 -7.39,-4.76 -1.02,-1.52 -0.67,-3.29 0.23,-5.74 5.87,-2.13 17.17,-10.52 21.86,-17.32 4.81,-6.97 -1.16,-11.67 -6.68,-10.85 -3.25,0.48 -6.52,3.07 -9.56,4 -1.7,0.52 -4.13,1.85 -4.32,-0.2 0,-6.13 -0.97,-13.82 -6.23,-18.6 -2.9,-2.63 -9.15,-5.6 -17.03,-4.33 -12.34,1.99 -18.27,13.3 -9.18,23.2 1.19,1.3 2.49,3.21 1.15,4.81 -4.87,5.8 -9.31,12.59 -10.28,20.79 -1.09,9.15 4.07,17.64 10.34,17.64 4.83,0 10.97,-4.28 13.39,-1.21 2.42,3.07 6.04,-0.75 6.04,-3.81 -3.76,-6.76 -12.34,-1.83 -17.29,-2.98 -5.12,-1.18 -5.76,-7.86 -3.53,-12.46 5.96,-12.3 13.26,-13.66 8.98,-26.96 8.75,-2.76 9.93,-4.4 11.69,-8.18 6.28,2.56 6.55,12.02 4.42,13.57 -7.61,5.52 -1.57,7.35 3.26,7.35 3.62,1.02 10.57,-2.55 14.2,-5.62 5.44,-1.8 4.53,3.01 3.24,4.47 -3.51,3.97 -15.21,11.37 -18.74,11.37 -4.83,0 -5.67,3.26 -5.67,6.32 0.22,3.3 -0.1,9.07 4,10.23zm-8.22 126.92c-4.01,-2.04 -15.5,-10.6 -30.6,-17.92 -23,-11.15 -45.24,-19.51 -68.12,-28.64 -7.65,-3.05 -17.23,-10.13 -19.65,-17.29l-18.91 -30.1c-3.3,-5.25 -3.05,-12.87 -2.77,-18.11l2.46 -45.29c0,-8.18 9.28,-6.48 9.28,5.79 2.94,14.06 5.49,28.9 8.42,42.96 1.74,8.31 1.37,22.4 15.88,31.61l28.37 14.12c14.5,6.14 15.71,-5.11 4.83,-9.2l-22.49 -12.03c-10.88,-5.11 -21.33,-29.8 -0.78,-18.56l53.49 22.26c29.01,11.25 36.96,35.45 40.58,52.84 3.63,-17.39 11.58,-41.59 40.58,-52.84l53.49 -22.26c20.55,-11.25 10.1,13.44 -0.78,18.56l-22.49 12.03c-10.88,4.09 -9.67,15.34 4.83,9.2l28.37 -14.12c14.5,-9.21 14.14,-23.29 15.88,-31.61 2.94,-14.06 5.48,-28.9 8.42,-42.96 0,-12.27 9.28,-13.98 9.28,-5.79l2.46 45.29c0.28,5.25 0.53,12.86 -2.77,18.11l-18.91 30.1c-2.42,7.16 -12,14.24 -19.65,17.29 -22.88,9.13 -45.12,17.49 -68.12,28.64 -15.1,7.32 -26.59,15.88 -30.61,17.92zm4.73 11.53c10,-5.89 28,-17.06 39.17,-21.36l64.96 -27.23c4.84,-1.02 13.99,-9.1 16.41,-13.2l24.95 -41.31c2.42,-5.11 2.46,-13.3 2.46,-17.39l-3.32 -53.05c-1.49,-23.8 -19.04,-26.21 -29.61,-22.39 -12.43,4.5 -19.24,17.94 -19.97,18.24 -10.07,2.72 -16.13,7.15 -18.3,17.08 -0.25,1.15 -5.14,-1.09 -5.68,-0.03 5.44,-18.32 -7.28,-25.08 -16.52,-43.17 -11.26,-22.03 -24.64,-30.3 -33.09,-30.7 -12.71,-0.61 -20.54,5.53 -20.54,17.8 -0.16,16.22 8.73,21.11 13.48,22.06 5.64,1.13 5.65,-0.42 -0.27,-5.06 -4.51,-3.53 -7.49,-17.46 0.86,-18.77 7.8,-1.22 17.15,4.1 18.02,13.15 0.96,10.01 7.34,19.08 12.75,20.95 10.35,3.59 13.04,11.13 13.07,21.43 0.06,14.67 -1.56,24.43 -2.69,39.19 -0.67,8.71 -4.05,11.92 -10.24,13.2 -20.93,4.33 -42.28,21.56 -50.73,30 -9.37,-12.4 -34.23,-24.84 -46.43,-27.8 -6.04,-1.02 -14.26,-5.89 -15.47,-14.07 -1.21,-21.48 -8.3,-62.18 19.77,-72.41 4.84,-3.07 12.91,-3.46 3.24,-21.87 8.46,-1.02 13.64,-8.57 13.64,-14.71 10.62,-6.36 25.86,7.63 9.48,25.54 -6,6.56 -3.73,6.49 0.36,4.96 18.5,-6.92 21.04,-31.05 10.05,-40.73 -3.98,-3.5 -8.5,-5.36 -19.29,-5.12 -14.5,0.33 -23.93,7.21 -25.5,18.41 -2.02,14.42 10.25,17.04 3.94,25.22 -19.34,7.16 -29.71,15.48 -28.51,44.12 -0.54,-1.05 -6.43,-0.45 -6.67,-1.6 -2.17,-9.92 -8.23,-14.36 -18.3,-17.08 -0.72,-0.31 -7.54,-13.75 -19.97,-18.24 -10.56,-3.82 -28.12,-1.41 -29.61,22.39l-3.32 53.05c0,4.09 0.04,12.27 2.46,17.39l24.95 41.31c2.42,4.09 11.58,12.17 16.41,13.2l64.96 27.23c11.29,4.34 29.56,15.71 39.49,21.55 5.27,3.1 3.8,2.96 9.14,-0.19z"/>
  </g>
  <rect class="fil4" y="-0" width="912.12" height="375.12"/>
 </g>
</svg>
