<?xml version="1.0" encoding="UTF-8"?>
<!DOCTYPE svg PUBLIC "-//W3C//DTD SVG 1.1//EN" "http://www.w3.org/Graphics/SVG/1.1/DTD/svg11.dtd">
<!-- Creator: CorelDRAW 2017 -->
<svg xmlns="http://www.w3.org/2000/svg" xml:space="preserve" width="44.2918mm" height="18.7831mm" version="1.1" style="shape-rendering:geometricPrecision; text-rendering:geometricPrecision; image-rendering:optimizeQuality; fill-rule:evenodd; clip-rule:evenodd"
viewBox="0 0 912.12 386.81"
 xmlns:xlink="http://www.w3.org/1999/xlink">
 <defs>
  <style type="text/css">
   <![CDATA[
    .fil2 {fill:none}
    .fil0 {fill:#00604D}
    .fil1 {fill:#FEFEFE}
   ]]>
  </style>
 </defs>
 <g id="Capa_x0020_1">
  <metadata id="CorelCorpID_0Corel-Layer"/>
  <g id="_1448092996512">
   <path class="fil0" d="M618.84 220.96c1.18,19.93 16.34,35.08 36.26,36.26 64.59,3.97 128.37,3.97 194.14,0 19.93,-1.18 35.08,-16.34 36.26,-36.26 4.39,-60.2 4.39,-118.41 0,-176.58 -1.6,-19.93 -16.34,-35.08 -36.26,-36.27 -68.56,-4.81 -127.57,-3.59 -194.14,0 -19.93,1.18 -35.08,16.34 -36.26,36.26 -3.59,59.01 -3.59,116.01 0,176.59z"/>
   <path class="fil1" d="M740.42 81.06l36.68 -26.72c21.91,-15.54 45.85,-45.04 70.16,-31.49 6.8,3.21 11.15,10.76 13.55,18.32 9.16,30.69 3.21,63.36 -5.19,95.28 -10.76,42.64 -19.12,96.88 -61,106.84 -3.97,0.8 -19.12,3.21 -15.96,0.8 0.8,-0.8 13.55,-10.77 15.96,-18.32 10.76,-28.29 0,-62.6 -21.53,-84.51 -31.11,-29.89 -75.35,-38.29 -119.59,-35.08 -3.59,0 -8.36,0.8 -10.77,3.59 -1.18,0.8 -6.79,-9.16 -2.79,-11.95 6.8,-4.77 8.36,-4.77 9.96,-5.57 2.79,-0.8 10.38,7.56 13.55,4.77 2.41,-1.6 3.97,-3.97 5.19,-6.8l-12.75 -0.8c14.35,-18.32 45.04,-11.57 67.76,-12.37 3.21,0 7.56,-2.4 1.6,2.41 -4.77,4.39 -24.31,15.96 -31.87,19.13 16.72,-1.57 32.68,-9.16 47.03,-17.52z"/>
   <path class="fil1" d="M690.99 230.54l-8.36 -9.96c-22.33,-27.52 -25.12,-64.97 -30.69,-100.05 14.73,-3.59 29.89,-4.39 45.04,0 13.17,3.97 13.17,19.12 14.35,18.32 9.96,-6.79 13.97,-5.19 21.53,-5.19 28.29,0 47.03,31.11 51.84,57.79 1.6,10.76 2.41,22.71 -2.41,31.87 -12.75,22.33 -45.04,19.93 -70.96,18.32 -6.8,-0.72 -15.15,-5.12 -20.35,-11.11z"/>
   <path class="fil0" d="M645.57 378.84l10.76 0 5.99 -70.96 1.18 -16.76 27.1 87.72 12.75 0 26.72 -84.89 5.57 84.89 19.93 0 1.18 0 -11.15 -106.42 -17.52 0 -25.5 74.13 -3.21 9.58 -1.6 -5.99 -23.52 -77.72 -13.97 0c-0.38,0 -7.56,67.75 -13.97,102.45l-0.76 3.97z"/>
   <path class="fil1" d="M643.54 39.19c1.6,-5.57 3.97,-11.57 9.16,-14.73 7.56,-5.19 16.76,-5.99 25.12,-3.59 23.13,8.36 57.41,43.44 55.81,44.24 -23.13,6.8 -45.85,-0.8 -68.56,5.99 -10.76,3.59 -19.12,11.57 -19.93,9.96 -5.95,-13.17 -5.19,-29.89 -1.6,-41.87z"/>
   <path class="fil0" d="M712.14 147.21l-0.8 2.41c-1.99,5.99 0,12.75 1.6,19.55 0.8,2.4 0.8,5.57 0.8,7.98 -0.8,4.39 -3.59,6.8 -3.59,11.15 1.99,0.8 1.99,-2.79 2.79,-4.39 3.97,-9.16 19.93,-8.36 27.52,-11.57 2.41,-0.8 5.99,-4.39 5.19,-6.79 0,-0.8 -2.79,2.4 -4.39,3.59 -1.6,0.8 -3.97,0.8 -6.79,0.8 -7.56,0 -13.97,-4.39 -16.76,-11.15 -1.6,-3.21 -0.8,-8.36 2.79,-10.76 16.76,-12.37 35.88,15.96 39.05,35.08 1.6,6.79 0.8,14.35 -1.6,21.11 -1.6,4.77 -5.99,8.36 -10.76,9.16 -5.99,0.8 -12.75,1.6 -17.52,-1.99 -0.8,-0.8 1.6,-1.6 1.6,-3.97 0,-2.37 -4.39,-3.21 -4.39,-3.21 0,0 0,-5.19 -3.97,-7.56 -5.99,-3.59 -13.55,-2.79 -17.52,2.41 -3.21,5.19 -3.21,11.57 0.8,14.35 5.19,3.21 10.76,2.41 16.76,1.6 2.41,0 3.97,1.6 7.56,1.6 3.21,0 -5.19,3.21 -6.79,3.21 -5.19,0.8 -11.57,0.8 -16.76,-1.6 -1.6,-0.8 3.21,9.16 12.75,11.95 10.76,3.21 21.53,3.21 29.09,2.41 16.76,-1.6 25.12,-23.52 24.31,-40.27 -0.8,-20.73 -11.95,-43.44 -31.87,-51.03 -9.97,-4.01 -24.32,-4.01 -29.09,5.95z"/>
   <path class="fil0" d="M764.36 357.31c-0.38,5.19 -1.99,10.76 -3.59,17.14 8.78,2.79 16.76,3.97 24.31,3.97 20.73,0 37.87,-10.77 37.87,-32.68 0,-5.19 -1.18,-10.38 -6.38,-15.96 -1.18,-1.6 -2.79,-3.59 -17.52,-11.15 -3.21,-1.6 -5.57,-2.79 -7.98,-3.59 -4.39,-2.41 -7.98,-3.97 -10.38,-6.38 -4.77,-3.97 -6.8,-7.98 -6.8,-12.37 0,-7.56 6.38,-15.15 17.94,-15.15 9.16,0 15.96,5.57 19.93,12.75l1.6 0c0.8,-5.19 1.99,-9.16 3.59,-13.55 -7.98,-5.19 -16.76,-7.56 -24.7,-7.56 -15.15,0 -26.3,7.17 -30.69,18.32 -1.6,3.97 -2.79,8.36 -2.79,12.75 0,7.17 2.41,13.17 7.56,19.12 3.97,4.77 12.37,8.78 19.13,11.57 0.8,0.38 1.6,0.8 1.98,1.18 0.8,0 1.18,0.38 2.41,0.8 5.57,2.41 17.94,7.18 17.94,18.32 0,8.36 -7.17,16.34 -19.93,16.34 -9.96,0 -17.52,-5.99 -21.91,-13.55l-1.6 -0.34z"/>
   <path class="fil0" d="M827.34 357.31c-0.8,5.19 -2.4,10.76 -3.97,17.14 8.78,2.79 17.14,3.97 24.31,3.97 21.11,0 37.87,-10.77 37.87,-32.29 0,-5.57 -1.18,-10.76 -5.99,-16.34 -1.18,-1.6 -2.79,-3.59 -17.94,-11.15 -3.21,-1.6 -5.57,-2.79 -7.56,-3.59 -4.77,-2.41 -7.98,-3.97 -10.38,-5.99 -5.19,-4.39 -6.8,-8.36 -6.8,-12.37 0,-7.98 5.99,-15.54 17.52,-15.54 9.58,0 16.34,5.57 20.35,13.17l1.18 0c1.18,-5.57 2.4,-9.58 3.97,-13.55 -7.98,-5.19 -17.14,-7.98 -25.12,-7.98 -15.15,0 -25.92,7.17 -30.69,18.32 -1.6,3.97 -2.41,8.36 -2.41,12.75 0,7.18 1.99,13.17 7.18,19.12 3.97,4.77 12.37,8.78 19.12,11.95 0.8,0 1.6,0.38 2.41,0.8 0.38,0 1.18,0.38 2.41,0.8 5.57,2.41 17.94,7.18 17.94,18.32 0,8.36 -7.18,16.34 -20.35,16.34 -9.58,0 -17.56,-5.99 -21.53,-13.55l-1.53 -0.34z"/>
   <path class="fil0" d="M770.73 77.85l-4.39 5.19c-3.97,4.77 -2.41,13.17 0.8,19.13 16.76,31.49 39.47,63.37 38.67,96.88 1.6,0.8 2.41,-0.8 2.41,-2.41 0.8,-5.19 1.6,-12.75 1.6,-18.32 -0.8,-30.31 -19.12,-56.19 -25.92,-84.51 -3.21,-15.15 5.99,-29.09 18.32,-37.48 -12.37,4.01 -23.13,12.37 -31.49,21.53z"/>
   <path class="fil0" d="M619.65 378.84l17.14 0c-2.41,0 -4.39,-106.42 -0.8,-106.04l-17.14 0c3.21,-0.38 3.59,106.04 0.8,106.04z"/>
  </g>
  <rect class="fil2" y="-0" width="912.12" height="386.81"/>
 </g>
</svg>
