<?xml version="1.0" encoding="UTF-8"?>
<!DOCTYPE svg PUBLIC "-//W3C//DTD SVG 1.1//EN" "http://www.w3.org/Graphics/SVG/1.1/DTD/svg11.dtd">
<!-- Creator: CorelDRAW 2017 -->
<svg xmlns="http://www.w3.org/2000/svg" xml:space="preserve" width="44.2918mm" height="15.6526mm" version="1.1" style="shape-rendering:geometricPrecision; text-rendering:geometricPrecision; image-rendering:optimizeQuality; fill-rule:evenodd; clip-rule:evenodd"
viewBox="0 0 912.12 322.34"
 xmlns:xlink="http://www.w3.org/1999/xlink">
 <defs>
  <style type="text/css">
   <![CDATA[
    .fil3 {fill:none}
    .fil0 {fill:#00604D}
    .fil2 {fill:#737373}
    .fil1 {fill:#FEFEFE}
   ]]>
  </style>
 </defs>
 <g id="Capa_x0020_1">
  <metadata id="CorelCorpID_0Corel-Layer"/>
  <path class="fil0" d="M669.62 183.24c0.99,16.61 13.62,29.24 30.23,30.23 53.85,3.31 107.02,3.31 161.86,0 16.61,-0.99 29.24,-13.62 30.23,-30.23 3.66,-50.19 3.66,-98.72 0,-147.22 -1.34,-16.61 -13.62,-29.24 -30.23,-30.23 -57.16,-4.01 -106.36,-2.99 -161.86,0 -16.61,0.99 -29.24,13.62 -30.23,30.23 -2.99,49.2 -2.99,96.71 0,147.22z"/>
  <path class="fil1" d="M770.98 66.61l30.58 -22.28c18.27,-12.95 38.22,-37.55 58.49,-26.25 5.67,2.67 9.29,8.97 11.3,15.27 7.64,25.59 2.67,52.83 -4.33,79.43 -8.97,35.55 -15.94,80.77 -50.85,89.08 -3.31,0.67 -15.94,2.67 -13.3,0.67 0.67,-0.67 11.3,-8.97 13.3,-15.27 8.97,-23.58 0,-52.19 -17.95,-70.46 -25.94,-24.92 -62.82,-31.92 -99.7,-29.25 -2.99,0 -6.97,0.67 -8.97,2.99 -0.99,0.67 -5.66,-7.64 -2.32,-9.96 5.67,-3.98 6.97,-3.98 8.31,-4.65 2.32,-0.67 8.66,6.3 11.3,3.98 2.01,-1.34 3.31,-3.31 4.33,-5.66l-10.63 -0.67c11.96,-15.27 37.55,-9.64 56.49,-10.31 2.67,0 6.3,-2 1.34,2.01 -3.98,3.66 -20.27,13.3 -26.57,15.94 13.94,-1.31 27.24,-7.64 39.21,-14.61z"/>
  <path class="fil1" d="M729.77 191.23l-6.97 -8.31c-18.62,-22.95 -20.94,-54.16 -25.59,-83.41 12.28,-2.99 24.92,-3.66 37.55,0 10.98,3.31 10.98,15.94 11.96,15.28 8.31,-5.67 11.65,-4.33 17.95,-4.33 23.58,0 39.21,25.94 43.22,48.18 1.34,8.97 2.01,18.94 -2.01,26.57 -10.63,18.62 -37.55,16.61 -59.16,15.27 -5.67,-0.6 -12.63,-4.26 -16.96,-9.26z"/>
  <path class="fil0" d="M691.9 314.86l8.97 0 5 -59.16 0.99 -13.97 22.6 73.13 10.63 0 22.28 -70.78 4.65 70.78 16.61 0 0.99 0 -9.29 -88.72 -14.61 0 -21.26 61.8 -2.67 7.99 -1.34 -5 -19.6 -64.79 -11.65 0c-0.32,0 -6.3,56.49 -11.65,85.41l-0.64 3.31z"/>
  <path class="fil1" d="M690.21 31.7c1.34,-4.65 3.31,-9.64 7.64,-12.28 6.3,-4.33 13.97,-5 20.94,-2.99 19.29,6.97 47.86,36.22 46.53,36.88 -19.29,5.67 -38.22,-0.67 -57.16,5 -8.97,2.99 -15.94,9.64 -16.61,8.31 -4.97,-10.98 -4.33,-24.92 -1.34,-34.91z"/>
  <path class="fil0" d="M747.4 121.76l-0.67 2.01c-1.66,5 0,10.63 1.34,16.29 0.67,2 0.67,4.65 0.67,6.65 -0.67,3.66 -2.99,5.66 -2.99,9.29 1.66,0.67 1.66,-2.32 2.32,-3.66 3.31,-7.64 16.61,-6.97 22.95,-9.64 2,-0.67 5,-3.66 4.33,-5.66 0,-0.67 -2.33,2 -3.66,2.99 -1.34,0.67 -3.31,0.67 -5.67,0.67 -6.3,0 -11.65,-3.66 -13.97,-9.29 -1.34,-2.67 -0.67,-6.97 2.32,-8.97 13.97,-10.31 29.91,13.3 32.56,29.24 1.34,5.67 0.67,11.97 -1.34,17.6 -1.34,3.98 -5,6.97 -8.97,7.64 -5,0.67 -10.63,1.34 -14.61,-1.66 -0.67,-0.67 1.34,-1.34 1.34,-3.31 0,-1.97 -3.66,-2.67 -3.66,-2.67 0,0 0,-4.33 -3.31,-6.3 -5,-2.99 -11.3,-2.32 -14.61,2 -2.68,4.33 -2.68,9.64 0.67,11.97 4.33,2.67 8.97,2.01 13.97,1.34 2.01,0 3.31,1.34 6.3,1.34 2.67,0 -4.33,2.67 -5.67,2.67 -4.33,0.67 -9.64,0.67 -13.97,-1.34 -1.34,-0.67 2.67,7.64 10.63,9.96 8.97,2.67 17.95,2.67 24.25,2 13.97,-1.33 20.94,-19.6 20.27,-33.57 -0.67,-17.28 -9.96,-36.21 -26.57,-42.55 -8.31,-3.34 -20.27,-3.34 -24.25,4.97z"/>
  <path class="fil0" d="M790.93 296.92c-0.32,4.33 -1.66,8.97 -2.99,14.29 7.32,2.32 13.97,3.31 20.27,3.31 17.28,0 31.57,-8.97 31.57,-27.24 0,-4.33 -0.99,-8.66 -5.31,-13.3 -0.99,-1.34 -2.33,-2.99 -14.61,-9.29 -2.68,-1.34 -4.65,-2.33 -6.65,-2.99 -3.66,-2.01 -6.65,-3.31 -8.66,-5.32 -3.98,-3.31 -5.67,-6.65 -5.67,-10.31 0,-6.3 5.32,-12.63 14.96,-12.63 7.64,0 13.3,4.65 16.61,10.63l1.33 0c0.67,-4.33 1.66,-7.64 2.99,-11.3 -6.65,-4.33 -13.97,-6.3 -20.59,-6.3 -12.63,0 -21.93,5.98 -25.59,15.28 -1.34,3.31 -2.32,6.97 -2.32,10.63 0,5.98 2.01,10.98 6.3,15.94 3.31,3.98 10.31,7.32 15.94,9.64 0.67,0.32 1.34,0.67 1.66,0.99 0.67,0 0.99,0.32 2,0.67 4.65,2.01 14.96,5.98 14.96,15.28 0,6.97 -5.98,13.62 -16.61,13.62 -8.31,0 -14.61,-5 -18.27,-11.3l-1.34 -0.29z"/>
  <path class="fil0" d="M843.44 296.92c-0.67,4.33 -2,8.97 -3.31,14.29 7.32,2.32 14.29,3.31 20.27,3.31 17.6,0 31.57,-8.97 31.57,-26.92 0,-4.65 -0.99,-8.97 -5,-13.62 -0.99,-1.34 -2.32,-2.99 -14.96,-9.29 -2.67,-1.34 -4.65,-2.32 -6.3,-2.99 -3.98,-2 -6.65,-3.31 -8.66,-5 -4.33,-3.66 -5.67,-6.97 -5.67,-10.31 0,-6.65 5,-12.95 14.61,-12.95 7.99,0 13.62,4.65 16.96,10.98l0.99 0c0.99,-4.65 2.01,-7.99 3.31,-11.3 -6.65,-4.33 -14.29,-6.65 -20.94,-6.65 -12.63,0 -21.61,5.98 -25.59,15.28 -1.34,3.31 -2.01,6.97 -2.01,10.63 0,5.98 1.66,10.98 5.98,15.94 3.31,3.98 10.31,7.32 15.94,9.96 0.67,0 1.34,0.32 2.01,0.67 0.32,0 0.99,0.32 2.01,0.67 4.65,2.01 14.96,5.98 14.96,15.28 0,6.97 -5.98,13.62 -16.96,13.62 -7.99,0 -14.64,-5 -17.95,-11.3l-1.27 -0.29z"/>
  <path class="fil0" d="M796.25 63.93l-3.66 4.33c-3.31,3.98 -2,10.98 0.67,15.94 13.97,26.25 32.9,52.83 32.24,80.77 1.34,0.67 2,-0.67 2,-2.01 0.67,-4.33 1.34,-10.63 1.34,-15.28 -0.67,-25.27 -15.94,-46.84 -21.61,-70.46 -2.68,-12.63 5,-24.25 15.27,-31.25 -10.31,3.34 -19.29,10.31 -26.25,17.95z"/>
  <path class="fil0" d="M670.29 314.86l14.29 0c-2.01,0 -3.66,-88.72 -0.67,-88.41l-14.29 0c2.67,-0.32 2.99,88.41 0.67,88.41z"/>
  <path class="fil2" d="M204.01 168.63c-2.99,-1.34 -6.65,-2.01 -11.3,-2.01 -2.32,0 -3.66,0 -3.98,0.67 -0.67,0.32 -0.99,1.34 -0.99,2.67l0 27.91c2.01,0.32 3.31,0.32 3.98,0.32 0.32,0 0.99,0 1.66,0 5,0 8.66,-0.67 11.65,-2.01 5,-2.67 7.64,-7.32 7.64,-14.29 0,-6.62 -2.99,-10.95 -8.66,-13.27zm-35.9 62.82c3.98,-0.32 6.65,-1.34 7.64,-2.32 0.99,-1.34 1.34,-4.33 1.34,-8.66l0 -46.21c0,-3.98 -0.67,-6.3 -1.65,-7.64 -0.99,-0.99 -3.66,-1.65 -7.32,-2l0 -2.01 28.26 0c8.97,0 15.94,1.66 20.59,5.32 5,3.31 7.32,7.99 7.32,13.62 0,7.32 -2.68,12.63 -7.99,15.94 -5.32,3.31 -11.97,5 -19.95,5 -1.34,0 -2.67,0 -4.65,0 -1.66,-0.32 -2.99,-0.32 -3.98,-0.32l0 19.61c0,3.98 0.67,6.65 2,7.64 1.34,0.99 3.98,1.66 8.31,2.01l0 2.01 -29.91 0 0 -1.97z"/>
  <path class="fil2" d="M254.2 204.18c4.33,-2.01 6.3,-5.32 6.3,-9.96 0,-4.65 -2,-7.99 -5.66,-9.64 -2.01,-0.67 -4.65,-1.34 -7.99,-1.34 -2.32,0 -3.66,0.32 -4.33,0.67 -0.67,0.35 -0.67,0.99 -0.67,2.01l0 19.95c5.7,-0.35 10.02,-0.67 12.35,-1.69zm-27.59 27.59c3.31,-0.32 5,-0.67 5.98,-1.66 0.67,-0.99 0.99,-2.99 0.99,-6.3l0 -34.91c0,-2.68 -0.32,-4.65 -1.34,-5.67 -0.67,-0.67 -2.67,-1.34 -5.67,-1.66l0 -1.34 22.28 0c4.65,0 8.66,0.67 11.65,1.66 5.98,2.32 8.97,6.3 8.97,12.28 0,3.98 -1.34,6.97 -3.98,9.29 -2.67,2.01 -6.3,3.31 -10.63,4.33l16.61 20.27c0.99,1.34 2,2.01 2.99,2.68 0.99,0.67 2.32,0.99 3.98,0.99l0 1.65 -12.95 0 -20.27 -24.92 -3.31 0.32 0 15.94c0,2.99 0.32,4.65 1.34,5.66 0.99,0.67 2.67,1.34 5.98,1.34l0 1.66 -22.6 0 0 -1.62 -0.03 0z"/>
  <path class="fil2" d="M295.73 225.47c3.31,3.98 7.64,5.98 12.28,5.98 5,0 8.97,-1.65 12.28,-5.66 3.31,-3.98 5,-10.31 5,-18.94 0,-8.66 -1.65,-14.96 -5,-18.94 -3.66,-3.98 -7.64,-5.98 -12.28,-5.98 -4.65,0 -8.66,2.01 -11.96,5.98 -3.31,4.33 -5.32,10.31 -5.32,18.94 0.03,8.31 1.69,14.61 5,18.62zm-5.98 -39.24c5,-4.65 11.3,-7.32 18.27,-7.32 7.32,0 13.3,2.67 18.27,7.32 5.32,5 7.99,11.97 7.99,20.59 0,8.66 -2.67,15.62 -8.31,20.59 -5,4.65 -10.98,6.97 -17.95,6.97 -7.32,0 -13.62,-2.32 -18.62,-7.64 -5,-5 -7.64,-11.96 -7.64,-19.95 0.03,-8.59 2.67,-15.56 7.99,-20.56z"/>
  <path class="fil2" d="M376.18 180.6c2.99,0.99 5,1.34 5.31,1.34 0.99,0 2.01,-0.32 2.33,-0.67 0.67,-0.32 0.99,-0.99 1.34,-2.01l1.65 0 0.67 16.96 -1.66 0c-1.66,-3.98 -3.31,-6.97 -5.32,-8.66 -2.99,-3.31 -7.32,-5 -12.28,-5 -4.96,0 -9.64,2.01 -13.62,5.67 -3.66,3.98 -5.67,10.31 -5.67,19.29 0,7.64 2,13.3 5.67,17.6 3.98,3.98 8.66,5.98 14.61,5.98 0.99,0 2,0 3.31,-0.32 1.34,0 2.67,-0.32 3.66,-0.67 2,-0.67 3.31,-1.34 3.66,-1.65 0.35,-0.32 0.67,-0.99 0.67,-2.01l0 -12.95c0,-2.99 -0.32,-5 -1.34,-5.67 -0.99,-0.67 -2.67,-1.34 -5.66,-1.34l0 -1.66 20.27 0 0 1.65c-2,0 -3.31,0.32 -3.98,0.99 -0.99,0.67 -1.34,2.32 -1.34,5l0 15.94c0,0.99 -2.32,2.01 -6.97,3.66 -4.65,1.65 -9.29,2.32 -13.3,2.32 -7.99,0 -14.64,-2.32 -19.95,-6.65 -5.98,-5.32 -8.97,-11.96 -8.97,-20.59 0,-7.32 2.32,-13.62 7.32,-18.94 5,-5.98 11.97,-8.97 20.59,-8.97 3.02,0 6.01,0.32 9.01,1.34z"/>
  <path class="fil2" d="M423.69 204.18c4.33,-2.01 6.3,-5.32 6.3,-9.96 0,-4.65 -1.65,-7.99 -5.66,-9.64 -2.01,-0.67 -4.65,-1.34 -7.99,-1.34 -2.32,0 -3.66,0.32 -4.33,0.67 -0.32,0.32 -0.67,0.99 -0.67,2.01l0 19.95c5.7,-0.35 10.02,-0.67 12.35,-1.69zm-27.24 27.59c2.99,-0.32 5,-0.67 5.66,-1.66 0.67,-0.99 0.99,-2.99 0.99,-6.3l0 -34.91c0,-2.68 -0.32,-4.65 -0.99,-5.67 -0.99,-0.67 -2.99,-1.34 -5.67,-1.66l0 -1.34 22.28 0c4.33,0 8.31,0.67 11.3,1.66 5.98,2.32 8.97,6.3 8.97,12.28 0,3.98 -1.34,6.97 -3.98,9.29 -2.68,2.01 -5.98,3.31 -10.63,4.33l16.61 20.27c0.99,1.34 2.01,2.01 2.99,2.68 0.99,0.67 2.33,0.99 3.98,0.99l0 1.65 -12.95 0 -20.27 -24.92 -3.31 0.32 0 15.94c0,2.99 0.32,4.65 1.34,5.66 0.99,0.67 2.99,1.34 5.98,1.34l0 1.66 -22.28 0 0 -1.62 -0.03 0z"/>
  <path class="fil2" d="M484.86 212.84l-9.29 -22.28 -9.29 22.28 18.59 0zm-34.59 20.59l0 -1.66c2,0 3.66,-0.99 4.65,-2.32 0.99,-1.34 2.67,-5 5.32,-10.63l16.61 -39.56 1.66 0 19.95 45.54c1.34,2.99 2.32,5 3.31,5.66 0.67,0.67 2.01,1.34 3.98,1.34l0 1.66 -20.59 0 0 -1.66c2.32,0 3.98,-0.32 4.65,-0.67 0.67,-0.32 0.99,-0.99 0.99,-2.32 0,-0.32 0,-0.99 -0.32,-2.01 -0.32,-1.02 -0.67,-2.01 -1.34,-2.99l-2.99 -7.64 -21.26 0c-2.01,5 -3.31,8.31 -3.66,9.29 -0.32,1.34 -0.67,2.32 -0.67,2.99 0,1.34 0.67,2.32 1.66,2.67 0.67,0.32 2.01,0.67 3.98,0.67l0 1.66 -15.91 0 0 -0.03z"/>
  <path class="fil2" d="M507.77 231.77c3.31,-0.32 5.66,-0.99 6.65,-2.01 0.67,-1.34 1.34,-3.98 1.34,-8.31l0 -32.55c0,-2.99 -0.67,-4.65 -1.34,-5.67 -0.99,-0.99 -2.99,-1.34 -6.3,-1.66l0 -1.34 15.94 0 18.27 39.88 17.95 -39.88 15.94 0 0 1.34c-2.99,0.32 -5,0.99 -5.67,1.66 -0.99,0.99 -1.34,2.99 -1.34,5.66l0 35.9c0,2.67 0.32,4.65 1.34,5.31 0.67,0.99 2.67,1.66 5.67,1.66l0 1.66 -22.28 0 0 -1.66c2.99,0 5,-0.67 5.98,-1.66 0.67,-0.99 0.99,-2.99 0.99,-6.3l0 -36.25 -20.27 45.86 -1.34 0 -20.27 -43.85 0 31.92c0,4.33 0.67,7.32 2.01,8.66 0.99,0.99 2.67,1.34 5.67,1.65l0 1.66 -18.94 0 0 -1.69z"/>
  <path class="fil2" d="M614.12 212.84l-9.29 -22.28 -8.97 22.28 18.27 0zm-34.56 20.59l0 -1.66c2.01,0 3.66,-0.99 4.65,-2.32 0.99,-1.34 2.68,-5 5.32,-10.63l16.61 -39.56 1.65 0 19.95 45.54c1.34,2.99 2.67,5 3.31,5.66 0.67,0.67 2,1.34 3.98,1.34l0 1.66 -20.27 0 0 -1.66c2.33,0 3.66,-0.32 4.33,-0.67 0.67,-0.32 0.99,-0.99 0.99,-2.32 0,-0.32 0,-0.99 -0.32,-2.01 -0.32,-1.02 -0.67,-2.01 -0.99,-2.99l-3.31 -7.64 -21.26 0c-2.01,5 -3.31,8.31 -3.66,9.29 -0.32,1.34 -0.67,2.32 -0.67,2.99 0,1.34 0.67,2.32 1.66,2.67 0.67,0.32 2,0.67 3.98,0.67l0 1.66 -15.94 0 0 -0.03z"/>
  <path class="fil2" d="M17.24 312.19c3.31,-0.32 5.32,-0.67 6.3,-1.34 0.99,-0.99 1.34,-2.67 1.34,-5.98l0 -35.55c0,-2.99 -0.32,-5 -1.34,-5.67 -0.99,-0.99 -2.99,-1.34 -6.3,-1.66l0 -1.34 23.93 0 0 1.34c-3.31,0.32 -5.67,0.67 -6.65,1.66 -0.99,0.67 -1.34,2.67 -1.34,5.67l0 35.55c0,3.31 0.32,5 1.34,5.98 0.99,0.67 3.31,0.99 6.65,1.34l0 1.34 -23.93 0 0 -1.34z"/>
  <path class="fil2" d="M43.49 312.19c3.31,-0.32 5.67,-0.99 6.65,-2.32 0.67,-0.99 1.33,-3.66 1.33,-7.99l0 -32.55c0,-2.99 -0.67,-5 -1.34,-5.67 -0.99,-0.99 -2.99,-1.34 -6.3,-1.66l0 -1.34 15.94 0 18.27 39.88 17.95 -39.88 15.94 0 0 1.34c-2.99,0.32 -5,0.67 -5.67,1.66 -0.99,0.99 -1.34,2.67 -1.34,5.67l0 35.55c0,2.99 0.32,5 1.34,5.67 0.67,0.99 2.67,1.34 5.67,1.65l0 1.34 -22.28 0 0 -1.34c2.99,-0.32 5,-0.99 5.98,-1.65 0.67,-0.99 0.99,-2.99 0.99,-6.65l0 -35.9 -20.27 45.54 -1.34 0 -20.24 -43.53 0 31.92c0,4.33 0.67,7.32 2,8.66 0.99,0.67 2.68,1.34 5.67,1.66l0 1.34 -18.97 0 0 -1.37z"/>
  <path class="fil2" d="M119.27 297.58c1.34,3.66 2.99,6.3 4.65,8.66 3.31,3.66 7.32,5.66 11.97,5.66 2.67,0 4.65,-0.99 6.65,-2.67 2.01,-1.65 2.67,-3.66 2.67,-6.65 0,-2.67 -0.67,-5 -2.67,-6.97 -1.34,-0.99 -3.66,-2.99 -7.64,-5.31l-6.97 -4.33c-2,-1.34 -3.66,-2.67 -5,-3.98 -2.32,-2.67 -3.31,-5.32 -3.31,-8.31 0,-3.98 1.34,-7.64 3.98,-10.31 2.64,-2.67 6.3,-3.98 10.63,-3.98 2.01,0 3.98,0.32 6.65,1.34 2.67,0.99 3.98,1.34 4.33,1.34 0.99,0 2.01,0 2.32,-0.67 0.32,-0.32 0.67,-0.99 0.67,-2.01l1.65 0 2.01 17.28 -2.01 0c-1.33,-5.31 -3.31,-8.97 -6.3,-10.98 -2.99,-2.01 -5.67,-2.99 -8.66,-2.99 -2.32,0 -3.98,0.67 -5.66,2 -1.66,1.34 -2.67,2.99 -2.67,5.32 0,2 0.67,3.98 2,5.31 1.34,1.34 3.31,2.99 5.98,4.65l6.97 4.33c4.33,2.67 7.32,5.32 9.29,7.64 1.66,2.32 2.67,5 2.67,7.99 0,4.33 -1.65,7.64 -4.65,10.63 -3.31,2.67 -7.32,4.33 -12.28,4.33 -2.32,0 -5,-0.67 -7.64,-1.66 -2.99,-0.67 -4.33,-1.34 -4.65,-1.34 -0.99,0 -1.65,0.32 -2.01,0.99 -0.32,0.32 -0.67,0.99 -0.67,1.66l-1.65 0 -2.68 -16.96 2.01 0z"/>
  <path class="fil2" d="M163.79 297.58c1.34,3.66 2.99,6.3 5,8.66 2.99,3.66 6.97,5.66 11.65,5.66 2.67,0 5,-0.99 6.65,-2.67 2,-1.65 2.99,-3.66 2.99,-6.65 0,-2.67 -0.99,-5 -2.99,-6.97 -0.99,-0.99 -3.66,-2.99 -7.64,-5.31l-6.97 -4.33c-2.01,-1.34 -3.66,-2.67 -4.65,-3.98 -2.33,-2.67 -3.66,-5.32 -3.66,-8.31 0,-3.98 1.34,-7.64 4.33,-10.31 2.67,-2.67 5.98,-3.98 10.63,-3.98 1.66,0 3.98,0.32 6.65,1.34 2.32,0.99 3.98,1.34 4.33,1.34 0.99,0 1.65,0 2,-0.67 0.32,-0.32 0.67,-0.99 0.99,-2.01l1.65 0 1.66 17.28 -2.01 0c-1.34,-5.31 -3.31,-8.97 -6.3,-10.98 -2.67,-2.01 -5.66,-2.99 -8.31,-2.99 -2.32,0 -4.33,0.67 -5.98,2 -1.66,1.34 -2.32,2.99 -2.32,5.32 0,2 0.67,3.98 2,5.31 0.99,1.34 2.99,2.99 5.67,4.65l6.97 4.33c4.65,2.67 7.64,5.32 9.29,7.64 2,2.32 2.67,5 2.67,7.99 0,4.33 -1.34,7.64 -4.65,10.63 -2.99,2.67 -7.32,4.33 -12.28,4.33 -2.32,0 -5,-0.67 -7.64,-1.66 -2.67,-0.67 -4.33,-1.34 -4.65,-1.34 -0.99,0 -1.66,0.32 -2.01,0.99 -0.32,0.32 -0.32,0.99 -0.67,1.66l-1.66 0 -2.32 -16.96 1.56 0z"/>
  <polygon class="fil2" points="206.68,297.9 226.29,297.9 226.29,292.94 206.68,292.94 "/>
  <path class="fil2" d="M258.52 265c-2.32,-0.99 -5,-1.34 -8.66,-1.34 -1.66,0 -2.67,0 -2.99,0.32 -0.32,0.32 -0.67,0.99 -0.67,2.32l0 20.94c1.65,0 2.32,0 2.99,0 0.32,0 0.67,0 1.34,0 3.66,0 6.65,-0.32 8.66,-1.34 3.66,-2.01 5.66,-5.67 5.66,-10.98 -0.03,-4.61 -2,-7.92 -6.33,-9.93zm-26.92 47.19c2.99,-0.32 5,-0.99 5.67,-1.65 0.67,-0.99 0.99,-3.31 0.99,-6.65l-0 -34.56c0,-2.99 -0.32,-4.65 -1.33,-5.67 -0.67,-0.99 -2.68,-1.34 -5.32,-1.66l0 -1.34 20.94 0c6.97,0 11.97,1.34 15.63,3.66 3.66,2.67 5.66,6.3 5.66,10.63 0,5.32 -2,9.29 -5.98,11.96 -4.33,2.32 -9.29,3.66 -15.27,3.66 -0.67,0 -2.01,0 -3.31,0 -1.34,-0.32 -2.32,-0.32 -2.99,-0.32l0 14.64c0,2.99 0.67,5 1.65,5.67 0.67,0.99 2.99,1.34 5.98,1.66l0 1.34 -22.28 0 0 -1.37 -0.03 0z"/>
  <path class="fil2" d="M303.05 284.28c4.33,-1.66 6.65,-5 6.65,-9.96 0,-4.33 -2.01,-7.64 -5.98,-9.29 -2.01,-0.99 -4.65,-1.34 -7.99,-1.34 -2.32,0 -3.66,0 -4.33,0.32 -0.32,0.32 -0.67,1.34 -0.67,2.32l0 19.95c6.02,-0.35 9.99,-1.02 12.31,-2zm-27.24 27.91c2.99,-0.32 5,-0.99 5.67,-1.65 0.67,-0.99 1.34,-3.31 1.34,-6.65l0 -34.56c0,-2.99 -0.67,-4.65 -1.34,-5.67 -0.99,-0.99 -2.67,-1.34 -5.67,-1.66l0 -1.34 22.28 0c4.65,0 8.31,0.32 11.65,1.66 5.67,2.32 8.66,6.3 8.66,12.28 0,3.98 -1.34,6.97 -3.98,8.97 -2.67,2.32 -5.98,3.66 -10.63,4.33l16.61 20.27c0.99,1.34 2.01,2.32 2.99,2.99 0.99,0.32 2.32,0.99 3.98,0.99l0 1.34 -12.95 0 -19.99 -24.57 -3.66 0.32 0 15.63c0,2.99 0.67,5 1.34,5.67 0.99,0.99 2.99,1.34 5.98,1.65l0 1.34 -22.28 0 0 -1.34z"/>
  <path class="fil2" d="M344.93 305.89c3.31,3.98 7.32,5.98 12.28,5.98 4.65,0 8.66,-2.01 11.96,-5.98 3.31,-3.66 5.32,-9.96 5.32,-18.62 0,-8.97 -2.01,-15.27 -5.32,-19.28 -3.31,-3.66 -7.32,-5.67 -11.96,-5.67 -5,0 -8.97,2.01 -12.28,5.98 -3.31,3.98 -5,10.31 -5,18.94 0,8.34 1.69,14.67 5,18.65zm-5.98 -39.21c5,-5 10.98,-7.32 18.27,-7.32 6.97,0 13.3,2.32 18.27,7.32 5.31,5 7.99,11.97 7.99,20.59 0,8.62 -2.68,15.63 -8.31,20.59 -5,4.65 -10.98,6.97 -17.95,6.97 -7.64,0 -13.97,-2.67 -18.94,-7.64 -5,-5.32 -7.32,-11.97 -7.32,-19.95 0,-8.59 2.67,-15.59 7.99,-20.56z"/>
  <path class="fil2" d="M391.45 297.58c1.34,3.66 2.99,6.3 5,8.66 2.99,3.66 6.97,5.66 11.65,5.66 2.67,0 5,-0.99 6.65,-2.67 2.01,-1.65 2.99,-3.66 2.99,-6.65 0,-2.67 -0.99,-5 -2.99,-6.97 -0.99,-0.99 -3.66,-2.99 -7.64,-5.31l-6.97 -4.33c-2.01,-1.34 -3.66,-2.67 -4.65,-3.98 -2.32,-2.67 -3.66,-5.32 -3.66,-8.31 0,-3.98 1.34,-7.64 3.98,-10.31 2.99,-2.67 6.3,-3.98 10.98,-3.98 1.65,0 3.98,0.32 6.65,1.34 2.33,0.99 3.98,1.34 4.33,1.34 0.99,0 1.66,0 2.01,-0.67 0.32,-0.32 0.67,-0.99 0.99,-2.01l1.65 0 1.66 17.28 -2.01 0c-1.34,-5.31 -3.31,-8.97 -6.3,-10.98 -2.68,-2.01 -5.67,-2.99 -8.66,-2.99 -2,0 -3.98,0.67 -5.66,2 -1.66,1.34 -2.33,2.99 -2.33,5.32 0,2 0.67,3.98 1.66,5.31 1.34,1.34 3.31,2.99 5.98,4.65l6.97 4.33c4.65,2.67 7.64,5.32 9.29,7.64 2,2.32 2.67,5 2.67,7.99 0,4.33 -1.34,7.64 -4.65,10.63 -2.99,2.67 -7.32,4.33 -12.28,4.33 -2.32,0 -5,-0.67 -7.64,-1.66 -2.67,-0.67 -4.33,-1.34 -4.65,-1.34 -0.99,0 -1.66,0.32 -2.01,0.99 -0.32,0.32 -0.32,0.99 -0.67,1.66l-1.66 0 -2.32 -16.96 1.62 0z"/>
  <path class="fil2" d="M459.59 265c-2.32,-0.99 -5.32,-1.34 -8.66,-1.34 -1.65,0 -2.67,0 -2.99,0.32 -0.67,0.32 -0.67,0.99 -0.67,2.32l0 20.94c1.34,0 2.32,0 2.67,0 0.67,0 0.99,0 1.34,0 3.66,0 6.65,-0.32 8.66,-1.34 3.98,-2.01 5.98,-5.67 5.98,-10.98 -0.03,-4.61 -2.36,-7.92 -6.33,-9.93zm-27.24 47.19c2.99,-0.32 5,-0.99 5.66,-1.65 0.99,-0.99 1.34,-3.31 1.34,-6.65l0 -34.56c0,-2.99 -0.67,-4.65 -1.34,-5.67 -0.99,-0.99 -2.67,-1.34 -5.66,-1.66l0 -1.34 21.26 0c6.65,0 11.97,1.34 15.63,3.66 3.66,2.67 5.32,6.3 5.32,10.63 0,5.32 -2.01,9.29 -5.98,11.96 -3.98,2.32 -8.97,3.66 -14.96,3.66 -0.99,0 -2,0 -3.31,0 -1.34,-0.32 -2.32,-0.32 -2.99,-0.32l0 14.64c0,2.99 0.32,5 1.34,5.67 0.99,0.99 2.99,1.34 6.3,1.66l0 1.34 -22.59 0 0 -1.37z"/>
  <path class="fil2" d="M476.52 312.19c2.99,-0.32 5,-0.99 5.98,-1.65 0.67,-0.67 1.34,-2.67 1.34,-5.67l0 -35.55c0,-2.99 -0.67,-4.65 -1.34,-5.67 -0.99,-0.99 -2.99,-1.34 -5.98,-1.66l0 -1.34 42.9 0 0.32 11.3 -2.32 0c-0.67,-3.66 -1.65,-5.66 -2.99,-6.97 -1.34,-0.99 -4.33,-1.34 -8.97,-1.34l-10.98 0c-1.34,0 -2,0 -2.32,0.32 0,0.67 -0.32,1.34 -0.32,2.32l0 17.95 12.28 0c3.66,0 5.66,-0.67 6.65,-1.65 0.99,-0.99 1.66,-2.99 2.32,-5.98l2.01 0 0 18.62 -2.01 0c-0.67,-3.31 -1.34,-5.32 -2.32,-6.3 -0.99,-0.99 -2.99,-1.66 -6.65,-1.66l-12.28 0 0 19.95c0,1.66 0.67,2.68 1.65,2.99 0.99,0.32 3.98,0.32 8.97,0.32 5.32,0 9.29,-0.67 11.97,-1.66 2.67,-1.34 5,-4.33 6.97,-8.66l2.32 0 -3.66 13.3 -43.53 0 0 -1.34z"/>
  <path class="fil2" d="M553.31 284.28c3.98,-1.66 6.3,-5 6.3,-9.96 0,-4.33 -2,-7.64 -5.66,-9.29 -2.33,-0.99 -5,-1.34 -8.31,-1.34 -2.32,0 -3.66,0 -3.98,0.32 -0.67,0.32 -0.99,1.34 -0.99,2.32l0 19.95c5.98,-0.35 9.96,-1.02 12.63,-2zm-27.59 27.91c2.99,-0.32 5,-0.99 5.67,-1.65 0.99,-0.99 1.34,-3.31 1.34,-6.65l0 -34.56c0,-2.99 -0.67,-4.65 -1.34,-5.67 -0.99,-0.99 -2.67,-1.34 -5.67,-1.66l0 -1.34 22.28 0c4.65,0 8.31,0.32 11.65,1.66 5.66,2.32 8.66,6.3 8.66,12.28 0,3.98 -1.34,6.97 -3.98,8.97 -2.32,2.32 -5.98,3.66 -10.63,4.33l16.61 20.27c0.99,1.34 2.01,2.32 2.99,2.99 0.99,0.32 2.32,0.99 3.98,0.99l0 1.34 -12.95 0 -19.95 -24.6 -3.66 0.32 0 15.63c0,2.99 0.67,5 1.34,5.66 0.99,0.99 2.99,1.34 5.98,1.66l0 1.34 -22.28 0 0 -1.31 -0.03 0z"/>
  <path class="fil2" d="M614.12 292.94l-9.29 -21.93 -8.97 21.93 18.27 0zm-34.56 20.59l0 -1.34c2.01,-0.32 3.66,-0.99 4.65,-2.32 0.99,-1.34 2.68,-5 5.32,-10.98l16.61 -39.21 1.65 -0 19.95 45.54c1.34,2.99 2.67,4.65 3.31,5.67 0.67,0.67 2,0.99 3.98,1.34l0 1.34 -20.27 0 0 -1.34c2.33,-0.32 3.66,-0.32 4.33,-0.67 0.67,-0.35 0.99,-0.99 0.99,-2.32 0,-0.32 0,-0.99 -0.32,-2.01 -0.32,-0.99 -0.67,-2 -0.99,-3.31l-3.31 -7.64 -21.26 0c-2.01,5.31 -3.31,8.66 -3.66,9.64 -0.32,1.34 -0.67,2.01 -0.67,2.67 0,1.34 0.67,2.32 1.66,2.99 0.67,0.32 2,0.67 3.98,0.67l0 1.34 -15.94 0 0 -0.06z"/>
  <rect class="fil3" y="-0" width="912.12" height="322.34"/>
 </g>
</svg>
